%TF.GenerationSoftware,KiCad,Pcbnew,9.0.0*%
%TF.CreationDate,2026-03-16T00:03:23+01:00*%
%TF.ProjectId,manufacturing_main,6d616e75-6661-4637-9475-72696e675f6d,rev?*%
%TF.SameCoordinates,Original*%
%TF.FileFunction,Drillmap*%
%TF.FilePolarity,Positive*%
%FSLAX45Y45*%
G04 Gerber Fmt 4.5, Leading zero omitted, Abs format (unit mm)*
G04 Created by KiCad (PCBNEW 9.0.0) date 2026-03-16 00:03:23*
%MOMM*%
%LPD*%
G01*
G04 APERTURE LIST*
%ADD10C,0.100000*%
%ADD11C,0.200000*%
G04 APERTURE END LIST*
D10*
X16766900Y-11693000D02*
G75*
G02*
X16716900Y-11643000I0J50000D01*
G01*
X16896900Y-11643000D02*
G75*
G02*
X16846900Y-11693000I-50000J0D01*
G01*
X16846900Y-11693000D02*
X16766900Y-11693000D01*
X16896900Y-11643000D02*
X16896900Y-4993000D01*
X13306900Y-11393000D02*
X13306910Y-11386990D01*
X13306923Y-11380984D01*
X13306937Y-11374982D01*
X13306953Y-11368983D01*
X13306972Y-11362988D01*
X13306992Y-11356997D01*
X13307014Y-11351010D01*
X13307039Y-11345026D01*
X13307065Y-11339046D01*
X13307093Y-11333070D01*
X13307124Y-11327098D01*
X13307156Y-11321129D01*
X13307190Y-11315165D01*
X13307226Y-11309204D01*
X13307264Y-11303246D01*
X13307305Y-11297293D01*
X13307347Y-11291343D01*
X13307391Y-11285397D01*
X13307437Y-11279454D01*
X13307485Y-11273516D01*
X13307535Y-11267581D01*
X13307587Y-11261649D01*
X13307641Y-11255722D01*
X13307697Y-11249798D01*
X13307755Y-11243878D01*
X13307815Y-11237962D01*
X13307876Y-11232049D01*
X13307940Y-11226141D01*
X13308006Y-11220235D01*
X13308074Y-11214334D01*
X13308143Y-11208436D01*
X13308215Y-11202542D01*
X13308288Y-11196652D01*
X13308364Y-11190766D01*
X13308441Y-11184883D01*
X13308521Y-11179004D01*
X13308602Y-11173128D01*
X13308685Y-11167257D01*
X13308771Y-11161389D01*
X13308858Y-11155525D01*
X13308947Y-11149664D01*
X13309038Y-11143807D01*
X13309131Y-11137954D01*
X13309226Y-11132104D01*
X13309323Y-11126259D01*
X13309422Y-11120417D01*
X13309522Y-11114578D01*
X13309625Y-11108744D01*
X13309730Y-11102913D01*
X13309836Y-11097085D01*
X13309945Y-11091262D01*
X13310055Y-11085442D01*
X13310168Y-11079625D01*
X13310282Y-11073813D01*
X13310398Y-11068004D01*
X13310516Y-11062199D01*
X13310636Y-11056397D01*
X13310758Y-11050599D01*
X13310882Y-11044805D01*
X13311008Y-11039015D01*
X13311136Y-11033228D01*
X13311266Y-11027445D01*
X13311397Y-11021665D01*
X13311531Y-11015890D01*
X13311666Y-11010117D01*
X13311804Y-11004349D01*
X13311943Y-10998584D01*
X13312084Y-10992823D01*
X13312227Y-10987065D01*
X13312372Y-10981312D01*
X13312519Y-10975561D01*
X13312668Y-10969815D01*
X13312819Y-10964072D01*
X13312971Y-10958333D01*
X13313126Y-10952597D01*
X13313282Y-10946865D01*
X13313440Y-10941137D01*
X13313601Y-10935413D01*
X13313763Y-10929692D01*
X13313927Y-10923974D01*
X13314093Y-10918261D01*
X13314261Y-10912551D01*
X13314430Y-10906844D01*
X13314602Y-10901141D01*
X13314775Y-10895442D01*
X13314951Y-10889747D01*
X13315128Y-10884055D01*
X13315307Y-10878367D01*
X13315488Y-10872682D01*
X13315671Y-10867001D01*
X13315856Y-10861324D01*
X13316043Y-10855650D01*
X13316231Y-10849980D01*
X13316422Y-10844314D01*
X13316614Y-10838651D01*
X13316808Y-10832992D01*
X13317004Y-10827336D01*
X13317202Y-10821684D01*
X13317402Y-10816036D01*
X13317604Y-10810391D01*
X13317807Y-10804750D01*
X13318013Y-10799113D01*
X13318220Y-10793479D01*
X13318429Y-10787848D01*
X13318640Y-10782222D01*
X13318853Y-10776599D01*
X13319068Y-10770979D01*
X13319284Y-10765363D01*
X13319503Y-10759751D01*
X13319723Y-10754142D01*
X13319946Y-10748537D01*
X13320170Y-10742936D01*
X13320396Y-10737338D01*
X13320623Y-10731744D01*
X13320853Y-10726153D01*
X13321085Y-10720566D01*
X13321318Y-10714983D01*
X13321553Y-10709403D01*
X13321790Y-10703826D01*
X13322029Y-10698254D01*
X13322270Y-10692684D01*
X13322512Y-10687119D01*
X13322757Y-10681557D01*
X13323003Y-10675998D01*
X13323251Y-10670444D01*
X13323501Y-10664892D01*
X13323753Y-10659345D01*
X13324007Y-10653801D01*
X13324262Y-10648260D01*
X13324519Y-10642723D01*
X13324779Y-10637190D01*
X13325040Y-10631660D01*
X13325302Y-10626134D01*
X13325567Y-10620611D01*
X13325834Y-10615092D01*
X13326102Y-10609576D01*
X13326372Y-10604064D01*
X13326644Y-10598556D01*
X13326918Y-10593051D01*
X13327193Y-10587549D01*
X13327471Y-10582052D01*
X13327750Y-10576557D01*
X13328031Y-10571067D01*
X13328314Y-10565580D01*
X13328599Y-10560096D01*
X13328885Y-10554616D01*
X13329174Y-10549140D01*
X13329464Y-10543667D01*
X13329756Y-10538197D01*
X13330050Y-10532731D01*
X13330345Y-10527269D01*
X13330643Y-10521810D01*
X13330942Y-10516355D01*
X13331243Y-10510903D01*
X13331546Y-10505455D01*
X13331851Y-10500010D01*
X13332157Y-10494569D01*
X13332465Y-10489132D01*
X13332776Y-10483698D01*
X13333087Y-10478267D01*
X13333401Y-10472840D01*
X13333717Y-10467417D01*
X13334034Y-10461997D01*
X13334353Y-10456580D01*
X13334674Y-10451167D01*
X13334996Y-10445758D01*
X13335321Y-10440352D01*
X13335647Y-10434950D01*
X13335975Y-10429551D01*
X13336305Y-10424155D01*
X13336637Y-10418764D01*
X13336970Y-10413375D01*
X13337305Y-10407990D01*
X13337642Y-10402609D01*
X13337981Y-10397231D01*
X13338322Y-10391857D01*
X13338664Y-10386486D01*
X13339008Y-10381119D01*
X13339354Y-10375755D01*
X13339701Y-10370395D01*
X13340051Y-10365038D01*
X13340402Y-10359685D01*
X13340755Y-10354335D01*
X13341110Y-10348988D01*
X13341466Y-10343645D01*
X13341825Y-10338306D01*
X13342185Y-10332970D01*
X13342547Y-10327638D01*
X13342910Y-10322309D01*
X13343276Y-10316984D01*
X13343643Y-10311662D01*
X13344012Y-10306343D01*
X13344382Y-10301028D01*
X13344755Y-10295717D01*
X13345129Y-10290409D01*
X13345505Y-10285104D01*
X13345883Y-10279803D01*
X13346262Y-10274505D01*
X13346643Y-10269211D01*
X13347026Y-10263920D01*
X13347411Y-10258633D01*
X13347797Y-10253349D01*
X13348186Y-10248069D01*
X13348576Y-10242792D01*
X13348967Y-10237519D01*
X13349361Y-10232249D01*
X13349756Y-10226983D01*
X13350153Y-10221720D01*
X13350552Y-10216460D01*
X13350952Y-10211204D01*
X13351354Y-10205951D01*
X13351758Y-10200702D01*
X13352164Y-10195456D01*
X13352572Y-10190214D01*
X13352981Y-10184975D01*
X13353392Y-10179740D01*
X13353804Y-10174508D01*
X13354219Y-10169279D01*
X13354635Y-10164054D01*
X13355052Y-10158833D01*
X13355472Y-10153614D01*
X13355893Y-10148400D01*
X13356316Y-10143188D01*
X13356741Y-10137980D01*
X13357168Y-10132776D01*
X13357596Y-10127575D01*
X13358026Y-10122377D01*
X13358457Y-10117183D01*
X13358891Y-10111992D01*
X13359326Y-10106805D01*
X13359763Y-10101621D01*
X13360201Y-10096440D01*
X13360641Y-10091263D01*
X13361083Y-10086090D01*
X13361527Y-10080919D01*
X13361972Y-10075753D01*
X13362419Y-10070589D01*
X13362868Y-10065429D01*
X13363319Y-10060273D01*
X13363771Y-10055119D01*
X13364225Y-10049970D01*
X13364681Y-10044823D01*
X13365138Y-10039680D01*
X13365597Y-10034541D01*
X13366058Y-10029405D01*
X13366520Y-10024272D01*
X13366984Y-10019142D01*
X13367450Y-10014017D01*
X13367918Y-10008894D01*
X13368387Y-10003775D01*
X13368858Y-9998659D01*
X13369331Y-9993547D01*
X13369805Y-9988438D01*
X13370281Y-9983332D01*
X13370759Y-9978230D01*
X13371238Y-9973131D01*
X13371719Y-9968036D01*
X13372202Y-9962943D01*
X13372687Y-9957855D01*
X13373173Y-9952770D01*
X13373661Y-9947688D01*
X13374150Y-9942609D01*
X13374641Y-9937534D01*
X13375134Y-9932462D01*
X13375629Y-9927394D01*
X13376125Y-9922329D01*
X13376623Y-9917267D01*
X13377123Y-9912209D01*
X13377624Y-9907154D01*
X13378127Y-9902102D01*
X13378632Y-9897054D01*
X13379138Y-9892009D01*
X13379646Y-9886967D01*
X13380156Y-9881929D01*
X13380667Y-9876895D01*
X13381180Y-9871863D01*
X13381695Y-9866835D01*
X13382211Y-9861810D01*
X13382729Y-9856789D01*
X13383249Y-9851771D01*
X13383770Y-9846756D01*
X13384293Y-9841745D01*
X13384818Y-9836737D01*
X13385344Y-9831733D01*
X13385872Y-9826731D01*
X13386401Y-9821733D01*
X13386933Y-9816739D01*
X13387466Y-9811747D01*
X13388000Y-9806760D01*
X13388537Y-9801775D01*
X13389074Y-9796794D01*
X13389614Y-9791816D01*
X13390155Y-9786841D01*
X13390698Y-9781870D01*
X13391243Y-9776902D01*
X13391789Y-9771938D01*
X13392336Y-9766976D01*
X13392886Y-9762018D01*
X13393437Y-9757064D01*
X13393990Y-9752113D01*
X13394544Y-9747165D01*
X13395100Y-9742220D01*
X13395658Y-9737279D01*
X13396217Y-9732341D01*
X13396778Y-9727406D01*
X13397340Y-9722475D01*
X13397905Y-9717546D01*
X13398470Y-9712622D01*
X13399038Y-9707700D01*
X13399607Y-9702782D01*
X13400178Y-9697867D01*
X13400750Y-9692956D01*
X13401324Y-9688048D01*
X13401900Y-9683143D01*
X13402477Y-9678241D01*
X13403056Y-9673343D01*
X13403636Y-9668448D01*
X13404218Y-9663556D01*
X13404802Y-9658668D01*
X13405387Y-9653783D01*
X13405974Y-9648901D01*
X13406563Y-9644022D01*
X13407153Y-9639147D01*
X13407745Y-9634275D01*
X13408338Y-9629406D01*
X13408933Y-9624541D01*
X13409530Y-9619679D01*
X13410128Y-9614820D01*
X13410728Y-9609964D01*
X13411329Y-9605112D01*
X13411932Y-9600263D01*
X13412537Y-9595417D01*
X13413143Y-9590575D01*
X13413751Y-9585736D01*
X13414361Y-9580900D01*
X13414972Y-9576067D01*
X13415585Y-9571238D01*
X13416199Y-9566412D01*
X13416815Y-9561589D01*
X13417432Y-9556770D01*
X13418051Y-9551953D01*
X13418672Y-9547140D01*
X13419294Y-9542330D01*
X13419918Y-9537524D01*
X13420544Y-9532721D01*
X13421171Y-9527921D01*
X13421800Y-9523124D01*
X13422430Y-9518331D01*
X13423062Y-9513540D01*
X13423695Y-9508753D01*
X13424330Y-9503970D01*
X13424967Y-9499189D01*
X13425605Y-9494412D01*
X13426245Y-9489638D01*
X13426886Y-9484867D01*
X13427529Y-9480100D01*
X13428173Y-9475335D01*
X13428819Y-9470574D01*
X13429467Y-9465817D01*
X13430116Y-9461062D01*
X13430767Y-9456311D01*
X13431420Y-9451563D01*
X13432074Y-9446818D01*
X13432729Y-9442076D01*
X13433386Y-9437338D01*
X13434045Y-9432603D01*
X13434705Y-9427871D01*
X13435367Y-9423142D01*
X13436030Y-9418417D01*
X13436695Y-9413695D01*
X13437362Y-9408975D01*
X13438030Y-9404260D01*
X13438700Y-9399547D01*
X13439371Y-9394838D01*
X13440044Y-9390132D01*
X13440718Y-9385429D01*
X13441394Y-9380729D01*
X13442071Y-9376032D01*
X13442750Y-9371339D01*
X13443431Y-9366649D01*
X13444113Y-9361962D01*
X13444797Y-9357278D01*
X13445482Y-9352598D01*
X13446169Y-9347921D01*
X13446857Y-9343247D01*
X13447547Y-9338576D01*
X13448238Y-9333908D01*
X13448931Y-9329244D01*
X13449626Y-9324582D01*
X13450322Y-9319924D01*
X13451020Y-9315269D01*
X13451719Y-9310618D01*
X13452419Y-9305969D01*
X13453122Y-9301324D01*
X13453825Y-9296682D01*
X13454531Y-9292043D01*
X13455238Y-9287407D01*
X13455946Y-9282774D01*
X13456656Y-9278145D01*
X13457367Y-9273519D01*
X13458080Y-9268896D01*
X13458795Y-9264276D01*
X13459511Y-9259659D01*
X13460229Y-9255046D01*
X13460948Y-9250435D01*
X13461668Y-9245828D01*
X13462390Y-9241224D01*
X13463114Y-9236624D01*
X13463839Y-9232026D01*
X13464566Y-9227431D01*
X13465294Y-9222840D01*
X13466024Y-9218252D01*
X13466756Y-9213667D01*
X13467488Y-9209085D01*
X13468223Y-9204506D01*
X13468959Y-9199931D01*
X13469696Y-9195358D01*
X13470435Y-9190789D01*
X13471175Y-9186223D01*
X13471917Y-9181660D01*
X13472661Y-9177101D01*
X13473406Y-9172544D01*
X13474152Y-9167991D01*
X13474900Y-9163440D01*
X13475650Y-9158893D01*
X13476401Y-9154349D01*
X13477153Y-9149808D01*
X13477907Y-9145271D01*
X13478663Y-9140736D01*
X13479420Y-9136205D01*
X13480178Y-9131676D01*
X13480938Y-9127151D01*
X13481700Y-9122629D01*
X13482463Y-9118110D01*
X13483227Y-9113594D01*
X13483993Y-9109082D01*
X13484761Y-9104572D01*
X13485530Y-9100066D01*
X13486300Y-9095562D01*
X13487072Y-9091062D01*
X13487846Y-9086565D01*
X13488621Y-9082072D01*
X13489397Y-9077581D01*
X13490175Y-9073093D01*
X13490955Y-9068609D01*
X13491736Y-9064127D01*
X13492518Y-9059649D01*
X13493302Y-9055174D01*
X13494088Y-9050702D01*
X13494874Y-9046233D01*
X13495663Y-9041767D01*
X13496453Y-9037304D01*
X13497244Y-9032844D01*
X13498037Y-9028388D01*
X13498831Y-9023934D01*
X13499627Y-9019484D01*
X13500424Y-9015037D01*
X13501223Y-9010593D01*
X13502023Y-9006152D01*
X13502825Y-9001714D01*
X13503628Y-8997279D01*
X13504432Y-8992847D01*
X13505239Y-8988419D01*
X13506046Y-8983993D01*
X13506855Y-8979571D01*
X13507666Y-8975151D01*
X13508478Y-8970735D01*
X13509291Y-8966322D01*
X13510106Y-8961912D01*
X13510922Y-8957505D01*
X13511740Y-8953101D01*
X13512559Y-8948700D01*
X13513380Y-8944302D01*
X13514202Y-8939907D01*
X13515026Y-8935516D01*
X13515851Y-8931127D01*
X13516678Y-8926741D01*
X13517506Y-8922359D01*
X13518335Y-8917980D01*
X13519166Y-8913604D01*
X13519998Y-8909230D01*
X13520832Y-8904860D01*
X13521667Y-8900493D01*
X13522504Y-8896129D01*
X13523342Y-8891768D01*
X13524182Y-8887410D01*
X13525023Y-8883055D01*
X13525866Y-8878704D01*
X13526710Y-8874355D01*
X13527555Y-8870009D01*
X13528402Y-8865667D01*
X13529250Y-8861327D01*
X13530100Y-8856991D01*
X13530951Y-8852657D01*
X13531804Y-8848327D01*
X13532658Y-8843999D01*
X13533513Y-8839675D01*
X13534370Y-8835354D01*
X13535228Y-8831036D01*
X13536088Y-8826721D01*
X13536949Y-8822408D01*
X13537812Y-8818099D01*
X13538676Y-8813793D01*
X13539542Y-8809490D01*
X13540409Y-8805190D01*
X13541277Y-8800893D01*
X13542147Y-8796599D01*
X13543018Y-8792308D01*
X13543891Y-8788021D01*
X13544765Y-8783736D01*
X13545640Y-8779454D01*
X13546517Y-8775175D01*
X13547395Y-8770899D01*
X13548275Y-8766627D01*
X13549156Y-8762357D01*
X13550039Y-8758090D01*
X13550923Y-8753827D01*
X13551808Y-8749566D01*
X13552695Y-8745308D01*
X13553583Y-8741054D01*
X13554473Y-8736802D01*
X13555364Y-8732554D01*
X13556257Y-8728308D01*
X13557150Y-8724065D01*
X13558046Y-8719826D01*
X13558942Y-8715589D01*
X13559841Y-8711356D01*
X13560740Y-8707125D01*
X13561641Y-8702898D01*
X13562543Y-8698673D01*
X13563447Y-8694451D01*
X13564352Y-8690233D01*
X13565259Y-8686017D01*
X13566167Y-8681805D01*
X13567076Y-8677595D01*
X13567987Y-8673389D01*
X13568899Y-8669185D01*
X13569813Y-8664985D01*
X13570728Y-8660787D01*
X13571644Y-8656592D01*
X13572562Y-8652401D01*
X13573481Y-8648212D01*
X13574401Y-8644026D01*
X13575323Y-8639844D01*
X13576246Y-8635664D01*
X13577171Y-8631487D01*
X13578097Y-8627314D01*
X13579025Y-8623143D01*
X13579953Y-8618975D01*
X13580884Y-8614810D01*
X13581815Y-8610648D01*
X13582748Y-8606490D01*
X13583683Y-8602334D01*
X13584618Y-8598181D01*
X13585556Y-8594031D01*
X13586494Y-8589884D01*
X13587434Y-8585740D01*
X13588375Y-8581599D01*
X13589318Y-8577461D01*
X13590262Y-8573326D01*
X13591207Y-8569193D01*
X13592154Y-8565064D01*
X13593102Y-8560938D01*
X13594052Y-8556815D01*
X13595003Y-8552694D01*
X13595955Y-8548577D01*
X13596909Y-8544462D01*
X13597864Y-8540351D01*
X13598820Y-8536242D01*
X13599778Y-8532137D01*
X13600737Y-8528034D01*
X13601697Y-8523935D01*
X13602659Y-8519838D01*
X13603622Y-8515744D01*
X13604587Y-8511653D01*
X13605553Y-8507565D01*
X13606520Y-8503480D01*
X13607489Y-8499398D01*
X13608459Y-8495319D01*
X13609430Y-8491243D01*
X13610403Y-8487169D01*
X13611377Y-8483099D01*
X13612352Y-8479032D01*
X13613329Y-8474967D01*
X13614307Y-8470906D01*
X13615287Y-8466847D01*
X13616267Y-8462791D01*
X13617250Y-8458739D01*
X13618233Y-8454689D01*
X13619218Y-8450642D01*
X13620204Y-8446598D01*
X13621192Y-8442557D01*
X13622181Y-8438518D01*
X13623171Y-8434483D01*
X13624163Y-8430451D01*
X13625155Y-8426422D01*
X13626150Y-8422395D01*
X13627145Y-8418371D01*
X13628142Y-8414351D01*
X13629141Y-8410333D01*
X13630140Y-8406318D01*
X13631141Y-8402306D01*
X13632144Y-8398297D01*
X13633147Y-8394291D01*
X13634152Y-8390287D01*
X13635158Y-8386287D01*
X13636166Y-8382289D01*
X13637175Y-8378295D01*
X13638185Y-8374303D01*
X13639197Y-8370315D01*
X13640210Y-8366328D01*
X13641224Y-8362346D01*
X13642240Y-8358365D01*
X13643257Y-8354388D01*
X13644275Y-8350414D01*
X13645295Y-8346442D01*
X13646316Y-8342474D01*
X13647338Y-8338508D01*
X13648362Y-8334545D01*
X13649386Y-8330585D01*
X13650413Y-8326628D01*
X13651440Y-8322674D01*
X13652469Y-8318723D01*
X13653499Y-8314775D01*
X13654531Y-8310829D01*
X13655563Y-8306886D01*
X13656597Y-8302946D01*
X13657633Y-8299010D01*
X13658670Y-8295076D01*
X13659708Y-8291144D01*
X13660747Y-8287216D01*
X13661788Y-8283291D01*
X13662830Y-8279368D01*
X13663873Y-8275448D01*
X13664918Y-8271531D01*
X13665963Y-8267618D01*
X13667011Y-8263706D01*
X13668059Y-8259798D01*
X13669109Y-8255893D01*
X13670160Y-8251990D01*
X13671212Y-8248090D01*
X13672266Y-8244193D01*
X13673321Y-8240299D01*
X13674377Y-8236408D01*
X13675435Y-8232520D01*
X13676494Y-8228635D01*
X13677554Y-8224752D01*
X13678616Y-8220872D01*
X13679678Y-8216995D01*
X13680743Y-8213121D01*
X13681808Y-8209250D01*
X13682875Y-8205381D01*
X13683943Y-8201516D01*
X13685012Y-8197653D01*
X13686082Y-8193793D01*
X13687154Y-8189936D01*
X13688227Y-8186082D01*
X13689302Y-8182230D01*
X13690377Y-8178382D01*
X13691454Y-8174536D01*
X13692533Y-8170693D01*
X13693612Y-8166853D01*
X13694693Y-8163016D01*
X13695775Y-8159181D01*
X13696859Y-8155350D01*
X13697943Y-8151521D01*
X13699029Y-8147695D01*
X13700116Y-8143872D01*
X13701205Y-8140051D01*
X13702295Y-8136234D01*
X13703386Y-8132419D01*
X13704478Y-8128607D01*
X13705572Y-8124798D01*
X13706666Y-8120992D01*
X13707763Y-8117188D01*
X13708860Y-8113388D01*
X13709959Y-8109590D01*
X13711059Y-8105795D01*
X13712160Y-8102003D01*
X13713262Y-8098213D01*
X13714366Y-8094426D01*
X13715471Y-8090643D01*
X13716578Y-8086862D01*
X13717685Y-8083083D01*
X13718794Y-8079308D01*
X13719904Y-8075535D01*
X13721015Y-8071765D01*
X13722128Y-8067998D01*
X13723242Y-8064234D01*
X13724357Y-8060473D01*
X13725473Y-8056714D01*
X13726591Y-8052958D01*
X13727710Y-8049205D01*
X13728830Y-8045455D01*
X13729951Y-8041707D01*
X13731074Y-8037962D01*
X13732198Y-8034220D01*
X13733323Y-8030481D01*
X13734450Y-8026745D01*
X13735577Y-8023011D01*
X13736706Y-8019280D01*
X13737836Y-8015552D01*
X13738968Y-8011827D01*
X13740100Y-8008104D01*
X13741234Y-8004384D01*
X13742369Y-8000667D01*
X13743506Y-7996953D01*
X13744643Y-7993242D01*
X13745782Y-7989533D01*
X13746922Y-7985827D01*
X13748064Y-7982124D01*
X13749206Y-7978423D01*
X13750350Y-7974726D01*
X13751495Y-7971031D01*
X13752642Y-7967339D01*
X13753789Y-7963649D01*
X13754938Y-7959963D01*
X13756088Y-7956279D01*
X13757239Y-7952598D01*
X13758392Y-7948919D01*
X13759546Y-7945244D01*
X13760701Y-7941571D01*
X13761857Y-7937901D01*
X13763014Y-7934233D01*
X13764173Y-7930569D01*
X13765333Y-7926907D01*
X13766494Y-7923248D01*
X13767656Y-7919591D01*
X13768820Y-7915938D01*
X13769985Y-7912287D01*
X13771151Y-7908638D01*
X13772318Y-7904993D01*
X13773486Y-7901350D01*
X13774656Y-7897711D01*
X13775827Y-7894073D01*
X13776999Y-7890439D01*
X13778173Y-7886807D01*
X13779347Y-7883178D01*
X13780523Y-7879551D01*
X13781700Y-7875928D01*
X13782878Y-7872307D01*
X13784057Y-7868689D01*
X13785238Y-7865073D01*
X13786420Y-7861461D01*
X13787603Y-7857851D01*
X13788787Y-7854244D01*
X13789973Y-7850639D01*
X13791160Y-7847037D01*
X13792348Y-7843438D01*
X13793537Y-7839842D01*
X13794727Y-7836248D01*
X13795919Y-7832657D01*
X13797111Y-7829069D01*
X13798305Y-7825483D01*
X13799501Y-7821900D01*
X13800697Y-7818320D01*
X13801894Y-7814743D01*
X13803093Y-7811168D01*
X13804293Y-7807596D01*
X13805494Y-7804027D01*
X13806697Y-7800460D01*
X13807900Y-7796896D01*
X13809105Y-7793335D01*
X13810311Y-7789777D01*
X13811518Y-7786221D01*
X13812727Y-7782668D01*
X13813936Y-7779117D01*
X13815147Y-7775570D01*
X13816359Y-7772024D01*
X13817572Y-7768482D01*
X13818787Y-7764942D01*
X13820002Y-7761406D01*
X13821219Y-7757871D01*
X13822437Y-7754340D01*
X13823656Y-7750811D01*
X13824876Y-7747284D01*
X13826098Y-7743761D01*
X13827320Y-7740240D01*
X13828544Y-7736722D01*
X13829769Y-7733206D01*
X13830995Y-7729693D01*
X13832223Y-7726183D01*
X13833451Y-7722676D01*
X13834681Y-7719171D01*
X13835912Y-7715669D01*
X13837144Y-7712169D01*
X13838378Y-7708672D01*
X13839612Y-7705178D01*
X13840848Y-7701687D01*
X13842085Y-7698198D01*
X13843323Y-7694712D01*
X13844562Y-7691228D01*
X13845802Y-7687747D01*
X13847044Y-7684269D01*
X13848286Y-7680794D01*
X13849530Y-7677321D01*
X13850775Y-7673850D01*
X13852022Y-7670383D01*
X13853269Y-7666918D01*
X13854518Y-7663456D01*
X13855767Y-7659996D01*
X13857018Y-7656539D01*
X13858270Y-7653085D01*
X13859524Y-7649633D01*
X13860778Y-7646184D01*
X13862034Y-7642738D01*
X13863290Y-7639294D01*
X13864548Y-7635853D01*
X13865807Y-7632415D01*
X13867068Y-7628979D01*
X13868329Y-7625546D01*
X13869591Y-7622115D01*
X13870855Y-7618687D01*
X13872120Y-7615262D01*
X13873386Y-7611840D01*
X13874653Y-7608420D01*
X13875922Y-7605002D01*
X13877191Y-7601588D01*
X13878462Y-7598176D01*
X13879734Y-7594766D01*
X13881007Y-7591359D01*
X13882281Y-7587955D01*
X13883556Y-7584553D01*
X13884832Y-7581155D01*
X13886110Y-7577758D01*
X13887389Y-7574365D01*
X13888669Y-7570973D01*
X13889950Y-7567585D01*
X13891232Y-7564199D01*
X13892515Y-7560816D01*
X13893800Y-7557435D01*
X13895085Y-7554057D01*
X13896372Y-7550682D01*
X13897660Y-7547309D01*
X13898949Y-7543939D01*
X13900239Y-7540572D01*
X13901530Y-7537207D01*
X13902823Y-7533844D01*
X13904116Y-7530484D01*
X13905411Y-7527128D01*
X13906707Y-7523773D01*
X13908004Y-7520421D01*
X13909302Y-7517072D01*
X13910601Y-7513725D01*
X13911902Y-7510381D01*
X13913203Y-7507039D01*
X13914506Y-7503700D01*
X13915810Y-7500364D01*
X13917115Y-7497030D01*
X13918421Y-7493699D01*
X13919728Y-7490371D01*
X13921036Y-7487045D01*
X13922346Y-7483721D01*
X13923657Y-7480401D01*
X13924968Y-7477082D01*
X13926281Y-7473767D01*
X13927595Y-7470454D01*
X13928910Y-7467143D01*
X13930227Y-7463835D01*
X13931544Y-7460530D01*
X13932862Y-7457227D01*
X13934182Y-7453927D01*
X13935503Y-7450630D01*
X13936825Y-7447335D01*
X13938148Y-7444042D01*
X13939472Y-7440753D01*
X13940797Y-7437465D01*
X13942123Y-7434181D01*
X13943451Y-7430898D01*
X13944779Y-7427619D01*
X13946109Y-7424342D01*
X13947440Y-7421068D01*
X13948772Y-7417796D01*
X13950105Y-7414527D01*
X13951439Y-7411260D01*
X13952774Y-7407996D01*
X13954111Y-7404734D01*
X13955448Y-7401475D01*
X13956787Y-7398218D01*
X13958126Y-7394965D01*
X13959467Y-7391713D01*
X13960809Y-7388465D01*
X13962152Y-7385218D01*
X13963496Y-7381975D01*
X13964841Y-7378733D01*
X13966188Y-7375495D01*
X13967535Y-7372259D01*
X13968884Y-7369025D01*
X13970233Y-7365794D01*
X13971584Y-7362566D01*
X13972936Y-7359340D01*
X13974289Y-7356117D01*
X13975643Y-7352896D01*
X13976998Y-7349678D01*
X13978355Y-7346462D01*
X13979712Y-7343249D01*
X13981070Y-7340038D01*
X13982430Y-7336830D01*
X13983791Y-7333625D01*
X13985152Y-7330422D01*
X13986515Y-7327221D01*
X13987879Y-7324023D01*
X13989244Y-7320828D01*
X13990610Y-7317635D01*
X13991978Y-7314445D01*
X13993346Y-7311257D01*
X13994715Y-7308071D01*
X13996086Y-7304889D01*
X13997457Y-7301708D01*
X13998830Y-7298531D01*
X14000204Y-7295355D01*
X14001579Y-7292183D01*
X14002955Y-7289013D01*
X14004332Y-7285845D01*
X14005710Y-7282680D01*
X14007089Y-7279517D01*
X14008469Y-7276357D01*
X14009850Y-7273200D01*
X14011233Y-7270045D01*
X14012616Y-7266892D01*
X14014001Y-7263742D01*
X14015387Y-7260595D01*
X14016774Y-7257449D01*
X14018161Y-7254307D01*
X14019550Y-7251167D01*
X14020940Y-7248029D01*
X14022331Y-7244894D01*
X14023723Y-7241762D01*
X14025117Y-7238632D01*
X14026511Y-7235504D01*
X14027907Y-7232379D01*
X14029303Y-7229257D01*
X14030700Y-7226137D01*
X14032099Y-7223019D01*
X14033499Y-7219904D01*
X14034899Y-7216792D01*
X14036301Y-7213682D01*
X14037704Y-7210574D01*
X14039108Y-7207469D01*
X14040513Y-7204367D01*
X14041919Y-7201266D01*
X14043326Y-7198169D01*
X14044735Y-7195074D01*
X14046144Y-7191981D01*
X14047554Y-7188891D01*
X14048966Y-7185803D01*
X14050378Y-7182718D01*
X14051792Y-7179636D01*
X14053206Y-7176555D01*
X14054622Y-7173478D01*
X14056039Y-7170402D01*
X14057456Y-7167330D01*
X14058875Y-7164259D01*
X14060295Y-7161191D01*
X14061716Y-7158126D01*
X14063138Y-7155063D01*
X14064561Y-7152003D01*
X14065985Y-7148945D01*
X14067411Y-7145889D01*
X14068837Y-7142836D01*
X14070264Y-7139786D01*
X14071693Y-7136738D01*
X14073122Y-7133692D01*
X14074552Y-7130649D01*
X14075984Y-7127608D01*
X14077416Y-7124570D01*
X14078850Y-7121534D01*
X14080285Y-7118501D01*
X14081721Y-7115470D01*
X14083157Y-7112442D01*
X14084595Y-7109415D01*
X14086034Y-7106392D01*
X14087474Y-7103371D01*
X14088915Y-7100352D01*
X14090357Y-7097336D01*
X14091800Y-7094323D01*
X14093244Y-7091311D01*
X14094689Y-7088302D01*
X14096135Y-7085296D01*
X14097582Y-7082292D01*
X14099031Y-7079290D01*
X14100480Y-7076292D01*
X14101930Y-7073295D01*
X14103382Y-7070301D01*
X14104834Y-7067309D01*
X14106288Y-7064320D01*
X14107742Y-7061333D01*
X14109198Y-7058349D01*
X14110654Y-7055367D01*
X14112112Y-7052387D01*
X14113570Y-7049410D01*
X14115030Y-7046435D01*
X14116491Y-7043463D01*
X14117952Y-7040493D01*
X14119415Y-7037526D01*
X14120879Y-7034561D01*
X14122344Y-7031598D01*
X14123810Y-7028638D01*
X14125277Y-7025681D01*
X14126745Y-7022726D01*
X14128214Y-7019773D01*
X14129683Y-7016822D01*
X14131155Y-7013874D01*
X14132627Y-7010929D01*
X14134100Y-7007985D01*
X14135574Y-7005045D01*
X14137049Y-7002106D01*
X14138525Y-6999171D01*
X14140002Y-6996237D01*
X14141480Y-6993306D01*
X14142960Y-6990377D01*
X14144440Y-6987451D01*
X14145921Y-6984527D01*
X14147403Y-6981606D01*
X14148887Y-6978687D01*
X14150371Y-6975770D01*
X14151856Y-6972856D01*
X14153342Y-6969944D01*
X14154830Y-6967035D01*
X14156318Y-6964128D01*
X14157808Y-6961223D01*
X14159298Y-6958321D01*
X14160790Y-6955421D01*
X14162282Y-6952524D01*
X14163775Y-6949628D01*
X14165270Y-6946736D01*
X14166765Y-6943846D01*
X14168262Y-6940958D01*
X14169759Y-6938072D01*
X14171258Y-6935190D01*
X14172758Y-6932309D01*
X14174258Y-6929431D01*
X14175760Y-6926554D01*
X14177262Y-6923681D01*
X14178766Y-6920810D01*
X14180270Y-6917941D01*
X14181776Y-6915075D01*
X14183282Y-6912211D01*
X14184790Y-6909349D01*
X14186298Y-6906490D01*
X14187808Y-6903633D01*
X14189319Y-6900779D01*
X14190830Y-6897927D01*
X14192343Y-6895077D01*
X14193857Y-6892230D01*
X14195371Y-6889385D01*
X14196887Y-6886542D01*
X14198403Y-6883702D01*
X14199921Y-6880864D01*
X14201440Y-6878029D01*
X14202959Y-6875196D01*
X14204480Y-6872365D01*
X14207524Y-6866711D01*
X14210572Y-6861066D01*
X14213624Y-6855431D01*
X14216680Y-6849805D01*
X14219741Y-6844188D01*
X14222805Y-6838581D01*
X14225873Y-6832984D01*
X14228945Y-6827395D01*
X14232021Y-6821817D01*
X14235100Y-6816247D01*
X14238184Y-6810687D01*
X14241272Y-6805136D01*
X14244364Y-6799595D01*
X14247459Y-6794063D01*
X14250559Y-6788541D01*
X14253662Y-6783027D01*
X14256770Y-6777524D01*
X14259881Y-6772029D01*
X14262996Y-6766544D01*
X14266115Y-6761068D01*
X14269238Y-6755601D01*
X14272365Y-6750144D01*
X14275496Y-6744696D01*
X14278631Y-6739257D01*
X14281769Y-6733828D01*
X14284912Y-6728408D01*
X14288058Y-6722997D01*
X14291208Y-6717595D01*
X14294362Y-6712203D01*
X14297520Y-6706820D01*
X14300682Y-6701446D01*
X14303847Y-6696081D01*
X14307017Y-6690726D01*
X14310190Y-6685379D01*
X14313367Y-6680042D01*
X14316548Y-6674714D01*
X14319732Y-6669396D01*
X14322921Y-6664086D01*
X14326113Y-6658786D01*
X14329310Y-6653495D01*
X14332510Y-6648213D01*
X14335713Y-6642940D01*
X14338921Y-6637676D01*
X14342132Y-6632421D01*
X14345347Y-6627176D01*
X14348566Y-6621940D01*
X14351789Y-6616712D01*
X14355016Y-6611494D01*
X14358246Y-6606285D01*
X14361480Y-6601085D01*
X14364718Y-6595894D01*
X14367959Y-6590712D01*
X14371205Y-6585540D01*
X14374454Y-6580376D01*
X14377707Y-6575221D01*
X14380963Y-6570076D01*
X14384224Y-6564939D01*
X14387488Y-6559812D01*
X14390756Y-6554693D01*
X14394027Y-6549584D01*
X14397302Y-6544483D01*
X14400581Y-6539392D01*
X14403864Y-6534309D01*
X14407150Y-6529236D01*
X14410440Y-6524171D01*
X14413734Y-6519116D01*
X14417032Y-6514069D01*
X14420333Y-6509031D01*
X14423638Y-6504003D01*
X14426946Y-6498983D01*
X14430259Y-6493972D01*
X14433575Y-6488970D01*
X14436894Y-6483977D01*
X14440218Y-6478993D01*
X14443544Y-6474018D01*
X14446875Y-6469052D01*
X14450209Y-6464095D01*
X14453547Y-6459146D01*
X14456889Y-6454207D01*
X14460234Y-6449276D01*
X14463583Y-6444354D01*
X14466935Y-6439441D01*
X14470292Y-6434537D01*
X14473651Y-6429642D01*
X14477015Y-6424755D01*
X14480382Y-6419878D01*
X14483752Y-6415009D01*
X14487127Y-6410149D01*
X14490505Y-6405298D01*
X14493886Y-6400456D01*
X14497271Y-6395622D01*
X14500660Y-6390797D01*
X14504052Y-6385981D01*
X14507448Y-6381174D01*
X14510847Y-6376376D01*
X14514250Y-6371586D01*
X14517657Y-6366805D01*
X14521067Y-6362033D01*
X14524481Y-6357270D01*
X14527898Y-6352515D01*
X14531319Y-6347769D01*
X14534744Y-6343032D01*
X14538172Y-6338304D01*
X14541603Y-6333584D01*
X14545039Y-6328873D01*
X14548477Y-6324171D01*
X14551919Y-6319477D01*
X14555365Y-6314792D01*
X14558814Y-6310116D01*
X14562267Y-6305448D01*
X14565724Y-6300789D01*
X14569184Y-6296139D01*
X14572647Y-6291497D01*
X14576114Y-6286865D01*
X14579584Y-6282240D01*
X14583058Y-6277625D01*
X14586536Y-6273018D01*
X14590017Y-6268419D01*
X14593501Y-6263829D01*
X14596989Y-6259248D01*
X14600480Y-6254676D01*
X14603975Y-6250112D01*
X14607474Y-6245556D01*
X14610976Y-6241010D01*
X14614481Y-6236472D01*
X14617990Y-6231942D01*
X14621502Y-6227421D01*
X14625018Y-6222909D01*
X14628537Y-6218405D01*
X14632060Y-6213909D01*
X14635586Y-6209423D01*
X14639116Y-6204944D01*
X14642649Y-6200475D01*
X14646185Y-6196013D01*
X14649725Y-6191561D01*
X14653268Y-6187117D01*
X14656815Y-6182681D01*
X14660365Y-6178254D01*
X14663919Y-6173835D01*
X14667476Y-6169425D01*
X14671036Y-6165024D01*
X14674600Y-6160631D01*
X14678168Y-6156246D01*
X14681738Y-6151870D01*
X14685312Y-6147502D01*
X14688890Y-6143143D01*
X14692471Y-6138792D01*
X14696055Y-6134450D01*
X14699643Y-6130116D01*
X14703234Y-6125791D01*
X14706828Y-6121474D01*
X14710426Y-6117165D01*
X14714027Y-6112865D01*
X14717632Y-6108573D01*
X14721240Y-6104290D01*
X14724851Y-6100015D01*
X14728466Y-6095749D01*
X14732084Y-6091491D01*
X14735705Y-6087241D01*
X14739330Y-6083000D01*
X14742958Y-6078767D01*
X14746590Y-6074542D01*
X14750224Y-6070326D01*
X14753863Y-6066119D01*
X14757504Y-6061919D01*
X14761149Y-6057728D01*
X14764797Y-6053546D01*
X14768448Y-6049371D01*
X14772103Y-6045205D01*
X14775761Y-6041048D01*
X14779422Y-6036898D01*
X14783087Y-6032757D01*
X14786755Y-6028625D01*
X14790426Y-6024500D01*
X14794101Y-6020384D01*
X14797779Y-6016277D01*
X14801460Y-6012177D01*
X14805144Y-6008086D01*
X14808832Y-6004003D01*
X14812523Y-5999929D01*
X14816217Y-5995863D01*
X14819915Y-5991805D01*
X14823616Y-5987755D01*
X14827320Y-5983714D01*
X14831027Y-5979681D01*
X14834738Y-5975656D01*
X14838451Y-5971639D01*
X14842168Y-5967631D01*
X14845889Y-5963631D01*
X14849612Y-5959639D01*
X14853339Y-5955656D01*
X14857069Y-5951680D01*
X14860803Y-5947713D01*
X14864539Y-5943754D01*
X14868279Y-5939804D01*
X14872022Y-5935861D01*
X14875768Y-5931927D01*
X14879517Y-5928001D01*
X14883270Y-5924083D01*
X14887026Y-5920174D01*
X14890785Y-5916272D01*
X14894547Y-5912379D01*
X14898312Y-5908494D01*
X14902081Y-5904617D01*
X14905853Y-5900749D01*
X14909628Y-5896888D01*
X14913406Y-5893036D01*
X14917187Y-5889192D01*
X14920972Y-5885356D01*
X14924760Y-5881528D01*
X14928550Y-5877709D01*
X14932344Y-5873897D01*
X14936142Y-5870094D01*
X14939942Y-5866299D01*
X14943745Y-5862512D01*
X14947552Y-5858733D01*
X14951362Y-5854962D01*
X14955175Y-5851200D01*
X14958991Y-5847445D01*
X14962810Y-5843699D01*
X14966632Y-5839961D01*
X14970458Y-5836231D01*
X14974286Y-5832509D01*
X14978118Y-5828795D01*
X14981953Y-5825089D01*
X14985791Y-5821392D01*
X14989632Y-5817702D01*
X14993476Y-5814021D01*
X14997323Y-5810348D01*
X15001173Y-5806682D01*
X15005027Y-5803025D01*
X15008883Y-5799376D01*
X15012743Y-5795735D01*
X15016605Y-5792102D01*
X15020471Y-5788478D01*
X15024340Y-5784861D01*
X15028212Y-5781252D01*
X15032087Y-5777652D01*
X15035965Y-5774059D01*
X15039846Y-5770475D01*
X15043730Y-5766898D01*
X15047617Y-5763330D01*
X15051507Y-5759770D01*
X15055400Y-5756217D01*
X15059297Y-5752673D01*
X15063196Y-5749137D01*
X15067098Y-5745609D01*
X15071004Y-5742089D01*
X15074912Y-5738577D01*
X15078823Y-5735073D01*
X15082738Y-5731577D01*
X15086655Y-5728089D01*
X15090575Y-5724609D01*
X15094499Y-5721137D01*
X15098425Y-5717673D01*
X15102355Y-5714218D01*
X15106287Y-5710770D01*
X15110222Y-5707330D01*
X15114161Y-5703898D01*
X15118102Y-5700474D01*
X15122046Y-5697059D01*
X15125993Y-5693651D01*
X15129944Y-5690251D01*
X15133897Y-5686859D01*
X15137853Y-5683476D01*
X15141812Y-5680100D01*
X15145774Y-5676732D01*
X15149739Y-5673372D01*
X15153706Y-5670021D01*
X15157677Y-5666677D01*
X15161651Y-5663341D01*
X15165628Y-5660013D01*
X15169607Y-5656693D01*
X15173589Y-5653381D01*
X15177575Y-5650077D01*
X15181563Y-5646781D01*
X15185554Y-5643493D01*
X15189548Y-5640214D01*
X15193545Y-5636941D01*
X15197545Y-5633677D01*
X15201547Y-5630421D01*
X15205553Y-5627173D01*
X15209561Y-5623933D01*
X15213573Y-5620701D01*
X15217587Y-5617477D01*
X15221604Y-5614260D01*
X15225623Y-5611052D01*
X15229646Y-5607852D01*
X15233672Y-5604659D01*
X15237700Y-5601475D01*
X15241731Y-5598298D01*
X15245765Y-5595130D01*
X15249802Y-5591969D01*
X15253841Y-5588817D01*
X15257884Y-5585672D01*
X15261929Y-5582535D01*
X15265977Y-5579406D01*
X15270027Y-5576286D01*
X15274081Y-5573173D01*
X15278137Y-5570068D01*
X15282196Y-5566971D01*
X15286258Y-5563882D01*
X15290323Y-5560800D01*
X15294390Y-5557727D01*
X15298460Y-5554662D01*
X15302533Y-5551604D01*
X15306609Y-5548555D01*
X15310687Y-5545514D01*
X15314768Y-5542480D01*
X15318852Y-5539454D01*
X15322938Y-5536437D01*
X15327028Y-5533427D01*
X15331120Y-5530425D01*
X15335214Y-5527431D01*
X15339311Y-5524445D01*
X15343411Y-5521467D01*
X15347514Y-5518497D01*
X15351619Y-5515535D01*
X15355727Y-5512581D01*
X15359838Y-5509634D01*
X15363951Y-5506696D01*
X15368067Y-5503766D01*
X15372186Y-5500843D01*
X15376307Y-5497928D01*
X15380431Y-5495022D01*
X15384557Y-5492123D01*
X15388686Y-5489232D01*
X15392818Y-5486349D01*
X15396952Y-5483474D01*
X15401089Y-5480607D01*
X15405229Y-5477748D01*
X15409371Y-5474897D01*
X15413515Y-5472054D01*
X15417662Y-5469218D01*
X15421812Y-5466391D01*
X15425964Y-5463572D01*
X15430119Y-5460760D01*
X15434277Y-5457957D01*
X15438436Y-5455161D01*
X15442599Y-5452373D01*
X15446764Y-5449593D01*
X15450931Y-5446821D01*
X15455101Y-5444057D01*
X15459274Y-5441301D01*
X15463448Y-5438553D01*
X15467626Y-5435813D01*
X15471806Y-5433081D01*
X15475988Y-5430357D01*
X15480173Y-5427640D01*
X15484360Y-5424932D01*
X15488549Y-5422232D01*
X15492742Y-5419539D01*
X15496936Y-5416854D01*
X15501133Y-5414178D01*
X15505332Y-5411509D01*
X15509534Y-5408848D01*
X15513738Y-5406196D01*
X15517944Y-5403551D01*
X15522153Y-5400914D01*
X15526364Y-5398285D01*
X15530578Y-5395664D01*
X15534794Y-5393051D01*
X15539012Y-5390446D01*
X15543232Y-5387849D01*
X15547455Y-5385259D01*
X15551680Y-5382678D01*
X15555907Y-5380105D01*
X15560137Y-5377540D01*
X15564369Y-5374982D01*
X15568603Y-5372433D01*
X15572840Y-5369891D01*
X15577078Y-5367358D01*
X15581319Y-5364833D01*
X15585563Y-5362315D01*
X15589808Y-5359806D01*
X15594055Y-5357304D01*
X15598305Y-5354810D01*
X15602557Y-5352325D01*
X15606811Y-5349847D01*
X15611068Y-5347378D01*
X15615326Y-5344916D01*
X15619587Y-5342462D01*
X15623849Y-5340017D01*
X15628114Y-5337579D01*
X15632381Y-5335149D01*
X15636650Y-5332728D01*
X15640921Y-5330314D01*
X15645194Y-5327908D01*
X15649469Y-5325511D01*
X15653747Y-5323121D01*
X15658026Y-5320739D01*
X15662307Y-5318366D01*
X15666591Y-5316000D01*
X15670876Y-5313643D01*
X15675163Y-5311293D01*
X15679453Y-5308952D01*
X15683744Y-5306618D01*
X15688037Y-5304293D01*
X15692332Y-5301975D01*
X15696629Y-5299666D01*
X15700928Y-5297364D01*
X15705229Y-5295071D01*
X15709532Y-5292786D01*
X15713836Y-5290509D01*
X15718143Y-5288240D01*
X15722451Y-5285978D01*
X15726761Y-5283725D01*
X15731073Y-5281481D01*
X15735387Y-5279244D01*
X15739702Y-5277015D01*
X15744019Y-5274794D01*
X15748338Y-5272581D01*
X15752659Y-5270377D01*
X15756981Y-5268180D01*
X15761306Y-5265992D01*
X15765631Y-5263812D01*
X15769959Y-5261639D01*
X15774288Y-5259475D01*
X15778619Y-5257319D01*
X15782951Y-5255171D01*
X15787285Y-5253032D01*
X15791621Y-5250900D01*
X15795958Y-5248777D01*
X15800297Y-5246661D01*
X15804637Y-5244554D01*
X15808979Y-5242455D01*
X15813322Y-5240364D01*
X15817667Y-5238281D01*
X15822013Y-5236206D01*
X15826361Y-5234140D01*
X15830710Y-5232081D01*
X15835061Y-5230031D01*
X15839413Y-5227989D01*
X15843766Y-5225955D01*
X15848121Y-5223930D01*
X15852477Y-5221912D01*
X15856834Y-5219903D01*
X15861192Y-5217902D01*
X15865552Y-5215909D01*
X15869913Y-5213924D01*
X15874276Y-5211948D01*
X15878639Y-5209979D01*
X15883004Y-5208019D01*
X15887370Y-5206068D01*
X15891737Y-5204124D01*
X15896105Y-5202189D01*
X15900475Y-5200261D01*
X15904845Y-5198343D01*
X15909216Y-5196432D01*
X15913589Y-5194530D01*
X15917962Y-5192636D01*
X15922337Y-5190750D01*
X15926712Y-5188872D01*
X15931089Y-5187003D01*
X15935466Y-5185142D01*
X15939844Y-5183289D01*
X15944223Y-5181445D01*
X15948603Y-5179609D01*
X15952984Y-5177781D01*
X15957365Y-5175962D01*
X15961747Y-5174151D01*
X15966130Y-5172348D01*
X15970514Y-5170554D01*
X15974898Y-5168768D01*
X15979283Y-5166990D01*
X15983669Y-5165221D01*
X15988055Y-5163460D01*
X15992441Y-5161707D01*
X15996829Y-5159963D01*
X16001216Y-5158227D01*
X16005605Y-5156500D01*
X16009993Y-5154781D01*
X16014382Y-5153070D01*
X16018772Y-5151368D01*
X16023162Y-5149674D01*
X16027552Y-5147989D01*
X16031942Y-5146312D01*
X16036333Y-5144643D01*
X16040724Y-5142983D01*
X16045115Y-5141332D01*
X16049506Y-5139689D01*
X16053897Y-5138054D01*
X16058288Y-5136428D01*
X16062680Y-5134810D01*
X16067071Y-5133201D01*
X16071463Y-5131601D01*
X16075854Y-5130009D01*
X16080245Y-5128425D01*
X16084636Y-5126850D01*
X16089027Y-5125284D01*
X16093418Y-5123726D01*
X16097808Y-5122176D01*
X16102198Y-5120636D01*
X16106588Y-5119103D01*
X16110977Y-5117580D01*
X16115366Y-5116065D01*
X16119755Y-5114558D01*
X16124143Y-5113060D01*
X16128530Y-5111571D01*
X16132917Y-5110091D01*
X16137303Y-5108619D01*
X16141688Y-5107155D01*
X16146073Y-5105701D01*
X16150457Y-5104255D01*
X16154840Y-5102818D01*
X16159222Y-5101389D01*
X16163603Y-5099969D01*
X16167983Y-5098558D01*
X16172362Y-5097155D01*
X16176740Y-5095762D01*
X16181117Y-5094377D01*
X16185493Y-5093000D01*
X16189867Y-5091633D01*
X16194241Y-5090274D01*
X16198612Y-5088924D01*
X16202983Y-5087583D01*
X16207351Y-5086250D01*
X16211719Y-5084927D01*
X16216085Y-5083612D01*
X16220449Y-5082306D01*
X16224811Y-5081009D01*
X16229172Y-5079721D01*
X16233530Y-5078441D01*
X16237887Y-5077171D01*
X16242242Y-5075909D01*
X16246595Y-5074656D01*
X16250945Y-5073412D01*
X16255294Y-5072177D01*
X16259640Y-5070951D01*
X16263984Y-5069734D01*
X16268325Y-5068526D01*
X16272664Y-5067327D01*
X16277001Y-5066137D01*
X16281335Y-5064956D01*
X16285666Y-5063783D01*
X16289994Y-5062620D01*
X16294320Y-5061466D01*
X16298642Y-5060321D01*
X16302962Y-5059185D01*
X16307278Y-5058058D01*
X16311591Y-5056940D01*
X16315901Y-5055831D01*
X16320208Y-5054731D01*
X16324511Y-5053640D01*
X16328810Y-5052559D01*
X16333106Y-5051486D01*
X16337398Y-5050423D01*
X16341687Y-5049369D01*
X16345971Y-5048324D01*
X16350251Y-5047288D01*
X16354527Y-5046262D01*
X16358799Y-5045244D01*
X16363066Y-5044236D01*
X16367329Y-5043237D01*
X16371588Y-5042248D01*
X16375841Y-5041267D01*
X16380090Y-5040296D01*
X16384334Y-5039335D01*
X16388573Y-5038382D01*
X16392806Y-5037439D01*
X16397034Y-5036505D01*
X16401257Y-5035581D01*
X16405474Y-5034666D01*
X16409686Y-5033760D01*
X16413891Y-5032864D01*
X16418091Y-5031977D01*
X16422284Y-5031100D01*
X16426471Y-5030232D01*
X16430652Y-5029373D01*
X16434826Y-5028524D01*
X16438993Y-5027685D01*
X16443153Y-5026855D01*
X16447306Y-5026034D01*
X16451452Y-5025223D01*
X16455591Y-5024422D01*
X16459721Y-5023630D01*
X16463844Y-5022848D01*
X16467959Y-5022075D01*
X16472066Y-5021312D01*
X16476164Y-5020559D01*
X16480254Y-5019815D01*
X16484335Y-5019081D01*
X16488407Y-5018357D01*
X16492470Y-5017643D01*
X16496523Y-5016938D01*
X16500566Y-5016243D01*
X16504600Y-5015557D01*
X16508623Y-5014882D01*
X16512636Y-5014216D01*
X16516638Y-5013560D01*
X16520629Y-5012914D01*
X16524609Y-5012278D01*
X16528577Y-5011652D01*
X16532534Y-5011036D01*
X16536478Y-5010429D01*
X16540410Y-5009833D01*
X16544329Y-5009246D01*
X16548235Y-5008669D01*
X16552128Y-5008103D01*
X16556007Y-5007546D01*
X16559871Y-5007000D01*
X16563721Y-5006463D01*
X16567556Y-5005937D01*
X16571376Y-5005421D01*
X16575180Y-5004915D01*
X16578968Y-5004419D01*
X16582738Y-5003933D01*
X16586492Y-5003457D01*
X16590228Y-5002992D01*
X16593946Y-5002537D01*
X16597645Y-5002092D01*
X16601325Y-5001658D01*
X16604985Y-5001233D01*
X16608624Y-5000819D01*
X16612242Y-5000416D01*
X16615838Y-5000023D01*
X16619412Y-4999640D01*
X16622963Y-4999267D01*
X16626489Y-4998906D01*
X16629990Y-4998554D01*
X16633466Y-4998213D01*
X16636915Y-4997883D01*
X16640336Y-4997563D01*
X16643729Y-4997254D01*
X16647092Y-4996955D01*
X16650424Y-4996667D01*
X16653723Y-4996390D01*
X16656989Y-4996123D01*
X16660220Y-4995867D01*
X16663414Y-4995622D01*
X16666571Y-4995388D01*
X16669687Y-4995164D01*
X16672761Y-4994952D01*
X16675791Y-4994750D01*
X16678775Y-4994559D01*
X16681709Y-4994379D01*
X16684592Y-4994210D01*
X16687420Y-4994051D01*
X16690189Y-4993904D01*
X16692895Y-4993768D01*
X16695534Y-4993643D01*
X16698100Y-4993529D01*
X16700587Y-4993427D01*
X16702987Y-4993335D01*
X16705291Y-4993254D01*
X16707489Y-4993185D01*
X16709565Y-4993127D01*
X16711499Y-4993080D01*
X16713264Y-4993044D01*
X16714816Y-4993019D01*
X16716076Y-4993005D01*
X16716900Y-4993000D01*
X16716900Y-4993000D02*
X16716900Y-11643000D01*
X13306900Y-11393000D02*
X13306901Y-11396942D01*
X13306904Y-11400881D01*
X13306909Y-11404818D01*
X13306916Y-11408751D01*
X13306925Y-11412681D01*
X13306936Y-11416609D01*
X13306949Y-11420533D01*
X13306964Y-11424455D01*
X13306981Y-11428373D01*
X13307000Y-11432289D01*
X13307021Y-11436201D01*
X13307044Y-11440111D01*
X13307068Y-11444018D01*
X13307095Y-11447922D01*
X13307124Y-11451822D01*
X13307155Y-11455720D01*
X13307188Y-11459615D01*
X13307223Y-11463507D01*
X13307259Y-11467396D01*
X13307298Y-11471283D01*
X13307339Y-11475166D01*
X13307381Y-11479046D01*
X13307426Y-11482923D01*
X13307473Y-11486798D01*
X13307521Y-11490669D01*
X13307572Y-11494538D01*
X13307624Y-11498404D01*
X13307679Y-11502266D01*
X13307735Y-11506126D01*
X13307793Y-11509983D01*
X13307854Y-11513837D01*
X13307916Y-11517688D01*
X13307980Y-11521536D01*
X13308046Y-11525382D01*
X13308114Y-11529224D01*
X13308184Y-11533063D01*
X13308256Y-11536900D01*
X13308330Y-11540733D01*
X13308406Y-11544564D01*
X13308484Y-11548392D01*
X13308564Y-11552217D01*
X13308646Y-11556039D01*
X13308729Y-11559858D01*
X13308815Y-11563674D01*
X13308902Y-11567487D01*
X13308992Y-11571298D01*
X13309083Y-11575105D01*
X13309177Y-11578910D01*
X13309272Y-11582712D01*
X13309369Y-11586511D01*
X13309468Y-11590307D01*
X13309569Y-11594100D01*
X13309672Y-11597890D01*
X13309777Y-11601678D01*
X13309884Y-11605462D01*
X13309992Y-11609244D01*
X13310103Y-11613022D01*
X13310216Y-11616798D01*
X13310330Y-11620571D01*
X13310447Y-11624341D01*
X13310565Y-11628109D01*
X13310685Y-11631873D01*
X13310807Y-11635635D01*
X13310931Y-11639393D01*
X13311057Y-11643149D01*
X13311185Y-11646902D01*
X13311315Y-11650652D01*
X13311446Y-11654399D01*
X13311580Y-11658144D01*
X13311715Y-11661885D01*
X13311853Y-11665624D01*
X13311992Y-11669360D01*
X13312133Y-11673093D01*
X13312276Y-11676823D01*
X13312421Y-11680550D01*
X13312568Y-11684275D01*
X13312716Y-11687997D01*
X13312867Y-11691715D01*
X13313019Y-11695431D01*
X13313174Y-11699144D01*
X13313330Y-11702855D01*
X13313488Y-11706562D01*
X13313648Y-11710267D01*
X13313810Y-11713969D01*
X13313974Y-11717668D01*
X13314139Y-11721364D01*
X13314307Y-11725057D01*
X13314476Y-11728748D01*
X13314647Y-11732435D01*
X13314820Y-11736120D01*
X13314995Y-11739802D01*
X13315172Y-11743481D01*
X13315351Y-11747158D01*
X13315532Y-11750832D01*
X13315714Y-11754502D01*
X13315898Y-11758170D01*
X13316085Y-11761836D01*
X13316273Y-11765498D01*
X13316462Y-11769157D01*
X13316654Y-11772814D01*
X13316848Y-11776468D01*
X13317043Y-11780119D01*
X13317241Y-11783768D01*
X13317440Y-11787413D01*
X13317641Y-11791056D01*
X13317844Y-11794696D01*
X13318048Y-11798333D01*
X13318255Y-11801968D01*
X13318463Y-11805600D01*
X13318673Y-11809228D01*
X13318885Y-11812854D01*
X13319099Y-11816478D01*
X13319315Y-11820098D01*
X13319533Y-11823716D01*
X13319752Y-11827331D01*
X13319973Y-11830943D01*
X13320197Y-11834553D01*
X13320421Y-11838159D01*
X13320648Y-11841763D01*
X13320877Y-11845364D01*
X13321107Y-11848962D01*
X13321339Y-11852558D01*
X13321574Y-11856151D01*
X13321809Y-11859741D01*
X13322047Y-11863328D01*
X13322287Y-11866913D01*
X13322528Y-11870494D01*
X13322771Y-11874073D01*
X13323016Y-11877650D01*
X13323263Y-11881223D01*
X13323512Y-11884794D01*
X13323762Y-11888362D01*
X13324014Y-11891927D01*
X13324268Y-11895490D01*
X13324524Y-11899049D01*
X13324782Y-11902606D01*
X13325041Y-11906161D01*
X13325303Y-11909712D01*
X13325566Y-11913261D01*
X13325830Y-11916807D01*
X13326097Y-11920351D01*
X13326366Y-11923891D01*
X13326636Y-11927429D01*
X13326908Y-11930964D01*
X13327182Y-11934497D01*
X13327458Y-11938026D01*
X13327735Y-11941553D01*
X13328014Y-11945077D01*
X13328295Y-11948599D01*
X13328578Y-11952118D01*
X13328863Y-11955634D01*
X13329149Y-11959147D01*
X13329437Y-11962658D01*
X13329727Y-11966166D01*
X13330019Y-11969671D01*
X13330313Y-11973173D01*
X13330608Y-11976673D01*
X13330905Y-11980170D01*
X13331204Y-11983665D01*
X13331504Y-11987156D01*
X13331807Y-11990645D01*
X13332111Y-11994132D01*
X13332417Y-11997615D01*
X13332725Y-12001096D01*
X13333034Y-12004574D01*
X13333345Y-12008050D01*
X13333659Y-12011523D01*
X13333973Y-12014993D01*
X13334290Y-12018460D01*
X13334608Y-12021925D01*
X13334928Y-12025387D01*
X13335250Y-12028846D01*
X13335574Y-12032303D01*
X13335899Y-12035757D01*
X13336226Y-12039208D01*
X13336555Y-12042657D01*
X13336886Y-12046103D01*
X13337218Y-12049546D01*
X13337552Y-12052987D01*
X13337888Y-12056425D01*
X13338226Y-12059860D01*
X13338565Y-12063293D01*
X13338906Y-12066723D01*
X13339249Y-12070150D01*
X13339594Y-12073575D01*
X13339940Y-12076997D01*
X13340288Y-12080416D01*
X13340638Y-12083833D01*
X13340989Y-12087247D01*
X13341343Y-12090658D01*
X13341698Y-12094067D01*
X13342054Y-12097473D01*
X13342413Y-12100876D01*
X13342773Y-12104277D01*
X13343135Y-12107675D01*
X13343499Y-12111070D01*
X13343864Y-12114463D01*
X13344231Y-12117853D01*
X13344600Y-12121241D01*
X13344971Y-12124626D01*
X13345343Y-12128008D01*
X13345717Y-12131387D01*
X13346093Y-12134764D01*
X13346470Y-12138139D01*
X13346850Y-12141510D01*
X13347230Y-12144880D01*
X13347613Y-12148246D01*
X13347997Y-12151610D01*
X13348383Y-12154971D01*
X13348771Y-12158330D01*
X13349161Y-12161686D01*
X13349552Y-12165039D01*
X13349945Y-12168390D01*
X13350339Y-12171738D01*
X13350736Y-12175083D01*
X13351134Y-12178426D01*
X13351533Y-12181766D01*
X13351935Y-12185104D01*
X13352338Y-12188439D01*
X13352743Y-12191771D01*
X13353149Y-12195101D01*
X13353557Y-12198428D01*
X13353967Y-12201753D01*
X13354379Y-12205075D01*
X13354792Y-12208394D01*
X13355207Y-12211711D01*
X13355624Y-12215025D01*
X13356042Y-12218337D01*
X13356462Y-12221646D01*
X13356884Y-12224952D01*
X13357307Y-12228256D01*
X13357732Y-12231558D01*
X13358159Y-12234856D01*
X13358587Y-12238152D01*
X13359018Y-12241446D01*
X13359449Y-12244737D01*
X13359883Y-12248025D01*
X13360318Y-12251311D01*
X13360755Y-12254594D01*
X13361193Y-12257875D01*
X13361634Y-12261153D01*
X13362075Y-12264428D01*
X13362519Y-12267701D01*
X13362964Y-12270971D01*
X13363411Y-12274239D01*
X13363859Y-12277504D01*
X13364310Y-12280767D01*
X13364762Y-12284027D01*
X13365215Y-12287284D01*
X13365670Y-12290539D01*
X13366127Y-12293792D01*
X13366586Y-12297041D01*
X13367046Y-12300289D01*
X13367508Y-12303533D01*
X13367971Y-12306776D01*
X13368436Y-12310015D01*
X13368903Y-12313252D01*
X13369371Y-12316487D01*
X13369842Y-12319719D01*
X13370313Y-12322948D01*
X13370787Y-12326175D01*
X13371262Y-12329399D01*
X13371738Y-12332621D01*
X13372217Y-12335840D01*
X13372697Y-12339057D01*
X13373178Y-12342271D01*
X13373662Y-12345483D01*
X13374146Y-12348692D01*
X13374633Y-12351899D01*
X13375121Y-12355103D01*
X13375611Y-12358304D01*
X13376102Y-12361503D01*
X13376596Y-12364700D01*
X13377090Y-12367894D01*
X13377587Y-12371085D01*
X13378085Y-12374274D01*
X13378584Y-12377460D01*
X13379085Y-12380644D01*
X13379588Y-12383826D01*
X13380093Y-12387005D01*
X13380599Y-12390181D01*
X13381107Y-12393355D01*
X13381616Y-12396526D01*
X13382127Y-12399695D01*
X13382640Y-12402861D01*
X13383154Y-12406025D01*
X13383670Y-12409186D01*
X13384187Y-12412345D01*
X13384706Y-12415501D01*
X13385227Y-12418655D01*
X13385749Y-12421807D01*
X13386273Y-12424955D01*
X13386799Y-12428102D01*
X13387326Y-12431245D01*
X13387855Y-12434387D01*
X13388385Y-12437526D01*
X13388917Y-12440662D01*
X13389451Y-12443796D01*
X13389986Y-12446927D01*
X13390523Y-12450056D01*
X13391061Y-12453183D01*
X13391601Y-12456307D01*
X13392143Y-12459428D01*
X13392686Y-12462547D01*
X13393231Y-12465664D01*
X13393777Y-12468778D01*
X13394325Y-12471889D01*
X13394875Y-12474998D01*
X13395426Y-12478105D01*
X13395979Y-12481209D01*
X13396533Y-12484311D01*
X13397089Y-12487410D01*
X13397646Y-12490507D01*
X13398206Y-12493601D01*
X13398766Y-12496693D01*
X13399329Y-12499782D01*
X13399892Y-12502869D01*
X13400458Y-12505954D01*
X13401025Y-12509036D01*
X13401594Y-12512115D01*
X13402164Y-12515193D01*
X13402736Y-12518267D01*
X13403309Y-12521340D01*
X13403884Y-12524409D01*
X13404460Y-12527477D01*
X13405039Y-12530542D01*
X13405618Y-12533604D01*
X13406200Y-12536664D01*
X13406782Y-12539722D01*
X13407367Y-12542777D01*
X13407953Y-12545829D01*
X13408540Y-12548880D01*
X13409129Y-12551928D01*
X13409720Y-12554973D01*
X13410312Y-12558016D01*
X13410906Y-12561057D01*
X13411501Y-12564095D01*
X13412098Y-12567130D01*
X13412697Y-12570164D01*
X13413297Y-12573195D01*
X13413898Y-12576223D01*
X13414502Y-12579249D01*
X13415106Y-12582273D01*
X13415713Y-12585294D01*
X13416320Y-12588313D01*
X13416930Y-12591329D01*
X13417541Y-12594343D01*
X13418153Y-12597354D01*
X13418767Y-12600364D01*
X13419383Y-12603370D01*
X13420000Y-12606375D01*
X13420619Y-12609376D01*
X13421239Y-12612376D01*
X13421861Y-12615373D01*
X13422484Y-12618368D01*
X13423109Y-12621360D01*
X13423735Y-12624350D01*
X13424363Y-12627338D01*
X13424993Y-12630323D01*
X13425624Y-12633305D01*
X13426256Y-12636286D01*
X13426890Y-12639264D01*
X13427526Y-12642239D01*
X13428163Y-12645213D01*
X13428802Y-12648183D01*
X13429442Y-12651152D01*
X13430084Y-12654118D01*
X13430727Y-12657082D01*
X13431372Y-12660043D01*
X13432018Y-12663002D01*
X13432666Y-12665958D01*
X13433315Y-12668912D01*
X13433966Y-12671864D01*
X13434619Y-12674814D01*
X13435273Y-12677761D01*
X13435928Y-12680705D01*
X13436585Y-12683648D01*
X13437244Y-12686588D01*
X13437904Y-12689525D01*
X13438565Y-12692460D01*
X13439229Y-12695393D01*
X13439893Y-12698324D01*
X13440559Y-12701252D01*
X13441227Y-12704178D01*
X13441896Y-12707101D01*
X13442567Y-12710022D01*
X13443239Y-12712941D01*
X13443913Y-12715857D01*
X13444588Y-12718771D01*
X13445264Y-12721683D01*
X13445943Y-12724592D01*
X13446622Y-12727499D01*
X13447304Y-12730404D01*
X13447986Y-12733306D01*
X13448671Y-12736206D01*
X13449356Y-12739104D01*
X13450044Y-12741999D01*
X13450732Y-12744892D01*
X13451422Y-12747783D01*
X13452114Y-12750671D01*
X13452807Y-12753557D01*
X13453502Y-12756441D01*
X13454198Y-12759322D01*
X13454896Y-12762201D01*
X13455595Y-12765078D01*
X13456296Y-12767952D01*
X13456998Y-12770824D01*
X13457702Y-12773694D01*
X13458407Y-12776561D01*
X13459114Y-12779426D01*
X13459822Y-12782289D01*
X13460531Y-12785149D01*
X13461243Y-12788007D01*
X13461955Y-12790863D01*
X13462669Y-12793717D01*
X13463385Y-12796568D01*
X13464102Y-12799417D01*
X13464820Y-12802263D01*
X13465541Y-12805108D01*
X13466262Y-12807949D01*
X13466985Y-12810789D01*
X13467709Y-12813626D01*
X13468435Y-12816462D01*
X13469163Y-12819294D01*
X13469892Y-12822125D01*
X13470622Y-12824953D01*
X13471354Y-12827779D01*
X13472087Y-12830602D01*
X13472822Y-12833424D01*
X13473558Y-12836243D01*
X13474296Y-12839059D01*
X13475035Y-12841874D01*
X13475776Y-12844686D01*
X13476518Y-12847496D01*
X13477261Y-12850303D01*
X13478006Y-12853108D01*
X13478753Y-12855912D01*
X13479501Y-12858712D01*
X13480250Y-12861511D01*
X13481001Y-12864307D01*
X13481753Y-12867101D01*
X13482507Y-12869892D01*
X13483262Y-12872682D01*
X13484019Y-12875469D01*
X13484777Y-12878254D01*
X13485537Y-12881036D01*
X13486298Y-12883817D01*
X13487061Y-12886595D01*
X13487825Y-12889370D01*
X13488590Y-12892144D01*
X13489357Y-12894915D01*
X13490125Y-12897684D01*
X13490895Y-12900451D01*
X13491666Y-12903215D01*
X13492439Y-12905978D01*
X13493213Y-12908738D01*
X13493989Y-12911495D01*
X13494766Y-12914251D01*
X13495544Y-12917004D01*
X13496324Y-12919755D01*
X13497105Y-12922504D01*
X13497888Y-12925250D01*
X13498672Y-12927995D01*
X13499458Y-12930736D01*
X13500245Y-12933476D01*
X13501034Y-12936214D01*
X13501824Y-12938949D01*
X13502615Y-12941682D01*
X13503408Y-12944413D01*
X13504202Y-12947142D01*
X13504998Y-12949868D01*
X13505795Y-12952592D01*
X13506593Y-12955314D01*
X13507393Y-12958034D01*
X13508195Y-12960751D01*
X13508998Y-12963466D01*
X13509802Y-12966179D01*
X13510608Y-12968890D01*
X13511415Y-12971599D01*
X13512223Y-12974305D01*
X13513033Y-12977009D01*
X13513845Y-12979711D01*
X13514658Y-12982411D01*
X13515472Y-12985108D01*
X13516288Y-12987804D01*
X13517105Y-12990497D01*
X13517923Y-12993188D01*
X13518743Y-12995876D01*
X13519564Y-12998563D01*
X13520387Y-13001247D01*
X13521211Y-13003929D01*
X13522037Y-13006609D01*
X13522864Y-13009287D01*
X13523692Y-13011962D01*
X13524522Y-13014635D01*
X13525353Y-13017306D01*
X13526186Y-13019975D01*
X13527020Y-13022642D01*
X13527856Y-13025306D01*
X13528693Y-13027968D01*
X13529531Y-13030629D01*
X13530370Y-13033286D01*
X13531212Y-13035942D01*
X13532054Y-13038596D01*
X13532898Y-13041247D01*
X13533743Y-13043896D01*
X13534590Y-13046543D01*
X13535438Y-13049188D01*
X13536288Y-13051831D01*
X13537139Y-13054471D01*
X13537991Y-13057109D01*
X13538845Y-13059745D01*
X13539700Y-13062380D01*
X13540556Y-13065011D01*
X13541414Y-13067641D01*
X13542273Y-13070268D01*
X13543134Y-13072894D01*
X13543996Y-13075516D01*
X13544860Y-13078138D01*
X13545725Y-13080756D01*
X13546591Y-13083373D01*
X13547459Y-13085987D01*
X13548328Y-13088600D01*
X13549198Y-13091210D01*
X13550070Y-13093818D01*
X13550943Y-13096423D01*
X13551818Y-13099027D01*
X13552694Y-13101628D01*
X13553571Y-13104228D01*
X13554450Y-13106825D01*
X13555330Y-13109420D01*
X13556211Y-13112013D01*
X13557094Y-13114604D01*
X13557979Y-13117192D01*
X13558864Y-13119779D01*
X13559751Y-13122363D01*
X13560640Y-13124945D01*
X13561529Y-13127525D01*
X13562421Y-13130103D01*
X13563313Y-13132679D01*
X13564207Y-13135253D01*
X13565102Y-13137824D01*
X13565999Y-13140394D01*
X13566897Y-13142961D01*
X13567797Y-13145526D01*
X13568697Y-13148089D01*
X13569600Y-13150650D01*
X13570503Y-13153208D01*
X13571408Y-13155765D01*
X13572314Y-13158320D01*
X13573222Y-13160872D01*
X13574131Y-13163422D01*
X13575041Y-13165970D01*
X13575953Y-13168516D01*
X13576866Y-13171060D01*
X13577781Y-13173602D01*
X13578697Y-13176142D01*
X13579614Y-13178679D01*
X13580532Y-13181215D01*
X13581452Y-13183748D01*
X13582374Y-13186279D01*
X13583296Y-13188808D01*
X13584220Y-13191335D01*
X13585146Y-13193860D01*
X13586072Y-13196383D01*
X13587000Y-13198904D01*
X13587930Y-13201422D01*
X13588861Y-13203939D01*
X13589793Y-13206453D01*
X13590726Y-13208965D01*
X13591661Y-13211476D01*
X13592597Y-13213984D01*
X13593535Y-13216490D01*
X13594474Y-13218994D01*
X13595414Y-13221496D01*
X13596356Y-13223995D01*
X13597299Y-13226493D01*
X13598243Y-13228988D01*
X13599189Y-13231482D01*
X13600136Y-13233973D01*
X13601084Y-13236463D01*
X13602034Y-13238950D01*
X13602985Y-13241435D01*
X13603937Y-13243918D01*
X13604891Y-13246399D01*
X13605846Y-13248878D01*
X13606802Y-13251355D01*
X13607760Y-13253830D01*
X13608719Y-13256303D01*
X13609680Y-13258773D01*
X13610642Y-13261242D01*
X13611605Y-13263708D01*
X13612569Y-13266173D01*
X13613535Y-13268635D01*
X13614502Y-13271095D01*
X13615471Y-13273553D01*
X13616440Y-13276010D01*
X13617412Y-13278464D01*
X13618384Y-13280916D01*
X13619358Y-13283366D01*
X13620333Y-13285814D01*
X13621309Y-13288260D01*
X13622287Y-13290703D01*
X13623266Y-13293145D01*
X13624247Y-13295585D01*
X13625229Y-13298023D01*
X13626212Y-13300458D01*
X13627196Y-13302892D01*
X13628182Y-13305323D01*
X13629169Y-13307753D01*
X13630158Y-13310180D01*
X13631148Y-13312606D01*
X13632139Y-13315029D01*
X13633131Y-13317450D01*
X13634125Y-13319870D01*
X13635120Y-13322287D01*
X13636116Y-13324702D01*
X13637114Y-13327115D01*
X13638113Y-13329526D01*
X13639114Y-13331935D01*
X13640115Y-13334342D01*
X13641118Y-13336747D01*
X13642123Y-13339151D01*
X13643128Y-13341551D01*
X13644135Y-13343950D01*
X13645143Y-13346347D01*
X13646153Y-13348742D01*
X13647164Y-13351135D01*
X13648176Y-13353526D01*
X13649190Y-13355915D01*
X13650205Y-13358302D01*
X13651221Y-13360686D01*
X13652238Y-13363069D01*
X13653257Y-13365450D01*
X13654277Y-13367829D01*
X13655299Y-13370205D01*
X13656321Y-13372580D01*
X13657345Y-13374953D01*
X13658371Y-13377324D01*
X13659397Y-13379692D01*
X13660426Y-13382059D01*
X13661455Y-13384423D01*
X13662485Y-13386786D01*
X13663517Y-13389147D01*
X13664551Y-13391506D01*
X13665585Y-13393862D01*
X13666621Y-13396217D01*
X13667658Y-13398569D01*
X13668696Y-13400920D01*
X13669736Y-13403269D01*
X13670777Y-13405616D01*
X13671819Y-13407960D01*
X13672863Y-13410303D01*
X13673908Y-13412644D01*
X13674954Y-13414982D01*
X13676002Y-13417319D01*
X13677051Y-13419654D01*
X13678101Y-13421987D01*
X13679152Y-13424317D01*
X13680205Y-13426646D01*
X13681259Y-13428973D01*
X13682314Y-13431298D01*
X13683371Y-13433621D01*
X13684429Y-13435941D01*
X13685488Y-13438260D01*
X13686549Y-13440577D01*
X13687611Y-13442892D01*
X13688674Y-13445205D01*
X13689738Y-13447516D01*
X13690804Y-13449825D01*
X13691871Y-13452132D01*
X13692939Y-13454437D01*
X13694008Y-13456740D01*
X13695079Y-13459041D01*
X13696151Y-13461341D01*
X13697225Y-13463638D01*
X13698300Y-13465933D01*
X13699376Y-13468226D01*
X13700453Y-13470518D01*
X13701531Y-13472807D01*
X13702611Y-13475094D01*
X13703692Y-13477380D01*
X13704775Y-13479663D01*
X13705859Y-13481945D01*
X13706944Y-13484224D01*
X13708030Y-13486502D01*
X13709118Y-13488778D01*
X13710206Y-13491051D01*
X13711297Y-13493323D01*
X13712388Y-13495593D01*
X13713481Y-13497861D01*
X13714575Y-13500126D01*
X13715670Y-13502391D01*
X13716766Y-13504652D01*
X13717864Y-13506913D01*
X13718963Y-13509171D01*
X13720064Y-13511427D01*
X13721165Y-13513681D01*
X13722268Y-13515934D01*
X13723372Y-13518184D01*
X13725585Y-13522679D01*
X13727802Y-13527166D01*
X13730025Y-13531645D01*
X13732252Y-13536117D01*
X13734485Y-13540581D01*
X13736722Y-13545038D01*
X13738965Y-13549486D01*
X13741213Y-13553927D01*
X13743466Y-13558361D01*
X13745724Y-13562786D01*
X13747987Y-13567204D01*
X13750255Y-13571615D01*
X13752529Y-13576017D01*
X13754807Y-13580412D01*
X13757090Y-13584800D01*
X13759379Y-13589180D01*
X13761672Y-13593552D01*
X13763971Y-13597917D01*
X13766274Y-13602274D01*
X13768583Y-13606623D01*
X13770896Y-13610965D01*
X13773215Y-13615300D01*
X13775539Y-13619627D01*
X13777867Y-13623946D01*
X13780201Y-13628258D01*
X13782540Y-13632562D01*
X13784884Y-13636859D01*
X13787232Y-13641148D01*
X13789586Y-13645429D01*
X13791945Y-13649704D01*
X13794309Y-13653970D01*
X13796677Y-13658230D01*
X13799051Y-13662482D01*
X13801430Y-13666726D01*
X13803814Y-13670963D01*
X13806202Y-13675192D01*
X13808596Y-13679414D01*
X13810995Y-13683629D01*
X13813398Y-13687836D01*
X13815807Y-13692036D01*
X13818221Y-13696228D01*
X13820639Y-13700413D01*
X13823063Y-13704591D01*
X13825491Y-13708761D01*
X13827925Y-13712924D01*
X13830363Y-13717080D01*
X13832807Y-13721228D01*
X13835255Y-13725369D01*
X13837708Y-13729502D01*
X13840167Y-13733629D01*
X13842630Y-13737747D01*
X13845098Y-13741859D01*
X13847571Y-13745963D01*
X13850049Y-13750060D01*
X13852532Y-13754150D01*
X13855020Y-13758232D01*
X13857513Y-13762308D01*
X13860010Y-13766375D01*
X13862513Y-13770436D01*
X13865021Y-13774490D01*
X13867533Y-13778536D01*
X13870051Y-13782575D01*
X13872573Y-13786606D01*
X13875100Y-13790631D01*
X13877632Y-13794648D01*
X13880169Y-13798658D01*
X13882711Y-13802661D01*
X13885258Y-13806657D01*
X13887810Y-13810645D01*
X13890367Y-13814627D01*
X13892929Y-13818601D01*
X13895495Y-13822568D01*
X13898066Y-13826528D01*
X13900643Y-13830480D01*
X13903224Y-13834426D01*
X13905810Y-13838365D01*
X13908401Y-13842296D01*
X13910997Y-13846220D01*
X13913598Y-13850137D01*
X13916203Y-13854047D01*
X13918814Y-13857950D01*
X13921429Y-13861846D01*
X13924049Y-13865735D01*
X13926675Y-13869617D01*
X13929305Y-13873491D01*
X13931940Y-13877359D01*
X13934579Y-13881220D01*
X13937224Y-13885073D01*
X13939873Y-13888920D01*
X13942528Y-13892759D01*
X13945187Y-13896592D01*
X13947851Y-13900417D01*
X13950520Y-13904236D01*
X13953194Y-13908047D01*
X13955873Y-13911851D01*
X13958556Y-13915649D01*
X13961245Y-13919439D01*
X13963938Y-13923223D01*
X13966636Y-13927000D01*
X13969339Y-13930769D01*
X13972047Y-13934532D01*
X13974759Y-13938287D01*
X13977477Y-13942036D01*
X13980199Y-13945778D01*
X13982926Y-13949513D01*
X13985658Y-13953241D01*
X13988395Y-13956962D01*
X13991137Y-13960676D01*
X13993884Y-13964383D01*
X13996635Y-13968084D01*
X13999391Y-13971777D01*
X14002152Y-13975464D01*
X14004918Y-13979144D01*
X14007689Y-13982816D01*
X14010465Y-13986482D01*
X14013245Y-13990142D01*
X14016030Y-13993794D01*
X14018820Y-13997439D01*
X14021615Y-14001078D01*
X14024415Y-14004710D01*
X14027220Y-14008335D01*
X14030029Y-14011953D01*
X14032843Y-14015564D01*
X14035662Y-14019168D01*
X14038486Y-14022766D01*
X14041315Y-14026357D01*
X14044149Y-14029941D01*
X14046987Y-14033518D01*
X14049830Y-14037089D01*
X14052678Y-14040653D01*
X14055531Y-14044210D01*
X14058389Y-14047760D01*
X14061251Y-14051303D01*
X14064119Y-14054840D01*
X14066991Y-14058370D01*
X14069868Y-14061893D01*
X14072750Y-14065410D01*
X14075636Y-14068920D01*
X14078528Y-14072423D01*
X14081424Y-14075919D01*
X14084325Y-14079409D01*
X14087231Y-14082892D01*
X14090141Y-14086368D01*
X14093057Y-14089837D01*
X14095977Y-14093300D01*
X14098902Y-14096756D01*
X14101832Y-14100206D01*
X14104767Y-14103648D01*
X14107707Y-14107084D01*
X14110651Y-14110514D01*
X14113600Y-14113937D01*
X14116554Y-14117353D01*
X14119513Y-14120762D01*
X14122477Y-14124165D01*
X14125445Y-14127561D01*
X14128419Y-14130951D01*
X14131397Y-14134334D01*
X14134380Y-14137710D01*
X14137367Y-14141080D01*
X14140360Y-14144443D01*
X14143357Y-14147799D01*
X14146360Y-14151149D01*
X14149366Y-14154492D01*
X14152378Y-14157829D01*
X14155395Y-14161159D01*
X14158416Y-14164482D01*
X14161443Y-14167799D01*
X14164474Y-14171109D01*
X14167510Y-14174413D01*
X14170550Y-14177710D01*
X14173596Y-14181000D01*
X14176646Y-14184284D01*
X14179701Y-14187562D01*
X14182761Y-14190833D01*
X14185826Y-14194097D01*
X14188896Y-14197355D01*
X14191970Y-14200606D01*
X14195049Y-14203850D01*
X14198133Y-14207089D01*
X14201222Y-14210320D01*
X14204316Y-14213545D01*
X14207414Y-14216764D01*
X14210518Y-14219976D01*
X14213626Y-14223181D01*
X14216739Y-14226380D01*
X14219856Y-14229573D01*
X14222979Y-14232759D01*
X14226106Y-14235938D01*
X14229239Y-14239111D01*
X14232376Y-14242278D01*
X14235517Y-14245438D01*
X14238664Y-14248591D01*
X14241816Y-14251738D01*
X14244972Y-14254879D01*
X14248133Y-14258013D01*
X14251299Y-14261140D01*
X14254470Y-14264261D01*
X14257646Y-14267376D01*
X14260826Y-14270484D01*
X14264011Y-14273586D01*
X14267201Y-14276681D01*
X14270396Y-14279770D01*
X14273596Y-14282853D01*
X14276801Y-14285928D01*
X14280010Y-14288998D01*
X14283224Y-14292061D01*
X14286443Y-14295118D01*
X14289667Y-14298168D01*
X14292896Y-14301212D01*
X14296130Y-14304249D01*
X14299368Y-14307280D01*
X14302611Y-14310304D01*
X14305859Y-14313322D01*
X14309112Y-14316334D01*
X14312370Y-14319339D01*
X14315633Y-14322338D01*
X14318900Y-14325330D01*
X14322172Y-14328316D01*
X14325449Y-14331296D01*
X14328731Y-14334269D01*
X14332018Y-14337236D01*
X14335310Y-14340196D01*
X14338606Y-14343150D01*
X14341907Y-14346098D01*
X14345214Y-14349039D01*
X14348525Y-14351974D01*
X14351840Y-14354902D01*
X14355161Y-14357824D01*
X14358487Y-14360740D01*
X14361817Y-14363649D01*
X14365152Y-14366552D01*
X14368492Y-14369449D01*
X14371837Y-14372339D01*
X14375187Y-14375223D01*
X14378542Y-14378100D01*
X14381901Y-14380971D01*
X14385265Y-14383836D01*
X14388635Y-14386694D01*
X14392009Y-14389546D01*
X14395388Y-14392392D01*
X14398771Y-14395231D01*
X14402160Y-14398064D01*
X14405553Y-14400890D01*
X14408952Y-14403710D01*
X14412355Y-14406524D01*
X14415763Y-14409332D01*
X14419176Y-14412133D01*
X14422594Y-14414928D01*
X14426016Y-14417716D01*
X14429444Y-14420498D01*
X14432876Y-14423274D01*
X14436313Y-14426043D01*
X14439755Y-14428806D01*
X14443202Y-14431563D01*
X14446654Y-14434313D01*
X14450111Y-14437057D01*
X14453572Y-14439795D01*
X14457039Y-14442526D01*
X14460510Y-14445251D01*
X14463986Y-14447970D01*
X14467467Y-14450682D01*
X14470953Y-14453388D01*
X14474444Y-14456088D01*
X14477940Y-14458781D01*
X14481440Y-14461468D01*
X14484946Y-14464149D01*
X14488456Y-14466823D01*
X14491971Y-14469491D01*
X14495492Y-14472153D01*
X14499016Y-14474809D01*
X14502546Y-14477458D01*
X14506081Y-14480100D01*
X14509621Y-14482737D01*
X14513165Y-14485367D01*
X14516715Y-14487990D01*
X14520269Y-14490608D01*
X14523828Y-14493219D01*
X14527392Y-14495824D01*
X14530961Y-14498422D01*
X14534535Y-14501014D01*
X14538114Y-14503600D01*
X14541697Y-14506179D01*
X14545286Y-14508753D01*
X14548879Y-14511319D01*
X14552477Y-14513880D01*
X14556080Y-14516434D01*
X14559688Y-14518982D01*
X14563301Y-14521523D01*
X14566919Y-14524058D01*
X14570542Y-14526587D01*
X14574170Y-14529110D01*
X14577802Y-14531626D01*
X14581440Y-14534136D01*
X14585082Y-14536639D01*
X14588729Y-14539136D01*
X14592381Y-14541627D01*
X14596038Y-14544112D01*
X14599700Y-14546590D01*
X14603367Y-14549062D01*
X14607039Y-14551527D01*
X14610715Y-14553987D01*
X14614397Y-14556439D01*
X14618083Y-14558886D01*
X14621775Y-14561326D01*
X14625471Y-14563760D01*
X14629172Y-14566188D01*
X14632878Y-14568609D01*
X14636589Y-14571023D01*
X14640305Y-14573432D01*
X14644026Y-14575834D01*
X14647751Y-14578230D01*
X14651482Y-14580619D01*
X14655217Y-14583002D01*
X14658958Y-14585379D01*
X14662703Y-14587749D01*
X14666453Y-14590113D01*
X14670208Y-14592471D01*
X14673968Y-14594822D01*
X14677733Y-14597167D01*
X14681503Y-14599506D01*
X14685278Y-14601838D01*
X14689057Y-14604164D01*
X14692842Y-14606484D01*
X14696631Y-14608797D01*
X14700425Y-14611104D01*
X14704225Y-14613404D01*
X14708029Y-14615698D01*
X14711838Y-14617986D01*
X14715652Y-14620267D01*
X14719470Y-14622542D01*
X14723294Y-14624810D01*
X14727123Y-14627072D01*
X14730956Y-14629328D01*
X14734795Y-14631578D01*
X14738638Y-14633820D01*
X14742486Y-14636057D01*
X14746339Y-14638287D01*
X14750197Y-14640511D01*
X14754060Y-14642728D01*
X14757928Y-14644939D01*
X14761800Y-14647144D01*
X14765678Y-14649342D01*
X14769561Y-14651534D01*
X14773448Y-14653719D01*
X14777340Y-14655898D01*
X14781237Y-14658070D01*
X14785139Y-14660237D01*
X14789046Y-14662396D01*
X14792958Y-14664549D01*
X14796875Y-14666696D01*
X14800796Y-14668837D01*
X14804723Y-14670970D01*
X14808654Y-14673098D01*
X14812590Y-14675219D01*
X14816531Y-14677334D01*
X14820477Y-14679442D01*
X14824428Y-14681543D01*
X14828384Y-14683638D01*
X14832344Y-14685727D01*
X14836310Y-14687810D01*
X14840280Y-14689885D01*
X14844255Y-14691955D01*
X14848235Y-14694018D01*
X14852220Y-14696074D01*
X14856210Y-14698124D01*
X14860204Y-14700167D01*
X14864204Y-14702204D01*
X14868208Y-14704235D01*
X14872217Y-14706258D01*
X14876231Y-14708276D01*
X14880250Y-14710287D01*
X14884274Y-14712291D01*
X14888302Y-14714289D01*
X14892336Y-14716281D01*
X14896374Y-14718265D01*
X14900417Y-14720244D01*
X14904465Y-14722215D01*
X14908518Y-14724181D01*
X14912575Y-14726139D01*
X14916637Y-14728092D01*
X14920705Y-14730037D01*
X14924776Y-14731976D01*
X14928853Y-14733909D01*
X14932935Y-14735835D01*
X14937021Y-14737754D01*
X14941112Y-14739667D01*
X14945208Y-14741573D01*
X14949309Y-14743473D01*
X14953415Y-14745366D01*
X14957525Y-14747252D01*
X14961640Y-14749132D01*
X14965760Y-14751005D01*
X14969884Y-14752872D01*
X14974014Y-14754732D01*
X14978148Y-14756585D01*
X14982287Y-14758432D01*
X14986431Y-14760272D01*
X14990579Y-14762106D01*
X14994732Y-14763933D01*
X14998890Y-14765753D01*
X15003053Y-14767567D01*
X15007220Y-14769374D01*
X15011392Y-14771174D01*
X15015569Y-14772968D01*
X15019750Y-14774755D01*
X15023936Y-14776535D01*
X15028127Y-14778308D01*
X15032323Y-14780075D01*
X15036523Y-14781836D01*
X15040728Y-14783589D01*
X15044938Y-14785336D01*
X15049152Y-14787076D01*
X15053371Y-14788809D01*
X15057595Y-14790536D01*
X15061823Y-14792256D01*
X15066056Y-14793969D01*
X15070293Y-14795676D01*
X15074535Y-14797375D01*
X15078782Y-14799068D01*
X15083033Y-14800754D01*
X15087289Y-14802434D01*
X15091550Y-14804107D01*
X15095815Y-14805772D01*
X15100085Y-14807432D01*
X15104359Y-14809084D01*
X15108638Y-14810729D01*
X15112921Y-14812368D01*
X15117209Y-14814000D01*
X15121502Y-14815625D01*
X15125799Y-14817243D01*
X15130100Y-14818855D01*
X15134406Y-14820459D01*
X15138717Y-14822057D01*
X15143032Y-14823648D01*
X15147352Y-14825232D01*
X15151676Y-14826809D01*
X15156004Y-14828379D01*
X15160337Y-14829942D01*
X15164674Y-14831499D01*
X15169016Y-14833049D01*
X15173362Y-14834591D01*
X15177713Y-14836127D01*
X15182068Y-14837656D01*
X15186427Y-14839178D01*
X15190791Y-14840693D01*
X15195159Y-14842201D01*
X15199532Y-14843702D01*
X15203908Y-14845196D01*
X15208290Y-14846683D01*
X15212675Y-14848164D01*
X15217065Y-14849637D01*
X15221459Y-14851103D01*
X15225857Y-14852563D01*
X15230260Y-14854015D01*
X15234667Y-14855460D01*
X15239078Y-14856898D01*
X15243493Y-14858330D01*
X15247912Y-14859754D01*
X15252336Y-14861171D01*
X15256764Y-14862581D01*
X15261196Y-14863984D01*
X15265632Y-14865380D01*
X15270072Y-14866769D01*
X15274516Y-14868151D01*
X15278965Y-14869526D01*
X15283417Y-14870894D01*
X15287874Y-14872254D01*
X15292335Y-14873608D01*
X15296799Y-14874954D01*
X15301268Y-14876293D01*
X15305741Y-14877625D01*
X15310217Y-14878950D01*
X15314698Y-14880268D01*
X15319182Y-14881579D01*
X15323671Y-14882882D01*
X15328163Y-14884178D01*
X15332659Y-14885467D01*
X15337160Y-14886749D01*
X15341663Y-14888024D01*
X15346171Y-14889291D01*
X15350683Y-14890552D01*
X15355198Y-14891805D01*
X15359717Y-14893050D01*
X15364240Y-14894289D01*
X15368766Y-14895520D01*
X15373297Y-14896744D01*
X15377831Y-14897961D01*
X15382368Y-14899170D01*
X15386909Y-14900372D01*
X15391454Y-14901567D01*
X15396002Y-14902754D01*
X15400554Y-14903935D01*
X15405109Y-14905108D01*
X15409668Y-14906273D01*
X15414231Y-14907431D01*
X15418796Y-14908582D01*
X15423365Y-14909725D01*
X15427938Y-14910861D01*
X15432514Y-14911990D01*
X15437093Y-14913111D01*
X15441676Y-14914225D01*
X15446262Y-14915332D01*
X15450851Y-14916431D01*
X15455443Y-14917522D01*
X15460038Y-14918606D01*
X15464637Y-14919683D01*
X15469239Y-14920752D01*
X15473843Y-14921814D01*
X15478451Y-14922868D01*
X15483062Y-14923915D01*
X15487676Y-14924954D01*
X15492293Y-14925986D01*
X15496913Y-14927010D01*
X15501535Y-14928027D01*
X15506161Y-14929036D01*
X15510789Y-14930037D01*
X15515420Y-14931032D01*
X15520054Y-14932018D01*
X15524690Y-14932997D01*
X15529329Y-14933968D01*
X15533971Y-14934932D01*
X15538616Y-14935888D01*
X15543262Y-14936836D01*
X15547912Y-14937777D01*
X15552564Y-14938710D01*
X15557218Y-14939636D01*
X15561875Y-14940554D01*
X15566534Y-14941464D01*
X15571195Y-14942367D01*
X15575858Y-14943261D01*
X15580524Y-14944148D01*
X15585192Y-14945028D01*
X15589862Y-14945900D01*
X15594534Y-14946764D01*
X15599208Y-14947620D01*
X15603883Y-14948468D01*
X15608561Y-14949309D01*
X15613241Y-14950142D01*
X15617922Y-14950967D01*
X15622605Y-14951785D01*
X15627290Y-14952594D01*
X15631977Y-14953396D01*
X15636665Y-14954190D01*
X15641354Y-14954976D01*
X15646045Y-14955754D01*
X15650738Y-14956525D01*
X15655431Y-14957287D01*
X15660126Y-14958042D01*
X15664823Y-14958789D01*
X15669520Y-14959528D01*
X15674219Y-14960259D01*
X15678918Y-14960982D01*
X15683618Y-14961698D01*
X15688320Y-14962405D01*
X15693022Y-14963104D01*
X15697725Y-14963796D01*
X15702429Y-14964479D01*
X15707133Y-14965155D01*
X15711837Y-14965822D01*
X15716543Y-14966482D01*
X15721248Y-14967134D01*
X15725954Y-14967777D01*
X15730660Y-14968413D01*
X15735367Y-14969040D01*
X15740073Y-14969660D01*
X15744779Y-14970271D01*
X15749486Y-14970875D01*
X15754192Y-14971470D01*
X15758897Y-14972058D01*
X15763603Y-14972637D01*
X15768308Y-14973208D01*
X15773012Y-14973771D01*
X15777716Y-14974326D01*
X15782419Y-14974873D01*
X15787122Y-14975412D01*
X15791823Y-14975943D01*
X15796524Y-14976466D01*
X15801223Y-14976980D01*
X15805921Y-14977487D01*
X15810618Y-14977985D01*
X15815314Y-14978475D01*
X15820008Y-14978957D01*
X15824700Y-14979431D01*
X15829391Y-14979896D01*
X15834079Y-14980354D01*
X15838766Y-14980803D01*
X15843451Y-14981244D01*
X15848134Y-14981677D01*
X15852814Y-14982102D01*
X15857492Y-14982518D01*
X15862168Y-14982926D01*
X15866841Y-14983326D01*
X15871511Y-14983718D01*
X15876178Y-14984102D01*
X15880843Y-14984477D01*
X15885504Y-14984845D01*
X15890162Y-14985204D01*
X15894817Y-14985554D01*
X15899468Y-14985897D01*
X15904116Y-14986231D01*
X15908760Y-14986558D01*
X15913400Y-14986875D01*
X15918036Y-14987185D01*
X15922669Y-14987487D01*
X15927297Y-14987780D01*
X15931921Y-14988065D01*
X15936541Y-14988342D01*
X15941156Y-14988611D01*
X15945767Y-14988871D01*
X15950373Y-14989123D01*
X15954975Y-14989367D01*
X15959572Y-14989603D01*
X15964164Y-14989831D01*
X15968751Y-14990051D01*
X15973334Y-14990262D01*
X15977912Y-14990465D01*
X15982486Y-14990661D01*
X15987054Y-14990848D01*
X15991619Y-14991027D01*
X15996179Y-14991198D01*
X16000735Y-14991361D01*
X16005288Y-14991516D01*
X16009837Y-14991662D01*
X16014383Y-14991801D01*
X16018927Y-14991932D01*
X16023470Y-14992055D01*
X16028013Y-14992171D01*
X16032556Y-14992278D01*
X16037102Y-14992378D01*
X16041652Y-14992470D01*
X16046209Y-14992554D01*
X16050776Y-14992630D01*
X16055358Y-14992700D01*
X16059958Y-14992761D01*
X16064585Y-14992815D01*
X16069249Y-14992862D01*
X16073962Y-14992902D01*
X16078745Y-14992934D01*
X16083629Y-14992960D01*
X16088664Y-14992979D01*
X16093943Y-14992992D01*
X16099669Y-14992998D01*
X16106900Y-14993000D01*
X20306900Y-11393000D02*
X20306899Y-11396942D01*
X20306896Y-11400881D01*
X20306891Y-11404818D01*
X20306884Y-11408751D01*
X20306875Y-11412681D01*
X20306864Y-11416609D01*
X20306851Y-11420533D01*
X20306836Y-11424455D01*
X20306819Y-11428373D01*
X20306800Y-11432289D01*
X20306779Y-11436201D01*
X20306756Y-11440111D01*
X20306732Y-11444018D01*
X20306705Y-11447922D01*
X20306676Y-11451822D01*
X20306645Y-11455720D01*
X20306612Y-11459615D01*
X20306577Y-11463507D01*
X20306541Y-11467396D01*
X20306502Y-11471283D01*
X20306461Y-11475166D01*
X20306419Y-11479046D01*
X20306374Y-11482923D01*
X20306327Y-11486798D01*
X20306279Y-11490669D01*
X20306228Y-11494538D01*
X20306176Y-11498404D01*
X20306121Y-11502266D01*
X20306065Y-11506126D01*
X20306007Y-11509983D01*
X20305946Y-11513837D01*
X20305884Y-11517688D01*
X20305820Y-11521536D01*
X20305754Y-11525382D01*
X20305686Y-11529224D01*
X20305616Y-11533063D01*
X20305544Y-11536900D01*
X20305470Y-11540733D01*
X20305394Y-11544564D01*
X20305316Y-11548392D01*
X20305236Y-11552217D01*
X20305154Y-11556039D01*
X20305071Y-11559858D01*
X20304985Y-11563674D01*
X20304898Y-11567487D01*
X20304808Y-11571298D01*
X20304717Y-11575105D01*
X20304623Y-11578910D01*
X20304528Y-11582712D01*
X20304431Y-11586511D01*
X20304332Y-11590307D01*
X20304231Y-11594100D01*
X20304128Y-11597890D01*
X20304023Y-11601678D01*
X20303916Y-11605462D01*
X20303808Y-11609244D01*
X20303697Y-11613022D01*
X20303584Y-11616798D01*
X20303470Y-11620571D01*
X20303353Y-11624341D01*
X20303235Y-11628109D01*
X20303115Y-11631873D01*
X20302993Y-11635635D01*
X20302869Y-11639393D01*
X20302743Y-11643149D01*
X20302615Y-11646902D01*
X20302485Y-11650652D01*
X20302354Y-11654399D01*
X20302220Y-11658144D01*
X20302085Y-11661885D01*
X20301947Y-11665624D01*
X20301808Y-11669360D01*
X20301667Y-11673093D01*
X20301524Y-11676823D01*
X20301379Y-11680550D01*
X20301232Y-11684275D01*
X20301084Y-11687997D01*
X20300933Y-11691715D01*
X20300781Y-11695431D01*
X20300626Y-11699144D01*
X20300470Y-11702855D01*
X20300312Y-11706562D01*
X20300152Y-11710267D01*
X20299990Y-11713969D01*
X20299826Y-11717668D01*
X20299661Y-11721364D01*
X20299493Y-11725057D01*
X20299324Y-11728748D01*
X20299153Y-11732435D01*
X20298980Y-11736120D01*
X20298805Y-11739802D01*
X20298628Y-11743481D01*
X20298449Y-11747158D01*
X20298268Y-11750832D01*
X20298086Y-11754502D01*
X20297902Y-11758170D01*
X20297715Y-11761836D01*
X20297527Y-11765498D01*
X20297338Y-11769157D01*
X20297146Y-11772814D01*
X20296952Y-11776468D01*
X20296757Y-11780119D01*
X20296559Y-11783768D01*
X20296360Y-11787413D01*
X20296159Y-11791056D01*
X20295956Y-11794696D01*
X20295752Y-11798333D01*
X20295545Y-11801968D01*
X20295337Y-11805600D01*
X20295127Y-11809228D01*
X20294915Y-11812854D01*
X20294701Y-11816478D01*
X20294485Y-11820098D01*
X20294267Y-11823716D01*
X20294048Y-11827331D01*
X20293827Y-11830943D01*
X20293603Y-11834553D01*
X20293379Y-11838159D01*
X20293152Y-11841763D01*
X20292923Y-11845364D01*
X20292693Y-11848962D01*
X20292461Y-11852558D01*
X20292226Y-11856151D01*
X20291991Y-11859741D01*
X20291753Y-11863328D01*
X20291513Y-11866913D01*
X20291272Y-11870494D01*
X20291029Y-11874073D01*
X20290784Y-11877650D01*
X20290537Y-11881223D01*
X20290288Y-11884794D01*
X20290038Y-11888362D01*
X20289786Y-11891927D01*
X20289532Y-11895490D01*
X20289276Y-11899049D01*
X20289018Y-11902606D01*
X20288759Y-11906161D01*
X20288497Y-11909712D01*
X20288234Y-11913261D01*
X20287970Y-11916807D01*
X20287703Y-11920351D01*
X20287434Y-11923891D01*
X20287164Y-11927429D01*
X20286892Y-11930964D01*
X20286618Y-11934497D01*
X20286342Y-11938026D01*
X20286065Y-11941553D01*
X20285786Y-11945077D01*
X20285505Y-11948599D01*
X20285222Y-11952118D01*
X20284937Y-11955634D01*
X20284651Y-11959147D01*
X20284363Y-11962658D01*
X20284073Y-11966166D01*
X20283781Y-11969671D01*
X20283487Y-11973173D01*
X20283192Y-11976673D01*
X20282895Y-11980170D01*
X20282596Y-11983665D01*
X20282296Y-11987156D01*
X20281993Y-11990645D01*
X20281689Y-11994132D01*
X20281383Y-11997615D01*
X20281075Y-12001096D01*
X20280766Y-12004574D01*
X20280455Y-12008050D01*
X20280141Y-12011523D01*
X20279827Y-12014993D01*
X20279510Y-12018460D01*
X20279192Y-12021925D01*
X20278872Y-12025387D01*
X20278550Y-12028846D01*
X20278226Y-12032303D01*
X20277901Y-12035757D01*
X20277574Y-12039208D01*
X20277245Y-12042657D01*
X20276914Y-12046103D01*
X20276582Y-12049546D01*
X20276248Y-12052987D01*
X20275912Y-12056425D01*
X20275574Y-12059860D01*
X20275235Y-12063293D01*
X20274894Y-12066723D01*
X20274551Y-12070150D01*
X20274206Y-12073575D01*
X20273860Y-12076997D01*
X20273512Y-12080416D01*
X20273162Y-12083833D01*
X20272811Y-12087247D01*
X20272457Y-12090658D01*
X20272102Y-12094067D01*
X20271746Y-12097473D01*
X20271387Y-12100876D01*
X20271027Y-12104277D01*
X20270665Y-12107675D01*
X20270301Y-12111070D01*
X20269936Y-12114463D01*
X20269569Y-12117853D01*
X20269200Y-12121241D01*
X20268829Y-12124626D01*
X20268457Y-12128008D01*
X20268083Y-12131387D01*
X20267707Y-12134764D01*
X20267330Y-12138139D01*
X20266950Y-12141510D01*
X20266570Y-12144880D01*
X20266187Y-12148246D01*
X20265803Y-12151610D01*
X20265417Y-12154971D01*
X20265029Y-12158330D01*
X20264639Y-12161686D01*
X20264248Y-12165039D01*
X20263855Y-12168390D01*
X20263461Y-12171738D01*
X20263064Y-12175083D01*
X20262666Y-12178426D01*
X20262267Y-12181766D01*
X20261865Y-12185104D01*
X20261462Y-12188439D01*
X20261057Y-12191771D01*
X20260651Y-12195101D01*
X20260243Y-12198428D01*
X20259833Y-12201753D01*
X20259421Y-12205075D01*
X20259008Y-12208394D01*
X20258593Y-12211711D01*
X20258176Y-12215025D01*
X20257758Y-12218337D01*
X20257338Y-12221646D01*
X20256916Y-12224952D01*
X20256493Y-12228256D01*
X20256068Y-12231558D01*
X20255641Y-12234856D01*
X20255213Y-12238152D01*
X20254782Y-12241446D01*
X20254351Y-12244737D01*
X20253917Y-12248025D01*
X20253482Y-12251311D01*
X20253045Y-12254594D01*
X20252607Y-12257875D01*
X20252166Y-12261153D01*
X20251725Y-12264428D01*
X20251281Y-12267701D01*
X20250836Y-12270971D01*
X20250389Y-12274239D01*
X20249941Y-12277504D01*
X20249490Y-12280767D01*
X20249038Y-12284027D01*
X20248585Y-12287284D01*
X20248130Y-12290539D01*
X20247673Y-12293792D01*
X20247214Y-12297041D01*
X20246754Y-12300289D01*
X20246292Y-12303533D01*
X20245829Y-12306776D01*
X20245364Y-12310015D01*
X20244897Y-12313252D01*
X20244429Y-12316487D01*
X20243958Y-12319719D01*
X20243487Y-12322948D01*
X20243013Y-12326175D01*
X20242538Y-12329399D01*
X20242062Y-12332621D01*
X20241583Y-12335840D01*
X20241103Y-12339057D01*
X20240622Y-12342271D01*
X20240138Y-12345483D01*
X20239654Y-12348692D01*
X20239167Y-12351899D01*
X20238679Y-12355103D01*
X20238189Y-12358304D01*
X20237698Y-12361503D01*
X20237204Y-12364700D01*
X20236710Y-12367894D01*
X20236213Y-12371085D01*
X20235715Y-12374274D01*
X20235216Y-12377460D01*
X20234715Y-12380644D01*
X20234212Y-12383826D01*
X20233707Y-12387005D01*
X20233201Y-12390181D01*
X20232693Y-12393355D01*
X20232184Y-12396526D01*
X20231673Y-12399695D01*
X20231160Y-12402861D01*
X20230646Y-12406025D01*
X20230130Y-12409186D01*
X20229613Y-12412345D01*
X20229094Y-12415501D01*
X20228573Y-12418655D01*
X20228051Y-12421807D01*
X20227527Y-12424955D01*
X20227001Y-12428102D01*
X20226474Y-12431245D01*
X20225945Y-12434387D01*
X20225415Y-12437526D01*
X20224883Y-12440662D01*
X20224349Y-12443796D01*
X20223814Y-12446927D01*
X20223277Y-12450056D01*
X20222739Y-12453183D01*
X20222199Y-12456307D01*
X20221657Y-12459428D01*
X20221114Y-12462547D01*
X20220569Y-12465664D01*
X20220023Y-12468778D01*
X20219475Y-12471889D01*
X20218925Y-12474998D01*
X20218374Y-12478105D01*
X20217821Y-12481209D01*
X20217267Y-12484311D01*
X20216711Y-12487410D01*
X20216154Y-12490507D01*
X20215594Y-12493601D01*
X20215034Y-12496693D01*
X20214471Y-12499782D01*
X20213908Y-12502869D01*
X20213342Y-12505954D01*
X20212775Y-12509036D01*
X20212206Y-12512115D01*
X20211636Y-12515193D01*
X20211064Y-12518267D01*
X20210491Y-12521340D01*
X20209916Y-12524409D01*
X20209340Y-12527477D01*
X20208761Y-12530542D01*
X20208182Y-12533604D01*
X20207600Y-12536664D01*
X20207018Y-12539722D01*
X20206433Y-12542777D01*
X20205847Y-12545829D01*
X20205260Y-12548880D01*
X20204671Y-12551928D01*
X20204080Y-12554973D01*
X20203488Y-12558016D01*
X20202894Y-12561057D01*
X20202299Y-12564095D01*
X20201702Y-12567130D01*
X20201103Y-12570164D01*
X20200503Y-12573195D01*
X20199902Y-12576223D01*
X20199298Y-12579249D01*
X20198694Y-12582273D01*
X20198087Y-12585294D01*
X20197480Y-12588313D01*
X20196870Y-12591329D01*
X20196259Y-12594343D01*
X20195647Y-12597354D01*
X20195033Y-12600364D01*
X20194417Y-12603370D01*
X20193800Y-12606375D01*
X20193181Y-12609376D01*
X20192561Y-12612376D01*
X20191939Y-12615373D01*
X20191316Y-12618368D01*
X20190691Y-12621360D01*
X20190065Y-12624350D01*
X20189437Y-12627338D01*
X20188807Y-12630323D01*
X20188176Y-12633305D01*
X20187544Y-12636286D01*
X20186910Y-12639264D01*
X20186274Y-12642239D01*
X20185637Y-12645213D01*
X20184998Y-12648183D01*
X20184358Y-12651152D01*
X20183716Y-12654118D01*
X20183073Y-12657082D01*
X20182428Y-12660043D01*
X20181782Y-12663002D01*
X20181134Y-12665958D01*
X20180485Y-12668912D01*
X20179834Y-12671864D01*
X20179181Y-12674814D01*
X20178527Y-12677761D01*
X20177872Y-12680705D01*
X20177215Y-12683648D01*
X20176556Y-12686588D01*
X20175896Y-12689525D01*
X20175235Y-12692460D01*
X20174571Y-12695393D01*
X20173907Y-12698324D01*
X20173241Y-12701252D01*
X20172573Y-12704178D01*
X20171904Y-12707101D01*
X20171233Y-12710022D01*
X20170561Y-12712941D01*
X20169887Y-12715857D01*
X20169212Y-12718771D01*
X20168536Y-12721683D01*
X20167857Y-12724592D01*
X20167178Y-12727499D01*
X20166496Y-12730404D01*
X20165814Y-12733306D01*
X20165129Y-12736206D01*
X20164444Y-12739104D01*
X20163756Y-12741999D01*
X20163068Y-12744892D01*
X20162378Y-12747783D01*
X20161686Y-12750671D01*
X20160993Y-12753557D01*
X20160298Y-12756441D01*
X20159602Y-12759322D01*
X20158904Y-12762201D01*
X20158205Y-12765078D01*
X20157504Y-12767952D01*
X20156802Y-12770824D01*
X20156098Y-12773694D01*
X20155393Y-12776561D01*
X20154686Y-12779426D01*
X20153978Y-12782289D01*
X20153269Y-12785149D01*
X20152557Y-12788007D01*
X20151845Y-12790863D01*
X20151131Y-12793717D01*
X20150415Y-12796568D01*
X20149698Y-12799417D01*
X20148980Y-12802263D01*
X20148259Y-12805108D01*
X20147538Y-12807949D01*
X20146815Y-12810789D01*
X20146091Y-12813626D01*
X20145365Y-12816462D01*
X20144637Y-12819294D01*
X20143908Y-12822125D01*
X20143178Y-12824953D01*
X20142446Y-12827779D01*
X20141713Y-12830602D01*
X20140978Y-12833424D01*
X20140242Y-12836243D01*
X20139504Y-12839059D01*
X20138765Y-12841874D01*
X20138024Y-12844686D01*
X20137282Y-12847496D01*
X20136539Y-12850303D01*
X20135794Y-12853108D01*
X20135047Y-12855912D01*
X20134299Y-12858712D01*
X20133550Y-12861511D01*
X20132799Y-12864307D01*
X20132047Y-12867101D01*
X20131293Y-12869892D01*
X20130538Y-12872682D01*
X20129781Y-12875469D01*
X20129023Y-12878254D01*
X20128263Y-12881036D01*
X20127502Y-12883817D01*
X20126739Y-12886595D01*
X20125975Y-12889370D01*
X20125210Y-12892144D01*
X20124443Y-12894915D01*
X20123675Y-12897684D01*
X20122905Y-12900451D01*
X20122134Y-12903215D01*
X20121361Y-12905978D01*
X20120587Y-12908738D01*
X20119811Y-12911495D01*
X20119034Y-12914251D01*
X20118256Y-12917004D01*
X20117476Y-12919755D01*
X20116695Y-12922504D01*
X20115912Y-12925250D01*
X20115128Y-12927995D01*
X20114342Y-12930736D01*
X20113555Y-12933476D01*
X20112766Y-12936214D01*
X20111976Y-12938949D01*
X20111185Y-12941682D01*
X20110392Y-12944413D01*
X20109598Y-12947142D01*
X20108802Y-12949868D01*
X20108005Y-12952592D01*
X20107207Y-12955314D01*
X20106407Y-12958034D01*
X20105605Y-12960751D01*
X20104802Y-12963466D01*
X20103998Y-12966179D01*
X20103192Y-12968890D01*
X20102385Y-12971599D01*
X20101577Y-12974305D01*
X20100767Y-12977009D01*
X20099955Y-12979711D01*
X20099142Y-12982411D01*
X20098328Y-12985108D01*
X20097512Y-12987804D01*
X20096695Y-12990497D01*
X20095877Y-12993188D01*
X20095057Y-12995876D01*
X20094236Y-12998563D01*
X20093413Y-13001247D01*
X20092589Y-13003929D01*
X20091763Y-13006609D01*
X20090936Y-13009287D01*
X20090108Y-13011962D01*
X20089278Y-13014635D01*
X20088447Y-13017306D01*
X20087614Y-13019975D01*
X20086780Y-13022642D01*
X20085944Y-13025306D01*
X20085107Y-13027968D01*
X20084269Y-13030629D01*
X20083430Y-13033286D01*
X20082588Y-13035942D01*
X20081746Y-13038596D01*
X20080902Y-13041247D01*
X20080057Y-13043896D01*
X20079210Y-13046543D01*
X20078362Y-13049188D01*
X20077512Y-13051831D01*
X20076661Y-13054471D01*
X20075809Y-13057109D01*
X20074955Y-13059745D01*
X20074100Y-13062380D01*
X20073244Y-13065011D01*
X20072386Y-13067641D01*
X20071527Y-13070268D01*
X20070666Y-13072894D01*
X20069804Y-13075516D01*
X20068940Y-13078138D01*
X20068075Y-13080756D01*
X20067209Y-13083373D01*
X20066341Y-13085987D01*
X20065472Y-13088600D01*
X20064602Y-13091210D01*
X20063730Y-13093818D01*
X20062857Y-13096423D01*
X20061982Y-13099027D01*
X20061106Y-13101628D01*
X20060229Y-13104228D01*
X20059350Y-13106825D01*
X20058470Y-13109420D01*
X20057589Y-13112013D01*
X20056706Y-13114604D01*
X20055821Y-13117192D01*
X20054936Y-13119779D01*
X20054049Y-13122363D01*
X20053160Y-13124945D01*
X20052271Y-13127525D01*
X20051379Y-13130103D01*
X20050487Y-13132679D01*
X20049593Y-13135253D01*
X20048698Y-13137824D01*
X20047801Y-13140394D01*
X20046903Y-13142961D01*
X20046003Y-13145526D01*
X20045103Y-13148089D01*
X20044200Y-13150650D01*
X20043297Y-13153208D01*
X20042392Y-13155765D01*
X20041486Y-13158320D01*
X20040578Y-13160872D01*
X20039669Y-13163422D01*
X20038759Y-13165970D01*
X20037847Y-13168516D01*
X20036934Y-13171060D01*
X20036019Y-13173602D01*
X20035103Y-13176142D01*
X20034186Y-13178679D01*
X20033268Y-13181215D01*
X20032348Y-13183748D01*
X20031426Y-13186279D01*
X20030504Y-13188808D01*
X20029580Y-13191335D01*
X20028654Y-13193860D01*
X20027728Y-13196383D01*
X20026800Y-13198904D01*
X20025870Y-13201422D01*
X20024939Y-13203939D01*
X20024007Y-13206453D01*
X20023074Y-13208965D01*
X20022139Y-13211476D01*
X20021203Y-13213984D01*
X20020265Y-13216490D01*
X20019326Y-13218994D01*
X20018386Y-13221496D01*
X20017444Y-13223995D01*
X20016501Y-13226493D01*
X20015557Y-13228988D01*
X20014611Y-13231482D01*
X20013664Y-13233973D01*
X20012716Y-13236463D01*
X20011766Y-13238950D01*
X20010815Y-13241435D01*
X20009863Y-13243918D01*
X20008909Y-13246399D01*
X20007954Y-13248878D01*
X20006998Y-13251355D01*
X20006040Y-13253830D01*
X20005081Y-13256303D01*
X20004120Y-13258773D01*
X20003158Y-13261242D01*
X20002195Y-13263708D01*
X20001231Y-13266173D01*
X20000265Y-13268635D01*
X19999298Y-13271095D01*
X19998329Y-13273553D01*
X19997360Y-13276010D01*
X19996388Y-13278464D01*
X19995416Y-13280916D01*
X19994442Y-13283366D01*
X19993467Y-13285814D01*
X19992491Y-13288260D01*
X19991513Y-13290703D01*
X19990534Y-13293145D01*
X19989553Y-13295585D01*
X19988571Y-13298023D01*
X19987588Y-13300458D01*
X19986604Y-13302892D01*
X19985618Y-13305323D01*
X19984631Y-13307753D01*
X19983642Y-13310180D01*
X19982652Y-13312606D01*
X19981661Y-13315029D01*
X19980669Y-13317450D01*
X19979675Y-13319870D01*
X19978680Y-13322287D01*
X19977684Y-13324702D01*
X19976686Y-13327115D01*
X19975687Y-13329526D01*
X19974686Y-13331935D01*
X19973685Y-13334342D01*
X19972682Y-13336747D01*
X19971677Y-13339151D01*
X19970672Y-13341551D01*
X19969665Y-13343950D01*
X19968657Y-13346347D01*
X19967647Y-13348742D01*
X19966636Y-13351135D01*
X19965624Y-13353526D01*
X19964610Y-13355915D01*
X19963595Y-13358302D01*
X19962579Y-13360686D01*
X19961562Y-13363069D01*
X19960543Y-13365450D01*
X19959523Y-13367829D01*
X19958501Y-13370205D01*
X19957479Y-13372580D01*
X19956455Y-13374953D01*
X19955429Y-13377324D01*
X19954403Y-13379692D01*
X19953374Y-13382059D01*
X19952345Y-13384423D01*
X19951315Y-13386786D01*
X19950283Y-13389147D01*
X19949249Y-13391506D01*
X19948215Y-13393862D01*
X19947179Y-13396217D01*
X19946142Y-13398569D01*
X19945104Y-13400920D01*
X19944064Y-13403269D01*
X19943023Y-13405616D01*
X19941981Y-13407960D01*
X19940937Y-13410303D01*
X19939892Y-13412644D01*
X19938846Y-13414982D01*
X19937798Y-13417319D01*
X19936749Y-13419654D01*
X19935699Y-13421987D01*
X19934648Y-13424317D01*
X19933595Y-13426646D01*
X19932541Y-13428973D01*
X19931486Y-13431298D01*
X19930429Y-13433621D01*
X19929371Y-13435941D01*
X19928312Y-13438260D01*
X19927251Y-13440577D01*
X19926189Y-13442892D01*
X19925126Y-13445205D01*
X19924062Y-13447516D01*
X19922996Y-13449825D01*
X19921929Y-13452132D01*
X19920861Y-13454437D01*
X19919792Y-13456740D01*
X19918721Y-13459041D01*
X19917649Y-13461341D01*
X19916575Y-13463638D01*
X19915500Y-13465933D01*
X19914424Y-13468226D01*
X19913347Y-13470518D01*
X19912269Y-13472807D01*
X19911189Y-13475094D01*
X19910108Y-13477380D01*
X19909025Y-13479663D01*
X19907941Y-13481945D01*
X19906856Y-13484224D01*
X19905770Y-13486502D01*
X19904682Y-13488778D01*
X19903594Y-13491051D01*
X19902503Y-13493323D01*
X19901412Y-13495593D01*
X19900319Y-13497861D01*
X19899225Y-13500126D01*
X19898130Y-13502391D01*
X19897034Y-13504652D01*
X19895936Y-13506913D01*
X19894837Y-13509171D01*
X19893736Y-13511427D01*
X19892635Y-13513681D01*
X19891532Y-13515934D01*
X19890428Y-13518184D01*
X19888215Y-13522679D01*
X19885998Y-13527166D01*
X19883775Y-13531645D01*
X19881548Y-13536117D01*
X19879315Y-13540581D01*
X19877078Y-13545038D01*
X19874835Y-13549486D01*
X19872587Y-13553927D01*
X19870334Y-13558361D01*
X19868076Y-13562786D01*
X19865813Y-13567204D01*
X19863545Y-13571615D01*
X19861271Y-13576017D01*
X19858993Y-13580412D01*
X19856710Y-13584800D01*
X19854421Y-13589180D01*
X19852128Y-13593552D01*
X19849829Y-13597917D01*
X19847526Y-13602274D01*
X19845217Y-13606623D01*
X19842904Y-13610965D01*
X19840585Y-13615300D01*
X19838261Y-13619627D01*
X19835933Y-13623946D01*
X19833599Y-13628258D01*
X19831260Y-13632562D01*
X19828916Y-13636859D01*
X19826568Y-13641148D01*
X19824214Y-13645429D01*
X19821855Y-13649704D01*
X19819491Y-13653970D01*
X19817123Y-13658230D01*
X19814749Y-13662482D01*
X19812370Y-13666726D01*
X19809986Y-13670963D01*
X19807598Y-13675192D01*
X19805204Y-13679414D01*
X19802805Y-13683629D01*
X19800402Y-13687836D01*
X19797993Y-13692036D01*
X19795579Y-13696228D01*
X19793161Y-13700413D01*
X19790737Y-13704591D01*
X19788309Y-13708761D01*
X19785875Y-13712924D01*
X19783437Y-13717080D01*
X19780993Y-13721228D01*
X19778545Y-13725369D01*
X19776092Y-13729502D01*
X19773633Y-13733629D01*
X19771170Y-13737747D01*
X19768702Y-13741859D01*
X19766229Y-13745963D01*
X19763751Y-13750060D01*
X19761268Y-13754150D01*
X19758780Y-13758232D01*
X19756287Y-13762308D01*
X19753790Y-13766375D01*
X19751287Y-13770436D01*
X19748779Y-13774490D01*
X19746267Y-13778536D01*
X19743749Y-13782575D01*
X19741227Y-13786606D01*
X19738700Y-13790631D01*
X19736168Y-13794648D01*
X19733631Y-13798658D01*
X19731089Y-13802661D01*
X19728542Y-13806657D01*
X19725990Y-13810645D01*
X19723433Y-13814627D01*
X19720871Y-13818601D01*
X19718305Y-13822568D01*
X19715734Y-13826528D01*
X19713157Y-13830480D01*
X19710576Y-13834426D01*
X19707990Y-13838365D01*
X19705399Y-13842296D01*
X19702803Y-13846220D01*
X19700202Y-13850137D01*
X19697597Y-13854047D01*
X19694986Y-13857950D01*
X19692371Y-13861846D01*
X19689751Y-13865735D01*
X19687125Y-13869617D01*
X19684495Y-13873491D01*
X19681860Y-13877359D01*
X19679221Y-13881220D01*
X19676576Y-13885073D01*
X19673927Y-13888920D01*
X19671272Y-13892759D01*
X19668613Y-13896592D01*
X19665949Y-13900417D01*
X19663280Y-13904236D01*
X19660606Y-13908047D01*
X19657927Y-13911851D01*
X19655244Y-13915649D01*
X19652555Y-13919439D01*
X19649862Y-13923223D01*
X19647164Y-13927000D01*
X19644461Y-13930769D01*
X19641753Y-13934532D01*
X19639041Y-13938287D01*
X19636323Y-13942036D01*
X19633601Y-13945778D01*
X19630874Y-13949513D01*
X19628142Y-13953241D01*
X19625405Y-13956962D01*
X19622663Y-13960676D01*
X19619916Y-13964383D01*
X19617165Y-13968084D01*
X19614409Y-13971777D01*
X19611648Y-13975464D01*
X19608882Y-13979144D01*
X19606111Y-13982816D01*
X19603335Y-13986482D01*
X19600555Y-13990142D01*
X19597770Y-13993794D01*
X19594980Y-13997439D01*
X19592185Y-14001078D01*
X19589385Y-14004710D01*
X19586580Y-14008335D01*
X19583771Y-14011953D01*
X19580957Y-14015564D01*
X19578138Y-14019168D01*
X19575314Y-14022766D01*
X19572485Y-14026357D01*
X19569651Y-14029941D01*
X19566813Y-14033518D01*
X19563970Y-14037089D01*
X19561122Y-14040653D01*
X19558269Y-14044210D01*
X19555411Y-14047760D01*
X19552549Y-14051303D01*
X19549681Y-14054840D01*
X19546809Y-14058370D01*
X19543932Y-14061893D01*
X19541050Y-14065410D01*
X19538164Y-14068920D01*
X19535272Y-14072423D01*
X19532376Y-14075919D01*
X19529475Y-14079409D01*
X19526569Y-14082892D01*
X19523659Y-14086368D01*
X19520743Y-14089837D01*
X19517823Y-14093300D01*
X19514898Y-14096756D01*
X19511968Y-14100206D01*
X19509033Y-14103648D01*
X19506093Y-14107084D01*
X19503149Y-14110514D01*
X19500200Y-14113937D01*
X19497246Y-14117353D01*
X19494287Y-14120762D01*
X19491323Y-14124165D01*
X19488355Y-14127561D01*
X19485381Y-14130951D01*
X19482403Y-14134334D01*
X19479420Y-14137710D01*
X19476433Y-14141080D01*
X19473440Y-14144443D01*
X19470443Y-14147799D01*
X19467440Y-14151149D01*
X19464434Y-14154492D01*
X19461422Y-14157829D01*
X19458405Y-14161159D01*
X19455384Y-14164482D01*
X19452357Y-14167799D01*
X19449326Y-14171109D01*
X19446290Y-14174413D01*
X19443250Y-14177710D01*
X19440204Y-14181000D01*
X19437154Y-14184284D01*
X19434099Y-14187562D01*
X19431039Y-14190833D01*
X19427974Y-14194097D01*
X19424904Y-14197355D01*
X19421830Y-14200606D01*
X19418751Y-14203850D01*
X19415667Y-14207089D01*
X19412578Y-14210320D01*
X19409484Y-14213545D01*
X19406386Y-14216764D01*
X19403282Y-14219976D01*
X19400174Y-14223181D01*
X19397061Y-14226380D01*
X19393944Y-14229573D01*
X19390821Y-14232759D01*
X19387694Y-14235938D01*
X19384561Y-14239111D01*
X19381424Y-14242278D01*
X19378283Y-14245438D01*
X19375136Y-14248591D01*
X19371984Y-14251738D01*
X19368828Y-14254879D01*
X19365667Y-14258013D01*
X19362501Y-14261140D01*
X19359330Y-14264261D01*
X19356154Y-14267376D01*
X19352974Y-14270484D01*
X19349789Y-14273586D01*
X19346599Y-14276681D01*
X19343404Y-14279770D01*
X19340204Y-14282853D01*
X19336999Y-14285928D01*
X19333790Y-14288998D01*
X19330576Y-14292061D01*
X19327357Y-14295118D01*
X19324133Y-14298168D01*
X19320904Y-14301212D01*
X19317670Y-14304249D01*
X19314432Y-14307280D01*
X19311189Y-14310304D01*
X19307941Y-14313322D01*
X19304688Y-14316334D01*
X19301430Y-14319339D01*
X19298167Y-14322338D01*
X19294900Y-14325330D01*
X19291628Y-14328316D01*
X19288351Y-14331296D01*
X19285069Y-14334269D01*
X19281782Y-14337236D01*
X19278490Y-14340196D01*
X19275194Y-14343150D01*
X19271893Y-14346098D01*
X19268586Y-14349039D01*
X19265275Y-14351974D01*
X19261960Y-14354902D01*
X19258639Y-14357824D01*
X19255313Y-14360740D01*
X19251983Y-14363649D01*
X19248648Y-14366552D01*
X19245308Y-14369449D01*
X19241963Y-14372339D01*
X19238613Y-14375223D01*
X19235258Y-14378100D01*
X19231899Y-14380971D01*
X19228535Y-14383836D01*
X19225165Y-14386694D01*
X19221791Y-14389546D01*
X19218412Y-14392392D01*
X19215029Y-14395231D01*
X19211640Y-14398064D01*
X19208247Y-14400890D01*
X19204848Y-14403710D01*
X19201445Y-14406524D01*
X19198037Y-14409332D01*
X19194624Y-14412133D01*
X19191206Y-14414928D01*
X19187784Y-14417716D01*
X19184356Y-14420498D01*
X19180924Y-14423274D01*
X19177487Y-14426043D01*
X19174045Y-14428806D01*
X19170598Y-14431563D01*
X19167146Y-14434313D01*
X19163689Y-14437057D01*
X19160228Y-14439795D01*
X19156761Y-14442526D01*
X19153290Y-14445251D01*
X19149814Y-14447970D01*
X19146333Y-14450682D01*
X19142847Y-14453388D01*
X19139356Y-14456088D01*
X19135860Y-14458781D01*
X19132360Y-14461468D01*
X19128854Y-14464149D01*
X19125344Y-14466823D01*
X19121829Y-14469491D01*
X19118308Y-14472153D01*
X19114784Y-14474809D01*
X19111254Y-14477458D01*
X19107719Y-14480100D01*
X19104179Y-14482737D01*
X19100635Y-14485367D01*
X19097085Y-14487990D01*
X19093531Y-14490608D01*
X19089972Y-14493219D01*
X19086408Y-14495824D01*
X19082839Y-14498422D01*
X19079265Y-14501014D01*
X19075686Y-14503600D01*
X19072103Y-14506179D01*
X19068514Y-14508753D01*
X19064921Y-14511319D01*
X19061323Y-14513880D01*
X19057720Y-14516434D01*
X19054112Y-14518982D01*
X19050499Y-14521523D01*
X19046881Y-14524058D01*
X19043258Y-14526587D01*
X19039630Y-14529110D01*
X19035998Y-14531626D01*
X19032360Y-14534136D01*
X19028718Y-14536639D01*
X19025071Y-14539136D01*
X19021419Y-14541627D01*
X19017762Y-14544112D01*
X19014100Y-14546590D01*
X19010433Y-14549062D01*
X19006761Y-14551527D01*
X19003085Y-14553987D01*
X18999403Y-14556439D01*
X18995717Y-14558886D01*
X18992025Y-14561326D01*
X18988329Y-14563760D01*
X18984628Y-14566188D01*
X18980922Y-14568609D01*
X18977211Y-14571023D01*
X18973495Y-14573432D01*
X18969774Y-14575834D01*
X18966049Y-14578230D01*
X18962318Y-14580619D01*
X18958583Y-14583002D01*
X18954842Y-14585379D01*
X18951097Y-14587749D01*
X18947347Y-14590113D01*
X18943592Y-14592471D01*
X18939832Y-14594822D01*
X18936067Y-14597167D01*
X18932297Y-14599506D01*
X18928522Y-14601838D01*
X18924743Y-14604164D01*
X18920958Y-14606484D01*
X18917169Y-14608797D01*
X18913375Y-14611104D01*
X18909575Y-14613404D01*
X18905771Y-14615698D01*
X18901962Y-14617986D01*
X18898148Y-14620267D01*
X18894330Y-14622542D01*
X18890506Y-14624810D01*
X18886677Y-14627072D01*
X18882844Y-14629328D01*
X18879005Y-14631578D01*
X18875162Y-14633820D01*
X18871314Y-14636057D01*
X18867461Y-14638287D01*
X18863603Y-14640511D01*
X18859740Y-14642728D01*
X18855872Y-14644939D01*
X18852000Y-14647144D01*
X18848122Y-14649342D01*
X18844239Y-14651534D01*
X18840352Y-14653719D01*
X18836460Y-14655898D01*
X18832563Y-14658070D01*
X18828661Y-14660237D01*
X18824754Y-14662396D01*
X18820842Y-14664549D01*
X18816925Y-14666696D01*
X18813004Y-14668837D01*
X18809077Y-14670970D01*
X18805146Y-14673098D01*
X18801210Y-14675219D01*
X18797269Y-14677334D01*
X18793323Y-14679442D01*
X18789372Y-14681543D01*
X18785416Y-14683638D01*
X18781456Y-14685727D01*
X18777490Y-14687810D01*
X18773520Y-14689885D01*
X18769545Y-14691955D01*
X18765565Y-14694018D01*
X18761580Y-14696074D01*
X18757590Y-14698124D01*
X18753596Y-14700167D01*
X18749596Y-14702204D01*
X18745592Y-14704235D01*
X18741583Y-14706258D01*
X18737569Y-14708276D01*
X18733550Y-14710287D01*
X18729526Y-14712291D01*
X18725498Y-14714289D01*
X18721464Y-14716281D01*
X18717426Y-14718265D01*
X18713383Y-14720244D01*
X18709335Y-14722215D01*
X18705282Y-14724181D01*
X18701225Y-14726139D01*
X18697163Y-14728092D01*
X18693095Y-14730037D01*
X18689024Y-14731976D01*
X18684947Y-14733909D01*
X18680865Y-14735835D01*
X18676779Y-14737754D01*
X18672688Y-14739667D01*
X18668592Y-14741573D01*
X18664491Y-14743473D01*
X18660385Y-14745366D01*
X18656275Y-14747252D01*
X18652160Y-14749132D01*
X18648040Y-14751005D01*
X18643916Y-14752872D01*
X18639786Y-14754732D01*
X18635652Y-14756585D01*
X18631513Y-14758432D01*
X18627369Y-14760272D01*
X18623221Y-14762106D01*
X18619068Y-14763933D01*
X18614910Y-14765753D01*
X18610747Y-14767567D01*
X18606580Y-14769374D01*
X18602408Y-14771174D01*
X18598231Y-14772968D01*
X18594050Y-14774755D01*
X18589864Y-14776535D01*
X18585673Y-14778308D01*
X18581477Y-14780075D01*
X18577277Y-14781836D01*
X18573072Y-14783589D01*
X18568862Y-14785336D01*
X18564648Y-14787076D01*
X18560429Y-14788809D01*
X18556205Y-14790536D01*
X18551977Y-14792256D01*
X18547744Y-14793969D01*
X18543507Y-14795676D01*
X18539265Y-14797375D01*
X18535018Y-14799068D01*
X18530767Y-14800754D01*
X18526511Y-14802434D01*
X18522250Y-14804107D01*
X18517985Y-14805772D01*
X18513715Y-14807432D01*
X18509441Y-14809084D01*
X18505162Y-14810729D01*
X18500879Y-14812368D01*
X18496591Y-14814000D01*
X18492298Y-14815625D01*
X18488001Y-14817243D01*
X18483700Y-14818855D01*
X18479394Y-14820459D01*
X18475083Y-14822057D01*
X18470768Y-14823648D01*
X18466448Y-14825232D01*
X18462124Y-14826809D01*
X18457796Y-14828379D01*
X18453463Y-14829942D01*
X18449126Y-14831499D01*
X18444784Y-14833049D01*
X18440438Y-14834591D01*
X18436087Y-14836127D01*
X18431732Y-14837656D01*
X18427373Y-14839178D01*
X18423009Y-14840693D01*
X18418641Y-14842201D01*
X18414268Y-14843702D01*
X18409892Y-14845196D01*
X18405510Y-14846683D01*
X18401125Y-14848164D01*
X18396735Y-14849637D01*
X18392341Y-14851103D01*
X18387943Y-14852563D01*
X18383540Y-14854015D01*
X18379133Y-14855460D01*
X18374722Y-14856898D01*
X18370307Y-14858330D01*
X18365888Y-14859754D01*
X18361464Y-14861171D01*
X18357036Y-14862581D01*
X18352604Y-14863984D01*
X18348168Y-14865380D01*
X18343728Y-14866769D01*
X18339284Y-14868151D01*
X18334835Y-14869526D01*
X18330383Y-14870894D01*
X18325926Y-14872254D01*
X18321465Y-14873608D01*
X18317001Y-14874954D01*
X18312532Y-14876293D01*
X18308059Y-14877625D01*
X18303583Y-14878950D01*
X18299102Y-14880268D01*
X18294618Y-14881579D01*
X18290129Y-14882882D01*
X18285637Y-14884178D01*
X18281141Y-14885467D01*
X18276640Y-14886749D01*
X18272137Y-14888024D01*
X18267629Y-14889291D01*
X18263117Y-14890552D01*
X18258602Y-14891805D01*
X18254083Y-14893050D01*
X18249560Y-14894289D01*
X18245034Y-14895520D01*
X18240503Y-14896744D01*
X18235969Y-14897961D01*
X18231432Y-14899170D01*
X18226891Y-14900372D01*
X18222346Y-14901567D01*
X18217798Y-14902754D01*
X18213246Y-14903935D01*
X18208691Y-14905108D01*
X18204132Y-14906273D01*
X18199569Y-14907431D01*
X18195004Y-14908582D01*
X18190435Y-14909725D01*
X18185862Y-14910861D01*
X18181286Y-14911990D01*
X18176707Y-14913111D01*
X18172124Y-14914225D01*
X18167538Y-14915332D01*
X18162949Y-14916431D01*
X18158357Y-14917522D01*
X18153762Y-14918606D01*
X18149163Y-14919683D01*
X18144561Y-14920752D01*
X18139957Y-14921814D01*
X18135349Y-14922868D01*
X18130738Y-14923915D01*
X18126124Y-14924954D01*
X18121507Y-14925986D01*
X18116887Y-14927010D01*
X18112265Y-14928027D01*
X18107639Y-14929036D01*
X18103011Y-14930037D01*
X18098380Y-14931032D01*
X18093746Y-14932018D01*
X18089110Y-14932997D01*
X18084471Y-14933968D01*
X18079829Y-14934932D01*
X18075184Y-14935888D01*
X18070538Y-14936836D01*
X18065888Y-14937777D01*
X18061236Y-14938710D01*
X18056582Y-14939636D01*
X18051925Y-14940554D01*
X18047266Y-14941464D01*
X18042605Y-14942367D01*
X18037942Y-14943261D01*
X18033276Y-14944148D01*
X18028608Y-14945028D01*
X18023938Y-14945900D01*
X18019266Y-14946764D01*
X18014592Y-14947620D01*
X18009917Y-14948468D01*
X18005239Y-14949309D01*
X18000559Y-14950142D01*
X17995878Y-14950967D01*
X17991195Y-14951785D01*
X17986510Y-14952594D01*
X17981823Y-14953396D01*
X17977135Y-14954190D01*
X17972446Y-14954976D01*
X17967755Y-14955754D01*
X17963062Y-14956525D01*
X17958369Y-14957287D01*
X17953674Y-14958042D01*
X17948977Y-14958789D01*
X17944280Y-14959528D01*
X17939581Y-14960259D01*
X17934882Y-14960982D01*
X17930182Y-14961698D01*
X17925480Y-14962405D01*
X17920778Y-14963104D01*
X17916075Y-14963796D01*
X17911371Y-14964479D01*
X17906667Y-14965155D01*
X17901963Y-14965822D01*
X17897257Y-14966482D01*
X17892552Y-14967134D01*
X17887846Y-14967777D01*
X17883140Y-14968413D01*
X17878433Y-14969040D01*
X17873727Y-14969660D01*
X17869021Y-14970271D01*
X17864314Y-14970875D01*
X17859608Y-14971470D01*
X17854903Y-14972058D01*
X17850197Y-14972637D01*
X17845492Y-14973208D01*
X17840788Y-14973771D01*
X17836084Y-14974326D01*
X17831381Y-14974873D01*
X17826678Y-14975412D01*
X17821977Y-14975943D01*
X17817276Y-14976466D01*
X17812577Y-14976980D01*
X17807879Y-14977487D01*
X17803182Y-14977985D01*
X17798486Y-14978475D01*
X17793792Y-14978957D01*
X17789100Y-14979431D01*
X17784409Y-14979896D01*
X17779721Y-14980354D01*
X17775034Y-14980803D01*
X17770349Y-14981244D01*
X17765666Y-14981677D01*
X17760986Y-14982102D01*
X17756308Y-14982518D01*
X17751632Y-14982926D01*
X17746959Y-14983326D01*
X17742289Y-14983718D01*
X17737622Y-14984102D01*
X17732957Y-14984477D01*
X17728296Y-14984845D01*
X17723638Y-14985204D01*
X17718983Y-14985554D01*
X17714332Y-14985897D01*
X17709684Y-14986231D01*
X17705040Y-14986558D01*
X17700400Y-14986875D01*
X17695764Y-14987185D01*
X17691131Y-14987487D01*
X17686503Y-14987780D01*
X17681879Y-14988065D01*
X17677259Y-14988342D01*
X17672644Y-14988611D01*
X17668033Y-14988871D01*
X17663427Y-14989123D01*
X17658825Y-14989367D01*
X17654228Y-14989603D01*
X17649636Y-14989831D01*
X17645049Y-14990051D01*
X17640466Y-14990262D01*
X17635888Y-14990465D01*
X17631314Y-14990661D01*
X17626746Y-14990848D01*
X17622181Y-14991027D01*
X17617621Y-14991198D01*
X17613065Y-14991361D01*
X17608512Y-14991516D01*
X17603963Y-14991662D01*
X17599417Y-14991801D01*
X17594873Y-14991932D01*
X17590330Y-14992055D01*
X17585787Y-14992171D01*
X17581244Y-14992278D01*
X17576698Y-14992378D01*
X17572148Y-14992470D01*
X17567591Y-14992554D01*
X17563024Y-14992630D01*
X17558442Y-14992700D01*
X17553842Y-14992761D01*
X17549215Y-14992815D01*
X17544551Y-14992862D01*
X17539838Y-14992902D01*
X17535055Y-14992934D01*
X17530171Y-14992960D01*
X17525136Y-14992979D01*
X17519857Y-14992992D01*
X17514131Y-14992998D01*
X17506900Y-14993000D01*
X20306900Y-11393000D02*
X20306890Y-11386990D01*
X20306877Y-11380984D01*
X20306863Y-11374982D01*
X20306847Y-11368983D01*
X20306828Y-11362988D01*
X20306808Y-11356997D01*
X20306786Y-11351010D01*
X20306761Y-11345026D01*
X20306735Y-11339046D01*
X20306707Y-11333070D01*
X20306676Y-11327098D01*
X20306644Y-11321129D01*
X20306610Y-11315165D01*
X20306574Y-11309204D01*
X20306536Y-11303246D01*
X20306495Y-11297293D01*
X20306453Y-11291343D01*
X20306409Y-11285397D01*
X20306363Y-11279454D01*
X20306315Y-11273516D01*
X20306265Y-11267581D01*
X20306213Y-11261649D01*
X20306159Y-11255722D01*
X20306103Y-11249798D01*
X20306045Y-11243878D01*
X20305985Y-11237962D01*
X20305924Y-11232049D01*
X20305860Y-11226141D01*
X20305794Y-11220235D01*
X20305726Y-11214334D01*
X20305657Y-11208436D01*
X20305585Y-11202542D01*
X20305512Y-11196652D01*
X20305436Y-11190766D01*
X20305359Y-11184883D01*
X20305279Y-11179004D01*
X20305198Y-11173128D01*
X20305115Y-11167257D01*
X20305029Y-11161389D01*
X20304942Y-11155525D01*
X20304853Y-11149664D01*
X20304762Y-11143807D01*
X20304669Y-11137954D01*
X20304574Y-11132104D01*
X20304477Y-11126259D01*
X20304378Y-11120417D01*
X20304278Y-11114578D01*
X20304175Y-11108744D01*
X20304070Y-11102913D01*
X20303964Y-11097085D01*
X20303855Y-11091262D01*
X20303745Y-11085442D01*
X20303632Y-11079625D01*
X20303518Y-11073813D01*
X20303402Y-11068004D01*
X20303284Y-11062199D01*
X20303164Y-11056397D01*
X20303042Y-11050599D01*
X20302918Y-11044805D01*
X20302792Y-11039015D01*
X20302664Y-11033228D01*
X20302534Y-11027445D01*
X20302403Y-11021665D01*
X20302269Y-11015890D01*
X20302134Y-11010117D01*
X20301996Y-11004349D01*
X20301857Y-10998584D01*
X20301716Y-10992823D01*
X20301573Y-10987065D01*
X20301428Y-10981312D01*
X20301281Y-10975561D01*
X20301132Y-10969815D01*
X20300981Y-10964072D01*
X20300829Y-10958333D01*
X20300674Y-10952597D01*
X20300518Y-10946865D01*
X20300360Y-10941137D01*
X20300199Y-10935413D01*
X20300037Y-10929692D01*
X20299873Y-10923974D01*
X20299707Y-10918261D01*
X20299539Y-10912551D01*
X20299370Y-10906844D01*
X20299198Y-10901141D01*
X20299025Y-10895442D01*
X20298849Y-10889747D01*
X20298672Y-10884055D01*
X20298493Y-10878367D01*
X20298312Y-10872682D01*
X20298129Y-10867001D01*
X20297944Y-10861324D01*
X20297757Y-10855650D01*
X20297569Y-10849980D01*
X20297378Y-10844314D01*
X20297186Y-10838651D01*
X20296992Y-10832992D01*
X20296796Y-10827336D01*
X20296598Y-10821684D01*
X20296398Y-10816036D01*
X20296196Y-10810391D01*
X20295993Y-10804750D01*
X20295787Y-10799113D01*
X20295580Y-10793479D01*
X20295371Y-10787848D01*
X20295160Y-10782222D01*
X20294947Y-10776599D01*
X20294732Y-10770979D01*
X20294516Y-10765363D01*
X20294297Y-10759751D01*
X20294077Y-10754142D01*
X20293854Y-10748537D01*
X20293630Y-10742936D01*
X20293404Y-10737338D01*
X20293177Y-10731744D01*
X20292947Y-10726153D01*
X20292715Y-10720566D01*
X20292482Y-10714983D01*
X20292247Y-10709403D01*
X20292010Y-10703826D01*
X20291771Y-10698254D01*
X20291530Y-10692684D01*
X20291288Y-10687119D01*
X20291043Y-10681557D01*
X20290797Y-10675998D01*
X20290549Y-10670444D01*
X20290299Y-10664892D01*
X20290047Y-10659345D01*
X20289793Y-10653801D01*
X20289538Y-10648260D01*
X20289281Y-10642723D01*
X20289021Y-10637190D01*
X20288760Y-10631660D01*
X20288498Y-10626134D01*
X20288233Y-10620611D01*
X20287966Y-10615092D01*
X20287698Y-10609576D01*
X20287428Y-10604064D01*
X20287156Y-10598556D01*
X20286882Y-10593051D01*
X20286607Y-10587549D01*
X20286329Y-10582052D01*
X20286050Y-10576557D01*
X20285769Y-10571067D01*
X20285486Y-10565580D01*
X20285201Y-10560096D01*
X20284915Y-10554616D01*
X20284626Y-10549140D01*
X20284336Y-10543667D01*
X20284044Y-10538197D01*
X20283750Y-10532731D01*
X20283455Y-10527269D01*
X20283157Y-10521810D01*
X20282858Y-10516355D01*
X20282557Y-10510903D01*
X20282254Y-10505455D01*
X20281949Y-10500010D01*
X20281643Y-10494569D01*
X20281335Y-10489132D01*
X20281024Y-10483698D01*
X20280713Y-10478267D01*
X20280399Y-10472840D01*
X20280083Y-10467417D01*
X20279766Y-10461997D01*
X20279447Y-10456580D01*
X20279126Y-10451167D01*
X20278804Y-10445758D01*
X20278479Y-10440352D01*
X20278153Y-10434950D01*
X20277825Y-10429551D01*
X20277495Y-10424155D01*
X20277163Y-10418764D01*
X20276830Y-10413375D01*
X20276495Y-10407990D01*
X20276158Y-10402609D01*
X20275819Y-10397231D01*
X20275478Y-10391857D01*
X20275136Y-10386486D01*
X20274792Y-10381119D01*
X20274446Y-10375755D01*
X20274099Y-10370395D01*
X20273749Y-10365038D01*
X20273398Y-10359685D01*
X20273045Y-10354335D01*
X20272690Y-10348988D01*
X20272334Y-10343645D01*
X20271975Y-10338306D01*
X20271615Y-10332970D01*
X20271253Y-10327638D01*
X20270890Y-10322309D01*
X20270524Y-10316984D01*
X20270157Y-10311662D01*
X20269788Y-10306343D01*
X20269418Y-10301028D01*
X20269045Y-10295717D01*
X20268671Y-10290409D01*
X20268295Y-10285104D01*
X20267917Y-10279803D01*
X20267538Y-10274505D01*
X20267157Y-10269211D01*
X20266774Y-10263920D01*
X20266389Y-10258633D01*
X20266003Y-10253349D01*
X20265614Y-10248069D01*
X20265224Y-10242792D01*
X20264833Y-10237519D01*
X20264439Y-10232249D01*
X20264044Y-10226983D01*
X20263647Y-10221720D01*
X20263248Y-10216460D01*
X20262848Y-10211204D01*
X20262446Y-10205951D01*
X20262042Y-10200702D01*
X20261636Y-10195456D01*
X20261228Y-10190214D01*
X20260819Y-10184975D01*
X20260408Y-10179740D01*
X20259996Y-10174508D01*
X20259581Y-10169279D01*
X20259165Y-10164054D01*
X20258748Y-10158833D01*
X20258328Y-10153614D01*
X20257907Y-10148400D01*
X20257484Y-10143188D01*
X20257059Y-10137980D01*
X20256632Y-10132776D01*
X20256204Y-10127575D01*
X20255774Y-10122377D01*
X20255343Y-10117183D01*
X20254909Y-10111992D01*
X20254474Y-10106805D01*
X20254037Y-10101621D01*
X20253599Y-10096440D01*
X20253159Y-10091263D01*
X20252717Y-10086090D01*
X20252273Y-10080919D01*
X20251828Y-10075753D01*
X20251381Y-10070589D01*
X20250932Y-10065429D01*
X20250481Y-10060273D01*
X20250029Y-10055119D01*
X20249575Y-10049970D01*
X20249119Y-10044823D01*
X20248662Y-10039680D01*
X20248203Y-10034541D01*
X20247742Y-10029405D01*
X20247280Y-10024272D01*
X20246816Y-10019142D01*
X20246350Y-10014017D01*
X20245882Y-10008894D01*
X20245413Y-10003775D01*
X20244942Y-9998659D01*
X20244469Y-9993547D01*
X20243995Y-9988438D01*
X20243519Y-9983332D01*
X20243041Y-9978230D01*
X20242562Y-9973131D01*
X20242081Y-9968036D01*
X20241598Y-9962943D01*
X20241113Y-9957855D01*
X20240627Y-9952770D01*
X20240139Y-9947688D01*
X20239650Y-9942609D01*
X20239159Y-9937534D01*
X20238666Y-9932462D01*
X20238171Y-9927394D01*
X20237675Y-9922329D01*
X20237177Y-9917267D01*
X20236677Y-9912209D01*
X20236176Y-9907154D01*
X20235673Y-9902102D01*
X20235168Y-9897054D01*
X20234662Y-9892009D01*
X20234154Y-9886967D01*
X20233644Y-9881929D01*
X20233133Y-9876895D01*
X20232620Y-9871863D01*
X20232105Y-9866835D01*
X20231589Y-9861810D01*
X20231071Y-9856789D01*
X20230551Y-9851771D01*
X20230030Y-9846756D01*
X20229507Y-9841745D01*
X20228982Y-9836737D01*
X20228456Y-9831733D01*
X20227928Y-9826731D01*
X20227399Y-9821733D01*
X20226867Y-9816739D01*
X20226334Y-9811747D01*
X20225800Y-9806760D01*
X20225263Y-9801775D01*
X20224726Y-9796794D01*
X20224186Y-9791816D01*
X20223645Y-9786841D01*
X20223102Y-9781870D01*
X20222557Y-9776902D01*
X20222011Y-9771938D01*
X20221464Y-9766976D01*
X20220914Y-9762018D01*
X20220363Y-9757064D01*
X20219810Y-9752113D01*
X20219256Y-9747165D01*
X20218700Y-9742220D01*
X20218142Y-9737279D01*
X20217583Y-9732341D01*
X20217022Y-9727406D01*
X20216460Y-9722475D01*
X20215895Y-9717546D01*
X20215330Y-9712622D01*
X20214762Y-9707700D01*
X20214193Y-9702782D01*
X20213622Y-9697867D01*
X20213050Y-9692956D01*
X20212476Y-9688048D01*
X20211900Y-9683143D01*
X20211323Y-9678241D01*
X20210744Y-9673343D01*
X20210164Y-9668448D01*
X20209582Y-9663556D01*
X20208998Y-9658668D01*
X20208413Y-9653783D01*
X20207826Y-9648901D01*
X20207237Y-9644022D01*
X20206647Y-9639147D01*
X20206055Y-9634275D01*
X20205462Y-9629406D01*
X20204867Y-9624541D01*
X20204270Y-9619679D01*
X20203672Y-9614820D01*
X20203072Y-9609964D01*
X20202471Y-9605112D01*
X20201868Y-9600263D01*
X20201263Y-9595417D01*
X20200657Y-9590575D01*
X20200049Y-9585736D01*
X20199439Y-9580900D01*
X20198828Y-9576067D01*
X20198215Y-9571238D01*
X20197601Y-9566412D01*
X20196985Y-9561589D01*
X20196368Y-9556770D01*
X20195749Y-9551953D01*
X20195128Y-9547140D01*
X20194506Y-9542330D01*
X20193882Y-9537524D01*
X20193256Y-9532721D01*
X20192629Y-9527921D01*
X20192000Y-9523124D01*
X20191370Y-9518331D01*
X20190738Y-9513540D01*
X20190105Y-9508753D01*
X20189470Y-9503970D01*
X20188833Y-9499189D01*
X20188195Y-9494412D01*
X20187555Y-9489638D01*
X20186914Y-9484867D01*
X20186271Y-9480100D01*
X20185627Y-9475335D01*
X20184981Y-9470574D01*
X20184333Y-9465817D01*
X20183684Y-9461062D01*
X20183033Y-9456311D01*
X20182380Y-9451563D01*
X20181726Y-9446818D01*
X20181071Y-9442076D01*
X20180414Y-9437338D01*
X20179755Y-9432603D01*
X20179095Y-9427871D01*
X20178433Y-9423142D01*
X20177770Y-9418417D01*
X20177105Y-9413695D01*
X20176438Y-9408975D01*
X20175770Y-9404260D01*
X20175100Y-9399547D01*
X20174429Y-9394838D01*
X20173756Y-9390132D01*
X20173082Y-9385429D01*
X20172406Y-9380729D01*
X20171729Y-9376032D01*
X20171050Y-9371339D01*
X20170369Y-9366649D01*
X20169687Y-9361962D01*
X20169003Y-9357278D01*
X20168318Y-9352598D01*
X20167631Y-9347921D01*
X20166943Y-9343247D01*
X20166253Y-9338576D01*
X20165562Y-9333908D01*
X20164869Y-9329244D01*
X20164174Y-9324582D01*
X20163478Y-9319924D01*
X20162780Y-9315269D01*
X20162081Y-9310618D01*
X20161381Y-9305969D01*
X20160678Y-9301324D01*
X20159975Y-9296682D01*
X20159269Y-9292043D01*
X20158562Y-9287407D01*
X20157854Y-9282774D01*
X20157144Y-9278145D01*
X20156433Y-9273519D01*
X20155720Y-9268896D01*
X20155005Y-9264276D01*
X20154289Y-9259659D01*
X20153571Y-9255046D01*
X20152852Y-9250435D01*
X20152132Y-9245828D01*
X20151410Y-9241224D01*
X20150686Y-9236624D01*
X20149961Y-9232026D01*
X20149234Y-9227431D01*
X20148506Y-9222840D01*
X20147776Y-9218252D01*
X20147044Y-9213667D01*
X20146312Y-9209085D01*
X20145577Y-9204506D01*
X20144841Y-9199931D01*
X20144104Y-9195358D01*
X20143365Y-9190789D01*
X20142625Y-9186223D01*
X20141883Y-9181660D01*
X20141139Y-9177101D01*
X20140394Y-9172544D01*
X20139648Y-9167991D01*
X20138900Y-9163440D01*
X20138150Y-9158893D01*
X20137399Y-9154349D01*
X20136647Y-9149808D01*
X20135893Y-9145271D01*
X20135137Y-9140736D01*
X20134380Y-9136205D01*
X20133622Y-9131676D01*
X20132862Y-9127151D01*
X20132100Y-9122629D01*
X20131337Y-9118110D01*
X20130573Y-9113594D01*
X20129807Y-9109082D01*
X20129039Y-9104572D01*
X20128270Y-9100066D01*
X20127500Y-9095562D01*
X20126728Y-9091062D01*
X20125954Y-9086565D01*
X20125179Y-9082072D01*
X20124403Y-9077581D01*
X20123625Y-9073093D01*
X20122845Y-9068609D01*
X20122064Y-9064127D01*
X20121282Y-9059649D01*
X20120498Y-9055174D01*
X20119712Y-9050702D01*
X20118926Y-9046233D01*
X20118137Y-9041767D01*
X20117347Y-9037304D01*
X20116556Y-9032844D01*
X20115763Y-9028388D01*
X20114969Y-9023934D01*
X20114173Y-9019484D01*
X20113376Y-9015037D01*
X20112577Y-9010593D01*
X20111777Y-9006152D01*
X20110975Y-9001714D01*
X20110172Y-8997279D01*
X20109368Y-8992847D01*
X20108561Y-8988419D01*
X20107754Y-8983993D01*
X20106945Y-8979571D01*
X20106134Y-8975151D01*
X20105322Y-8970735D01*
X20104509Y-8966322D01*
X20103694Y-8961912D01*
X20102878Y-8957505D01*
X20102060Y-8953101D01*
X20101241Y-8948700D01*
X20100420Y-8944302D01*
X20099598Y-8939907D01*
X20098774Y-8935516D01*
X20097949Y-8931127D01*
X20097122Y-8926741D01*
X20096294Y-8922359D01*
X20095465Y-8917980D01*
X20094634Y-8913604D01*
X20093802Y-8909230D01*
X20092968Y-8904860D01*
X20092133Y-8900493D01*
X20091296Y-8896129D01*
X20090458Y-8891768D01*
X20089618Y-8887410D01*
X20088777Y-8883055D01*
X20087934Y-8878704D01*
X20087090Y-8874355D01*
X20086245Y-8870009D01*
X20085398Y-8865667D01*
X20084550Y-8861327D01*
X20083700Y-8856991D01*
X20082849Y-8852657D01*
X20081996Y-8848327D01*
X20081142Y-8843999D01*
X20080287Y-8839675D01*
X20079430Y-8835354D01*
X20078572Y-8831036D01*
X20077712Y-8826721D01*
X20076851Y-8822408D01*
X20075988Y-8818099D01*
X20075124Y-8813793D01*
X20074258Y-8809490D01*
X20073391Y-8805190D01*
X20072523Y-8800893D01*
X20071653Y-8796599D01*
X20070782Y-8792308D01*
X20069909Y-8788021D01*
X20069035Y-8783736D01*
X20068160Y-8779454D01*
X20067283Y-8775175D01*
X20066405Y-8770899D01*
X20065525Y-8766627D01*
X20064644Y-8762357D01*
X20063761Y-8758090D01*
X20062877Y-8753827D01*
X20061992Y-8749566D01*
X20061105Y-8745308D01*
X20060217Y-8741054D01*
X20059327Y-8736802D01*
X20058436Y-8732554D01*
X20057543Y-8728308D01*
X20056650Y-8724065D01*
X20055754Y-8719826D01*
X20054858Y-8715589D01*
X20053959Y-8711356D01*
X20053060Y-8707125D01*
X20052159Y-8702898D01*
X20051257Y-8698673D01*
X20050353Y-8694451D01*
X20049448Y-8690233D01*
X20048541Y-8686017D01*
X20047633Y-8681805D01*
X20046724Y-8677595D01*
X20045813Y-8673389D01*
X20044901Y-8669185D01*
X20043987Y-8664985D01*
X20043072Y-8660787D01*
X20042156Y-8656592D01*
X20041238Y-8652401D01*
X20040319Y-8648212D01*
X20039399Y-8644026D01*
X20038477Y-8639844D01*
X20037554Y-8635664D01*
X20036629Y-8631487D01*
X20035703Y-8627314D01*
X20034775Y-8623143D01*
X20033847Y-8618975D01*
X20032916Y-8614810D01*
X20031985Y-8610648D01*
X20031052Y-8606490D01*
X20030117Y-8602334D01*
X20029182Y-8598181D01*
X20028244Y-8594031D01*
X20027306Y-8589884D01*
X20026366Y-8585740D01*
X20025425Y-8581599D01*
X20024482Y-8577461D01*
X20023538Y-8573326D01*
X20022593Y-8569193D01*
X20021646Y-8565064D01*
X20020698Y-8560938D01*
X20019748Y-8556815D01*
X20018797Y-8552694D01*
X20017845Y-8548577D01*
X20016891Y-8544462D01*
X20015936Y-8540351D01*
X20014980Y-8536242D01*
X20014022Y-8532137D01*
X20013063Y-8528034D01*
X20012103Y-8523935D01*
X20011141Y-8519838D01*
X20010178Y-8515744D01*
X20009213Y-8511653D01*
X20008247Y-8507565D01*
X20007280Y-8503480D01*
X20006311Y-8499398D01*
X20005341Y-8495319D01*
X20004370Y-8491243D01*
X20003397Y-8487169D01*
X20002423Y-8483099D01*
X20001448Y-8479032D01*
X20000471Y-8474967D01*
X19999493Y-8470906D01*
X19998513Y-8466847D01*
X19997533Y-8462791D01*
X19996550Y-8458739D01*
X19995567Y-8454689D01*
X19994582Y-8450642D01*
X19993596Y-8446598D01*
X19992608Y-8442557D01*
X19991619Y-8438518D01*
X19990629Y-8434483D01*
X19989637Y-8430451D01*
X19988645Y-8426422D01*
X19987650Y-8422395D01*
X19986655Y-8418371D01*
X19985658Y-8414351D01*
X19984659Y-8410333D01*
X19983660Y-8406318D01*
X19982659Y-8402306D01*
X19981656Y-8398297D01*
X19980653Y-8394291D01*
X19979648Y-8390287D01*
X19978642Y-8386287D01*
X19977634Y-8382289D01*
X19976625Y-8378295D01*
X19975615Y-8374303D01*
X19974603Y-8370315D01*
X19973590Y-8366328D01*
X19972576Y-8362346D01*
X19971560Y-8358365D01*
X19970543Y-8354388D01*
X19969525Y-8350414D01*
X19968505Y-8346442D01*
X19967484Y-8342474D01*
X19966462Y-8338508D01*
X19965438Y-8334545D01*
X19964414Y-8330585D01*
X19963387Y-8326628D01*
X19962360Y-8322674D01*
X19961331Y-8318723D01*
X19960301Y-8314775D01*
X19959269Y-8310829D01*
X19958237Y-8306886D01*
X19957203Y-8302946D01*
X19956167Y-8299010D01*
X19955130Y-8295076D01*
X19954092Y-8291144D01*
X19953053Y-8287216D01*
X19952012Y-8283291D01*
X19950970Y-8279368D01*
X19949927Y-8275448D01*
X19948882Y-8271531D01*
X19947837Y-8267618D01*
X19946789Y-8263706D01*
X19945741Y-8259798D01*
X19944691Y-8255893D01*
X19943640Y-8251990D01*
X19942588Y-8248090D01*
X19941534Y-8244193D01*
X19940479Y-8240299D01*
X19939423Y-8236408D01*
X19938365Y-8232520D01*
X19937306Y-8228635D01*
X19936246Y-8224752D01*
X19935184Y-8220872D01*
X19934122Y-8216995D01*
X19933057Y-8213121D01*
X19931992Y-8209250D01*
X19930925Y-8205381D01*
X19929857Y-8201516D01*
X19928788Y-8197653D01*
X19927718Y-8193793D01*
X19926646Y-8189936D01*
X19925573Y-8186082D01*
X19924498Y-8182230D01*
X19923423Y-8178382D01*
X19922346Y-8174536D01*
X19921267Y-8170693D01*
X19920188Y-8166853D01*
X19919107Y-8163016D01*
X19918025Y-8159181D01*
X19916941Y-8155350D01*
X19915857Y-8151521D01*
X19914771Y-8147695D01*
X19913684Y-8143872D01*
X19912595Y-8140051D01*
X19911505Y-8136234D01*
X19910414Y-8132419D01*
X19909322Y-8128607D01*
X19908228Y-8124798D01*
X19907134Y-8120992D01*
X19906037Y-8117188D01*
X19904940Y-8113388D01*
X19903841Y-8109590D01*
X19902741Y-8105795D01*
X19901640Y-8102003D01*
X19900538Y-8098213D01*
X19899434Y-8094426D01*
X19898329Y-8090643D01*
X19897222Y-8086862D01*
X19896115Y-8083083D01*
X19895006Y-8079308D01*
X19893896Y-8075535D01*
X19892785Y-8071765D01*
X19891672Y-8067998D01*
X19890558Y-8064234D01*
X19889443Y-8060473D01*
X19888327Y-8056714D01*
X19887209Y-8052958D01*
X19886090Y-8049205D01*
X19884970Y-8045455D01*
X19883849Y-8041707D01*
X19882726Y-8037962D01*
X19881602Y-8034220D01*
X19880477Y-8030481D01*
X19879350Y-8026745D01*
X19878223Y-8023011D01*
X19877094Y-8019280D01*
X19875964Y-8015552D01*
X19874832Y-8011827D01*
X19873700Y-8008104D01*
X19872566Y-8004384D01*
X19871431Y-8000667D01*
X19870294Y-7996953D01*
X19869157Y-7993242D01*
X19868018Y-7989533D01*
X19866878Y-7985827D01*
X19865736Y-7982124D01*
X19864594Y-7978423D01*
X19863450Y-7974726D01*
X19862305Y-7971031D01*
X19861158Y-7967339D01*
X19860011Y-7963649D01*
X19858862Y-7959963D01*
X19857712Y-7956279D01*
X19856561Y-7952598D01*
X19855408Y-7948919D01*
X19854254Y-7945244D01*
X19853099Y-7941571D01*
X19851943Y-7937901D01*
X19850786Y-7934233D01*
X19849627Y-7930569D01*
X19848467Y-7926907D01*
X19847306Y-7923248D01*
X19846144Y-7919591D01*
X19844980Y-7915938D01*
X19843815Y-7912287D01*
X19842649Y-7908638D01*
X19841482Y-7904993D01*
X19840314Y-7901350D01*
X19839144Y-7897711D01*
X19837973Y-7894073D01*
X19836801Y-7890439D01*
X19835627Y-7886807D01*
X19834453Y-7883178D01*
X19833277Y-7879551D01*
X19832100Y-7875928D01*
X19830922Y-7872307D01*
X19829743Y-7868689D01*
X19828562Y-7865073D01*
X19827380Y-7861461D01*
X19826197Y-7857851D01*
X19825013Y-7854244D01*
X19823827Y-7850639D01*
X19822640Y-7847037D01*
X19821452Y-7843438D01*
X19820263Y-7839842D01*
X19819073Y-7836248D01*
X19817881Y-7832657D01*
X19816689Y-7829069D01*
X19815495Y-7825483D01*
X19814299Y-7821900D01*
X19813103Y-7818320D01*
X19811906Y-7814743D01*
X19810707Y-7811168D01*
X19809507Y-7807596D01*
X19808306Y-7804027D01*
X19807103Y-7800460D01*
X19805900Y-7796896D01*
X19804695Y-7793335D01*
X19803489Y-7789777D01*
X19802282Y-7786221D01*
X19801073Y-7782668D01*
X19799864Y-7779117D01*
X19798653Y-7775570D01*
X19797441Y-7772024D01*
X19796228Y-7768482D01*
X19795013Y-7764942D01*
X19793798Y-7761406D01*
X19792581Y-7757871D01*
X19791363Y-7754340D01*
X19790144Y-7750811D01*
X19788924Y-7747284D01*
X19787702Y-7743761D01*
X19786480Y-7740240D01*
X19785256Y-7736722D01*
X19784031Y-7733206D01*
X19782805Y-7729693D01*
X19781577Y-7726183D01*
X19780349Y-7722676D01*
X19779119Y-7719171D01*
X19777888Y-7715669D01*
X19776656Y-7712169D01*
X19775422Y-7708672D01*
X19774188Y-7705178D01*
X19772952Y-7701687D01*
X19771715Y-7698198D01*
X19770477Y-7694712D01*
X19769238Y-7691228D01*
X19767998Y-7687747D01*
X19766756Y-7684269D01*
X19765514Y-7680794D01*
X19764270Y-7677321D01*
X19763025Y-7673850D01*
X19761778Y-7670383D01*
X19760531Y-7666918D01*
X19759282Y-7663456D01*
X19758033Y-7659996D01*
X19756782Y-7656539D01*
X19755530Y-7653085D01*
X19754276Y-7649633D01*
X19753022Y-7646184D01*
X19751766Y-7642738D01*
X19750510Y-7639294D01*
X19749252Y-7635853D01*
X19747993Y-7632415D01*
X19746732Y-7628979D01*
X19745471Y-7625546D01*
X19744209Y-7622115D01*
X19742945Y-7618687D01*
X19741680Y-7615262D01*
X19740414Y-7611840D01*
X19739147Y-7608420D01*
X19737878Y-7605002D01*
X19736609Y-7601588D01*
X19735338Y-7598176D01*
X19734066Y-7594766D01*
X19732793Y-7591359D01*
X19731519Y-7587955D01*
X19730244Y-7584553D01*
X19728968Y-7581155D01*
X19727690Y-7577758D01*
X19726411Y-7574365D01*
X19725131Y-7570973D01*
X19723850Y-7567585D01*
X19722568Y-7564199D01*
X19721285Y-7560816D01*
X19720000Y-7557435D01*
X19718715Y-7554057D01*
X19717428Y-7550682D01*
X19716140Y-7547309D01*
X19714851Y-7543939D01*
X19713561Y-7540572D01*
X19712270Y-7537207D01*
X19710977Y-7533844D01*
X19709684Y-7530484D01*
X19708389Y-7527128D01*
X19707093Y-7523773D01*
X19705796Y-7520421D01*
X19704498Y-7517072D01*
X19703199Y-7513725D01*
X19701898Y-7510381D01*
X19700597Y-7507039D01*
X19699294Y-7503700D01*
X19697990Y-7500364D01*
X19696685Y-7497030D01*
X19695379Y-7493699D01*
X19694072Y-7490371D01*
X19692764Y-7487045D01*
X19691454Y-7483721D01*
X19690143Y-7480401D01*
X19688832Y-7477082D01*
X19687519Y-7473767D01*
X19686205Y-7470454D01*
X19684890Y-7467143D01*
X19683573Y-7463835D01*
X19682256Y-7460530D01*
X19680938Y-7457227D01*
X19679618Y-7453927D01*
X19678297Y-7450630D01*
X19676975Y-7447335D01*
X19675652Y-7444042D01*
X19674328Y-7440753D01*
X19673003Y-7437465D01*
X19671677Y-7434181D01*
X19670349Y-7430898D01*
X19669021Y-7427619D01*
X19667691Y-7424342D01*
X19666360Y-7421068D01*
X19665028Y-7417796D01*
X19663695Y-7414527D01*
X19662361Y-7411260D01*
X19661026Y-7407996D01*
X19659689Y-7404734D01*
X19658352Y-7401475D01*
X19657013Y-7398218D01*
X19655674Y-7394965D01*
X19654333Y-7391713D01*
X19652991Y-7388465D01*
X19651648Y-7385218D01*
X19650304Y-7381975D01*
X19648959Y-7378733D01*
X19647612Y-7375495D01*
X19646265Y-7372259D01*
X19644916Y-7369025D01*
X19643567Y-7365794D01*
X19642216Y-7362566D01*
X19640864Y-7359340D01*
X19639511Y-7356117D01*
X19638157Y-7352896D01*
X19636802Y-7349678D01*
X19635445Y-7346462D01*
X19634088Y-7343249D01*
X19632730Y-7340038D01*
X19631370Y-7336830D01*
X19630009Y-7333625D01*
X19628648Y-7330422D01*
X19627285Y-7327221D01*
X19625921Y-7324023D01*
X19624556Y-7320828D01*
X19623190Y-7317635D01*
X19621822Y-7314445D01*
X19620454Y-7311257D01*
X19619085Y-7308071D01*
X19617714Y-7304889D01*
X19616343Y-7301708D01*
X19614970Y-7298531D01*
X19613596Y-7295355D01*
X19612221Y-7292183D01*
X19610845Y-7289013D01*
X19609468Y-7285845D01*
X19608090Y-7282680D01*
X19606711Y-7279517D01*
X19605331Y-7276357D01*
X19603950Y-7273200D01*
X19602567Y-7270045D01*
X19601184Y-7266892D01*
X19599799Y-7263742D01*
X19598413Y-7260595D01*
X19597026Y-7257449D01*
X19595639Y-7254307D01*
X19594250Y-7251167D01*
X19592860Y-7248029D01*
X19591469Y-7244894D01*
X19590077Y-7241762D01*
X19588683Y-7238632D01*
X19587289Y-7235504D01*
X19585893Y-7232379D01*
X19584497Y-7229257D01*
X19583100Y-7226137D01*
X19581701Y-7223019D01*
X19580301Y-7219904D01*
X19578901Y-7216792D01*
X19577499Y-7213682D01*
X19576096Y-7210574D01*
X19574692Y-7207469D01*
X19573287Y-7204367D01*
X19571881Y-7201266D01*
X19570474Y-7198169D01*
X19569065Y-7195074D01*
X19567656Y-7191981D01*
X19566246Y-7188891D01*
X19564834Y-7185803D01*
X19563422Y-7182718D01*
X19562008Y-7179636D01*
X19560594Y-7176555D01*
X19559178Y-7173478D01*
X19557761Y-7170402D01*
X19556344Y-7167330D01*
X19554925Y-7164259D01*
X19553505Y-7161191D01*
X19552084Y-7158126D01*
X19550662Y-7155063D01*
X19549239Y-7152003D01*
X19547815Y-7148945D01*
X19546389Y-7145889D01*
X19544963Y-7142836D01*
X19543536Y-7139786D01*
X19542107Y-7136738D01*
X19540678Y-7133692D01*
X19539248Y-7130649D01*
X19537816Y-7127608D01*
X19536384Y-7124570D01*
X19534950Y-7121534D01*
X19533515Y-7118501D01*
X19532079Y-7115470D01*
X19530643Y-7112442D01*
X19529205Y-7109415D01*
X19527766Y-7106392D01*
X19526326Y-7103371D01*
X19524885Y-7100352D01*
X19523443Y-7097336D01*
X19522000Y-7094323D01*
X19520556Y-7091311D01*
X19519111Y-7088302D01*
X19517665Y-7085296D01*
X19516218Y-7082292D01*
X19514769Y-7079290D01*
X19513320Y-7076292D01*
X19511870Y-7073295D01*
X19510418Y-7070301D01*
X19508966Y-7067309D01*
X19507512Y-7064320D01*
X19506058Y-7061333D01*
X19504602Y-7058349D01*
X19503146Y-7055367D01*
X19501688Y-7052387D01*
X19500230Y-7049410D01*
X19498770Y-7046435D01*
X19497309Y-7043463D01*
X19495848Y-7040493D01*
X19494385Y-7037526D01*
X19492921Y-7034561D01*
X19491456Y-7031598D01*
X19489990Y-7028638D01*
X19488523Y-7025681D01*
X19487055Y-7022726D01*
X19485586Y-7019773D01*
X19484117Y-7016822D01*
X19482645Y-7013874D01*
X19481173Y-7010929D01*
X19479700Y-7007985D01*
X19478226Y-7005045D01*
X19476751Y-7002106D01*
X19475275Y-6999171D01*
X19473798Y-6996237D01*
X19472320Y-6993306D01*
X19470840Y-6990377D01*
X19469360Y-6987451D01*
X19467879Y-6984527D01*
X19466397Y-6981606D01*
X19464913Y-6978687D01*
X19463429Y-6975770D01*
X19461944Y-6972856D01*
X19460458Y-6969944D01*
X19458970Y-6967035D01*
X19457482Y-6964128D01*
X19455992Y-6961223D01*
X19454502Y-6958321D01*
X19453010Y-6955421D01*
X19451518Y-6952524D01*
X19450025Y-6949628D01*
X19448530Y-6946736D01*
X19447035Y-6943846D01*
X19445538Y-6940958D01*
X19444041Y-6938072D01*
X19442542Y-6935190D01*
X19441042Y-6932309D01*
X19439542Y-6929431D01*
X19438040Y-6926554D01*
X19436538Y-6923681D01*
X19435034Y-6920810D01*
X19433530Y-6917941D01*
X19432024Y-6915075D01*
X19430518Y-6912211D01*
X19429010Y-6909349D01*
X19427502Y-6906490D01*
X19425992Y-6903633D01*
X19424481Y-6900779D01*
X19422970Y-6897927D01*
X19421457Y-6895077D01*
X19419943Y-6892230D01*
X19418429Y-6889385D01*
X19416913Y-6886542D01*
X19415397Y-6883702D01*
X19413879Y-6880864D01*
X19412360Y-6878029D01*
X19410841Y-6875196D01*
X19409320Y-6872365D01*
X19406276Y-6866711D01*
X19403228Y-6861066D01*
X19400176Y-6855431D01*
X19397120Y-6849805D01*
X19394059Y-6844188D01*
X19390995Y-6838581D01*
X19387927Y-6832984D01*
X19384855Y-6827395D01*
X19381779Y-6821817D01*
X19378700Y-6816247D01*
X19375616Y-6810687D01*
X19372528Y-6805136D01*
X19369436Y-6799595D01*
X19366341Y-6794063D01*
X19363241Y-6788541D01*
X19360138Y-6783027D01*
X19357030Y-6777524D01*
X19353919Y-6772029D01*
X19350804Y-6766544D01*
X19347685Y-6761068D01*
X19344562Y-6755601D01*
X19341435Y-6750144D01*
X19338304Y-6744696D01*
X19335169Y-6739257D01*
X19332031Y-6733828D01*
X19328888Y-6728408D01*
X19325742Y-6722997D01*
X19322592Y-6717595D01*
X19319438Y-6712203D01*
X19316280Y-6706820D01*
X19313118Y-6701446D01*
X19309953Y-6696081D01*
X19306783Y-6690726D01*
X19303610Y-6685379D01*
X19300433Y-6680042D01*
X19297252Y-6674714D01*
X19294068Y-6669396D01*
X19290879Y-6664086D01*
X19287687Y-6658786D01*
X19284490Y-6653495D01*
X19281290Y-6648213D01*
X19278087Y-6642940D01*
X19274879Y-6637676D01*
X19271668Y-6632421D01*
X19268453Y-6627176D01*
X19265234Y-6621940D01*
X19262011Y-6616712D01*
X19258784Y-6611494D01*
X19255554Y-6606285D01*
X19252320Y-6601085D01*
X19249082Y-6595894D01*
X19245841Y-6590712D01*
X19242595Y-6585540D01*
X19239346Y-6580376D01*
X19236093Y-6575221D01*
X19232837Y-6570076D01*
X19229576Y-6564939D01*
X19226312Y-6559812D01*
X19223044Y-6554693D01*
X19219773Y-6549584D01*
X19216498Y-6544483D01*
X19213219Y-6539392D01*
X19209936Y-6534309D01*
X19206650Y-6529236D01*
X19203360Y-6524171D01*
X19200066Y-6519116D01*
X19196768Y-6514069D01*
X19193467Y-6509031D01*
X19190162Y-6504003D01*
X19186854Y-6498983D01*
X19183541Y-6493972D01*
X19180225Y-6488970D01*
X19176906Y-6483977D01*
X19173582Y-6478993D01*
X19170256Y-6474018D01*
X19166925Y-6469052D01*
X19163591Y-6464095D01*
X19160253Y-6459146D01*
X19156911Y-6454207D01*
X19153566Y-6449276D01*
X19150217Y-6444354D01*
X19146865Y-6439441D01*
X19143508Y-6434537D01*
X19140149Y-6429642D01*
X19136785Y-6424755D01*
X19133418Y-6419878D01*
X19130048Y-6415009D01*
X19126673Y-6410149D01*
X19123295Y-6405298D01*
X19119914Y-6400456D01*
X19116529Y-6395622D01*
X19113140Y-6390797D01*
X19109748Y-6385981D01*
X19106352Y-6381174D01*
X19102953Y-6376376D01*
X19099550Y-6371586D01*
X19096143Y-6366805D01*
X19092733Y-6362033D01*
X19089319Y-6357270D01*
X19085902Y-6352515D01*
X19082481Y-6347769D01*
X19079056Y-6343032D01*
X19075628Y-6338304D01*
X19072197Y-6333584D01*
X19068761Y-6328873D01*
X19065323Y-6324171D01*
X19061881Y-6319477D01*
X19058435Y-6314792D01*
X19054986Y-6310116D01*
X19051533Y-6305448D01*
X19048076Y-6300789D01*
X19044616Y-6296139D01*
X19041153Y-6291497D01*
X19037686Y-6286865D01*
X19034216Y-6282240D01*
X19030742Y-6277625D01*
X19027264Y-6273018D01*
X19023783Y-6268419D01*
X19020299Y-6263829D01*
X19016811Y-6259248D01*
X19013320Y-6254676D01*
X19009825Y-6250112D01*
X19006326Y-6245556D01*
X19002824Y-6241010D01*
X18999319Y-6236472D01*
X18995810Y-6231942D01*
X18992298Y-6227421D01*
X18988782Y-6222909D01*
X18985263Y-6218405D01*
X18981740Y-6213909D01*
X18978214Y-6209423D01*
X18974684Y-6204944D01*
X18971151Y-6200475D01*
X18967615Y-6196013D01*
X18964075Y-6191561D01*
X18960532Y-6187117D01*
X18956985Y-6182681D01*
X18953435Y-6178254D01*
X18949881Y-6173835D01*
X18946324Y-6169425D01*
X18942764Y-6165024D01*
X18939200Y-6160631D01*
X18935632Y-6156246D01*
X18932062Y-6151870D01*
X18928488Y-6147502D01*
X18924910Y-6143143D01*
X18921329Y-6138792D01*
X18917745Y-6134450D01*
X18914157Y-6130116D01*
X18910566Y-6125791D01*
X18906972Y-6121474D01*
X18903374Y-6117165D01*
X18899773Y-6112865D01*
X18896168Y-6108573D01*
X18892560Y-6104290D01*
X18888949Y-6100015D01*
X18885334Y-6095749D01*
X18881716Y-6091491D01*
X18878095Y-6087241D01*
X18874470Y-6083000D01*
X18870842Y-6078767D01*
X18867210Y-6074542D01*
X18863576Y-6070326D01*
X18859937Y-6066119D01*
X18856296Y-6061919D01*
X18852651Y-6057728D01*
X18849003Y-6053546D01*
X18845352Y-6049371D01*
X18841697Y-6045205D01*
X18838039Y-6041048D01*
X18834378Y-6036898D01*
X18830713Y-6032757D01*
X18827045Y-6028625D01*
X18823374Y-6024500D01*
X18819699Y-6020384D01*
X18816021Y-6016277D01*
X18812340Y-6012177D01*
X18808656Y-6008086D01*
X18804968Y-6004003D01*
X18801277Y-5999929D01*
X18797583Y-5995863D01*
X18793885Y-5991805D01*
X18790184Y-5987755D01*
X18786480Y-5983714D01*
X18782773Y-5979681D01*
X18779062Y-5975656D01*
X18775349Y-5971639D01*
X18771632Y-5967631D01*
X18767911Y-5963631D01*
X18764188Y-5959639D01*
X18760461Y-5955656D01*
X18756731Y-5951680D01*
X18752997Y-5947713D01*
X18749261Y-5943754D01*
X18745521Y-5939804D01*
X18741778Y-5935861D01*
X18738032Y-5931927D01*
X18734283Y-5928001D01*
X18730530Y-5924083D01*
X18726774Y-5920174D01*
X18723015Y-5916272D01*
X18719253Y-5912379D01*
X18715488Y-5908494D01*
X18711719Y-5904617D01*
X18707947Y-5900749D01*
X18704172Y-5896888D01*
X18700394Y-5893036D01*
X18696613Y-5889192D01*
X18692828Y-5885356D01*
X18689040Y-5881528D01*
X18685250Y-5877709D01*
X18681456Y-5873897D01*
X18677658Y-5870094D01*
X18673858Y-5866299D01*
X18670055Y-5862512D01*
X18666248Y-5858733D01*
X18662438Y-5854962D01*
X18658625Y-5851200D01*
X18654809Y-5847445D01*
X18650990Y-5843699D01*
X18647168Y-5839961D01*
X18643342Y-5836231D01*
X18639514Y-5832509D01*
X18635682Y-5828795D01*
X18631847Y-5825089D01*
X18628009Y-5821392D01*
X18624168Y-5817702D01*
X18620324Y-5814021D01*
X18616477Y-5810348D01*
X18612627Y-5806682D01*
X18608773Y-5803025D01*
X18604917Y-5799376D01*
X18601057Y-5795735D01*
X18597195Y-5792102D01*
X18593329Y-5788478D01*
X18589460Y-5784861D01*
X18585588Y-5781252D01*
X18581713Y-5777652D01*
X18577835Y-5774059D01*
X18573954Y-5770475D01*
X18570070Y-5766898D01*
X18566183Y-5763330D01*
X18562293Y-5759770D01*
X18558400Y-5756217D01*
X18554503Y-5752673D01*
X18550604Y-5749137D01*
X18546702Y-5745609D01*
X18542796Y-5742089D01*
X18538888Y-5738577D01*
X18534977Y-5735073D01*
X18531062Y-5731577D01*
X18527145Y-5728089D01*
X18523225Y-5724609D01*
X18519301Y-5721137D01*
X18515375Y-5717673D01*
X18511445Y-5714218D01*
X18507513Y-5710770D01*
X18503578Y-5707330D01*
X18499639Y-5703898D01*
X18495698Y-5700474D01*
X18491754Y-5697059D01*
X18487807Y-5693651D01*
X18483856Y-5690251D01*
X18479903Y-5686859D01*
X18475947Y-5683476D01*
X18471988Y-5680100D01*
X18468026Y-5676732D01*
X18464061Y-5673372D01*
X18460094Y-5670021D01*
X18456123Y-5666677D01*
X18452149Y-5663341D01*
X18448172Y-5660013D01*
X18444193Y-5656693D01*
X18440211Y-5653381D01*
X18436225Y-5650077D01*
X18432237Y-5646781D01*
X18428246Y-5643493D01*
X18424252Y-5640214D01*
X18420255Y-5636941D01*
X18416255Y-5633677D01*
X18412253Y-5630421D01*
X18408247Y-5627173D01*
X18404239Y-5623933D01*
X18400227Y-5620701D01*
X18396213Y-5617477D01*
X18392196Y-5614260D01*
X18388177Y-5611052D01*
X18384154Y-5607852D01*
X18380128Y-5604659D01*
X18376100Y-5601475D01*
X18372069Y-5598298D01*
X18368035Y-5595130D01*
X18363998Y-5591969D01*
X18359959Y-5588817D01*
X18355916Y-5585672D01*
X18351871Y-5582535D01*
X18347823Y-5579406D01*
X18343773Y-5576286D01*
X18339719Y-5573173D01*
X18335663Y-5570068D01*
X18331604Y-5566971D01*
X18327542Y-5563882D01*
X18323477Y-5560800D01*
X18319410Y-5557727D01*
X18315340Y-5554662D01*
X18311267Y-5551604D01*
X18307191Y-5548555D01*
X18303113Y-5545514D01*
X18299032Y-5542480D01*
X18294948Y-5539454D01*
X18290862Y-5536437D01*
X18286772Y-5533427D01*
X18282680Y-5530425D01*
X18278586Y-5527431D01*
X18274489Y-5524445D01*
X18270389Y-5521467D01*
X18266286Y-5518497D01*
X18262181Y-5515535D01*
X18258073Y-5512581D01*
X18253962Y-5509634D01*
X18249849Y-5506696D01*
X18245733Y-5503766D01*
X18241614Y-5500843D01*
X18237493Y-5497928D01*
X18233369Y-5495022D01*
X18229243Y-5492123D01*
X18225114Y-5489232D01*
X18220982Y-5486349D01*
X18216848Y-5483474D01*
X18212711Y-5480607D01*
X18208571Y-5477748D01*
X18204429Y-5474897D01*
X18200285Y-5472054D01*
X18196138Y-5469218D01*
X18191988Y-5466391D01*
X18187836Y-5463572D01*
X18183681Y-5460760D01*
X18179523Y-5457957D01*
X18175364Y-5455161D01*
X18171201Y-5452373D01*
X18167036Y-5449593D01*
X18162869Y-5446821D01*
X18158699Y-5444057D01*
X18154526Y-5441301D01*
X18150352Y-5438553D01*
X18146174Y-5435813D01*
X18141994Y-5433081D01*
X18137812Y-5430357D01*
X18133627Y-5427640D01*
X18129440Y-5424932D01*
X18125251Y-5422232D01*
X18121058Y-5419539D01*
X18116864Y-5416854D01*
X18112667Y-5414178D01*
X18108468Y-5411509D01*
X18104266Y-5408848D01*
X18100062Y-5406196D01*
X18095856Y-5403551D01*
X18091647Y-5400914D01*
X18087436Y-5398285D01*
X18083222Y-5395664D01*
X18079006Y-5393051D01*
X18074788Y-5390446D01*
X18070568Y-5387849D01*
X18066345Y-5385259D01*
X18062120Y-5382678D01*
X18057893Y-5380105D01*
X18053663Y-5377540D01*
X18049431Y-5374982D01*
X18045197Y-5372433D01*
X18040960Y-5369891D01*
X18036722Y-5367358D01*
X18032481Y-5364833D01*
X18028237Y-5362315D01*
X18023992Y-5359806D01*
X18019745Y-5357304D01*
X18015495Y-5354810D01*
X18011243Y-5352325D01*
X18006989Y-5349847D01*
X18002732Y-5347378D01*
X17998474Y-5344916D01*
X17994213Y-5342462D01*
X17989951Y-5340017D01*
X17985686Y-5337579D01*
X17981419Y-5335149D01*
X17977150Y-5332728D01*
X17972879Y-5330314D01*
X17968606Y-5327908D01*
X17964331Y-5325511D01*
X17960053Y-5323121D01*
X17955774Y-5320739D01*
X17951493Y-5318366D01*
X17947209Y-5316000D01*
X17942924Y-5313643D01*
X17938637Y-5311293D01*
X17934347Y-5308952D01*
X17930056Y-5306618D01*
X17925763Y-5304293D01*
X17921468Y-5301975D01*
X17917171Y-5299666D01*
X17912872Y-5297364D01*
X17908571Y-5295071D01*
X17904268Y-5292786D01*
X17899964Y-5290509D01*
X17895657Y-5288240D01*
X17891349Y-5285978D01*
X17887039Y-5283725D01*
X17882727Y-5281481D01*
X17878413Y-5279244D01*
X17874098Y-5277015D01*
X17869781Y-5274794D01*
X17865462Y-5272581D01*
X17861141Y-5270377D01*
X17856819Y-5268180D01*
X17852494Y-5265992D01*
X17848169Y-5263812D01*
X17843841Y-5261639D01*
X17839512Y-5259475D01*
X17835181Y-5257319D01*
X17830849Y-5255171D01*
X17826515Y-5253032D01*
X17822179Y-5250900D01*
X17817842Y-5248777D01*
X17813503Y-5246661D01*
X17809163Y-5244554D01*
X17804821Y-5242455D01*
X17800478Y-5240364D01*
X17796133Y-5238281D01*
X17791787Y-5236206D01*
X17787439Y-5234140D01*
X17783090Y-5232081D01*
X17778739Y-5230031D01*
X17774387Y-5227989D01*
X17770034Y-5225955D01*
X17765679Y-5223930D01*
X17761323Y-5221912D01*
X17756966Y-5219903D01*
X17752608Y-5217902D01*
X17748248Y-5215909D01*
X17743887Y-5213924D01*
X17739524Y-5211948D01*
X17735161Y-5209979D01*
X17730796Y-5208019D01*
X17726430Y-5206068D01*
X17722063Y-5204124D01*
X17717695Y-5202189D01*
X17713325Y-5200261D01*
X17708955Y-5198343D01*
X17704584Y-5196432D01*
X17700211Y-5194530D01*
X17695838Y-5192636D01*
X17691463Y-5190750D01*
X17687088Y-5188872D01*
X17682711Y-5187003D01*
X17678334Y-5185142D01*
X17673956Y-5183289D01*
X17669577Y-5181445D01*
X17665197Y-5179609D01*
X17660816Y-5177781D01*
X17656435Y-5175962D01*
X17652053Y-5174151D01*
X17647670Y-5172348D01*
X17643286Y-5170554D01*
X17638902Y-5168768D01*
X17634517Y-5166990D01*
X17630131Y-5165221D01*
X17625745Y-5163460D01*
X17621359Y-5161707D01*
X17616971Y-5159963D01*
X17612584Y-5158227D01*
X17608195Y-5156500D01*
X17603807Y-5154781D01*
X17599418Y-5153070D01*
X17595028Y-5151368D01*
X17590638Y-5149674D01*
X17586248Y-5147989D01*
X17581858Y-5146312D01*
X17577467Y-5144643D01*
X17573076Y-5142983D01*
X17568685Y-5141332D01*
X17564294Y-5139689D01*
X17559903Y-5138054D01*
X17555512Y-5136428D01*
X17551120Y-5134810D01*
X17546729Y-5133201D01*
X17542337Y-5131601D01*
X17537946Y-5130009D01*
X17533555Y-5128425D01*
X17529164Y-5126850D01*
X17524773Y-5125284D01*
X17520382Y-5123726D01*
X17515992Y-5122176D01*
X17511602Y-5120636D01*
X17507212Y-5119103D01*
X17502823Y-5117580D01*
X17498434Y-5116065D01*
X17494045Y-5114558D01*
X17489657Y-5113060D01*
X17485270Y-5111571D01*
X17480883Y-5110091D01*
X17476497Y-5108619D01*
X17472112Y-5107155D01*
X17467727Y-5105701D01*
X17463343Y-5104255D01*
X17458960Y-5102818D01*
X17454578Y-5101389D01*
X17450197Y-5099969D01*
X17445817Y-5098558D01*
X17441438Y-5097155D01*
X17437060Y-5095762D01*
X17432683Y-5094377D01*
X17428307Y-5093000D01*
X17423933Y-5091633D01*
X17419559Y-5090274D01*
X17415188Y-5088924D01*
X17410817Y-5087583D01*
X17406449Y-5086250D01*
X17402081Y-5084927D01*
X17397715Y-5083612D01*
X17393351Y-5082306D01*
X17388989Y-5081009D01*
X17384628Y-5079721D01*
X17380270Y-5078441D01*
X17375913Y-5077171D01*
X17371558Y-5075909D01*
X17367205Y-5074656D01*
X17362855Y-5073412D01*
X17358506Y-5072177D01*
X17354160Y-5070951D01*
X17349816Y-5069734D01*
X17345475Y-5068526D01*
X17341136Y-5067327D01*
X17336799Y-5066137D01*
X17332465Y-5064956D01*
X17328134Y-5063783D01*
X17323806Y-5062620D01*
X17319480Y-5061466D01*
X17315158Y-5060321D01*
X17310838Y-5059185D01*
X17306522Y-5058058D01*
X17302209Y-5056940D01*
X17297899Y-5055831D01*
X17293592Y-5054731D01*
X17289289Y-5053640D01*
X17284990Y-5052559D01*
X17280694Y-5051486D01*
X17276402Y-5050423D01*
X17272113Y-5049369D01*
X17267829Y-5048324D01*
X17263549Y-5047288D01*
X17259273Y-5046262D01*
X17255001Y-5045244D01*
X17250734Y-5044236D01*
X17246471Y-5043237D01*
X17242212Y-5042248D01*
X17237959Y-5041267D01*
X17233710Y-5040296D01*
X17229466Y-5039335D01*
X17225227Y-5038382D01*
X17220994Y-5037439D01*
X17216766Y-5036505D01*
X17212543Y-5035581D01*
X17208326Y-5034666D01*
X17204114Y-5033760D01*
X17199909Y-5032864D01*
X17195709Y-5031977D01*
X17191516Y-5031100D01*
X17187329Y-5030232D01*
X17183148Y-5029373D01*
X17178974Y-5028524D01*
X17174807Y-5027685D01*
X17170647Y-5026855D01*
X17166494Y-5026034D01*
X17162348Y-5025223D01*
X17158209Y-5024422D01*
X17154079Y-5023630D01*
X17149956Y-5022848D01*
X17145841Y-5022075D01*
X17141734Y-5021312D01*
X17137636Y-5020559D01*
X17133546Y-5019815D01*
X17129465Y-5019081D01*
X17125393Y-5018357D01*
X17121330Y-5017643D01*
X17117277Y-5016938D01*
X17113234Y-5016243D01*
X17109200Y-5015557D01*
X17105177Y-5014882D01*
X17101164Y-5014216D01*
X17097162Y-5013560D01*
X17093171Y-5012914D01*
X17089191Y-5012278D01*
X17085223Y-5011652D01*
X17081266Y-5011036D01*
X17077322Y-5010429D01*
X17073390Y-5009833D01*
X17069471Y-5009246D01*
X17065565Y-5008669D01*
X17061672Y-5008103D01*
X17057793Y-5007546D01*
X17053929Y-5007000D01*
X17050079Y-5006463D01*
X17046244Y-5005937D01*
X17042424Y-5005421D01*
X17038620Y-5004915D01*
X17034832Y-5004419D01*
X17031062Y-5003933D01*
X17027308Y-5003457D01*
X17023572Y-5002992D01*
X17019854Y-5002537D01*
X17016155Y-5002092D01*
X17012475Y-5001658D01*
X17008815Y-5001233D01*
X17005176Y-5000819D01*
X17001558Y-5000416D01*
X16997962Y-5000023D01*
X16994388Y-4999640D01*
X16990837Y-4999267D01*
X16987311Y-4998906D01*
X16983810Y-4998554D01*
X16980334Y-4998213D01*
X16976885Y-4997883D01*
X16973464Y-4997563D01*
X16970071Y-4997254D01*
X16966708Y-4996955D01*
X16963376Y-4996667D01*
X16960077Y-4996390D01*
X16956811Y-4996123D01*
X16953580Y-4995867D01*
X16950386Y-4995622D01*
X16947229Y-4995388D01*
X16944113Y-4995164D01*
X16941039Y-4994952D01*
X16938009Y-4994750D01*
X16935025Y-4994559D01*
X16932091Y-4994379D01*
X16929208Y-4994210D01*
X16926380Y-4994051D01*
X16923611Y-4993904D01*
X16920905Y-4993768D01*
X16918266Y-4993643D01*
X16915700Y-4993529D01*
X16913213Y-4993427D01*
X16910813Y-4993335D01*
X16908509Y-4993254D01*
X16906311Y-4993185D01*
X16904235Y-4993127D01*
X16902301Y-4993080D01*
X16900536Y-4993044D01*
X16898984Y-4993019D01*
X16897724Y-4993005D01*
X16896900Y-4993000D01*
X16106900Y-14993000D02*
X17506900Y-14993000D01*
D11*
X13562677Y-15309484D02*
X13562677Y-15109484D01*
X13562677Y-15109484D02*
X13610296Y-15109484D01*
X13610296Y-15109484D02*
X13638867Y-15119008D01*
X13638867Y-15119008D02*
X13657915Y-15138055D01*
X13657915Y-15138055D02*
X13667439Y-15157103D01*
X13667439Y-15157103D02*
X13676962Y-15195198D01*
X13676962Y-15195198D02*
X13676962Y-15223769D01*
X13676962Y-15223769D02*
X13667439Y-15261865D01*
X13667439Y-15261865D02*
X13657915Y-15280912D01*
X13657915Y-15280912D02*
X13638867Y-15299960D01*
X13638867Y-15299960D02*
X13610296Y-15309484D01*
X13610296Y-15309484D02*
X13562677Y-15309484D01*
X13762677Y-15309484D02*
X13762677Y-15176150D01*
X13762677Y-15214246D02*
X13772201Y-15195198D01*
X13772201Y-15195198D02*
X13781724Y-15185674D01*
X13781724Y-15185674D02*
X13800772Y-15176150D01*
X13800772Y-15176150D02*
X13819820Y-15176150D01*
X13886486Y-15309484D02*
X13886486Y-15176150D01*
X13886486Y-15109484D02*
X13876962Y-15119008D01*
X13876962Y-15119008D02*
X13886486Y-15128531D01*
X13886486Y-15128531D02*
X13896010Y-15119008D01*
X13896010Y-15119008D02*
X13886486Y-15109484D01*
X13886486Y-15109484D02*
X13886486Y-15128531D01*
X14010296Y-15309484D02*
X13991248Y-15299960D01*
X13991248Y-15299960D02*
X13981724Y-15280912D01*
X13981724Y-15280912D02*
X13981724Y-15109484D01*
X14115058Y-15309484D02*
X14096010Y-15299960D01*
X14096010Y-15299960D02*
X14086486Y-15280912D01*
X14086486Y-15280912D02*
X14086486Y-15109484D01*
X14343629Y-15309484D02*
X14343629Y-15109484D01*
X14343629Y-15109484D02*
X14410296Y-15252341D01*
X14410296Y-15252341D02*
X14476962Y-15109484D01*
X14476962Y-15109484D02*
X14476962Y-15309484D01*
X14657915Y-15309484D02*
X14657915Y-15204722D01*
X14657915Y-15204722D02*
X14648391Y-15185674D01*
X14648391Y-15185674D02*
X14629343Y-15176150D01*
X14629343Y-15176150D02*
X14591248Y-15176150D01*
X14591248Y-15176150D02*
X14572201Y-15185674D01*
X14657915Y-15299960D02*
X14638867Y-15309484D01*
X14638867Y-15309484D02*
X14591248Y-15309484D01*
X14591248Y-15309484D02*
X14572201Y-15299960D01*
X14572201Y-15299960D02*
X14562677Y-15280912D01*
X14562677Y-15280912D02*
X14562677Y-15261865D01*
X14562677Y-15261865D02*
X14572201Y-15242817D01*
X14572201Y-15242817D02*
X14591248Y-15233293D01*
X14591248Y-15233293D02*
X14638867Y-15233293D01*
X14638867Y-15233293D02*
X14657915Y-15223769D01*
X14753153Y-15176150D02*
X14753153Y-15376150D01*
X14753153Y-15185674D02*
X14772201Y-15176150D01*
X14772201Y-15176150D02*
X14810296Y-15176150D01*
X14810296Y-15176150D02*
X14829343Y-15185674D01*
X14829343Y-15185674D02*
X14838867Y-15195198D01*
X14838867Y-15195198D02*
X14848391Y-15214246D01*
X14848391Y-15214246D02*
X14848391Y-15271388D01*
X14848391Y-15271388D02*
X14838867Y-15290436D01*
X14838867Y-15290436D02*
X14829343Y-15299960D01*
X14829343Y-15299960D02*
X14810296Y-15309484D01*
X14810296Y-15309484D02*
X14772201Y-15309484D01*
X14772201Y-15309484D02*
X14753153Y-15299960D01*
X14934105Y-15290436D02*
X14943629Y-15299960D01*
X14943629Y-15299960D02*
X14934105Y-15309484D01*
X14934105Y-15309484D02*
X14924582Y-15299960D01*
X14924582Y-15299960D02*
X14934105Y-15290436D01*
X14934105Y-15290436D02*
X14934105Y-15309484D01*
X14934105Y-15185674D02*
X14943629Y-15195198D01*
X14943629Y-15195198D02*
X14934105Y-15204722D01*
X14934105Y-15204722D02*
X14924582Y-15195198D01*
X14924582Y-15195198D02*
X14934105Y-15185674D01*
X14934105Y-15185674D02*
X14934105Y-15204722D01*
M02*
