G04 #@! TF.GenerationSoftware,KiCad,Pcbnew,9.0.0*
G04 #@! TF.CreationDate,2026-03-16T00:03:23+01:00*
G04 #@! TF.ProjectId,manufacturing_main,6d616e75-6661-4637-9475-72696e675f6d,rev?*
G04 #@! TF.SameCoordinates,Original*
G04 #@! TF.FileFunction,Copper,L2,Bot*
G04 #@! TF.FilePolarity,Positive*
%FSLAX46Y46*%
G04 Gerber Fmt 4.6, Leading zero omitted, Abs format (unit mm)*
G04 Created by KiCad (PCBNEW 9.0.0) date 2026-03-16 00:03:23*
%MOMM*%
%LPD*%
G01*
G04 APERTURE LIST*
G04 Aperture macros list*
%AMRoundRect*
0 Rectangle with rounded corners*
0 $1 Rounding radius*
0 $2 $3 $4 $5 $6 $7 $8 $9 X,Y pos of 4 corners*
0 Add a 4 corners polygon primitive as box body*
4,1,4,$2,$3,$4,$5,$6,$7,$8,$9,$2,$3,0*
0 Add four circle primitives for the rounded corners*
1,1,$1+$1,$2,$3*
1,1,$1+$1,$4,$5*
1,1,$1+$1,$6,$7*
1,1,$1+$1,$8,$9*
0 Add four rect primitives between the rounded corners*
20,1,$1+$1,$2,$3,$4,$5,0*
20,1,$1+$1,$4,$5,$6,$7,0*
20,1,$1+$1,$6,$7,$8,$9,0*
20,1,$1+$1,$8,$9,$2,$3,0*%
%AMRotRect*
0 Rectangle, with rotation*
0 The origin of the aperture is its center*
0 $1 length*
0 $2 width*
0 $3 Rotation angle, in degrees counterclockwise*
0 Add horizontal line*
21,1,$1,$2,0,0,$3*%
G04 Aperture macros list end*
G04 #@! TA.AperFunction,ComponentPad*
%ADD10C,3.000000*%
G04 #@! TD*
G04 #@! TA.AperFunction,SMDPad,CuDef*
%ADD11RoundRect,0.250000X-0.325000X-0.450000X0.325000X-0.450000X0.325000X0.450000X-0.325000X0.450000X0*%
G04 #@! TD*
G04 #@! TA.AperFunction,SMDPad,CuDef*
%ADD12RoundRect,0.250000X0.325000X0.450000X-0.325000X0.450000X-0.325000X-0.450000X0.325000X-0.450000X0*%
G04 #@! TD*
G04 #@! TA.AperFunction,SMDPad,CuDef*
%ADD13RoundRect,0.150000X0.750000X0.150000X-0.750000X0.150000X-0.750000X-0.150000X0.750000X-0.150000X0*%
G04 #@! TD*
G04 #@! TA.AperFunction,SMDPad,CuDef*
%ADD14RoundRect,0.125000X0.125000X-0.712500X0.125000X0.712500X-0.125000X0.712500X-0.125000X-0.712500X0*%
G04 #@! TD*
G04 #@! TA.AperFunction,SMDPad,CuDef*
%ADD15RoundRect,0.250000X-0.350000X-0.450000X0.350000X-0.450000X0.350000X0.450000X-0.350000X0.450000X0*%
G04 #@! TD*
G04 #@! TA.AperFunction,SMDPad,CuDef*
%ADD16RoundRect,0.250000X-0.250000X-0.750000X0.250000X-0.750000X0.250000X0.750000X-0.250000X0.750000X0*%
G04 #@! TD*
G04 #@! TA.AperFunction,SMDPad,CuDef*
%ADD17RoundRect,0.250000X0.350000X0.450000X-0.350000X0.450000X-0.350000X-0.450000X0.350000X-0.450000X0*%
G04 #@! TD*
G04 #@! TA.AperFunction,SMDPad,CuDef*
%ADD18RoundRect,0.150000X-0.825000X-0.150000X0.825000X-0.150000X0.825000X0.150000X-0.825000X0.150000X0*%
G04 #@! TD*
G04 #@! TA.AperFunction,SMDPad,CuDef*
%ADD19RoundRect,0.250000X-0.450000X0.350000X-0.450000X-0.350000X0.450000X-0.350000X0.450000X0.350000X0*%
G04 #@! TD*
G04 #@! TA.AperFunction,SMDPad,CuDef*
%ADD20RoundRect,0.250000X0.450000X-0.350000X0.450000X0.350000X-0.450000X0.350000X-0.450000X-0.350000X0*%
G04 #@! TD*
G04 #@! TA.AperFunction,SMDPad,CuDef*
%ADD21R,3.000000X2.000000*%
G04 #@! TD*
G04 #@! TA.AperFunction,SMDPad,CuDef*
%ADD22RoundRect,0.150000X0.150000X-0.750000X0.150000X0.750000X-0.150000X0.750000X-0.150000X-0.750000X0*%
G04 #@! TD*
G04 #@! TA.AperFunction,ComponentPad*
%ADD23RotRect,1.700000X1.700000X290.000000*%
G04 #@! TD*
G04 #@! TA.AperFunction,ComponentPad*
%ADD24C,1.700000*%
G04 #@! TD*
G04 #@! TA.AperFunction,ViaPad*
%ADD25C,0.800000*%
G04 #@! TD*
G04 #@! TA.AperFunction,Conductor*
%ADD26C,0.450000*%
G04 #@! TD*
G04 #@! TA.AperFunction,Conductor*
%ADD27C,0.250000*%
G04 #@! TD*
G04 APERTURE END LIST*
D10*
G04 #@! TO.P,J1,1,Pin_1*
G04 #@! TO.N,+BATT*
X157528000Y-138930000D03*
X178610000Y-138930000D03*
G04 #@! TD*
D11*
G04 #@! TO.P,D12,1,K*
G04 #@! TO.N,Net-(D12-K)*
X174625000Y-53730000D03*
G04 #@! TO.P,D12,2,A*
G04 #@! TO.N,/LED_Power_1*
X176675000Y-53730000D03*
G04 #@! TD*
D12*
G04 #@! TO.P,D17,1,K*
G04 #@! TO.N,Net-(D17-K)*
X145170000Y-70494000D03*
G04 #@! TO.P,D17,2,A*
G04 #@! TO.N,/LED_Power_1*
X143120000Y-70494000D03*
G04 #@! TD*
D13*
G04 #@! TO.P,D1,1,A*
G04 #@! TO.N,Net-(Q3-G)*
X161247000Y-144220000D03*
G04 #@! TO.P,D1,2,A*
G04 #@! TO.N,/Switch_in*
X161247000Y-146120000D03*
G04 #@! TO.P,D1,3,K*
G04 #@! TO.N,Net-(D1-K)*
X159047000Y-145170000D03*
G04 #@! TD*
D14*
G04 #@! TO.P,Q2,1,G*
G04 #@! TO.N,Net-(Q2-G)*
X171353000Y-138204500D03*
G04 #@! TO.P,Q2,2,S*
G04 #@! TO.N,VDD*
X170053000Y-138204500D03*
G04 #@! TO.P,Q2,3,D*
G04 #@! TO.N,/LED_Power_1*
X170703000Y-135879500D03*
G04 #@! TD*
D15*
G04 #@! TO.P,R21,1*
G04 #@! TO.N,Net-(D17-K)*
X147225000Y-70494000D03*
G04 #@! TO.P,R21,2*
G04 #@! TO.N,GND*
X149225000Y-70494000D03*
G04 #@! TD*
D14*
G04 #@! TO.P,Q1,1,G*
G04 #@! TO.N,Net-(Q1-G)*
X167147000Y-138204500D03*
G04 #@! TO.P,Q1,2,S*
G04 #@! TO.N,VDD*
X165847000Y-138204500D03*
G04 #@! TO.P,Q1,3,D*
G04 #@! TO.N,/LED_Power_3*
X166497000Y-135879500D03*
G04 #@! TD*
D16*
G04 #@! TO.P,,1*
G04 #@! TO.N,N/C*
X166497000Y-51444000D03*
G04 #@! TD*
D17*
G04 #@! TO.P,R14,1*
G04 #@! TO.N,Net-(D10-K)*
X194167000Y-86496000D03*
G04 #@! TO.P,R14,2*
G04 #@! TO.N,GND*
X192167000Y-86496000D03*
G04 #@! TD*
D15*
G04 #@! TO.P,R22,1*
G04 #@! TO.N,Net-(D18-K)*
X139825000Y-104530000D03*
G04 #@! TO.P,R22,2*
G04 #@! TO.N,GND*
X141825000Y-104530000D03*
G04 #@! TD*
D11*
G04 #@! TO.P,D19,1,K*
G04 #@! TO.N,Net-(D19-K)*
X197984000Y-124342000D03*
G04 #@! TO.P,D19,2,A*
G04 #@! TO.N,/LED_Power_2*
X200034000Y-124342000D03*
G04 #@! TD*
D18*
G04 #@! TO.P,U1,1,VCC*
G04 #@! TO.N,VDD*
X165611000Y-148091000D03*
G04 #@! TO.P,U1,2,PA6*
G04 #@! TO.N,/Power_sustain*
X165611000Y-146821000D03*
G04 #@! TO.P,U1,3,PA7*
G04 #@! TO.N,/Switch_in*
X165611000Y-145551000D03*
G04 #@! TO.P,U1,4,PA1*
G04 #@! TO.N,/LED_Set_3*
X165611000Y-144281000D03*
G04 #@! TO.P,U1,5,PA2*
G04 #@! TO.N,/LED_Set_1*
X170561000Y-144281000D03*
G04 #@! TO.P,U1,6,~{RESET}/PA0*
G04 #@! TO.N,/UDPI*
X170561000Y-145551000D03*
G04 #@! TO.P,U1,7,PA3*
G04 #@! TO.N,/LED_Set_2*
X170561000Y-146821000D03*
G04 #@! TO.P,U1,8,GND*
G04 #@! TO.N,GND*
X170561000Y-148091000D03*
G04 #@! TD*
D19*
G04 #@! TO.P,R16,1*
G04 #@! TO.N,Net-(D12-K)*
X172323000Y-53762000D03*
G04 #@! TO.P,R16,2*
G04 #@! TO.N,GND*
X172323000Y-55762000D03*
G04 #@! TD*
D17*
G04 #@! TO.P,R23,1*
G04 #@! TO.N,Net-(D19-K)*
X195707000Y-124342000D03*
G04 #@! TO.P,R23,2*
G04 #@! TO.N,GND*
X193707000Y-124342000D03*
G04 #@! TD*
D12*
G04 #@! TO.P,D9,1,K*
G04 #@! TO.N,Net-(D9-K)*
X145932000Y-141106000D03*
G04 #@! TO.P,D9,2,A*
G04 #@! TO.N,/LED_Power_3*
X143882000Y-141106000D03*
G04 #@! TD*
G04 #@! TO.P,D18,1,K*
G04 #@! TO.N,Net-(D18-K)*
X137541000Y-104530000D03*
G04 #@! TO.P,D18,2,A*
G04 #@! TO.N,/LED_Power_2*
X135491000Y-104530000D03*
G04 #@! TD*
D15*
G04 #@! TO.P,R2,1*
G04 #@! TO.N,/LED_Set_1*
X169799000Y-141868000D03*
G04 #@! TO.P,R2,2*
G04 #@! TO.N,Net-(Q2-G)*
X171799000Y-141868000D03*
G04 #@! TD*
D16*
G04 #@! TO.P,,1*
G04 #@! TO.N,N/C*
X169545000Y-51444000D03*
G04 #@! TD*
D14*
G04 #@! TO.P,Q3,1,G*
G04 #@! TO.N,Net-(Q3-G)*
X162941000Y-138312000D03*
G04 #@! TO.P,Q3,2,S*
G04 #@! TO.N,+BATT*
X161641000Y-138312000D03*
G04 #@! TO.P,Q3,3,D*
G04 #@! TO.N,VDD*
X162291000Y-135987000D03*
G04 #@! TD*
G04 #@! TO.P,Q5,1,G*
G04 #@! TO.N,Net-(Q5-G)*
X175417000Y-138312000D03*
G04 #@! TO.P,Q5,2,S*
G04 #@! TO.N,VDD*
X174117000Y-138312000D03*
G04 #@! TO.P,Q5,3,D*
G04 #@! TO.N,/LED_Power_2*
X174767000Y-135987000D03*
G04 #@! TD*
D15*
G04 #@! TO.P,R1,1*
G04 #@! TO.N,/LED_Set_3*
X164973000Y-141868000D03*
G04 #@! TO.P,R1,2*
G04 #@! TO.N,Net-(Q1-G)*
X166973000Y-141868000D03*
G04 #@! TD*
G04 #@! TO.P,R13,1*
G04 #@! TO.N,Net-(D9-K)*
X148234000Y-141082000D03*
G04 #@! TO.P,R13,2*
G04 #@! TO.N,GND*
X150234000Y-141082000D03*
G04 #@! TD*
D20*
G04 #@! TO.P,R5,1*
G04 #@! TO.N,/LED_Set_2*
X175387000Y-143884000D03*
G04 #@! TO.P,R5,2*
G04 #@! TO.N,Net-(Q5-G)*
X175387000Y-141884000D03*
G04 #@! TD*
D15*
G04 #@! TO.P,R4,1*
G04 #@! TO.N,Net-(Q4-B)*
X159909000Y-148472000D03*
G04 #@! TO.P,R4,2*
G04 #@! TO.N,/Power_sustain*
X161909000Y-148472000D03*
G04 #@! TD*
D21*
G04 #@! TO.P,J3,1,Pin_1*
G04 #@! TO.N,/LED_Power_1*
X170561000Y-106054000D03*
G04 #@! TO.P,J3,2,Pin_2*
G04 #@! TO.N,/LED_Power_2*
X170561000Y-109356000D03*
G04 #@! TO.P,J3,3,Pin_3*
G04 #@! TO.N,/LED_Power_3*
X170561000Y-112658000D03*
G04 #@! TO.P,J3,4,Pin_4*
G04 #@! TO.N,GND*
X170561000Y-115706000D03*
G04 #@! TD*
D22*
G04 #@! TO.P,Q4,1,B*
G04 #@! TO.N,Net-(Q4-B)*
X156271000Y-146016000D03*
G04 #@! TO.P,Q4,2,E*
G04 #@! TO.N,GND*
X154371000Y-146016000D03*
G04 #@! TO.P,Q4,3,C*
G04 #@! TO.N,Net-(Q3-G)*
X155321000Y-143816000D03*
G04 #@! TD*
D11*
G04 #@! TO.P,D10,1,K*
G04 #@! TO.N,Net-(D10-K)*
X196469000Y-86480000D03*
G04 #@! TO.P,D10,2,A*
G04 #@! TO.N,/LED_Power_1*
X198519000Y-86480000D03*
G04 #@! TD*
D23*
G04 #@! TO.P,J2,1,Pin_1*
G04 #@! TO.N,VDD*
X186409819Y-145825269D03*
D24*
G04 #@! TO.P,J2,2,Pin_2*
G04 #@! TO.N,GND*
X184023000Y-146694000D03*
G04 #@! TO.P,J2,3,Pin_3*
G04 #@! TO.N,/UDPI*
X181636180Y-147562731D03*
G04 #@! TD*
D15*
G04 #@! TO.P,R3,1*
G04 #@! TO.N,+BATT*
X160163000Y-141868000D03*
G04 #@! TO.P,R3,2*
G04 #@! TO.N,Net-(Q3-G)*
X162163000Y-141868000D03*
G04 #@! TD*
D25*
G04 #@! TO.N,/LED_Power_1*
X142875000Y-72526000D03*
G04 #@! TO.N,GND*
X177927000Y-143900000D03*
X147828000Y-144154000D03*
X163703000Y-122691000D03*
G04 #@! TO.N,/UDPI*
X172466000Y-145551000D03*
G04 #@! TO.N,GND*
X171323000Y-115198000D03*
X172720000Y-126882000D03*
X172339000Y-131327000D03*
X144907000Y-87131000D03*
X193167000Y-104530000D03*
X169799000Y-115198000D03*
X159385000Y-132470000D03*
X154432000Y-147583000D03*
X163068000Y-57667000D03*
X171323000Y-116214000D03*
X143510000Y-104530000D03*
X166497000Y-116214000D03*
X168275000Y-131454000D03*
X182245000Y-142884000D03*
X151130000Y-70621000D03*
X175641000Y-102244000D03*
X170180000Y-103006000D03*
X172847000Y-147964000D03*
X169799000Y-116214000D03*
X164973000Y-116214000D03*
X168656000Y-127517000D03*
X153543000Y-140217000D03*
X157861000Y-106816000D03*
X144399000Y-134375000D03*
X162560000Y-107578000D03*
X163449000Y-100466000D03*
X171450000Y-90306000D03*
X173228000Y-97799000D03*
X190500000Y-86496000D03*
X164846000Y-91576000D03*
X184912000Y-68970000D03*
X166497000Y-115198000D03*
X177673000Y-133105000D03*
X158115000Y-117103000D03*
X170307000Y-121802000D03*
X172212000Y-57413000D03*
X191770000Y-124469000D03*
X143256000Y-123326000D03*
X185674000Y-139709000D03*
X173228000Y-140344000D03*
X164973000Y-115198000D03*
G04 #@! TO.N,/LED_Power_3*
X169799000Y-112150000D03*
G04 #@! TO.N,/LED_Power_2*
X136779000Y-89544000D03*
X166497000Y-108848000D03*
X166497000Y-109864000D03*
G04 #@! TO.N,/LED_Power_3*
X164973000Y-113166000D03*
G04 #@! TO.N,/LED_Power_2*
X164973000Y-108848000D03*
X169799000Y-109864000D03*
G04 #@! TO.N,/LED_Power_3*
X169799000Y-113166000D03*
G04 #@! TO.N,/LED_Power_2*
X192430000Y-71510000D03*
X164973000Y-109864000D03*
X171323000Y-109864000D03*
X171323000Y-108848000D03*
X163195000Y-109356000D03*
G04 #@! TO.N,/LED_Power_3*
X159893000Y-107070000D03*
G04 #@! TO.N,/LED_Power_2*
X169799000Y-108848000D03*
G04 #@! TO.N,/LED_Power_3*
X171323000Y-113166000D03*
X166497000Y-134248000D03*
X161925000Y-112912000D03*
X166497000Y-131708000D03*
X166497000Y-113166000D03*
G04 #@! TO.N,/LED_Power_1*
X169799000Y-105546000D03*
G04 #@! TO.N,/LED_Power_3*
X166497000Y-112150000D03*
X171323000Y-112150000D03*
X159893000Y-112912000D03*
X172339000Y-117992000D03*
X164973000Y-112150000D03*
G04 #@! TO.N,/LED_Power_1*
X166497000Y-106562000D03*
G04 #@! TO.N,/LED_Power_3*
X158877000Y-56270000D03*
G04 #@! TO.N,*
X166497000Y-51444000D03*
G04 #@! TO.N,/LED_Power_1*
X171323000Y-106562000D03*
X171323000Y-105546000D03*
G04 #@! TO.N,*
X169545000Y-51444000D03*
G04 #@! TO.N,/LED_Power_1*
X173609000Y-106054000D03*
X170815000Y-125612000D03*
X166497000Y-105546000D03*
X170703000Y-134360000D03*
X164973000Y-105546000D03*
X164973000Y-106562000D03*
X176657000Y-55508000D03*
G04 #@! TO.N,Net-(D1-K)*
X158369000Y-146694000D03*
G04 #@! TO.N,/LED_Power_1*
X165227000Y-126120000D03*
X169799000Y-106562000D03*
X198501000Y-89036000D03*
G04 #@! TD*
D26*
G04 #@! TO.N,Net-(D1-K)*
X159047000Y-146016000D02*
X158369000Y-146694000D01*
G04 #@! TO.N,Net-(Q1-G)*
X167147000Y-138204500D02*
X167147000Y-141694000D01*
X167147000Y-141694000D02*
X166973000Y-141868000D01*
G04 #@! TO.N,/Switch_in*
X161816000Y-145551000D02*
X161247000Y-146120000D01*
G04 #@! TO.N,Net-(D1-K)*
X159047000Y-145170000D02*
X159047000Y-146016000D01*
G04 #@! TO.N,/Switch_in*
X165611000Y-145551000D02*
X161816000Y-145551000D01*
G04 #@! TO.N,/UDPI*
X170561000Y-145551000D02*
X172466000Y-145551000D01*
G04 #@! TO.N,+BATT*
X161641000Y-138312000D02*
X161387000Y-138058000D01*
X158400000Y-138058000D02*
X157528000Y-138930000D01*
G04 #@! TO.N,VDD*
X172593000Y-136280000D02*
X172593000Y-133994000D01*
G04 #@! TO.N,Net-(D18-K)*
X137541000Y-104530000D02*
X139825000Y-104530000D01*
G04 #@! TO.N,Net-(Q3-G)*
X155405000Y-143900000D02*
X157861000Y-143900000D01*
G04 #@! TO.N,/LED_Set_2*
X173736000Y-146821000D02*
X170561000Y-146821000D01*
G04 #@! TO.N,/LED_Set_1*
X169799000Y-143519000D02*
X170561000Y-144281000D01*
G04 #@! TO.N,/LED_Set_3*
X164973000Y-143643000D02*
X164973000Y-141868000D01*
G04 #@! TO.N,Net-(Q4-B)*
X156271000Y-147390000D02*
X157353000Y-148472000D01*
G04 #@! TO.N,VDD*
X179959000Y-144408000D02*
X184634775Y-144408000D01*
G04 #@! TO.N,Net-(Q5-G)*
X175417000Y-138312000D02*
X175417000Y-141854000D01*
D27*
X175417000Y-141854000D02*
X175387000Y-141884000D01*
D26*
G04 #@! TO.N,Net-(Q4-B)*
X157353000Y-148472000D02*
X159909000Y-148472000D01*
G04 #@! TO.N,+BATT*
X161387000Y-138058000D02*
X158400000Y-138058000D01*
G04 #@! TO.N,VDD*
X165847000Y-138204500D02*
X165847000Y-137662000D01*
X163703000Y-133232000D02*
X162291000Y-134644000D01*
G04 #@! TO.N,Net-(Q4-B)*
X156271000Y-146016000D02*
X156271000Y-147390000D01*
G04 #@! TO.N,VDD*
X174117000Y-137804000D02*
X172593000Y-136280000D01*
X164211000Y-136026000D02*
X162330000Y-136026000D01*
D27*
X165611000Y-148091000D02*
X167640000Y-148091000D01*
D26*
G04 #@! TO.N,Net-(Q2-G)*
X171799000Y-140344000D02*
X171799000Y-141868000D01*
G04 #@! TO.N,VDD*
X170053000Y-138204500D02*
X168421500Y-138204500D01*
G04 #@! TO.N,+BATT*
X160163000Y-141565000D02*
X157528000Y-138930000D01*
G04 #@! TO.N,VDD*
X162330000Y-136026000D02*
X162291000Y-135987000D01*
G04 #@! TO.N,/Power_sustain*
X163560000Y-146821000D02*
X161909000Y-148472000D01*
G04 #@! TO.N,/LED_Set_3*
X165611000Y-144281000D02*
X164973000Y-143643000D01*
G04 #@! TO.N,Net-(Q3-G)*
X162941000Y-141090000D02*
X162163000Y-141868000D01*
X158181000Y-144220000D02*
X161247000Y-144220000D01*
G04 #@! TO.N,VDD*
X174117000Y-138312000D02*
X174117000Y-137804000D01*
X167513000Y-148091000D02*
X168402000Y-148980000D01*
G04 #@! TO.N,/Power_sustain*
X165611000Y-146821000D02*
X163560000Y-146821000D01*
G04 #@! TO.N,/LED_Set_2*
X175387000Y-143884000D02*
X175387000Y-145170000D01*
G04 #@! TO.N,VDD*
X168421500Y-147309500D02*
X168421500Y-138204500D01*
G04 #@! TO.N,Net-(Q3-G)*
X157861000Y-143900000D02*
X158181000Y-144220000D01*
D27*
G04 #@! TO.N,+BATT*
X160163000Y-141868000D02*
X160163000Y-141565000D01*
D26*
G04 #@! TO.N,Net-(D19-K)*
X195707000Y-124342000D02*
X197984000Y-124342000D01*
G04 #@! TO.N,Net-(Q2-G)*
X171353000Y-138204500D02*
X171353000Y-139898000D01*
G04 #@! TO.N,Net-(Q3-G)*
X162941000Y-138312000D02*
X162941000Y-141090000D01*
D27*
X155321000Y-143816000D02*
X155405000Y-143900000D01*
D26*
G04 #@! TO.N,/LED_Set_2*
X175387000Y-145170000D02*
X173736000Y-146821000D01*
G04 #@! TO.N,VDD*
X167640000Y-148091000D02*
X168421500Y-147309500D01*
G04 #@! TO.N,/LED_Set_1*
X169799000Y-141868000D02*
X169799000Y-143519000D01*
G04 #@! TO.N,Net-(Q3-G)*
X162163000Y-143304000D02*
X162163000Y-141868000D01*
X161247000Y-144220000D02*
X162163000Y-143304000D01*
G04 #@! TO.N,VDD*
X168421500Y-138204500D02*
X168421500Y-133378500D01*
X168421500Y-133378500D02*
X168275000Y-133232000D01*
X164719000Y-133232000D02*
X163703000Y-133232000D01*
G04 #@! TO.N,Net-(Q2-G)*
X171353000Y-139898000D02*
X171799000Y-140344000D01*
G04 #@! TO.N,VDD*
X165611000Y-148091000D02*
X167513000Y-148091000D01*
D27*
G04 #@! TO.N,/LED_Power_2*
X143383000Y-96148000D02*
X156591000Y-109356000D01*
G04 #@! TO.N,VDD*
X186052044Y-145825269D02*
X186409819Y-145825269D01*
G04 #@! TO.N,/LED_Power_2*
X135872000Y-104040000D02*
X143573500Y-96338500D01*
D26*
G04 #@! TO.N,VDD*
X171831000Y-133232000D02*
X168275000Y-133232000D01*
X184634775Y-144408000D02*
X186052044Y-145825269D01*
G04 #@! TO.N,/LED_Power_2*
X174655000Y-109356000D02*
X174767000Y-109468000D01*
D27*
X135491000Y-104040000D02*
X135872000Y-104040000D01*
D26*
G04 #@! TO.N,VDD*
X162291000Y-134644000D02*
X162291000Y-135987000D01*
D27*
G04 #@! TO.N,/LED_Power_2*
X170053000Y-99196000D02*
X174655000Y-103798000D01*
D26*
G04 #@! TO.N,VDD*
X175387000Y-148980000D02*
X179959000Y-144408000D01*
D27*
G04 #@! TO.N,/LED_Power_2*
X192430000Y-71739000D02*
X170053000Y-94116000D01*
D26*
G04 #@! TO.N,Net-(D12-K)*
X172355000Y-53730000D02*
X172323000Y-53762000D01*
G04 #@! TO.N,/LED_Power_2*
X174767000Y-121548000D02*
X174767000Y-135987000D01*
D27*
X174655000Y-103798000D02*
X174655000Y-109356000D01*
X143573500Y-96338500D02*
X143383000Y-96148000D01*
D26*
X163195000Y-109356000D02*
X163195000Y-116976000D01*
D27*
X192430000Y-71510000D02*
X192430000Y-71739000D01*
D26*
G04 #@! TO.N,VDD*
X165847000Y-137662000D02*
X164211000Y-136026000D01*
X168275000Y-133232000D02*
X164719000Y-133232000D01*
X168402000Y-148980000D02*
X175387000Y-148980000D01*
X172593000Y-133994000D02*
X171831000Y-133232000D01*
G04 #@! TO.N,/LED_Power_2*
X163195000Y-116976000D02*
X165481000Y-119262000D01*
D27*
X200034000Y-123335000D02*
X198247000Y-121548000D01*
D26*
G04 #@! TO.N,Net-(D17-K)*
X145170000Y-70494000D02*
X147225000Y-70494000D01*
D27*
G04 #@! TO.N,/LED_Power_2*
X198247000Y-121548000D02*
X174767000Y-121548000D01*
D26*
G04 #@! TO.N,Net-(D12-K)*
X174625000Y-53730000D02*
X172355000Y-53730000D01*
D27*
G04 #@! TO.N,/LED_Power_2*
X156591000Y-109356000D02*
X163195000Y-109356000D01*
D26*
G04 #@! TO.N,/LED_Power_3*
X159893000Y-112912000D02*
X161925000Y-112912000D01*
G04 #@! TO.N,/LED_Power_2*
X170561000Y-109356000D02*
X174655000Y-109356000D01*
X174767000Y-109468000D02*
X174767000Y-121548000D01*
D27*
G04 #@! TO.N,/LED_Power_3*
X166243000Y-100720000D02*
X166243000Y-63636000D01*
D26*
X173609000Y-113674000D02*
X172593000Y-112658000D01*
X172593000Y-112658000D02*
X170561000Y-112658000D01*
D27*
X143891000Y-141106000D02*
X146939000Y-138058000D01*
X153289000Y-138058000D02*
X155575000Y-135772000D01*
D26*
X172339000Y-117992000D02*
X173609000Y-116722000D01*
G04 #@! TO.N,Net-(D10-K)*
X196453000Y-86496000D02*
X196469000Y-86480000D01*
D27*
G04 #@! TO.N,/LED_Power_2*
X200034000Y-124342000D02*
X200034000Y-123335000D01*
D26*
X174767000Y-119262000D02*
X174767000Y-121548000D01*
X165481000Y-119262000D02*
X174767000Y-119262000D01*
G04 #@! TO.N,Net-(D9-K)*
X145932000Y-141106000D02*
X148210000Y-141106000D01*
G04 #@! TO.N,/LED_Power_3*
X166497000Y-135879500D02*
X166497000Y-134248000D01*
D27*
X143882000Y-141106000D02*
X143891000Y-141106000D01*
X155575000Y-135772000D02*
X158877000Y-135772000D01*
G04 #@! TO.N,/LED_Power_2*
X170053000Y-94116000D02*
X170053000Y-99196000D01*
G04 #@! TO.N,/LED_Power_3*
X146939000Y-138058000D02*
X153289000Y-138058000D01*
X159893000Y-107070000D02*
X166243000Y-100720000D01*
X166243000Y-63636000D02*
X158877000Y-56270000D01*
X158877000Y-135772000D02*
X162941000Y-131708000D01*
D26*
G04 #@! TO.N,/LED_Power_2*
X135491000Y-104530000D02*
X135491000Y-104040000D01*
D27*
G04 #@! TO.N,/LED_Power_3*
X162941000Y-131708000D02*
X166497000Y-131708000D01*
G04 #@! TO.N,/LED_Power_2*
X136779000Y-89544000D02*
X143383000Y-96148000D01*
D26*
G04 #@! TO.N,Net-(D10-K)*
X194167000Y-86496000D02*
X196453000Y-86496000D01*
G04 #@! TO.N,/LED_Power_3*
X173609000Y-116722000D02*
X173609000Y-113674000D01*
G04 #@! TO.N,Net-(D9-K)*
X148210000Y-141106000D02*
X148234000Y-141082000D01*
D27*
G04 #@! TO.N,/LED_Power_1*
X198519000Y-89018000D02*
X198519000Y-86480000D01*
X142875000Y-72526000D02*
X142875000Y-70739000D01*
X176675000Y-53730000D02*
X176675000Y-55490000D01*
X142875000Y-70739000D02*
X143120000Y-70494000D01*
D26*
X170561000Y-106054000D02*
X173609000Y-106054000D01*
D27*
X170307000Y-126120000D02*
X165227000Y-126120000D01*
X176675000Y-55490000D02*
X176657000Y-55508000D01*
X198501000Y-89036000D02*
X198519000Y-89018000D01*
D26*
X170703000Y-135879500D02*
X170703000Y-134360000D01*
D27*
X170815000Y-125612000D02*
X170307000Y-126120000D01*
G04 #@! TD*
G04 #@! TA.AperFunction,Conductor*
G04 #@! TO.N,GND*
G36*
X184453493Y-144903185D02*
G01*
X184474135Y-144919819D01*
X184944414Y-145390098D01*
X184977899Y-145451421D01*
X184972915Y-145521113D01*
X184931043Y-145577046D01*
X184865579Y-145601463D01*
X184826746Y-145593015D01*
X184810251Y-145597281D01*
X184433556Y-146405106D01*
X184423099Y-146386993D01*
X184330007Y-146293901D01*
X184215993Y-146228075D01*
X184088826Y-146194000D01*
X183980307Y-146194000D01*
X184358269Y-145383462D01*
X184339123Y-145377241D01*
X184129246Y-145344000D01*
X183916754Y-145344000D01*
X183706872Y-145377242D01*
X183706869Y-145377242D01*
X183504782Y-145442904D01*
X183315442Y-145539379D01*
X183143540Y-145664272D01*
X183143535Y-145664276D01*
X182993280Y-145814531D01*
X182993280Y-145814532D01*
X182926281Y-145906746D01*
X183734108Y-146283442D01*
X183715993Y-146293901D01*
X183622901Y-146386993D01*
X183557075Y-146501007D01*
X183523000Y-146628174D01*
X183523000Y-146736690D01*
X182712462Y-146358730D01*
X182712461Y-146358730D01*
X182706242Y-146377870D01*
X182673000Y-146587753D01*
X182673000Y-146743847D01*
X182653315Y-146810886D01*
X182600511Y-146856641D01*
X182531353Y-146866585D01*
X182467797Y-146837560D01*
X182461319Y-146831528D01*
X182353110Y-146723319D01*
X182353108Y-146723317D01*
X182212968Y-146621499D01*
X182058625Y-146542858D01*
X181893881Y-146489329D01*
X181893879Y-146489328D01*
X181893878Y-146489328D01*
X181762451Y-146468512D01*
X181722791Y-146462231D01*
X181549569Y-146462231D01*
X181509908Y-146468512D01*
X181378482Y-146489328D01*
X181213732Y-146542859D01*
X181059391Y-146621499D01*
X180991948Y-146670500D01*
X180919252Y-146723317D01*
X180919250Y-146723319D01*
X180919249Y-146723319D01*
X180796768Y-146845800D01*
X180796768Y-146845801D01*
X180796766Y-146845803D01*
X180753039Y-146905987D01*
X180694948Y-146985942D01*
X180616308Y-147140283D01*
X180562777Y-147305033D01*
X180535680Y-147476120D01*
X180535680Y-147649341D01*
X180558071Y-147790717D01*
X180562778Y-147820432D01*
X180616307Y-147985176D01*
X180694948Y-148139519D01*
X180796766Y-148279659D01*
X180919252Y-148402145D01*
X181024357Y-148478508D01*
X181059393Y-148503964D01*
X181128021Y-148538931D01*
X181147723Y-148557539D01*
X181169698Y-148573405D01*
X181172749Y-148581174D01*
X181178817Y-148586905D01*
X181185331Y-148613209D01*
X181195240Y-148638438D01*
X181193606Y-148646624D01*
X181195613Y-148654726D01*
X181186871Y-148680378D01*
X181181568Y-148706957D01*
X181175768Y-148712960D01*
X181173076Y-148720861D01*
X181151851Y-148737716D01*
X181133022Y-148757207D01*
X181121718Y-148761646D01*
X181118361Y-148764313D01*
X181100171Y-148770110D01*
X180949621Y-148805590D01*
X180945194Y-148806548D01*
X179959891Y-149001067D01*
X179955473Y-149001856D01*
X178967700Y-149159965D01*
X178963291Y-149160590D01*
X177982200Y-149281684D01*
X177977802Y-149282148D01*
X177017616Y-149366030D01*
X177013250Y-149366333D01*
X176097824Y-149413835D01*
X176093684Y-149413981D01*
X175923975Y-149417110D01*
X175856584Y-149398665D01*
X175809863Y-149346713D01*
X175798647Y-149277750D01*
X175826495Y-149213670D01*
X175833997Y-149205461D01*
X180119640Y-144919819D01*
X180180963Y-144886334D01*
X180207321Y-144883500D01*
X184386454Y-144883500D01*
X184453493Y-144903185D01*
G37*
G04 #@! TD.AperFunction*
G04 #@! TA.AperFunction,Conductor*
G36*
X170438517Y-50562996D02*
G01*
X171042262Y-50657125D01*
X171164661Y-50676208D01*
X171169641Y-50677089D01*
X172030805Y-50847584D01*
X172035566Y-50848625D01*
X172903628Y-51056425D01*
X172931654Y-51063134D01*
X172936286Y-51064338D01*
X173853949Y-51321849D01*
X173858417Y-51323195D01*
X174788707Y-51622790D01*
X174793098Y-51624295D01*
X175729731Y-51965177D01*
X175733932Y-51966795D01*
X176672258Y-52348265D01*
X176676445Y-52350058D01*
X177104125Y-52542533D01*
X177157181Y-52587996D01*
X177177234Y-52654926D01*
X177157919Y-52722073D01*
X177105368Y-52768118D01*
X177051194Y-52778553D01*
X177051194Y-52779500D01*
X176302129Y-52779500D01*
X176302123Y-52779501D01*
X176242516Y-52785908D01*
X176107671Y-52836202D01*
X176107664Y-52836206D01*
X175992455Y-52922452D01*
X175992452Y-52922455D01*
X175906206Y-53037664D01*
X175906202Y-53037671D01*
X175855908Y-53172517D01*
X175849754Y-53229767D01*
X175849501Y-53232123D01*
X175849500Y-53232135D01*
X175849500Y-54227870D01*
X175849501Y-54227876D01*
X175855908Y-54287483D01*
X175906202Y-54422328D01*
X175906206Y-54422335D01*
X175992452Y-54537544D01*
X175992455Y-54537547D01*
X176107664Y-54623793D01*
X176107673Y-54623798D01*
X176218832Y-54665257D01*
X176236558Y-54678526D01*
X176256703Y-54687726D01*
X176263984Y-54699056D01*
X176274766Y-54707127D01*
X176282504Y-54727874D01*
X176294477Y-54746504D01*
X176297628Y-54768421D01*
X176299184Y-54772592D01*
X176299500Y-54781439D01*
X176299500Y-54898245D01*
X176279815Y-54965284D01*
X176246944Y-54998748D01*
X176247037Y-54998862D01*
X176245984Y-54999725D01*
X176244396Y-55001343D01*
X176242337Y-55002718D01*
X176242325Y-55002728D01*
X176151726Y-55093327D01*
X176151723Y-55093331D01*
X176080538Y-55199866D01*
X176080533Y-55199875D01*
X176031499Y-55318255D01*
X176031497Y-55318261D01*
X176006500Y-55443928D01*
X176006500Y-55443931D01*
X176006500Y-55572069D01*
X176006500Y-55572071D01*
X176006499Y-55572071D01*
X176031497Y-55697738D01*
X176031499Y-55697744D01*
X176080533Y-55816124D01*
X176080538Y-55816133D01*
X176151723Y-55922668D01*
X176151726Y-55922672D01*
X176242327Y-56013273D01*
X176242331Y-56013276D01*
X176348866Y-56084461D01*
X176348872Y-56084464D01*
X176348873Y-56084465D01*
X176467256Y-56133501D01*
X176467260Y-56133501D01*
X176467261Y-56133502D01*
X176592928Y-56158500D01*
X176592931Y-56158500D01*
X176721071Y-56158500D01*
X176805615Y-56141682D01*
X176846744Y-56133501D01*
X176965127Y-56084465D01*
X177071669Y-56013276D01*
X177162276Y-55922669D01*
X177233465Y-55816127D01*
X177282501Y-55697744D01*
X177307500Y-55572069D01*
X177307500Y-55443931D01*
X177307500Y-55443928D01*
X177282502Y-55318261D01*
X177282501Y-55318260D01*
X177282501Y-55318256D01*
X177233465Y-55199873D01*
X177233464Y-55199872D01*
X177233461Y-55199866D01*
X177162276Y-55093331D01*
X177162273Y-55093327D01*
X177086819Y-55017873D01*
X177072115Y-54990945D01*
X177055523Y-54965127D01*
X177054631Y-54958926D01*
X177053334Y-54956550D01*
X177050500Y-54930192D01*
X177050500Y-54781439D01*
X177070185Y-54714400D01*
X177122989Y-54668645D01*
X177131168Y-54665257D01*
X177242326Y-54623798D01*
X177242326Y-54623797D01*
X177242331Y-54623796D01*
X177357546Y-54537546D01*
X177443796Y-54422331D01*
X177494091Y-54287483D01*
X177500500Y-54227873D01*
X177500499Y-53232128D01*
X177495112Y-53182011D01*
X177494091Y-53172516D01*
X177443797Y-53037671D01*
X177443793Y-53037664D01*
X177357547Y-52922455D01*
X177352545Y-52917453D01*
X177346252Y-52905928D01*
X177336282Y-52897385D01*
X177329831Y-52875855D01*
X177319060Y-52856130D01*
X177319996Y-52843033D01*
X177316228Y-52830456D01*
X177322440Y-52808858D01*
X177324044Y-52786438D01*
X177331913Y-52775925D01*
X177335543Y-52763309D01*
X177352446Y-52748498D01*
X177365916Y-52730505D01*
X177378217Y-52725916D01*
X177388094Y-52717263D01*
X177410322Y-52713941D01*
X177431380Y-52706088D01*
X177445778Y-52708644D01*
X177457196Y-52706939D01*
X177491108Y-52716693D01*
X177612919Y-52771513D01*
X177616894Y-52773390D01*
X178548928Y-53234402D01*
X178552902Y-53236458D01*
X178955410Y-53454007D01*
X179478330Y-53736635D01*
X179482193Y-53738813D01*
X180399475Y-54277970D01*
X180403172Y-54280233D01*
X181310985Y-54858234D01*
X181314590Y-54860619D01*
X182211895Y-55477454D01*
X182215361Y-55479927D01*
X182934200Y-56012000D01*
X183101184Y-56135599D01*
X183104588Y-56138211D01*
X183263648Y-56264690D01*
X183978237Y-56832908D01*
X183981485Y-56835583D01*
X184423533Y-57212483D01*
X184842290Y-57569525D01*
X184845435Y-57572300D01*
X185692849Y-58345817D01*
X185695848Y-58348648D01*
X185849891Y-58498991D01*
X186529358Y-59162139D01*
X186532235Y-59165040D01*
X187351372Y-60018981D01*
X187354112Y-60021932D01*
X188158377Y-60916807D01*
X188160980Y-60919799D01*
X188949961Y-61856247D01*
X188952428Y-61859269D01*
X189725680Y-62837942D01*
X189727999Y-62840973D01*
X190017107Y-63231101D01*
X190485025Y-63862519D01*
X190487221Y-63865578D01*
X191227617Y-64930837D01*
X191229680Y-64933902D01*
X191952884Y-66043568D01*
X191954817Y-66046631D01*
X192660387Y-67201631D01*
X192662193Y-67204685D01*
X193350658Y-68407757D01*
X193351929Y-68410033D01*
X193686991Y-69025201D01*
X193687802Y-69026716D01*
X194020302Y-69657839D01*
X194021084Y-69659347D01*
X194171993Y-69955559D01*
X194318942Y-70244000D01*
X194347692Y-70300431D01*
X194348444Y-70301932D01*
X194671181Y-70957211D01*
X194671905Y-70958706D01*
X194988671Y-71624202D01*
X194989366Y-71625689D01*
X195301997Y-72305543D01*
X195302665Y-72307021D01*
X195609312Y-72997515D01*
X195609953Y-72998984D01*
X195912193Y-73703988D01*
X195912808Y-73705448D01*
X196208959Y-74421364D01*
X196209548Y-74422813D01*
X196501033Y-75153413D01*
X196501597Y-75154852D01*
X196786951Y-75896824D01*
X196787490Y-75898252D01*
X197067877Y-76654985D01*
X197068392Y-76656402D01*
X197342565Y-77424914D01*
X197343057Y-77426319D01*
X197612009Y-78209791D01*
X197612478Y-78211184D01*
X197875096Y-79006782D01*
X197875543Y-79008162D01*
X198132698Y-79818963D01*
X198133123Y-79820331D01*
X198316120Y-80421320D01*
X198383774Y-80643503D01*
X198384178Y-80644858D01*
X198629154Y-81483591D01*
X198629537Y-81484932D01*
X198867842Y-82336310D01*
X198868206Y-82337638D01*
X199100564Y-83204753D01*
X199100909Y-83206068D01*
X199326502Y-84086411D01*
X199326828Y-84087712D01*
X199546164Y-84983828D01*
X199546471Y-84985114D01*
X199758859Y-85894757D01*
X199759149Y-85896030D01*
X199965050Y-86821800D01*
X199965323Y-86823058D01*
X200164105Y-87762756D01*
X200164362Y-87764001D01*
X200356370Y-88719949D01*
X200356610Y-88721178D01*
X200541328Y-89691507D01*
X200541554Y-89692723D01*
X200719246Y-90679604D01*
X200719456Y-90680805D01*
X200889645Y-91682386D01*
X200889840Y-91683572D01*
X201052692Y-92701645D01*
X201052874Y-92702817D01*
X201208084Y-93736408D01*
X201208252Y-93737565D01*
X201355842Y-94787778D01*
X201355998Y-94788922D01*
X201495719Y-95855025D01*
X201495861Y-95856153D01*
X201627680Y-96938968D01*
X201627811Y-96940082D01*
X201751540Y-98039247D01*
X201751659Y-98040348D01*
X201867262Y-99156881D01*
X201867369Y-99157966D01*
X201974587Y-100290724D01*
X201974684Y-100291796D01*
X202073517Y-101442277D01*
X202073603Y-101443334D01*
X202163813Y-102610479D01*
X202163889Y-102611523D01*
X202245427Y-103796498D01*
X202245494Y-103797527D01*
X202318189Y-105000002D01*
X202318246Y-105001018D01*
X202381961Y-106221054D01*
X202382010Y-106222056D01*
X202436636Y-107460339D01*
X202436675Y-107461327D01*
X202482053Y-108717474D01*
X202482085Y-108718449D01*
X202518090Y-109992970D01*
X202518113Y-109993932D01*
X202544599Y-111286782D01*
X202544615Y-111287731D01*
X202561448Y-112599186D01*
X202561456Y-112600121D01*
X202568488Y-113929174D01*
X202568488Y-113930535D01*
X202563554Y-114798165D01*
X202563538Y-114799596D01*
X202548839Y-115652796D01*
X202548805Y-115654250D01*
X202524533Y-116492238D01*
X202524481Y-116493716D01*
X202490779Y-117317582D01*
X202490709Y-117319084D01*
X202447756Y-118128601D01*
X202447665Y-118130127D01*
X202395618Y-118925587D01*
X202395507Y-118927137D01*
X202334525Y-119708715D01*
X202334392Y-119710288D01*
X202264639Y-120478066D01*
X202264484Y-120479663D01*
X202186101Y-121233966D01*
X202185922Y-121235587D01*
X202099063Y-121976555D01*
X202098859Y-121978199D01*
X202003661Y-122706064D01*
X202003431Y-122707731D01*
X201900090Y-123422321D01*
X201899834Y-123424010D01*
X201788405Y-124126094D01*
X201788121Y-124127806D01*
X201668837Y-124816925D01*
X201668524Y-124818659D01*
X201541406Y-125495657D01*
X201541064Y-125497412D01*
X201406379Y-126161738D01*
X201406005Y-126163515D01*
X201263698Y-126816209D01*
X201263292Y-126818005D01*
X201113745Y-127458083D01*
X201113306Y-127459900D01*
X200956324Y-128088862D01*
X200955851Y-128090697D01*
X200791892Y-128707344D01*
X200791384Y-128709197D01*
X200620177Y-129315127D01*
X200619633Y-129316998D01*
X200441727Y-129910819D01*
X200441145Y-129912706D01*
X200256120Y-130496326D01*
X200255500Y-130498228D01*
X200064085Y-131069824D01*
X200063426Y-131071740D01*
X199864979Y-131633664D01*
X199864280Y-131635593D01*
X199659702Y-132185713D01*
X199658961Y-132187654D01*
X199447509Y-132728353D01*
X199446727Y-132730304D01*
X199229387Y-133259433D01*
X199228562Y-133261393D01*
X199004361Y-133781657D01*
X199003493Y-133783625D01*
X198773709Y-134292380D01*
X198772797Y-134294354D01*
X198536128Y-134794769D01*
X198535171Y-134796747D01*
X198294432Y-135283270D01*
X198292913Y-135286237D01*
X197788935Y-136239414D01*
X197786748Y-136243375D01*
X197260387Y-137156608D01*
X197258013Y-137160555D01*
X196708350Y-138037270D01*
X196705791Y-138041186D01*
X196133129Y-138882323D01*
X196130384Y-138886194D01*
X195534948Y-139692628D01*
X195532020Y-139696436D01*
X194913974Y-140468984D01*
X194910868Y-140472714D01*
X194270335Y-141212081D01*
X194267057Y-141215717D01*
X193604055Y-141922598D01*
X193600613Y-141926125D01*
X192915181Y-142601048D01*
X192911585Y-142604451D01*
X192203617Y-143247961D01*
X192199876Y-143251226D01*
X191469425Y-143863602D01*
X191465553Y-143866718D01*
X190712516Y-144448276D01*
X190708526Y-144451232D01*
X189932828Y-145002162D01*
X189928734Y-145004949D01*
X189130345Y-145525315D01*
X189126161Y-145527925D01*
X188305169Y-146017654D01*
X188300909Y-146020082D01*
X187885665Y-146246018D01*
X187817370Y-146260768D01*
X187751942Y-146236253D01*
X187710155Y-146180257D01*
X187709879Y-146179508D01*
X187707428Y-146172774D01*
X187144795Y-144626951D01*
X187144792Y-144626946D01*
X187144792Y-144626945D01*
X187106148Y-144563264D01*
X187106147Y-144563262D01*
X187106145Y-144563260D01*
X187106143Y-144563258D01*
X187025782Y-144504335D01*
X186988861Y-144495301D01*
X186928981Y-144480649D01*
X186928979Y-144480649D01*
X186855345Y-144491982D01*
X185856144Y-144855660D01*
X185786415Y-144860091D01*
X185726053Y-144826819D01*
X184926740Y-144027506D01*
X184926739Y-144027505D01*
X184818311Y-143964905D01*
X184818312Y-143964905D01*
X184777999Y-143954103D01*
X184697376Y-143932500D01*
X180021601Y-143932500D01*
X179896399Y-143932500D01*
X179815775Y-143954103D01*
X179775463Y-143964905D01*
X179667037Y-144027504D01*
X179667034Y-144027506D01*
X175226360Y-148468181D01*
X175165037Y-148501666D01*
X175138679Y-148504500D01*
X172151475Y-148504500D01*
X172084436Y-148484815D01*
X172038681Y-148432011D01*
X172028737Y-148362853D01*
X172032398Y-148345908D01*
X172033099Y-148343494D01*
X172033100Y-148343488D01*
X172033295Y-148341001D01*
X172033295Y-148341000D01*
X169088705Y-148341000D01*
X169088704Y-148341001D01*
X169088899Y-148343488D01*
X169088900Y-148343494D01*
X169089602Y-148345908D01*
X169089597Y-148347310D01*
X169090038Y-148349720D01*
X169089590Y-148349801D01*
X169089401Y-148415777D01*
X169051458Y-148474446D01*
X168987819Y-148503288D01*
X168970525Y-148504500D01*
X168650321Y-148504500D01*
X168583282Y-148484815D01*
X168562640Y-148468181D01*
X168336640Y-148242181D01*
X168303155Y-148180858D01*
X168308139Y-148111166D01*
X168336640Y-148066819D01*
X168564946Y-147838513D01*
X168801995Y-147601464D01*
X168864595Y-147493036D01*
X168897000Y-147372101D01*
X168897000Y-147246899D01*
X168897000Y-142777699D01*
X168899484Y-142769237D01*
X168898197Y-142760515D01*
X168909176Y-142736231D01*
X168916685Y-142710660D01*
X168923348Y-142704885D01*
X168926982Y-142696850D01*
X168949351Y-142682354D01*
X168969489Y-142664905D01*
X168978215Y-142663650D01*
X168985617Y-142658854D01*
X169012269Y-142658753D01*
X169038647Y-142654961D01*
X169048506Y-142658617D01*
X169055486Y-142658591D01*
X169076013Y-142668818D01*
X169087646Y-142673132D01*
X169091571Y-142675633D01*
X169206669Y-142761796D01*
X169255102Y-142779860D01*
X169266146Y-142786899D01*
X169280857Y-142803748D01*
X169298766Y-142817154D01*
X169303392Y-142829558D01*
X169312099Y-142839530D01*
X169315365Y-142861656D01*
X169323184Y-142882618D01*
X169323500Y-142891466D01*
X169323500Y-143456399D01*
X169323500Y-143581601D01*
X169347053Y-143669500D01*
X169355905Y-143702536D01*
X169401347Y-143781245D01*
X169417818Y-143849145D01*
X169404444Y-143899539D01*
X169350352Y-144005698D01*
X169335500Y-144099475D01*
X169335500Y-144462517D01*
X169346292Y-144530657D01*
X169350354Y-144556304D01*
X169407950Y-144669342D01*
X169407952Y-144669344D01*
X169407954Y-144669347D01*
X169497652Y-144759045D01*
X169497654Y-144759046D01*
X169497658Y-144759050D01*
X169588851Y-144805515D01*
X169639647Y-144853490D01*
X169656442Y-144921311D01*
X169633904Y-144987446D01*
X169588852Y-145026484D01*
X169497658Y-145072950D01*
X169497657Y-145072951D01*
X169497652Y-145072954D01*
X169407954Y-145162652D01*
X169407951Y-145162657D01*
X169407950Y-145162658D01*
X169388751Y-145200337D01*
X169350352Y-145275698D01*
X169335500Y-145369475D01*
X169335500Y-145732517D01*
X169345115Y-145793223D01*
X169350354Y-145826304D01*
X169407950Y-145939342D01*
X169407952Y-145939344D01*
X169407954Y-145939347D01*
X169497652Y-146029045D01*
X169497654Y-146029046D01*
X169497658Y-146029050D01*
X169588851Y-146075515D01*
X169639647Y-146123490D01*
X169656442Y-146191311D01*
X169633904Y-146257446D01*
X169588852Y-146296484D01*
X169497658Y-146342950D01*
X169497657Y-146342951D01*
X169497652Y-146342954D01*
X169407954Y-146432652D01*
X169407951Y-146432657D01*
X169407950Y-146432658D01*
X169392882Y-146462231D01*
X169350352Y-146545698D01*
X169335500Y-146639475D01*
X169335500Y-147002517D01*
X169339256Y-147026231D01*
X169350354Y-147096304D01*
X169407950Y-147209342D01*
X169407953Y-147209345D01*
X169413689Y-147217241D01*
X169410750Y-147219375D01*
X169435537Y-147264768D01*
X169430553Y-147334460D01*
X169388681Y-147390393D01*
X169377493Y-147397858D01*
X169334444Y-147423317D01*
X169334438Y-147423321D01*
X169218321Y-147539438D01*
X169218314Y-147539447D01*
X169134718Y-147680801D01*
X169088899Y-147838513D01*
X169088704Y-147840998D01*
X169088705Y-147841000D01*
X172033295Y-147841000D01*
X172033295Y-147840998D01*
X172033100Y-147838513D01*
X171987281Y-147680801D01*
X171903685Y-147539447D01*
X171903678Y-147539438D01*
X171872421Y-147508181D01*
X171838936Y-147446858D01*
X171843920Y-147377166D01*
X171885792Y-147321233D01*
X171951256Y-147296816D01*
X171960102Y-147296500D01*
X173798599Y-147296500D01*
X173798601Y-147296500D01*
X173919536Y-147264095D01*
X174027964Y-147201495D01*
X175668754Y-145560702D01*
X175668759Y-145560699D01*
X175678962Y-145550495D01*
X175678964Y-145550495D01*
X175767495Y-145461964D01*
X175830095Y-145353536D01*
X175833920Y-145339262D01*
X175862501Y-145232601D01*
X175862501Y-145107399D01*
X175862501Y-145099804D01*
X175862500Y-145099786D01*
X175862500Y-144844764D01*
X175882185Y-144777725D01*
X175934989Y-144731970D01*
X175943167Y-144728582D01*
X176043114Y-144691304D01*
X176079331Y-144677796D01*
X176194546Y-144591546D01*
X176280796Y-144476331D01*
X176331091Y-144341483D01*
X176337500Y-144281873D01*
X176337499Y-143486128D01*
X176331091Y-143426517D01*
X176319216Y-143394679D01*
X176280797Y-143291671D01*
X176280793Y-143291664D01*
X176194547Y-143176455D01*
X176194544Y-143176452D01*
X176079335Y-143090206D01*
X176079328Y-143090202D01*
X175944482Y-143039908D01*
X175944483Y-143039908D01*
X175884883Y-143033501D01*
X175884881Y-143033500D01*
X175884873Y-143033500D01*
X175884864Y-143033500D01*
X174889129Y-143033500D01*
X174889123Y-143033501D01*
X174829516Y-143039908D01*
X174694671Y-143090202D01*
X174694664Y-143090206D01*
X174579455Y-143176452D01*
X174579452Y-143176455D01*
X174493206Y-143291664D01*
X174493202Y-143291671D01*
X174442908Y-143426517D01*
X174436905Y-143482360D01*
X174436501Y-143486123D01*
X174436500Y-143486135D01*
X174436500Y-144281870D01*
X174436501Y-144281876D01*
X174442908Y-144341483D01*
X174493202Y-144476328D01*
X174493206Y-144476335D01*
X174579452Y-144591544D01*
X174579455Y-144591547D01*
X174694664Y-144677793D01*
X174694671Y-144677797D01*
X174830833Y-144728582D01*
X174848559Y-144741851D01*
X174868703Y-144751051D01*
X174875984Y-144762381D01*
X174886767Y-144770453D01*
X174894505Y-144791201D01*
X174906477Y-144809829D01*
X174909628Y-144831745D01*
X174911184Y-144835917D01*
X174911500Y-144844764D01*
X174911500Y-144921679D01*
X174891815Y-144988718D01*
X174875181Y-145009360D01*
X173575360Y-146309181D01*
X173514037Y-146342666D01*
X173487679Y-146345500D01*
X172856589Y-146345500D01*
X172789550Y-146325815D01*
X172743795Y-146273011D01*
X172733851Y-146203853D01*
X172762876Y-146140297D01*
X172787698Y-146118398D01*
X172847260Y-146078599D01*
X172880669Y-146056276D01*
X172971276Y-145965669D01*
X173042465Y-145859127D01*
X173091501Y-145740744D01*
X173106713Y-145664272D01*
X173116500Y-145615071D01*
X173116500Y-145486928D01*
X173091502Y-145361261D01*
X173091501Y-145361260D01*
X173091501Y-145361256D01*
X173047201Y-145254306D01*
X173042466Y-145242875D01*
X173042461Y-145242866D01*
X172971276Y-145136331D01*
X172971273Y-145136327D01*
X172880672Y-145045726D01*
X172880668Y-145045723D01*
X172774133Y-144974538D01*
X172774124Y-144974533D01*
X172655744Y-144925499D01*
X172655738Y-144925497D01*
X172530071Y-144900500D01*
X172530069Y-144900500D01*
X172401931Y-144900500D01*
X172401929Y-144900500D01*
X172276261Y-144925497D01*
X172276255Y-144925499D01*
X172157875Y-144974533D01*
X172157866Y-144974538D01*
X172051326Y-145045726D01*
X172049341Y-145047356D01*
X172048098Y-145047883D01*
X172046266Y-145049108D01*
X172046033Y-145048760D01*
X171985030Y-145074667D01*
X171970680Y-145075500D01*
X171659116Y-145075500D01*
X171646111Y-145072377D01*
X171636228Y-145073369D01*
X171602820Y-145061984D01*
X171533147Y-145026483D01*
X171482352Y-144978508D01*
X171465557Y-144910687D01*
X171488095Y-144844553D01*
X171533145Y-144805517D01*
X171624342Y-144759050D01*
X171714050Y-144669342D01*
X171771646Y-144556304D01*
X171771646Y-144556302D01*
X171771647Y-144556301D01*
X171782282Y-144489147D01*
X171786500Y-144462519D01*
X171786499Y-144099482D01*
X171771646Y-144005696D01*
X171714050Y-143892658D01*
X171714046Y-143892654D01*
X171714045Y-143892652D01*
X171624347Y-143802954D01*
X171624344Y-143802952D01*
X171624342Y-143802950D01*
X171547517Y-143763805D01*
X171511301Y-143745352D01*
X171417524Y-143730500D01*
X171417519Y-143730500D01*
X170734320Y-143730500D01*
X170667281Y-143710815D01*
X170646639Y-143694181D01*
X170310819Y-143358360D01*
X170277334Y-143297037D01*
X170274500Y-143270679D01*
X170274500Y-142891466D01*
X170294185Y-142824427D01*
X170346989Y-142778672D01*
X170355156Y-142775288D01*
X170391331Y-142761796D01*
X170506546Y-142675546D01*
X170592796Y-142560331D01*
X170643091Y-142425483D01*
X170649500Y-142365873D01*
X170649499Y-141370128D01*
X170643091Y-141310517D01*
X170636061Y-141291669D01*
X170592797Y-141175671D01*
X170592793Y-141175664D01*
X170506547Y-141060455D01*
X170506544Y-141060452D01*
X170391335Y-140974206D01*
X170391328Y-140974202D01*
X170256482Y-140923908D01*
X170256483Y-140923908D01*
X170196883Y-140917501D01*
X170196881Y-140917500D01*
X170196873Y-140917500D01*
X170196864Y-140917500D01*
X169401129Y-140917500D01*
X169401123Y-140917501D01*
X169341516Y-140923908D01*
X169206671Y-140974202D01*
X169206669Y-140974203D01*
X169126364Y-141034320D01*
X169099817Y-141054194D01*
X169095311Y-141057567D01*
X169029847Y-141081984D01*
X168961574Y-141067133D01*
X168912168Y-141017728D01*
X168897000Y-140958300D01*
X168897000Y-138804000D01*
X168916685Y-138736961D01*
X168969489Y-138691206D01*
X169021000Y-138680000D01*
X169428500Y-138680000D01*
X169495539Y-138699685D01*
X169541294Y-138752489D01*
X169552500Y-138804000D01*
X169552500Y-138952636D01*
X169563134Y-139025625D01*
X169563134Y-139025626D01*
X169563135Y-139025628D01*
X169618172Y-139138210D01*
X169706789Y-139226827D01*
X169814572Y-139279518D01*
X169819375Y-139281866D01*
X169892364Y-139292500D01*
X169892370Y-139292500D01*
X170213630Y-139292500D01*
X170213636Y-139292500D01*
X170286625Y-139281866D01*
X170360581Y-139245711D01*
X170399210Y-139226827D01*
X170487827Y-139138210D01*
X170514759Y-139083118D01*
X170542866Y-139025625D01*
X170553500Y-138952636D01*
X170553500Y-137456364D01*
X170852500Y-137456364D01*
X170852500Y-138952636D01*
X170863134Y-139025625D01*
X170864899Y-139029236D01*
X170877500Y-139083698D01*
X170877500Y-139835399D01*
X170877500Y-139960601D01*
X170909905Y-140081536D01*
X170955473Y-140160464D01*
X170972504Y-140189962D01*
X170972506Y-140189965D01*
X171287181Y-140504640D01*
X171320666Y-140565963D01*
X171323500Y-140592321D01*
X171323500Y-140844533D01*
X171303815Y-140911572D01*
X171251011Y-140957327D01*
X171242836Y-140960714D01*
X171206665Y-140974205D01*
X171091455Y-141060452D01*
X171091452Y-141060455D01*
X171005206Y-141175664D01*
X171005202Y-141175671D01*
X170954908Y-141310517D01*
X170952599Y-141332000D01*
X170948501Y-141370123D01*
X170948500Y-141370135D01*
X170948500Y-142365870D01*
X170948501Y-142365876D01*
X170954908Y-142425483D01*
X171005202Y-142560328D01*
X171005206Y-142560335D01*
X171091452Y-142675544D01*
X171091455Y-142675547D01*
X171206664Y-142761793D01*
X171206671Y-142761797D01*
X171341517Y-142812091D01*
X171341516Y-142812091D01*
X171348444Y-142812835D01*
X171401127Y-142818500D01*
X172196872Y-142818499D01*
X172256483Y-142812091D01*
X172391331Y-142761796D01*
X172506546Y-142675546D01*
X172592796Y-142560331D01*
X172643091Y-142425483D01*
X172649500Y-142365873D01*
X172649499Y-141486135D01*
X174436500Y-141486135D01*
X174436500Y-142281870D01*
X174436501Y-142281876D01*
X174442908Y-142341483D01*
X174493202Y-142476328D01*
X174493206Y-142476335D01*
X174579452Y-142591544D01*
X174579455Y-142591547D01*
X174694664Y-142677793D01*
X174694671Y-142677797D01*
X174829517Y-142728091D01*
X174829516Y-142728091D01*
X174836444Y-142728835D01*
X174889127Y-142734500D01*
X175884872Y-142734499D01*
X175944483Y-142728091D01*
X176079331Y-142677796D01*
X176194546Y-142591546D01*
X176280796Y-142476331D01*
X176331091Y-142341483D01*
X176337500Y-142281873D01*
X176337499Y-141486128D01*
X176331091Y-141426517D01*
X176314474Y-141381965D01*
X176280797Y-141291671D01*
X176280793Y-141291664D01*
X176194547Y-141176455D01*
X176194544Y-141176452D01*
X176079335Y-141090206D01*
X176079328Y-141090202D01*
X175973167Y-141050607D01*
X175917233Y-141008736D01*
X175892816Y-140943272D01*
X175892500Y-140934425D01*
X175892500Y-139191198D01*
X175905100Y-139136736D01*
X175906866Y-139133125D01*
X175917500Y-139060136D01*
X175917500Y-138815258D01*
X176859500Y-138815258D01*
X176859500Y-139044741D01*
X176883473Y-139226826D01*
X176889452Y-139272238D01*
X176930899Y-139426923D01*
X176948842Y-139493887D01*
X177036650Y-139705876D01*
X177036657Y-139705890D01*
X177151392Y-139904617D01*
X177291081Y-140086661D01*
X177291089Y-140086670D01*
X177453330Y-140248911D01*
X177453338Y-140248918D01*
X177453339Y-140248919D01*
X177495669Y-140281400D01*
X177635382Y-140388607D01*
X177635385Y-140388608D01*
X177635388Y-140388611D01*
X177834112Y-140503344D01*
X177834117Y-140503346D01*
X177834123Y-140503349D01*
X177901985Y-140531458D01*
X178046113Y-140591158D01*
X178267762Y-140650548D01*
X178495266Y-140680500D01*
X178495273Y-140680500D01*
X178724727Y-140680500D01*
X178724734Y-140680500D01*
X178952238Y-140650548D01*
X179173887Y-140591158D01*
X179385888Y-140503344D01*
X179584612Y-140388611D01*
X179766661Y-140248919D01*
X179766665Y-140248914D01*
X179766670Y-140248911D01*
X179928911Y-140086670D01*
X179928914Y-140086665D01*
X179928919Y-140086661D01*
X180068611Y-139904612D01*
X180183344Y-139705888D01*
X180271158Y-139493887D01*
X180330548Y-139272238D01*
X180360500Y-139044734D01*
X180360500Y-138815266D01*
X180330548Y-138587762D01*
X180271158Y-138366113D01*
X180183344Y-138154112D01*
X180068611Y-137955388D01*
X180068608Y-137955385D01*
X180068607Y-137955382D01*
X179928918Y-137773338D01*
X179928911Y-137773330D01*
X179766670Y-137611089D01*
X179766661Y-137611081D01*
X179584617Y-137471392D01*
X179558596Y-137456369D01*
X179385888Y-137356656D01*
X179385876Y-137356650D01*
X179173887Y-137268842D01*
X179144743Y-137261033D01*
X178952238Y-137209452D01*
X178913219Y-137204315D01*
X178724741Y-137179500D01*
X178724734Y-137179500D01*
X178495266Y-137179500D01*
X178495258Y-137179500D01*
X178278715Y-137208009D01*
X178267762Y-137209452D01*
X178213468Y-137224000D01*
X178046112Y-137268842D01*
X177834123Y-137356650D01*
X177834109Y-137356657D01*
X177635382Y-137471392D01*
X177453338Y-137611081D01*
X177291081Y-137773338D01*
X177151392Y-137955382D01*
X177036657Y-138154109D01*
X177036650Y-138154123D01*
X176948842Y-138366112D01*
X176889453Y-138587759D01*
X176889451Y-138587770D01*
X176859500Y-138815258D01*
X175917500Y-138815258D01*
X175917500Y-137563864D01*
X175906866Y-137490875D01*
X175889995Y-137456364D01*
X175851827Y-137378289D01*
X175763210Y-137289672D01*
X175650628Y-137234635D01*
X175650626Y-137234634D01*
X175650625Y-137234634D01*
X175577636Y-137224000D01*
X175256364Y-137224000D01*
X175243794Y-137225831D01*
X175221230Y-137229118D01*
X175221227Y-137229119D01*
X175183375Y-137234634D01*
X175070789Y-137289674D01*
X175064260Y-137296202D01*
X175064257Y-137296204D01*
X174982172Y-137378289D01*
X174927135Y-137490871D01*
X174927134Y-137490873D01*
X174927134Y-137490875D01*
X174916500Y-137563864D01*
X174916500Y-139060136D01*
X174927134Y-139133125D01*
X174928899Y-139136736D01*
X174941500Y-139191198D01*
X174941500Y-140916486D01*
X174921815Y-140983525D01*
X174869011Y-141029280D01*
X174837050Y-141038048D01*
X174837068Y-141038124D01*
X174834951Y-141038624D01*
X174830753Y-141039776D01*
X174829516Y-141039908D01*
X174694671Y-141090202D01*
X174694664Y-141090206D01*
X174579455Y-141176452D01*
X174579452Y-141176455D01*
X174493206Y-141291664D01*
X174493202Y-141291671D01*
X174442908Y-141426517D01*
X174436501Y-141486116D01*
X174436501Y-141486123D01*
X174436500Y-141486135D01*
X172649499Y-141486135D01*
X172649499Y-141370128D01*
X172643091Y-141310517D01*
X172636061Y-141291669D01*
X172592797Y-141175671D01*
X172592793Y-141175664D01*
X172506547Y-141060455D01*
X172506544Y-141060452D01*
X172391334Y-140974205D01*
X172355164Y-140960714D01*
X172299231Y-140918841D01*
X172274816Y-140853376D01*
X172274500Y-140844533D01*
X172274500Y-140281400D01*
X172272639Y-140274454D01*
X172242095Y-140160464D01*
X172179495Y-140052036D01*
X172090964Y-139963505D01*
X171864819Y-139737360D01*
X171831334Y-139676037D01*
X171828500Y-139649679D01*
X171828500Y-139083698D01*
X171841100Y-139029236D01*
X171842866Y-139025625D01*
X171853500Y-138952636D01*
X171853500Y-137456364D01*
X171842866Y-137383375D01*
X171840380Y-137378289D01*
X171787827Y-137270789D01*
X171699210Y-137182172D01*
X171586628Y-137127135D01*
X171586626Y-137127134D01*
X171586625Y-137127134D01*
X171513636Y-137116500D01*
X171192364Y-137116500D01*
X171179794Y-137118331D01*
X171157230Y-137121618D01*
X171157227Y-137121619D01*
X171119375Y-137127134D01*
X171006789Y-137182174D01*
X171000260Y-137188702D01*
X171000257Y-137188704D01*
X170918172Y-137270789D01*
X170863135Y-137383371D01*
X170863134Y-137383373D01*
X170863134Y-137383375D01*
X170852500Y-137456364D01*
X170553500Y-137456364D01*
X170542866Y-137383375D01*
X170540380Y-137378289D01*
X170487827Y-137270789D01*
X170405743Y-137188705D01*
X170405741Y-137188704D01*
X170399211Y-137182174D01*
X170286625Y-137127134D01*
X170248769Y-137121618D01*
X170248768Y-137121618D01*
X170232665Y-137119272D01*
X170213636Y-137116500D01*
X169892364Y-137116500D01*
X169819375Y-137127134D01*
X169819373Y-137127134D01*
X169819371Y-137127135D01*
X169706789Y-137182172D01*
X169618172Y-137270789D01*
X169563135Y-137383371D01*
X169563134Y-137383373D01*
X169563134Y-137383375D01*
X169552500Y-137456364D01*
X169552500Y-137456369D01*
X169552500Y-137605000D01*
X169532815Y-137672039D01*
X169480011Y-137717794D01*
X169428500Y-137729000D01*
X169021000Y-137729000D01*
X168953961Y-137709315D01*
X168908206Y-137656511D01*
X168897000Y-137605000D01*
X168897000Y-133831500D01*
X168916685Y-133764461D01*
X168969489Y-133718706D01*
X169021000Y-133707500D01*
X170136192Y-133707500D01*
X170157437Y-133713738D01*
X170179526Y-133715318D01*
X170190309Y-133723390D01*
X170203231Y-133727185D01*
X170217730Y-133743918D01*
X170235459Y-133757190D01*
X170240166Y-133769810D01*
X170248986Y-133779989D01*
X170252137Y-133801906D01*
X170259876Y-133822654D01*
X170257013Y-133835814D01*
X170258930Y-133849147D01*
X170249730Y-133869290D01*
X170245024Y-133890927D01*
X170231755Y-133908652D01*
X170229905Y-133912703D01*
X170223873Y-133919181D01*
X170197726Y-133945327D01*
X170197723Y-133945331D01*
X170126538Y-134051866D01*
X170126533Y-134051875D01*
X170077499Y-134170255D01*
X170077497Y-134170261D01*
X170052500Y-134295928D01*
X170052500Y-134295931D01*
X170052500Y-134424069D01*
X170052500Y-134424071D01*
X170052499Y-134424071D01*
X170077497Y-134549738D01*
X170077499Y-134549744D01*
X170126533Y-134668124D01*
X170126538Y-134668133D01*
X170197720Y-134774664D01*
X170199351Y-134776651D01*
X170199879Y-134777895D01*
X170201108Y-134779734D01*
X170200759Y-134779966D01*
X170209056Y-134799501D01*
X170222477Y-134820384D01*
X170224805Y-134836580D01*
X170226666Y-134840960D01*
X170227500Y-134855319D01*
X170227500Y-135000301D01*
X170214901Y-135054758D01*
X170213134Y-135058375D01*
X170202500Y-135131364D01*
X170202500Y-136627636D01*
X170213134Y-136700625D01*
X170213134Y-136700626D01*
X170213135Y-136700628D01*
X170268172Y-136813210D01*
X170350255Y-136895293D01*
X170350256Y-136895293D01*
X170356789Y-136901826D01*
X170469375Y-136956866D01*
X170542364Y-136967500D01*
X170542370Y-136967500D01*
X170863636Y-136967500D01*
X170936625Y-136956866D01*
X171049211Y-136901826D01*
X171137826Y-136813211D01*
X171137827Y-136813210D01*
X171168999Y-136749445D01*
X171192866Y-136700625D01*
X171203500Y-136627636D01*
X171203500Y-135131364D01*
X171192866Y-135058375D01*
X171191098Y-135054758D01*
X171188302Y-135042672D01*
X171183523Y-135035236D01*
X171178500Y-135000301D01*
X171178500Y-134855319D01*
X171198185Y-134788280D01*
X171206649Y-134776651D01*
X171208269Y-134774675D01*
X171208276Y-134774669D01*
X171279465Y-134668127D01*
X171328501Y-134549744D01*
X171336682Y-134508615D01*
X171353500Y-134424071D01*
X171353500Y-134295928D01*
X171328502Y-134170261D01*
X171328501Y-134170260D01*
X171328501Y-134170256D01*
X171281425Y-134056604D01*
X171279466Y-134051875D01*
X171279461Y-134051866D01*
X171208276Y-133945331D01*
X171208273Y-133945327D01*
X171182127Y-133919181D01*
X171148642Y-133857858D01*
X171153626Y-133788166D01*
X171195498Y-133732233D01*
X171260962Y-133707816D01*
X171269808Y-133707500D01*
X171582679Y-133707500D01*
X171649718Y-133727185D01*
X171670360Y-133743819D01*
X172081181Y-134154639D01*
X172114666Y-134215962D01*
X172117500Y-134242320D01*
X172117500Y-136217399D01*
X172117500Y-136342601D01*
X172149905Y-136463536D01*
X172212504Y-136571962D01*
X172212506Y-136571965D01*
X173580181Y-137939640D01*
X173613666Y-138000963D01*
X173616500Y-138027321D01*
X173616500Y-139060136D01*
X173627134Y-139133125D01*
X173627134Y-139133126D01*
X173627135Y-139133128D01*
X173682172Y-139245710D01*
X173770789Y-139334327D01*
X173878572Y-139387018D01*
X173883375Y-139389366D01*
X173956364Y-139400000D01*
X173956370Y-139400000D01*
X174277630Y-139400000D01*
X174277636Y-139400000D01*
X174350625Y-139389366D01*
X174408118Y-139361259D01*
X174463210Y-139334327D01*
X174551827Y-139245710D01*
X174592500Y-139162511D01*
X174606866Y-139133125D01*
X174617500Y-139060136D01*
X174617500Y-137563864D01*
X174606866Y-137490875D01*
X174589995Y-137456364D01*
X174551827Y-137378289D01*
X174455946Y-137282408D01*
X174457341Y-137281012D01*
X174422190Y-137236198D01*
X174419278Y-137205297D01*
X174403283Y-137213414D01*
X174375721Y-137229283D01*
X174371448Y-137229572D01*
X174369329Y-137230648D01*
X174349910Y-137231030D01*
X174334065Y-137232104D01*
X174331386Y-137231831D01*
X174277636Y-137224000D01*
X174254524Y-137224000D01*
X174248252Y-137223361D01*
X174221498Y-137212453D01*
X174193782Y-137204315D01*
X174185840Y-137197915D01*
X174183553Y-137196983D01*
X174182077Y-137194883D01*
X174173140Y-137187681D01*
X173104819Y-136119360D01*
X173071334Y-136058037D01*
X173068500Y-136031679D01*
X173068500Y-134066603D01*
X173068501Y-134066590D01*
X173068501Y-133931400D01*
X173068500Y-133931396D01*
X173036097Y-133810470D01*
X173036096Y-133810467D01*
X173036095Y-133810464D01*
X172977804Y-133709500D01*
X172973495Y-133702036D01*
X172884964Y-133613505D01*
X172884961Y-133613503D01*
X172122964Y-132851505D01*
X172014536Y-132788905D01*
X172014537Y-132788905D01*
X171974224Y-132778103D01*
X171893601Y-132756500D01*
X171893599Y-132756500D01*
X163773213Y-132756500D01*
X163773197Y-132756499D01*
X163765601Y-132756499D01*
X163640399Y-132756499D01*
X163573233Y-132774497D01*
X163539649Y-132783496D01*
X163539648Y-132783495D01*
X163519467Y-132788904D01*
X163519463Y-132788905D01*
X163411037Y-132851504D01*
X163411034Y-132851506D01*
X163322505Y-132940036D01*
X163322503Y-132940038D01*
X162655021Y-133607520D01*
X161981595Y-134280945D01*
X161981594Y-134280945D01*
X161981595Y-134280946D01*
X161910503Y-134352037D01*
X161847905Y-134460463D01*
X161815500Y-134581400D01*
X161815500Y-135107801D01*
X161802901Y-135162258D01*
X161801134Y-135165875D01*
X161790500Y-135238864D01*
X161790500Y-135238869D01*
X161790500Y-136682406D01*
X161770815Y-136749445D01*
X161718011Y-136795200D01*
X161648854Y-136805144D01*
X161547000Y-136790500D01*
X155699000Y-136790500D01*
X155698991Y-136790500D01*
X155698990Y-136790501D01*
X155591549Y-136802052D01*
X155591537Y-136802054D01*
X155540027Y-136813260D01*
X155437502Y-136847383D01*
X155437496Y-136847386D01*
X155316462Y-136925171D01*
X155316451Y-136925179D01*
X155263659Y-136970923D01*
X155169433Y-137079664D01*
X155169430Y-137079668D01*
X155109664Y-137210534D01*
X155089976Y-137277582D01*
X155084949Y-137312549D01*
X155069500Y-137420000D01*
X155069500Y-140031239D01*
X155073455Y-140081536D01*
X155075712Y-140110248D01*
X155081768Y-140148525D01*
X155100252Y-140225589D01*
X155163700Y-140354729D01*
X155203121Y-140412417D01*
X155203126Y-140412422D01*
X155300370Y-140518439D01*
X155300373Y-140518442D01*
X156103651Y-141175669D01*
X158014640Y-142739206D01*
X158037574Y-142756898D01*
X158049056Y-142765242D01*
X158072927Y-142781567D01*
X158203804Y-142841338D01*
X158270843Y-142861023D01*
X158270847Y-142861024D01*
X158413263Y-142881500D01*
X158413266Y-142881500D01*
X160530990Y-142881500D01*
X160531000Y-142881500D01*
X160638456Y-142869947D01*
X160689967Y-142858741D01*
X160724197Y-142847347D01*
X160792497Y-142824616D01*
X160792501Y-142824613D01*
X160792504Y-142824613D01*
X160913543Y-142746825D01*
X160966347Y-142701070D01*
X161060567Y-142592336D01*
X161112666Y-142478255D01*
X161158421Y-142425453D01*
X161225460Y-142405769D01*
X161292500Y-142425454D01*
X161338254Y-142478258D01*
X161341642Y-142486435D01*
X161369203Y-142560330D01*
X161369206Y-142560335D01*
X161455452Y-142675544D01*
X161455455Y-142675547D01*
X161570664Y-142761793D01*
X161570669Y-142761796D01*
X161606832Y-142775284D01*
X161624558Y-142788553D01*
X161644703Y-142797753D01*
X161651984Y-142809083D01*
X161662766Y-142817154D01*
X161670504Y-142837902D01*
X161682477Y-142856531D01*
X161685628Y-142878446D01*
X161687184Y-142882618D01*
X161687500Y-142891466D01*
X161687500Y-143055678D01*
X161667815Y-143122717D01*
X161651181Y-143143359D01*
X161161358Y-143633181D01*
X161100035Y-143666666D01*
X161073677Y-143669500D01*
X160465482Y-143669500D01*
X160384519Y-143682323D01*
X160371696Y-143684354D01*
X160280176Y-143730985D01*
X160223884Y-143744500D01*
X158429321Y-143744500D01*
X158362282Y-143724815D01*
X158341640Y-143708181D01*
X158152965Y-143519506D01*
X158152964Y-143519505D01*
X158044536Y-143456905D01*
X157923601Y-143424500D01*
X157923599Y-143424500D01*
X155995499Y-143424500D01*
X155928460Y-143404815D01*
X155882705Y-143352011D01*
X155871499Y-143300500D01*
X155871499Y-143034482D01*
X155871343Y-143033500D01*
X155856646Y-142940696D01*
X155799050Y-142827658D01*
X155799046Y-142827654D01*
X155799045Y-142827652D01*
X155709347Y-142737954D01*
X155709344Y-142737952D01*
X155709342Y-142737950D01*
X155628679Y-142696850D01*
X155596301Y-142680352D01*
X155502524Y-142665500D01*
X155139482Y-142665500D01*
X155058519Y-142678323D01*
X155045696Y-142680354D01*
X154932658Y-142737950D01*
X154932657Y-142737951D01*
X154932652Y-142737954D01*
X154842954Y-142827652D01*
X154842951Y-142827657D01*
X154842950Y-142827658D01*
X154827113Y-142858739D01*
X154785352Y-142940698D01*
X154770500Y-143034475D01*
X154770500Y-144497051D01*
X154750815Y-144564090D01*
X154698011Y-144609845D01*
X154628853Y-144619789D01*
X154624213Y-144619032D01*
X154623494Y-144618900D01*
X154621000Y-144618703D01*
X154621000Y-145766000D01*
X155171000Y-145766000D01*
X155171000Y-145200365D01*
X155170999Y-145200350D01*
X155168100Y-145163512D01*
X155156939Y-145125094D01*
X155157139Y-145055224D01*
X155195082Y-144996554D01*
X155258720Y-144967711D01*
X155276007Y-144966499D01*
X155502518Y-144966499D01*
X155596304Y-144951646D01*
X155596305Y-144951645D01*
X155605943Y-144950119D01*
X155606263Y-144952143D01*
X155663500Y-144950504D01*
X155723335Y-144986580D01*
X155754168Y-145049279D01*
X155746209Y-145118693D01*
X155742472Y-145126726D01*
X155735353Y-145140697D01*
X155735352Y-145140698D01*
X155720500Y-145234475D01*
X155720500Y-146797517D01*
X155729611Y-146855042D01*
X155735354Y-146891304D01*
X155781985Y-146982823D01*
X155795500Y-147039115D01*
X155795500Y-147327399D01*
X155795500Y-147452601D01*
X155827905Y-147573536D01*
X155890505Y-147681964D01*
X156972505Y-148763964D01*
X157061036Y-148852495D01*
X157169464Y-148915095D01*
X157169465Y-148915095D01*
X157173890Y-148917650D01*
X157222106Y-148968217D01*
X157235330Y-149036824D01*
X157209362Y-149101689D01*
X157152448Y-149142218D01*
X157092292Y-149147479D01*
X156182521Y-149001855D01*
X156178103Y-149001066D01*
X155192798Y-148806547D01*
X155188371Y-148805589D01*
X154211927Y-148575470D01*
X154207492Y-148574338D01*
X153244207Y-148309442D01*
X153239769Y-148308132D01*
X152292749Y-148009278D01*
X152288314Y-148007785D01*
X151359860Y-147675779D01*
X151355437Y-147674102D01*
X150446865Y-147309546D01*
X150442463Y-147307680D01*
X149554965Y-146911210D01*
X149550598Y-146909157D01*
X149393784Y-146831649D01*
X153571000Y-146831649D01*
X153573899Y-146868489D01*
X153573900Y-146868495D01*
X153619716Y-147026193D01*
X153619717Y-147026196D01*
X153703314Y-147167552D01*
X153703321Y-147167561D01*
X153819438Y-147283678D01*
X153819447Y-147283685D01*
X153960801Y-147367281D01*
X154118514Y-147413100D01*
X154118511Y-147413100D01*
X154120998Y-147413295D01*
X154121000Y-147413295D01*
X154621000Y-147413295D01*
X154621001Y-147413295D01*
X154623486Y-147413100D01*
X154781198Y-147367281D01*
X154922552Y-147283685D01*
X154922561Y-147283678D01*
X155038678Y-147167561D01*
X155038685Y-147167552D01*
X155122282Y-147026196D01*
X155122283Y-147026193D01*
X155168099Y-146868495D01*
X155168100Y-146868489D01*
X155170999Y-146831649D01*
X155171000Y-146831634D01*
X155171000Y-146266000D01*
X154621000Y-146266000D01*
X154621000Y-147413295D01*
X154121000Y-147413295D01*
X154121000Y-146266000D01*
X153571000Y-146266000D01*
X153571000Y-146831649D01*
X149393784Y-146831649D01*
X148684872Y-146481257D01*
X148680552Y-146479015D01*
X148394843Y-146323559D01*
X147837100Y-146020088D01*
X147832840Y-146017660D01*
X147011836Y-145527924D01*
X147007652Y-145525314D01*
X146664727Y-145301806D01*
X146509065Y-145200350D01*
X153571000Y-145200350D01*
X153571000Y-145766000D01*
X154121000Y-145766000D01*
X154121000Y-144618703D01*
X154118503Y-144618900D01*
X153960806Y-144664716D01*
X153960803Y-144664717D01*
X153819447Y-144748314D01*
X153819438Y-144748321D01*
X153703321Y-144864438D01*
X153703314Y-144864447D01*
X153619717Y-145005803D01*
X153619716Y-145005806D01*
X153573900Y-145163504D01*
X153573899Y-145163510D01*
X153571000Y-145200350D01*
X146509065Y-145200350D01*
X146209275Y-145004956D01*
X146205181Y-145002169D01*
X145429471Y-144451232D01*
X145425481Y-144448276D01*
X144672430Y-143866707D01*
X144668558Y-143863591D01*
X143938113Y-143251219D01*
X143934372Y-143247954D01*
X143699510Y-143034475D01*
X143226407Y-142604445D01*
X143222850Y-142601078D01*
X142587831Y-141975796D01*
X142537372Y-141926111D01*
X142533930Y-141922584D01*
X141870955Y-141215733D01*
X141867677Y-141212097D01*
X141827080Y-141165236D01*
X141344449Y-140608135D01*
X143056500Y-140608135D01*
X143056500Y-141603870D01*
X143056501Y-141603876D01*
X143062908Y-141663483D01*
X143113202Y-141798328D01*
X143113206Y-141798335D01*
X143199452Y-141913544D01*
X143199455Y-141913547D01*
X143314664Y-141999793D01*
X143314671Y-141999797D01*
X143359618Y-142016561D01*
X143449517Y-142050091D01*
X143509127Y-142056500D01*
X144254872Y-142056499D01*
X144314483Y-142050091D01*
X144449331Y-141999796D01*
X144564546Y-141913546D01*
X144650796Y-141798331D01*
X144701091Y-141663483D01*
X144707500Y-141603873D01*
X144707499Y-140871897D01*
X144716145Y-140842451D01*
X144722667Y-140812471D01*
X144726419Y-140807457D01*
X144727183Y-140804859D01*
X144743813Y-140784222D01*
X144894821Y-140633214D01*
X144956142Y-140599731D01*
X145025834Y-140604715D01*
X145081767Y-140646587D01*
X145106184Y-140712051D01*
X145106500Y-140720897D01*
X145106500Y-141603870D01*
X145106501Y-141603876D01*
X145112908Y-141663483D01*
X145163202Y-141798328D01*
X145163206Y-141798335D01*
X145249452Y-141913544D01*
X145249455Y-141913547D01*
X145364664Y-141999793D01*
X145364671Y-141999797D01*
X145409618Y-142016561D01*
X145499517Y-142050091D01*
X145559127Y-142056500D01*
X146304872Y-142056499D01*
X146364483Y-142050091D01*
X146499331Y-141999796D01*
X146614546Y-141913546D01*
X146700796Y-141798331D01*
X146751091Y-141663483D01*
X146751090Y-141663483D01*
X146751582Y-141662167D01*
X146793453Y-141606233D01*
X146858917Y-141581816D01*
X146867764Y-141581500D01*
X147282187Y-141581500D01*
X147349226Y-141601185D01*
X147394981Y-141653989D01*
X147398369Y-141662167D01*
X147440202Y-141774328D01*
X147440206Y-141774335D01*
X147526452Y-141889544D01*
X147526455Y-141889547D01*
X147641664Y-141975793D01*
X147641671Y-141975797D01*
X147776517Y-142026091D01*
X147776516Y-142026091D01*
X147783444Y-142026835D01*
X147836127Y-142032500D01*
X148631872Y-142032499D01*
X148691483Y-142026091D01*
X148826331Y-141975796D01*
X148941546Y-141889546D01*
X148987502Y-141828156D01*
X149043434Y-141786287D01*
X149113125Y-141781303D01*
X149174448Y-141814788D01*
X149195665Y-141845089D01*
X149195851Y-141844975D01*
X149197819Y-141848166D01*
X149199151Y-141850068D01*
X149199642Y-141851121D01*
X149291684Y-142000345D01*
X149415654Y-142124315D01*
X149564875Y-142216356D01*
X149564880Y-142216358D01*
X149731302Y-142271505D01*
X149731309Y-142271506D01*
X149834019Y-142281999D01*
X149983999Y-142281999D01*
X150484000Y-142281999D01*
X150633972Y-142281999D01*
X150633986Y-142281998D01*
X150736697Y-142271505D01*
X150903119Y-142216358D01*
X150903124Y-142216356D01*
X151052345Y-142124315D01*
X151176315Y-142000345D01*
X151268356Y-141851124D01*
X151268358Y-141851119D01*
X151323505Y-141684697D01*
X151323506Y-141684690D01*
X151333999Y-141581986D01*
X151334000Y-141581973D01*
X151334000Y-141332000D01*
X150484000Y-141332000D01*
X150484000Y-142281999D01*
X149983999Y-142281999D01*
X149984000Y-142281998D01*
X149984000Y-140832000D01*
X150484000Y-140832000D01*
X151333999Y-140832000D01*
X151333999Y-140582028D01*
X151333998Y-140582013D01*
X151323505Y-140479302D01*
X151268358Y-140312880D01*
X151268356Y-140312875D01*
X151176315Y-140163654D01*
X151052345Y-140039684D01*
X150903124Y-139947643D01*
X150903119Y-139947641D01*
X150736697Y-139892494D01*
X150736690Y-139892493D01*
X150633986Y-139882000D01*
X150484000Y-139882000D01*
X150484000Y-140832000D01*
X149984000Y-140832000D01*
X149984000Y-139882000D01*
X149834027Y-139882000D01*
X149834012Y-139882001D01*
X149731302Y-139892494D01*
X149564880Y-139947641D01*
X149564875Y-139947643D01*
X149415654Y-140039684D01*
X149291684Y-140163654D01*
X149199637Y-140312885D01*
X149199148Y-140313936D01*
X149198620Y-140314535D01*
X149195851Y-140319025D01*
X149195083Y-140318551D01*
X149152975Y-140366375D01*
X149085782Y-140385526D01*
X149018901Y-140365309D01*
X148987501Y-140335841D01*
X148941547Y-140274455D01*
X148941544Y-140274452D01*
X148826335Y-140188206D01*
X148826328Y-140188202D01*
X148691482Y-140137908D01*
X148691483Y-140137908D01*
X148631883Y-140131501D01*
X148631881Y-140131500D01*
X148631873Y-140131500D01*
X148631864Y-140131500D01*
X147836129Y-140131500D01*
X147836123Y-140131501D01*
X147776516Y-140137908D01*
X147641671Y-140188202D01*
X147641664Y-140188206D01*
X147526455Y-140274452D01*
X147526452Y-140274455D01*
X147440206Y-140389664D01*
X147440202Y-140389671D01*
X147389908Y-140524517D01*
X147388126Y-140532062D01*
X147385571Y-140531458D01*
X147363690Y-140584298D01*
X147306302Y-140624151D01*
X147267132Y-140630500D01*
X146867764Y-140630500D01*
X146800725Y-140610815D01*
X146754970Y-140558011D01*
X146751582Y-140549833D01*
X146700797Y-140413671D01*
X146700793Y-140413664D01*
X146614547Y-140298455D01*
X146614544Y-140298452D01*
X146499335Y-140212206D01*
X146499328Y-140212202D01*
X146364486Y-140161910D01*
X146364485Y-140161909D01*
X146364483Y-140161909D01*
X146304873Y-140155500D01*
X146304864Y-140155500D01*
X145671897Y-140155500D01*
X145604858Y-140135815D01*
X145559103Y-140083011D01*
X145549159Y-140013853D01*
X145578184Y-139950297D01*
X145584197Y-139943838D01*
X147058218Y-138469819D01*
X147119541Y-138436334D01*
X147145899Y-138433500D01*
X153338435Y-138433500D01*
X153338436Y-138433500D01*
X153386186Y-138420705D01*
X153433938Y-138407910D01*
X153519562Y-138358475D01*
X153589475Y-138288562D01*
X155694218Y-136183819D01*
X155755541Y-136150334D01*
X155781899Y-136147500D01*
X158926435Y-136147500D01*
X158926436Y-136147500D01*
X158974186Y-136134705D01*
X159021938Y-136121910D01*
X159107562Y-136072475D01*
X159177475Y-136002562D01*
X163060218Y-132119819D01*
X163121541Y-132086334D01*
X163147899Y-132083500D01*
X165901192Y-132083500D01*
X165968231Y-132103185D01*
X165988873Y-132119819D01*
X166082327Y-132213273D01*
X166082331Y-132213276D01*
X166188866Y-132284461D01*
X166188872Y-132284464D01*
X166188873Y-132284465D01*
X166307256Y-132333501D01*
X166307260Y-132333501D01*
X166307261Y-132333502D01*
X166432928Y-132358500D01*
X166432931Y-132358500D01*
X166561071Y-132358500D01*
X166645615Y-132341682D01*
X166686744Y-132333501D01*
X166805127Y-132284465D01*
X166911669Y-132213276D01*
X167002276Y-132122669D01*
X167073465Y-132016127D01*
X167122501Y-131897744D01*
X167147500Y-131772069D01*
X167147500Y-131643931D01*
X167147500Y-131643928D01*
X167122502Y-131518261D01*
X167122501Y-131518260D01*
X167122501Y-131518256D01*
X167073465Y-131399873D01*
X167073464Y-131399872D01*
X167073461Y-131399866D01*
X167002276Y-131293331D01*
X167002273Y-131293327D01*
X166911672Y-131202726D01*
X166911668Y-131202723D01*
X166805133Y-131131538D01*
X166805124Y-131131533D01*
X166686744Y-131082499D01*
X166686738Y-131082497D01*
X166561071Y-131057500D01*
X166561069Y-131057500D01*
X166432931Y-131057500D01*
X166432929Y-131057500D01*
X166307261Y-131082497D01*
X166307255Y-131082499D01*
X166188875Y-131131533D01*
X166188866Y-131131538D01*
X166082331Y-131202723D01*
X166082327Y-131202726D01*
X165988873Y-131296181D01*
X165927550Y-131329666D01*
X165901192Y-131332500D01*
X162891561Y-131332500D01*
X162870457Y-131338155D01*
X162870456Y-131338154D01*
X162796066Y-131358088D01*
X162796059Y-131358091D01*
X162710436Y-131407526D01*
X158757782Y-135360181D01*
X158696459Y-135393666D01*
X158670101Y-135396500D01*
X155525564Y-135396500D01*
X155477812Y-135409295D01*
X155477811Y-135409294D01*
X155430063Y-135422089D01*
X155430062Y-135422089D01*
X155344435Y-135471527D01*
X153169782Y-137646181D01*
X153108459Y-137679666D01*
X153082101Y-137682500D01*
X146889564Y-137682500D01*
X146841812Y-137695295D01*
X146841811Y-137695294D01*
X146794063Y-137708089D01*
X146794062Y-137708089D01*
X146708435Y-137757527D01*
X144346734Y-140119227D01*
X144285411Y-140152712D01*
X144258194Y-140154904D01*
X144258194Y-140155500D01*
X143509129Y-140155500D01*
X143509123Y-140155501D01*
X143449516Y-140161908D01*
X143314671Y-140212202D01*
X143314664Y-140212206D01*
X143199455Y-140298452D01*
X143199452Y-140298455D01*
X143113206Y-140413664D01*
X143113202Y-140413671D01*
X143062908Y-140548517D01*
X143056501Y-140608116D01*
X143056500Y-140608135D01*
X141344449Y-140608135D01*
X141227124Y-140472707D01*
X141224023Y-140468983D01*
X141160572Y-140389671D01*
X140754430Y-139882000D01*
X140605987Y-139696449D01*
X140603059Y-139692641D01*
X140007614Y-138886194D01*
X140004869Y-138882323D01*
X139959219Y-138815272D01*
X139432207Y-138041186D01*
X139429648Y-138037270D01*
X139391209Y-137975959D01*
X138879971Y-137160532D01*
X138877625Y-137156631D01*
X138351249Y-136243373D01*
X138349063Y-136239414D01*
X138293699Y-136134704D01*
X137845059Y-135286189D01*
X137843549Y-135283237D01*
X137821592Y-135238864D01*
X137602826Y-134796747D01*
X137601901Y-134794837D01*
X137594758Y-134779734D01*
X137365178Y-134294305D01*
X137364315Y-134292436D01*
X137134505Y-133783625D01*
X137133644Y-133781674D01*
X137123093Y-133757190D01*
X136909425Y-133261370D01*
X136908612Y-133259437D01*
X136908610Y-133259433D01*
X136741054Y-132851504D01*
X136691291Y-132730352D01*
X136690509Y-132728401D01*
X136536075Y-132333502D01*
X136479007Y-132187573D01*
X136478297Y-132185713D01*
X136273704Y-131635554D01*
X136273047Y-131633742D01*
X136074553Y-131071685D01*
X136073932Y-131069879D01*
X135882498Y-130498228D01*
X135881878Y-130496326D01*
X135696853Y-129912706D01*
X135696271Y-129910819D01*
X135601912Y-129595864D01*
X135518340Y-129316915D01*
X135517839Y-129315194D01*
X135346591Y-128709113D01*
X135346096Y-128707306D01*
X135182128Y-128090623D01*
X135181694Y-128088940D01*
X135024677Y-127459836D01*
X135024268Y-127458145D01*
X134874680Y-126817891D01*
X134874318Y-126816292D01*
X134736475Y-126184071D01*
X164576499Y-126184071D01*
X164601497Y-126309738D01*
X164601499Y-126309744D01*
X164650533Y-126428124D01*
X164650538Y-126428133D01*
X164721723Y-126534668D01*
X164721726Y-126534672D01*
X164812327Y-126625273D01*
X164812331Y-126625276D01*
X164918866Y-126696461D01*
X164918872Y-126696464D01*
X164918873Y-126696465D01*
X165037256Y-126745501D01*
X165037260Y-126745501D01*
X165037261Y-126745502D01*
X165162928Y-126770500D01*
X165162931Y-126770500D01*
X165291071Y-126770500D01*
X165375615Y-126753682D01*
X165416744Y-126745501D01*
X165535127Y-126696465D01*
X165641669Y-126625276D01*
X165641672Y-126625273D01*
X165735127Y-126531819D01*
X165796450Y-126498334D01*
X165822808Y-126495500D01*
X170356434Y-126495500D01*
X170356436Y-126495500D01*
X170402684Y-126483107D01*
X170412458Y-126480489D01*
X170425617Y-126476962D01*
X170451938Y-126469910D01*
X170537562Y-126420475D01*
X170607475Y-126350562D01*
X170653887Y-126304150D01*
X170659218Y-126298819D01*
X170720541Y-126265334D01*
X170746899Y-126262500D01*
X170879071Y-126262500D01*
X170963615Y-126245682D01*
X171004744Y-126237501D01*
X171123127Y-126188465D01*
X171229669Y-126117276D01*
X171320276Y-126026669D01*
X171391465Y-125920127D01*
X171440501Y-125801744D01*
X171455804Y-125724815D01*
X171465500Y-125676071D01*
X171465500Y-125547928D01*
X171440502Y-125422261D01*
X171440501Y-125422260D01*
X171440501Y-125422256D01*
X171391465Y-125303873D01*
X171391464Y-125303872D01*
X171391461Y-125303866D01*
X171320276Y-125197331D01*
X171320273Y-125197327D01*
X171229672Y-125106726D01*
X171229668Y-125106723D01*
X171123133Y-125035538D01*
X171123124Y-125035533D01*
X171004744Y-124986499D01*
X171004738Y-124986497D01*
X170879071Y-124961500D01*
X170879069Y-124961500D01*
X170750931Y-124961500D01*
X170750929Y-124961500D01*
X170625261Y-124986497D01*
X170625255Y-124986499D01*
X170506875Y-125035533D01*
X170506866Y-125035538D01*
X170400331Y-125106723D01*
X170400327Y-125106726D01*
X170309726Y-125197327D01*
X170309723Y-125197331D01*
X170238538Y-125303866D01*
X170238533Y-125303875D01*
X170189499Y-125422255D01*
X170189497Y-125422261D01*
X170164500Y-125547928D01*
X170164500Y-125620500D01*
X170144815Y-125687539D01*
X170092011Y-125733294D01*
X170040500Y-125744500D01*
X165822808Y-125744500D01*
X165755769Y-125724815D01*
X165735127Y-125708181D01*
X165641672Y-125614726D01*
X165641668Y-125614723D01*
X165535133Y-125543538D01*
X165535124Y-125543533D01*
X165416744Y-125494499D01*
X165416738Y-125494497D01*
X165291071Y-125469500D01*
X165291069Y-125469500D01*
X165162931Y-125469500D01*
X165162929Y-125469500D01*
X165037261Y-125494497D01*
X165037255Y-125494499D01*
X164918875Y-125543533D01*
X164918866Y-125543538D01*
X164812331Y-125614723D01*
X164812327Y-125614726D01*
X164721726Y-125705327D01*
X164721723Y-125705331D01*
X164650538Y-125811866D01*
X164650533Y-125811875D01*
X164601499Y-125930255D01*
X164601497Y-125930261D01*
X164576500Y-126055928D01*
X164576500Y-126055931D01*
X164576500Y-126184069D01*
X164576500Y-126184071D01*
X164576499Y-126184071D01*
X134736475Y-126184071D01*
X134731970Y-126163410D01*
X134731640Y-126161840D01*
X134596917Y-125497325D01*
X134596610Y-125495754D01*
X134469466Y-124818617D01*
X134469161Y-124816924D01*
X134349860Y-124127702D01*
X134349614Y-124126219D01*
X134238159Y-123423980D01*
X134237908Y-123422321D01*
X134234377Y-123397908D01*
X134134565Y-122707716D01*
X134134337Y-122706063D01*
X134047026Y-122038500D01*
X134039127Y-121978105D01*
X134038948Y-121976665D01*
X133952061Y-121235454D01*
X133951914Y-121234121D01*
X133873503Y-120479543D01*
X133873371Y-120478182D01*
X133803596Y-119710179D01*
X133803481Y-119708820D01*
X133742486Y-118927083D01*
X133742379Y-118925580D01*
X133728536Y-118714011D01*
X133690333Y-118130127D01*
X133690243Y-118128610D01*
X133672927Y-117802261D01*
X133647286Y-117319029D01*
X133647219Y-117317582D01*
X133646607Y-117302617D01*
X133613514Y-116493634D01*
X133613467Y-116492310D01*
X133589192Y-115654240D01*
X133589159Y-115652799D01*
X133575780Y-114876202D01*
X133574458Y-114799474D01*
X133574445Y-114798298D01*
X133569510Y-113930407D01*
X133569510Y-113929312D01*
X133576542Y-112600061D01*
X133576550Y-112599187D01*
X133576660Y-112590594D01*
X133593383Y-111287673D01*
X133593399Y-111286783D01*
X133593399Y-111286782D01*
X133619891Y-109993638D01*
X133619902Y-109993199D01*
X133655916Y-108718353D01*
X133655945Y-108717476D01*
X133655946Y-108717474D01*
X133701326Y-107461232D01*
X133701362Y-107460334D01*
X133755997Y-106221865D01*
X133756023Y-106221329D01*
X133819765Y-105000772D01*
X133819796Y-105000223D01*
X133892510Y-103797422D01*
X133892571Y-103796499D01*
X133974126Y-102611285D01*
X133974169Y-102610690D01*
X134064414Y-101443091D01*
X134064464Y-101442477D01*
X134163317Y-100291752D01*
X134163411Y-100290722D01*
X134171875Y-100201305D01*
X134270633Y-99157923D01*
X134270735Y-99156891D01*
X134270736Y-99156881D01*
X134386350Y-98040243D01*
X134386458Y-98039246D01*
X134391120Y-97997838D01*
X134510193Y-96940018D01*
X134510316Y-96938980D01*
X134642165Y-95855918D01*
X134642257Y-95855189D01*
X134782002Y-94788906D01*
X134782156Y-94787777D01*
X134810159Y-94588513D01*
X134929751Y-93737528D01*
X134929912Y-93736423D01*
X134941658Y-93658207D01*
X135085130Y-92702776D01*
X135085306Y-92701645D01*
X135119777Y-92486147D01*
X135248163Y-91683537D01*
X135248350Y-91682402D01*
X135275936Y-91520054D01*
X135418553Y-90680737D01*
X135418752Y-90679603D01*
X135438037Y-90572498D01*
X135596456Y-89692655D01*
X135596670Y-89691507D01*
X135781415Y-88721037D01*
X135781603Y-88720073D01*
X135973654Y-87763912D01*
X135973872Y-87762853D01*
X136172714Y-86822875D01*
X136172907Y-86821986D01*
X136378894Y-85895826D01*
X136379103Y-85894912D01*
X136591543Y-84985045D01*
X136591834Y-84983829D01*
X136811207Y-84087563D01*
X136811457Y-84086564D01*
X137037118Y-83205955D01*
X137037389Y-83204921D01*
X137269831Y-82337490D01*
X137270113Y-82336462D01*
X137508496Y-81484807D01*
X137508812Y-81483701D01*
X137753870Y-80644687D01*
X137754161Y-80643712D01*
X138004917Y-79820190D01*
X138005258Y-79819094D01*
X138262502Y-79008013D01*
X138262849Y-79006940D01*
X138525525Y-78211167D01*
X138525981Y-78209814D01*
X138525989Y-78209791D01*
X138794966Y-77426245D01*
X138795405Y-77424991D01*
X139069621Y-76656360D01*
X139070121Y-76654985D01*
X139173625Y-76375640D01*
X139350548Y-75898145D01*
X139351007Y-75896929D01*
X139636434Y-75154765D01*
X139636929Y-75153504D01*
X139928515Y-74422653D01*
X139929000Y-74421459D01*
X140225249Y-73705306D01*
X140225742Y-73704137D01*
X140528055Y-72998959D01*
X140528686Y-72997515D01*
X140709631Y-72590071D01*
X142224499Y-72590071D01*
X142249497Y-72715738D01*
X142249499Y-72715744D01*
X142298533Y-72834124D01*
X142298538Y-72834133D01*
X142369723Y-72940668D01*
X142369726Y-72940672D01*
X142460327Y-73031273D01*
X142460331Y-73031276D01*
X142566866Y-73102461D01*
X142566872Y-73102464D01*
X142566873Y-73102465D01*
X142685256Y-73151501D01*
X142685260Y-73151501D01*
X142685261Y-73151502D01*
X142810928Y-73176500D01*
X142810931Y-73176500D01*
X142939071Y-73176500D01*
X143023615Y-73159682D01*
X143064744Y-73151501D01*
X143183127Y-73102465D01*
X143289669Y-73031276D01*
X143380276Y-72940669D01*
X143451465Y-72834127D01*
X143500501Y-72715744D01*
X143512555Y-72655146D01*
X143525500Y-72590071D01*
X143525500Y-72461928D01*
X143500502Y-72336261D01*
X143500501Y-72336260D01*
X143500501Y-72336256D01*
X143451465Y-72217873D01*
X143451464Y-72217872D01*
X143451461Y-72217866D01*
X143380276Y-72111331D01*
X143380273Y-72111327D01*
X143286819Y-72017873D01*
X143253334Y-71956550D01*
X143250500Y-71930192D01*
X143250500Y-71568499D01*
X143270185Y-71501460D01*
X143322989Y-71455705D01*
X143374500Y-71444499D01*
X143492871Y-71444499D01*
X143492872Y-71444499D01*
X143552483Y-71438091D01*
X143687331Y-71387796D01*
X143802546Y-71301546D01*
X143888796Y-71186331D01*
X143939091Y-71051483D01*
X143945500Y-70991873D01*
X143945499Y-69996135D01*
X144344500Y-69996135D01*
X144344500Y-70991870D01*
X144344501Y-70991876D01*
X144350908Y-71051483D01*
X144401202Y-71186328D01*
X144401206Y-71186335D01*
X144487452Y-71301544D01*
X144487455Y-71301547D01*
X144602664Y-71387793D01*
X144602671Y-71387797D01*
X144647618Y-71404561D01*
X144737517Y-71438091D01*
X144797127Y-71444500D01*
X145542872Y-71444499D01*
X145602483Y-71438091D01*
X145737331Y-71387796D01*
X145852546Y-71301546D01*
X145938796Y-71186331D01*
X145989091Y-71051483D01*
X145989090Y-71051483D01*
X145989582Y-71050167D01*
X146002851Y-71032440D01*
X146012051Y-71012297D01*
X146023381Y-71005015D01*
X146031453Y-70994233D01*
X146052201Y-70986494D01*
X146070829Y-70974523D01*
X146092745Y-70971371D01*
X146096917Y-70969816D01*
X146105764Y-70969500D01*
X146264236Y-70969500D01*
X146331275Y-70989185D01*
X146377030Y-71041989D01*
X146380418Y-71050167D01*
X146431202Y-71186328D01*
X146431206Y-71186335D01*
X146517452Y-71301544D01*
X146517455Y-71301547D01*
X146632664Y-71387793D01*
X146632671Y-71387797D01*
X146767517Y-71438091D01*
X146767516Y-71438091D01*
X146774444Y-71438835D01*
X146827127Y-71444500D01*
X147622872Y-71444499D01*
X147682483Y-71438091D01*
X147817331Y-71387796D01*
X147932546Y-71301546D01*
X147978502Y-71240156D01*
X148034434Y-71198287D01*
X148104125Y-71193303D01*
X148165448Y-71226788D01*
X148186665Y-71257089D01*
X148186851Y-71256975D01*
X148188819Y-71260166D01*
X148190151Y-71262068D01*
X148190642Y-71263121D01*
X148282684Y-71412345D01*
X148406654Y-71536315D01*
X148555875Y-71628356D01*
X148555880Y-71628358D01*
X148722302Y-71683505D01*
X148722309Y-71683506D01*
X148825019Y-71693999D01*
X148974999Y-71693999D01*
X149475000Y-71693999D01*
X149624972Y-71693999D01*
X149624986Y-71693998D01*
X149727697Y-71683505D01*
X149894119Y-71628358D01*
X149894124Y-71628356D01*
X150043345Y-71536315D01*
X150167315Y-71412345D01*
X150259356Y-71263124D01*
X150259358Y-71263119D01*
X150314505Y-71096697D01*
X150314506Y-71096690D01*
X150324999Y-70993986D01*
X150325000Y-70993973D01*
X150325000Y-70744000D01*
X149475000Y-70744000D01*
X149475000Y-71693999D01*
X148974999Y-71693999D01*
X148975000Y-71693998D01*
X148975000Y-70244000D01*
X149475000Y-70244000D01*
X150324999Y-70244000D01*
X150324999Y-69994028D01*
X150324998Y-69994013D01*
X150314505Y-69891302D01*
X150259358Y-69724880D01*
X150259356Y-69724875D01*
X150167315Y-69575654D01*
X150043345Y-69451684D01*
X149894124Y-69359643D01*
X149894119Y-69359641D01*
X149727697Y-69304494D01*
X149727690Y-69304493D01*
X149624986Y-69294000D01*
X149475000Y-69294000D01*
X149475000Y-70244000D01*
X148975000Y-70244000D01*
X148975000Y-69294000D01*
X148825027Y-69294000D01*
X148825012Y-69294001D01*
X148722302Y-69304494D01*
X148555880Y-69359641D01*
X148555875Y-69359643D01*
X148406654Y-69451684D01*
X148282684Y-69575654D01*
X148190637Y-69724885D01*
X148190148Y-69725936D01*
X148189620Y-69726535D01*
X148186851Y-69731025D01*
X148186083Y-69730551D01*
X148143975Y-69778375D01*
X148076782Y-69797526D01*
X148009901Y-69777309D01*
X147978501Y-69747841D01*
X147932547Y-69686455D01*
X147932544Y-69686452D01*
X147817335Y-69600206D01*
X147817328Y-69600202D01*
X147682482Y-69549908D01*
X147682483Y-69549908D01*
X147622883Y-69543501D01*
X147622881Y-69543500D01*
X147622873Y-69543500D01*
X147622864Y-69543500D01*
X146827129Y-69543500D01*
X146827123Y-69543501D01*
X146767516Y-69549908D01*
X146632671Y-69600202D01*
X146632664Y-69600206D01*
X146517455Y-69686452D01*
X146517452Y-69686455D01*
X146431206Y-69801664D01*
X146431202Y-69801671D01*
X146380418Y-69937833D01*
X146367148Y-69955559D01*
X146357949Y-69975703D01*
X146346618Y-69982984D01*
X146338547Y-69993767D01*
X146317798Y-70001505D01*
X146299171Y-70013477D01*
X146277254Y-70016628D01*
X146273083Y-70018184D01*
X146264236Y-70018500D01*
X146105764Y-70018500D01*
X146038725Y-69998815D01*
X145992970Y-69946011D01*
X145989582Y-69937833D01*
X145938797Y-69801671D01*
X145938793Y-69801664D01*
X145852547Y-69686455D01*
X145852544Y-69686452D01*
X145737335Y-69600206D01*
X145737328Y-69600202D01*
X145602486Y-69549910D01*
X145602485Y-69549909D01*
X145602483Y-69549909D01*
X145542873Y-69543500D01*
X145542863Y-69543500D01*
X144797129Y-69543500D01*
X144797123Y-69543501D01*
X144737516Y-69549908D01*
X144602671Y-69600202D01*
X144602664Y-69600206D01*
X144487455Y-69686452D01*
X144487452Y-69686455D01*
X144401206Y-69801664D01*
X144401202Y-69801671D01*
X144350908Y-69936517D01*
X144344501Y-69996116D01*
X144344500Y-69996135D01*
X143945499Y-69996135D01*
X143945499Y-69996128D01*
X143940112Y-69946011D01*
X143939091Y-69936516D01*
X143888797Y-69801671D01*
X143888793Y-69801664D01*
X143802547Y-69686455D01*
X143802544Y-69686452D01*
X143687335Y-69600206D01*
X143687328Y-69600202D01*
X143552486Y-69549910D01*
X143552485Y-69549909D01*
X143552483Y-69549909D01*
X143492873Y-69543500D01*
X143492863Y-69543500D01*
X142747129Y-69543500D01*
X142747123Y-69543501D01*
X142687516Y-69549908D01*
X142552671Y-69600202D01*
X142552664Y-69600206D01*
X142437455Y-69686452D01*
X142437452Y-69686455D01*
X142351206Y-69801664D01*
X142351202Y-69801671D01*
X142300908Y-69936517D01*
X142294501Y-69996116D01*
X142294500Y-69996135D01*
X142294500Y-70991870D01*
X142294501Y-70991876D01*
X142300908Y-71051483D01*
X142351202Y-71186328D01*
X142351203Y-71186329D01*
X142351204Y-71186331D01*
X142437454Y-71301546D01*
X142449812Y-71310797D01*
X142491681Y-71366726D01*
X142499500Y-71410062D01*
X142499500Y-71930192D01*
X142479815Y-71997231D01*
X142463181Y-72017873D01*
X142369726Y-72111327D01*
X142369723Y-72111331D01*
X142298538Y-72217866D01*
X142298533Y-72217875D01*
X142249499Y-72336255D01*
X142249497Y-72336261D01*
X142224500Y-72461928D01*
X142224500Y-72461931D01*
X142224500Y-72590069D01*
X142224500Y-72590071D01*
X142224499Y-72590071D01*
X140709631Y-72590071D01*
X140791594Y-72405511D01*
X140797556Y-72392084D01*
X140835356Y-72306969D01*
X140836003Y-72305538D01*
X140911266Y-72141870D01*
X141148654Y-71625639D01*
X141149255Y-71624353D01*
X141466142Y-70958604D01*
X141466764Y-70957320D01*
X141789632Y-70301775D01*
X141790252Y-70300536D01*
X142116969Y-69659240D01*
X142117633Y-69657958D01*
X142450268Y-69026579D01*
X142450964Y-69025281D01*
X142786072Y-68410027D01*
X142787340Y-68407757D01*
X143475836Y-67204632D01*
X143477579Y-67201684D01*
X144183191Y-66046614D01*
X144185113Y-66043569D01*
X144185114Y-66043568D01*
X144908356Y-64933846D01*
X144910382Y-64930837D01*
X145650777Y-63865578D01*
X145652927Y-63862582D01*
X146410029Y-62840932D01*
X146412276Y-62837996D01*
X147185608Y-61859222D01*
X147188029Y-61856256D01*
X147977017Y-60919799D01*
X147979561Y-60916875D01*
X148783926Y-60021889D01*
X148786627Y-60018981D01*
X149605777Y-59165025D01*
X149608640Y-59162139D01*
X150442180Y-58348619D01*
X150445106Y-58345857D01*
X151292579Y-57572285D01*
X151295691Y-57569539D01*
X152156542Y-56835558D01*
X152159733Y-56832930D01*
X153033420Y-56138202D01*
X153036775Y-56135627D01*
X153922668Y-55479904D01*
X153926084Y-55477467D01*
X154823405Y-54860620D01*
X154826971Y-54858260D01*
X155734850Y-54280217D01*
X155738497Y-54277985D01*
X156655837Y-53738794D01*
X156659668Y-53736635D01*
X157585119Y-53236446D01*
X157589040Y-53234417D01*
X158521124Y-52773380D01*
X158525102Y-52771503D01*
X159461574Y-52350048D01*
X159465718Y-52348273D01*
X160404055Y-51966799D01*
X160408219Y-51965195D01*
X161344917Y-51624289D01*
X161349270Y-51622797D01*
X162279597Y-51323190D01*
X162284035Y-51321853D01*
X163201719Y-51064337D01*
X163206323Y-51063139D01*
X164102442Y-50848622D01*
X164107182Y-50847586D01*
X164968364Y-50677087D01*
X164973328Y-50676209D01*
X165603398Y-50577977D01*
X165672670Y-50587100D01*
X165726013Y-50632225D01*
X165746491Y-50699026D01*
X165746500Y-50700497D01*
X165746500Y-52241870D01*
X165746501Y-52241876D01*
X165752908Y-52301483D01*
X165803202Y-52436328D01*
X165803206Y-52436335D01*
X165889452Y-52551544D01*
X165889455Y-52551547D01*
X166004664Y-52637793D01*
X166004671Y-52637797D01*
X166049618Y-52654561D01*
X166139517Y-52688091D01*
X166199127Y-52694500D01*
X166544500Y-52694499D01*
X166611539Y-52714183D01*
X166657294Y-52766987D01*
X166668500Y-52818499D01*
X166668500Y-63231101D01*
X166648815Y-63298140D01*
X166596011Y-63343895D01*
X166526853Y-63353839D01*
X166463297Y-63324814D01*
X166456819Y-63318782D01*
X159563819Y-56425782D01*
X159530334Y-56364459D01*
X159527500Y-56338101D01*
X159527500Y-56205928D01*
X159502502Y-56080261D01*
X159502501Y-56080260D01*
X159502501Y-56080256D01*
X159453465Y-55961873D01*
X159453464Y-55961872D01*
X159453461Y-55961866D01*
X159382276Y-55855331D01*
X159382273Y-55855327D01*
X159291672Y-55764726D01*
X159291668Y-55764723D01*
X159185133Y-55693538D01*
X159185124Y-55693533D01*
X159066744Y-55644499D01*
X159066738Y-55644497D01*
X158941071Y-55619500D01*
X158941069Y-55619500D01*
X158812931Y-55619500D01*
X158812929Y-55619500D01*
X158687261Y-55644497D01*
X158687255Y-55644499D01*
X158568875Y-55693533D01*
X158568866Y-55693538D01*
X158462331Y-55764723D01*
X158462327Y-55764726D01*
X158371726Y-55855327D01*
X158371723Y-55855331D01*
X158300538Y-55961866D01*
X158300533Y-55961875D01*
X158251499Y-56080255D01*
X158251497Y-56080261D01*
X158226500Y-56205928D01*
X158226500Y-56205931D01*
X158226500Y-56334069D01*
X158226500Y-56334071D01*
X158226499Y-56334071D01*
X158251497Y-56459738D01*
X158251499Y-56459744D01*
X158300533Y-56578124D01*
X158300538Y-56578133D01*
X158371723Y-56684668D01*
X158371726Y-56684672D01*
X158462327Y-56775273D01*
X158462331Y-56775276D01*
X158568866Y-56846461D01*
X158568875Y-56846466D01*
X158581043Y-56851506D01*
X158687256Y-56895501D01*
X158687260Y-56895501D01*
X158687261Y-56895502D01*
X158812928Y-56920500D01*
X158945101Y-56920500D01*
X159012140Y-56940185D01*
X159032782Y-56956819D01*
X165831181Y-63755218D01*
X165864666Y-63816541D01*
X165867500Y-63842899D01*
X165867500Y-100513100D01*
X165847815Y-100580139D01*
X165831181Y-100600781D01*
X160048781Y-106383181D01*
X159987458Y-106416666D01*
X159961100Y-106419500D01*
X159828929Y-106419500D01*
X159703261Y-106444497D01*
X159703255Y-106444499D01*
X159584875Y-106493533D01*
X159584866Y-106493538D01*
X159478331Y-106564723D01*
X159478327Y-106564726D01*
X159387726Y-106655327D01*
X159387723Y-106655331D01*
X159316538Y-106761866D01*
X159316533Y-106761875D01*
X159267499Y-106880255D01*
X159267497Y-106880261D01*
X159242500Y-107005928D01*
X159242500Y-107005931D01*
X159242500Y-107134069D01*
X159242500Y-107134071D01*
X159242499Y-107134071D01*
X159267497Y-107259738D01*
X159267499Y-107259744D01*
X159316533Y-107378124D01*
X159316538Y-107378133D01*
X159387723Y-107484668D01*
X159387726Y-107484672D01*
X159478327Y-107575273D01*
X159478331Y-107575276D01*
X159584866Y-107646461D01*
X159584872Y-107646464D01*
X159584873Y-107646465D01*
X159703256Y-107695501D01*
X159703260Y-107695501D01*
X159703261Y-107695502D01*
X159828928Y-107720500D01*
X159828931Y-107720500D01*
X159957071Y-107720500D01*
X160041615Y-107703682D01*
X160082744Y-107695501D01*
X160201127Y-107646465D01*
X160307669Y-107575276D01*
X160398276Y-107484669D01*
X160469465Y-107378127D01*
X160518501Y-107259744D01*
X160532871Y-107187502D01*
X160543500Y-107134071D01*
X160543500Y-107001898D01*
X160563185Y-106934859D01*
X160579819Y-106914217D01*
X163521519Y-103972517D01*
X166456821Y-101037215D01*
X166518142Y-101003732D01*
X166587834Y-101008716D01*
X166643767Y-101050588D01*
X166668184Y-101116052D01*
X166668500Y-101124898D01*
X166668500Y-104771500D01*
X166648815Y-104838539D01*
X166596011Y-104884294D01*
X166544500Y-104895500D01*
X166432929Y-104895500D01*
X166307261Y-104920497D01*
X166307255Y-104920499D01*
X166188875Y-104969533D01*
X166188866Y-104969538D01*
X166082331Y-105040723D01*
X166082327Y-105040726D01*
X165991726Y-105131327D01*
X165991723Y-105131331D01*
X165920538Y-105237866D01*
X165920533Y-105237875D01*
X165871499Y-105356255D01*
X165871497Y-105356261D01*
X165856617Y-105431068D01*
X165824232Y-105492979D01*
X165763516Y-105527553D01*
X165693746Y-105523812D01*
X165637074Y-105482946D01*
X165613383Y-105431068D01*
X165598502Y-105356261D01*
X165598501Y-105356260D01*
X165598501Y-105356256D01*
X165549465Y-105237873D01*
X165549464Y-105237872D01*
X165549461Y-105237866D01*
X165478276Y-105131331D01*
X165478273Y-105131327D01*
X165387672Y-105040726D01*
X165387668Y-105040723D01*
X165281133Y-104969538D01*
X165281124Y-104969533D01*
X165162744Y-104920499D01*
X165162738Y-104920497D01*
X165037071Y-104895500D01*
X165037069Y-104895500D01*
X164908931Y-104895500D01*
X164908929Y-104895500D01*
X164783261Y-104920497D01*
X164783255Y-104920499D01*
X164664875Y-104969533D01*
X164664866Y-104969538D01*
X164558331Y-105040723D01*
X164558327Y-105040726D01*
X164467726Y-105131327D01*
X164467723Y-105131331D01*
X164396538Y-105237866D01*
X164396533Y-105237875D01*
X164347499Y-105356255D01*
X164347497Y-105356261D01*
X164322500Y-105481928D01*
X164322500Y-105481931D01*
X164322500Y-105610069D01*
X164322500Y-105610071D01*
X164322499Y-105610071D01*
X164347497Y-105735738D01*
X164347499Y-105735744D01*
X164396533Y-105854124D01*
X164396538Y-105854133D01*
X164467723Y-105960668D01*
X164467726Y-105960672D01*
X164473373Y-105966319D01*
X164506858Y-106027642D01*
X164501874Y-106097334D01*
X164473373Y-106141681D01*
X164467726Y-106147327D01*
X164467723Y-106147331D01*
X164396538Y-106253866D01*
X164396533Y-106253875D01*
X164347499Y-106372255D01*
X164347497Y-106372261D01*
X164322500Y-106497928D01*
X164322500Y-106497931D01*
X164322500Y-106626069D01*
X164322500Y-106626071D01*
X164322499Y-106626071D01*
X164347497Y-106751738D01*
X164347499Y-106751744D01*
X164396533Y-106870124D01*
X164396538Y-106870133D01*
X164467723Y-106976668D01*
X164467726Y-106976672D01*
X164558327Y-107067273D01*
X164558331Y-107067276D01*
X164664866Y-107138461D01*
X164664872Y-107138464D01*
X164664873Y-107138465D01*
X164783256Y-107187501D01*
X164783260Y-107187501D01*
X164783261Y-107187502D01*
X164908928Y-107212500D01*
X164908931Y-107212500D01*
X165037071Y-107212500D01*
X165144500Y-107191130D01*
X165162744Y-107187501D01*
X165281127Y-107138465D01*
X165387669Y-107067276D01*
X165478276Y-106976669D01*
X165549465Y-106870127D01*
X165598501Y-106751744D01*
X165607899Y-106704500D01*
X165613383Y-106676931D01*
X165645768Y-106615020D01*
X165706484Y-106580446D01*
X165776254Y-106584187D01*
X165832925Y-106625053D01*
X165856617Y-106676931D01*
X165871497Y-106751738D01*
X165871499Y-106751744D01*
X165920533Y-106870124D01*
X165920538Y-106870133D01*
X165991723Y-106976668D01*
X165991726Y-106976672D01*
X166082327Y-107067273D01*
X166082331Y-107067276D01*
X166188866Y-107138461D01*
X166188872Y-107138464D01*
X166188873Y-107138465D01*
X166307256Y-107187501D01*
X166307260Y-107187501D01*
X166307261Y-107187502D01*
X166432928Y-107212500D01*
X166544500Y-107212500D01*
X166611539Y-107232185D01*
X166657294Y-107284989D01*
X166668500Y-107336500D01*
X166668500Y-108073500D01*
X166648815Y-108140539D01*
X166596011Y-108186294D01*
X166544500Y-108197500D01*
X166432929Y-108197500D01*
X166307261Y-108222497D01*
X166307255Y-108222499D01*
X166188875Y-108271533D01*
X166188866Y-108271538D01*
X166082331Y-108342723D01*
X166082327Y-108342726D01*
X165991726Y-108433327D01*
X165991723Y-108433331D01*
X165920538Y-108539866D01*
X165920533Y-108539875D01*
X165871499Y-108658255D01*
X165871497Y-108658261D01*
X165856617Y-108733068D01*
X165824232Y-108794979D01*
X165763516Y-108829553D01*
X165693746Y-108825812D01*
X165637074Y-108784946D01*
X165613383Y-108733068D01*
X165598502Y-108658261D01*
X165598501Y-108658260D01*
X165598501Y-108658256D01*
X165549465Y-108539873D01*
X165549464Y-108539872D01*
X165549461Y-108539866D01*
X165478276Y-108433331D01*
X165478273Y-108433327D01*
X165387672Y-108342726D01*
X165387668Y-108342723D01*
X165281133Y-108271538D01*
X165281124Y-108271533D01*
X165162744Y-108222499D01*
X165162738Y-108222497D01*
X165037071Y-108197500D01*
X165037069Y-108197500D01*
X164908931Y-108197500D01*
X164908929Y-108197500D01*
X164783261Y-108222497D01*
X164783255Y-108222499D01*
X164664875Y-108271533D01*
X164664866Y-108271538D01*
X164558331Y-108342723D01*
X164558327Y-108342726D01*
X164467726Y-108433327D01*
X164467723Y-108433331D01*
X164396538Y-108539866D01*
X164396533Y-108539875D01*
X164347499Y-108658255D01*
X164347497Y-108658261D01*
X164322500Y-108783928D01*
X164322500Y-108783931D01*
X164322500Y-108912069D01*
X164322500Y-108912071D01*
X164322499Y-108912071D01*
X164347497Y-109037738D01*
X164347499Y-109037744D01*
X164396533Y-109156124D01*
X164396538Y-109156133D01*
X164467723Y-109262668D01*
X164467726Y-109262672D01*
X164473373Y-109268319D01*
X164506858Y-109329642D01*
X164501874Y-109399334D01*
X164473373Y-109443681D01*
X164467726Y-109449327D01*
X164467723Y-109449331D01*
X164396538Y-109555866D01*
X164396533Y-109555875D01*
X164347499Y-109674255D01*
X164347497Y-109674261D01*
X164322500Y-109799928D01*
X164322500Y-109799931D01*
X164322500Y-109928069D01*
X164322500Y-109928071D01*
X164322499Y-109928071D01*
X164347497Y-110053738D01*
X164347499Y-110053744D01*
X164396533Y-110172124D01*
X164396538Y-110172133D01*
X164467723Y-110278668D01*
X164467726Y-110278672D01*
X164558327Y-110369273D01*
X164558331Y-110369276D01*
X164664866Y-110440461D01*
X164664872Y-110440464D01*
X164664873Y-110440465D01*
X164783256Y-110489501D01*
X164783260Y-110489501D01*
X164783261Y-110489502D01*
X164908928Y-110514500D01*
X164908931Y-110514500D01*
X165037071Y-110514500D01*
X165144500Y-110493130D01*
X165162744Y-110489501D01*
X165281127Y-110440465D01*
X165387669Y-110369276D01*
X165478276Y-110278669D01*
X165549465Y-110172127D01*
X165598501Y-110053744D01*
X165610399Y-109993930D01*
X165613383Y-109978931D01*
X165645768Y-109917020D01*
X165706484Y-109882446D01*
X165776254Y-109886187D01*
X165832925Y-109927053D01*
X165856617Y-109978931D01*
X165871497Y-110053738D01*
X165871499Y-110053744D01*
X165920533Y-110172124D01*
X165920538Y-110172133D01*
X165991723Y-110278668D01*
X165991726Y-110278672D01*
X166082327Y-110369273D01*
X166082331Y-110369276D01*
X166188866Y-110440461D01*
X166188872Y-110440464D01*
X166188873Y-110440465D01*
X166307256Y-110489501D01*
X166307260Y-110489501D01*
X166307261Y-110489502D01*
X166432928Y-110514500D01*
X166544500Y-110514500D01*
X166611539Y-110534185D01*
X166657294Y-110586989D01*
X166668500Y-110638500D01*
X166668500Y-111375500D01*
X166648815Y-111442539D01*
X166596011Y-111488294D01*
X166544500Y-111499500D01*
X166432929Y-111499500D01*
X166307261Y-111524497D01*
X166307255Y-111524499D01*
X166188875Y-111573533D01*
X166188866Y-111573538D01*
X166082331Y-111644723D01*
X166082327Y-111644726D01*
X165991726Y-111735327D01*
X165991723Y-111735331D01*
X165920538Y-111841866D01*
X165920533Y-111841875D01*
X165871499Y-111960255D01*
X165871497Y-111960261D01*
X165856617Y-112035068D01*
X165824232Y-112096979D01*
X165763516Y-112131553D01*
X165693746Y-112127812D01*
X165637074Y-112086946D01*
X165613383Y-112035068D01*
X165598502Y-111960261D01*
X165598501Y-111960260D01*
X165598501Y-111960256D01*
X165549465Y-111841873D01*
X165549464Y-111841872D01*
X165549461Y-111841866D01*
X165478276Y-111735331D01*
X165478273Y-111735327D01*
X165387672Y-111644726D01*
X165387668Y-111644723D01*
X165281133Y-111573538D01*
X165281124Y-111573533D01*
X165162744Y-111524499D01*
X165162738Y-111524497D01*
X165037071Y-111499500D01*
X165037069Y-111499500D01*
X164908931Y-111499500D01*
X164908929Y-111499500D01*
X164783261Y-111524497D01*
X164783255Y-111524499D01*
X164664875Y-111573533D01*
X164664866Y-111573538D01*
X164558331Y-111644723D01*
X164558327Y-111644726D01*
X164467726Y-111735327D01*
X164467723Y-111735331D01*
X164396538Y-111841866D01*
X164396533Y-111841875D01*
X164347499Y-111960255D01*
X164347497Y-111960261D01*
X164322500Y-112085928D01*
X164322500Y-112085931D01*
X164322500Y-112214069D01*
X164322500Y-112214071D01*
X164322499Y-112214071D01*
X164347497Y-112339738D01*
X164347499Y-112339744D01*
X164396533Y-112458124D01*
X164396538Y-112458133D01*
X164467723Y-112564668D01*
X164467726Y-112564672D01*
X164473373Y-112570319D01*
X164506858Y-112631642D01*
X164501874Y-112701334D01*
X164473373Y-112745681D01*
X164467726Y-112751327D01*
X164467723Y-112751331D01*
X164396538Y-112857866D01*
X164396533Y-112857875D01*
X164347499Y-112976255D01*
X164347497Y-112976261D01*
X164322500Y-113101928D01*
X164322500Y-113101931D01*
X164322500Y-113230069D01*
X164322500Y-113230071D01*
X164322499Y-113230071D01*
X164347497Y-113355738D01*
X164347499Y-113355744D01*
X164396533Y-113474124D01*
X164396538Y-113474133D01*
X164467723Y-113580668D01*
X164467726Y-113580672D01*
X164558327Y-113671273D01*
X164558331Y-113671276D01*
X164664866Y-113742461D01*
X164664872Y-113742464D01*
X164664873Y-113742465D01*
X164783256Y-113791501D01*
X164783260Y-113791501D01*
X164783261Y-113791502D01*
X164908928Y-113816500D01*
X164908931Y-113816500D01*
X165037071Y-113816500D01*
X165144500Y-113795130D01*
X165162744Y-113791501D01*
X165281127Y-113742465D01*
X165387669Y-113671276D01*
X165478276Y-113580669D01*
X165549465Y-113474127D01*
X165598501Y-113355744D01*
X165609075Y-113302588D01*
X165613383Y-113280931D01*
X165645768Y-113219020D01*
X165706484Y-113184446D01*
X165776254Y-113188187D01*
X165832925Y-113229053D01*
X165856617Y-113280931D01*
X165871497Y-113355738D01*
X165871499Y-113355744D01*
X165920533Y-113474124D01*
X165920538Y-113474133D01*
X165991723Y-113580668D01*
X165991726Y-113580672D01*
X166082327Y-113671273D01*
X166082331Y-113671276D01*
X166188866Y-113742461D01*
X166188872Y-113742464D01*
X166188873Y-113742465D01*
X166307256Y-113791501D01*
X166307260Y-113791501D01*
X166307261Y-113791502D01*
X166432928Y-113816500D01*
X166544500Y-113816500D01*
X166611539Y-113836185D01*
X166657294Y-113888989D01*
X166668500Y-113940500D01*
X166668500Y-116517534D01*
X166698898Y-116689937D01*
X166758775Y-116854446D01*
X166846309Y-117006057D01*
X166958836Y-117140163D01*
X167092942Y-117252690D01*
X167092943Y-117252691D01*
X167092945Y-117252692D01*
X167244555Y-117340225D01*
X167409062Y-117400101D01*
X167581468Y-117430500D01*
X167581472Y-117430500D01*
X168556528Y-117430500D01*
X168556532Y-117430500D01*
X168728938Y-117400101D01*
X168893445Y-117340225D01*
X169045055Y-117252692D01*
X169179163Y-117140163D01*
X169291692Y-117006055D01*
X169379225Y-116854445D01*
X169439101Y-116689938D01*
X169469500Y-116517532D01*
X169469500Y-116495310D01*
X169489185Y-116428271D01*
X169505819Y-116407629D01*
X171707448Y-114206000D01*
X169593500Y-114206000D01*
X169584814Y-114203449D01*
X169575853Y-114204738D01*
X169551812Y-114193759D01*
X169526461Y-114186315D01*
X169520533Y-114179474D01*
X169512297Y-114175713D01*
X169498007Y-114153478D01*
X169480706Y-114133511D01*
X169478418Y-114122996D01*
X169474523Y-114116935D01*
X169469500Y-114082000D01*
X169469500Y-114032500D01*
X169489185Y-113965461D01*
X169541989Y-113919706D01*
X169593500Y-113908500D01*
X172085676Y-113908500D01*
X172085677Y-113908499D01*
X172158740Y-113893966D01*
X172241601Y-113838601D01*
X172296966Y-113755740D01*
X172311500Y-113682674D01*
X172311500Y-113348321D01*
X172331185Y-113281282D01*
X172383989Y-113235527D01*
X172453147Y-113225583D01*
X172516703Y-113254608D01*
X172523181Y-113260640D01*
X173097181Y-113834640D01*
X173130666Y-113895963D01*
X173133500Y-113922321D01*
X173133500Y-116473679D01*
X173113815Y-116540718D01*
X173097181Y-116561360D01*
X172768139Y-116890401D01*
X172706816Y-116923886D01*
X172637124Y-116918902D01*
X172581191Y-116877030D01*
X172556774Y-116811566D01*
X172557169Y-116789463D01*
X172560999Y-116753841D01*
X172561000Y-116753827D01*
X172561000Y-114658172D01*
X172560999Y-114658155D01*
X172554598Y-114598627D01*
X172554596Y-114598620D01*
X172504354Y-114463913D01*
X172504350Y-114463906D01*
X172418191Y-114348814D01*
X172418186Y-114348809D01*
X172334436Y-114286113D01*
X170737776Y-115882776D01*
X169522790Y-117097759D01*
X169440912Y-117206000D01*
X171935690Y-117206000D01*
X172002729Y-117225685D01*
X172048484Y-117278489D01*
X172058428Y-117347647D01*
X172029403Y-117411203D01*
X172004581Y-117433102D01*
X171924331Y-117486723D01*
X171924327Y-117486726D01*
X171833726Y-117577327D01*
X171833723Y-117577331D01*
X171762538Y-117683866D01*
X171762533Y-117683875D01*
X171713499Y-117802255D01*
X171713497Y-117802261D01*
X171688500Y-117927928D01*
X171688500Y-117927931D01*
X171688500Y-118056069D01*
X171688500Y-118056071D01*
X171688499Y-118056071D01*
X171713497Y-118181738D01*
X171713499Y-118181744D01*
X171762533Y-118300124D01*
X171762538Y-118300133D01*
X171833723Y-118406668D01*
X171833726Y-118406672D01*
X171924327Y-118497273D01*
X171924331Y-118497276D01*
X172017302Y-118559398D01*
X172062107Y-118613010D01*
X172070814Y-118682335D01*
X172040659Y-118745363D01*
X171981216Y-118782082D01*
X171948411Y-118786500D01*
X165729321Y-118786500D01*
X165662282Y-118766815D01*
X165641640Y-118750181D01*
X163706819Y-116815360D01*
X163673334Y-116754037D01*
X163670500Y-116727679D01*
X163670500Y-109851319D01*
X163690185Y-109784280D01*
X163698649Y-109772651D01*
X163700269Y-109770675D01*
X163700276Y-109770669D01*
X163771465Y-109664127D01*
X163820501Y-109545744D01*
X163839679Y-109449333D01*
X163845500Y-109420071D01*
X163845500Y-109291928D01*
X163820502Y-109166261D01*
X163820501Y-109166260D01*
X163820501Y-109166256D01*
X163771465Y-109047873D01*
X163771464Y-109047872D01*
X163771461Y-109047866D01*
X163700276Y-108941331D01*
X163700273Y-108941327D01*
X163609672Y-108850726D01*
X163609668Y-108850723D01*
X163503133Y-108779538D01*
X163503124Y-108779533D01*
X163384744Y-108730499D01*
X163384738Y-108730497D01*
X163259071Y-108705500D01*
X163259069Y-108705500D01*
X163130931Y-108705500D01*
X163130929Y-108705500D01*
X163005261Y-108730497D01*
X163005255Y-108730499D01*
X162886875Y-108779533D01*
X162886866Y-108779538D01*
X162780331Y-108850723D01*
X162780327Y-108850726D01*
X162686873Y-108944181D01*
X162625550Y-108977666D01*
X162599192Y-108980500D01*
X156797900Y-108980500D01*
X156730861Y-108960815D01*
X156710219Y-108944181D01*
X143881045Y-96115008D01*
X143881043Y-96115005D01*
X143804062Y-96038024D01*
X143613563Y-95847526D01*
X137465819Y-89699782D01*
X137432334Y-89638459D01*
X137429500Y-89612101D01*
X137429500Y-89479928D01*
X137404502Y-89354261D01*
X137404501Y-89354260D01*
X137404501Y-89354256D01*
X137355465Y-89235873D01*
X137355464Y-89235872D01*
X137355461Y-89235866D01*
X137284276Y-89129331D01*
X137284273Y-89129327D01*
X137193672Y-89038726D01*
X137193668Y-89038723D01*
X137087133Y-88967538D01*
X137087124Y-88967533D01*
X136968744Y-88918499D01*
X136968738Y-88918497D01*
X136843071Y-88893500D01*
X136843069Y-88893500D01*
X136714931Y-88893500D01*
X136714929Y-88893500D01*
X136589261Y-88918497D01*
X136589255Y-88918499D01*
X136470875Y-88967533D01*
X136470866Y-88967538D01*
X136364331Y-89038723D01*
X136364327Y-89038726D01*
X136273726Y-89129327D01*
X136273723Y-89129331D01*
X136202538Y-89235866D01*
X136202533Y-89235875D01*
X136153499Y-89354255D01*
X136153497Y-89354261D01*
X136128500Y-89479928D01*
X136128500Y-89479931D01*
X136128500Y-89608069D01*
X136128500Y-89608071D01*
X136128499Y-89608071D01*
X136153497Y-89733738D01*
X136153499Y-89733744D01*
X136202533Y-89852124D01*
X136202538Y-89852133D01*
X136273723Y-89958668D01*
X136273726Y-89958672D01*
X136364327Y-90049273D01*
X136364331Y-90049276D01*
X136470866Y-90120461D01*
X136470872Y-90120464D01*
X136470873Y-90120465D01*
X136589256Y-90169501D01*
X136589260Y-90169501D01*
X136589261Y-90169502D01*
X136714928Y-90194500D01*
X136847101Y-90194500D01*
X136914140Y-90214185D01*
X136934782Y-90230819D01*
X142954781Y-96250818D01*
X142988266Y-96312141D01*
X142983282Y-96381833D01*
X142954781Y-96426180D01*
X135837781Y-103543181D01*
X135810853Y-103557884D01*
X135785035Y-103574477D01*
X135778834Y-103575368D01*
X135776458Y-103576666D01*
X135750100Y-103579500D01*
X135625907Y-103579500D01*
X135593814Y-103575275D01*
X135564573Y-103567440D01*
X135553601Y-103564500D01*
X135428399Y-103564500D01*
X135428395Y-103564500D01*
X135388183Y-103575275D01*
X135356093Y-103579500D01*
X135118130Y-103579500D01*
X135118123Y-103579501D01*
X135058516Y-103585908D01*
X134923671Y-103636202D01*
X134923664Y-103636206D01*
X134808455Y-103722452D01*
X134808452Y-103722455D01*
X134722206Y-103837664D01*
X134722202Y-103837671D01*
X134671908Y-103972517D01*
X134665501Y-104032116D01*
X134665500Y-104032135D01*
X134665500Y-105027870D01*
X134665501Y-105027876D01*
X134671908Y-105087483D01*
X134722202Y-105222328D01*
X134722206Y-105222335D01*
X134808452Y-105337544D01*
X134808455Y-105337547D01*
X134923664Y-105423793D01*
X134923671Y-105423797D01*
X134936273Y-105428497D01*
X135058517Y-105474091D01*
X135118127Y-105480500D01*
X135863872Y-105480499D01*
X135923483Y-105474091D01*
X136058331Y-105423796D01*
X136173546Y-105337546D01*
X136259796Y-105222331D01*
X136310091Y-105087483D01*
X136316500Y-105027873D01*
X136316499Y-104177897D01*
X136325145Y-104148451D01*
X136331667Y-104118471D01*
X136335419Y-104113457D01*
X136336183Y-104110859D01*
X136352813Y-104090222D01*
X136503929Y-103939106D01*
X136565250Y-103905623D01*
X136634942Y-103910607D01*
X136690875Y-103952479D01*
X136715292Y-104017943D01*
X136715390Y-104028806D01*
X136715500Y-104028806D01*
X136715500Y-105027870D01*
X136715501Y-105027876D01*
X136721908Y-105087483D01*
X136772202Y-105222328D01*
X136772206Y-105222335D01*
X136858452Y-105337544D01*
X136858455Y-105337547D01*
X136973664Y-105423793D01*
X136973671Y-105423797D01*
X136986273Y-105428497D01*
X137108517Y-105474091D01*
X137168127Y-105480500D01*
X137913872Y-105480499D01*
X137973483Y-105474091D01*
X138108331Y-105423796D01*
X138223546Y-105337546D01*
X138309796Y-105222331D01*
X138360091Y-105087483D01*
X138360090Y-105087483D01*
X138360582Y-105086167D01*
X138402453Y-105030233D01*
X138467917Y-105005816D01*
X138476764Y-105005500D01*
X138864236Y-105005500D01*
X138931275Y-105025185D01*
X138977030Y-105077989D01*
X138980418Y-105086167D01*
X139031202Y-105222328D01*
X139031206Y-105222335D01*
X139117452Y-105337544D01*
X139117455Y-105337547D01*
X139232664Y-105423793D01*
X139232671Y-105423797D01*
X139367517Y-105474091D01*
X139367516Y-105474091D01*
X139374444Y-105474835D01*
X139427127Y-105480500D01*
X140222872Y-105480499D01*
X140282483Y-105474091D01*
X140417331Y-105423796D01*
X140532546Y-105337546D01*
X140578502Y-105276156D01*
X140634434Y-105234287D01*
X140704125Y-105229303D01*
X140765448Y-105262788D01*
X140786665Y-105293089D01*
X140786851Y-105292975D01*
X140788819Y-105296166D01*
X140790151Y-105298068D01*
X140790642Y-105299121D01*
X140882684Y-105448345D01*
X141006654Y-105572315D01*
X141155875Y-105664356D01*
X141155880Y-105664358D01*
X141322302Y-105719505D01*
X141322309Y-105719506D01*
X141425019Y-105729999D01*
X141574999Y-105729999D01*
X142075000Y-105729999D01*
X142224972Y-105729999D01*
X142224986Y-105729998D01*
X142327697Y-105719505D01*
X142494119Y-105664358D01*
X142494124Y-105664356D01*
X142643345Y-105572315D01*
X142767315Y-105448345D01*
X142859356Y-105299124D01*
X142859358Y-105299119D01*
X142914505Y-105132697D01*
X142914506Y-105132690D01*
X142924999Y-105029986D01*
X142925000Y-105029973D01*
X142925000Y-104780000D01*
X142075000Y-104780000D01*
X142075000Y-105729999D01*
X141574999Y-105729999D01*
X141575000Y-105729998D01*
X141575000Y-104280000D01*
X142075000Y-104280000D01*
X142924999Y-104280000D01*
X142924999Y-104030028D01*
X142924998Y-104030013D01*
X142914505Y-103927302D01*
X142859358Y-103760880D01*
X142859356Y-103760875D01*
X142767315Y-103611654D01*
X142643345Y-103487684D01*
X142494124Y-103395643D01*
X142494119Y-103395641D01*
X142327697Y-103340494D01*
X142327690Y-103340493D01*
X142224986Y-103330000D01*
X142075000Y-103330000D01*
X142075000Y-104280000D01*
X141575000Y-104280000D01*
X141575000Y-103330000D01*
X141425027Y-103330000D01*
X141425012Y-103330001D01*
X141322302Y-103340494D01*
X141155880Y-103395641D01*
X141155875Y-103395643D01*
X141006654Y-103487684D01*
X140882684Y-103611654D01*
X140790637Y-103760885D01*
X140790148Y-103761936D01*
X140789620Y-103762535D01*
X140786851Y-103767025D01*
X140786083Y-103766551D01*
X140743975Y-103814375D01*
X140676782Y-103833526D01*
X140609901Y-103813309D01*
X140578501Y-103783841D01*
X140532547Y-103722455D01*
X140532544Y-103722452D01*
X140417335Y-103636206D01*
X140417328Y-103636202D01*
X140282482Y-103585908D01*
X140282483Y-103585908D01*
X140222883Y-103579501D01*
X140222881Y-103579500D01*
X140222873Y-103579500D01*
X140222864Y-103579500D01*
X139427129Y-103579500D01*
X139427123Y-103579501D01*
X139367516Y-103585908D01*
X139232671Y-103636202D01*
X139232664Y-103636206D01*
X139117455Y-103722452D01*
X139117452Y-103722455D01*
X139031206Y-103837664D01*
X139031202Y-103837671D01*
X138980418Y-103973833D01*
X138938547Y-104029767D01*
X138873083Y-104054184D01*
X138864236Y-104054500D01*
X138476764Y-104054500D01*
X138409725Y-104034815D01*
X138363970Y-103982011D01*
X138360582Y-103973833D01*
X138309797Y-103837671D01*
X138309793Y-103837664D01*
X138223547Y-103722455D01*
X138223544Y-103722452D01*
X138108335Y-103636206D01*
X138108328Y-103636202D01*
X137973486Y-103585910D01*
X137973485Y-103585909D01*
X137973483Y-103585909D01*
X137913873Y-103579500D01*
X137913863Y-103579500D01*
X137164807Y-103579501D01*
X137164807Y-103578342D01*
X137101420Y-103563358D01*
X137052909Y-103513075D01*
X137039283Y-103444547D01*
X137064870Y-103379531D01*
X137075108Y-103367928D01*
X139929936Y-100513100D01*
X143485822Y-96957214D01*
X143547141Y-96923732D01*
X143616833Y-96928716D01*
X143661179Y-96957216D01*
X156360437Y-109656475D01*
X156360438Y-109656476D01*
X156360440Y-109656477D01*
X156373701Y-109664133D01*
X156446063Y-109705911D01*
X156541564Y-109731500D01*
X156541565Y-109731500D01*
X162595500Y-109731500D01*
X162662539Y-109751185D01*
X162708294Y-109803989D01*
X162719500Y-109855500D01*
X162719500Y-112521411D01*
X162699815Y-112588450D01*
X162647011Y-112634205D01*
X162577853Y-112644149D01*
X162514297Y-112615124D01*
X162492398Y-112590302D01*
X162430276Y-112497331D01*
X162430273Y-112497327D01*
X162339672Y-112406726D01*
X162339668Y-112406723D01*
X162233133Y-112335538D01*
X162233124Y-112335533D01*
X162114744Y-112286499D01*
X162114738Y-112286497D01*
X161989071Y-112261500D01*
X161989069Y-112261500D01*
X161860931Y-112261500D01*
X161860929Y-112261500D01*
X161735261Y-112286497D01*
X161735255Y-112286499D01*
X161616875Y-112335533D01*
X161616866Y-112335538D01*
X161510326Y-112406726D01*
X161508341Y-112408356D01*
X161507098Y-112408883D01*
X161505266Y-112410108D01*
X161505033Y-112409760D01*
X161444030Y-112435667D01*
X161429680Y-112436500D01*
X160388320Y-112436500D01*
X160321281Y-112416815D01*
X160309659Y-112408356D01*
X160307673Y-112406726D01*
X160201133Y-112335538D01*
X160201124Y-112335533D01*
X160082744Y-112286499D01*
X160082738Y-112286497D01*
X159957071Y-112261500D01*
X159957069Y-112261500D01*
X159828931Y-112261500D01*
X159828929Y-112261500D01*
X159703261Y-112286497D01*
X159703255Y-112286499D01*
X159584875Y-112335533D01*
X159584866Y-112335538D01*
X159478331Y-112406723D01*
X159478327Y-112406726D01*
X159387726Y-112497327D01*
X159387723Y-112497331D01*
X159316538Y-112603866D01*
X159316533Y-112603875D01*
X159267499Y-112722255D01*
X159267497Y-112722261D01*
X159242500Y-112847928D01*
X159242500Y-112847931D01*
X159242500Y-112976069D01*
X159242500Y-112976071D01*
X159242499Y-112976071D01*
X159267497Y-113101738D01*
X159267499Y-113101744D01*
X159316533Y-113220124D01*
X159316538Y-113220133D01*
X159387723Y-113326668D01*
X159387726Y-113326672D01*
X159478327Y-113417273D01*
X159478331Y-113417276D01*
X159584866Y-113488461D01*
X159584875Y-113488466D01*
X159600186Y-113494808D01*
X159703256Y-113537501D01*
X159703260Y-113537501D01*
X159703261Y-113537502D01*
X159828928Y-113562500D01*
X159828931Y-113562500D01*
X159957071Y-113562500D01*
X160041615Y-113545682D01*
X160082744Y-113537501D01*
X160201127Y-113488465D01*
X160307669Y-113417276D01*
X160307669Y-113417275D01*
X160307673Y-113417273D01*
X160309659Y-113415644D01*
X160310901Y-113415116D01*
X160312734Y-113413892D01*
X160312966Y-113414239D01*
X160373970Y-113388333D01*
X160388320Y-113387500D01*
X161429680Y-113387500D01*
X161496719Y-113407185D01*
X161508341Y-113415644D01*
X161510326Y-113417273D01*
X161616866Y-113488461D01*
X161616875Y-113488466D01*
X161632186Y-113494808D01*
X161735256Y-113537501D01*
X161735260Y-113537501D01*
X161735261Y-113537502D01*
X161860928Y-113562500D01*
X161860931Y-113562500D01*
X161989071Y-113562500D01*
X162073615Y-113545682D01*
X162114744Y-113537501D01*
X162233127Y-113488465D01*
X162339669Y-113417276D01*
X162430276Y-113326669D01*
X162446366Y-113302588D01*
X162492398Y-113233697D01*
X162546010Y-113188892D01*
X162615335Y-113180185D01*
X162678362Y-113210339D01*
X162715082Y-113269782D01*
X162719500Y-113302588D01*
X162719500Y-116913399D01*
X162719500Y-117038601D01*
X162751905Y-117159536D01*
X162814505Y-117267964D01*
X165100505Y-119553964D01*
X165189036Y-119642495D01*
X165297464Y-119705095D01*
X165418399Y-119737500D01*
X174167500Y-119737500D01*
X174234539Y-119757185D01*
X174280294Y-119809989D01*
X174291500Y-119861500D01*
X174291500Y-135107801D01*
X174278901Y-135162258D01*
X174277134Y-135165875D01*
X174266500Y-135238864D01*
X174266500Y-136735136D01*
X174277134Y-136808125D01*
X174277134Y-136808126D01*
X174277135Y-136808128D01*
X174332172Y-136920710D01*
X174422753Y-137011291D01*
X174423902Y-137011760D01*
X174425508Y-137014046D01*
X174428054Y-137016592D01*
X174427609Y-137017036D01*
X174442184Y-137037781D01*
X174461808Y-137062798D01*
X174462125Y-137066163D01*
X174464069Y-137068930D01*
X174465127Y-137094558D01*
X174508282Y-137069715D01*
X174555237Y-137067551D01*
X174606364Y-137075000D01*
X174606370Y-137075000D01*
X174927636Y-137075000D01*
X175000625Y-137064366D01*
X175113211Y-137009326D01*
X175201826Y-136920711D01*
X175201827Y-136920710D01*
X175245848Y-136830662D01*
X175256866Y-136808125D01*
X175267500Y-136735136D01*
X175267500Y-135238864D01*
X175256866Y-135165875D01*
X175255098Y-135162258D01*
X175242500Y-135107801D01*
X175242500Y-124841986D01*
X192607001Y-124841986D01*
X192617494Y-124944697D01*
X192672641Y-125111119D01*
X192672643Y-125111124D01*
X192764684Y-125260345D01*
X192888654Y-125384315D01*
X193037875Y-125476356D01*
X193037880Y-125476358D01*
X193204302Y-125531505D01*
X193204309Y-125531506D01*
X193307019Y-125541999D01*
X193456999Y-125541999D01*
X193957000Y-125541999D01*
X194106972Y-125541999D01*
X194106986Y-125541998D01*
X194209697Y-125531505D01*
X194376119Y-125476358D01*
X194376124Y-125476356D01*
X194525345Y-125384315D01*
X194649315Y-125260345D01*
X194741354Y-125111126D01*
X194741842Y-125110081D01*
X194742368Y-125109482D01*
X194745149Y-125104975D01*
X194745918Y-125105449D01*
X194788007Y-125057635D01*
X194855198Y-125038473D01*
X194922082Y-125058679D01*
X194953498Y-125088157D01*
X194999455Y-125149547D01*
X195114664Y-125235793D01*
X195114671Y-125235797D01*
X195249517Y-125286091D01*
X195249516Y-125286091D01*
X195256444Y-125286835D01*
X195309127Y-125292500D01*
X196104872Y-125292499D01*
X196164483Y-125286091D01*
X196299331Y-125235796D01*
X196414546Y-125149546D01*
X196500796Y-125034331D01*
X196551091Y-124899483D01*
X196551090Y-124899483D01*
X196551582Y-124898167D01*
X196593453Y-124842233D01*
X196658917Y-124817816D01*
X196667764Y-124817500D01*
X197048236Y-124817500D01*
X197115275Y-124837185D01*
X197161030Y-124889989D01*
X197164418Y-124898167D01*
X197215202Y-125034328D01*
X197215206Y-125034335D01*
X197301452Y-125149544D01*
X197301455Y-125149547D01*
X197416664Y-125235793D01*
X197416671Y-125235797D01*
X197461618Y-125252561D01*
X197551517Y-125286091D01*
X197611127Y-125292500D01*
X198356872Y-125292499D01*
X198416483Y-125286091D01*
X198551331Y-125235796D01*
X198666546Y-125149546D01*
X198752796Y-125034331D01*
X198803091Y-124899483D01*
X198809500Y-124839873D01*
X198809499Y-123844128D01*
X198804112Y-123794011D01*
X198803091Y-123784516D01*
X198752797Y-123649671D01*
X198752793Y-123649664D01*
X198666547Y-123534455D01*
X198666544Y-123534452D01*
X198551335Y-123448206D01*
X198551328Y-123448202D01*
X198416486Y-123397910D01*
X198416485Y-123397909D01*
X198416483Y-123397909D01*
X198356873Y-123391500D01*
X198356863Y-123391500D01*
X197611129Y-123391500D01*
X197611123Y-123391501D01*
X197551516Y-123397908D01*
X197416671Y-123448202D01*
X197416664Y-123448206D01*
X197301455Y-123534452D01*
X197301452Y-123534455D01*
X197215206Y-123649664D01*
X197215202Y-123649671D01*
X197164418Y-123785833D01*
X197122547Y-123841767D01*
X197057083Y-123866184D01*
X197048236Y-123866500D01*
X196667764Y-123866500D01*
X196600725Y-123846815D01*
X196554970Y-123794011D01*
X196551582Y-123785833D01*
X196500797Y-123649671D01*
X196500793Y-123649664D01*
X196414547Y-123534455D01*
X196414544Y-123534452D01*
X196299335Y-123448206D01*
X196299328Y-123448202D01*
X196164482Y-123397908D01*
X196164483Y-123397908D01*
X196104883Y-123391501D01*
X196104881Y-123391500D01*
X196104873Y-123391500D01*
X196104864Y-123391500D01*
X195309129Y-123391500D01*
X195309123Y-123391501D01*
X195249516Y-123397908D01*
X195114671Y-123448202D01*
X195114664Y-123448206D01*
X194999455Y-123534452D01*
X194953498Y-123595842D01*
X194897563Y-123637713D01*
X194827872Y-123642696D01*
X194766549Y-123609210D01*
X194745335Y-123578909D01*
X194745149Y-123579025D01*
X194743170Y-123575816D01*
X194741845Y-123573924D01*
X194741356Y-123572877D01*
X194649315Y-123423654D01*
X194525345Y-123299684D01*
X194376124Y-123207643D01*
X194376119Y-123207641D01*
X194209697Y-123152494D01*
X194209690Y-123152493D01*
X194106986Y-123142000D01*
X193957000Y-123142000D01*
X193957000Y-125541999D01*
X193456999Y-125541999D01*
X193457000Y-125541998D01*
X193457000Y-124592000D01*
X192607001Y-124592000D01*
X192607001Y-124841986D01*
X175242500Y-124841986D01*
X175242500Y-123842013D01*
X192607000Y-123842013D01*
X192607000Y-124092000D01*
X193457000Y-124092000D01*
X193457000Y-123142000D01*
X193307027Y-123142000D01*
X193307012Y-123142001D01*
X193204302Y-123152494D01*
X193037880Y-123207641D01*
X193037875Y-123207643D01*
X192888654Y-123299684D01*
X192764684Y-123423654D01*
X192672643Y-123572875D01*
X192672641Y-123572880D01*
X192617494Y-123739302D01*
X192617493Y-123739309D01*
X192607000Y-123842013D01*
X175242500Y-123842013D01*
X175242500Y-122047500D01*
X175262185Y-121980461D01*
X175314989Y-121934706D01*
X175366500Y-121923500D01*
X198040101Y-121923500D01*
X198107140Y-121943185D01*
X198127782Y-121959819D01*
X199450975Y-123283013D01*
X199484460Y-123344336D01*
X199479476Y-123414028D01*
X199437606Y-123469960D01*
X199351452Y-123534455D01*
X199265206Y-123649664D01*
X199265202Y-123649671D01*
X199214908Y-123784517D01*
X199208754Y-123841767D01*
X199208501Y-123844123D01*
X199208500Y-123844135D01*
X199208500Y-124839870D01*
X199208501Y-124839876D01*
X199214908Y-124899483D01*
X199265202Y-125034328D01*
X199265206Y-125034335D01*
X199351452Y-125149544D01*
X199351455Y-125149547D01*
X199466664Y-125235793D01*
X199466671Y-125235797D01*
X199511618Y-125252561D01*
X199601517Y-125286091D01*
X199661127Y-125292500D01*
X200406872Y-125292499D01*
X200466483Y-125286091D01*
X200601331Y-125235796D01*
X200716546Y-125149546D01*
X200802796Y-125034331D01*
X200853091Y-124899483D01*
X200859500Y-124839873D01*
X200859499Y-123844128D01*
X200854112Y-123794011D01*
X200853091Y-123784516D01*
X200802797Y-123649671D01*
X200802793Y-123649664D01*
X200716547Y-123534455D01*
X200716544Y-123534452D01*
X200601335Y-123448206D01*
X200601329Y-123448203D01*
X200490166Y-123406741D01*
X200434233Y-123364869D01*
X200411304Y-123311632D01*
X200409500Y-123301171D01*
X200409500Y-123285565D01*
X200403409Y-123262832D01*
X200383911Y-123190063D01*
X200334475Y-123104437D01*
X198477563Y-121247526D01*
X198477562Y-121247525D01*
X198391938Y-121198090D01*
X198344186Y-121185295D01*
X198332099Y-121182056D01*
X198332095Y-121182054D01*
X198296436Y-121172500D01*
X198296435Y-121172500D01*
X175366500Y-121172500D01*
X175299461Y-121152815D01*
X175253706Y-121100011D01*
X175242500Y-121048500D01*
X175242500Y-109405400D01*
X175240875Y-109399334D01*
X175210095Y-109284464D01*
X175147495Y-109176036D01*
X175066819Y-109095360D01*
X175033334Y-109034037D01*
X175030500Y-109007679D01*
X175030500Y-103748566D01*
X175030500Y-103748565D01*
X175030500Y-103748564D01*
X175004911Y-103653063D01*
X174980193Y-103610250D01*
X174955477Y-103567440D01*
X174955473Y-103567435D01*
X170464819Y-99076781D01*
X170431334Y-99015458D01*
X170428500Y-98989100D01*
X170428500Y-94322899D01*
X170448185Y-94255860D01*
X170464819Y-94235218D01*
X177704051Y-86995986D01*
X191067001Y-86995986D01*
X191077494Y-87098697D01*
X191132641Y-87265119D01*
X191132643Y-87265124D01*
X191224684Y-87414345D01*
X191348654Y-87538315D01*
X191497875Y-87630356D01*
X191497880Y-87630358D01*
X191664302Y-87685505D01*
X191664309Y-87685506D01*
X191767019Y-87695999D01*
X191916999Y-87695999D01*
X192417000Y-87695999D01*
X192566972Y-87695999D01*
X192566986Y-87695998D01*
X192669697Y-87685505D01*
X192836119Y-87630358D01*
X192836124Y-87630356D01*
X192985345Y-87538315D01*
X193109315Y-87414345D01*
X193201354Y-87265126D01*
X193201842Y-87264081D01*
X193202368Y-87263482D01*
X193205149Y-87258975D01*
X193205918Y-87259449D01*
X193248007Y-87211635D01*
X193315198Y-87192473D01*
X193382082Y-87212679D01*
X193413498Y-87242157D01*
X193447476Y-87287546D01*
X193459455Y-87303547D01*
X193574664Y-87389793D01*
X193574671Y-87389797D01*
X193709517Y-87440091D01*
X193709516Y-87440091D01*
X193716444Y-87440835D01*
X193769127Y-87446500D01*
X194564872Y-87446499D01*
X194624483Y-87440091D01*
X194759331Y-87389796D01*
X194874546Y-87303546D01*
X194960796Y-87188331D01*
X195011091Y-87053483D01*
X195011090Y-87053483D01*
X195011582Y-87052167D01*
X195053453Y-86996233D01*
X195118917Y-86971816D01*
X195127764Y-86971500D01*
X195539204Y-86971500D01*
X195606243Y-86991185D01*
X195651998Y-87043989D01*
X195655386Y-87052167D01*
X195700202Y-87172328D01*
X195700206Y-87172335D01*
X195786452Y-87287544D01*
X195786455Y-87287547D01*
X195901664Y-87373793D01*
X195901671Y-87373797D01*
X195901674Y-87373798D01*
X196036517Y-87424091D01*
X196096127Y-87430500D01*
X196841872Y-87430499D01*
X196901483Y-87424091D01*
X197036331Y-87373796D01*
X197151546Y-87287546D01*
X197237796Y-87172331D01*
X197288091Y-87037483D01*
X197294500Y-86977873D01*
X197294499Y-85982135D01*
X197693500Y-85982135D01*
X197693500Y-86977870D01*
X197693501Y-86977876D01*
X197699908Y-87037483D01*
X197750202Y-87172328D01*
X197750206Y-87172335D01*
X197836452Y-87287544D01*
X197836455Y-87287547D01*
X197951664Y-87373793D01*
X197951673Y-87373798D01*
X198062832Y-87415257D01*
X198118766Y-87457127D01*
X198143184Y-87522592D01*
X198143500Y-87531439D01*
X198143500Y-88426245D01*
X198123815Y-88493284D01*
X198090944Y-88526748D01*
X198091037Y-88526862D01*
X198089984Y-88527725D01*
X198088396Y-88529343D01*
X198086337Y-88530718D01*
X198086325Y-88530728D01*
X197995726Y-88621327D01*
X197995723Y-88621331D01*
X197924538Y-88727866D01*
X197924533Y-88727875D01*
X197875499Y-88846255D01*
X197875497Y-88846261D01*
X197850500Y-88971928D01*
X197850500Y-88971931D01*
X197850500Y-89100069D01*
X197850500Y-89100071D01*
X197850499Y-89100071D01*
X197875497Y-89225738D01*
X197875499Y-89225744D01*
X197924533Y-89344124D01*
X197924538Y-89344133D01*
X197995723Y-89450668D01*
X197995726Y-89450672D01*
X198086327Y-89541273D01*
X198086331Y-89541276D01*
X198192866Y-89612461D01*
X198192872Y-89612464D01*
X198192873Y-89612465D01*
X198311256Y-89661501D01*
X198311260Y-89661501D01*
X198311261Y-89661502D01*
X198436928Y-89686500D01*
X198436931Y-89686500D01*
X198565071Y-89686500D01*
X198649615Y-89669682D01*
X198690744Y-89661501D01*
X198809127Y-89612465D01*
X198915669Y-89541276D01*
X199006276Y-89450669D01*
X199077465Y-89344127D01*
X199126501Y-89225744D01*
X199134682Y-89184615D01*
X199151500Y-89100071D01*
X199151500Y-88971928D01*
X199126502Y-88846261D01*
X199126501Y-88846260D01*
X199126501Y-88846256D01*
X199077465Y-88727873D01*
X199077464Y-88727872D01*
X199077461Y-88727866D01*
X199006276Y-88621331D01*
X199006273Y-88621327D01*
X198930819Y-88545873D01*
X198897334Y-88484550D01*
X198894500Y-88458192D01*
X198894500Y-87531439D01*
X198914185Y-87464400D01*
X198966989Y-87418645D01*
X198975168Y-87415257D01*
X199086326Y-87373798D01*
X199086326Y-87373797D01*
X199086331Y-87373796D01*
X199201546Y-87287546D01*
X199287796Y-87172331D01*
X199338091Y-87037483D01*
X199344500Y-86977873D01*
X199344499Y-85982128D01*
X199338091Y-85922517D01*
X199327961Y-85895358D01*
X199287797Y-85787671D01*
X199287793Y-85787664D01*
X199201547Y-85672455D01*
X199201544Y-85672452D01*
X199086335Y-85586206D01*
X199086328Y-85586202D01*
X198951486Y-85535910D01*
X198951485Y-85535909D01*
X198951483Y-85535909D01*
X198891873Y-85529500D01*
X198891863Y-85529500D01*
X198146129Y-85529500D01*
X198146123Y-85529501D01*
X198086516Y-85535908D01*
X197951671Y-85586202D01*
X197951664Y-85586206D01*
X197836455Y-85672452D01*
X197836452Y-85672455D01*
X197750206Y-85787664D01*
X197750202Y-85787671D01*
X197699908Y-85922517D01*
X197693501Y-85982116D01*
X197693501Y-85982123D01*
X197693500Y-85982135D01*
X197294499Y-85982135D01*
X197294499Y-85982128D01*
X197288091Y-85922517D01*
X197277961Y-85895358D01*
X197237797Y-85787671D01*
X197237793Y-85787664D01*
X197151547Y-85672455D01*
X197151544Y-85672452D01*
X197036335Y-85586206D01*
X197036328Y-85586202D01*
X196901486Y-85535910D01*
X196901485Y-85535909D01*
X196901483Y-85535909D01*
X196841873Y-85529500D01*
X196841863Y-85529500D01*
X196096129Y-85529500D01*
X196096123Y-85529501D01*
X196036516Y-85535908D01*
X195901671Y-85586202D01*
X195901664Y-85586206D01*
X195786455Y-85672452D01*
X195786452Y-85672455D01*
X195700206Y-85787664D01*
X195700202Y-85787671D01*
X195649910Y-85922511D01*
X195649320Y-85925012D01*
X195648329Y-85926752D01*
X195647198Y-85929785D01*
X195646706Y-85929601D01*
X195614748Y-85985729D01*
X195552838Y-86018116D01*
X195528642Y-86020500D01*
X195127764Y-86020500D01*
X195060725Y-86000815D01*
X195014970Y-85948011D01*
X195011582Y-85939833D01*
X194960797Y-85803671D01*
X194960793Y-85803664D01*
X194874547Y-85688455D01*
X194874544Y-85688452D01*
X194759335Y-85602206D01*
X194759328Y-85602202D01*
X194624482Y-85551908D01*
X194624483Y-85551908D01*
X194564883Y-85545501D01*
X194564881Y-85545500D01*
X194564873Y-85545500D01*
X194564864Y-85545500D01*
X193769129Y-85545500D01*
X193769123Y-85545501D01*
X193709516Y-85551908D01*
X193574671Y-85602202D01*
X193574664Y-85602206D01*
X193459455Y-85688452D01*
X193413498Y-85749842D01*
X193357563Y-85791713D01*
X193287872Y-85796696D01*
X193226549Y-85763210D01*
X193205335Y-85732909D01*
X193205149Y-85733025D01*
X193203170Y-85729816D01*
X193201845Y-85727924D01*
X193201356Y-85726877D01*
X193109315Y-85577654D01*
X192985345Y-85453684D01*
X192836124Y-85361643D01*
X192836119Y-85361641D01*
X192669697Y-85306494D01*
X192669690Y-85306493D01*
X192566986Y-85296000D01*
X192417000Y-85296000D01*
X192417000Y-87695999D01*
X191916999Y-87695999D01*
X191917000Y-87695998D01*
X191917000Y-86746000D01*
X191067001Y-86746000D01*
X191067001Y-86995986D01*
X177704051Y-86995986D01*
X178704024Y-85996013D01*
X191067000Y-85996013D01*
X191067000Y-86246000D01*
X191917000Y-86246000D01*
X191917000Y-85296000D01*
X191767027Y-85296000D01*
X191767012Y-85296001D01*
X191664302Y-85306494D01*
X191497880Y-85361641D01*
X191497875Y-85361643D01*
X191348654Y-85453684D01*
X191224684Y-85577654D01*
X191132643Y-85726875D01*
X191132641Y-85726880D01*
X191077494Y-85893302D01*
X191077493Y-85893309D01*
X191067000Y-85996013D01*
X178704024Y-85996013D01*
X178794854Y-85905183D01*
X185240288Y-79459749D01*
X192524231Y-72175805D01*
X192585552Y-72142322D01*
X192587651Y-72141884D01*
X192619744Y-72135501D01*
X192738127Y-72086465D01*
X192844669Y-72015276D01*
X192935276Y-71924669D01*
X193006465Y-71818127D01*
X193055501Y-71699744D01*
X193070378Y-71624954D01*
X193080500Y-71574071D01*
X193080500Y-71445928D01*
X193055502Y-71320261D01*
X193055501Y-71320260D01*
X193055501Y-71320256D01*
X193006465Y-71201873D01*
X193006464Y-71201872D01*
X193006461Y-71201866D01*
X192935276Y-71095331D01*
X192935273Y-71095327D01*
X192844672Y-71004726D01*
X192844668Y-71004723D01*
X192738133Y-70933538D01*
X192738124Y-70933533D01*
X192619744Y-70884499D01*
X192619738Y-70884497D01*
X192494071Y-70859500D01*
X192494069Y-70859500D01*
X192365931Y-70859500D01*
X192365929Y-70859500D01*
X192240261Y-70884497D01*
X192240255Y-70884499D01*
X192121875Y-70933533D01*
X192121866Y-70933538D01*
X192015331Y-71004723D01*
X192015327Y-71004726D01*
X191924726Y-71095327D01*
X191924723Y-71095331D01*
X191853538Y-71201866D01*
X191853533Y-71201875D01*
X191804499Y-71320255D01*
X191804497Y-71320261D01*
X191779500Y-71445928D01*
X191779500Y-71445931D01*
X191779500Y-71574069D01*
X191779500Y-71574071D01*
X191779499Y-71574071D01*
X191804497Y-71699738D01*
X191804500Y-71699748D01*
X191811957Y-71717750D01*
X191819426Y-71787219D01*
X191788151Y-71849698D01*
X191785077Y-71852883D01*
X169828298Y-93809664D01*
X169828294Y-93809668D01*
X169822438Y-93815525D01*
X169752525Y-93885438D01*
X169703090Y-93971062D01*
X169702011Y-93975088D01*
X169692062Y-93988121D01*
X169670064Y-94004266D01*
X169650319Y-94023093D01*
X169642310Y-94024636D01*
X169635736Y-94029462D01*
X169608503Y-94031151D01*
X169581712Y-94036315D01*
X169574140Y-94033283D01*
X169566000Y-94033789D01*
X169542177Y-94020487D01*
X169516848Y-94010347D01*
X169512116Y-94003702D01*
X169504996Y-93999727D01*
X169492147Y-93975659D01*
X169476320Y-93953433D01*
X169474498Y-93942600D01*
X169472091Y-93938091D01*
X169472627Y-93931472D01*
X169469500Y-93912877D01*
X169469500Y-56161986D01*
X171123001Y-56161986D01*
X171133494Y-56264697D01*
X171188641Y-56431119D01*
X171188643Y-56431124D01*
X171280684Y-56580345D01*
X171404654Y-56704315D01*
X171553875Y-56796356D01*
X171553880Y-56796358D01*
X171720302Y-56851505D01*
X171720309Y-56851506D01*
X171823019Y-56861999D01*
X172072999Y-56861999D01*
X172573000Y-56861999D01*
X172822972Y-56861999D01*
X172822986Y-56861998D01*
X172925697Y-56851505D01*
X173092119Y-56796358D01*
X173092124Y-56796356D01*
X173241345Y-56704315D01*
X173365315Y-56580345D01*
X173457356Y-56431124D01*
X173457358Y-56431119D01*
X173512505Y-56264697D01*
X173512506Y-56264690D01*
X173522999Y-56161986D01*
X173523000Y-56161973D01*
X173523000Y-56012000D01*
X172573000Y-56012000D01*
X172573000Y-56861999D01*
X172072999Y-56861999D01*
X172073000Y-56861998D01*
X172073000Y-56012000D01*
X171123001Y-56012000D01*
X171123001Y-56161986D01*
X169469500Y-56161986D01*
X169469500Y-55362013D01*
X171123000Y-55362013D01*
X171123000Y-55512000D01*
X173522999Y-55512000D01*
X173522999Y-55362028D01*
X173522998Y-55362013D01*
X173512505Y-55259302D01*
X173457358Y-55092880D01*
X173457356Y-55092875D01*
X173365315Y-54943654D01*
X173241345Y-54819684D01*
X173092121Y-54727642D01*
X173091068Y-54727151D01*
X173090466Y-54726621D01*
X173085975Y-54723851D01*
X173086448Y-54723083D01*
X173038627Y-54680981D01*
X173019473Y-54613788D01*
X173039686Y-54546906D01*
X173069154Y-54515503D01*
X173130546Y-54469546D01*
X173216796Y-54354331D01*
X173241729Y-54287483D01*
X173242220Y-54286167D01*
X173284091Y-54230233D01*
X173349555Y-54205816D01*
X173358402Y-54205500D01*
X173689236Y-54205500D01*
X173756275Y-54225185D01*
X173802030Y-54277989D01*
X173805418Y-54286167D01*
X173856202Y-54422328D01*
X173856206Y-54422335D01*
X173942452Y-54537544D01*
X173942455Y-54537547D01*
X174057664Y-54623793D01*
X174057671Y-54623797D01*
X174102618Y-54640561D01*
X174192517Y-54674091D01*
X174252127Y-54680500D01*
X174997872Y-54680499D01*
X175057483Y-54674091D01*
X175192331Y-54623796D01*
X175307546Y-54537546D01*
X175393796Y-54422331D01*
X175444091Y-54287483D01*
X175450500Y-54227873D01*
X175450499Y-53232128D01*
X175445112Y-53182011D01*
X175444091Y-53172516D01*
X175393797Y-53037671D01*
X175393793Y-53037664D01*
X175307547Y-52922455D01*
X175307544Y-52922452D01*
X175192335Y-52836206D01*
X175192328Y-52836202D01*
X175057486Y-52785910D01*
X175057485Y-52785909D01*
X175057483Y-52785909D01*
X174997873Y-52779500D01*
X174997863Y-52779500D01*
X174252129Y-52779500D01*
X174252123Y-52779501D01*
X174192516Y-52785908D01*
X174057671Y-52836202D01*
X174057664Y-52836206D01*
X173942455Y-52922452D01*
X173942452Y-52922455D01*
X173856206Y-53037664D01*
X173856202Y-53037671D01*
X173805418Y-53173833D01*
X173763547Y-53229767D01*
X173698083Y-53254184D01*
X173689236Y-53254500D01*
X173334531Y-53254500D01*
X173267492Y-53234815D01*
X173221737Y-53182011D01*
X173218348Y-53173829D01*
X173216797Y-53169672D01*
X173216797Y-53169671D01*
X173216796Y-53169669D01*
X173216794Y-53169666D01*
X173216793Y-53169664D01*
X173130547Y-53054455D01*
X173130544Y-53054452D01*
X173015335Y-52968206D01*
X173015328Y-52968202D01*
X172880482Y-52917908D01*
X172880483Y-52917908D01*
X172820883Y-52911501D01*
X172820881Y-52911500D01*
X172820873Y-52911500D01*
X172820864Y-52911500D01*
X171825129Y-52911500D01*
X171825123Y-52911501D01*
X171765516Y-52917908D01*
X171630671Y-52968202D01*
X171630664Y-52968206D01*
X171515455Y-53054452D01*
X171515452Y-53054455D01*
X171429206Y-53169664D01*
X171429202Y-53169671D01*
X171378908Y-53304517D01*
X171372501Y-53364116D01*
X171372500Y-53364135D01*
X171372500Y-54159870D01*
X171372501Y-54159876D01*
X171378908Y-54219483D01*
X171429202Y-54354328D01*
X171429206Y-54354335D01*
X171515452Y-54469544D01*
X171515455Y-54469547D01*
X171576841Y-54515501D01*
X171618712Y-54571435D01*
X171623696Y-54641126D01*
X171590210Y-54702449D01*
X171559910Y-54723664D01*
X171560025Y-54723851D01*
X171556831Y-54725820D01*
X171554936Y-54727148D01*
X171553885Y-54727637D01*
X171404654Y-54819684D01*
X171280684Y-54943654D01*
X171188643Y-55092875D01*
X171188641Y-55092880D01*
X171133494Y-55259302D01*
X171133493Y-55259309D01*
X171123000Y-55362013D01*
X169469500Y-55362013D01*
X169469500Y-52818499D01*
X169489185Y-52751460D01*
X169541989Y-52705705D01*
X169593500Y-52694499D01*
X169842871Y-52694499D01*
X169842872Y-52694499D01*
X169902483Y-52688091D01*
X170037331Y-52637796D01*
X170152546Y-52551546D01*
X170238796Y-52436331D01*
X170289091Y-52301483D01*
X170295500Y-52241873D01*
X170295499Y-50685528D01*
X170315184Y-50618490D01*
X170367987Y-50572735D01*
X170437146Y-50562791D01*
X170438517Y-50562996D01*
G37*
G04 #@! TD.AperFunction*
G04 #@! TA.AperFunction,Conductor*
G36*
X183622901Y-147001007D02*
G01*
X183715993Y-147094099D01*
X183830007Y-147159925D01*
X183957174Y-147194000D01*
X184065690Y-147194000D01*
X183681009Y-148018950D01*
X183634837Y-148071389D01*
X183605944Y-148084797D01*
X182898227Y-148308133D01*
X182893789Y-148309443D01*
X182685322Y-148366770D01*
X182615462Y-148365565D01*
X182557344Y-148326783D01*
X182529419Y-148262737D01*
X182540553Y-148193760D01*
X182552122Y-148174326D01*
X182577412Y-148139519D01*
X182656053Y-147985176D01*
X182709582Y-147820432D01*
X182736680Y-147649342D01*
X182736680Y-147601922D01*
X182756365Y-147534883D01*
X182809169Y-147489128D01*
X182878327Y-147479184D01*
X182941883Y-147508209D01*
X182960999Y-147529037D01*
X182993278Y-147573466D01*
X183143533Y-147723721D01*
X183235747Y-147790717D01*
X183612441Y-146982891D01*
X183622901Y-147001007D01*
G37*
G04 #@! TD.AperFunction*
G04 #@! TA.AperFunction,Conductor*
G36*
X185333536Y-147029268D02*
G01*
X185339756Y-147010129D01*
X185339760Y-147010111D01*
X185364868Y-146851585D01*
X185394797Y-146788450D01*
X185454108Y-146751518D01*
X185523970Y-146752516D01*
X185582203Y-146791125D01*
X185603862Y-146828570D01*
X185674843Y-147023587D01*
X185674844Y-147023589D01*
X185674845Y-147023591D01*
X185674845Y-147023592D01*
X185713489Y-147087273D01*
X185713492Y-147087277D01*
X185721396Y-147093072D01*
X185724867Y-147097614D01*
X185730051Y-147100034D01*
X185745846Y-147125066D01*
X185763821Y-147148586D01*
X185764285Y-147154287D01*
X185767337Y-147159123D01*
X185767092Y-147188719D01*
X185769497Y-147218225D01*
X185766806Y-147223271D01*
X185766759Y-147228990D01*
X185750550Y-147253757D01*
X185736623Y-147279878D01*
X185730811Y-147283919D01*
X185728499Y-147287454D01*
X185698651Y-147306289D01*
X185695526Y-147307685D01*
X185691125Y-147309550D01*
X185235951Y-147492183D01*
X185166403Y-147498878D01*
X185137371Y-147489483D01*
X184311893Y-147104557D01*
X184330007Y-147094099D01*
X184423099Y-147001007D01*
X184488925Y-146886993D01*
X184523000Y-146759826D01*
X184523000Y-146651308D01*
X185333536Y-147029268D01*
G37*
G04 #@! TD.AperFunction*
G04 #@! TA.AperFunction,Conductor*
G36*
X169613926Y-99277653D02*
G01*
X169616967Y-99277363D01*
X169645497Y-99292071D01*
X169674703Y-99305409D01*
X169677173Y-99308401D01*
X169679070Y-99309379D01*
X169700887Y-99337122D01*
X169703089Y-99340937D01*
X169703090Y-99340938D01*
X169734990Y-99396191D01*
X169752526Y-99426563D01*
X174243181Y-103917218D01*
X174276666Y-103978541D01*
X174279500Y-104004899D01*
X174279500Y-105505192D01*
X174259815Y-105572231D01*
X174207011Y-105617986D01*
X174137853Y-105627930D01*
X174074297Y-105598905D01*
X174067819Y-105592873D01*
X174023672Y-105548726D01*
X174023668Y-105548723D01*
X173917133Y-105477538D01*
X173917124Y-105477533D01*
X173798744Y-105428499D01*
X173798738Y-105428497D01*
X173673071Y-105403500D01*
X173673069Y-105403500D01*
X173544931Y-105403500D01*
X173544929Y-105403500D01*
X173419261Y-105428497D01*
X173419255Y-105428499D01*
X173300875Y-105477533D01*
X173300866Y-105477538D01*
X173194326Y-105548726D01*
X173192341Y-105550356D01*
X173191098Y-105550883D01*
X173189266Y-105552108D01*
X173189033Y-105551760D01*
X173128030Y-105577667D01*
X173113680Y-105578500D01*
X172435500Y-105578500D01*
X172368461Y-105558815D01*
X172322706Y-105506011D01*
X172311500Y-105454500D01*
X172311500Y-105029323D01*
X172311499Y-105029321D01*
X172296967Y-104956264D01*
X172296966Y-104956260D01*
X172288813Y-104944058D01*
X172241601Y-104873399D01*
X172158740Y-104818034D01*
X172158739Y-104818033D01*
X172158735Y-104818032D01*
X172085677Y-104803500D01*
X172085674Y-104803500D01*
X169593500Y-104803500D01*
X169526461Y-104783815D01*
X169480706Y-104731011D01*
X169469500Y-104679500D01*
X169469500Y-99399122D01*
X169470360Y-99396191D01*
X169469640Y-99393222D01*
X169480144Y-99362869D01*
X169489185Y-99332083D01*
X169491492Y-99330083D01*
X169492492Y-99327195D01*
X169517739Y-99307339D01*
X169541989Y-99286328D01*
X169545011Y-99285893D01*
X169547413Y-99284005D01*
X169579366Y-99280953D01*
X169611147Y-99276384D01*
X169613926Y-99277653D01*
G37*
G04 #@! TD.AperFunction*
G04 #@! TD*
G04 #@! TA.AperFunction,Conductor*
G04 #@! TO.N,+BATT*
G36*
X161614039Y-137315685D02*
G01*
X161659794Y-137368489D01*
X161671000Y-137420000D01*
X161671000Y-139284503D01*
X161651315Y-139351542D01*
X161643828Y-139361965D01*
X160655000Y-140598000D01*
X160655000Y-142252000D01*
X160635315Y-142319039D01*
X160582511Y-142364794D01*
X160531000Y-142376000D01*
X158413263Y-142376000D01*
X158346224Y-142356315D01*
X158334742Y-142347971D01*
X155620479Y-140127210D01*
X155581058Y-140069523D01*
X155575000Y-140031239D01*
X155575000Y-137420000D01*
X155594685Y-137352961D01*
X155647489Y-137307206D01*
X155699000Y-137296000D01*
X161547000Y-137296000D01*
X161614039Y-137315685D01*
G37*
G04 #@! TD.AperFunction*
G04 #@! TD*
M02*
