G04 #@! TF.GenerationSoftware,KiCad,Pcbnew,9.0.0*
G04 #@! TF.CreationDate,2026-03-16T00:03:23+01:00*
G04 #@! TF.ProjectId,manufacturing_main,6d616e75-6661-4637-9475-72696e675f6d,rev?*
G04 #@! TF.SameCoordinates,Original*
G04 #@! TF.FileFunction,Soldermask,Top*
G04 #@! TF.FilePolarity,Negative*
%FSLAX46Y46*%
G04 Gerber Fmt 4.6, Leading zero omitted, Abs format (unit mm)*
G04 Created by KiCad (PCBNEW 9.0.0) date 2026-03-16 00:03:23*
%MOMM*%
%LPD*%
G01*
G04 APERTURE LIST*
G04 Aperture macros list*
%AMRoundRect*
0 Rectangle with rounded corners*
0 $1 Rounding radius*
0 $2 $3 $4 $5 $6 $7 $8 $9 X,Y pos of 4 corners*
0 Add a 4 corners polygon primitive as box body*
4,1,4,$2,$3,$4,$5,$6,$7,$8,$9,$2,$3,0*
0 Add four circle primitives for the rounded corners*
1,1,$1+$1,$2,$3*
1,1,$1+$1,$4,$5*
1,1,$1+$1,$6,$7*
1,1,$1+$1,$8,$9*
0 Add four rect primitives between the rounded corners*
20,1,$1+$1,$2,$3,$4,$5,0*
20,1,$1+$1,$4,$5,$6,$7,0*
20,1,$1+$1,$6,$7,$8,$9,0*
20,1,$1+$1,$8,$9,$2,$3,0*%
%AMRotRect*
0 Rectangle, with rotation*
0 The origin of the aperture is its center*
0 $1 length*
0 $2 width*
0 $3 Rotation angle, in degrees counterclockwise*
0 Add horizontal line*
21,1,$1,$2,0,0,$3*%
G04 Aperture macros list end*
%ADD10RoundRect,0.250000X-0.325000X-0.450000X0.325000X-0.450000X0.325000X0.450000X-0.325000X0.450000X0*%
%ADD11RoundRect,0.250000X-0.450000X0.350000X-0.450000X-0.350000X0.450000X-0.350000X0.450000X0.350000X0*%
%ADD12RoundRect,0.250000X0.350000X0.450000X-0.350000X0.450000X-0.350000X-0.450000X0.350000X-0.450000X0*%
%ADD13C,3.000000*%
%ADD14R,5.000000X5.000000*%
%ADD15RoundRect,0.250000X-0.350000X-0.450000X0.350000X-0.450000X0.350000X0.450000X-0.350000X0.450000X0*%
%ADD16R,3.000000X2.000000*%
%ADD17RoundRect,0.250000X-0.250000X-0.750000X0.250000X-0.750000X0.250000X0.750000X-0.250000X0.750000X0*%
%ADD18RotRect,1.700000X1.700000X290.000000*%
%ADD19C,1.700000*%
%ADD20RoundRect,0.250000X0.325000X0.450000X-0.325000X0.450000X-0.325000X-0.450000X0.325000X-0.450000X0*%
%ADD21R,1.300000X1.550000*%
G04 APERTURE END LIST*
D10*
G04 #@! TO.C,D14*
X190380000Y-68970000D03*
X192430000Y-68970000D03*
G04 #@! TD*
D11*
G04 #@! TO.C,R17*
X163204000Y-54016000D03*
X163204000Y-56016000D03*
G04 #@! TD*
D12*
G04 #@! TO.C,R15*
X187817000Y-141360000D03*
X185817000Y-141360000D03*
G04 #@! TD*
D10*
G04 #@! TO.C,D11*
X190151000Y-141368000D03*
X192201000Y-141368000D03*
G04 #@! TD*
D13*
G04 #@! TO.C,J1*
X157528000Y-138930000D03*
X178610000Y-138930000D03*
D14*
X168069000Y-138930000D03*
G04 #@! TD*
D12*
G04 #@! TO.C,R18*
X188579000Y-68970000D03*
X186579000Y-68970000D03*
G04 #@! TD*
D10*
G04 #@! TO.C,D15*
X199009000Y-104522000D03*
X201059000Y-104522000D03*
G04 #@! TD*
D15*
G04 #@! TO.C,R20*
X141113000Y-87258000D03*
X143113000Y-87258000D03*
G04 #@! TD*
D12*
G04 #@! TO.C,R19*
X196707000Y-104530000D03*
X194707000Y-104530000D03*
G04 #@! TD*
D16*
G04 #@! TO.C,J6*
X165735000Y-106054000D03*
X165735000Y-109356000D03*
X165735000Y-112658000D03*
X165735000Y-115706000D03*
G04 #@! TD*
D17*
G04 #@! TO.C,REF\u002A\u002A*
X166497000Y-51444000D03*
G04 #@! TD*
D15*
G04 #@! TO.C,R12*
X139589000Y-123358000D03*
X141589000Y-123358000D03*
G04 #@! TD*
D17*
G04 #@! TO.C,REF\u002A\u002A*
X169545000Y-51444000D03*
G04 #@! TD*
D18*
G04 #@! TO.C,J2*
X186409819Y-145825269D03*
D19*
X184023000Y-146694000D03*
X181636180Y-147562731D03*
G04 #@! TD*
D20*
G04 #@! TO.C,D8*
X137287000Y-123326000D03*
X135237000Y-123326000D03*
G04 #@! TD*
D21*
G04 #@! TO.C,SW1*
X146467000Y-142033000D03*
X146467000Y-134083000D03*
X150967000Y-142033000D03*
X150967000Y-134083000D03*
G04 #@! TD*
D20*
G04 #@! TO.C,D13*
X160918000Y-54238000D03*
X158868000Y-54238000D03*
G04 #@! TD*
G04 #@! TO.C,D16*
X139074000Y-87274000D03*
X137024000Y-87274000D03*
G04 #@! TD*
M02*
