M48
; DRILL file {KiCad 9.0.0} date 2026-03-16T00:03:23+0100
; FORMAT={-:-/ absolute / metric / decimal}
; #@! TF.CreationDate,2026-03-16T00:03:23+01:00
; #@! TF.GenerationSoftware,Kicad,Pcbnew,9.0.0
; #@! TF.FileFunction,Plated,1,2,PTH
FMAT,2
METRIC
; #@! TA.AperFunction,Plated,PTH,ViaDrill
T1C0.400
; #@! TA.AperFunction,Plated,PTH,ComponentDrill
T2C1.000
; #@! TA.AperFunction,Plated,PTH,ComponentDrill
T3C1.800
%
G90
G05
T1
X136.779Y-89.544
X142.875Y-72.526
X143.256Y-123.326
X143.51Y-104.53
X144.399Y-134.375
X144.907Y-87.131
X147.828Y-144.154
X151.13Y-70.621
X153.543Y-140.217
X154.432Y-147.583
X157.861Y-106.816
X158.115Y-117.103
X158.369Y-146.694
X158.877Y-56.27
X159.385Y-132.47
X159.893Y-107.07
X159.893Y-112.912
X161.925Y-112.912
X162.56Y-107.578
X163.068Y-57.667
X163.195Y-109.356
X163.449Y-100.466
X163.703Y-122.691
X164.846Y-91.576
X164.973Y-105.546
X164.973Y-106.562
X164.973Y-108.848
X164.973Y-109.864
X164.973Y-112.15
X164.973Y-113.166
X164.973Y-115.198
X164.973Y-116.214
X165.227Y-126.12
X166.497Y-51.444
X166.497Y-105.546
X166.497Y-106.562
X166.497Y-108.848
X166.497Y-109.864
X166.497Y-112.15
X166.497Y-113.166
X166.497Y-115.198
X166.497Y-116.214
X166.497Y-131.708
X166.497Y-134.248
X168.275Y-131.454
X168.656Y-127.517
X169.545Y-51.444
X169.799Y-105.546
X169.799Y-106.562
X169.799Y-108.848
X169.799Y-109.864
X169.799Y-112.15
X169.799Y-113.166
X169.799Y-115.198
X169.799Y-116.214
X170.18Y-103.006
X170.307Y-121.802
X170.703Y-134.36
X170.815Y-125.612
X171.323Y-105.546
X171.323Y-106.562
X171.323Y-108.848
X171.323Y-109.864
X171.323Y-112.15
X171.323Y-113.166
X171.323Y-115.198
X171.323Y-116.214
X171.45Y-90.306
X172.212Y-57.413
X172.339Y-117.992
X172.339Y-131.327
X172.466Y-145.551
X172.72Y-126.882
X172.847Y-147.964
X173.228Y-97.799
X173.228Y-140.344
X173.609Y-106.054
X175.641Y-102.244
X176.657Y-55.508
X177.673Y-133.105
X177.927Y-143.9
X182.245Y-142.884
X184.912Y-68.97
X185.674Y-139.709
X190.5Y-86.496
X191.77Y-124.469
X192.43Y-71.51
X193.167Y-104.53
X198.501Y-89.036
T2
X181.636Y-147.563
X184.023Y-146.694
X186.41Y-145.825
T3
X157.528Y-138.93
X178.61Y-138.93
M30
