G04 #@! TF.GenerationSoftware,KiCad,Pcbnew,9.0.0*
G04 #@! TF.CreationDate,2026-03-16T00:03:23+01:00*
G04 #@! TF.ProjectId,manufacturing_main,6d616e75-6661-4637-9475-72696e675f6d,rev?*
G04 #@! TF.SameCoordinates,Original*
G04 #@! TF.FileFunction,Copper,L1,Top*
G04 #@! TF.FilePolarity,Positive*
%FSLAX46Y46*%
G04 Gerber Fmt 4.6, Leading zero omitted, Abs format (unit mm)*
G04 Created by KiCad (PCBNEW 9.0.0) date 2026-03-16 00:03:23*
%MOMM*%
%LPD*%
G01*
G04 APERTURE LIST*
G04 Aperture macros list*
%AMRoundRect*
0 Rectangle with rounded corners*
0 $1 Rounding radius*
0 $2 $3 $4 $5 $6 $7 $8 $9 X,Y pos of 4 corners*
0 Add a 4 corners polygon primitive as box body*
4,1,4,$2,$3,$4,$5,$6,$7,$8,$9,$2,$3,0*
0 Add four circle primitives for the rounded corners*
1,1,$1+$1,$2,$3*
1,1,$1+$1,$4,$5*
1,1,$1+$1,$6,$7*
1,1,$1+$1,$8,$9*
0 Add four rect primitives between the rounded corners*
20,1,$1+$1,$2,$3,$4,$5,0*
20,1,$1+$1,$4,$5,$6,$7,0*
20,1,$1+$1,$6,$7,$8,$9,0*
20,1,$1+$1,$8,$9,$2,$3,0*%
%AMRotRect*
0 Rectangle, with rotation*
0 The origin of the aperture is its center*
0 $1 length*
0 $2 width*
0 $3 Rotation angle, in degrees counterclockwise*
0 Add horizontal line*
21,1,$1,$2,0,0,$3*%
G04 Aperture macros list end*
G04 #@! TA.AperFunction,SMDPad,CuDef*
%ADD10RoundRect,0.250000X-0.325000X-0.450000X0.325000X-0.450000X0.325000X0.450000X-0.325000X0.450000X0*%
G04 #@! TD*
G04 #@! TA.AperFunction,SMDPad,CuDef*
%ADD11RoundRect,0.250000X-0.450000X0.350000X-0.450000X-0.350000X0.450000X-0.350000X0.450000X0.350000X0*%
G04 #@! TD*
G04 #@! TA.AperFunction,SMDPad,CuDef*
%ADD12RoundRect,0.250000X0.350000X0.450000X-0.350000X0.450000X-0.350000X-0.450000X0.350000X-0.450000X0*%
G04 #@! TD*
G04 #@! TA.AperFunction,ComponentPad*
%ADD13C,3.000000*%
G04 #@! TD*
G04 #@! TA.AperFunction,SMDPad,CuDef*
%ADD14R,5.000000X5.000000*%
G04 #@! TD*
G04 #@! TA.AperFunction,SMDPad,CuDef*
%ADD15RoundRect,0.250000X-0.350000X-0.450000X0.350000X-0.450000X0.350000X0.450000X-0.350000X0.450000X0*%
G04 #@! TD*
G04 #@! TA.AperFunction,SMDPad,CuDef*
%ADD16R,3.000000X2.000000*%
G04 #@! TD*
G04 #@! TA.AperFunction,SMDPad,CuDef*
%ADD17RoundRect,0.250000X-0.250000X-0.750000X0.250000X-0.750000X0.250000X0.750000X-0.250000X0.750000X0*%
G04 #@! TD*
G04 #@! TA.AperFunction,ComponentPad*
%ADD18RotRect,1.700000X1.700000X290.000000*%
G04 #@! TD*
G04 #@! TA.AperFunction,ComponentPad*
%ADD19C,1.700000*%
G04 #@! TD*
G04 #@! TA.AperFunction,SMDPad,CuDef*
%ADD20RoundRect,0.250000X0.325000X0.450000X-0.325000X0.450000X-0.325000X-0.450000X0.325000X-0.450000X0*%
G04 #@! TD*
G04 #@! TA.AperFunction,SMDPad,CuDef*
%ADD21R,1.300000X1.550000*%
G04 #@! TD*
G04 #@! TA.AperFunction,ViaPad*
%ADD22C,0.800000*%
G04 #@! TD*
G04 #@! TA.AperFunction,Conductor*
%ADD23C,0.250000*%
G04 #@! TD*
G04 #@! TA.AperFunction,Conductor*
%ADD24C,0.450000*%
G04 #@! TD*
G04 #@! TA.AperFunction,Conductor*
%ADD25C,1.000000*%
G04 #@! TD*
G04 APERTURE END LIST*
D10*
G04 #@! TO.P,D14,1,K*
G04 #@! TO.N,Net-(D14-K)*
X190380000Y-68970000D03*
G04 #@! TO.P,D14,2,A*
G04 #@! TO.N,/LED_Power_2*
X192430000Y-68970000D03*
G04 #@! TD*
D11*
G04 #@! TO.P,R17,1*
G04 #@! TO.N,Net-(D13-K)*
X163204000Y-54016000D03*
G04 #@! TO.P,R17,2*
G04 #@! TO.N,GND*
X163204000Y-56016000D03*
G04 #@! TD*
D12*
G04 #@! TO.P,R15,1*
G04 #@! TO.N,Net-(D11-K)*
X187817000Y-141360000D03*
G04 #@! TO.P,R15,2*
G04 #@! TO.N,GND*
X185817000Y-141360000D03*
G04 #@! TD*
D10*
G04 #@! TO.P,D11,1,K*
G04 #@! TO.N,Net-(D11-K)*
X190151000Y-141368000D03*
G04 #@! TO.P,D11,2,A*
G04 #@! TO.N,/LED_Power_3*
X192201000Y-141368000D03*
G04 #@! TD*
D13*
G04 #@! TO.P,J1,1,Pin_1*
G04 #@! TO.N,+BATT*
X157528000Y-138930000D03*
X178610000Y-138930000D03*
D14*
G04 #@! TO.P,J1,2,Pin_2*
G04 #@! TO.N,GND*
X168069000Y-138930000D03*
G04 #@! TD*
D12*
G04 #@! TO.P,R18,1*
G04 #@! TO.N,Net-(D14-K)*
X188579000Y-68970000D03*
G04 #@! TO.P,R18,2*
G04 #@! TO.N,GND*
X186579000Y-68970000D03*
G04 #@! TD*
D10*
G04 #@! TO.P,D15,1,K*
G04 #@! TO.N,Net-(D15-K)*
X199009000Y-104522000D03*
G04 #@! TO.P,D15,2,A*
G04 #@! TO.N,/LED_Power_1*
X201059000Y-104522000D03*
G04 #@! TD*
D15*
G04 #@! TO.P,R20,1*
G04 #@! TO.N,Net-(D16-K)*
X141113000Y-87258000D03*
G04 #@! TO.P,R20,2*
G04 #@! TO.N,GND*
X143113000Y-87258000D03*
G04 #@! TD*
D12*
G04 #@! TO.P,R19,1*
G04 #@! TO.N,Net-(D15-K)*
X196707000Y-104530000D03*
G04 #@! TO.P,R19,2*
G04 #@! TO.N,GND*
X194707000Y-104530000D03*
G04 #@! TD*
D16*
G04 #@! TO.P,J6,1,Pin_1*
G04 #@! TO.N,/LED_Power_1*
X165735000Y-106054000D03*
G04 #@! TO.P,J6,2,Pin_2*
G04 #@! TO.N,/LED_Power_2*
X165735000Y-109356000D03*
G04 #@! TO.P,J6,3,Pin_3*
G04 #@! TO.N,/LED_Power_3*
X165735000Y-112658000D03*
G04 #@! TO.P,J6,4,Pin_4*
G04 #@! TO.N,GND*
X165735000Y-115706000D03*
G04 #@! TD*
D17*
G04 #@! TO.P,REF\u002A\u002A,1*
G04 #@! TO.N,N/C*
X166497000Y-51444000D03*
G04 #@! TD*
D15*
G04 #@! TO.P,R12,1*
G04 #@! TO.N,Net-(D8-K)*
X139589000Y-123358000D03*
G04 #@! TO.P,R12,2*
G04 #@! TO.N,GND*
X141589000Y-123358000D03*
G04 #@! TD*
D17*
G04 #@! TO.P,REF\u002A\u002A,1*
G04 #@! TO.N,N/C*
X169545000Y-51444000D03*
G04 #@! TD*
D18*
G04 #@! TO.P,J2,1,Pin_1*
G04 #@! TO.N,VDD*
X186409819Y-145825269D03*
D19*
G04 #@! TO.P,J2,2,Pin_2*
G04 #@! TO.N,GND*
X184023000Y-146694000D03*
G04 #@! TO.P,J2,3,Pin_3*
G04 #@! TO.N,/UDPI*
X181636180Y-147562731D03*
G04 #@! TD*
D20*
G04 #@! TO.P,D8,1,K*
G04 #@! TO.N,Net-(D8-K)*
X137287000Y-123326000D03*
G04 #@! TO.P,D8,2,A*
G04 #@! TO.N,/LED_Power_1*
X135237000Y-123326000D03*
G04 #@! TD*
D21*
G04 #@! TO.P,SW1,1,1*
G04 #@! TO.N,GND*
X146467000Y-142033000D03*
X146467000Y-134083000D03*
G04 #@! TO.P,SW1,2,2*
G04 #@! TO.N,Net-(D1-K)*
X150967000Y-142033000D03*
X150967000Y-134083000D03*
G04 #@! TD*
D20*
G04 #@! TO.P,D13,1,K*
G04 #@! TO.N,Net-(D13-K)*
X160918000Y-54238000D03*
G04 #@! TO.P,D13,2,A*
G04 #@! TO.N,/LED_Power_3*
X158868000Y-54238000D03*
G04 #@! TD*
G04 #@! TO.P,D16,1,K*
G04 #@! TO.N,Net-(D16-K)*
X139074000Y-87274000D03*
G04 #@! TO.P,D16,2,A*
G04 #@! TO.N,/LED_Power_2*
X137024000Y-87274000D03*
G04 #@! TD*
D22*
G04 #@! TO.N,/LED_Power_1*
X142875000Y-72526000D03*
G04 #@! TO.N,GND*
X177927000Y-143900000D03*
X147828000Y-144154000D03*
X163703000Y-122691000D03*
G04 #@! TO.N,/UDPI*
X172466000Y-145551000D03*
G04 #@! TO.N,GND*
X171323000Y-115198000D03*
X172720000Y-126882000D03*
X172339000Y-131327000D03*
X144907000Y-87131000D03*
X193167000Y-104530000D03*
X169799000Y-115198000D03*
X159385000Y-132470000D03*
X154432000Y-147583000D03*
X163068000Y-57667000D03*
X171323000Y-116214000D03*
X143510000Y-104530000D03*
X166497000Y-116214000D03*
X168275000Y-131454000D03*
X182245000Y-142884000D03*
X151130000Y-70621000D03*
X175641000Y-102244000D03*
X170180000Y-103006000D03*
X172847000Y-147964000D03*
X169799000Y-116214000D03*
X164973000Y-116214000D03*
X168656000Y-127517000D03*
X153543000Y-140217000D03*
X157861000Y-106816000D03*
X144399000Y-134375000D03*
X162560000Y-107578000D03*
X163449000Y-100466000D03*
X171450000Y-90306000D03*
X173228000Y-97799000D03*
X190500000Y-86496000D03*
X164846000Y-91576000D03*
X184912000Y-68970000D03*
X166497000Y-115198000D03*
X177673000Y-133105000D03*
X158115000Y-117103000D03*
X170307000Y-121802000D03*
X172212000Y-57413000D03*
X191770000Y-124469000D03*
X143256000Y-123326000D03*
X185674000Y-139709000D03*
X173228000Y-140344000D03*
X164973000Y-115198000D03*
G04 #@! TO.N,/LED_Power_3*
X169799000Y-112150000D03*
G04 #@! TO.N,/LED_Power_2*
X136779000Y-89544000D03*
X166497000Y-108848000D03*
X166497000Y-109864000D03*
G04 #@! TO.N,/LED_Power_3*
X164973000Y-113166000D03*
G04 #@! TO.N,/LED_Power_2*
X164973000Y-108848000D03*
X169799000Y-109864000D03*
G04 #@! TO.N,/LED_Power_3*
X169799000Y-113166000D03*
G04 #@! TO.N,/LED_Power_2*
X192430000Y-71510000D03*
X164973000Y-109864000D03*
X171323000Y-109864000D03*
X171323000Y-108848000D03*
X163195000Y-109356000D03*
G04 #@! TO.N,/LED_Power_3*
X159893000Y-107070000D03*
G04 #@! TO.N,/LED_Power_2*
X169799000Y-108848000D03*
G04 #@! TO.N,/LED_Power_3*
X171323000Y-113166000D03*
X166497000Y-134248000D03*
X161925000Y-112912000D03*
X166497000Y-131708000D03*
X166497000Y-113166000D03*
G04 #@! TO.N,/LED_Power_1*
X169799000Y-105546000D03*
G04 #@! TO.N,/LED_Power_3*
X166497000Y-112150000D03*
X171323000Y-112150000D03*
X159893000Y-112912000D03*
X172339000Y-117992000D03*
X164973000Y-112150000D03*
G04 #@! TO.N,/LED_Power_1*
X166497000Y-106562000D03*
G04 #@! TO.N,/LED_Power_3*
X158877000Y-56270000D03*
G04 #@! TO.N,*
X166497000Y-51444000D03*
G04 #@! TO.N,/LED_Power_1*
X171323000Y-106562000D03*
X171323000Y-105546000D03*
G04 #@! TO.N,*
X169545000Y-51444000D03*
G04 #@! TO.N,/LED_Power_1*
X173609000Y-106054000D03*
X170815000Y-125612000D03*
X166497000Y-105546000D03*
X170703000Y-134360000D03*
X164973000Y-105546000D03*
X164973000Y-106562000D03*
X176657000Y-55508000D03*
G04 #@! TO.N,Net-(D1-K)*
X158369000Y-146694000D03*
G04 #@! TO.N,/LED_Power_1*
X165227000Y-126120000D03*
X169799000Y-106562000D03*
X198501000Y-89036000D03*
G04 #@! TD*
D23*
G04 #@! TO.N,/LED_Power_1*
X198501000Y-89036000D02*
X192024000Y-95513000D01*
D24*
G04 #@! TO.N,Net-(D1-K)*
X158369000Y-146694000D02*
X153708000Y-142033000D01*
D23*
G04 #@! TO.N,/LED_Power_1*
X170053000Y-62112000D02*
X170053000Y-97164000D01*
X136779000Y-126120000D02*
X135237000Y-124578000D01*
X192024000Y-95513000D02*
X186817000Y-100720000D01*
D24*
X160909000Y-106054000D02*
X165735000Y-106054000D01*
G04 #@! TO.N,Net-(D1-K)*
X153708000Y-142033000D02*
X150967000Y-142033000D01*
D23*
G04 #@! TO.N,/LED_Power_1*
X201059000Y-104522000D02*
X201059000Y-104294000D01*
D25*
G04 #@! TO.N,Net-(D1-K)*
X150967000Y-134083000D02*
X150967000Y-142033000D01*
D24*
G04 #@! TO.N,/UDPI*
X179751449Y-145678000D02*
X181636180Y-147562731D01*
D23*
X172466000Y-145551000D02*
X172593000Y-145678000D01*
D24*
X172593000Y-145678000D02*
X179751449Y-145678000D01*
D25*
G04 #@! TO.N,+BATT*
X157528000Y-138930000D02*
X162244000Y-143646000D01*
X173894000Y-143646000D02*
X178610000Y-138930000D01*
X162244000Y-143646000D02*
X173894000Y-143646000D01*
D24*
G04 #@! TO.N,Net-(D15-K)*
X196707000Y-104530000D02*
X199001000Y-104530000D01*
G04 #@! TO.N,Net-(D16-K)*
X141097000Y-87274000D02*
X141113000Y-87258000D01*
X139074000Y-87274000D02*
X141097000Y-87274000D01*
G04 #@! TO.N,Net-(D15-K)*
X199001000Y-104530000D02*
X199009000Y-104522000D01*
G04 #@! TO.N,Net-(D13-K)*
X162982000Y-54238000D02*
X163204000Y-54016000D01*
G04 #@! TO.N,Net-(D14-K)*
X188579000Y-68970000D02*
X190380000Y-68970000D01*
G04 #@! TO.N,Net-(D13-K)*
X160918000Y-54238000D02*
X162982000Y-54238000D01*
G04 #@! TO.N,Net-(D11-K)*
X190143000Y-141360000D02*
X190151000Y-141368000D01*
X187817000Y-141360000D02*
X190143000Y-141360000D01*
D23*
G04 #@! TO.N,/LED_Power_2*
X136779000Y-89544000D02*
X136779000Y-87519000D01*
D24*
G04 #@! TO.N,Net-(D8-K)*
X137287000Y-123326000D02*
X139557000Y-123326000D01*
D23*
G04 #@! TO.N,/LED_Power_2*
X192430000Y-71510000D02*
X192430000Y-68970000D01*
D24*
X163195000Y-109356000D02*
X165735000Y-109356000D01*
G04 #@! TO.N,Net-(D8-K)*
X139557000Y-123326000D02*
X139589000Y-123358000D01*
D23*
G04 #@! TO.N,/LED_Power_2*
X136779000Y-87519000D02*
X137024000Y-87274000D01*
D24*
G04 #@! TO.N,/LED_Power_3*
X161925000Y-115452000D02*
X164465000Y-117992000D01*
D23*
X158877000Y-54247000D02*
X158868000Y-54238000D01*
G04 #@! TO.N,/LED_Power_1*
X142875000Y-72526000D02*
X166243000Y-95894000D01*
X176657000Y-55508000D02*
X170053000Y-62112000D01*
D24*
G04 #@! TO.N,/LED_Power_3*
X161925000Y-112912000D02*
X161925000Y-115452000D01*
D23*
X186563000Y-135518000D02*
X167767000Y-135518000D01*
D24*
G04 #@! TO.N,/LED_Power_1*
X160909000Y-115706000D02*
X160909000Y-106054000D01*
G04 #@! TO.N,/LED_Power_3*
X161925000Y-112912000D02*
X162941000Y-112912000D01*
D23*
G04 #@! TO.N,/LED_Power_1*
X166243000Y-95894000D02*
X166243000Y-105292000D01*
D24*
G04 #@! TO.N,/LED_Power_3*
X162941000Y-112912000D02*
X163195000Y-112658000D01*
X159893000Y-115960000D02*
X166497000Y-122564000D01*
X159893000Y-112912000D02*
X159893000Y-115960000D01*
G04 #@! TO.N,/LED_Power_1*
X170815000Y-125612000D02*
X160909000Y-115706000D01*
D23*
G04 #@! TO.N,/LED_Power_3*
X158877000Y-56270000D02*
X158877000Y-54247000D01*
X192201000Y-141156000D02*
X186563000Y-135518000D01*
G04 #@! TO.N,/LED_Power_1*
X186817000Y-100720000D02*
X173609000Y-100720000D01*
D24*
G04 #@! TO.N,/LED_Power_3*
X163195000Y-112658000D02*
X165735000Y-112658000D01*
D23*
G04 #@! TO.N,/LED_Power_1*
X201033000Y-104522000D02*
X192024000Y-95513000D01*
D24*
X173609000Y-106054000D02*
X173609000Y-122818000D01*
D23*
X166243000Y-105292000D02*
X166497000Y-105546000D01*
X201059000Y-104522000D02*
X201033000Y-104522000D01*
X170703000Y-134360000D02*
X170815000Y-134248000D01*
X165227000Y-126120000D02*
X136779000Y-126120000D01*
D24*
G04 #@! TO.N,/LED_Power_3*
X166497000Y-134248000D02*
X166497000Y-131708000D01*
D23*
G04 #@! TO.N,/LED_Power_1*
X135237000Y-124578000D02*
X135237000Y-123326000D01*
D24*
X170815000Y-134248000D02*
X170815000Y-125612000D01*
D23*
X173609000Y-100720000D02*
X173609000Y-106054000D01*
D24*
G04 #@! TO.N,/LED_Power_3*
X166497000Y-122564000D02*
X166497000Y-131708000D01*
D23*
X167767000Y-135518000D02*
X166497000Y-134248000D01*
X159893000Y-107070000D02*
X159893000Y-112912000D01*
D24*
G04 #@! TO.N,/LED_Power_1*
X173609000Y-122818000D02*
X170815000Y-125612000D01*
G04 #@! TO.N,/LED_Power_3*
X164465000Y-117992000D02*
X172339000Y-117992000D01*
D23*
G04 #@! TO.N,/LED_Power_1*
X170053000Y-97164000D02*
X173609000Y-100720000D01*
G04 #@! TO.N,/LED_Power_3*
X192201000Y-141368000D02*
X192201000Y-141156000D01*
G04 #@! TD*
G04 #@! TA.AperFunction,Conductor*
G04 #@! TO.N,GND*
G36*
X170438517Y-50562996D02*
G01*
X171042262Y-50657125D01*
X171164661Y-50676208D01*
X171169641Y-50677089D01*
X172030805Y-50847584D01*
X172035566Y-50848625D01*
X172903628Y-51056425D01*
X172931654Y-51063134D01*
X172936286Y-51064338D01*
X173853949Y-51321849D01*
X173858417Y-51323195D01*
X174788707Y-51622790D01*
X174793098Y-51624295D01*
X175729731Y-51965177D01*
X175733932Y-51966795D01*
X176672258Y-52348265D01*
X176676445Y-52350058D01*
X177612874Y-52771493D01*
X177616894Y-52773390D01*
X178409628Y-53165500D01*
X178548928Y-53234402D01*
X178552902Y-53236458D01*
X179259069Y-53618129D01*
X179478330Y-53736635D01*
X179482193Y-53738813D01*
X180399475Y-54277970D01*
X180403172Y-54280233D01*
X181310985Y-54858234D01*
X181314590Y-54860619D01*
X182211895Y-55477454D01*
X182215361Y-55479927D01*
X182935920Y-56013273D01*
X183101184Y-56135599D01*
X183104588Y-56138211D01*
X183265295Y-56266000D01*
X183978237Y-56832908D01*
X183981485Y-56835583D01*
X184310370Y-57115998D01*
X184842290Y-57569525D01*
X184845435Y-57572300D01*
X185692849Y-58345817D01*
X185695848Y-58348648D01*
X185849891Y-58498991D01*
X186529358Y-59162139D01*
X186532235Y-59165040D01*
X187351372Y-60018981D01*
X187354112Y-60021932D01*
X188158377Y-60916807D01*
X188160980Y-60919799D01*
X188949961Y-61856247D01*
X188952428Y-61859269D01*
X189725680Y-62837942D01*
X189727999Y-62840973D01*
X190018083Y-63232418D01*
X190485025Y-63862519D01*
X190487221Y-63865578D01*
X191227617Y-64930837D01*
X191229680Y-64933902D01*
X191952884Y-66043568D01*
X191954817Y-66046631D01*
X192660387Y-67201631D01*
X192662193Y-67204685D01*
X193035019Y-67856187D01*
X193051231Y-67924149D01*
X193028126Y-67990088D01*
X192973040Y-68033068D01*
X192903462Y-68039443D01*
X192884063Y-68033957D01*
X192862488Y-68025910D01*
X192862484Y-68025909D01*
X192862483Y-68025909D01*
X192802873Y-68019500D01*
X192802863Y-68019500D01*
X192057129Y-68019500D01*
X192057123Y-68019501D01*
X191997516Y-68025908D01*
X191862671Y-68076202D01*
X191862664Y-68076206D01*
X191747455Y-68162452D01*
X191747452Y-68162455D01*
X191661206Y-68277664D01*
X191661202Y-68277671D01*
X191610908Y-68412517D01*
X191604727Y-68470013D01*
X191604501Y-68472123D01*
X191604500Y-68472135D01*
X191604500Y-69467870D01*
X191604501Y-69467876D01*
X191610908Y-69527483D01*
X191661202Y-69662328D01*
X191661206Y-69662335D01*
X191747452Y-69777544D01*
X191747455Y-69777547D01*
X191862664Y-69863793D01*
X191862673Y-69863798D01*
X191973832Y-69905257D01*
X192029766Y-69947127D01*
X192054184Y-70012592D01*
X192054500Y-70021439D01*
X192054500Y-70914192D01*
X192034815Y-70981231D01*
X192018181Y-71001873D01*
X191924726Y-71095327D01*
X191924723Y-71095331D01*
X191853538Y-71201866D01*
X191853533Y-71201875D01*
X191804499Y-71320255D01*
X191804497Y-71320261D01*
X191779500Y-71445928D01*
X191779500Y-71445931D01*
X191779500Y-71574069D01*
X191779500Y-71574071D01*
X191779499Y-71574071D01*
X191804497Y-71699738D01*
X191804499Y-71699744D01*
X191853533Y-71818124D01*
X191853538Y-71818133D01*
X191924723Y-71924668D01*
X191924726Y-71924672D01*
X192015327Y-72015273D01*
X192015331Y-72015276D01*
X192121866Y-72086461D01*
X192121872Y-72086464D01*
X192121873Y-72086465D01*
X192240256Y-72135501D01*
X192240260Y-72135501D01*
X192240261Y-72135502D01*
X192365928Y-72160500D01*
X192365931Y-72160500D01*
X192494071Y-72160500D01*
X192578615Y-72143682D01*
X192619744Y-72135501D01*
X192738127Y-72086465D01*
X192844669Y-72015276D01*
X192935276Y-71924669D01*
X193006465Y-71818127D01*
X193055501Y-71699744D01*
X193070378Y-71624954D01*
X193080500Y-71574071D01*
X193080500Y-71445928D01*
X193055502Y-71320261D01*
X193055501Y-71320260D01*
X193055501Y-71320256D01*
X193006465Y-71201873D01*
X193006464Y-71201872D01*
X193006461Y-71201866D01*
X192935276Y-71095331D01*
X192935273Y-71095327D01*
X192841819Y-71001873D01*
X192808334Y-70940550D01*
X192805500Y-70914192D01*
X192805500Y-70021439D01*
X192825185Y-69954400D01*
X192877989Y-69908645D01*
X192886168Y-69905257D01*
X192997326Y-69863798D01*
X192997326Y-69863797D01*
X192997331Y-69863796D01*
X193112546Y-69777546D01*
X193198796Y-69662331D01*
X193249091Y-69527483D01*
X193255500Y-69467873D01*
X193255499Y-68719890D01*
X193275183Y-68652852D01*
X193327987Y-68607097D01*
X193397146Y-68597153D01*
X193460702Y-68626178D01*
X193488394Y-68660580D01*
X193686991Y-69025202D01*
X193687802Y-69026716D01*
X194020302Y-69657839D01*
X194021084Y-69659347D01*
X194347692Y-70300431D01*
X194348444Y-70301932D01*
X194671181Y-70957211D01*
X194671905Y-70958706D01*
X194988671Y-71624202D01*
X194989366Y-71625689D01*
X195301997Y-72305543D01*
X195302665Y-72307021D01*
X195609312Y-72997515D01*
X195609953Y-72998984D01*
X195912193Y-73703988D01*
X195912808Y-73705448D01*
X196208959Y-74421364D01*
X196209548Y-74422813D01*
X196501033Y-75153413D01*
X196501597Y-75154852D01*
X196786951Y-75896824D01*
X196787490Y-75898252D01*
X197067877Y-76654985D01*
X197068392Y-76656402D01*
X197342565Y-77424914D01*
X197343057Y-77426319D01*
X197612009Y-78209791D01*
X197612478Y-78211184D01*
X197875096Y-79006782D01*
X197875543Y-79008162D01*
X198132698Y-79818963D01*
X198133123Y-79820331D01*
X198316120Y-80421320D01*
X198383774Y-80643503D01*
X198384178Y-80644858D01*
X198629154Y-81483591D01*
X198629537Y-81484932D01*
X198867842Y-82336310D01*
X198868206Y-82337638D01*
X199100564Y-83204753D01*
X199100909Y-83206068D01*
X199326502Y-84086411D01*
X199326828Y-84087712D01*
X199546164Y-84983828D01*
X199546471Y-84985114D01*
X199758859Y-85894757D01*
X199759149Y-85896030D01*
X199965050Y-86821800D01*
X199965323Y-86823058D01*
X200164105Y-87762756D01*
X200164362Y-87764001D01*
X200356370Y-88719949D01*
X200356610Y-88721178D01*
X200541328Y-89691507D01*
X200541554Y-89692723D01*
X200719246Y-90679604D01*
X200719456Y-90680805D01*
X200889645Y-91682386D01*
X200889840Y-91683572D01*
X201052692Y-92701645D01*
X201052874Y-92702817D01*
X201208084Y-93736408D01*
X201208252Y-93737565D01*
X201355842Y-94787778D01*
X201355998Y-94788922D01*
X201495719Y-95855025D01*
X201495861Y-95856153D01*
X201627680Y-96938968D01*
X201627811Y-96940082D01*
X201751540Y-98039247D01*
X201751659Y-98040348D01*
X201867262Y-99156881D01*
X201867369Y-99157966D01*
X201974587Y-100290724D01*
X201974684Y-100291796D01*
X202073517Y-101442277D01*
X202073603Y-101443334D01*
X202163813Y-102610479D01*
X202163889Y-102611523D01*
X202245427Y-103796498D01*
X202245494Y-103797527D01*
X202318189Y-105000002D01*
X202318246Y-105001018D01*
X202381961Y-106221054D01*
X202382010Y-106222056D01*
X202436636Y-107460339D01*
X202436675Y-107461327D01*
X202482053Y-108717474D01*
X202482085Y-108718449D01*
X202518090Y-109992970D01*
X202518113Y-109993932D01*
X202544599Y-111286782D01*
X202544615Y-111287731D01*
X202561448Y-112599186D01*
X202561456Y-112600121D01*
X202568488Y-113929174D01*
X202568488Y-113930535D01*
X202563554Y-114798165D01*
X202563538Y-114799596D01*
X202548839Y-115652796D01*
X202548805Y-115654250D01*
X202524533Y-116492238D01*
X202524481Y-116493716D01*
X202490779Y-117317582D01*
X202490709Y-117319084D01*
X202447756Y-118128601D01*
X202447665Y-118130127D01*
X202395618Y-118925587D01*
X202395507Y-118927137D01*
X202334525Y-119708715D01*
X202334392Y-119710288D01*
X202264639Y-120478066D01*
X202264484Y-120479663D01*
X202186101Y-121233966D01*
X202185922Y-121235587D01*
X202099063Y-121976555D01*
X202098859Y-121978199D01*
X202003661Y-122706064D01*
X202003431Y-122707731D01*
X201900090Y-123422321D01*
X201899834Y-123424010D01*
X201788405Y-124126094D01*
X201788121Y-124127806D01*
X201668837Y-124816925D01*
X201668524Y-124818659D01*
X201541406Y-125495657D01*
X201541064Y-125497412D01*
X201406379Y-126161738D01*
X201406005Y-126163515D01*
X201263698Y-126816209D01*
X201263292Y-126818005D01*
X201113745Y-127458083D01*
X201113306Y-127459900D01*
X200956324Y-128088862D01*
X200955851Y-128090697D01*
X200791892Y-128707344D01*
X200791384Y-128709197D01*
X200620177Y-129315127D01*
X200619633Y-129316998D01*
X200441727Y-129910819D01*
X200441145Y-129912706D01*
X200256120Y-130496326D01*
X200255500Y-130498228D01*
X200064085Y-131069824D01*
X200063426Y-131071740D01*
X199864979Y-131633664D01*
X199864280Y-131635593D01*
X199659702Y-132185713D01*
X199658961Y-132187654D01*
X199447509Y-132728353D01*
X199446727Y-132730304D01*
X199229387Y-133259433D01*
X199228562Y-133261393D01*
X199004361Y-133781657D01*
X199003493Y-133783625D01*
X198773709Y-134292380D01*
X198772797Y-134294354D01*
X198536128Y-134794769D01*
X198535171Y-134796747D01*
X198294432Y-135283270D01*
X198292913Y-135286237D01*
X197788935Y-136239414D01*
X197786748Y-136243375D01*
X197260387Y-137156608D01*
X197258013Y-137160555D01*
X196708350Y-138037270D01*
X196705791Y-138041186D01*
X196133129Y-138882323D01*
X196130384Y-138886194D01*
X195534948Y-139692628D01*
X195532020Y-139696436D01*
X194913974Y-140468984D01*
X194910868Y-140472714D01*
X194270335Y-141212081D01*
X194267057Y-141215717D01*
X193604055Y-141922598D01*
X193600613Y-141926125D01*
X192915181Y-142601048D01*
X192911585Y-142604451D01*
X192203617Y-143247961D01*
X192199876Y-143251226D01*
X191469425Y-143863602D01*
X191465553Y-143866718D01*
X190712516Y-144448276D01*
X190708526Y-144451232D01*
X189932828Y-145002162D01*
X189928734Y-145004949D01*
X189130345Y-145525315D01*
X189126161Y-145527925D01*
X188305169Y-146017654D01*
X188300909Y-146020082D01*
X187885665Y-146246018D01*
X187817370Y-146260768D01*
X187751942Y-146236253D01*
X187710155Y-146180257D01*
X187709879Y-146179508D01*
X187690937Y-146127465D01*
X187144795Y-144626951D01*
X187144792Y-144626946D01*
X187144792Y-144626945D01*
X187106148Y-144563264D01*
X187106147Y-144563262D01*
X187106145Y-144563260D01*
X187106143Y-144563258D01*
X187025782Y-144504335D01*
X186993514Y-144496439D01*
X186928981Y-144480649D01*
X186928979Y-144480649D01*
X186879894Y-144488203D01*
X186855351Y-144491981D01*
X186855348Y-144491981D01*
X186855348Y-144491982D01*
X185211499Y-145090293D01*
X185211495Y-145090295D01*
X185147814Y-145128939D01*
X185147808Y-145128944D01*
X185088885Y-145209305D01*
X185080671Y-145242875D01*
X185065199Y-145306107D01*
X185076531Y-145379737D01*
X185129517Y-145525314D01*
X185147669Y-145575187D01*
X185152100Y-145644916D01*
X185118130Y-145705971D01*
X185056543Y-145738969D01*
X184986893Y-145733431D01*
X184943466Y-145705278D01*
X184902466Y-145664278D01*
X184810251Y-145597281D01*
X184433556Y-146405106D01*
X184423099Y-146386993D01*
X184330007Y-146293901D01*
X184215993Y-146228075D01*
X184088826Y-146194000D01*
X183980307Y-146194000D01*
X184358269Y-145383462D01*
X184339123Y-145377241D01*
X184129246Y-145344000D01*
X183916754Y-145344000D01*
X183706872Y-145377242D01*
X183706869Y-145377242D01*
X183504782Y-145442904D01*
X183315442Y-145539379D01*
X183143540Y-145664272D01*
X183143535Y-145664276D01*
X182993280Y-145814531D01*
X182993280Y-145814532D01*
X182926281Y-145906746D01*
X183734108Y-146283442D01*
X183715993Y-146293901D01*
X183622901Y-146386993D01*
X183557075Y-146501007D01*
X183523000Y-146628174D01*
X183523000Y-146736690D01*
X182712462Y-146358730D01*
X182712461Y-146358730D01*
X182706242Y-146377870D01*
X182673000Y-146587753D01*
X182673000Y-146743847D01*
X182653315Y-146810886D01*
X182600511Y-146856641D01*
X182531353Y-146866585D01*
X182467797Y-146837560D01*
X182461319Y-146831528D01*
X182353110Y-146723319D01*
X182353108Y-146723317D01*
X182212968Y-146621499D01*
X182058625Y-146542858D01*
X181893881Y-146489329D01*
X181893879Y-146489328D01*
X181893878Y-146489328D01*
X181762451Y-146468512D01*
X181722791Y-146462231D01*
X181549569Y-146462231D01*
X181495940Y-146470725D01*
X181378477Y-146489329D01*
X181342629Y-146500976D01*
X181272788Y-146502969D01*
X181216633Y-146470725D01*
X180043414Y-145297506D01*
X180043413Y-145297505D01*
X179934985Y-145234905D01*
X179934986Y-145234905D01*
X179894673Y-145224103D01*
X179814050Y-145202500D01*
X179814048Y-145202500D01*
X173081768Y-145202500D01*
X173014729Y-145182815D01*
X172978665Y-145147389D01*
X172971277Y-145136332D01*
X172971273Y-145136327D01*
X172880672Y-145045726D01*
X172880668Y-145045723D01*
X172774133Y-144974538D01*
X172774124Y-144974533D01*
X172655744Y-144925499D01*
X172655738Y-144925497D01*
X172530071Y-144900500D01*
X172530069Y-144900500D01*
X172401931Y-144900500D01*
X172401929Y-144900500D01*
X172276261Y-144925497D01*
X172276255Y-144925499D01*
X172157875Y-144974533D01*
X172157866Y-144974538D01*
X172051331Y-145045723D01*
X172051327Y-145045726D01*
X171960726Y-145136327D01*
X171960723Y-145136331D01*
X171889538Y-145242866D01*
X171889533Y-145242875D01*
X171840499Y-145361255D01*
X171840497Y-145361261D01*
X171815500Y-145486928D01*
X171815500Y-145486931D01*
X171815500Y-145615069D01*
X171815500Y-145615071D01*
X171815499Y-145615071D01*
X171840497Y-145740738D01*
X171840499Y-145740744D01*
X171889533Y-145859124D01*
X171889538Y-145859133D01*
X171960723Y-145965668D01*
X171960726Y-145965672D01*
X172051327Y-146056273D01*
X172051331Y-146056276D01*
X172157866Y-146127461D01*
X172157872Y-146127464D01*
X172157873Y-146127465D01*
X172276256Y-146176501D01*
X172276260Y-146176501D01*
X172276261Y-146176502D01*
X172401928Y-146201500D01*
X172401931Y-146201500D01*
X172530071Y-146201500D01*
X172614615Y-146184682D01*
X172655744Y-146176501D01*
X172688485Y-146162938D01*
X172735938Y-146153500D01*
X179503128Y-146153500D01*
X179570167Y-146173185D01*
X179590809Y-146189819D01*
X180544174Y-147143184D01*
X180577659Y-147204507D01*
X180574425Y-147269180D01*
X180562778Y-147305028D01*
X180535680Y-147476120D01*
X180535680Y-147649341D01*
X180558071Y-147790717D01*
X180562778Y-147820432D01*
X180616307Y-147985176D01*
X180694948Y-148139519D01*
X180796766Y-148279659D01*
X180919252Y-148402145D01*
X181024357Y-148478508D01*
X181059393Y-148503964D01*
X181128021Y-148538931D01*
X181147723Y-148557539D01*
X181169698Y-148573405D01*
X181172749Y-148581174D01*
X181178817Y-148586905D01*
X181185331Y-148613209D01*
X181195240Y-148638438D01*
X181193606Y-148646624D01*
X181195613Y-148654726D01*
X181186871Y-148680378D01*
X181181568Y-148706957D01*
X181175768Y-148712960D01*
X181173076Y-148720861D01*
X181151851Y-148737716D01*
X181133022Y-148757207D01*
X181121718Y-148761646D01*
X181118361Y-148764313D01*
X181100171Y-148770110D01*
X180949621Y-148805590D01*
X180945194Y-148806548D01*
X179959891Y-149001067D01*
X179955473Y-149001856D01*
X178967700Y-149159965D01*
X178963291Y-149160590D01*
X177982200Y-149281684D01*
X177977802Y-149282148D01*
X177017616Y-149366030D01*
X177013250Y-149366333D01*
X176097824Y-149413835D01*
X176093683Y-149413981D01*
X175267509Y-149429211D01*
X175265393Y-149429232D01*
X175068681Y-149429500D01*
X161069319Y-149429500D01*
X160872605Y-149429232D01*
X160870489Y-149429211D01*
X160044317Y-149413981D01*
X160040176Y-149413835D01*
X159124745Y-149366333D01*
X159120380Y-149366030D01*
X158160226Y-149282152D01*
X158155827Y-149281688D01*
X157174711Y-149160590D01*
X157170302Y-149159965D01*
X156182521Y-149001855D01*
X156178103Y-149001066D01*
X155192798Y-148806547D01*
X155188371Y-148805589D01*
X154211927Y-148575470D01*
X154207492Y-148574338D01*
X153244207Y-148309442D01*
X153239769Y-148308132D01*
X152292749Y-148009278D01*
X152288314Y-148007785D01*
X151359860Y-147675779D01*
X151355437Y-147674102D01*
X150446865Y-147309546D01*
X150442463Y-147307680D01*
X149554965Y-146911210D01*
X149550598Y-146909157D01*
X148684872Y-146481257D01*
X148680552Y-146479015D01*
X147837100Y-146020088D01*
X147832840Y-146017660D01*
X147011836Y-145527924D01*
X147007652Y-145525314D01*
X146209275Y-145004956D01*
X146205181Y-145002169D01*
X145429471Y-144451232D01*
X145425481Y-144448276D01*
X144672430Y-143866707D01*
X144668558Y-143863591D01*
X143938113Y-143251219D01*
X143934372Y-143247954D01*
X143843315Y-143165187D01*
X143502987Y-142855844D01*
X145317000Y-142855844D01*
X145323401Y-142915372D01*
X145323403Y-142915379D01*
X145373645Y-143050086D01*
X145373649Y-143050093D01*
X145459809Y-143165187D01*
X145459812Y-143165190D01*
X145574906Y-143251350D01*
X145574913Y-143251354D01*
X145709620Y-143301596D01*
X145709627Y-143301598D01*
X145769155Y-143307999D01*
X145769172Y-143308000D01*
X146217000Y-143308000D01*
X146717000Y-143308000D01*
X147164828Y-143308000D01*
X147164844Y-143307999D01*
X147224372Y-143301598D01*
X147224379Y-143301596D01*
X147359086Y-143251354D01*
X147359093Y-143251350D01*
X147474187Y-143165190D01*
X147474190Y-143165187D01*
X147560350Y-143050093D01*
X147560354Y-143050086D01*
X147610596Y-142915379D01*
X147610598Y-142915372D01*
X147616999Y-142855844D01*
X147617000Y-142855827D01*
X147617000Y-142283000D01*
X146717000Y-142283000D01*
X146717000Y-143308000D01*
X146217000Y-143308000D01*
X146217000Y-142283000D01*
X145317000Y-142283000D01*
X145317000Y-142855844D01*
X143502987Y-142855844D01*
X143226407Y-142604445D01*
X143222850Y-142601078D01*
X142543624Y-141932267D01*
X142537372Y-141926111D01*
X142533930Y-141922584D01*
X141942188Y-141291680D01*
X141870955Y-141215733D01*
X141867677Y-141212097D01*
X141865995Y-141210155D01*
X145317000Y-141210155D01*
X145317000Y-141783000D01*
X146217000Y-141783000D01*
X146717000Y-141783000D01*
X147617000Y-141783000D01*
X147617000Y-141210172D01*
X147616999Y-141210155D01*
X147610598Y-141150627D01*
X147610596Y-141150620D01*
X147560354Y-141015913D01*
X147560350Y-141015906D01*
X147474190Y-140900812D01*
X147474187Y-140900809D01*
X147359093Y-140814649D01*
X147359086Y-140814645D01*
X147224379Y-140764403D01*
X147224372Y-140764401D01*
X147164844Y-140758000D01*
X146717000Y-140758000D01*
X146717000Y-141783000D01*
X146217000Y-141783000D01*
X146217000Y-140758000D01*
X145769155Y-140758000D01*
X145709627Y-140764401D01*
X145709620Y-140764403D01*
X145574913Y-140814645D01*
X145574906Y-140814649D01*
X145459812Y-140900809D01*
X145459809Y-140900812D01*
X145373649Y-141015906D01*
X145373645Y-141015913D01*
X145323403Y-141150620D01*
X145323401Y-141150627D01*
X145317000Y-141210155D01*
X141865995Y-141210155D01*
X141736050Y-141060160D01*
X141227124Y-140472707D01*
X141224023Y-140468983D01*
X141221801Y-140466206D01*
X140605987Y-139696449D01*
X140603059Y-139692641D01*
X140007614Y-138886194D01*
X140004869Y-138882323D01*
X139959219Y-138815272D01*
X139432207Y-138041186D01*
X139429648Y-138037270D01*
X139414023Y-138012348D01*
X138879971Y-137160532D01*
X138877625Y-137156631D01*
X138351249Y-136243373D01*
X138349063Y-136239414D01*
X137879642Y-135351596D01*
X137845059Y-135286189D01*
X137843549Y-135283237D01*
X137818080Y-135231766D01*
X137656809Y-134905844D01*
X145317000Y-134905844D01*
X145323401Y-134965372D01*
X145323403Y-134965379D01*
X145373645Y-135100086D01*
X145373649Y-135100093D01*
X145459809Y-135215187D01*
X145459812Y-135215190D01*
X145574906Y-135301350D01*
X145574913Y-135301354D01*
X145709620Y-135351596D01*
X145709627Y-135351598D01*
X145769155Y-135357999D01*
X145769172Y-135358000D01*
X146217000Y-135358000D01*
X146717000Y-135358000D01*
X147164828Y-135358000D01*
X147164844Y-135357999D01*
X147224372Y-135351598D01*
X147224379Y-135351596D01*
X147359086Y-135301354D01*
X147359093Y-135301350D01*
X147474187Y-135215190D01*
X147474190Y-135215187D01*
X147560350Y-135100093D01*
X147560354Y-135100086D01*
X147610596Y-134965379D01*
X147610598Y-134965372D01*
X147616999Y-134905844D01*
X147617000Y-134905827D01*
X147617000Y-134333000D01*
X146717000Y-134333000D01*
X146717000Y-135358000D01*
X146217000Y-135358000D01*
X146217000Y-134333000D01*
X145317000Y-134333000D01*
X145317000Y-134905844D01*
X137656809Y-134905844D01*
X137602826Y-134796747D01*
X137601901Y-134794837D01*
X137591551Y-134772952D01*
X137365202Y-134294354D01*
X137364314Y-134292434D01*
X137134505Y-133783625D01*
X137133644Y-133781674D01*
X137076338Y-133648694D01*
X136909401Y-133261315D01*
X136908914Y-133260155D01*
X145317000Y-133260155D01*
X145317000Y-133833000D01*
X146217000Y-133833000D01*
X146717000Y-133833000D01*
X147617000Y-133833000D01*
X147617000Y-133283321D01*
X150066500Y-133283321D01*
X150066500Y-134882678D01*
X150081032Y-134955735D01*
X150081033Y-134955739D01*
X150094827Y-134976384D01*
X150136399Y-135038601D01*
X150161388Y-135055298D01*
X150206194Y-135108907D01*
X150216500Y-135158401D01*
X150216500Y-140957598D01*
X150196815Y-141024637D01*
X150161391Y-141060700D01*
X150136399Y-141077398D01*
X150081033Y-141160260D01*
X150081032Y-141160264D01*
X150066500Y-141233321D01*
X150066500Y-142832678D01*
X150081032Y-142905735D01*
X150081033Y-142905739D01*
X150081034Y-142905740D01*
X150136399Y-142988601D01*
X150219260Y-143043966D01*
X150219264Y-143043967D01*
X150292321Y-143058499D01*
X150292324Y-143058500D01*
X150292326Y-143058500D01*
X151641676Y-143058500D01*
X151641677Y-143058499D01*
X151714740Y-143043966D01*
X151797601Y-142988601D01*
X151852966Y-142905740D01*
X151867500Y-142832674D01*
X151867500Y-142632500D01*
X151887185Y-142565461D01*
X151939989Y-142519706D01*
X151991500Y-142508500D01*
X153459679Y-142508500D01*
X153526718Y-142528185D01*
X153547360Y-142544819D01*
X157682526Y-146679985D01*
X157716011Y-146741308D01*
X157718248Y-146755512D01*
X157718500Y-146758072D01*
X157743497Y-146883738D01*
X157743499Y-146883744D01*
X157792533Y-147002124D01*
X157792538Y-147002133D01*
X157863723Y-147108668D01*
X157863726Y-147108672D01*
X157954327Y-147199273D01*
X157954331Y-147199276D01*
X158060866Y-147270461D01*
X158060872Y-147270464D01*
X158060873Y-147270465D01*
X158179256Y-147319501D01*
X158179260Y-147319501D01*
X158179261Y-147319502D01*
X158304928Y-147344500D01*
X158304931Y-147344500D01*
X158433071Y-147344500D01*
X158517615Y-147327682D01*
X158558744Y-147319501D01*
X158677127Y-147270465D01*
X158783669Y-147199276D01*
X158874276Y-147108669D01*
X158945465Y-147002127D01*
X158994501Y-146883744D01*
X159019151Y-146759826D01*
X159019500Y-146758071D01*
X159019500Y-146629928D01*
X158994502Y-146504261D01*
X158994501Y-146504260D01*
X158994501Y-146504256D01*
X158945465Y-146385873D01*
X158945464Y-146385872D01*
X158945461Y-146385866D01*
X158874276Y-146279331D01*
X158874273Y-146279327D01*
X158783672Y-146188726D01*
X158783668Y-146188723D01*
X158677133Y-146117538D01*
X158677124Y-146117533D01*
X158558744Y-146068499D01*
X158558738Y-146068497D01*
X158433072Y-146043500D01*
X158430512Y-146043248D01*
X158429257Y-146042741D01*
X158427094Y-146042311D01*
X158427175Y-146041900D01*
X158365725Y-146017087D01*
X158354985Y-146007526D01*
X153999965Y-141652506D01*
X153999964Y-141652505D01*
X153891536Y-141589905D01*
X153891537Y-141589905D01*
X153851224Y-141579103D01*
X153770601Y-141557500D01*
X153770599Y-141557500D01*
X151991500Y-141557500D01*
X151924461Y-141537815D01*
X151878706Y-141485011D01*
X151867500Y-141433500D01*
X151867500Y-141233323D01*
X151867499Y-141233321D01*
X151852967Y-141160264D01*
X151852966Y-141160260D01*
X151846525Y-141150620D01*
X151797601Y-141077399D01*
X151785183Y-141069102D01*
X151772609Y-141060700D01*
X151727804Y-141007088D01*
X151717500Y-140957598D01*
X151717500Y-138815258D01*
X155777500Y-138815258D01*
X155777500Y-139044741D01*
X155786415Y-139112451D01*
X155807452Y-139272238D01*
X155855900Y-139453050D01*
X155866842Y-139493887D01*
X155954650Y-139705876D01*
X155954657Y-139705890D01*
X156069392Y-139904617D01*
X156209081Y-140086661D01*
X156209089Y-140086670D01*
X156371330Y-140248911D01*
X156371338Y-140248918D01*
X156371339Y-140248919D01*
X156421962Y-140287764D01*
X156553382Y-140388607D01*
X156553385Y-140388608D01*
X156553388Y-140388611D01*
X156752112Y-140503344D01*
X156752117Y-140503346D01*
X156752123Y-140503349D01*
X156843480Y-140541190D01*
X156964113Y-140591158D01*
X157185762Y-140650548D01*
X157413266Y-140680500D01*
X157413273Y-140680500D01*
X157642727Y-140680500D01*
X157642734Y-140680500D01*
X157870238Y-140650548D01*
X158051053Y-140602099D01*
X158120901Y-140603762D01*
X158170825Y-140634193D01*
X161661049Y-144124416D01*
X161765580Y-144228947D01*
X161765585Y-144228952D01*
X161888498Y-144311080D01*
X161888511Y-144311087D01*
X162025082Y-144367656D01*
X162025087Y-144367658D01*
X162025091Y-144367658D01*
X162025092Y-144367659D01*
X162170079Y-144396500D01*
X162170082Y-144396500D01*
X173967920Y-144396500D01*
X174065462Y-144377096D01*
X174112913Y-144367658D01*
X174249495Y-144311084D01*
X174300531Y-144276983D01*
X174300531Y-144276982D01*
X174300533Y-144276982D01*
X174336473Y-144252967D01*
X174372416Y-144228952D01*
X176741381Y-141859986D01*
X184717001Y-141859986D01*
X184727494Y-141962697D01*
X184782641Y-142129119D01*
X184782643Y-142129124D01*
X184874684Y-142278345D01*
X184998654Y-142402315D01*
X185147875Y-142494356D01*
X185147880Y-142494358D01*
X185314302Y-142549505D01*
X185314309Y-142549506D01*
X185417019Y-142559999D01*
X185566999Y-142559999D01*
X185567000Y-142559998D01*
X185567000Y-141610000D01*
X184717001Y-141610000D01*
X184717001Y-141859986D01*
X176741381Y-141859986D01*
X177741353Y-140860013D01*
X184717000Y-140860013D01*
X184717000Y-141110000D01*
X185567000Y-141110000D01*
X185567000Y-140160000D01*
X185417027Y-140160000D01*
X185417012Y-140160001D01*
X185314302Y-140170494D01*
X185147880Y-140225641D01*
X185147875Y-140225643D01*
X184998654Y-140317684D01*
X184874684Y-140441654D01*
X184782643Y-140590875D01*
X184782641Y-140590880D01*
X184727494Y-140757302D01*
X184727493Y-140757309D01*
X184717000Y-140860013D01*
X177741353Y-140860013D01*
X177967175Y-140634191D01*
X178028496Y-140600708D01*
X178086945Y-140602098D01*
X178267762Y-140650548D01*
X178495266Y-140680500D01*
X178495273Y-140680500D01*
X178724727Y-140680500D01*
X178724734Y-140680500D01*
X178952238Y-140650548D01*
X179173887Y-140591158D01*
X179385888Y-140503344D01*
X179584612Y-140388611D01*
X179766661Y-140248919D01*
X179766665Y-140248914D01*
X179766670Y-140248911D01*
X179928911Y-140086670D01*
X179928914Y-140086665D01*
X179928919Y-140086661D01*
X180068611Y-139904612D01*
X180183344Y-139705888D01*
X180271158Y-139493887D01*
X180330548Y-139272238D01*
X180360500Y-139044734D01*
X180360500Y-138815266D01*
X180330548Y-138587762D01*
X180271158Y-138366113D01*
X180183344Y-138154112D01*
X180068611Y-137955388D01*
X180068608Y-137955385D01*
X180068607Y-137955382D01*
X179928918Y-137773338D01*
X179928911Y-137773330D01*
X179766670Y-137611089D01*
X179766661Y-137611081D01*
X179584617Y-137471392D01*
X179385890Y-137356657D01*
X179385876Y-137356650D01*
X179173887Y-137268842D01*
X178952238Y-137209452D01*
X178914215Y-137204446D01*
X178724741Y-137179500D01*
X178724734Y-137179500D01*
X178495266Y-137179500D01*
X178495258Y-137179500D01*
X178278715Y-137208009D01*
X178267762Y-137209452D01*
X178174076Y-137234554D01*
X178046112Y-137268842D01*
X177834123Y-137356650D01*
X177834109Y-137356657D01*
X177635382Y-137471392D01*
X177453338Y-137611081D01*
X177291081Y-137773338D01*
X177151392Y-137955382D01*
X177036657Y-138154109D01*
X177036650Y-138154123D01*
X176948842Y-138366112D01*
X176889453Y-138587759D01*
X176889451Y-138587770D01*
X176859500Y-138815258D01*
X176859500Y-139044741D01*
X176868415Y-139112451D01*
X176889452Y-139272238D01*
X176937900Y-139453050D01*
X176936237Y-139522900D01*
X176905806Y-139572824D01*
X173619451Y-142859181D01*
X173558128Y-142892666D01*
X173531770Y-142895500D01*
X162606229Y-142895500D01*
X162539190Y-142875815D01*
X162518548Y-142859181D01*
X161137211Y-141477844D01*
X165069000Y-141477844D01*
X165075401Y-141537372D01*
X165075403Y-141537379D01*
X165125645Y-141672086D01*
X165125649Y-141672093D01*
X165211809Y-141787187D01*
X165211812Y-141787190D01*
X165326906Y-141873350D01*
X165326913Y-141873354D01*
X165461620Y-141923596D01*
X165461627Y-141923598D01*
X165521155Y-141929999D01*
X165521172Y-141930000D01*
X167819000Y-141930000D01*
X168319000Y-141930000D01*
X170616828Y-141930000D01*
X170616844Y-141929999D01*
X170676372Y-141923598D01*
X170676379Y-141923596D01*
X170811086Y-141873354D01*
X170811093Y-141873350D01*
X170926187Y-141787190D01*
X170926190Y-141787187D01*
X171012350Y-141672093D01*
X171012354Y-141672086D01*
X171062596Y-141537379D01*
X171062598Y-141537372D01*
X171068999Y-141477844D01*
X171069000Y-141477827D01*
X171069000Y-139180000D01*
X168319000Y-139180000D01*
X168319000Y-141930000D01*
X167819000Y-141930000D01*
X167819000Y-139180000D01*
X165069000Y-139180000D01*
X165069000Y-141477844D01*
X161137211Y-141477844D01*
X159232193Y-139572825D01*
X159198708Y-139511502D01*
X159200098Y-139453054D01*
X159248548Y-139272238D01*
X159278500Y-139044734D01*
X159278500Y-138815266D01*
X159248548Y-138587762D01*
X159189158Y-138366113D01*
X159101344Y-138154112D01*
X158986611Y-137955388D01*
X158986608Y-137955385D01*
X158986607Y-137955382D01*
X158846918Y-137773338D01*
X158846911Y-137773330D01*
X158684670Y-137611089D01*
X158684661Y-137611081D01*
X158502617Y-137471392D01*
X158303890Y-137356657D01*
X158303876Y-137356650D01*
X158091887Y-137268842D01*
X157870238Y-137209452D01*
X157832215Y-137204446D01*
X157642741Y-137179500D01*
X157642734Y-137179500D01*
X157413266Y-137179500D01*
X157413258Y-137179500D01*
X157196715Y-137208009D01*
X157185762Y-137209452D01*
X157092076Y-137234554D01*
X156964112Y-137268842D01*
X156752123Y-137356650D01*
X156752109Y-137356657D01*
X156553382Y-137471392D01*
X156371338Y-137611081D01*
X156209081Y-137773338D01*
X156069392Y-137955382D01*
X155954657Y-138154109D01*
X155954650Y-138154123D01*
X155866842Y-138366112D01*
X155807453Y-138587759D01*
X155807451Y-138587770D01*
X155777500Y-138815258D01*
X151717500Y-138815258D01*
X151717500Y-135158401D01*
X151737185Y-135091362D01*
X151772610Y-135055298D01*
X151797601Y-135038601D01*
X151852966Y-134955740D01*
X151867500Y-134882674D01*
X151867500Y-133283326D01*
X151867500Y-133283323D01*
X151867499Y-133283321D01*
X151852967Y-133210264D01*
X151852966Y-133210260D01*
X151797601Y-133127399D01*
X151714740Y-133072034D01*
X151714739Y-133072033D01*
X151714735Y-133072032D01*
X151641677Y-133057500D01*
X151641674Y-133057500D01*
X150292326Y-133057500D01*
X150292323Y-133057500D01*
X150219264Y-133072032D01*
X150219260Y-133072033D01*
X150136399Y-133127399D01*
X150081033Y-133210260D01*
X150081032Y-133210264D01*
X150066500Y-133283321D01*
X147617000Y-133283321D01*
X147617000Y-133260172D01*
X147616999Y-133260155D01*
X147610598Y-133200627D01*
X147610596Y-133200620D01*
X147560354Y-133065913D01*
X147560350Y-133065906D01*
X147474190Y-132950812D01*
X147474187Y-132950809D01*
X147359093Y-132864649D01*
X147359086Y-132864645D01*
X147224379Y-132814403D01*
X147224372Y-132814401D01*
X147164844Y-132808000D01*
X146717000Y-132808000D01*
X146717000Y-133833000D01*
X146217000Y-133833000D01*
X146217000Y-132808000D01*
X145769155Y-132808000D01*
X145709627Y-132814401D01*
X145709620Y-132814403D01*
X145574913Y-132864645D01*
X145574906Y-132864649D01*
X145459812Y-132950809D01*
X145459809Y-132950812D01*
X145373649Y-133065906D01*
X145373645Y-133065913D01*
X145323403Y-133200620D01*
X145323401Y-133200627D01*
X145317000Y-133260155D01*
X136908914Y-133260155D01*
X136908612Y-133259437D01*
X136908610Y-133259433D01*
X136691291Y-132730352D01*
X136690509Y-132728401D01*
X136594025Y-132481685D01*
X136479007Y-132187573D01*
X136478297Y-132185713D01*
X136273704Y-131635554D01*
X136273047Y-131633742D01*
X136074553Y-131071685D01*
X136073932Y-131069879D01*
X135882498Y-130498228D01*
X135881878Y-130496326D01*
X135696853Y-129912706D01*
X135696271Y-129910819D01*
X135601912Y-129595864D01*
X135518340Y-129316915D01*
X135517839Y-129315194D01*
X135346591Y-128709113D01*
X135346096Y-128707306D01*
X135182128Y-128090623D01*
X135181694Y-128088940D01*
X135024677Y-127459836D01*
X135024268Y-127458145D01*
X134874680Y-126817891D01*
X134874318Y-126816292D01*
X134731970Y-126163410D01*
X134731640Y-126161840D01*
X134596917Y-125497325D01*
X134596610Y-125495754D01*
X134469474Y-124818656D01*
X134469515Y-124818242D01*
X134469161Y-124816924D01*
X134452893Y-124722940D01*
X134373762Y-124265789D01*
X134381724Y-124196377D01*
X134425950Y-124142286D01*
X134492399Y-124120693D01*
X134559974Y-124138452D01*
X134570250Y-124145371D01*
X134597202Y-124165547D01*
X134669669Y-124219796D01*
X134669673Y-124219798D01*
X134780832Y-124261257D01*
X134836766Y-124303127D01*
X134861184Y-124368592D01*
X134861500Y-124377439D01*
X134861500Y-124627436D01*
X134874277Y-124675123D01*
X134874291Y-124675173D01*
X134874295Y-124675186D01*
X134887090Y-124722938D01*
X134936525Y-124808562D01*
X134936526Y-124808563D01*
X136478525Y-126350562D01*
X136548438Y-126420475D01*
X136634062Y-126469910D01*
X136673541Y-126480489D01*
X136673542Y-126480489D01*
X136685380Y-126483661D01*
X136729564Y-126495500D01*
X136729565Y-126495500D01*
X164631192Y-126495500D01*
X164698231Y-126515185D01*
X164718873Y-126531819D01*
X164812327Y-126625273D01*
X164812331Y-126625276D01*
X164918866Y-126696461D01*
X164918872Y-126696464D01*
X164918873Y-126696465D01*
X165037256Y-126745501D01*
X165037260Y-126745501D01*
X165037261Y-126745502D01*
X165162928Y-126770500D01*
X165162931Y-126770500D01*
X165291071Y-126770500D01*
X165375615Y-126753682D01*
X165416744Y-126745501D01*
X165535127Y-126696465D01*
X165641669Y-126625276D01*
X165732276Y-126534669D01*
X165794398Y-126441697D01*
X165848010Y-126396892D01*
X165917335Y-126388185D01*
X165980362Y-126418339D01*
X166017082Y-126477782D01*
X166021500Y-126510588D01*
X166021500Y-131212680D01*
X166001815Y-131279719D01*
X165993356Y-131291341D01*
X165991726Y-131293326D01*
X165920538Y-131399866D01*
X165920533Y-131399875D01*
X165871499Y-131518255D01*
X165871497Y-131518261D01*
X165846500Y-131643928D01*
X165846500Y-131643931D01*
X165846500Y-131772069D01*
X165846500Y-131772071D01*
X165846499Y-131772071D01*
X165871497Y-131897738D01*
X165871499Y-131897744D01*
X165920533Y-132016124D01*
X165920538Y-132016133D01*
X165991720Y-132122664D01*
X165993351Y-132124651D01*
X165993879Y-132125895D01*
X165995108Y-132127734D01*
X165994759Y-132127966D01*
X166020666Y-132188960D01*
X166021500Y-132203319D01*
X166021500Y-133752680D01*
X166001815Y-133819719D01*
X165993356Y-133831341D01*
X165991726Y-133833326D01*
X165920538Y-133939866D01*
X165920533Y-133939875D01*
X165871499Y-134058255D01*
X165871497Y-134058261D01*
X165846500Y-134183928D01*
X165846500Y-134183931D01*
X165846500Y-134312069D01*
X165846500Y-134312071D01*
X165846499Y-134312071D01*
X165871497Y-134437738D01*
X165871499Y-134437744D01*
X165920533Y-134556124D01*
X165920538Y-134556133D01*
X165991723Y-134662668D01*
X165991726Y-134662672D01*
X166082327Y-134753273D01*
X166082331Y-134753276D01*
X166188866Y-134824461D01*
X166188872Y-134824464D01*
X166188873Y-134824465D01*
X166307256Y-134873501D01*
X166307260Y-134873501D01*
X166307261Y-134873502D01*
X166432928Y-134898500D01*
X166565101Y-134898500D01*
X166632140Y-134918185D01*
X166652782Y-134934819D01*
X167436282Y-135718319D01*
X167469767Y-135779642D01*
X167464783Y-135849334D01*
X167422911Y-135905267D01*
X167357447Y-135929684D01*
X167348601Y-135930000D01*
X165521155Y-135930000D01*
X165461627Y-135936401D01*
X165461620Y-135936403D01*
X165326913Y-135986645D01*
X165326906Y-135986649D01*
X165211812Y-136072809D01*
X165211809Y-136072812D01*
X165125649Y-136187906D01*
X165125645Y-136187913D01*
X165075403Y-136322620D01*
X165075401Y-136322627D01*
X165069000Y-136382155D01*
X165069000Y-138680000D01*
X171069000Y-138680000D01*
X171069000Y-136382172D01*
X171068999Y-136382155D01*
X171062598Y-136322627D01*
X171062596Y-136322620D01*
X171012354Y-136187913D01*
X171012350Y-136187906D01*
X170940413Y-136091811D01*
X170915995Y-136026347D01*
X170930846Y-135958074D01*
X170980251Y-135908668D01*
X171039679Y-135893500D01*
X186356101Y-135893500D01*
X186423140Y-135913185D01*
X186443782Y-135929819D01*
X190745614Y-140231651D01*
X190779099Y-140292974D01*
X190774115Y-140362666D01*
X190732243Y-140418599D01*
X190666779Y-140443016D01*
X190614602Y-140435515D01*
X190583486Y-140423910D01*
X190583485Y-140423909D01*
X190583483Y-140423909D01*
X190523873Y-140417500D01*
X190523863Y-140417500D01*
X189778129Y-140417500D01*
X189778123Y-140417501D01*
X189718516Y-140423908D01*
X189583671Y-140474202D01*
X189583664Y-140474206D01*
X189468455Y-140560452D01*
X189468452Y-140560455D01*
X189382206Y-140675664D01*
X189382202Y-140675671D01*
X189334402Y-140803833D01*
X189292531Y-140859767D01*
X189227067Y-140884184D01*
X189218220Y-140884500D01*
X188777764Y-140884500D01*
X188710725Y-140864815D01*
X188664970Y-140812011D01*
X188661582Y-140803833D01*
X188610797Y-140667671D01*
X188610793Y-140667664D01*
X188524547Y-140552455D01*
X188524544Y-140552452D01*
X188409335Y-140466206D01*
X188409328Y-140466202D01*
X188274482Y-140415908D01*
X188274483Y-140415908D01*
X188214883Y-140409501D01*
X188214881Y-140409500D01*
X188214873Y-140409500D01*
X188214864Y-140409500D01*
X187419129Y-140409500D01*
X187419123Y-140409501D01*
X187359516Y-140415908D01*
X187224671Y-140466202D01*
X187224664Y-140466206D01*
X187109455Y-140552452D01*
X187063498Y-140613842D01*
X187007563Y-140655713D01*
X186937872Y-140660696D01*
X186876549Y-140627210D01*
X186855335Y-140596909D01*
X186855149Y-140597025D01*
X186853170Y-140593816D01*
X186851845Y-140591924D01*
X186851356Y-140590877D01*
X186759315Y-140441654D01*
X186635345Y-140317684D01*
X186486124Y-140225643D01*
X186486119Y-140225641D01*
X186319697Y-140170494D01*
X186319690Y-140170493D01*
X186216986Y-140160000D01*
X186067000Y-140160000D01*
X186067000Y-142559999D01*
X186216972Y-142559999D01*
X186216986Y-142559998D01*
X186319697Y-142549505D01*
X186486119Y-142494358D01*
X186486124Y-142494356D01*
X186635345Y-142402315D01*
X186759315Y-142278345D01*
X186851354Y-142129126D01*
X186851842Y-142128081D01*
X186852368Y-142127482D01*
X186855149Y-142122975D01*
X186855918Y-142123449D01*
X186898007Y-142075635D01*
X186965198Y-142056473D01*
X187032082Y-142076679D01*
X187063498Y-142106157D01*
X187109455Y-142167547D01*
X187224664Y-142253793D01*
X187224671Y-142253797D01*
X187359517Y-142304091D01*
X187359516Y-142304091D01*
X187366444Y-142304835D01*
X187419127Y-142310500D01*
X188214872Y-142310499D01*
X188274483Y-142304091D01*
X188409331Y-142253796D01*
X188524546Y-142167546D01*
X188610796Y-142052331D01*
X188655577Y-141932267D01*
X188661582Y-141916167D01*
X188703453Y-141860233D01*
X188768917Y-141835816D01*
X188777764Y-141835500D01*
X189212532Y-141835500D01*
X189279571Y-141855185D01*
X189325326Y-141907989D01*
X189328873Y-141918336D01*
X189329198Y-141918215D01*
X189382202Y-142060328D01*
X189382206Y-142060335D01*
X189468452Y-142175544D01*
X189468455Y-142175547D01*
X189583664Y-142261793D01*
X189583671Y-142261797D01*
X189628039Y-142278345D01*
X189718517Y-142312091D01*
X189778127Y-142318500D01*
X190523872Y-142318499D01*
X190583483Y-142312091D01*
X190718331Y-142261796D01*
X190833546Y-142175546D01*
X190919796Y-142060331D01*
X190970091Y-141925483D01*
X190976500Y-141865873D01*
X190976499Y-140870128D01*
X190970091Y-140810517D01*
X190967107Y-140802517D01*
X190958485Y-140779399D01*
X190953501Y-140709707D01*
X190986986Y-140648384D01*
X191048310Y-140614900D01*
X191118001Y-140619884D01*
X191162348Y-140648385D01*
X191339181Y-140825218D01*
X191372666Y-140886541D01*
X191375500Y-140912899D01*
X191375500Y-141865870D01*
X191375501Y-141865876D01*
X191381908Y-141925483D01*
X191432202Y-142060328D01*
X191432206Y-142060335D01*
X191518452Y-142175544D01*
X191518455Y-142175547D01*
X191633664Y-142261793D01*
X191633671Y-142261797D01*
X191678039Y-142278345D01*
X191768517Y-142312091D01*
X191828127Y-142318500D01*
X192573872Y-142318499D01*
X192633483Y-142312091D01*
X192768331Y-142261796D01*
X192883546Y-142175546D01*
X192969796Y-142060331D01*
X193020091Y-141925483D01*
X193026500Y-141865873D01*
X193026499Y-140870128D01*
X193020091Y-140810517D01*
X193017107Y-140802517D01*
X192969797Y-140675671D01*
X192969793Y-140675664D01*
X192883547Y-140560455D01*
X192883544Y-140560452D01*
X192768335Y-140474206D01*
X192768328Y-140474202D01*
X192633482Y-140423908D01*
X192633483Y-140423908D01*
X192573883Y-140417501D01*
X192573881Y-140417500D01*
X192573873Y-140417500D01*
X192573865Y-140417500D01*
X192044899Y-140417500D01*
X191977860Y-140397815D01*
X191957218Y-140381181D01*
X186793563Y-135217526D01*
X186793562Y-135217525D01*
X186707938Y-135168090D01*
X186660186Y-135155295D01*
X186660184Y-135155294D01*
X186660182Y-135155293D01*
X186612436Y-135142500D01*
X186612435Y-135142500D01*
X171111548Y-135142500D01*
X171044509Y-135122815D01*
X170998754Y-135070011D01*
X170988810Y-135000853D01*
X171017835Y-134937297D01*
X171042657Y-134915398D01*
X171091631Y-134882674D01*
X171117669Y-134865276D01*
X171208276Y-134774669D01*
X171279465Y-134668127D01*
X171328501Y-134549744D01*
X171353500Y-134424069D01*
X171353500Y-134295931D01*
X171353500Y-134295928D01*
X171328502Y-134170261D01*
X171328501Y-134170260D01*
X171328501Y-134170256D01*
X171328499Y-134170251D01*
X171299939Y-134101299D01*
X171290500Y-134053847D01*
X171290500Y-126107319D01*
X171310185Y-126040280D01*
X171318649Y-126028651D01*
X171320269Y-126026675D01*
X171320276Y-126026669D01*
X171391465Y-125920127D01*
X171440501Y-125801744D01*
X171465500Y-125676069D01*
X171465500Y-125676063D01*
X171465750Y-125673526D01*
X171466255Y-125672274D01*
X171466689Y-125670094D01*
X171467102Y-125670176D01*
X171491902Y-125608736D01*
X171501465Y-125597992D01*
X173890754Y-123208702D01*
X173890759Y-123208699D01*
X173900962Y-123198495D01*
X173900964Y-123198495D01*
X173989495Y-123109964D01*
X174052095Y-123001536D01*
X174054231Y-122993565D01*
X174084501Y-122880601D01*
X174084501Y-122755399D01*
X174084501Y-122747804D01*
X174084500Y-122747786D01*
X174084500Y-106549319D01*
X174104185Y-106482280D01*
X174112649Y-106470651D01*
X174114269Y-106468675D01*
X174114276Y-106468669D01*
X174185465Y-106362127D01*
X174234501Y-106243744D01*
X174253679Y-106147333D01*
X174259500Y-106118071D01*
X174259500Y-105989928D01*
X174234502Y-105864261D01*
X174234501Y-105864260D01*
X174234501Y-105864256D01*
X174185465Y-105745873D01*
X174185464Y-105745872D01*
X174185461Y-105745866D01*
X174114276Y-105639331D01*
X174114273Y-105639327D01*
X174020819Y-105545873D01*
X173987334Y-105484550D01*
X173984500Y-105458192D01*
X173984500Y-105029986D01*
X193607001Y-105029986D01*
X193617494Y-105132697D01*
X193672641Y-105299119D01*
X193672643Y-105299124D01*
X193764684Y-105448345D01*
X193888654Y-105572315D01*
X194037875Y-105664356D01*
X194037880Y-105664358D01*
X194204302Y-105719505D01*
X194204309Y-105719506D01*
X194307019Y-105729999D01*
X194456999Y-105729999D01*
X194457000Y-105729998D01*
X194457000Y-104780000D01*
X193607001Y-104780000D01*
X193607001Y-105029986D01*
X173984500Y-105029986D01*
X173984500Y-104030013D01*
X193607000Y-104030013D01*
X193607000Y-104280000D01*
X194457000Y-104280000D01*
X194457000Y-103330000D01*
X194307027Y-103330000D01*
X194307012Y-103330001D01*
X194204302Y-103340494D01*
X194037880Y-103395641D01*
X194037875Y-103395643D01*
X193888654Y-103487684D01*
X193764684Y-103611654D01*
X193672643Y-103760875D01*
X193672641Y-103760880D01*
X193617494Y-103927302D01*
X193617493Y-103927309D01*
X193607000Y-104030013D01*
X173984500Y-104030013D01*
X173984500Y-101219500D01*
X174004185Y-101152461D01*
X174056989Y-101106706D01*
X174108500Y-101095500D01*
X186866435Y-101095500D01*
X186866436Y-101095500D01*
X186914186Y-101082705D01*
X186961938Y-101069910D01*
X187047562Y-101020475D01*
X187117475Y-100950562D01*
X191936319Y-96131718D01*
X191997642Y-96098233D01*
X192067334Y-96103217D01*
X192111681Y-96131718D01*
X199339782Y-103359819D01*
X199373267Y-103421142D01*
X199368283Y-103490834D01*
X199326411Y-103546767D01*
X199260947Y-103571184D01*
X199252101Y-103571500D01*
X198636129Y-103571500D01*
X198636123Y-103571501D01*
X198576516Y-103577908D01*
X198441671Y-103628202D01*
X198441664Y-103628206D01*
X198326455Y-103714452D01*
X198326452Y-103714455D01*
X198240206Y-103829664D01*
X198240202Y-103829671D01*
X198187198Y-103971785D01*
X198184509Y-103970782D01*
X198156632Y-104019734D01*
X198094721Y-104052118D01*
X198070532Y-104054500D01*
X197667764Y-104054500D01*
X197600725Y-104034815D01*
X197554970Y-103982011D01*
X197551582Y-103973833D01*
X197500797Y-103837671D01*
X197500793Y-103837664D01*
X197414547Y-103722455D01*
X197414544Y-103722452D01*
X197299335Y-103636206D01*
X197299328Y-103636202D01*
X197164482Y-103585908D01*
X197164483Y-103585908D01*
X197104883Y-103579501D01*
X197104881Y-103579500D01*
X197104873Y-103579500D01*
X197104864Y-103579500D01*
X196309129Y-103579500D01*
X196309123Y-103579501D01*
X196249516Y-103585908D01*
X196114671Y-103636202D01*
X196114664Y-103636206D01*
X195999455Y-103722452D01*
X195953498Y-103783842D01*
X195897563Y-103825713D01*
X195827872Y-103830696D01*
X195766549Y-103797210D01*
X195745335Y-103766909D01*
X195745149Y-103767025D01*
X195743170Y-103763816D01*
X195741845Y-103761924D01*
X195741356Y-103760877D01*
X195649315Y-103611654D01*
X195525345Y-103487684D01*
X195376124Y-103395643D01*
X195376119Y-103395641D01*
X195209697Y-103340494D01*
X195209690Y-103340493D01*
X195106986Y-103330000D01*
X194957000Y-103330000D01*
X194957000Y-105729999D01*
X195106972Y-105729999D01*
X195106986Y-105729998D01*
X195209697Y-105719505D01*
X195376119Y-105664358D01*
X195376124Y-105664356D01*
X195525345Y-105572315D01*
X195649315Y-105448345D01*
X195741354Y-105299126D01*
X195741842Y-105298081D01*
X195742368Y-105297482D01*
X195745149Y-105292975D01*
X195745918Y-105293449D01*
X195788007Y-105245635D01*
X195855198Y-105226473D01*
X195922082Y-105246679D01*
X195953498Y-105276157D01*
X195999455Y-105337547D01*
X196114664Y-105423793D01*
X196114671Y-105423797D01*
X196249517Y-105474091D01*
X196249516Y-105474091D01*
X196256444Y-105474835D01*
X196309127Y-105480500D01*
X197104872Y-105480499D01*
X197164483Y-105474091D01*
X197299331Y-105423796D01*
X197414546Y-105337546D01*
X197500796Y-105222331D01*
X197551091Y-105087483D01*
X197551090Y-105087483D01*
X197551582Y-105086167D01*
X197593453Y-105030233D01*
X197658917Y-105005816D01*
X197667764Y-105005500D01*
X198076220Y-105005500D01*
X198143259Y-105025185D01*
X198189014Y-105077989D01*
X198192402Y-105086167D01*
X198240202Y-105214328D01*
X198240206Y-105214335D01*
X198326452Y-105329544D01*
X198326455Y-105329547D01*
X198441664Y-105415793D01*
X198441671Y-105415797D01*
X198482615Y-105431068D01*
X198576517Y-105466091D01*
X198636127Y-105472500D01*
X199381872Y-105472499D01*
X199441483Y-105466091D01*
X199576331Y-105415796D01*
X199691546Y-105329546D01*
X199777796Y-105214331D01*
X199828091Y-105079483D01*
X199834500Y-105019873D01*
X199834499Y-104153897D01*
X199840737Y-104132651D01*
X199842317Y-104110564D01*
X199850388Y-104099781D01*
X199854183Y-104086859D01*
X199870919Y-104072357D01*
X199884189Y-104054631D01*
X199896807Y-104049924D01*
X199906987Y-104041104D01*
X199928905Y-104037952D01*
X199949653Y-104030214D01*
X199962813Y-104033076D01*
X199976146Y-104031160D01*
X199996289Y-104040359D01*
X200017926Y-104045066D01*
X200035651Y-104058334D01*
X200039702Y-104060185D01*
X200046180Y-104066217D01*
X200197181Y-104217218D01*
X200230666Y-104278541D01*
X200233500Y-104304899D01*
X200233500Y-105019870D01*
X200233501Y-105019876D01*
X200239908Y-105079483D01*
X200290202Y-105214328D01*
X200290206Y-105214335D01*
X200376452Y-105329544D01*
X200376455Y-105329547D01*
X200491664Y-105415793D01*
X200491671Y-105415797D01*
X200532615Y-105431068D01*
X200626517Y-105466091D01*
X200686127Y-105472500D01*
X201431872Y-105472499D01*
X201491483Y-105466091D01*
X201626331Y-105415796D01*
X201741546Y-105329546D01*
X201827796Y-105214331D01*
X201878091Y-105079483D01*
X201884500Y-105019873D01*
X201884499Y-104024128D01*
X201878872Y-103971785D01*
X201878091Y-103964516D01*
X201827797Y-103829671D01*
X201827793Y-103829664D01*
X201741547Y-103714455D01*
X201741544Y-103714452D01*
X201626335Y-103628206D01*
X201626328Y-103628202D01*
X201491486Y-103577910D01*
X201491485Y-103577909D01*
X201491483Y-103577909D01*
X201431873Y-103571500D01*
X201431863Y-103571500D01*
X200686129Y-103571500D01*
X200686123Y-103571501D01*
X200679568Y-103572206D01*
X200610809Y-103559799D01*
X200578634Y-103536597D01*
X192642717Y-95600680D01*
X192609232Y-95539357D01*
X192614216Y-95469665D01*
X192642713Y-95425323D01*
X198345217Y-89722818D01*
X198406540Y-89689334D01*
X198432898Y-89686500D01*
X198565071Y-89686500D01*
X198649615Y-89669682D01*
X198690744Y-89661501D01*
X198809127Y-89612465D01*
X198915669Y-89541276D01*
X199006276Y-89450669D01*
X199077465Y-89344127D01*
X199126501Y-89225744D01*
X199137363Y-89171139D01*
X199151500Y-89100071D01*
X199151500Y-88971928D01*
X199126502Y-88846261D01*
X199126501Y-88846260D01*
X199126501Y-88846256D01*
X199077465Y-88727873D01*
X199077464Y-88727872D01*
X199077461Y-88727866D01*
X199006276Y-88621331D01*
X199006273Y-88621327D01*
X198915672Y-88530726D01*
X198915668Y-88530723D01*
X198809133Y-88459538D01*
X198809124Y-88459533D01*
X198690744Y-88410499D01*
X198690738Y-88410497D01*
X198565071Y-88385500D01*
X198565069Y-88385500D01*
X198436931Y-88385500D01*
X198436929Y-88385500D01*
X198311261Y-88410497D01*
X198311255Y-88410499D01*
X198192875Y-88459533D01*
X198192866Y-88459538D01*
X198086331Y-88530723D01*
X198086327Y-88530726D01*
X197995726Y-88621327D01*
X197995723Y-88621331D01*
X197924538Y-88727866D01*
X197924533Y-88727875D01*
X197875499Y-88846255D01*
X197875497Y-88846261D01*
X197850500Y-88971928D01*
X197850500Y-89104100D01*
X197830815Y-89171139D01*
X197814181Y-89191781D01*
X191793437Y-95212526D01*
X186697782Y-100308181D01*
X186636459Y-100341666D01*
X186610101Y-100344500D01*
X173815899Y-100344500D01*
X173748860Y-100324815D01*
X173728218Y-100308181D01*
X170464819Y-97044782D01*
X170431334Y-96983459D01*
X170428500Y-96957101D01*
X170428500Y-69469986D01*
X185479001Y-69469986D01*
X185489494Y-69572697D01*
X185544641Y-69739119D01*
X185544643Y-69739124D01*
X185636684Y-69888345D01*
X185760654Y-70012315D01*
X185909875Y-70104356D01*
X185909880Y-70104358D01*
X186076302Y-70159505D01*
X186076309Y-70159506D01*
X186179019Y-70169999D01*
X186328999Y-70169999D01*
X186829000Y-70169999D01*
X186978972Y-70169999D01*
X186978986Y-70169998D01*
X187081697Y-70159505D01*
X187248119Y-70104358D01*
X187248124Y-70104356D01*
X187397345Y-70012315D01*
X187521315Y-69888345D01*
X187613354Y-69739126D01*
X187613842Y-69738081D01*
X187614368Y-69737482D01*
X187617149Y-69732975D01*
X187617918Y-69733449D01*
X187660007Y-69685635D01*
X187727198Y-69666473D01*
X187794082Y-69686679D01*
X187825498Y-69716157D01*
X187871455Y-69777547D01*
X187986664Y-69863793D01*
X187986671Y-69863797D01*
X188121517Y-69914091D01*
X188121516Y-69914091D01*
X188128444Y-69914835D01*
X188181127Y-69920500D01*
X188976872Y-69920499D01*
X189036483Y-69914091D01*
X189171331Y-69863796D01*
X189286546Y-69777546D01*
X189372796Y-69662331D01*
X189375817Y-69654230D01*
X189417688Y-69598296D01*
X189483152Y-69573878D01*
X189551425Y-69588729D01*
X189600831Y-69638133D01*
X189608183Y-69654231D01*
X189611203Y-69662330D01*
X189611206Y-69662335D01*
X189697452Y-69777544D01*
X189697455Y-69777547D01*
X189812664Y-69863793D01*
X189812671Y-69863797D01*
X189812674Y-69863798D01*
X189947517Y-69914091D01*
X190007127Y-69920500D01*
X190752872Y-69920499D01*
X190812483Y-69914091D01*
X190947331Y-69863796D01*
X191062546Y-69777546D01*
X191148796Y-69662331D01*
X191199091Y-69527483D01*
X191205500Y-69467873D01*
X191205499Y-68472128D01*
X191199091Y-68412517D01*
X191197739Y-68408893D01*
X191148797Y-68277671D01*
X191148793Y-68277664D01*
X191062547Y-68162455D01*
X191062544Y-68162452D01*
X190947335Y-68076206D01*
X190947328Y-68076202D01*
X190812486Y-68025910D01*
X190812485Y-68025909D01*
X190812483Y-68025909D01*
X190752873Y-68019500D01*
X190752863Y-68019500D01*
X190007129Y-68019500D01*
X190007123Y-68019501D01*
X189947516Y-68025908D01*
X189812671Y-68076202D01*
X189812664Y-68076206D01*
X189697455Y-68162452D01*
X189697452Y-68162455D01*
X189611206Y-68277664D01*
X189611203Y-68277669D01*
X189608182Y-68285771D01*
X189566310Y-68341704D01*
X189500846Y-68366121D01*
X189432573Y-68351269D01*
X189383168Y-68301864D01*
X189375818Y-68285771D01*
X189372796Y-68277669D01*
X189372793Y-68277664D01*
X189286547Y-68162455D01*
X189286544Y-68162452D01*
X189171335Y-68076206D01*
X189171328Y-68076202D01*
X189036482Y-68025908D01*
X189036483Y-68025908D01*
X188976883Y-68019501D01*
X188976881Y-68019500D01*
X188976873Y-68019500D01*
X188976864Y-68019500D01*
X188181129Y-68019500D01*
X188181123Y-68019501D01*
X188121516Y-68025908D01*
X187986671Y-68076202D01*
X187986664Y-68076206D01*
X187871455Y-68162452D01*
X187825498Y-68223842D01*
X187769563Y-68265713D01*
X187699872Y-68270696D01*
X187638549Y-68237210D01*
X187617335Y-68206909D01*
X187617149Y-68207025D01*
X187615170Y-68203816D01*
X187613845Y-68201924D01*
X187613356Y-68200877D01*
X187521315Y-68051654D01*
X187397345Y-67927684D01*
X187248124Y-67835643D01*
X187248119Y-67835641D01*
X187081697Y-67780494D01*
X187081690Y-67780493D01*
X186978986Y-67770000D01*
X186829000Y-67770000D01*
X186829000Y-70169999D01*
X186328999Y-70169999D01*
X186329000Y-70169998D01*
X186329000Y-69220000D01*
X185479001Y-69220000D01*
X185479001Y-69469986D01*
X170428500Y-69469986D01*
X170428500Y-68470013D01*
X185479000Y-68470013D01*
X185479000Y-68720000D01*
X186329000Y-68720000D01*
X186329000Y-67770000D01*
X186179027Y-67770000D01*
X186179012Y-67770001D01*
X186076302Y-67780494D01*
X185909880Y-67835641D01*
X185909875Y-67835643D01*
X185760654Y-67927684D01*
X185636684Y-68051654D01*
X185544643Y-68200875D01*
X185544641Y-68200880D01*
X185489494Y-68367302D01*
X185489493Y-68367309D01*
X185479000Y-68470013D01*
X170428500Y-68470013D01*
X170428500Y-62318898D01*
X170448185Y-62251859D01*
X170464814Y-62231222D01*
X176501217Y-56194818D01*
X176562540Y-56161334D01*
X176588898Y-56158500D01*
X176721071Y-56158500D01*
X176805615Y-56141682D01*
X176846744Y-56133501D01*
X176965127Y-56084465D01*
X177071669Y-56013276D01*
X177162276Y-55922669D01*
X177233465Y-55816127D01*
X177282501Y-55697744D01*
X177293363Y-55643139D01*
X177307500Y-55572071D01*
X177307500Y-55443928D01*
X177282502Y-55318261D01*
X177282501Y-55318260D01*
X177282501Y-55318256D01*
X177244574Y-55226692D01*
X177233466Y-55199875D01*
X177233461Y-55199866D01*
X177162276Y-55093331D01*
X177162273Y-55093327D01*
X177071672Y-55002726D01*
X177071668Y-55002723D01*
X176965133Y-54931538D01*
X176965124Y-54931533D01*
X176846744Y-54882499D01*
X176846738Y-54882497D01*
X176721071Y-54857500D01*
X176721069Y-54857500D01*
X176592931Y-54857500D01*
X176592929Y-54857500D01*
X176467261Y-54882497D01*
X176467255Y-54882499D01*
X176348875Y-54931533D01*
X176348866Y-54931538D01*
X176242331Y-55002723D01*
X176242327Y-55002726D01*
X176151726Y-55093327D01*
X176151723Y-55093331D01*
X176080538Y-55199866D01*
X176080533Y-55199875D01*
X176031499Y-55318255D01*
X176031497Y-55318261D01*
X176006500Y-55443928D01*
X176006500Y-55576100D01*
X175986815Y-55643139D01*
X175970181Y-55663781D01*
X169828298Y-61805664D01*
X169828294Y-61805668D01*
X169822438Y-61811525D01*
X169752525Y-61881438D01*
X169703090Y-61967062D01*
X169703090Y-61967063D01*
X169702011Y-61971088D01*
X169692062Y-61984121D01*
X169670064Y-62000266D01*
X169650319Y-62019093D01*
X169642310Y-62020636D01*
X169635736Y-62025462D01*
X169608503Y-62027151D01*
X169581712Y-62032315D01*
X169574140Y-62029283D01*
X169566000Y-62029789D01*
X169542177Y-62016487D01*
X169516848Y-62006347D01*
X169512116Y-61999702D01*
X169504996Y-61995727D01*
X169492147Y-61971659D01*
X169476320Y-61949433D01*
X169474498Y-61938600D01*
X169472091Y-61934091D01*
X169472627Y-61927472D01*
X169469500Y-61908877D01*
X169469500Y-52818499D01*
X169489185Y-52751460D01*
X169541989Y-52705705D01*
X169593500Y-52694499D01*
X169842871Y-52694499D01*
X169842872Y-52694499D01*
X169902483Y-52688091D01*
X170037331Y-52637796D01*
X170152546Y-52551546D01*
X170238796Y-52436331D01*
X170289091Y-52301483D01*
X170295500Y-52241873D01*
X170295499Y-50685528D01*
X170315184Y-50618490D01*
X170367987Y-50572735D01*
X170437146Y-50562791D01*
X170438517Y-50562996D01*
G37*
G04 #@! TD.AperFunction*
G04 #@! TA.AperFunction,Conductor*
G36*
X183622901Y-147001007D02*
G01*
X183715993Y-147094099D01*
X183830007Y-147159925D01*
X183957174Y-147194000D01*
X184065690Y-147194000D01*
X183681009Y-148018950D01*
X183634837Y-148071389D01*
X183605944Y-148084797D01*
X182898227Y-148308133D01*
X182893789Y-148309443D01*
X182685322Y-148366770D01*
X182615462Y-148365565D01*
X182557344Y-148326783D01*
X182529419Y-148262737D01*
X182540553Y-148193760D01*
X182552122Y-148174326D01*
X182577412Y-148139519D01*
X182656053Y-147985176D01*
X182709582Y-147820432D01*
X182736680Y-147649342D01*
X182736680Y-147601922D01*
X182756365Y-147534883D01*
X182809169Y-147489128D01*
X182878327Y-147479184D01*
X182941883Y-147508209D01*
X182960999Y-147529037D01*
X182993278Y-147573466D01*
X183143533Y-147723721D01*
X183235747Y-147790717D01*
X183612441Y-146982891D01*
X183622901Y-147001007D01*
G37*
G04 #@! TD.AperFunction*
G04 #@! TA.AperFunction,Conductor*
G36*
X185333536Y-147029268D02*
G01*
X185339756Y-147010129D01*
X185339760Y-147010111D01*
X185364868Y-146851585D01*
X185394797Y-146788450D01*
X185454108Y-146751518D01*
X185523970Y-146752516D01*
X185582203Y-146791125D01*
X185603863Y-146828571D01*
X185674843Y-147023587D01*
X185674844Y-147023589D01*
X185674845Y-147023591D01*
X185674845Y-147023592D01*
X185713489Y-147087273D01*
X185713492Y-147087277D01*
X185721396Y-147093072D01*
X185724867Y-147097614D01*
X185730051Y-147100034D01*
X185745846Y-147125066D01*
X185763821Y-147148586D01*
X185764285Y-147154287D01*
X185767337Y-147159123D01*
X185767092Y-147188719D01*
X185769497Y-147218225D01*
X185766806Y-147223271D01*
X185766759Y-147228990D01*
X185750550Y-147253757D01*
X185736623Y-147279878D01*
X185730811Y-147283919D01*
X185728499Y-147287454D01*
X185698651Y-147306289D01*
X185695526Y-147307685D01*
X185691125Y-147309550D01*
X185235951Y-147492183D01*
X185166403Y-147498878D01*
X185137371Y-147489483D01*
X184311893Y-147104557D01*
X184330007Y-147094099D01*
X184423099Y-147001007D01*
X184488925Y-146886993D01*
X184523000Y-146759826D01*
X184523000Y-146651308D01*
X185333536Y-147029268D01*
G37*
G04 #@! TD.AperFunction*
G04 #@! TA.AperFunction,Conductor*
G36*
X167177703Y-122647607D02*
G01*
X167184167Y-122653626D01*
X168580870Y-124050328D01*
X170128526Y-125597984D01*
X170162011Y-125659307D01*
X170164248Y-125673512D01*
X170164500Y-125676071D01*
X170189497Y-125801738D01*
X170189499Y-125801744D01*
X170238533Y-125920124D01*
X170238538Y-125920133D01*
X170309720Y-126026664D01*
X170311351Y-126028651D01*
X170311879Y-126029895D01*
X170313108Y-126031734D01*
X170312759Y-126031966D01*
X170338666Y-126092960D01*
X170339500Y-126107319D01*
X170339500Y-133754254D01*
X170319815Y-133821293D01*
X170292009Y-133849605D01*
X170293039Y-133850860D01*
X170288327Y-133854726D01*
X170197726Y-133945327D01*
X170197723Y-133945331D01*
X170126538Y-134051866D01*
X170126533Y-134051875D01*
X170077499Y-134170255D01*
X170077497Y-134170261D01*
X170052500Y-134295928D01*
X170052500Y-134295931D01*
X170052500Y-134424069D01*
X170052500Y-134424071D01*
X170052499Y-134424071D01*
X170077497Y-134549738D01*
X170077499Y-134549744D01*
X170126533Y-134668124D01*
X170126538Y-134668133D01*
X170197723Y-134774668D01*
X170197726Y-134774672D01*
X170288327Y-134865273D01*
X170288331Y-134865276D01*
X170363343Y-134915398D01*
X170408148Y-134969010D01*
X170416855Y-135038335D01*
X170386700Y-135101363D01*
X170327257Y-135138082D01*
X170294452Y-135142500D01*
X167973899Y-135142500D01*
X167906860Y-135122815D01*
X167886218Y-135106181D01*
X167183819Y-134403782D01*
X167150334Y-134342459D01*
X167147500Y-134316101D01*
X167147500Y-134183928D01*
X167122502Y-134058261D01*
X167122501Y-134058260D01*
X167122501Y-134058256D01*
X167073465Y-133939873D01*
X167073464Y-133939872D01*
X167073461Y-133939866D01*
X167002273Y-133833326D01*
X167000644Y-133831341D01*
X167000116Y-133830098D01*
X166998892Y-133828266D01*
X166999239Y-133828033D01*
X166973333Y-133767030D01*
X166972500Y-133752680D01*
X166972500Y-132203319D01*
X166992185Y-132136280D01*
X167000649Y-132124651D01*
X167002269Y-132122675D01*
X167002276Y-132122669D01*
X167073465Y-132016127D01*
X167122501Y-131897744D01*
X167147500Y-131772069D01*
X167147500Y-131643931D01*
X167147500Y-131643928D01*
X167122502Y-131518261D01*
X167122501Y-131518260D01*
X167122501Y-131518256D01*
X167073465Y-131399873D01*
X167073464Y-131399872D01*
X167073461Y-131399866D01*
X167002273Y-131293326D01*
X167000644Y-131291341D01*
X167000116Y-131290098D01*
X166998892Y-131288266D01*
X166999239Y-131288033D01*
X166973333Y-131227030D01*
X166972500Y-131212680D01*
X166972500Y-122741320D01*
X166992185Y-122674281D01*
X167044989Y-122628526D01*
X167114147Y-122618582D01*
X167177703Y-122647607D01*
G37*
G04 #@! TD.AperFunction*
G04 #@! TA.AperFunction,Conductor*
G36*
X165672670Y-50587100D02*
G01*
X165726013Y-50632225D01*
X165746491Y-50699026D01*
X165746500Y-50700497D01*
X165746500Y-52241870D01*
X165746501Y-52241876D01*
X165752908Y-52301483D01*
X165803202Y-52436328D01*
X165803206Y-52436335D01*
X165889452Y-52551544D01*
X165889455Y-52551547D01*
X166004664Y-52637793D01*
X166004671Y-52637797D01*
X166049618Y-52654561D01*
X166139517Y-52688091D01*
X166199127Y-52694500D01*
X166544500Y-52694499D01*
X166611539Y-52714183D01*
X166657294Y-52766987D01*
X166668500Y-52818499D01*
X166668500Y-95489101D01*
X166648815Y-95556140D01*
X166596011Y-95601895D01*
X166526853Y-95611839D01*
X166463297Y-95582814D01*
X166456819Y-95576782D01*
X143561819Y-72681782D01*
X143528334Y-72620459D01*
X143525500Y-72594101D01*
X143525500Y-72461928D01*
X143500502Y-72336261D01*
X143500501Y-72336260D01*
X143500501Y-72336256D01*
X143451465Y-72217873D01*
X143451464Y-72217872D01*
X143451461Y-72217866D01*
X143380276Y-72111331D01*
X143380273Y-72111327D01*
X143289672Y-72020726D01*
X143289668Y-72020723D01*
X143183133Y-71949538D01*
X143183124Y-71949533D01*
X143064744Y-71900499D01*
X143064738Y-71900497D01*
X142939071Y-71875500D01*
X142939069Y-71875500D01*
X142810931Y-71875500D01*
X142810929Y-71875500D01*
X142685261Y-71900497D01*
X142685255Y-71900499D01*
X142566875Y-71949533D01*
X142566866Y-71949538D01*
X142460331Y-72020723D01*
X142460327Y-72020726D01*
X142369726Y-72111327D01*
X142369723Y-72111331D01*
X142298538Y-72217866D01*
X142298533Y-72217875D01*
X142249499Y-72336255D01*
X142249497Y-72336261D01*
X142224500Y-72461928D01*
X142224500Y-72461931D01*
X142224500Y-72590069D01*
X142224500Y-72590071D01*
X142224499Y-72590071D01*
X142249497Y-72715738D01*
X142249499Y-72715744D01*
X142298533Y-72834124D01*
X142298538Y-72834133D01*
X142369723Y-72940668D01*
X142369726Y-72940672D01*
X142460327Y-73031273D01*
X142460331Y-73031276D01*
X142566866Y-73102461D01*
X142566872Y-73102464D01*
X142566873Y-73102465D01*
X142685256Y-73151501D01*
X142685260Y-73151501D01*
X142685261Y-73151502D01*
X142810928Y-73176500D01*
X142943101Y-73176500D01*
X143010140Y-73196185D01*
X143030782Y-73212819D01*
X165831181Y-96013218D01*
X165864666Y-96074541D01*
X165867500Y-96100899D01*
X165867500Y-104679500D01*
X165847815Y-104746539D01*
X165795011Y-104792294D01*
X165743500Y-104803500D01*
X164210323Y-104803500D01*
X164137264Y-104818032D01*
X164137260Y-104818033D01*
X164054399Y-104873399D01*
X163999033Y-104956260D01*
X163999032Y-104956264D01*
X163984500Y-105029321D01*
X163984500Y-105454500D01*
X163964815Y-105521539D01*
X163912011Y-105567294D01*
X163860500Y-105578500D01*
X160971601Y-105578500D01*
X160846399Y-105578500D01*
X160769819Y-105599020D01*
X160725463Y-105610905D01*
X160617037Y-105673504D01*
X160617034Y-105673506D01*
X160528506Y-105762034D01*
X160528504Y-105762037D01*
X160465905Y-105870463D01*
X160465905Y-105870464D01*
X160433894Y-105989931D01*
X160433500Y-105991400D01*
X160433500Y-106416813D01*
X160413815Y-106483852D01*
X160361011Y-106529607D01*
X160291853Y-106539551D01*
X160240610Y-106519916D01*
X160201131Y-106493537D01*
X160201124Y-106493533D01*
X160082744Y-106444499D01*
X160082738Y-106444497D01*
X159957071Y-106419500D01*
X159957069Y-106419500D01*
X159828931Y-106419500D01*
X159828929Y-106419500D01*
X159703261Y-106444497D01*
X159703255Y-106444499D01*
X159584875Y-106493533D01*
X159584866Y-106493538D01*
X159478331Y-106564723D01*
X159478327Y-106564726D01*
X159387726Y-106655327D01*
X159387723Y-106655331D01*
X159316538Y-106761866D01*
X159316533Y-106761875D01*
X159267499Y-106880255D01*
X159267497Y-106880261D01*
X159242500Y-107005928D01*
X159242500Y-107005931D01*
X159242500Y-107134069D01*
X159242500Y-107134071D01*
X159242499Y-107134071D01*
X159267497Y-107259738D01*
X159267499Y-107259744D01*
X159316533Y-107378124D01*
X159316538Y-107378133D01*
X159387722Y-107484667D01*
X159387723Y-107484668D01*
X159387724Y-107484669D01*
X159478331Y-107575276D01*
X159478333Y-107575277D01*
X159481181Y-107578125D01*
X159514666Y-107639448D01*
X159517500Y-107665807D01*
X159517500Y-112316192D01*
X159497815Y-112383231D01*
X159481181Y-112403873D01*
X159387726Y-112497327D01*
X159387723Y-112497331D01*
X159316538Y-112603866D01*
X159316533Y-112603875D01*
X159267499Y-112722255D01*
X159267497Y-112722261D01*
X159242500Y-112847928D01*
X159242500Y-112847931D01*
X159242500Y-112976069D01*
X159242500Y-112976071D01*
X159242499Y-112976071D01*
X159267497Y-113101738D01*
X159267499Y-113101744D01*
X159316533Y-113220124D01*
X159316538Y-113220133D01*
X159387720Y-113326664D01*
X159389351Y-113328651D01*
X159389879Y-113329895D01*
X159391108Y-113331734D01*
X159390759Y-113331966D01*
X159416666Y-113392960D01*
X159417500Y-113407319D01*
X159417500Y-115897399D01*
X159417500Y-116022601D01*
X159449905Y-116143536D01*
X159512504Y-116251962D01*
X159512506Y-116251965D01*
X165985181Y-122724640D01*
X166018666Y-122785963D01*
X166021500Y-122812321D01*
X166021500Y-125729411D01*
X166001815Y-125796450D01*
X165949011Y-125842205D01*
X165879853Y-125852149D01*
X165816297Y-125823124D01*
X165794398Y-125798302D01*
X165732276Y-125705331D01*
X165732273Y-125705327D01*
X165641672Y-125614726D01*
X165641668Y-125614723D01*
X165535133Y-125543538D01*
X165535124Y-125543533D01*
X165416744Y-125494499D01*
X165416738Y-125494497D01*
X165291071Y-125469500D01*
X165291069Y-125469500D01*
X165162931Y-125469500D01*
X165162929Y-125469500D01*
X165037261Y-125494497D01*
X165037255Y-125494499D01*
X164918875Y-125543533D01*
X164918866Y-125543538D01*
X164812331Y-125614723D01*
X164812327Y-125614726D01*
X164718873Y-125708181D01*
X164657550Y-125741666D01*
X164631192Y-125744500D01*
X136985899Y-125744500D01*
X136918860Y-125724815D01*
X136898218Y-125708181D01*
X135653435Y-124463398D01*
X135619950Y-124402075D01*
X135624934Y-124332383D01*
X135666806Y-124276450D01*
X135697781Y-124259536D01*
X135804331Y-124219796D01*
X135919546Y-124133546D01*
X136005796Y-124018331D01*
X136056091Y-123883483D01*
X136062500Y-123823873D01*
X136062499Y-122828135D01*
X136461500Y-122828135D01*
X136461500Y-123823870D01*
X136461501Y-123823876D01*
X136467908Y-123883483D01*
X136518202Y-124018328D01*
X136518206Y-124018335D01*
X136604452Y-124133544D01*
X136604455Y-124133547D01*
X136719664Y-124219793D01*
X136719671Y-124219797D01*
X136745132Y-124229293D01*
X136854517Y-124270091D01*
X136914127Y-124276500D01*
X137659872Y-124276499D01*
X137719483Y-124270091D01*
X137854331Y-124219796D01*
X137969546Y-124133546D01*
X138055796Y-124018331D01*
X138106091Y-123883483D01*
X138106090Y-123883483D01*
X138106582Y-123882167D01*
X138148453Y-123826233D01*
X138213917Y-123801816D01*
X138222764Y-123801500D01*
X138621271Y-123801500D01*
X138688310Y-123821185D01*
X138734065Y-123873989D01*
X138744561Y-123912247D01*
X138744908Y-123915483D01*
X138795202Y-124050328D01*
X138795206Y-124050335D01*
X138881452Y-124165544D01*
X138881455Y-124165547D01*
X138996664Y-124251793D01*
X138996671Y-124251797D01*
X139131517Y-124302091D01*
X139131516Y-124302091D01*
X139138444Y-124302835D01*
X139191127Y-124308500D01*
X139986872Y-124308499D01*
X140046483Y-124302091D01*
X140181331Y-124251796D01*
X140296546Y-124165546D01*
X140342502Y-124104156D01*
X140398434Y-124062287D01*
X140468125Y-124057303D01*
X140529448Y-124090788D01*
X140550665Y-124121089D01*
X140550851Y-124120975D01*
X140552819Y-124124166D01*
X140554151Y-124126068D01*
X140554642Y-124127121D01*
X140646684Y-124276345D01*
X140770654Y-124400315D01*
X140919875Y-124492356D01*
X140919880Y-124492358D01*
X141086302Y-124547505D01*
X141086309Y-124547506D01*
X141189019Y-124557999D01*
X141338999Y-124557999D01*
X141839000Y-124557999D01*
X141988972Y-124557999D01*
X141988986Y-124557998D01*
X142091697Y-124547505D01*
X142258119Y-124492358D01*
X142258124Y-124492356D01*
X142407345Y-124400315D01*
X142531315Y-124276345D01*
X142623356Y-124127124D01*
X142623358Y-124127119D01*
X142678505Y-123960697D01*
X142678506Y-123960690D01*
X142688999Y-123857986D01*
X142689000Y-123857973D01*
X142689000Y-123608000D01*
X141839000Y-123608000D01*
X141839000Y-124557999D01*
X141338999Y-124557999D01*
X141339000Y-124557998D01*
X141339000Y-123108000D01*
X141839000Y-123108000D01*
X142688999Y-123108000D01*
X142688999Y-122858028D01*
X142688998Y-122858013D01*
X142678505Y-122755302D01*
X142623358Y-122588880D01*
X142623356Y-122588875D01*
X142531315Y-122439654D01*
X142407345Y-122315684D01*
X142258124Y-122223643D01*
X142258119Y-122223641D01*
X142091697Y-122168494D01*
X142091690Y-122168493D01*
X141988986Y-122158000D01*
X141839000Y-122158000D01*
X141839000Y-123108000D01*
X141339000Y-123108000D01*
X141339000Y-122158000D01*
X141189027Y-122158000D01*
X141189012Y-122158001D01*
X141086302Y-122168494D01*
X140919880Y-122223641D01*
X140919875Y-122223643D01*
X140770654Y-122315684D01*
X140646684Y-122439654D01*
X140554637Y-122588885D01*
X140554148Y-122589936D01*
X140553620Y-122590535D01*
X140550851Y-122595025D01*
X140550083Y-122594551D01*
X140507975Y-122642375D01*
X140440782Y-122661526D01*
X140373901Y-122641309D01*
X140342501Y-122611841D01*
X140296547Y-122550455D01*
X140296544Y-122550452D01*
X140181335Y-122464206D01*
X140181328Y-122464202D01*
X140046482Y-122413908D01*
X140046483Y-122413908D01*
X139986883Y-122407501D01*
X139986881Y-122407500D01*
X139986873Y-122407500D01*
X139986864Y-122407500D01*
X139191129Y-122407500D01*
X139191123Y-122407501D01*
X139131516Y-122413908D01*
X138996671Y-122464202D01*
X138996664Y-122464206D01*
X138881455Y-122550452D01*
X138881452Y-122550455D01*
X138795206Y-122665664D01*
X138795202Y-122665671D01*
X138756353Y-122769833D01*
X138714482Y-122825767D01*
X138649018Y-122850184D01*
X138640171Y-122850500D01*
X138222764Y-122850500D01*
X138155725Y-122830815D01*
X138109970Y-122778011D01*
X138106582Y-122769833D01*
X138055797Y-122633671D01*
X138055793Y-122633664D01*
X137969547Y-122518455D01*
X137969544Y-122518452D01*
X137854335Y-122432206D01*
X137854328Y-122432202D01*
X137719486Y-122381910D01*
X137719485Y-122381909D01*
X137719483Y-122381909D01*
X137659873Y-122375500D01*
X137659863Y-122375500D01*
X136914129Y-122375500D01*
X136914123Y-122375501D01*
X136854516Y-122381908D01*
X136719671Y-122432202D01*
X136719664Y-122432206D01*
X136604455Y-122518452D01*
X136604452Y-122518455D01*
X136518206Y-122633664D01*
X136518202Y-122633671D01*
X136467908Y-122768517D01*
X136461501Y-122828116D01*
X136461500Y-122828135D01*
X136062499Y-122828135D01*
X136062499Y-122828128D01*
X136057112Y-122778011D01*
X136056091Y-122768516D01*
X136005797Y-122633671D01*
X136005793Y-122633664D01*
X135919547Y-122518455D01*
X135919544Y-122518452D01*
X135804335Y-122432206D01*
X135804328Y-122432202D01*
X135669486Y-122381910D01*
X135669485Y-122381909D01*
X135669483Y-122381909D01*
X135609873Y-122375500D01*
X135609863Y-122375500D01*
X134864129Y-122375500D01*
X134864123Y-122375501D01*
X134804516Y-122381908D01*
X134669671Y-122432202D01*
X134669664Y-122432206D01*
X134554455Y-122518452D01*
X134554452Y-122518455D01*
X134468206Y-122633664D01*
X134468202Y-122633671D01*
X134417908Y-122768517D01*
X134411501Y-122828116D01*
X134411500Y-122828135D01*
X134411500Y-122898880D01*
X134404069Y-122924185D01*
X134400337Y-122950299D01*
X134394379Y-122957185D01*
X134391815Y-122965919D01*
X134371884Y-122983189D01*
X134354625Y-123003140D01*
X134345891Y-123005712D01*
X134339011Y-123011674D01*
X134312904Y-123015427D01*
X134287602Y-123022880D01*
X134278864Y-123020322D01*
X134269853Y-123021618D01*
X134245857Y-123010659D01*
X134220546Y-123003250D01*
X134214579Y-122996375D01*
X134206297Y-122992593D01*
X134192036Y-122970402D01*
X134174748Y-122950484D01*
X134170951Y-122937594D01*
X134168523Y-122933815D01*
X134164777Y-122916628D01*
X134152367Y-122830815D01*
X134134565Y-122707716D01*
X134134337Y-122706063D01*
X134127967Y-122657359D01*
X134039127Y-121978105D01*
X134038948Y-121976665D01*
X133952061Y-121235454D01*
X133951914Y-121234121D01*
X133873503Y-120479543D01*
X133873371Y-120478182D01*
X133803596Y-119710179D01*
X133803481Y-119708820D01*
X133742486Y-118927083D01*
X133742379Y-118925580D01*
X133726257Y-118679181D01*
X133690333Y-118130127D01*
X133690243Y-118128610D01*
X133679595Y-117927931D01*
X133647286Y-117319029D01*
X133647219Y-117317582D01*
X133613514Y-116493634D01*
X133613467Y-116492310D01*
X133589192Y-115654240D01*
X133589159Y-115652799D01*
X133586778Y-115514601D01*
X133574458Y-114799474D01*
X133574445Y-114798298D01*
X133569510Y-113930407D01*
X133569510Y-113929312D01*
X133576542Y-112600061D01*
X133576550Y-112599187D01*
X133576660Y-112590594D01*
X133593383Y-111287673D01*
X133593399Y-111286783D01*
X133593399Y-111286782D01*
X133619891Y-109993638D01*
X133619902Y-109993199D01*
X133655916Y-108718353D01*
X133655945Y-108717476D01*
X133655946Y-108717474D01*
X133701326Y-107461232D01*
X133701362Y-107460334D01*
X133702614Y-107431952D01*
X133755997Y-106221865D01*
X133756023Y-106221329D01*
X133819765Y-105000772D01*
X133819796Y-105000223D01*
X133892510Y-103797422D01*
X133892571Y-103796499D01*
X133974126Y-102611285D01*
X133974169Y-102610690D01*
X134064414Y-101443091D01*
X134064464Y-101442477D01*
X134163317Y-100291752D01*
X134163411Y-100290722D01*
X134171875Y-100201305D01*
X134270633Y-99157923D01*
X134270735Y-99156891D01*
X134270736Y-99156881D01*
X134386350Y-98040243D01*
X134386458Y-98039246D01*
X134391120Y-97997838D01*
X134510193Y-96940018D01*
X134510316Y-96938980D01*
X134642165Y-95855918D01*
X134642257Y-95855189D01*
X134782002Y-94788906D01*
X134782156Y-94787777D01*
X134810159Y-94588513D01*
X134929751Y-93737528D01*
X134929912Y-93736423D01*
X134941658Y-93658207D01*
X135085130Y-92702776D01*
X135085306Y-92701645D01*
X135119777Y-92486147D01*
X135248163Y-91683537D01*
X135248350Y-91682402D01*
X135275936Y-91520054D01*
X135418553Y-90680737D01*
X135418752Y-90679603D01*
X135438037Y-90572498D01*
X135596456Y-89692655D01*
X135596670Y-89691507D01*
X135597084Y-89689334D01*
X135781416Y-88721032D01*
X135781597Y-88720103D01*
X135960841Y-87827702D01*
X135993342Y-87765854D01*
X136054122Y-87731393D01*
X136123884Y-87735264D01*
X136180480Y-87776236D01*
X136199982Y-87824674D01*
X136203124Y-87823932D01*
X136204907Y-87831479D01*
X136255202Y-87966328D01*
X136255203Y-87966329D01*
X136255204Y-87966331D01*
X136341454Y-88081546D01*
X136353812Y-88090797D01*
X136395681Y-88146726D01*
X136403500Y-88190062D01*
X136403500Y-88948192D01*
X136383815Y-89015231D01*
X136367181Y-89035873D01*
X136273726Y-89129327D01*
X136273723Y-89129331D01*
X136202538Y-89235866D01*
X136202533Y-89235875D01*
X136153499Y-89354255D01*
X136153497Y-89354261D01*
X136128500Y-89479928D01*
X136128500Y-89479931D01*
X136128500Y-89608069D01*
X136128500Y-89608071D01*
X136128499Y-89608071D01*
X136153497Y-89733738D01*
X136153499Y-89733744D01*
X136202533Y-89852124D01*
X136202538Y-89852133D01*
X136273723Y-89958668D01*
X136273726Y-89958672D01*
X136364327Y-90049273D01*
X136364331Y-90049276D01*
X136470866Y-90120461D01*
X136470872Y-90120464D01*
X136470873Y-90120465D01*
X136589256Y-90169501D01*
X136589260Y-90169501D01*
X136589261Y-90169502D01*
X136714928Y-90194500D01*
X136714931Y-90194500D01*
X136843071Y-90194500D01*
X136927615Y-90177682D01*
X136968744Y-90169501D01*
X137087127Y-90120465D01*
X137193669Y-90049276D01*
X137284276Y-89958669D01*
X137355465Y-89852127D01*
X137404501Y-89733744D01*
X137418871Y-89661502D01*
X137429500Y-89608071D01*
X137429500Y-89479928D01*
X137404502Y-89354261D01*
X137404501Y-89354260D01*
X137404501Y-89354256D01*
X137355465Y-89235873D01*
X137355464Y-89235872D01*
X137355461Y-89235866D01*
X137284276Y-89129331D01*
X137284273Y-89129327D01*
X137190819Y-89035873D01*
X137157334Y-88974550D01*
X137154500Y-88948192D01*
X137154500Y-88348499D01*
X137174185Y-88281460D01*
X137226989Y-88235705D01*
X137278500Y-88224499D01*
X137396871Y-88224499D01*
X137396872Y-88224499D01*
X137456483Y-88218091D01*
X137591331Y-88167796D01*
X137706546Y-88081546D01*
X137792796Y-87966331D01*
X137843091Y-87831483D01*
X137849500Y-87771873D01*
X137849499Y-86776135D01*
X138248500Y-86776135D01*
X138248500Y-87771870D01*
X138248501Y-87771876D01*
X138254908Y-87831483D01*
X138305202Y-87966328D01*
X138305206Y-87966335D01*
X138391452Y-88081544D01*
X138391455Y-88081547D01*
X138506664Y-88167793D01*
X138506671Y-88167797D01*
X138529590Y-88176345D01*
X138641517Y-88218091D01*
X138701127Y-88224500D01*
X139446872Y-88224499D01*
X139506483Y-88218091D01*
X139641331Y-88167796D01*
X139756546Y-88081546D01*
X139842796Y-87966331D01*
X139893091Y-87831483D01*
X139893090Y-87831483D01*
X139893582Y-87830167D01*
X139906851Y-87812440D01*
X139916051Y-87792297D01*
X139927381Y-87785015D01*
X139935453Y-87774233D01*
X139956201Y-87766494D01*
X139974829Y-87754523D01*
X139996745Y-87751371D01*
X140000917Y-87749816D01*
X140009764Y-87749500D01*
X140158204Y-87749500D01*
X140225243Y-87769185D01*
X140270998Y-87821989D01*
X140274386Y-87830167D01*
X140319202Y-87950328D01*
X140319206Y-87950335D01*
X140405452Y-88065544D01*
X140405455Y-88065547D01*
X140520664Y-88151793D01*
X140520671Y-88151797D01*
X140655517Y-88202091D01*
X140655516Y-88202091D01*
X140662444Y-88202835D01*
X140715127Y-88208500D01*
X141510872Y-88208499D01*
X141570483Y-88202091D01*
X141705331Y-88151796D01*
X141820546Y-88065546D01*
X141866502Y-88004156D01*
X141922434Y-87962287D01*
X141992125Y-87957303D01*
X142053448Y-87990788D01*
X142074665Y-88021089D01*
X142074851Y-88020975D01*
X142076819Y-88024166D01*
X142078151Y-88026068D01*
X142078642Y-88027121D01*
X142170684Y-88176345D01*
X142294654Y-88300315D01*
X142443875Y-88392356D01*
X142443880Y-88392358D01*
X142610302Y-88447505D01*
X142610309Y-88447506D01*
X142713019Y-88457999D01*
X142862999Y-88457999D01*
X143363000Y-88457999D01*
X143512972Y-88457999D01*
X143512986Y-88457998D01*
X143615697Y-88447505D01*
X143782119Y-88392358D01*
X143782124Y-88392356D01*
X143931345Y-88300315D01*
X144055315Y-88176345D01*
X144147356Y-88027124D01*
X144147358Y-88027119D01*
X144202505Y-87860697D01*
X144202506Y-87860690D01*
X144212999Y-87757986D01*
X144213000Y-87757973D01*
X144213000Y-87508000D01*
X143363000Y-87508000D01*
X143363000Y-88457999D01*
X142862999Y-88457999D01*
X142863000Y-88457998D01*
X142863000Y-87008000D01*
X143363000Y-87008000D01*
X144212999Y-87008000D01*
X144212999Y-86758028D01*
X144212998Y-86758013D01*
X144202505Y-86655302D01*
X144147358Y-86488880D01*
X144147356Y-86488875D01*
X144055315Y-86339654D01*
X143931345Y-86215684D01*
X143782124Y-86123643D01*
X143782119Y-86123641D01*
X143615697Y-86068494D01*
X143615690Y-86068493D01*
X143512986Y-86058000D01*
X143363000Y-86058000D01*
X143363000Y-87008000D01*
X142863000Y-87008000D01*
X142863000Y-86058000D01*
X142713027Y-86058000D01*
X142713012Y-86058001D01*
X142610302Y-86068494D01*
X142443880Y-86123641D01*
X142443875Y-86123643D01*
X142294654Y-86215684D01*
X142170684Y-86339654D01*
X142078637Y-86488885D01*
X142078148Y-86489936D01*
X142077620Y-86490535D01*
X142074851Y-86495025D01*
X142074083Y-86494551D01*
X142031975Y-86542375D01*
X141964782Y-86561526D01*
X141897901Y-86541309D01*
X141866501Y-86511841D01*
X141820547Y-86450455D01*
X141820544Y-86450452D01*
X141705335Y-86364206D01*
X141705328Y-86364202D01*
X141570482Y-86313908D01*
X141570483Y-86313908D01*
X141510883Y-86307501D01*
X141510881Y-86307500D01*
X141510873Y-86307500D01*
X141510864Y-86307500D01*
X140715129Y-86307500D01*
X140715123Y-86307501D01*
X140655516Y-86313908D01*
X140520671Y-86364202D01*
X140520664Y-86364206D01*
X140405455Y-86450452D01*
X140405452Y-86450455D01*
X140319206Y-86565664D01*
X140319202Y-86565671D01*
X140268910Y-86700511D01*
X140268320Y-86703012D01*
X140267329Y-86704752D01*
X140266198Y-86707785D01*
X140265706Y-86707601D01*
X140253660Y-86728757D01*
X140241355Y-86755703D01*
X140236565Y-86758781D01*
X140233748Y-86763729D01*
X140207499Y-86777460D01*
X140182577Y-86793477D01*
X140174724Y-86794606D01*
X140171838Y-86796116D01*
X140147642Y-86798500D01*
X140009764Y-86798500D01*
X139942725Y-86778815D01*
X139896970Y-86726011D01*
X139893582Y-86717833D01*
X139842797Y-86581671D01*
X139842793Y-86581664D01*
X139756547Y-86466455D01*
X139756544Y-86466452D01*
X139641335Y-86380206D01*
X139641328Y-86380202D01*
X139506486Y-86329910D01*
X139506485Y-86329909D01*
X139506483Y-86329909D01*
X139446873Y-86323500D01*
X139446863Y-86323500D01*
X138701129Y-86323500D01*
X138701123Y-86323501D01*
X138641516Y-86329908D01*
X138506671Y-86380202D01*
X138506664Y-86380206D01*
X138391455Y-86466452D01*
X138391452Y-86466455D01*
X138305206Y-86581664D01*
X138305202Y-86581671D01*
X138254908Y-86716517D01*
X138248501Y-86776116D01*
X138248500Y-86776135D01*
X137849499Y-86776135D01*
X137849499Y-86776128D01*
X137844112Y-86726011D01*
X137843091Y-86716516D01*
X137792797Y-86581671D01*
X137792793Y-86581664D01*
X137706547Y-86466455D01*
X137706544Y-86466452D01*
X137591335Y-86380206D01*
X137591328Y-86380202D01*
X137456486Y-86329910D01*
X137456485Y-86329909D01*
X137456483Y-86329909D01*
X137396873Y-86323500D01*
X137396863Y-86323500D01*
X136651129Y-86323500D01*
X136651123Y-86323501D01*
X136591515Y-86329909D01*
X136468333Y-86375852D01*
X136398642Y-86380836D01*
X136337319Y-86347350D01*
X136303834Y-86286027D01*
X136303958Y-86232752D01*
X136378894Y-85895826D01*
X136379103Y-85894912D01*
X136591543Y-84985045D01*
X136591834Y-84983829D01*
X136811207Y-84087563D01*
X136811457Y-84086564D01*
X137037118Y-83205955D01*
X137037389Y-83204921D01*
X137269831Y-82337490D01*
X137270113Y-82336462D01*
X137508496Y-81484807D01*
X137508812Y-81483701D01*
X137753870Y-80644687D01*
X137754161Y-80643712D01*
X138004917Y-79820190D01*
X138005258Y-79819094D01*
X138262502Y-79008013D01*
X138262849Y-79006940D01*
X138525525Y-78211167D01*
X138525981Y-78209814D01*
X138525989Y-78209791D01*
X138794966Y-77426245D01*
X138795405Y-77424991D01*
X139069621Y-76656360D01*
X139070121Y-76654985D01*
X139173625Y-76375640D01*
X139350548Y-75898145D01*
X139351007Y-75896929D01*
X139636434Y-75154765D01*
X139636929Y-75153504D01*
X139928515Y-74422653D01*
X139929000Y-74421459D01*
X140225249Y-73705306D01*
X140225742Y-73704137D01*
X140528055Y-72998959D01*
X140528686Y-72997515D01*
X140653823Y-72715738D01*
X140835356Y-72306969D01*
X140836003Y-72305538D01*
X140914194Y-72135502D01*
X141148654Y-71625639D01*
X141149255Y-71624353D01*
X141466142Y-70958604D01*
X141466764Y-70957320D01*
X141789632Y-70301775D01*
X141790252Y-70300536D01*
X142116969Y-69659240D01*
X142117633Y-69657958D01*
X142450268Y-69026579D01*
X142450964Y-69025281D01*
X142786072Y-68410027D01*
X142787340Y-68407757D01*
X142810491Y-68367302D01*
X143475836Y-67204632D01*
X143477579Y-67201684D01*
X144183191Y-66046614D01*
X144185113Y-66043569D01*
X144185114Y-66043568D01*
X144908356Y-64933846D01*
X144910382Y-64930837D01*
X145650777Y-63865578D01*
X145652927Y-63862582D01*
X146410029Y-62840932D01*
X146412276Y-62837996D01*
X147185608Y-61859222D01*
X147188029Y-61856256D01*
X147977017Y-60919799D01*
X147979561Y-60916875D01*
X148783926Y-60021889D01*
X148786627Y-60018981D01*
X149605777Y-59165025D01*
X149608640Y-59162139D01*
X150442180Y-58348619D01*
X150445106Y-58345857D01*
X151292579Y-57572285D01*
X151295691Y-57569539D01*
X152156542Y-56835558D01*
X152159733Y-56832930D01*
X153033420Y-56138202D01*
X153036775Y-56135627D01*
X153922668Y-55479904D01*
X153926084Y-55477467D01*
X154823405Y-54860620D01*
X154826971Y-54858260D01*
X155734850Y-54280217D01*
X155738497Y-54277985D01*
X156653556Y-53740135D01*
X158042500Y-53740135D01*
X158042500Y-54735870D01*
X158042501Y-54735876D01*
X158048908Y-54795483D01*
X158099202Y-54930328D01*
X158099206Y-54930335D01*
X158185452Y-55045544D01*
X158185455Y-55045547D01*
X158300664Y-55131793D01*
X158300671Y-55131797D01*
X158300674Y-55131798D01*
X158420833Y-55176614D01*
X158476766Y-55218485D01*
X158501184Y-55283949D01*
X158501500Y-55292796D01*
X158501500Y-55674192D01*
X158481815Y-55741231D01*
X158465181Y-55761873D01*
X158371726Y-55855327D01*
X158371723Y-55855331D01*
X158300538Y-55961866D01*
X158300533Y-55961875D01*
X158251499Y-56080255D01*
X158251497Y-56080261D01*
X158226500Y-56205928D01*
X158226500Y-56205931D01*
X158226500Y-56334069D01*
X158226500Y-56334071D01*
X158226499Y-56334071D01*
X158251497Y-56459738D01*
X158251499Y-56459744D01*
X158300533Y-56578124D01*
X158300538Y-56578133D01*
X158371723Y-56684668D01*
X158371726Y-56684672D01*
X158462327Y-56775273D01*
X158462331Y-56775276D01*
X158568866Y-56846461D01*
X158568872Y-56846464D01*
X158568873Y-56846465D01*
X158687256Y-56895501D01*
X158687260Y-56895501D01*
X158687261Y-56895502D01*
X158812928Y-56920500D01*
X158812931Y-56920500D01*
X158941071Y-56920500D01*
X159025615Y-56903682D01*
X159066744Y-56895501D01*
X159185127Y-56846465D01*
X159291669Y-56775276D01*
X159382276Y-56684669D01*
X159453465Y-56578127D01*
X159502501Y-56459744D01*
X159511205Y-56415986D01*
X162004001Y-56415986D01*
X162014494Y-56518697D01*
X162069641Y-56685119D01*
X162069643Y-56685124D01*
X162161684Y-56834345D01*
X162285654Y-56958315D01*
X162434875Y-57050356D01*
X162434880Y-57050358D01*
X162601302Y-57105505D01*
X162601309Y-57105506D01*
X162704019Y-57115999D01*
X162953999Y-57115999D01*
X163454000Y-57115999D01*
X163703972Y-57115999D01*
X163703986Y-57115998D01*
X163806697Y-57105505D01*
X163973119Y-57050358D01*
X163973124Y-57050356D01*
X164122345Y-56958315D01*
X164246315Y-56834345D01*
X164338356Y-56685124D01*
X164338358Y-56685119D01*
X164393505Y-56518697D01*
X164393506Y-56518690D01*
X164403999Y-56415986D01*
X164404000Y-56415973D01*
X164404000Y-56266000D01*
X163454000Y-56266000D01*
X163454000Y-57115999D01*
X162953999Y-57115999D01*
X162954000Y-57115998D01*
X162954000Y-56266000D01*
X162004001Y-56266000D01*
X162004001Y-56415986D01*
X159511205Y-56415986D01*
X159527500Y-56334069D01*
X159527500Y-56205931D01*
X159527500Y-56205928D01*
X159502502Y-56080261D01*
X159502501Y-56080260D01*
X159502501Y-56080256D01*
X159453465Y-55961873D01*
X159453464Y-55961872D01*
X159453461Y-55961866D01*
X159382276Y-55855331D01*
X159382273Y-55855327D01*
X159288819Y-55761873D01*
X159255334Y-55700550D01*
X159252500Y-55674192D01*
X159252500Y-55286082D01*
X159272185Y-55219043D01*
X159324989Y-55173288D01*
X159333160Y-55169902D01*
X159435331Y-55131796D01*
X159550546Y-55045546D01*
X159636796Y-54930331D01*
X159687091Y-54795483D01*
X159693500Y-54735873D01*
X159693499Y-53740135D01*
X160092500Y-53740135D01*
X160092500Y-54735870D01*
X160092501Y-54735876D01*
X160098908Y-54795483D01*
X160149202Y-54930328D01*
X160149206Y-54930335D01*
X160235452Y-55045544D01*
X160235455Y-55045547D01*
X160350664Y-55131793D01*
X160350671Y-55131797D01*
X160350674Y-55131798D01*
X160485517Y-55182091D01*
X160545127Y-55188500D01*
X161290872Y-55188499D01*
X161350483Y-55182091D01*
X161485331Y-55131796D01*
X161600546Y-55045546D01*
X161686796Y-54930331D01*
X161731753Y-54809796D01*
X161737582Y-54794167D01*
X161779453Y-54738233D01*
X161844917Y-54713816D01*
X161853764Y-54713500D01*
X162341762Y-54713500D01*
X162363007Y-54719738D01*
X162385095Y-54721318D01*
X162404531Y-54731931D01*
X162408801Y-54733185D01*
X162416072Y-54738233D01*
X162457840Y-54769500D01*
X162499712Y-54825433D01*
X162504696Y-54895125D01*
X162471211Y-54956448D01*
X162440910Y-54977664D01*
X162441025Y-54977851D01*
X162437831Y-54979820D01*
X162435936Y-54981148D01*
X162434885Y-54981637D01*
X162285654Y-55073684D01*
X162161684Y-55197654D01*
X162069643Y-55346875D01*
X162069641Y-55346880D01*
X162014494Y-55513302D01*
X162014493Y-55513309D01*
X162004000Y-55616013D01*
X162004000Y-55766000D01*
X164403999Y-55766000D01*
X164403999Y-55616028D01*
X164403998Y-55616013D01*
X164393505Y-55513302D01*
X164338358Y-55346880D01*
X164338356Y-55346875D01*
X164246315Y-55197654D01*
X164122345Y-55073684D01*
X163973121Y-54981642D01*
X163972068Y-54981151D01*
X163971466Y-54980621D01*
X163966975Y-54977851D01*
X163967448Y-54977083D01*
X163919627Y-54934981D01*
X163900473Y-54867788D01*
X163920686Y-54800906D01*
X163950154Y-54769503D01*
X164011546Y-54723546D01*
X164097796Y-54608331D01*
X164148091Y-54473483D01*
X164154500Y-54413873D01*
X164154499Y-53618128D01*
X164148091Y-53558517D01*
X164143297Y-53545664D01*
X164097797Y-53423671D01*
X164097793Y-53423664D01*
X164011547Y-53308455D01*
X164011544Y-53308452D01*
X163896335Y-53222206D01*
X163896328Y-53222202D01*
X163761482Y-53171908D01*
X163761483Y-53171908D01*
X163701883Y-53165501D01*
X163701881Y-53165500D01*
X163701873Y-53165500D01*
X163701864Y-53165500D01*
X162706129Y-53165500D01*
X162706123Y-53165501D01*
X162646516Y-53171908D01*
X162511671Y-53222202D01*
X162511664Y-53222206D01*
X162396455Y-53308452D01*
X162396452Y-53308455D01*
X162310206Y-53423664D01*
X162310202Y-53423671D01*
X162259908Y-53558517D01*
X162253501Y-53618116D01*
X162253501Y-53618123D01*
X162253500Y-53618135D01*
X162253500Y-53638500D01*
X162233815Y-53705539D01*
X162181011Y-53751294D01*
X162129500Y-53762500D01*
X161853764Y-53762500D01*
X161786725Y-53742815D01*
X161740970Y-53690011D01*
X161737582Y-53681833D01*
X161686797Y-53545671D01*
X161686793Y-53545664D01*
X161600547Y-53430455D01*
X161600544Y-53430452D01*
X161485335Y-53344206D01*
X161485328Y-53344202D01*
X161350486Y-53293910D01*
X161350485Y-53293909D01*
X161350483Y-53293909D01*
X161290873Y-53287500D01*
X161290863Y-53287500D01*
X160545129Y-53287500D01*
X160545123Y-53287501D01*
X160485516Y-53293908D01*
X160350671Y-53344202D01*
X160350664Y-53344206D01*
X160235455Y-53430452D01*
X160235452Y-53430455D01*
X160149206Y-53545664D01*
X160149202Y-53545671D01*
X160098908Y-53680517D01*
X160092501Y-53740116D01*
X160092500Y-53740135D01*
X159693499Y-53740135D01*
X159693499Y-53740128D01*
X159688112Y-53690011D01*
X159687091Y-53680516D01*
X159636797Y-53545671D01*
X159636793Y-53545664D01*
X159550547Y-53430455D01*
X159550544Y-53430452D01*
X159435335Y-53344206D01*
X159435328Y-53344202D01*
X159300486Y-53293910D01*
X159300485Y-53293909D01*
X159300483Y-53293909D01*
X159240873Y-53287500D01*
X159240863Y-53287500D01*
X158495129Y-53287500D01*
X158495123Y-53287501D01*
X158435516Y-53293908D01*
X158300671Y-53344202D01*
X158300664Y-53344206D01*
X158185455Y-53430452D01*
X158185452Y-53430455D01*
X158099206Y-53545664D01*
X158099202Y-53545671D01*
X158048908Y-53680517D01*
X158042501Y-53740116D01*
X158042500Y-53740135D01*
X156653556Y-53740135D01*
X156655837Y-53738794D01*
X156659668Y-53736635D01*
X157585119Y-53236446D01*
X157589040Y-53234417D01*
X158521124Y-52773380D01*
X158525102Y-52771503D01*
X159461574Y-52350048D01*
X159465718Y-52348273D01*
X160404055Y-51966799D01*
X160408219Y-51965195D01*
X161344917Y-51624289D01*
X161349270Y-51622797D01*
X162279597Y-51323190D01*
X162284035Y-51321853D01*
X163201719Y-51064337D01*
X163206323Y-51063139D01*
X164102442Y-50848622D01*
X164107182Y-50847586D01*
X164968364Y-50677087D01*
X164973328Y-50676209D01*
X165603398Y-50577977D01*
X165672670Y-50587100D01*
G37*
G04 #@! TD.AperFunction*
G04 #@! TA.AperFunction,Conductor*
G36*
X173092362Y-118290339D02*
G01*
X173129082Y-118349782D01*
X173133500Y-118382588D01*
X173133500Y-122569678D01*
X173113815Y-122636717D01*
X173097181Y-122657359D01*
X170902680Y-124851860D01*
X170841357Y-124885345D01*
X170771665Y-124880361D01*
X170727318Y-124851860D01*
X164554640Y-118679181D01*
X164521155Y-118617858D01*
X164526139Y-118548166D01*
X164568011Y-118492233D01*
X164633475Y-118467816D01*
X164642321Y-118467500D01*
X171843680Y-118467500D01*
X171910719Y-118487185D01*
X171922341Y-118495644D01*
X171924326Y-118497273D01*
X172030866Y-118568461D01*
X172030872Y-118568464D01*
X172030873Y-118568465D01*
X172149256Y-118617501D01*
X172149260Y-118617501D01*
X172149261Y-118617502D01*
X172274928Y-118642500D01*
X172274931Y-118642500D01*
X172403071Y-118642500D01*
X172487615Y-118625682D01*
X172528744Y-118617501D01*
X172647127Y-118568465D01*
X172753669Y-118497276D01*
X172844276Y-118406669D01*
X172906398Y-118313697D01*
X172960010Y-118268892D01*
X173029335Y-118260185D01*
X173092362Y-118290339D01*
G37*
G04 #@! TD.AperFunction*
G04 #@! TA.AperFunction,Conductor*
G36*
X169674703Y-97273410D02*
G01*
X169700887Y-97305123D01*
X169738513Y-97370293D01*
X169752527Y-97394565D01*
X173197181Y-100839218D01*
X173230666Y-100900541D01*
X173233500Y-100926899D01*
X173233500Y-105458192D01*
X173213815Y-105525231D01*
X173197181Y-105545873D01*
X173103726Y-105639327D01*
X173103723Y-105639331D01*
X173032538Y-105745866D01*
X173032533Y-105745875D01*
X172983499Y-105864255D01*
X172983497Y-105864261D01*
X172958500Y-105989928D01*
X172958500Y-105989931D01*
X172958500Y-106118069D01*
X172958500Y-106118071D01*
X172958499Y-106118071D01*
X172983497Y-106243738D01*
X172983499Y-106243744D01*
X173032533Y-106362124D01*
X173032538Y-106362133D01*
X173103720Y-106468664D01*
X173105351Y-106470651D01*
X173105879Y-106471895D01*
X173107108Y-106473734D01*
X173106759Y-106473966D01*
X173132666Y-106534960D01*
X173133500Y-106549319D01*
X173133500Y-117601411D01*
X173113815Y-117668450D01*
X173061011Y-117714205D01*
X172991853Y-117724149D01*
X172928297Y-117695124D01*
X172906398Y-117670302D01*
X172844276Y-117577331D01*
X172844273Y-117577327D01*
X172753672Y-117486726D01*
X172753668Y-117486723D01*
X172647133Y-117415538D01*
X172647124Y-117415533D01*
X172528744Y-117366499D01*
X172528738Y-117366497D01*
X172403071Y-117341500D01*
X172403069Y-117341500D01*
X172274931Y-117341500D01*
X172274929Y-117341500D01*
X172149261Y-117366497D01*
X172149255Y-117366499D01*
X172030875Y-117415533D01*
X172030866Y-117415538D01*
X171924326Y-117486726D01*
X171922341Y-117488356D01*
X171921098Y-117488883D01*
X171919266Y-117490108D01*
X171919033Y-117489760D01*
X171858030Y-117515667D01*
X171843680Y-117516500D01*
X169050901Y-117516500D01*
X168983862Y-117496815D01*
X168938107Y-117444011D01*
X168928163Y-117374853D01*
X168957188Y-117311297D01*
X168988901Y-117285113D01*
X168994587Y-117281829D01*
X169045055Y-117252692D01*
X169179163Y-117140163D01*
X169291692Y-117006055D01*
X169379225Y-116854445D01*
X169439101Y-116689938D01*
X169469500Y-116517532D01*
X169469500Y-116430000D01*
X169469500Y-116364108D01*
X169469500Y-113914796D01*
X169489185Y-113847757D01*
X169541989Y-113802002D01*
X169611147Y-113792058D01*
X169617692Y-113793179D01*
X169734929Y-113816500D01*
X169734931Y-113816500D01*
X169863071Y-113816500D01*
X169980308Y-113793179D01*
X169988744Y-113791501D01*
X170107127Y-113742465D01*
X170213669Y-113671276D01*
X170304276Y-113580669D01*
X170375465Y-113474127D01*
X170424501Y-113355744D01*
X170430286Y-113326664D01*
X170439383Y-113280931D01*
X170471768Y-113219020D01*
X170532484Y-113184446D01*
X170602254Y-113188187D01*
X170658925Y-113229053D01*
X170682617Y-113280931D01*
X170697497Y-113355738D01*
X170697499Y-113355744D01*
X170746533Y-113474124D01*
X170746538Y-113474133D01*
X170817723Y-113580668D01*
X170817726Y-113580672D01*
X170908327Y-113671273D01*
X170908331Y-113671276D01*
X171014866Y-113742461D01*
X171014872Y-113742464D01*
X171014873Y-113742465D01*
X171133256Y-113791501D01*
X171133260Y-113791501D01*
X171133261Y-113791502D01*
X171258928Y-113816500D01*
X171258931Y-113816500D01*
X171387071Y-113816500D01*
X171504308Y-113793179D01*
X171512744Y-113791501D01*
X171631127Y-113742465D01*
X171737669Y-113671276D01*
X171828276Y-113580669D01*
X171899465Y-113474127D01*
X171948501Y-113355744D01*
X171964771Y-113273952D01*
X171973500Y-113230071D01*
X171973500Y-113101928D01*
X171948502Y-112976261D01*
X171948501Y-112976260D01*
X171948501Y-112976256D01*
X171899465Y-112857873D01*
X171899464Y-112857872D01*
X171899461Y-112857866D01*
X171828277Y-112751333D01*
X171828276Y-112751331D01*
X171822628Y-112745683D01*
X171789142Y-112684364D01*
X171794123Y-112614672D01*
X171822628Y-112570316D01*
X171828276Y-112564669D01*
X171899465Y-112458127D01*
X171948501Y-112339744D01*
X171960881Y-112277506D01*
X171973500Y-112214071D01*
X171973500Y-112085928D01*
X171948502Y-111960261D01*
X171948501Y-111960260D01*
X171948501Y-111960256D01*
X171899465Y-111841873D01*
X171899464Y-111841872D01*
X171899461Y-111841866D01*
X171828276Y-111735331D01*
X171828273Y-111735327D01*
X171737672Y-111644726D01*
X171737668Y-111644723D01*
X171631133Y-111573538D01*
X171631124Y-111573533D01*
X171512744Y-111524499D01*
X171512738Y-111524497D01*
X171387071Y-111499500D01*
X171387069Y-111499500D01*
X171258931Y-111499500D01*
X171258929Y-111499500D01*
X171133261Y-111524497D01*
X171133255Y-111524499D01*
X171014875Y-111573533D01*
X171014866Y-111573538D01*
X170908331Y-111644723D01*
X170908327Y-111644726D01*
X170817726Y-111735327D01*
X170817723Y-111735331D01*
X170746538Y-111841866D01*
X170746533Y-111841875D01*
X170697499Y-111960255D01*
X170697497Y-111960261D01*
X170682617Y-112035068D01*
X170650232Y-112096979D01*
X170589516Y-112131553D01*
X170519746Y-112127812D01*
X170463074Y-112086946D01*
X170439383Y-112035068D01*
X170424502Y-111960261D01*
X170424501Y-111960260D01*
X170424501Y-111960256D01*
X170375465Y-111841873D01*
X170375464Y-111841872D01*
X170375461Y-111841866D01*
X170304276Y-111735331D01*
X170304273Y-111735327D01*
X170213672Y-111644726D01*
X170213668Y-111644723D01*
X170107133Y-111573538D01*
X170107124Y-111573533D01*
X169988744Y-111524499D01*
X169988738Y-111524497D01*
X169863071Y-111499500D01*
X169863069Y-111499500D01*
X169734931Y-111499500D01*
X169734928Y-111499500D01*
X169617691Y-111522820D01*
X169548100Y-111516593D01*
X169492922Y-111473730D01*
X169469678Y-111407840D01*
X169469500Y-111401203D01*
X169469500Y-110612796D01*
X169489185Y-110545757D01*
X169541989Y-110500002D01*
X169611147Y-110490058D01*
X169617692Y-110491179D01*
X169734929Y-110514500D01*
X169734931Y-110514500D01*
X169863071Y-110514500D01*
X169980308Y-110491179D01*
X169988744Y-110489501D01*
X170107127Y-110440465D01*
X170213669Y-110369276D01*
X170304276Y-110278669D01*
X170375465Y-110172127D01*
X170424501Y-110053744D01*
X170436399Y-109993930D01*
X170439383Y-109978931D01*
X170471768Y-109917020D01*
X170532484Y-109882446D01*
X170602254Y-109886187D01*
X170658925Y-109927053D01*
X170682617Y-109978931D01*
X170697497Y-110053738D01*
X170697499Y-110053744D01*
X170746533Y-110172124D01*
X170746538Y-110172133D01*
X170817723Y-110278668D01*
X170817726Y-110278672D01*
X170908327Y-110369273D01*
X170908331Y-110369276D01*
X171014866Y-110440461D01*
X171014872Y-110440464D01*
X171014873Y-110440465D01*
X171133256Y-110489501D01*
X171133260Y-110489501D01*
X171133261Y-110489502D01*
X171258928Y-110514500D01*
X171258931Y-110514500D01*
X171387071Y-110514500D01*
X171504308Y-110491179D01*
X171512744Y-110489501D01*
X171631127Y-110440465D01*
X171737669Y-110369276D01*
X171828276Y-110278669D01*
X171899465Y-110172127D01*
X171948501Y-110053744D01*
X171960399Y-109993930D01*
X171973500Y-109928071D01*
X171973500Y-109799928D01*
X171948502Y-109674261D01*
X171948501Y-109674260D01*
X171948501Y-109674256D01*
X171899465Y-109555873D01*
X171899464Y-109555872D01*
X171899461Y-109555866D01*
X171828277Y-109449333D01*
X171828276Y-109449331D01*
X171822628Y-109443683D01*
X171789142Y-109382364D01*
X171794123Y-109312672D01*
X171822628Y-109268316D01*
X171828276Y-109262669D01*
X171899465Y-109156127D01*
X171948501Y-109037744D01*
X171965369Y-108952946D01*
X171973500Y-108912071D01*
X171973500Y-108783928D01*
X171948502Y-108658261D01*
X171948501Y-108658260D01*
X171948501Y-108658256D01*
X171899465Y-108539873D01*
X171899464Y-108539872D01*
X171899461Y-108539866D01*
X171828276Y-108433331D01*
X171828273Y-108433327D01*
X171737672Y-108342726D01*
X171737668Y-108342723D01*
X171631133Y-108271538D01*
X171631124Y-108271533D01*
X171512744Y-108222499D01*
X171512738Y-108222497D01*
X171387071Y-108197500D01*
X171387069Y-108197500D01*
X171258931Y-108197500D01*
X171258929Y-108197500D01*
X171133261Y-108222497D01*
X171133255Y-108222499D01*
X171014875Y-108271533D01*
X171014866Y-108271538D01*
X170908331Y-108342723D01*
X170908327Y-108342726D01*
X170817726Y-108433327D01*
X170817723Y-108433331D01*
X170746538Y-108539866D01*
X170746533Y-108539875D01*
X170697499Y-108658255D01*
X170697497Y-108658261D01*
X170682617Y-108733068D01*
X170650232Y-108794979D01*
X170589516Y-108829553D01*
X170519746Y-108825812D01*
X170463074Y-108784946D01*
X170439383Y-108733068D01*
X170424502Y-108658261D01*
X170424501Y-108658260D01*
X170424501Y-108658256D01*
X170375465Y-108539873D01*
X170375464Y-108539872D01*
X170375461Y-108539866D01*
X170304276Y-108433331D01*
X170304273Y-108433327D01*
X170213672Y-108342726D01*
X170213668Y-108342723D01*
X170107133Y-108271538D01*
X170107124Y-108271533D01*
X169988744Y-108222499D01*
X169988738Y-108222497D01*
X169863071Y-108197500D01*
X169863069Y-108197500D01*
X169734931Y-108197500D01*
X169734928Y-108197500D01*
X169617691Y-108220820D01*
X169548100Y-108214593D01*
X169492922Y-108171730D01*
X169469678Y-108105840D01*
X169469500Y-108099203D01*
X169469500Y-107310796D01*
X169489185Y-107243757D01*
X169541989Y-107198002D01*
X169611147Y-107188058D01*
X169617692Y-107189179D01*
X169734929Y-107212500D01*
X169734931Y-107212500D01*
X169863071Y-107212500D01*
X169980308Y-107189179D01*
X169988744Y-107187501D01*
X170107127Y-107138465D01*
X170213669Y-107067276D01*
X170304276Y-106976669D01*
X170375465Y-106870127D01*
X170424501Y-106751744D01*
X170439383Y-106676931D01*
X170471768Y-106615020D01*
X170532484Y-106580446D01*
X170602254Y-106584187D01*
X170658925Y-106625053D01*
X170682617Y-106676931D01*
X170697497Y-106751738D01*
X170697499Y-106751744D01*
X170746533Y-106870124D01*
X170746538Y-106870133D01*
X170817723Y-106976668D01*
X170817726Y-106976672D01*
X170908327Y-107067273D01*
X170908331Y-107067276D01*
X171014866Y-107138461D01*
X171014872Y-107138464D01*
X171014873Y-107138465D01*
X171133256Y-107187501D01*
X171133260Y-107187501D01*
X171133261Y-107187502D01*
X171258928Y-107212500D01*
X171258931Y-107212500D01*
X171387071Y-107212500D01*
X171504308Y-107189179D01*
X171512744Y-107187501D01*
X171631127Y-107138465D01*
X171737669Y-107067276D01*
X171828276Y-106976669D01*
X171899465Y-106870127D01*
X171948501Y-106751744D01*
X171963383Y-106676931D01*
X171973500Y-106626071D01*
X171973500Y-106497928D01*
X171948502Y-106372261D01*
X171948501Y-106372260D01*
X171948501Y-106372256D01*
X171899465Y-106253873D01*
X171899464Y-106253872D01*
X171899461Y-106253866D01*
X171828277Y-106147333D01*
X171828276Y-106147331D01*
X171822628Y-106141683D01*
X171789142Y-106080364D01*
X171794123Y-106010672D01*
X171822628Y-105966316D01*
X171828276Y-105960669D01*
X171899465Y-105854127D01*
X171948501Y-105735744D01*
X171960881Y-105673506D01*
X171973500Y-105610071D01*
X171973500Y-105481928D01*
X171948502Y-105356261D01*
X171948501Y-105356260D01*
X171948501Y-105356256D01*
X171899465Y-105237873D01*
X171899464Y-105237872D01*
X171899461Y-105237866D01*
X171828276Y-105131331D01*
X171828273Y-105131327D01*
X171737672Y-105040726D01*
X171737668Y-105040723D01*
X171631133Y-104969538D01*
X171631124Y-104969533D01*
X171512744Y-104920499D01*
X171512738Y-104920497D01*
X171387071Y-104895500D01*
X171387069Y-104895500D01*
X171258931Y-104895500D01*
X171258929Y-104895500D01*
X171133261Y-104920497D01*
X171133255Y-104920499D01*
X171014875Y-104969533D01*
X171014866Y-104969538D01*
X170908331Y-105040723D01*
X170908327Y-105040726D01*
X170817726Y-105131327D01*
X170817723Y-105131331D01*
X170746538Y-105237866D01*
X170746533Y-105237875D01*
X170697499Y-105356255D01*
X170697497Y-105356261D01*
X170682617Y-105431068D01*
X170650232Y-105492979D01*
X170589516Y-105527553D01*
X170519746Y-105523812D01*
X170463074Y-105482946D01*
X170439383Y-105431068D01*
X170424502Y-105356261D01*
X170424501Y-105356260D01*
X170424501Y-105356256D01*
X170375465Y-105237873D01*
X170375464Y-105237872D01*
X170375461Y-105237866D01*
X170304276Y-105131331D01*
X170304273Y-105131327D01*
X170213672Y-105040726D01*
X170213668Y-105040723D01*
X170107133Y-104969538D01*
X170107124Y-104969533D01*
X169988744Y-104920499D01*
X169988738Y-104920497D01*
X169863071Y-104895500D01*
X169863069Y-104895500D01*
X169734931Y-104895500D01*
X169734928Y-104895500D01*
X169617691Y-104918820D01*
X169548100Y-104912593D01*
X169492922Y-104869730D01*
X169469678Y-104803840D01*
X169469500Y-104797203D01*
X169469500Y-97367123D01*
X169489185Y-97300084D01*
X169541989Y-97254329D01*
X169611147Y-97244385D01*
X169674703Y-97273410D01*
G37*
G04 #@! TD.AperFunction*
G04 #@! TA.AperFunction,Conductor*
G36*
X163927539Y-113153185D02*
G01*
X163973294Y-113205989D01*
X163984500Y-113257500D01*
X163984500Y-113682678D01*
X163999032Y-113755735D01*
X163999033Y-113755739D01*
X163999034Y-113755740D01*
X164054399Y-113838601D01*
X164137260Y-113893966D01*
X164137264Y-113893967D01*
X164210321Y-113908499D01*
X164210324Y-113908500D01*
X164210326Y-113908500D01*
X166544500Y-113908500D01*
X166553185Y-113911050D01*
X166562147Y-113909762D01*
X166586187Y-113920740D01*
X166611539Y-113928185D01*
X166617466Y-113935025D01*
X166625703Y-113938787D01*
X166639992Y-113961021D01*
X166657294Y-113980989D01*
X166659581Y-113991503D01*
X166663477Y-113997565D01*
X166668500Y-114032500D01*
X166668500Y-114082000D01*
X166648815Y-114149039D01*
X166596011Y-114194794D01*
X166544500Y-114206000D01*
X164588551Y-114206000D01*
X165824094Y-115441543D01*
X165857579Y-115502866D01*
X165852595Y-115572558D01*
X165824094Y-115616905D01*
X165645905Y-115795095D01*
X165584582Y-115828580D01*
X165514891Y-115823596D01*
X165470543Y-115795095D01*
X163961561Y-114286113D01*
X163877817Y-114348805D01*
X163877808Y-114348814D01*
X163791649Y-114463906D01*
X163791645Y-114463913D01*
X163741403Y-114598620D01*
X163741401Y-114598627D01*
X163735000Y-114658155D01*
X163735000Y-116290179D01*
X163715315Y-116357218D01*
X163662511Y-116402973D01*
X163593353Y-116412917D01*
X163529797Y-116383892D01*
X163523319Y-116377860D01*
X162436819Y-115291360D01*
X162403334Y-115230037D01*
X162400500Y-115203679D01*
X162400500Y-113511500D01*
X162420185Y-113444461D01*
X162472989Y-113398706D01*
X162524500Y-113387500D01*
X163003599Y-113387500D01*
X163003601Y-113387500D01*
X163124536Y-113355095D01*
X163232964Y-113292495D01*
X163355640Y-113169819D01*
X163416963Y-113136334D01*
X163443321Y-113133500D01*
X163860500Y-113133500D01*
X163927539Y-113153185D01*
G37*
G04 #@! TD.AperFunction*
G04 #@! TA.AperFunction,Conductor*
G36*
X163927539Y-106549185D02*
G01*
X163973294Y-106601989D01*
X163984500Y-106653500D01*
X163984500Y-107078678D01*
X163999032Y-107151735D01*
X163999033Y-107151739D01*
X163999034Y-107151740D01*
X164054399Y-107234601D01*
X164137260Y-107289966D01*
X164137264Y-107289967D01*
X164210321Y-107304499D01*
X164210324Y-107304500D01*
X164210326Y-107304500D01*
X166544500Y-107304500D01*
X166611539Y-107324185D01*
X166657294Y-107376989D01*
X166668500Y-107428500D01*
X166668500Y-107981500D01*
X166648815Y-108048539D01*
X166596011Y-108094294D01*
X166544500Y-108105500D01*
X164210323Y-108105500D01*
X164137264Y-108120032D01*
X164137260Y-108120033D01*
X164054399Y-108175399D01*
X163999033Y-108258260D01*
X163999032Y-108258264D01*
X163984500Y-108331321D01*
X163984500Y-108756500D01*
X163981949Y-108765185D01*
X163983238Y-108774147D01*
X163972259Y-108798187D01*
X163964815Y-108823539D01*
X163957974Y-108829466D01*
X163954213Y-108837703D01*
X163931978Y-108851992D01*
X163912011Y-108869294D01*
X163901496Y-108871581D01*
X163895435Y-108875477D01*
X163860500Y-108880500D01*
X163690320Y-108880500D01*
X163623281Y-108860815D01*
X163611659Y-108852356D01*
X163609673Y-108850726D01*
X163503133Y-108779538D01*
X163503124Y-108779533D01*
X163384744Y-108730499D01*
X163384738Y-108730497D01*
X163259071Y-108705500D01*
X163259069Y-108705500D01*
X163130931Y-108705500D01*
X163130929Y-108705500D01*
X163005261Y-108730497D01*
X163005255Y-108730499D01*
X162886875Y-108779533D01*
X162886866Y-108779538D01*
X162780331Y-108850723D01*
X162780327Y-108850726D01*
X162689726Y-108941327D01*
X162689723Y-108941331D01*
X162618538Y-109047866D01*
X162618533Y-109047875D01*
X162569499Y-109166255D01*
X162569497Y-109166261D01*
X162544500Y-109291928D01*
X162544500Y-109291931D01*
X162544500Y-109420069D01*
X162544500Y-109420071D01*
X162544499Y-109420071D01*
X162569497Y-109545738D01*
X162569499Y-109545744D01*
X162618533Y-109664124D01*
X162618538Y-109664133D01*
X162689723Y-109770668D01*
X162689726Y-109770672D01*
X162780327Y-109861273D01*
X162780331Y-109861276D01*
X162886866Y-109932461D01*
X162886872Y-109932464D01*
X162886873Y-109932465D01*
X163005256Y-109981501D01*
X163005260Y-109981501D01*
X163005261Y-109981502D01*
X163130928Y-110006500D01*
X163130931Y-110006500D01*
X163259071Y-110006500D01*
X163343615Y-109989682D01*
X163384744Y-109981501D01*
X163503127Y-109932465D01*
X163609669Y-109861276D01*
X163609669Y-109861275D01*
X163609673Y-109861273D01*
X163611659Y-109859644D01*
X163612901Y-109859116D01*
X163614734Y-109857892D01*
X163614966Y-109858239D01*
X163634503Y-109849942D01*
X163655385Y-109836523D01*
X163671590Y-109834193D01*
X163675970Y-109832333D01*
X163690320Y-109831500D01*
X163860500Y-109831500D01*
X163927539Y-109851185D01*
X163973294Y-109903989D01*
X163984500Y-109955500D01*
X163984500Y-110380678D01*
X163999032Y-110453735D01*
X163999033Y-110453739D01*
X163999034Y-110453740D01*
X164054399Y-110536601D01*
X164137260Y-110591966D01*
X164137264Y-110591967D01*
X164210321Y-110606499D01*
X164210324Y-110606500D01*
X164210326Y-110606500D01*
X166544500Y-110606500D01*
X166611539Y-110626185D01*
X166657294Y-110678989D01*
X166668500Y-110730500D01*
X166668500Y-111283500D01*
X166648815Y-111350539D01*
X166596011Y-111396294D01*
X166544500Y-111407500D01*
X164210323Y-111407500D01*
X164137264Y-111422032D01*
X164137260Y-111422033D01*
X164054399Y-111477399D01*
X163999033Y-111560260D01*
X163999032Y-111560264D01*
X163984500Y-111633321D01*
X163984500Y-112058500D01*
X163964815Y-112125539D01*
X163912011Y-112171294D01*
X163860500Y-112182500D01*
X163257601Y-112182500D01*
X163132399Y-112182500D01*
X163055819Y-112203020D01*
X163011463Y-112214905D01*
X162903037Y-112277504D01*
X162903034Y-112277506D01*
X162780360Y-112400181D01*
X162719037Y-112433666D01*
X162692679Y-112436500D01*
X162420320Y-112436500D01*
X162353281Y-112416815D01*
X162341659Y-112408356D01*
X162339673Y-112406726D01*
X162233133Y-112335538D01*
X162233124Y-112335533D01*
X162114744Y-112286499D01*
X162114738Y-112286497D01*
X161989071Y-112261500D01*
X161989069Y-112261500D01*
X161860931Y-112261500D01*
X161860929Y-112261500D01*
X161735261Y-112286497D01*
X161735255Y-112286499D01*
X161616875Y-112335533D01*
X161616868Y-112335537D01*
X161577390Y-112361916D01*
X161510713Y-112382793D01*
X161443333Y-112364308D01*
X161396643Y-112312329D01*
X161384500Y-112258813D01*
X161384500Y-106653500D01*
X161404185Y-106586461D01*
X161456989Y-106540706D01*
X161508500Y-106529500D01*
X163860500Y-106529500D01*
X163927539Y-106549185D01*
G37*
G04 #@! TD.AperFunction*
G04 #@! TD*
M02*
