G04 #@! TF.GenerationSoftware,KiCad,Pcbnew,9.0.0*
G04 #@! TF.CreationDate,2026-03-16T00:03:23+01:00*
G04 #@! TF.ProjectId,manufacturing_main,6d616e75-6661-4637-9475-72696e675f6d,rev?*
G04 #@! TF.SameCoordinates,Original*
G04 #@! TF.FileFunction,Profile,NP*
%FSLAX46Y46*%
G04 Gerber Fmt 4.6, Leading zero omitted, Abs format (unit mm)*
G04 Created by KiCad (PCBNEW 9.0.0) date 2026-03-16 00:03:23*
%MOMM*%
%LPD*%
G01*
G04 APERTURE LIST*
G04 #@! TA.AperFunction,Profile*
%ADD10C,0.100000*%
G04 #@! TD*
%ADD11C,0.100000*%
G04 APERTURE END LIST*
D10*
X167669000Y-116930000D02*
G75*
G02*
X167169000Y-116430000I0J500000D01*
G01*
X168969000Y-116430000D02*
G75*
G02*
X168469000Y-116930000I-500000J0D01*
G01*
X168469000Y-116930000D02*
X167669000Y-116930000D01*
X168969000Y-116430000D02*
X168969000Y-49930000D01*
D11*
X133069000Y-113930000D02*
X133069104Y-113869901D01*
X133069228Y-113809840D01*
X133069371Y-113749817D01*
X133069535Y-113689831D01*
X133069719Y-113629882D01*
X133069922Y-113569972D01*
X133070145Y-113510098D01*
X133070389Y-113450263D01*
X133070652Y-113390464D01*
X133070934Y-113330704D01*
X133071237Y-113270980D01*
X133071559Y-113211295D01*
X133071902Y-113151646D01*
X133072264Y-113092036D01*
X133072645Y-113032462D01*
X133073047Y-112972926D01*
X133073468Y-112913427D01*
X133073909Y-112853966D01*
X133074370Y-112794542D01*
X133074850Y-112735156D01*
X133075350Y-112675807D01*
X133075870Y-112616495D01*
X133076410Y-112557220D01*
X133076969Y-112497983D01*
X133077548Y-112438783D01*
X133078146Y-112379620D01*
X133078764Y-112320494D01*
X133079402Y-112261406D01*
X133080059Y-112202355D01*
X133080736Y-112143341D01*
X133081432Y-112084364D01*
X133082148Y-112025425D01*
X133082883Y-111966522D01*
X133083638Y-111907657D01*
X133084413Y-111848829D01*
X133085207Y-111790038D01*
X133086020Y-111731284D01*
X133086853Y-111672567D01*
X133087706Y-111613888D01*
X133088578Y-111555245D01*
X133089469Y-111496639D01*
X133090380Y-111438070D01*
X133091310Y-111379539D01*
X133092260Y-111321044D01*
X133093229Y-111262586D01*
X133094217Y-111204166D01*
X133095225Y-111145782D01*
X133096252Y-111087435D01*
X133097298Y-111029125D01*
X133098364Y-110970852D01*
X133099449Y-110912616D01*
X133100554Y-110854416D01*
X133101678Y-110796254D01*
X133102821Y-110738128D01*
X133103983Y-110680039D01*
X133105164Y-110621987D01*
X133106365Y-110563972D01*
X133107585Y-110505994D01*
X133108825Y-110448052D01*
X133110083Y-110390147D01*
X133111361Y-110332279D01*
X133112658Y-110274447D01*
X133113974Y-110216653D01*
X133115309Y-110158895D01*
X133116663Y-110101173D01*
X133118037Y-110043488D01*
X133119429Y-109985840D01*
X133120841Y-109928229D01*
X133122272Y-109870654D01*
X133123722Y-109813116D01*
X133125191Y-109755614D01*
X133126679Y-109698149D01*
X133128186Y-109640720D01*
X133129712Y-109583328D01*
X133131257Y-109525973D01*
X133132822Y-109468654D01*
X133134405Y-109411371D01*
X133136007Y-109354125D01*
X133137628Y-109296916D01*
X133139268Y-109239743D01*
X133140928Y-109182606D01*
X133142606Y-109125506D01*
X133144303Y-109068442D01*
X133146019Y-109011414D01*
X133147753Y-108954423D01*
X133149507Y-108897468D01*
X133151280Y-108840550D01*
X133153071Y-108783668D01*
X133154882Y-108726822D01*
X133156711Y-108670013D01*
X133158559Y-108613240D01*
X133160426Y-108556503D01*
X133162311Y-108499802D01*
X133164216Y-108443138D01*
X133166139Y-108386509D01*
X133168081Y-108329918D01*
X133170042Y-108273362D01*
X133172021Y-108216842D01*
X133174020Y-108160359D01*
X133176037Y-108103912D01*
X133178072Y-108047500D01*
X133180127Y-107991125D01*
X133182200Y-107934786D01*
X133184292Y-107878484D01*
X133186402Y-107822217D01*
X133188531Y-107765986D01*
X133190679Y-107709792D01*
X133192845Y-107653633D01*
X133195030Y-107597510D01*
X133197234Y-107541424D01*
X133199456Y-107485373D01*
X133201697Y-107429359D01*
X133203956Y-107373380D01*
X133206234Y-107317437D01*
X133208531Y-107261530D01*
X133210846Y-107205660D01*
X133213179Y-107149825D01*
X133215531Y-107094026D01*
X133217902Y-107038262D01*
X133220291Y-106982535D01*
X133222698Y-106926843D01*
X133225124Y-106871188D01*
X133227569Y-106815568D01*
X133230032Y-106759984D01*
X133232513Y-106704435D01*
X133235013Y-106648923D01*
X133237531Y-106593446D01*
X133240067Y-106538005D01*
X133242622Y-106482600D01*
X133245195Y-106427230D01*
X133247787Y-106371896D01*
X133250397Y-106316598D01*
X133253025Y-106261335D01*
X133255672Y-106206108D01*
X133258337Y-106150917D01*
X133261020Y-106095761D01*
X133263721Y-106040641D01*
X133266441Y-105985557D01*
X133269179Y-105930508D01*
X133271935Y-105875494D01*
X133274710Y-105820516D01*
X133277503Y-105765574D01*
X133280314Y-105710667D01*
X133283143Y-105655796D01*
X133285990Y-105600960D01*
X133288855Y-105546160D01*
X133291739Y-105491395D01*
X133294641Y-105436666D01*
X133297561Y-105381971D01*
X133300499Y-105327313D01*
X133303455Y-105272689D01*
X133306430Y-105218102D01*
X133309422Y-105163549D01*
X133312433Y-105109032D01*
X133315461Y-105054550D01*
X133318508Y-105000104D01*
X133321573Y-104945692D01*
X133324655Y-104891317D01*
X133327756Y-104836976D01*
X133330875Y-104782671D01*
X133334012Y-104728400D01*
X133337166Y-104674166D01*
X133340339Y-104619966D01*
X133343530Y-104565802D01*
X133346739Y-104511672D01*
X133349965Y-104457578D01*
X133353210Y-104403519D01*
X133356472Y-104349496D01*
X133359753Y-104295507D01*
X133363051Y-104241554D01*
X133366367Y-104187635D01*
X133369701Y-104133752D01*
X133373053Y-104079903D01*
X133376423Y-104026090D01*
X133379810Y-103972312D01*
X133383216Y-103918569D01*
X133386639Y-103864861D01*
X133390080Y-103811188D01*
X133393539Y-103757549D01*
X133397015Y-103703946D01*
X133400510Y-103650378D01*
X133404022Y-103596845D01*
X133407552Y-103543346D01*
X133411099Y-103489883D01*
X133414665Y-103436454D01*
X133418248Y-103383061D01*
X133421848Y-103329702D01*
X133425467Y-103276378D01*
X133429103Y-103223089D01*
X133432757Y-103169835D01*
X133436428Y-103116615D01*
X133440117Y-103063431D01*
X133443824Y-103010280D01*
X133447548Y-102957165D01*
X133451290Y-102904085D01*
X133455049Y-102851039D01*
X133458826Y-102798028D01*
X133462621Y-102745052D01*
X133466433Y-102692110D01*
X133470263Y-102639204D01*
X133474110Y-102586331D01*
X133477975Y-102533494D01*
X133481858Y-102480691D01*
X133485757Y-102427923D01*
X133489675Y-102375188D01*
X133493609Y-102322490D01*
X133497562Y-102269825D01*
X133501531Y-102217195D01*
X133505519Y-102164599D01*
X133509523Y-102112039D01*
X133513545Y-102059512D01*
X133517585Y-102007020D01*
X133521642Y-101954563D01*
X133525716Y-101902140D01*
X133529807Y-101849751D01*
X133533916Y-101797397D01*
X133538043Y-101745077D01*
X133542186Y-101692793D01*
X133546347Y-101640541D01*
X133550525Y-101588325D01*
X133554721Y-101536143D01*
X133558934Y-101483995D01*
X133563164Y-101431882D01*
X133567412Y-101379803D01*
X133571676Y-101327758D01*
X133575958Y-101275748D01*
X133580258Y-101223771D01*
X133584574Y-101171830D01*
X133588908Y-101119922D01*
X133593258Y-101068049D01*
X133597627Y-101016209D01*
X133602012Y-100964404D01*
X133606414Y-100912633D01*
X133610834Y-100860897D01*
X133615270Y-100809194D01*
X133619724Y-100757526D01*
X133624195Y-100705892D01*
X133628683Y-100654292D01*
X133633188Y-100602726D01*
X133637711Y-100551194D01*
X133642250Y-100499696D01*
X133646806Y-100448233D01*
X133651380Y-100396803D01*
X133655970Y-100345408D01*
X133660578Y-100294046D01*
X133665203Y-100242718D01*
X133669844Y-100191424D01*
X133674503Y-100140165D01*
X133679178Y-100088939D01*
X133683871Y-100037748D01*
X133688580Y-99986590D01*
X133693307Y-99935466D01*
X133698050Y-99884376D01*
X133702811Y-99833320D01*
X133707588Y-99782297D01*
X133712382Y-99731310D01*
X133717193Y-99680355D01*
X133722021Y-99629434D01*
X133726866Y-99578547D01*
X133731728Y-99527695D01*
X133736606Y-99476875D01*
X133741502Y-99426090D01*
X133746414Y-99375338D01*
X133751343Y-99324620D01*
X133756289Y-99273935D01*
X133761252Y-99223285D01*
X133766231Y-99172668D01*
X133771227Y-99122085D01*
X133776240Y-99071535D01*
X133781270Y-99021020D01*
X133786317Y-98970537D01*
X133791380Y-98920089D01*
X133796460Y-98869674D01*
X133801556Y-98819293D01*
X133806670Y-98768945D01*
X133811800Y-98718631D01*
X133816946Y-98668350D01*
X133822110Y-98618104D01*
X133827290Y-98567889D01*
X133832486Y-98517710D01*
X133837700Y-98467563D01*
X133842930Y-98417450D01*
X133848176Y-98367370D01*
X133853439Y-98317325D01*
X133858719Y-98267311D01*
X133864015Y-98217333D01*
X133869328Y-98167386D01*
X133874658Y-98117474D01*
X133880004Y-98067595D01*
X133885366Y-98017750D01*
X133890745Y-97967937D01*
X133896140Y-97918158D01*
X133901553Y-97868412D01*
X133906981Y-97818700D01*
X133912426Y-97769021D01*
X133917887Y-97719376D01*
X133923365Y-97669763D01*
X133928860Y-97620184D01*
X133934370Y-97570637D01*
X133939897Y-97521125D01*
X133945441Y-97471645D01*
X133951001Y-97422199D01*
X133956577Y-97372785D01*
X133962170Y-97323406D01*
X133967779Y-97274059D01*
X133973405Y-97224745D01*
X133979047Y-97175464D01*
X133984705Y-97126217D01*
X133990379Y-97077002D01*
X133996070Y-97027822D01*
X134001777Y-96978673D01*
X134007500Y-96929558D01*
X134013240Y-96880475D01*
X134018996Y-96831427D01*
X134024768Y-96782410D01*
X134030557Y-96733428D01*
X134036361Y-96684477D01*
X134042182Y-96635560D01*
X134048019Y-96586676D01*
X134053872Y-96537825D01*
X134059742Y-96489006D01*
X134065628Y-96440221D01*
X134071529Y-96391468D01*
X134077447Y-96342749D01*
X134083382Y-96294062D01*
X134089332Y-96245408D01*
X134095298Y-96196787D01*
X134101281Y-96148199D01*
X134107279Y-96099643D01*
X134113294Y-96051121D01*
X134119325Y-96002630D01*
X134125372Y-95954174D01*
X134131435Y-95905749D01*
X134137513Y-95857358D01*
X134143609Y-95808998D01*
X134149719Y-95760673D01*
X134155847Y-95712379D01*
X134161990Y-95664119D01*
X134168149Y-95615890D01*
X134174324Y-95567695D01*
X134180515Y-95519532D01*
X134186722Y-95471402D01*
X134192945Y-95423304D01*
X134199183Y-95375239D01*
X134205438Y-95327206D01*
X134211709Y-95279207D01*
X134217996Y-95231239D01*
X134224298Y-95183305D01*
X134230617Y-95135402D01*
X134236951Y-95087533D01*
X134243301Y-95039695D01*
X134249667Y-94991891D01*
X134256049Y-94944118D01*
X134262447Y-94896379D01*
X134268860Y-94848671D01*
X134275289Y-94800997D01*
X134281735Y-94753354D01*
X134288195Y-94705744D01*
X134294672Y-94658166D01*
X134301165Y-94610621D01*
X134307673Y-94563107D01*
X134314197Y-94515627D01*
X134320737Y-94468178D01*
X134327292Y-94420763D01*
X134333863Y-94373379D01*
X134340450Y-94326028D01*
X134347053Y-94278708D01*
X134353671Y-94231422D01*
X134360305Y-94184167D01*
X134366954Y-94136945D01*
X134373620Y-94089754D01*
X134380301Y-94042597D01*
X134386997Y-93995470D01*
X134393709Y-93948377D01*
X134400437Y-93901315D01*
X134407180Y-93854286D01*
X134413939Y-93807288D01*
X134420714Y-93760324D01*
X134427504Y-93713390D01*
X134434310Y-93666490D01*
X134441131Y-93619620D01*
X134447968Y-93572784D01*
X134454820Y-93525979D01*
X134461688Y-93479207D01*
X134468571Y-93432465D01*
X134475470Y-93385757D01*
X134482384Y-93339080D01*
X134489314Y-93292436D01*
X134496259Y-93245822D01*
X134503220Y-93199242D01*
X134510196Y-93152693D01*
X134517187Y-93106177D01*
X134524194Y-93059691D01*
X134531217Y-93013238D01*
X134538254Y-92966816D01*
X134545308Y-92920428D01*
X134552376Y-92874069D01*
X134559460Y-92827744D01*
X134566559Y-92781450D01*
X134573674Y-92735188D01*
X134580804Y-92688957D01*
X134587949Y-92642759D01*
X134595110Y-92596592D01*
X134602286Y-92550457D01*
X134609477Y-92504353D01*
X134616683Y-92458283D01*
X134623905Y-92412242D01*
X134631142Y-92366235D01*
X134638395Y-92320257D01*
X134645662Y-92274313D01*
X134652945Y-92228399D01*
X134660243Y-92182518D01*
X134667556Y-92136668D01*
X134674884Y-92090850D01*
X134682228Y-92045063D01*
X134689587Y-91999308D01*
X134696961Y-91953584D01*
X134704350Y-91907893D01*
X134711754Y-91862232D01*
X134719173Y-91816603D01*
X134726608Y-91771005D01*
X134734058Y-91725440D01*
X134741522Y-91679905D01*
X134749002Y-91634403D01*
X134756497Y-91588930D01*
X134764007Y-91543491D01*
X134771532Y-91498082D01*
X134779073Y-91452705D01*
X134786628Y-91407359D01*
X134794198Y-91362045D01*
X134801783Y-91316761D01*
X134809384Y-91271510D01*
X134816999Y-91226289D01*
X134824629Y-91181101D01*
X134832275Y-91135942D01*
X134839935Y-91090817D01*
X134847610Y-91045721D01*
X134855300Y-91000658D01*
X134863005Y-90955624D01*
X134870725Y-90910624D01*
X134878461Y-90865653D01*
X134886210Y-90820715D01*
X134893975Y-90775806D01*
X134901755Y-90730931D01*
X134909550Y-90686085D01*
X134917359Y-90641271D01*
X134925183Y-90596487D01*
X134933022Y-90551736D01*
X134940877Y-90507015D01*
X134948745Y-90462326D01*
X134956629Y-90417667D01*
X134964528Y-90373040D01*
X134972441Y-90328443D01*
X134980369Y-90283879D01*
X134988312Y-90239343D01*
X134996270Y-90194841D01*
X135004242Y-90150368D01*
X135012229Y-90105927D01*
X135020231Y-90061516D01*
X135028248Y-90017138D01*
X135036279Y-89972789D01*
X135044325Y-89928472D01*
X135052386Y-89884185D01*
X135060462Y-89839930D01*
X135068552Y-89795705D01*
X135076657Y-89751512D01*
X135084776Y-89707348D01*
X135092910Y-89663217D01*
X135101059Y-89619115D01*
X135109223Y-89575045D01*
X135117401Y-89531005D01*
X135125594Y-89486997D01*
X135133801Y-89443018D01*
X135142023Y-89399072D01*
X135150259Y-89355155D01*
X135158510Y-89311270D01*
X135166776Y-89267414D01*
X135175056Y-89223591D01*
X135183351Y-89179797D01*
X135191660Y-89136035D01*
X135199984Y-89092302D01*
X135208322Y-89048601D01*
X135216675Y-89004930D01*
X135225042Y-88961291D01*
X135233424Y-88917680D01*
X135241820Y-88874102D01*
X135250231Y-88830553D01*
X135258656Y-88787036D01*
X135267096Y-88743548D01*
X135275550Y-88700093D01*
X135284018Y-88656666D01*
X135292501Y-88613271D01*
X135300998Y-88569905D01*
X135309510Y-88526572D01*
X135318036Y-88483267D01*
X135326576Y-88439994D01*
X135335131Y-88396750D01*
X135343700Y-88353538D01*
X135352284Y-88310355D01*
X135360882Y-88267205D01*
X135369494Y-88224082D01*
X135378120Y-88180992D01*
X135386761Y-88137931D01*
X135395416Y-88094902D01*
X135404086Y-88051901D01*
X135412769Y-88008932D01*
X135421467Y-87965992D01*
X135430179Y-87923084D01*
X135438906Y-87880205D01*
X135447646Y-87837357D01*
X135456401Y-87794538D01*
X135465170Y-87751752D01*
X135473954Y-87708993D01*
X135482751Y-87666267D01*
X135491563Y-87623569D01*
X135500389Y-87580903D01*
X135509229Y-87538265D01*
X135518083Y-87495660D01*
X135526952Y-87453082D01*
X135535834Y-87410537D01*
X135544731Y-87368020D01*
X135553641Y-87325535D01*
X135562566Y-87283078D01*
X135571505Y-87240654D01*
X135580458Y-87198257D01*
X135589425Y-87155893D01*
X135598407Y-87113556D01*
X135607402Y-87071252D01*
X135616412Y-87028975D01*
X135625435Y-86986731D01*
X135634472Y-86944514D01*
X135643524Y-86902330D01*
X135652589Y-86860173D01*
X135661669Y-86818049D01*
X135670762Y-86775952D01*
X135679869Y-86733888D01*
X135688991Y-86691851D01*
X135698126Y-86649846D01*
X135707276Y-86607869D01*
X135716439Y-86565924D01*
X135725616Y-86524007D01*
X135734807Y-86482122D01*
X135744013Y-86440264D01*
X135753232Y-86398438D01*
X135762465Y-86356640D01*
X135771711Y-86314874D01*
X135780972Y-86273136D01*
X135790247Y-86231430D01*
X135799535Y-86189751D01*
X135808837Y-86148104D01*
X135818154Y-86106484D01*
X135827483Y-86064897D01*
X135836827Y-86023337D01*
X135846185Y-85981809D01*
X135855556Y-85940308D01*
X135864941Y-85898840D01*
X135874341Y-85857398D01*
X135883753Y-85815989D01*
X135893180Y-85774607D01*
X135902620Y-85733257D01*
X135912074Y-85691934D01*
X135921542Y-85650643D01*
X135931023Y-85609379D01*
X135940518Y-85568147D01*
X135950028Y-85526942D01*
X135959550Y-85485770D01*
X135969087Y-85444624D01*
X135978636Y-85403510D01*
X135988200Y-85362424D01*
X135997777Y-85321369D01*
X136007369Y-85280341D01*
X136016973Y-85239345D01*
X136026592Y-85198376D01*
X136036223Y-85157439D01*
X136045869Y-85116529D01*
X136055528Y-85075651D01*
X136065201Y-85034800D01*
X136074887Y-84993980D01*
X136084587Y-84953188D01*
X136094301Y-84912427D01*
X136104028Y-84871693D01*
X136113768Y-84830991D01*
X136123523Y-84790316D01*
X136133290Y-84749672D01*
X136143072Y-84709056D01*
X136152866Y-84668471D01*
X136162675Y-84627913D01*
X136172496Y-84587386D01*
X136182332Y-84546886D01*
X136192180Y-84506418D01*
X136202043Y-84465977D01*
X136211918Y-84425567D01*
X136221807Y-84385184D01*
X136231710Y-84344833D01*
X136241626Y-84304508D01*
X136251555Y-84264215D01*
X136261498Y-84223949D01*
X136271454Y-84183714D01*
X136281424Y-84143506D01*
X136291407Y-84103329D01*
X136301403Y-84063179D01*
X136311413Y-84023060D01*
X136321436Y-83982968D01*
X136331472Y-83942908D01*
X136341523Y-83902874D01*
X136351585Y-83862871D01*
X136361662Y-83822895D01*
X136371752Y-83782950D01*
X136381855Y-83743032D01*
X136391971Y-83703146D01*
X136402101Y-83663285D01*
X136412244Y-83623457D01*
X136422400Y-83583654D01*
X136432569Y-83543883D01*
X136442752Y-83504139D01*
X136452948Y-83464425D01*
X136463158Y-83424738D01*
X136473380Y-83385083D01*
X136483616Y-83345453D01*
X136493864Y-83305855D01*
X136504127Y-83266284D01*
X136514402Y-83226743D01*
X136524690Y-83187229D01*
X136534991Y-83147746D01*
X136545307Y-83108290D01*
X136555634Y-83068864D01*
X136565975Y-83029465D01*
X136576329Y-82990097D01*
X136586697Y-82950756D01*
X136597077Y-82911445D01*
X136607471Y-82872161D01*
X136617877Y-82832907D01*
X136628297Y-82793680D01*
X136638730Y-82754484D01*
X136649176Y-82715314D01*
X136659634Y-82676176D01*
X136670107Y-82637063D01*
X136680591Y-82597981D01*
X136691090Y-82558926D01*
X136701601Y-82519901D01*
X136712125Y-82480903D01*
X136722662Y-82441935D01*
X136733212Y-82402994D01*
X136743775Y-82364084D01*
X136754351Y-82325199D01*
X136764940Y-82286346D01*
X136775542Y-82247518D01*
X136786157Y-82208722D01*
X136796785Y-82169951D01*
X136807426Y-82131211D01*
X136818080Y-82092497D01*
X136828746Y-82053815D01*
X136839426Y-82015157D01*
X136850118Y-81976531D01*
X136860824Y-81937931D01*
X136871542Y-81899362D01*
X136882274Y-81860818D01*
X136893017Y-81822305D01*
X136903775Y-81783818D01*
X136914544Y-81745362D01*
X136925327Y-81706931D01*
X136936122Y-81668532D01*
X136946931Y-81630158D01*
X136957751Y-81591814D01*
X136968586Y-81553497D01*
X136979432Y-81515210D01*
X136990292Y-81476949D01*
X137001164Y-81438719D01*
X137012049Y-81400514D01*
X137022947Y-81362340D01*
X137033857Y-81324191D01*
X137044780Y-81286074D01*
X137055717Y-81247981D01*
X137066665Y-81209920D01*
X137077627Y-81171884D01*
X137088601Y-81133879D01*
X137099588Y-81095899D01*
X137110587Y-81057950D01*
X137121600Y-81020026D01*
X137132624Y-80982133D01*
X137143662Y-80944265D01*
X137154712Y-80906428D01*
X137165776Y-80868616D01*
X137176851Y-80830835D01*
X137187939Y-80793079D01*
X137199040Y-80755354D01*
X137210154Y-80717654D01*
X137221279Y-80679985D01*
X137232418Y-80642341D01*
X137243569Y-80604727D01*
X137254733Y-80567139D01*
X137265909Y-80529581D01*
X137277099Y-80492049D01*
X137288300Y-80454547D01*
X137299514Y-80417070D01*
X137310741Y-80379624D01*
X137321980Y-80342202D01*
X137333231Y-80304812D01*
X137344496Y-80267446D01*
X137355772Y-80230111D01*
X137367062Y-80192801D01*
X137378363Y-80155521D01*
X137389678Y-80118267D01*
X137401004Y-80081043D01*
X137412343Y-80043843D01*
X137423695Y-80006675D01*
X137435059Y-79969531D01*
X137446435Y-79932417D01*
X137457824Y-79895329D01*
X137469225Y-79858271D01*
X137480639Y-79821238D01*
X137492065Y-79784235D01*
X137503504Y-79747257D01*
X137514954Y-79710309D01*
X137526418Y-79673386D01*
X137537893Y-79636494D01*
X137549382Y-79599626D01*
X137560882Y-79562789D01*
X137572395Y-79525976D01*
X137583919Y-79489194D01*
X137595457Y-79452437D01*
X137607007Y-79415709D01*
X137618569Y-79379007D01*
X137630143Y-79342335D01*
X137641730Y-79305687D01*
X137653328Y-79269069D01*
X137664940Y-79232477D01*
X137676563Y-79195914D01*
X137688199Y-79159376D01*
X137699847Y-79122868D01*
X137711507Y-79086385D01*
X137723179Y-79049932D01*
X137734865Y-79013504D01*
X137746561Y-78977106D01*
X137758271Y-78940732D01*
X137769991Y-78904388D01*
X137781726Y-78868069D01*
X137793471Y-78831780D01*
X137805229Y-78795515D01*
X137816999Y-78759281D01*
X137828781Y-78723071D01*
X137840575Y-78686891D01*
X137852382Y-78650735D01*
X137864201Y-78614610D01*
X137876032Y-78578509D01*
X137887874Y-78542438D01*
X137899730Y-78506391D01*
X137911597Y-78470374D01*
X137923476Y-78434381D01*
X137935367Y-78398419D01*
X137947271Y-78362481D01*
X137959186Y-78326573D01*
X137971114Y-78290689D01*
X137983054Y-78254835D01*
X137995006Y-78219005D01*
X138006969Y-78183205D01*
X138018945Y-78147429D01*
X138030933Y-78111684D01*
X138042933Y-78075962D01*
X138054944Y-78040270D01*
X138066969Y-78004603D01*
X138079004Y-77968965D01*
X138091052Y-77933351D01*
X138103112Y-77897768D01*
X138115184Y-77862208D01*
X138127267Y-77826678D01*
X138139363Y-77791172D01*
X138151471Y-77755697D01*
X138163591Y-77720244D01*
X138175722Y-77684822D01*
X138187866Y-77649424D01*
X138200020Y-77614056D01*
X138212188Y-77578711D01*
X138224367Y-77543397D01*
X138236559Y-77508106D01*
X138248761Y-77472845D01*
X138260976Y-77437608D01*
X138273202Y-77402400D01*
X138285442Y-77367217D01*
X138297691Y-77332063D01*
X138309954Y-77296933D01*
X138322228Y-77261833D01*
X138334514Y-77226756D01*
X138346811Y-77191709D01*
X138359121Y-77156686D01*
X138371442Y-77121692D01*
X138383776Y-77086723D01*
X138396120Y-77051783D01*
X138408478Y-77016866D01*
X138420846Y-76981979D01*
X138433226Y-76947116D01*
X138445618Y-76912283D01*
X138458022Y-76877473D01*
X138470437Y-76842693D01*
X138482865Y-76807936D01*
X138495303Y-76773209D01*
X138507755Y-76738505D01*
X138520216Y-76703831D01*
X138532691Y-76669180D01*
X138545176Y-76634560D01*
X138557674Y-76599962D01*
X138570183Y-76565394D01*
X138582704Y-76530850D01*
X138595236Y-76496335D01*
X138607781Y-76461843D01*
X138620336Y-76427381D01*
X138632904Y-76392943D01*
X138645483Y-76358534D01*
X138658074Y-76324148D01*
X138670676Y-76289792D01*
X138683290Y-76255458D01*
X138695915Y-76221155D01*
X138708553Y-76186875D01*
X138721201Y-76152624D01*
X138733862Y-76118396D01*
X138746533Y-76084198D01*
X138759218Y-76050023D01*
X138771912Y-76015878D01*
X138784619Y-75981756D01*
X138797337Y-75947663D01*
X138810067Y-75913593D01*
X138822807Y-75879553D01*
X138835561Y-75845535D01*
X138848324Y-75811548D01*
X138861101Y-75777583D01*
X138873887Y-75743648D01*
X138886687Y-75709735D01*
X138899496Y-75675852D01*
X138912318Y-75641992D01*
X138925151Y-75608162D01*
X138937996Y-75574354D01*
X138950851Y-75540575D01*
X138963720Y-75506820D01*
X138976598Y-75473094D01*
X138989489Y-75439391D01*
X139002390Y-75405717D01*
X139015304Y-75372066D01*
X139028228Y-75338444D01*
X139041164Y-75304845D01*
X139054111Y-75271276D01*
X139067070Y-75237729D01*
X139080040Y-75204211D01*
X139093022Y-75170716D01*
X139106014Y-75137251D01*
X139119019Y-75103808D01*
X139132034Y-75070394D01*
X139145062Y-75037003D01*
X139158099Y-75003642D01*
X139171149Y-74970303D01*
X139184210Y-74936993D01*
X139197283Y-74903706D01*
X139210365Y-74870448D01*
X139223461Y-74837212D01*
X139236566Y-74804006D01*
X139249684Y-74770823D01*
X139262812Y-74737668D01*
X139275953Y-74704536D01*
X139289103Y-74671434D01*
X139302266Y-74638353D01*
X139315439Y-74605302D01*
X139328625Y-74572273D01*
X139341820Y-74539274D01*
X139355028Y-74506296D01*
X139368246Y-74473349D01*
X139381477Y-74440423D01*
X139394717Y-74407527D01*
X139407970Y-74374652D01*
X139421233Y-74341807D01*
X139434508Y-74308984D01*
X139447793Y-74276191D01*
X139461090Y-74243419D01*
X139474398Y-74210677D01*
X139487718Y-74177957D01*
X139501047Y-74145266D01*
X139514389Y-74112597D01*
X139527741Y-74079957D01*
X139541106Y-74047340D01*
X139554480Y-74014751D01*
X139567866Y-73982185D01*
X139581263Y-73949648D01*
X139594672Y-73917132D01*
X139608090Y-73884646D01*
X139621521Y-73852182D01*
X139634962Y-73819747D01*
X139648415Y-73787333D01*
X139661878Y-73754949D01*
X139675353Y-73722587D01*
X139688838Y-73690254D01*
X139702335Y-73657943D01*
X139715842Y-73625661D01*
X139729361Y-73593400D01*
X139742890Y-73561169D01*
X139756432Y-73528959D01*
X139769983Y-73496779D01*
X139783546Y-73464620D01*
X139797119Y-73432491D01*
X139810704Y-73400383D01*
X139824299Y-73368304D01*
X139837907Y-73336246D01*
X139851523Y-73304218D01*
X139865153Y-73272212D01*
X139878791Y-73240234D01*
X139892443Y-73208278D01*
X139906103Y-73176351D01*
X139919776Y-73144446D01*
X139933458Y-73112570D01*
X139947153Y-73080715D01*
X139960857Y-73048889D01*
X139974574Y-73017085D01*
X139988300Y-72985309D01*
X140002038Y-72953555D01*
X140015786Y-72921831D01*
X140029546Y-72890127D01*
X140043316Y-72858452D01*
X140057098Y-72826799D01*
X140070889Y-72795175D01*
X140084692Y-72763572D01*
X140098505Y-72731998D01*
X140112330Y-72700446D01*
X140126165Y-72668922D01*
X140140012Y-72637420D01*
X140153868Y-72605946D01*
X140167736Y-72574494D01*
X140181614Y-72543071D01*
X140195504Y-72511668D01*
X140209403Y-72480295D01*
X140223315Y-72448943D01*
X140237235Y-72417620D01*
X140251169Y-72386318D01*
X140265111Y-72355045D01*
X140279066Y-72323793D01*
X140293029Y-72292570D01*
X140307005Y-72261368D01*
X140320990Y-72230195D01*
X140334988Y-72199042D01*
X140348995Y-72167919D01*
X140363014Y-72136817D01*
X140377042Y-72105743D01*
X140391082Y-72074691D01*
X140405131Y-72043667D01*
X140419193Y-72012664D01*
X140433264Y-71981690D01*
X140447347Y-71950737D01*
X140461439Y-71919813D01*
X140475543Y-71888910D01*
X140489657Y-71858035D01*
X140503782Y-71827181D01*
X140517917Y-71796357D01*
X140532064Y-71765552D01*
X140546220Y-71734777D01*
X140560388Y-71704022D01*
X140574565Y-71673297D01*
X140588754Y-71642591D01*
X140602952Y-71611915D01*
X140617163Y-71581259D01*
X140631382Y-71550632D01*
X140645614Y-71520026D01*
X140659854Y-71489449D01*
X140674107Y-71458892D01*
X140688369Y-71428364D01*
X140702643Y-71397856D01*
X140716926Y-71367377D01*
X140731221Y-71336919D01*
X140745524Y-71306489D01*
X140759840Y-71276080D01*
X140774165Y-71245700D01*
X140788502Y-71215340D01*
X140802848Y-71185009D01*
X140817206Y-71154698D01*
X140831573Y-71124416D01*
X140845952Y-71094154D01*
X140860339Y-71063921D01*
X140874740Y-71033708D01*
X140889148Y-71003524D01*
X140903569Y-70973361D01*
X140917998Y-70943226D01*
X140932440Y-70913111D01*
X140946891Y-70883025D01*
X140961353Y-70852959D01*
X140975824Y-70822922D01*
X140990308Y-70792905D01*
X141004800Y-70762917D01*
X141019304Y-70732949D01*
X141033817Y-70703010D01*
X141048342Y-70673091D01*
X141062876Y-70643200D01*
X141077422Y-70613330D01*
X141091976Y-70583488D01*
X141106543Y-70553666D01*
X141121118Y-70523873D01*
X141135705Y-70494100D01*
X141150301Y-70464355D01*
X141164909Y-70434631D01*
X141179525Y-70404935D01*
X141194154Y-70375259D01*
X141208791Y-70345611D01*
X141223440Y-70315984D01*
X141238098Y-70286385D01*
X141252768Y-70256806D01*
X141267446Y-70227256D01*
X141282137Y-70197726D01*
X141296835Y-70168224D01*
X141311547Y-70138742D01*
X141326266Y-70109288D01*
X141340998Y-70079854D01*
X141355737Y-70050449D01*
X141370490Y-70021064D01*
X141385250Y-69991707D01*
X141400023Y-69962370D01*
X141414803Y-69933061D01*
X141429596Y-69903772D01*
X141444398Y-69874512D01*
X141459211Y-69845271D01*
X141474033Y-69816059D01*
X141488867Y-69786867D01*
X141503709Y-69757703D01*
X141518563Y-69728558D01*
X141533425Y-69699442D01*
X141548300Y-69670346D01*
X141563183Y-69641278D01*
X141578078Y-69612230D01*
X141592981Y-69583210D01*
X141607896Y-69554210D01*
X141622820Y-69525238D01*
X141637755Y-69496285D01*
X141652699Y-69467361D01*
X141667655Y-69438457D01*
X141682619Y-69409581D01*
X141697595Y-69380724D01*
X141712579Y-69351896D01*
X141727576Y-69323087D01*
X141742580Y-69294306D01*
X141757596Y-69265545D01*
X141772621Y-69236813D01*
X141787658Y-69208099D01*
X141802702Y-69179414D01*
X141817759Y-69150749D01*
X141832824Y-69122111D01*
X141847901Y-69093493D01*
X141862985Y-69064904D01*
X141878083Y-69036333D01*
X141893187Y-69007791D01*
X141908305Y-68979268D01*
X141923430Y-68950774D01*
X141938567Y-68922299D01*
X141953712Y-68893852D01*
X141968869Y-68865424D01*
X141984034Y-68837024D01*
X141999211Y-68808644D01*
X142014396Y-68780292D01*
X142029593Y-68751959D01*
X142044798Y-68723654D01*
X142075240Y-68667111D01*
X142105722Y-68610663D01*
X142136244Y-68554309D01*
X142166805Y-68498049D01*
X142197406Y-68441884D01*
X142228047Y-68385814D01*
X142258727Y-68329837D01*
X142289447Y-68273955D01*
X142320206Y-68218167D01*
X142351005Y-68162472D01*
X142381844Y-68106872D01*
X142412721Y-68051365D01*
X142443638Y-67995952D01*
X142474594Y-67940633D01*
X142505590Y-67885407D01*
X142536625Y-67830275D01*
X142567698Y-67775237D01*
X142598811Y-67720291D01*
X142629963Y-67665439D01*
X142661154Y-67610680D01*
X142692384Y-67556014D01*
X142723653Y-67501441D01*
X142754961Y-67446961D01*
X142786307Y-67392574D01*
X142817693Y-67338280D01*
X142849117Y-67284078D01*
X142880579Y-67229969D01*
X142912081Y-67175953D01*
X142943621Y-67122029D01*
X142975199Y-67068198D01*
X143006817Y-67014458D01*
X143038472Y-66960811D01*
X143070166Y-66907257D01*
X143101898Y-66853794D01*
X143133669Y-66800423D01*
X143165478Y-66747144D01*
X143197325Y-66693957D01*
X143229211Y-66640862D01*
X143261134Y-66587859D01*
X143293096Y-66534947D01*
X143325096Y-66482127D01*
X143357134Y-66429398D01*
X143389210Y-66376760D01*
X143421323Y-66324214D01*
X143453475Y-66271760D01*
X143485665Y-66219396D01*
X143517892Y-66167123D01*
X143550157Y-66114942D01*
X143582460Y-66062851D01*
X143614801Y-66010852D01*
X143647179Y-65958943D01*
X143679595Y-65907125D01*
X143712048Y-65855397D01*
X143744539Y-65803760D01*
X143777068Y-65752214D01*
X143809634Y-65700758D01*
X143842237Y-65649392D01*
X143874878Y-65598117D01*
X143907556Y-65546932D01*
X143940271Y-65495837D01*
X143973023Y-65444832D01*
X144005813Y-65393917D01*
X144038640Y-65343092D01*
X144071504Y-65292357D01*
X144104405Y-65241712D01*
X144137343Y-65191156D01*
X144170318Y-65140691D01*
X144203330Y-65090314D01*
X144236379Y-65040027D01*
X144269465Y-64989830D01*
X144302587Y-64939722D01*
X144335747Y-64889703D01*
X144368943Y-64839774D01*
X144402176Y-64789933D01*
X144435445Y-64740182D01*
X144468751Y-64690520D01*
X144502094Y-64640946D01*
X144535473Y-64591462D01*
X144568889Y-64542066D01*
X144602341Y-64492759D01*
X144635830Y-64443541D01*
X144669355Y-64394412D01*
X144702917Y-64345370D01*
X144736514Y-64296418D01*
X144770148Y-64247554D01*
X144803818Y-64198778D01*
X144837525Y-64150090D01*
X144871268Y-64101491D01*
X144905046Y-64052979D01*
X144938861Y-64004556D01*
X144972712Y-63956221D01*
X145006599Y-63907973D01*
X145040521Y-63859814D01*
X145074480Y-63811742D01*
X145108475Y-63763758D01*
X145142505Y-63715862D01*
X145176571Y-63668053D01*
X145210673Y-63620332D01*
X145244811Y-63572698D01*
X145278985Y-63525152D01*
X145313194Y-63477693D01*
X145347438Y-63430321D01*
X145381719Y-63383037D01*
X145416035Y-63335840D01*
X145450386Y-63288729D01*
X145484773Y-63241706D01*
X145519195Y-63194770D01*
X145553652Y-63147921D01*
X145588145Y-63101158D01*
X145622674Y-63054482D01*
X145657237Y-63007893D01*
X145691836Y-62961391D01*
X145726470Y-62914975D01*
X145761139Y-62868646D01*
X145795844Y-62822403D01*
X145830583Y-62776246D01*
X145865357Y-62730176D01*
X145900167Y-62684193D01*
X145935011Y-62638295D01*
X145969891Y-62592483D01*
X146004805Y-62546758D01*
X146039754Y-62501119D01*
X146074738Y-62455565D01*
X146109757Y-62410098D01*
X146144810Y-62364716D01*
X146179899Y-62319420D01*
X146215022Y-62274210D01*
X146250179Y-62229086D01*
X146285372Y-62184047D01*
X146320598Y-62139094D01*
X146355860Y-62094226D01*
X146391156Y-62049444D01*
X146426486Y-62004747D01*
X146461851Y-61960135D01*
X146497250Y-61915609D01*
X146532683Y-61871168D01*
X146568151Y-61826812D01*
X146603653Y-61782541D01*
X146639190Y-61738355D01*
X146674760Y-61694254D01*
X146710365Y-61650238D01*
X146746004Y-61606307D01*
X146781677Y-61562461D01*
X146817384Y-61518699D01*
X146853125Y-61475022D01*
X146888900Y-61431430D01*
X146924709Y-61387923D01*
X146960552Y-61344500D01*
X146996429Y-61301161D01*
X147032340Y-61257907D01*
X147068285Y-61214738D01*
X147104263Y-61171652D01*
X147140275Y-61128651D01*
X147176321Y-61085734D01*
X147212400Y-61042902D01*
X147248513Y-61000153D01*
X147284660Y-60957489D01*
X147320841Y-60914908D01*
X147357054Y-60872411D01*
X147393302Y-60829999D01*
X147429583Y-60787670D01*
X147465897Y-60745425D01*
X147502245Y-60703264D01*
X147538626Y-60661186D01*
X147575040Y-60619193D01*
X147611488Y-60577282D01*
X147647968Y-60535456D01*
X147684483Y-60493712D01*
X147721030Y-60452053D01*
X147757610Y-60410476D01*
X147794224Y-60368983D01*
X147830870Y-60327574D01*
X147867550Y-60286247D01*
X147904263Y-60245004D01*
X147941008Y-60203844D01*
X147977787Y-60162767D01*
X148014598Y-60121773D01*
X148051442Y-60080862D01*
X148088320Y-60040035D01*
X148125230Y-59999290D01*
X148162172Y-59958628D01*
X148199148Y-59918048D01*
X148236156Y-59877552D01*
X148273196Y-59837138D01*
X148310270Y-59796807D01*
X148347376Y-59756559D01*
X148384514Y-59716393D01*
X148421685Y-59676310D01*
X148458888Y-59636310D01*
X148496124Y-59596391D01*
X148533392Y-59556556D01*
X148570693Y-59516802D01*
X148608026Y-59477131D01*
X148645391Y-59437543D01*
X148682789Y-59398036D01*
X148720218Y-59358612D01*
X148757680Y-59319270D01*
X148795174Y-59280010D01*
X148832700Y-59240832D01*
X148870258Y-59201737D01*
X148907849Y-59162723D01*
X148945471Y-59123791D01*
X148983125Y-59084941D01*
X149020811Y-59046173D01*
X149058529Y-59007487D01*
X149096279Y-58968883D01*
X149134061Y-58930360D01*
X149171874Y-58891920D01*
X149209719Y-58853560D01*
X149247596Y-58815283D01*
X149285505Y-58777087D01*
X149323445Y-58738973D01*
X149361416Y-58700940D01*
X149399420Y-58662989D01*
X149437455Y-58625119D01*
X149475521Y-58587331D01*
X149513619Y-58549624D01*
X149551748Y-58511998D01*
X149589908Y-58474454D01*
X149628100Y-58436991D01*
X149666323Y-58399609D01*
X149704578Y-58362309D01*
X149742863Y-58325089D01*
X149781180Y-58287951D01*
X149819528Y-58250894D01*
X149857907Y-58213918D01*
X149896317Y-58177023D01*
X149934759Y-58140209D01*
X149973231Y-58103476D01*
X150011734Y-58066823D01*
X150050268Y-58030252D01*
X150088833Y-57993762D01*
X150127428Y-57957352D01*
X150166055Y-57921024D01*
X150204712Y-57884776D01*
X150243400Y-57848609D01*
X150282119Y-57812522D01*
X150320868Y-57776516D01*
X150359648Y-57740591D01*
X150398458Y-57704747D01*
X150437299Y-57668983D01*
X150476171Y-57633300D01*
X150515072Y-57597697D01*
X150554005Y-57562175D01*
X150592967Y-57526733D01*
X150631960Y-57491372D01*
X150670983Y-57456091D01*
X150710037Y-57420890D01*
X150749120Y-57385770D01*
X150788234Y-57350730D01*
X150827378Y-57315771D01*
X150866552Y-57280891D01*
X150905755Y-57246093D01*
X150944989Y-57211374D01*
X150984253Y-57176735D01*
X151023547Y-57142177D01*
X151062870Y-57107699D01*
X151102224Y-57073301D01*
X151141607Y-57038983D01*
X151181020Y-57004745D01*
X151220462Y-56970588D01*
X151259934Y-56936510D01*
X151299436Y-56902512D01*
X151338967Y-56868595D01*
X151378528Y-56834757D01*
X151418118Y-56800999D01*
X151457738Y-56767321D01*
X151497387Y-56733723D01*
X151537065Y-56700206D01*
X151576773Y-56666767D01*
X151616510Y-56633409D01*
X151656276Y-56600131D01*
X151696071Y-56566932D01*
X151735895Y-56533813D01*
X151775748Y-56500774D01*
X151815630Y-56467815D01*
X151855542Y-56434935D01*
X151895482Y-56402136D01*
X151935451Y-56369415D01*
X151975448Y-56336775D01*
X152015475Y-56304214D01*
X152055530Y-56271733D01*
X152095614Y-56239332D01*
X152135726Y-56207010D01*
X152175867Y-56174767D01*
X152216037Y-56142605D01*
X152256235Y-56110522D01*
X152296461Y-56078518D01*
X152336716Y-56046594D01*
X152376999Y-56014750D01*
X152417310Y-55982985D01*
X152457649Y-55951299D01*
X152498017Y-55919693D01*
X152538413Y-55888167D01*
X152578837Y-55856720D01*
X152619288Y-55825352D01*
X152659768Y-55794064D01*
X152700275Y-55762855D01*
X152740811Y-55731726D01*
X152781374Y-55700676D01*
X152821965Y-55669706D01*
X152862583Y-55638815D01*
X152903229Y-55608003D01*
X152943903Y-55577271D01*
X152984604Y-55546618D01*
X153025333Y-55516044D01*
X153066089Y-55485550D01*
X153106872Y-55455135D01*
X153147682Y-55424800D01*
X153188520Y-55394544D01*
X153229385Y-55364367D01*
X153270277Y-55334269D01*
X153311196Y-55304251D01*
X153352142Y-55274312D01*
X153393115Y-55244453D01*
X153434114Y-55214672D01*
X153475141Y-55184971D01*
X153516194Y-55155350D01*
X153557274Y-55125807D01*
X153598380Y-55096344D01*
X153639513Y-55066960D01*
X153680672Y-55037656D01*
X153721858Y-55008430D01*
X153763070Y-54979284D01*
X153804309Y-54950218D01*
X153845573Y-54921230D01*
X153886864Y-54892322D01*
X153928181Y-54863493D01*
X153969523Y-54834743D01*
X154010892Y-54806073D01*
X154052287Y-54777482D01*
X154093707Y-54748970D01*
X154135153Y-54720538D01*
X154176625Y-54692184D01*
X154218122Y-54663911D01*
X154259645Y-54635716D01*
X154301193Y-54607601D01*
X154342766Y-54579565D01*
X154384365Y-54551608D01*
X154425989Y-54523730D01*
X154467638Y-54495932D01*
X154509313Y-54468214D01*
X154551012Y-54440574D01*
X154592736Y-54413014D01*
X154634485Y-54385533D01*
X154676259Y-54358132D01*
X154718057Y-54330810D01*
X154759880Y-54303567D01*
X154801727Y-54276404D01*
X154843599Y-54249320D01*
X154885495Y-54222315D01*
X154927416Y-54195390D01*
X154969360Y-54168544D01*
X155011329Y-54141778D01*
X155053322Y-54115091D01*
X155095338Y-54088484D01*
X155137379Y-54061956D01*
X155179443Y-54035507D01*
X155221531Y-54009138D01*
X155263643Y-53982848D01*
X155305777Y-53956638D01*
X155347936Y-53930508D01*
X155390117Y-53904457D01*
X155432322Y-53878485D01*
X155474550Y-53852594D01*
X155516801Y-53826781D01*
X155559075Y-53801049D01*
X155601372Y-53775396D01*
X155643691Y-53749822D01*
X155686033Y-53724328D01*
X155728398Y-53698914D01*
X155770785Y-53673580D01*
X155813194Y-53648325D01*
X155855626Y-53623150D01*
X155898080Y-53598055D01*
X155940555Y-53573039D01*
X155983053Y-53548104D01*
X156025573Y-53523248D01*
X156068114Y-53498472D01*
X156110677Y-53473776D01*
X156153261Y-53449159D01*
X156195867Y-53424623D01*
X156238493Y-53400166D01*
X156281142Y-53375790D01*
X156323811Y-53351493D01*
X156366501Y-53327276D01*
X156409212Y-53303140D01*
X156451943Y-53279083D01*
X156494695Y-53255107D01*
X156537468Y-53231210D01*
X156580261Y-53207394D01*
X156623074Y-53183658D01*
X156665907Y-53160002D01*
X156708761Y-53136426D01*
X156751634Y-53112931D01*
X156794526Y-53089515D01*
X156837439Y-53066181D01*
X156880371Y-53042926D01*
X156923322Y-53019752D01*
X156966292Y-52996658D01*
X157009281Y-52973644D01*
X157052290Y-52950711D01*
X157095317Y-52927859D01*
X157138363Y-52905087D01*
X157181427Y-52882395D01*
X157224510Y-52859784D01*
X157267611Y-52837254D01*
X157310730Y-52814805D01*
X157353867Y-52792436D01*
X157397021Y-52770147D01*
X157440194Y-52747940D01*
X157483383Y-52725813D01*
X157526591Y-52703768D01*
X157569815Y-52681803D01*
X157613056Y-52659919D01*
X157656315Y-52638116D01*
X157699590Y-52616394D01*
X157742881Y-52594753D01*
X157786189Y-52573193D01*
X157829513Y-52551714D01*
X157872854Y-52530316D01*
X157916210Y-52509000D01*
X157959582Y-52487765D01*
X158002969Y-52466611D01*
X158046372Y-52445538D01*
X158089790Y-52424547D01*
X158133223Y-52403637D01*
X158176671Y-52382809D01*
X158220133Y-52362062D01*
X158263610Y-52341397D01*
X158307102Y-52320813D01*
X158350607Y-52300311D01*
X158394127Y-52279891D01*
X158437660Y-52259552D01*
X158481206Y-52239296D01*
X158524766Y-52219121D01*
X158568339Y-52199028D01*
X158611925Y-52179017D01*
X158655524Y-52159088D01*
X158699135Y-52139241D01*
X158742759Y-52119476D01*
X158786395Y-52099793D01*
X158830042Y-52080193D01*
X158873701Y-52060675D01*
X158917372Y-52041239D01*
X158961054Y-52021885D01*
X159004747Y-52002614D01*
X159048451Y-51983426D01*
X159092165Y-51964320D01*
X159135890Y-51945296D01*
X159179624Y-51926355D01*
X159223369Y-51907497D01*
X159267123Y-51888722D01*
X159310887Y-51870030D01*
X159354659Y-51851420D01*
X159398441Y-51832894D01*
X159442231Y-51814450D01*
X159486029Y-51796090D01*
X159529836Y-51777813D01*
X159573650Y-51759619D01*
X159617472Y-51741508D01*
X159661301Y-51723480D01*
X159705138Y-51705536D01*
X159748981Y-51687676D01*
X159792830Y-51669899D01*
X159836686Y-51652206D01*
X159880547Y-51634596D01*
X159924414Y-51617070D01*
X159968287Y-51599628D01*
X160012164Y-51582270D01*
X160056047Y-51564996D01*
X160099933Y-51547805D01*
X160143824Y-51530699D01*
X160187718Y-51513677D01*
X160231616Y-51496740D01*
X160275518Y-51479886D01*
X160319421Y-51463117D01*
X160363328Y-51446433D01*
X160407236Y-51429833D01*
X160451147Y-51413317D01*
X160495059Y-51396887D01*
X160538972Y-51380541D01*
X160582885Y-51364280D01*
X160626799Y-51348104D01*
X160670713Y-51332013D01*
X160714627Y-51316007D01*
X160758540Y-51300086D01*
X160802452Y-51284251D01*
X160846363Y-51268501D01*
X160890272Y-51252836D01*
X160934178Y-51237257D01*
X160978082Y-51221763D01*
X161021983Y-51206355D01*
X161065880Y-51191033D01*
X161109773Y-51175797D01*
X161153662Y-51160646D01*
X161197547Y-51145582D01*
X161241426Y-51130604D01*
X161285299Y-51115712D01*
X161329167Y-51100906D01*
X161373028Y-51086187D01*
X161416881Y-51071554D01*
X161460728Y-51057007D01*
X161504566Y-51042548D01*
X161548397Y-51028175D01*
X161592218Y-51013889D01*
X161636030Y-50999690D01*
X161679831Y-50985578D01*
X161723623Y-50971553D01*
X161767403Y-50957616D01*
X161811173Y-50943765D01*
X161854930Y-50930002D01*
X161898674Y-50916327D01*
X161942406Y-50902740D01*
X161986123Y-50889240D01*
X162029827Y-50875828D01*
X162073515Y-50862504D01*
X162117189Y-50849268D01*
X162160846Y-50836120D01*
X162204487Y-50823060D01*
X162248110Y-50810089D01*
X162291716Y-50797206D01*
X162335303Y-50784412D01*
X162378871Y-50771707D01*
X162422419Y-50759090D01*
X162465947Y-50746562D01*
X162509453Y-50734124D01*
X162552938Y-50721774D01*
X162596400Y-50709514D01*
X162639839Y-50697343D01*
X162683254Y-50685262D01*
X162726644Y-50673270D01*
X162770009Y-50661368D01*
X162813347Y-50649556D01*
X162856659Y-50637834D01*
X162899942Y-50626202D01*
X162943197Y-50614660D01*
X162986423Y-50603208D01*
X163029618Y-50591847D01*
X163072782Y-50580577D01*
X163115914Y-50569397D01*
X163159013Y-50558308D01*
X163202079Y-50547310D01*
X163245109Y-50536403D01*
X163288104Y-50525587D01*
X163331063Y-50514863D01*
X163373984Y-50504230D01*
X163416866Y-50493689D01*
X163459709Y-50483239D01*
X163502511Y-50472882D01*
X163545272Y-50462616D01*
X163587990Y-50452443D01*
X163630664Y-50442361D01*
X163673293Y-50432373D01*
X163715876Y-50422476D01*
X163758412Y-50412673D01*
X163800900Y-50402962D01*
X163843338Y-50393345D01*
X163885726Y-50383820D01*
X163928061Y-50374389D01*
X163970343Y-50365051D01*
X164012570Y-50355807D01*
X164054742Y-50346656D01*
X164096856Y-50337600D01*
X164138911Y-50328637D01*
X164180907Y-50319769D01*
X164222840Y-50310995D01*
X164264711Y-50302315D01*
X164306517Y-50293730D01*
X164348257Y-50285240D01*
X164389929Y-50276845D01*
X164431531Y-50268545D01*
X164473063Y-50260340D01*
X164514522Y-50252231D01*
X164555906Y-50244218D01*
X164597213Y-50236300D01*
X164638443Y-50228478D01*
X164679593Y-50220752D01*
X164720660Y-50213122D01*
X164761644Y-50205589D01*
X164802541Y-50198153D01*
X164843350Y-50190813D01*
X164884069Y-50183571D01*
X164924696Y-50176425D01*
X164965228Y-50169377D01*
X165005662Y-50162427D01*
X165045997Y-50155574D01*
X165086230Y-50148819D01*
X165126359Y-50142162D01*
X165166380Y-50135603D01*
X165206292Y-50129143D01*
X165246091Y-50122781D01*
X165285775Y-50116519D01*
X165325340Y-50110355D01*
X165364784Y-50104290D01*
X165404103Y-50098325D01*
X165443295Y-50092460D01*
X165482355Y-50086694D01*
X165521281Y-50081029D01*
X165560069Y-50075463D01*
X165598715Y-50069999D01*
X165637215Y-50064634D01*
X165675565Y-50059371D01*
X165713762Y-50054209D01*
X165751800Y-50049148D01*
X165789676Y-50044188D01*
X165827385Y-50039330D01*
X165864922Y-50034574D01*
X165902282Y-50029921D01*
X165939461Y-50025370D01*
X165976451Y-50020921D01*
X166013249Y-50016575D01*
X166049847Y-50012333D01*
X166086240Y-50008193D01*
X166122422Y-50004158D01*
X166158385Y-50000226D01*
X166194123Y-49996398D01*
X166229627Y-49992674D01*
X166264891Y-49989055D01*
X166299905Y-49985541D01*
X166334662Y-49982132D01*
X166369152Y-49978828D01*
X166403365Y-49975630D01*
X166437291Y-49972538D01*
X166470918Y-49969552D01*
X166504236Y-49966672D01*
X166537231Y-49963899D01*
X166569891Y-49961233D01*
X166602201Y-49958674D01*
X166634145Y-49956222D01*
X166665707Y-49953878D01*
X166696869Y-49951643D01*
X166727611Y-49949515D01*
X166757912Y-49947497D01*
X166787748Y-49945587D01*
X166817094Y-49943786D01*
X166845921Y-49942095D01*
X166874197Y-49940514D01*
X166901887Y-49939043D01*
X166928949Y-49937682D01*
X166955336Y-49936432D01*
X166980997Y-49935293D01*
X167005866Y-49934265D01*
X167029869Y-49933348D01*
X167052915Y-49932543D01*
X167074890Y-49931850D01*
X167095648Y-49931268D01*
X167114991Y-49930798D01*
X167132642Y-49930439D01*
X167148162Y-49930190D01*
X167160762Y-49930047D01*
X167169000Y-49930000D01*
D10*
X167169000Y-49930000D02*
X167169000Y-116430000D01*
D11*
X133069000Y-113930000D02*
X133069010Y-113969422D01*
X133069040Y-114008814D01*
X133069090Y-114048177D01*
X133069160Y-114087510D01*
X133069250Y-114126814D01*
X133069359Y-114166088D01*
X133069489Y-114205332D01*
X133069639Y-114244547D01*
X133069808Y-114283732D01*
X133069998Y-114322888D01*
X133070207Y-114362014D01*
X133070436Y-114401111D01*
X133070685Y-114440178D01*
X133070953Y-114479217D01*
X133071242Y-114518225D01*
X133071550Y-114557204D01*
X133071878Y-114596153D01*
X133072226Y-114635074D01*
X133072593Y-114673964D01*
X133072980Y-114712826D01*
X133073387Y-114751658D01*
X133073814Y-114790461D01*
X133074260Y-114829235D01*
X133074726Y-114867979D01*
X133075211Y-114906694D01*
X133075716Y-114945380D01*
X133076241Y-114984036D01*
X133076786Y-115022664D01*
X133077350Y-115061262D01*
X133077933Y-115099831D01*
X133078536Y-115138371D01*
X133079159Y-115176882D01*
X133079801Y-115215363D01*
X133080463Y-115253816D01*
X133081144Y-115292239D01*
X133081844Y-115330633D01*
X133082564Y-115368998D01*
X133083304Y-115407335D01*
X133084063Y-115445641D01*
X133084841Y-115483920D01*
X133085639Y-115522169D01*
X133086456Y-115560389D01*
X133087293Y-115598580D01*
X133088149Y-115636742D01*
X133089024Y-115674875D01*
X133089919Y-115712980D01*
X133090833Y-115751055D01*
X133091766Y-115789102D01*
X133092719Y-115827120D01*
X133093690Y-115865109D01*
X133094681Y-115903069D01*
X133095692Y-115941000D01*
X133096721Y-115978902D01*
X133097770Y-116016776D01*
X133098838Y-116054621D01*
X133099925Y-116092437D01*
X133101032Y-116130224D01*
X133102157Y-116167983D01*
X133103302Y-116205713D01*
X133104466Y-116243415D01*
X133105649Y-116281087D01*
X133106851Y-116318732D01*
X133108072Y-116356347D01*
X133109312Y-116393934D01*
X133110571Y-116431492D01*
X133111849Y-116469022D01*
X133113147Y-116506522D01*
X133114463Y-116543995D01*
X133115798Y-116581439D01*
X133117153Y-116618855D01*
X133118526Y-116656241D01*
X133119918Y-116693600D01*
X133121330Y-116730930D01*
X133122760Y-116768232D01*
X133124209Y-116805505D01*
X133125677Y-116842750D01*
X133127164Y-116879966D01*
X133128669Y-116917154D01*
X133130194Y-116954313D01*
X133131737Y-116991445D01*
X133133300Y-117028548D01*
X133134881Y-117065623D01*
X133136481Y-117102669D01*
X133138099Y-117139687D01*
X133139737Y-117176676D01*
X133141393Y-117213638D01*
X133143068Y-117250571D01*
X133144762Y-117287477D01*
X133146474Y-117324353D01*
X133148205Y-117361202D01*
X133149955Y-117398023D01*
X133151724Y-117434815D01*
X133153511Y-117471579D01*
X133155317Y-117508316D01*
X133157141Y-117545024D01*
X133158984Y-117581704D01*
X133160846Y-117618356D01*
X133162726Y-117654980D01*
X133164625Y-117691575D01*
X133166542Y-117728143D01*
X133168478Y-117764683D01*
X133170433Y-117801195D01*
X133172406Y-117837679D01*
X133174397Y-117874135D01*
X133176407Y-117910563D01*
X133178436Y-117946963D01*
X133180483Y-117983335D01*
X133182548Y-118019679D01*
X133184632Y-118055996D01*
X133186735Y-118092284D01*
X133188855Y-118128545D01*
X133190995Y-118164778D01*
X133193152Y-118200983D01*
X133195328Y-118237160D01*
X133197522Y-118273310D01*
X133199735Y-118309432D01*
X133201966Y-118345526D01*
X133204215Y-118381592D01*
X133206483Y-118417631D01*
X133208768Y-118453642D01*
X133211073Y-118489625D01*
X133213395Y-118525581D01*
X133215736Y-118561509D01*
X133218094Y-118597409D01*
X133220472Y-118633282D01*
X133222867Y-118669127D01*
X133225280Y-118704945D01*
X133227712Y-118740735D01*
X133230162Y-118776497D01*
X133232630Y-118812232D01*
X133235116Y-118847940D01*
X133237620Y-118883620D01*
X133240143Y-118919272D01*
X133242683Y-118954898D01*
X133245242Y-118990495D01*
X133247818Y-119026065D01*
X133250413Y-119061608D01*
X133253026Y-119097124D01*
X133255657Y-119132612D01*
X133258305Y-119168072D01*
X133260972Y-119203506D01*
X133263657Y-119238912D01*
X133266360Y-119274290D01*
X133269080Y-119309642D01*
X133271819Y-119344966D01*
X133274576Y-119380263D01*
X133277350Y-119415532D01*
X133280143Y-119450775D01*
X133282953Y-119485990D01*
X133285781Y-119521178D01*
X133288628Y-119556339D01*
X133291492Y-119591472D01*
X133294373Y-119626579D01*
X133297273Y-119661658D01*
X133300191Y-119696710D01*
X133303126Y-119731735D01*
X133306079Y-119766733D01*
X133309050Y-119801704D01*
X133312038Y-119836648D01*
X133315045Y-119871565D01*
X133318069Y-119906455D01*
X133321111Y-119941318D01*
X133324170Y-119976154D01*
X133327248Y-120010963D01*
X133330343Y-120045745D01*
X133333455Y-120080500D01*
X133336586Y-120115228D01*
X133339733Y-120149929D01*
X133342899Y-120184603D01*
X133346082Y-120219251D01*
X133349283Y-120253871D01*
X133352501Y-120288465D01*
X133355737Y-120323032D01*
X133358991Y-120357572D01*
X133362262Y-120392085D01*
X133365551Y-120426572D01*
X133368857Y-120461032D01*
X133372181Y-120495465D01*
X133375522Y-120529871D01*
X133378881Y-120564251D01*
X133382257Y-120598604D01*
X133385650Y-120632930D01*
X133389062Y-120667229D01*
X133392490Y-120701502D01*
X133395936Y-120735748D01*
X133399400Y-120769968D01*
X133402880Y-120804161D01*
X133406379Y-120838327D01*
X133409894Y-120872467D01*
X133413427Y-120906581D01*
X133416977Y-120940668D01*
X133420545Y-120974728D01*
X133424130Y-121008762D01*
X133427732Y-121042769D01*
X133431352Y-121076750D01*
X133434989Y-121110704D01*
X133438643Y-121144632D01*
X133442314Y-121178533D01*
X133446003Y-121212409D01*
X133449709Y-121246257D01*
X133453432Y-121280080D01*
X133457172Y-121313875D01*
X133460929Y-121347645D01*
X133464704Y-121381388D01*
X133468496Y-121415105D01*
X133472305Y-121448796D01*
X133476131Y-121482461D01*
X133479974Y-121516099D01*
X133483835Y-121549711D01*
X133487712Y-121583296D01*
X133491607Y-121616856D01*
X133495519Y-121650389D01*
X133499448Y-121683896D01*
X133503394Y-121717377D01*
X133507356Y-121750832D01*
X133511336Y-121784260D01*
X133515333Y-121817663D01*
X133519347Y-121851039D01*
X133523378Y-121884389D01*
X133527426Y-121917713D01*
X133531491Y-121951012D01*
X133535573Y-121984283D01*
X133539672Y-122017530D01*
X133543788Y-122050750D01*
X133547921Y-122083944D01*
X133552070Y-122117112D01*
X133556237Y-122150254D01*
X133560420Y-122183370D01*
X133564620Y-122216460D01*
X133568838Y-122249525D01*
X133573072Y-122282563D01*
X133577322Y-122315576D01*
X133581590Y-122348562D01*
X133585875Y-122381523D01*
X133590176Y-122414458D01*
X133594494Y-122447367D01*
X133598829Y-122480251D01*
X133603180Y-122513108D01*
X133607549Y-122545940D01*
X133611934Y-122578746D01*
X133616336Y-122611526D01*
X133620754Y-122644281D01*
X133625190Y-122677010D01*
X133629642Y-122709713D01*
X133634110Y-122742391D01*
X133638595Y-122775042D01*
X133643097Y-122807669D01*
X133647616Y-122840269D01*
X133652151Y-122872844D01*
X133656703Y-122905393D01*
X133661272Y-122937917D01*
X133665857Y-122970415D01*
X133670458Y-123002888D01*
X133675077Y-123035335D01*
X133679711Y-123067756D01*
X133684363Y-123100152D01*
X133689031Y-123132523D01*
X133693715Y-123164868D01*
X133698416Y-123197188D01*
X133703133Y-123229482D01*
X133707867Y-123261751D01*
X133712618Y-123293994D01*
X133717385Y-123326212D01*
X133722168Y-123358404D01*
X133726968Y-123390572D01*
X133731784Y-123422713D01*
X133736616Y-123454830D01*
X133741465Y-123486921D01*
X133746331Y-123518987D01*
X133751213Y-123551027D01*
X133756111Y-123583043D01*
X133761025Y-123615033D01*
X133765956Y-123646998D01*
X133770903Y-123678937D01*
X133775867Y-123710852D01*
X133780847Y-123742741D01*
X133785843Y-123774605D01*
X133790855Y-123806443D01*
X133795884Y-123838257D01*
X133800929Y-123870046D01*
X133805990Y-123901809D01*
X133811068Y-123933547D01*
X133816161Y-123965261D01*
X133821271Y-123996949D01*
X133826398Y-124028612D01*
X133831540Y-124060250D01*
X133836698Y-124091863D01*
X133841873Y-124123451D01*
X133847064Y-124155014D01*
X133852271Y-124186552D01*
X133857494Y-124218066D01*
X133862733Y-124249553D01*
X133867989Y-124281017D01*
X133873260Y-124312455D01*
X133878548Y-124343869D01*
X133883852Y-124375257D01*
X133889172Y-124406621D01*
X133894507Y-124437959D01*
X133899859Y-124469274D01*
X133905227Y-124500562D01*
X133910611Y-124531827D01*
X133916011Y-124563066D01*
X133921427Y-124594281D01*
X133926859Y-124625471D01*
X133932307Y-124656636D01*
X133937771Y-124687777D01*
X133943251Y-124718893D01*
X133948747Y-124749983D01*
X133954258Y-124781050D01*
X133959786Y-124812091D01*
X133965330Y-124843109D01*
X133970889Y-124874101D01*
X133976465Y-124905069D01*
X133982056Y-124936012D01*
X133987663Y-124966931D01*
X133993286Y-124997824D01*
X133998925Y-125028694D01*
X134004580Y-125059539D01*
X134010250Y-125090359D01*
X134015937Y-125121155D01*
X134021639Y-125151927D01*
X134027357Y-125182673D01*
X134033091Y-125213396D01*
X134038840Y-125244093D01*
X134044605Y-125274767D01*
X134050386Y-125305416D01*
X134056183Y-125336041D01*
X134061996Y-125366641D01*
X134067824Y-125397217D01*
X134073668Y-125427768D01*
X134079527Y-125458295D01*
X134085403Y-125488798D01*
X134091294Y-125519277D01*
X134097200Y-125549730D01*
X134103123Y-125580161D01*
X134109060Y-125610566D01*
X134115014Y-125640948D01*
X134120983Y-125671304D01*
X134126968Y-125701637D01*
X134132968Y-125731946D01*
X134138985Y-125762230D01*
X134145016Y-125792490D01*
X134151063Y-125822727D01*
X134157126Y-125852938D01*
X134163204Y-125883126D01*
X134169298Y-125913290D01*
X134175407Y-125943430D01*
X134181532Y-125973544D01*
X134187672Y-126003636D01*
X134193828Y-126033703D01*
X134199999Y-126063747D01*
X134206186Y-126093765D01*
X134212388Y-126123761D01*
X134218606Y-126153732D01*
X134224839Y-126183680D01*
X134231088Y-126213602D01*
X134237352Y-126243502D01*
X134243631Y-126273377D01*
X134249926Y-126303229D01*
X134256236Y-126333055D01*
X134262561Y-126362860D01*
X134268902Y-126392639D01*
X134275259Y-126422395D01*
X134281630Y-126452126D01*
X134288017Y-126481835D01*
X134294419Y-126511519D01*
X134300837Y-126541180D01*
X134307270Y-126570816D01*
X134313718Y-126600429D01*
X134320181Y-126630018D01*
X134326660Y-126659584D01*
X134333154Y-126689125D01*
X134339664Y-126718643D01*
X134346188Y-126748137D01*
X134352728Y-126777608D01*
X134359283Y-126807054D01*
X134365853Y-126836478D01*
X134372438Y-126865877D01*
X134379039Y-126895253D01*
X134385654Y-126924605D01*
X134392286Y-126953934D01*
X134398931Y-126983238D01*
X134405593Y-127012520D01*
X134412269Y-127041778D01*
X134418961Y-127071013D01*
X134425667Y-127100223D01*
X134432389Y-127129411D01*
X134439126Y-127158574D01*
X134445878Y-127187715D01*
X134452645Y-127216831D01*
X134459427Y-127245925D01*
X134466224Y-127274994D01*
X134473036Y-127304042D01*
X134479864Y-127333064D01*
X134486706Y-127362064D01*
X134493563Y-127391040D01*
X134500436Y-127419994D01*
X134507323Y-127448923D01*
X134514225Y-127477830D01*
X134521142Y-127506712D01*
X134528075Y-127535572D01*
X134535022Y-127564408D01*
X134541984Y-127593222D01*
X134548961Y-127622011D01*
X134555954Y-127650778D01*
X134562960Y-127679520D01*
X134569983Y-127708241D01*
X134577019Y-127736937D01*
X134584071Y-127765612D01*
X134591138Y-127794261D01*
X134598219Y-127822889D01*
X134605315Y-127851493D01*
X134612427Y-127880075D01*
X134619553Y-127908632D01*
X134626694Y-127937167D01*
X134633849Y-127965678D01*
X134641020Y-127994168D01*
X134648205Y-128022632D01*
X134655406Y-128051076D01*
X134662620Y-128079494D01*
X134669850Y-128107892D01*
X134677094Y-128136264D01*
X134684354Y-128164616D01*
X134691628Y-128192942D01*
X134698917Y-128221248D01*
X134706220Y-128249528D01*
X134713538Y-128277788D01*
X134720871Y-128306023D01*
X134728219Y-128334236D01*
X134735581Y-128362426D01*
X134742958Y-128390593D01*
X134750350Y-128418737D01*
X134757756Y-128446859D01*
X134765177Y-128474957D01*
X134772613Y-128503033D01*
X134780063Y-128531085D01*
X134787528Y-128559116D01*
X134795008Y-128587123D01*
X134802502Y-128615108D01*
X134810011Y-128643069D01*
X134817534Y-128671009D01*
X134825072Y-128698924D01*
X134832625Y-128726819D01*
X134840192Y-128754689D01*
X134847774Y-128782538D01*
X134855370Y-128810363D01*
X134862981Y-128838167D01*
X134870606Y-128865946D01*
X134878246Y-128893705D01*
X134885900Y-128921439D01*
X134893569Y-128949152D01*
X134901252Y-128976842D01*
X134908950Y-129004510D01*
X134916662Y-129032154D01*
X134924389Y-129059777D01*
X134932130Y-129087376D01*
X134939886Y-129114954D01*
X134947656Y-129142508D01*
X134955441Y-129170041D01*
X134963239Y-129197550D01*
X134971053Y-129225038D01*
X134978881Y-129252502D01*
X134986723Y-129279946D01*
X134994579Y-129307365D01*
X135002451Y-129334764D01*
X135010336Y-129362138D01*
X135018236Y-129389492D01*
X135026149Y-129416822D01*
X135034078Y-129444131D01*
X135042020Y-129471416D01*
X135049978Y-129498681D01*
X135057949Y-129525921D01*
X135065935Y-129553141D01*
X135073935Y-129580337D01*
X135081949Y-129607513D01*
X135089977Y-129634664D01*
X135098020Y-129661795D01*
X135106077Y-129688902D01*
X135114149Y-129715989D01*
X135122234Y-129743052D01*
X135130334Y-129770094D01*
X135138448Y-129797112D01*
X135146577Y-129824110D01*
X135154719Y-129851084D01*
X135162876Y-129878038D01*
X135171047Y-129904968D01*
X135179232Y-129931877D01*
X135187431Y-129958763D01*
X135195645Y-129985628D01*
X135203872Y-130012470D01*
X135212114Y-130039291D01*
X135220370Y-130066089D01*
X135228640Y-130092866D01*
X135236924Y-130119620D01*
X135245223Y-130146353D01*
X135253535Y-130173063D01*
X135261862Y-130199752D01*
X135270202Y-130226418D01*
X135278557Y-130253064D01*
X135286926Y-130279685D01*
X135295309Y-130306287D01*
X135303705Y-130332865D01*
X135312117Y-130359423D01*
X135320541Y-130385958D01*
X135328981Y-130412472D01*
X135337434Y-130438963D01*
X135345901Y-130465434D01*
X135354382Y-130491881D01*
X135362878Y-130518308D01*
X135371386Y-130544711D01*
X135379910Y-130571095D01*
X135388447Y-130597455D01*
X135396998Y-130623796D01*
X135405563Y-130650112D01*
X135414142Y-130676409D01*
X135422735Y-130702682D01*
X135431342Y-130728936D01*
X135439963Y-130755165D01*
X135448598Y-130781376D01*
X135457246Y-130807562D01*
X135465910Y-130833729D01*
X135474586Y-130859872D01*
X135483277Y-130885996D01*
X135491981Y-130912096D01*
X135500699Y-130938177D01*
X135509431Y-130964234D01*
X135518177Y-130990272D01*
X135526937Y-131016285D01*
X135535711Y-131042280D01*
X135544498Y-131068251D01*
X135553300Y-131094202D01*
X135562114Y-131120130D01*
X135570944Y-131146039D01*
X135579786Y-131171924D01*
X135588643Y-131197790D01*
X135597513Y-131223632D01*
X135606398Y-131249455D01*
X135615295Y-131275254D01*
X135624208Y-131301035D01*
X135633133Y-131326791D01*
X135642072Y-131352529D01*
X135651025Y-131378242D01*
X135659992Y-131403937D01*
X135668972Y-131429609D01*
X135677967Y-131455261D01*
X135686974Y-131480890D01*
X135695997Y-131506499D01*
X135705032Y-131532085D01*
X135714081Y-131557653D01*
X135723143Y-131583196D01*
X135732220Y-131608721D01*
X135741310Y-131634222D01*
X135750414Y-131659705D01*
X135759531Y-131685163D01*
X135768663Y-131710604D01*
X135777807Y-131736020D01*
X135786966Y-131761418D01*
X135796138Y-131786792D01*
X135805324Y-131812148D01*
X135814522Y-131837480D01*
X135823736Y-131862793D01*
X135832962Y-131888083D01*
X135842202Y-131913354D01*
X135851456Y-131938602D01*
X135860723Y-131963831D01*
X135870004Y-131989037D01*
X135879299Y-132014224D01*
X135888606Y-132039388D01*
X135897928Y-132064533D01*
X135907263Y-132089654D01*
X135916612Y-132114758D01*
X135925973Y-132139838D01*
X135935349Y-132164899D01*
X135944738Y-132189937D01*
X135954141Y-132214957D01*
X135963557Y-132239953D01*
X135972987Y-132264931D01*
X135982430Y-132289885D01*
X135991887Y-132314821D01*
X136001357Y-132339734D01*
X136010841Y-132364628D01*
X136020337Y-132389499D01*
X136029848Y-132414352D01*
X136039372Y-132439182D01*
X136048910Y-132463993D01*
X136058460Y-132488781D01*
X136068025Y-132513551D01*
X136077602Y-132538297D01*
X136087194Y-132563026D01*
X136096798Y-132587730D01*
X136106416Y-132612417D01*
X136116047Y-132637081D01*
X136125692Y-132661727D01*
X136135350Y-132686349D01*
X136145022Y-132710953D01*
X136154706Y-132735534D01*
X136164405Y-132760097D01*
X136174116Y-132784637D01*
X136183841Y-132809159D01*
X136193579Y-132833657D01*
X136203331Y-132858138D01*
X136213095Y-132882596D01*
X136222874Y-132907035D01*
X136232665Y-132931452D01*
X136242471Y-132955850D01*
X136252288Y-132980226D01*
X136262120Y-133004583D01*
X136271964Y-133028917D01*
X136281823Y-133053234D01*
X136291694Y-133077528D01*
X136301579Y-133101803D01*
X136311476Y-133126056D01*
X136321388Y-133150291D01*
X136331312Y-133174502D01*
X136341250Y-133198697D01*
X136351200Y-133222867D01*
X136361165Y-133247021D01*
X136371141Y-133271151D01*
X136381132Y-133295264D01*
X136391136Y-133319353D01*
X136401153Y-133343425D01*
X136411183Y-133367474D01*
X136421227Y-133391506D01*
X136431282Y-133415514D01*
X136441353Y-133439505D01*
X136451435Y-133463473D01*
X136461532Y-133487423D01*
X136471640Y-133511350D01*
X136481763Y-133535260D01*
X136491898Y-133559147D01*
X136502047Y-133583017D01*
X136512209Y-133606863D01*
X136522384Y-133630692D01*
X136532572Y-133654499D01*
X136542774Y-133678288D01*
X136552987Y-133702053D01*
X136563215Y-133725802D01*
X136573455Y-133749528D01*
X136583709Y-133773236D01*
X136593975Y-133796922D01*
X136604256Y-133820590D01*
X136614548Y-133844235D01*
X136624855Y-133867864D01*
X136635173Y-133891469D01*
X136645506Y-133915057D01*
X136655850Y-133938622D01*
X136666209Y-133962170D01*
X136676580Y-133985695D01*
X136686965Y-134009204D01*
X136697361Y-134032689D01*
X136707772Y-134056157D01*
X136718195Y-134079603D01*
X136728632Y-134103031D01*
X136739081Y-134126437D01*
X136749544Y-134149825D01*
X136760019Y-134173191D01*
X136770508Y-134196540D01*
X136781009Y-134219866D01*
X136791524Y-134243175D01*
X136802050Y-134266461D01*
X136812591Y-134289731D01*
X136823144Y-134312977D01*
X136833711Y-134336207D01*
X136844289Y-134359414D01*
X136854882Y-134382605D01*
X136865487Y-134405772D01*
X136876106Y-134428923D01*
X136886736Y-134452051D01*
X136897380Y-134475162D01*
X136908037Y-134498250D01*
X136918707Y-134521322D01*
X136929389Y-134544371D01*
X136940085Y-134567404D01*
X136950793Y-134590414D01*
X136961515Y-134613407D01*
X136972249Y-134636377D01*
X136982997Y-134659331D01*
X136993756Y-134682262D01*
X137004530Y-134705177D01*
X137015315Y-134728069D01*
X137026114Y-134750944D01*
X137036925Y-134773797D01*
X137047750Y-134796633D01*
X137058586Y-134819447D01*
X137069437Y-134842244D01*
X137080299Y-134865018D01*
X137091176Y-134887777D01*
X137102064Y-134910512D01*
X137112966Y-134933231D01*
X137123879Y-134955927D01*
X137134807Y-134978608D01*
X137145746Y-135001265D01*
X137156700Y-135023907D01*
X137167664Y-135046525D01*
X137178643Y-135069128D01*
X137189633Y-135091707D01*
X137200638Y-135114271D01*
X137211654Y-135136812D01*
X137222684Y-135159337D01*
X137233725Y-135181839D01*
X137255848Y-135226788D01*
X137278021Y-135271660D01*
X137300246Y-135316455D01*
X137322522Y-135361173D01*
X137344848Y-135405814D01*
X137367225Y-135450377D01*
X137389653Y-135494864D01*
X137412132Y-135539274D01*
X137434662Y-135583607D01*
X137457242Y-135627864D01*
X137479873Y-135672044D01*
X137502555Y-135716147D01*
X137525288Y-135760174D01*
X137548070Y-135804125D01*
X137570904Y-135848000D01*
X137593788Y-135891799D01*
X137616722Y-135935521D01*
X137639707Y-135979168D01*
X137662743Y-136022739D01*
X137685828Y-136066234D01*
X137708964Y-136109653D01*
X137732151Y-136152997D01*
X137755387Y-136196266D01*
X137778674Y-136239459D01*
X137802011Y-136282576D01*
X137825398Y-136325619D01*
X137848836Y-136368586D01*
X137872323Y-136411478D01*
X137895861Y-136454295D01*
X137919448Y-136497038D01*
X137943086Y-136539705D01*
X137966774Y-136582298D01*
X137990511Y-136624816D01*
X138014299Y-136667260D01*
X138038136Y-136709629D01*
X138062023Y-136751924D01*
X138085961Y-136794144D01*
X138109947Y-136836291D01*
X138133984Y-136878363D01*
X138158071Y-136920361D01*
X138182207Y-136962285D01*
X138206393Y-137004135D01*
X138230628Y-137045912D01*
X138254913Y-137087614D01*
X138279248Y-137129243D01*
X138303633Y-137170799D01*
X138328067Y-137212281D01*
X138352550Y-137253689D01*
X138377083Y-137295025D01*
X138401666Y-137336287D01*
X138426298Y-137377475D01*
X138450979Y-137418591D01*
X138475710Y-137459634D01*
X138500490Y-137500604D01*
X138525319Y-137541501D01*
X138550198Y-137582325D01*
X138575127Y-137623076D01*
X138600104Y-137663755D01*
X138625131Y-137704362D01*
X138650207Y-137744896D01*
X138675332Y-137785357D01*
X138700506Y-137825746D01*
X138725730Y-137866063D01*
X138751003Y-137906308D01*
X138776324Y-137946481D01*
X138801695Y-137986582D01*
X138827115Y-138026611D01*
X138852584Y-138066568D01*
X138878103Y-138106453D01*
X138903670Y-138146266D01*
X138929286Y-138186008D01*
X138954951Y-138225679D01*
X138980665Y-138265277D01*
X139006428Y-138304805D01*
X139032240Y-138344261D01*
X139058101Y-138383646D01*
X139084011Y-138422960D01*
X139109970Y-138462202D01*
X139135977Y-138501374D01*
X139162033Y-138540474D01*
X139188139Y-138579504D01*
X139214292Y-138618463D01*
X139240495Y-138657351D01*
X139266747Y-138696169D01*
X139293047Y-138734915D01*
X139319396Y-138773592D01*
X139345794Y-138812197D01*
X139372240Y-138850733D01*
X139398735Y-138889198D01*
X139425279Y-138927593D01*
X139451871Y-138965917D01*
X139478512Y-139004172D01*
X139505202Y-139042356D01*
X139531940Y-139080471D01*
X139558727Y-139118515D01*
X139585562Y-139156490D01*
X139612446Y-139194395D01*
X139639378Y-139232230D01*
X139666360Y-139269996D01*
X139693389Y-139307692D01*
X139720467Y-139345318D01*
X139747594Y-139382875D01*
X139774769Y-139420363D01*
X139801992Y-139457781D01*
X139829264Y-139495130D01*
X139856585Y-139532410D01*
X139883954Y-139569620D01*
X139911371Y-139606762D01*
X139938837Y-139643834D01*
X139966351Y-139680838D01*
X139993913Y-139717773D01*
X140021524Y-139754639D01*
X140049183Y-139791436D01*
X140076891Y-139828164D01*
X140104647Y-139864824D01*
X140132451Y-139901416D01*
X140160304Y-139937938D01*
X140188205Y-139974393D01*
X140216154Y-140010779D01*
X140244152Y-140047096D01*
X140272198Y-140083346D01*
X140300292Y-140119527D01*
X140328435Y-140155640D01*
X140356625Y-140191685D01*
X140384865Y-140227662D01*
X140413152Y-140263571D01*
X140441487Y-140299412D01*
X140469871Y-140335185D01*
X140498303Y-140370890D01*
X140526784Y-140406528D01*
X140555312Y-140442098D01*
X140583889Y-140477600D01*
X140612514Y-140513035D01*
X140641187Y-140548402D01*
X140669908Y-140583702D01*
X140698678Y-140618934D01*
X140727496Y-140654099D01*
X140756362Y-140689197D01*
X140785276Y-140724227D01*
X140814238Y-140759191D01*
X140843249Y-140794087D01*
X140872308Y-140828916D01*
X140901415Y-140863678D01*
X140930570Y-140898373D01*
X140959773Y-140933001D01*
X140989024Y-140967562D01*
X141018324Y-141002057D01*
X141047672Y-141036484D01*
X141077068Y-141070845D01*
X141106512Y-141105140D01*
X141136004Y-141139367D01*
X141165544Y-141173528D01*
X141195133Y-141207623D01*
X141224769Y-141241651D01*
X141254454Y-141275613D01*
X141284187Y-141309508D01*
X141313968Y-141343337D01*
X141343797Y-141377099D01*
X141373675Y-141410796D01*
X141403600Y-141444426D01*
X141433574Y-141477990D01*
X141463596Y-141511488D01*
X141493665Y-141544920D01*
X141523784Y-141578286D01*
X141553950Y-141611586D01*
X141584164Y-141644820D01*
X141614427Y-141677989D01*
X141644737Y-141711091D01*
X141675096Y-141744128D01*
X141705503Y-141777099D01*
X141735958Y-141810004D01*
X141766461Y-141842843D01*
X141797013Y-141875617D01*
X141827612Y-141908326D01*
X141858260Y-141940969D01*
X141888956Y-141973546D01*
X141919700Y-142006058D01*
X141950492Y-142038505D01*
X141981332Y-142070886D01*
X142012221Y-142103202D01*
X142043158Y-142135452D01*
X142074143Y-142167638D01*
X142105176Y-142199758D01*
X142136257Y-142231813D01*
X142167386Y-142263803D01*
X142198564Y-142295728D01*
X142229790Y-142327587D01*
X142261064Y-142359382D01*
X142292386Y-142391112D01*
X142323757Y-142422777D01*
X142355175Y-142454377D01*
X142386642Y-142485912D01*
X142418157Y-142517382D01*
X142449720Y-142548787D01*
X142481332Y-142580128D01*
X142512992Y-142611404D01*
X142544700Y-142642615D01*
X142576456Y-142673762D01*
X142608261Y-142704844D01*
X142640113Y-142735861D01*
X142672015Y-142766814D01*
X142703964Y-142797702D01*
X142735962Y-142828526D01*
X142768007Y-142859285D01*
X142800102Y-142889980D01*
X142832244Y-142920611D01*
X142864435Y-142951177D01*
X142896674Y-142981679D01*
X142928961Y-143012116D01*
X142961297Y-143042489D01*
X142993681Y-143072798D01*
X143026114Y-143103043D01*
X143058594Y-143133223D01*
X143091123Y-143163339D01*
X143123701Y-143193392D01*
X143156327Y-143223380D01*
X143189001Y-143253303D01*
X143221723Y-143283163D01*
X143254494Y-143312959D01*
X143287314Y-143342691D01*
X143320181Y-143372358D01*
X143353098Y-143401962D01*
X143386062Y-143431502D01*
X143419075Y-143460978D01*
X143452137Y-143490390D01*
X143485246Y-143519738D01*
X143518405Y-143549022D01*
X143551612Y-143578243D01*
X143584867Y-143607399D01*
X143618170Y-143636492D01*
X143651523Y-143665521D01*
X143684923Y-143694486D01*
X143718373Y-143723388D01*
X143751870Y-143752226D01*
X143785416Y-143781000D01*
X143819011Y-143809711D01*
X143852654Y-143838357D01*
X143886346Y-143866940D01*
X143920087Y-143895460D01*
X143953876Y-143923916D01*
X143987713Y-143952308D01*
X144021599Y-143980637D01*
X144055534Y-144008902D01*
X144089517Y-144037104D01*
X144123549Y-144065242D01*
X144157629Y-144093317D01*
X144191758Y-144121328D01*
X144225936Y-144149276D01*
X144260162Y-144177160D01*
X144294437Y-144204981D01*
X144328761Y-144232738D01*
X144363133Y-144260432D01*
X144397554Y-144288062D01*
X144432024Y-144315629D01*
X144466542Y-144343133D01*
X144501109Y-144370573D01*
X144535725Y-144397950D01*
X144570389Y-144425263D01*
X144605103Y-144452514D01*
X144639864Y-144479700D01*
X144674675Y-144506824D01*
X144709534Y-144533884D01*
X144744443Y-144560881D01*
X144779399Y-144587814D01*
X144814405Y-144614684D01*
X144849460Y-144641491D01*
X144884563Y-144668235D01*
X144919715Y-144694915D01*
X144954916Y-144721532D01*
X144990165Y-144748086D01*
X145025464Y-144774576D01*
X145060811Y-144801003D01*
X145096207Y-144827367D01*
X145131652Y-144853668D01*
X145167146Y-144879905D01*
X145202689Y-144906079D01*
X145238280Y-144932190D01*
X145273921Y-144958237D01*
X145309610Y-144984222D01*
X145345348Y-145010143D01*
X145381136Y-145036000D01*
X145416972Y-145061795D01*
X145452856Y-145087526D01*
X145488790Y-145113194D01*
X145524773Y-145138799D01*
X145560805Y-145164340D01*
X145596885Y-145189818D01*
X145633015Y-145215233D01*
X145669193Y-145240585D01*
X145705421Y-145265873D01*
X145741697Y-145291098D01*
X145778023Y-145316260D01*
X145814397Y-145341358D01*
X145850820Y-145366394D01*
X145887293Y-145391365D01*
X145923814Y-145416274D01*
X145960384Y-145441119D01*
X145997004Y-145465901D01*
X146033672Y-145490620D01*
X146070389Y-145515275D01*
X146107155Y-145539867D01*
X146143971Y-145564395D01*
X146180835Y-145588860D01*
X146217748Y-145613262D01*
X146254711Y-145637601D01*
X146291722Y-145661876D01*
X146328782Y-145686087D01*
X146365892Y-145710235D01*
X146403050Y-145734320D01*
X146440258Y-145758341D01*
X146477514Y-145782299D01*
X146514820Y-145806193D01*
X146552174Y-145830024D01*
X146589578Y-145853791D01*
X146627030Y-145877495D01*
X146664532Y-145901135D01*
X146702083Y-145924712D01*
X146739682Y-145948225D01*
X146777331Y-145971675D01*
X146815029Y-145995061D01*
X146852776Y-146018383D01*
X146890572Y-146041642D01*
X146928417Y-146064837D01*
X146966311Y-146087968D01*
X147004254Y-146111036D01*
X147042246Y-146134040D01*
X147080287Y-146156980D01*
X147118377Y-146179857D01*
X147156516Y-146202669D01*
X147194704Y-146225418D01*
X147232941Y-146248103D01*
X147271227Y-146270725D01*
X147309562Y-146293282D01*
X147347946Y-146315776D01*
X147386379Y-146338205D01*
X147424861Y-146360571D01*
X147463392Y-146382873D01*
X147501972Y-146405110D01*
X147540601Y-146427284D01*
X147579279Y-146449394D01*
X147618005Y-146471439D01*
X147656781Y-146493421D01*
X147695606Y-146515338D01*
X147734479Y-146537191D01*
X147773402Y-146558981D01*
X147812373Y-146580705D01*
X147851393Y-146602366D01*
X147890462Y-146623963D01*
X147929580Y-146645495D01*
X147968747Y-146666962D01*
X148007962Y-146688366D01*
X148047227Y-146709705D01*
X148086540Y-146730980D01*
X148125902Y-146752190D01*
X148165313Y-146773336D01*
X148204772Y-146794417D01*
X148244281Y-146815433D01*
X148283838Y-146836385D01*
X148323443Y-146857273D01*
X148363098Y-146878096D01*
X148402801Y-146898854D01*
X148442552Y-146919547D01*
X148482353Y-146940176D01*
X148522201Y-146960740D01*
X148562099Y-146981239D01*
X148602045Y-147001673D01*
X148642040Y-147022042D01*
X148682083Y-147042346D01*
X148722174Y-147062585D01*
X148762314Y-147082760D01*
X148802503Y-147102869D01*
X148842740Y-147122913D01*
X148883025Y-147142892D01*
X148923359Y-147162806D01*
X148963741Y-147182654D01*
X149004171Y-147202437D01*
X149044650Y-147222155D01*
X149085176Y-147241808D01*
X149125751Y-147261395D01*
X149166375Y-147280916D01*
X149207046Y-147300373D01*
X149247765Y-147319763D01*
X149288533Y-147339088D01*
X149329349Y-147358348D01*
X149370212Y-147377541D01*
X149411124Y-147396669D01*
X149452083Y-147415731D01*
X149493091Y-147434728D01*
X149534146Y-147453658D01*
X149575249Y-147472523D01*
X149616400Y-147491322D01*
X149657599Y-147510054D01*
X149698845Y-147528721D01*
X149740139Y-147547321D01*
X149781480Y-147565855D01*
X149822870Y-147584323D01*
X149864306Y-147602725D01*
X149905790Y-147621060D01*
X149947322Y-147639329D01*
X149988900Y-147657532D01*
X150030527Y-147675668D01*
X150072200Y-147693738D01*
X150113921Y-147711741D01*
X150155688Y-147729677D01*
X150197503Y-147747546D01*
X150239365Y-147765349D01*
X150281274Y-147783085D01*
X150323229Y-147800754D01*
X150365232Y-147818356D01*
X150407281Y-147835892D01*
X150449378Y-147853360D01*
X150491520Y-147870761D01*
X150533710Y-147888095D01*
X150575946Y-147905361D01*
X150618228Y-147922560D01*
X150660557Y-147939692D01*
X150702932Y-147956757D01*
X150745353Y-147973754D01*
X150787821Y-147990683D01*
X150830334Y-148007545D01*
X150872894Y-148024340D01*
X150915500Y-148041066D01*
X150958151Y-148057725D01*
X151000849Y-148074316D01*
X151043592Y-148090839D01*
X151086380Y-148107293D01*
X151129214Y-148123680D01*
X151172094Y-148139999D01*
X151215019Y-148156250D01*
X151257989Y-148172432D01*
X151301005Y-148188546D01*
X151344065Y-148204592D01*
X151387171Y-148220569D01*
X151430322Y-148236477D01*
X151473517Y-148252317D01*
X151516757Y-148268089D01*
X151560041Y-148283791D01*
X151603371Y-148299425D01*
X151646744Y-148314990D01*
X151690162Y-148330486D01*
X151733624Y-148345913D01*
X151777130Y-148361271D01*
X151820680Y-148376560D01*
X151864274Y-148391779D01*
X151907911Y-148406929D01*
X151951593Y-148422010D01*
X151995317Y-148437021D01*
X152039085Y-148451963D01*
X152082897Y-148466835D01*
X152126751Y-148481638D01*
X152170649Y-148496370D01*
X152214589Y-148511033D01*
X152258572Y-148525626D01*
X152302598Y-148540149D01*
X152346666Y-148554602D01*
X152390776Y-148568985D01*
X152434929Y-148583297D01*
X152479123Y-148597539D01*
X152523360Y-148611711D01*
X152567638Y-148625812D01*
X152611958Y-148639843D01*
X152656319Y-148653803D01*
X152700721Y-148667693D01*
X152745165Y-148681511D01*
X152789649Y-148695259D01*
X152834175Y-148708936D01*
X152878741Y-148722542D01*
X152923347Y-148736076D01*
X152967994Y-148749540D01*
X153012680Y-148762932D01*
X153057407Y-148776253D01*
X153102173Y-148789502D01*
X153146979Y-148802680D01*
X153191825Y-148815786D01*
X153236709Y-148828820D01*
X153281633Y-148841783D01*
X153326595Y-148854673D01*
X153371596Y-148867492D01*
X153416635Y-148880239D01*
X153461713Y-148892913D01*
X153506828Y-148905516D01*
X153551981Y-148918046D01*
X153597172Y-148930503D01*
X153642400Y-148942888D01*
X153687665Y-148955201D01*
X153732967Y-148967440D01*
X153778306Y-148979607D01*
X153823681Y-148991701D01*
X153869093Y-149003722D01*
X153914540Y-149015671D01*
X153960023Y-149027545D01*
X154005541Y-149039347D01*
X154051095Y-149051076D01*
X154096683Y-149062731D01*
X154142306Y-149074312D01*
X154187964Y-149085820D01*
X154233655Y-149097254D01*
X154279381Y-149108614D01*
X154325140Y-149119901D01*
X154370932Y-149131114D01*
X154416758Y-149142252D01*
X154462616Y-149153316D01*
X154508506Y-149164306D01*
X154554429Y-149175222D01*
X154600383Y-149186063D01*
X154646369Y-149196830D01*
X154692387Y-149207522D01*
X154738435Y-149218139D01*
X154784513Y-149228682D01*
X154830622Y-149239149D01*
X154876761Y-149249542D01*
X154922929Y-149259859D01*
X154969126Y-149270101D01*
X155015353Y-149280268D01*
X155061607Y-149290360D01*
X155107890Y-149300375D01*
X155154201Y-149310316D01*
X155200539Y-149320180D01*
X155246904Y-149329969D01*
X155293295Y-149339682D01*
X155339713Y-149349319D01*
X155386156Y-149358880D01*
X155432625Y-149368364D01*
X155479119Y-149377772D01*
X155525638Y-149387104D01*
X155572180Y-149396360D01*
X155618747Y-149405538D01*
X155665336Y-149414640D01*
X155711949Y-149423666D01*
X155758583Y-149432614D01*
X155805240Y-149441485D01*
X155851918Y-149450280D01*
X155898617Y-149458997D01*
X155945336Y-149467636D01*
X155992076Y-149476199D01*
X156038835Y-149484684D01*
X156085612Y-149493091D01*
X156132409Y-149501421D01*
X156179223Y-149509673D01*
X156226054Y-149517847D01*
X156272903Y-149525942D01*
X156319767Y-149533960D01*
X156366648Y-149541900D01*
X156413543Y-149549762D01*
X156460453Y-149557545D01*
X156507377Y-149565249D01*
X156554315Y-149572875D01*
X156601265Y-149580422D01*
X156648227Y-149587891D01*
X156695201Y-149595281D01*
X156742186Y-149602592D01*
X156789181Y-149609823D01*
X156836185Y-149616976D01*
X156883199Y-149624049D01*
X156930220Y-149631043D01*
X156977250Y-149637958D01*
X157024286Y-149644793D01*
X157071328Y-149651548D01*
X157118375Y-149658224D01*
X157165427Y-149664820D01*
X157212483Y-149671336D01*
X157259542Y-149677772D01*
X157306603Y-149684128D01*
X157353666Y-149690404D01*
X157400730Y-149696599D01*
X157447793Y-149702715D01*
X157494856Y-149708750D01*
X157541916Y-149714704D01*
X157588974Y-149720578D01*
X157636029Y-149726371D01*
X157683079Y-149732083D01*
X157730124Y-149737715D01*
X157777163Y-149743265D01*
X157824195Y-149748735D01*
X157871219Y-149754124D01*
X157918233Y-149759431D01*
X157965238Y-149764658D01*
X158012232Y-149769803D01*
X158059213Y-149774866D01*
X158106182Y-149779849D01*
X158153137Y-149784749D01*
X158200076Y-149789569D01*
X158247000Y-149794306D01*
X158293907Y-149798962D01*
X158340795Y-149803537D01*
X158387664Y-149808029D01*
X158434512Y-149812440D01*
X158481339Y-149816769D01*
X158528143Y-149821016D01*
X158574923Y-149825180D01*
X158621678Y-149829263D01*
X158668407Y-149833264D01*
X158715109Y-149837183D01*
X158761783Y-149841020D01*
X158808426Y-149844774D01*
X158855039Y-149848447D01*
X158901619Y-149852037D01*
X158948167Y-149855545D01*
X158994680Y-149858971D01*
X159041157Y-149862315D01*
X159087598Y-149865576D01*
X159134000Y-149868755D01*
X159180364Y-149871853D01*
X159226688Y-149874867D01*
X159272970Y-149877800D01*
X159319210Y-149880651D01*
X159365408Y-149883420D01*
X159411561Y-149886106D01*
X159457669Y-149888711D01*
X159503731Y-149891234D01*
X159549747Y-149893674D01*
X159595717Y-149896034D01*
X159641639Y-149898311D01*
X159687514Y-149900507D01*
X159733341Y-149902622D01*
X159779122Y-149904655D01*
X159824856Y-149906607D01*
X159870544Y-149908478D01*
X159916188Y-149910268D01*
X159961790Y-149911978D01*
X160007351Y-149913607D01*
X160052876Y-149915156D01*
X160098368Y-149916625D01*
X160143832Y-149918014D01*
X160189275Y-149919324D01*
X160234704Y-149920555D01*
X160280129Y-149921708D01*
X160325563Y-149922782D01*
X160371021Y-149923778D01*
X160416524Y-149924697D01*
X160462094Y-149925539D01*
X160507765Y-149926305D01*
X160553576Y-149926996D01*
X160599581Y-149927611D01*
X160645852Y-149928153D01*
X160692486Y-149928622D01*
X160739620Y-149929019D01*
X160787452Y-149929345D01*
X160836290Y-149929602D01*
X160886640Y-149929792D01*
X160939428Y-149929918D01*
X160996695Y-149929984D01*
X161069000Y-149930000D01*
X203069000Y-113930000D02*
X203068990Y-113969422D01*
X203068960Y-114008814D01*
X203068910Y-114048177D01*
X203068840Y-114087510D01*
X203068750Y-114126814D01*
X203068641Y-114166088D01*
X203068511Y-114205332D01*
X203068361Y-114244547D01*
X203068192Y-114283732D01*
X203068002Y-114322888D01*
X203067793Y-114362014D01*
X203067564Y-114401111D01*
X203067315Y-114440178D01*
X203067047Y-114479217D01*
X203066758Y-114518225D01*
X203066450Y-114557204D01*
X203066122Y-114596153D01*
X203065774Y-114635074D01*
X203065407Y-114673964D01*
X203065020Y-114712826D01*
X203064613Y-114751658D01*
X203064186Y-114790461D01*
X203063740Y-114829235D01*
X203063274Y-114867979D01*
X203062789Y-114906694D01*
X203062284Y-114945380D01*
X203061759Y-114984036D01*
X203061214Y-115022664D01*
X203060650Y-115061262D01*
X203060067Y-115099831D01*
X203059464Y-115138371D01*
X203058841Y-115176882D01*
X203058199Y-115215363D01*
X203057537Y-115253816D01*
X203056856Y-115292239D01*
X203056156Y-115330633D01*
X203055436Y-115368998D01*
X203054696Y-115407335D01*
X203053937Y-115445641D01*
X203053159Y-115483920D01*
X203052361Y-115522169D01*
X203051544Y-115560389D01*
X203050707Y-115598580D01*
X203049851Y-115636742D01*
X203048976Y-115674875D01*
X203048081Y-115712980D01*
X203047167Y-115751055D01*
X203046234Y-115789102D01*
X203045281Y-115827120D01*
X203044310Y-115865109D01*
X203043319Y-115903069D01*
X203042308Y-115941000D01*
X203041279Y-115978902D01*
X203040230Y-116016776D01*
X203039162Y-116054621D01*
X203038075Y-116092437D01*
X203036968Y-116130224D01*
X203035843Y-116167983D01*
X203034698Y-116205713D01*
X203033534Y-116243415D01*
X203032351Y-116281087D01*
X203031149Y-116318732D01*
X203029928Y-116356347D01*
X203028688Y-116393934D01*
X203027429Y-116431492D01*
X203026151Y-116469022D01*
X203024853Y-116506522D01*
X203023537Y-116543995D01*
X203022202Y-116581439D01*
X203020847Y-116618855D01*
X203019474Y-116656241D01*
X203018082Y-116693600D01*
X203016670Y-116730930D01*
X203015240Y-116768232D01*
X203013791Y-116805505D01*
X203012323Y-116842750D01*
X203010836Y-116879966D01*
X203009331Y-116917154D01*
X203007806Y-116954313D01*
X203006263Y-116991445D01*
X203004700Y-117028548D01*
X203003119Y-117065623D01*
X203001519Y-117102669D01*
X202999901Y-117139687D01*
X202998263Y-117176676D01*
X202996607Y-117213638D01*
X202994932Y-117250571D01*
X202993238Y-117287477D01*
X202991526Y-117324353D01*
X202989795Y-117361202D01*
X202988045Y-117398023D01*
X202986276Y-117434815D01*
X202984489Y-117471579D01*
X202982683Y-117508316D01*
X202980859Y-117545024D01*
X202979016Y-117581704D01*
X202977154Y-117618356D01*
X202975274Y-117654980D01*
X202973375Y-117691575D01*
X202971458Y-117728143D01*
X202969522Y-117764683D01*
X202967567Y-117801195D01*
X202965594Y-117837679D01*
X202963603Y-117874135D01*
X202961593Y-117910563D01*
X202959564Y-117946963D01*
X202957517Y-117983335D01*
X202955452Y-118019679D01*
X202953368Y-118055996D01*
X202951265Y-118092284D01*
X202949145Y-118128545D01*
X202947005Y-118164778D01*
X202944848Y-118200983D01*
X202942672Y-118237160D01*
X202940478Y-118273310D01*
X202938265Y-118309432D01*
X202936034Y-118345526D01*
X202933785Y-118381592D01*
X202931517Y-118417631D01*
X202929232Y-118453642D01*
X202926927Y-118489625D01*
X202924605Y-118525581D01*
X202922264Y-118561509D01*
X202919906Y-118597409D01*
X202917528Y-118633282D01*
X202915133Y-118669127D01*
X202912720Y-118704945D01*
X202910288Y-118740735D01*
X202907838Y-118776497D01*
X202905370Y-118812232D01*
X202902884Y-118847940D01*
X202900380Y-118883620D01*
X202897857Y-118919272D01*
X202895317Y-118954898D01*
X202892758Y-118990495D01*
X202890182Y-119026065D01*
X202887587Y-119061608D01*
X202884974Y-119097124D01*
X202882343Y-119132612D01*
X202879695Y-119168072D01*
X202877028Y-119203506D01*
X202874343Y-119238912D01*
X202871640Y-119274290D01*
X202868920Y-119309642D01*
X202866181Y-119344966D01*
X202863424Y-119380263D01*
X202860650Y-119415532D01*
X202857857Y-119450775D01*
X202855047Y-119485990D01*
X202852219Y-119521178D01*
X202849372Y-119556339D01*
X202846508Y-119591472D01*
X202843627Y-119626579D01*
X202840727Y-119661658D01*
X202837809Y-119696710D01*
X202834874Y-119731735D01*
X202831921Y-119766733D01*
X202828950Y-119801704D01*
X202825962Y-119836648D01*
X202822955Y-119871565D01*
X202819931Y-119906455D01*
X202816889Y-119941318D01*
X202813830Y-119976154D01*
X202810752Y-120010963D01*
X202807657Y-120045745D01*
X202804545Y-120080500D01*
X202801414Y-120115228D01*
X202798267Y-120149929D01*
X202795101Y-120184603D01*
X202791918Y-120219251D01*
X202788717Y-120253871D01*
X202785499Y-120288465D01*
X202782263Y-120323032D01*
X202779009Y-120357572D01*
X202775738Y-120392085D01*
X202772449Y-120426572D01*
X202769143Y-120461032D01*
X202765819Y-120495465D01*
X202762478Y-120529871D01*
X202759119Y-120564251D01*
X202755743Y-120598604D01*
X202752350Y-120632930D01*
X202748938Y-120667229D01*
X202745510Y-120701502D01*
X202742064Y-120735748D01*
X202738600Y-120769968D01*
X202735120Y-120804161D01*
X202731621Y-120838327D01*
X202728106Y-120872467D01*
X202724573Y-120906581D01*
X202721023Y-120940668D01*
X202717455Y-120974728D01*
X202713870Y-121008762D01*
X202710268Y-121042769D01*
X202706648Y-121076750D01*
X202703011Y-121110704D01*
X202699357Y-121144632D01*
X202695686Y-121178533D01*
X202691997Y-121212409D01*
X202688291Y-121246257D01*
X202684568Y-121280080D01*
X202680828Y-121313875D01*
X202677071Y-121347645D01*
X202673296Y-121381388D01*
X202669504Y-121415105D01*
X202665695Y-121448796D01*
X202661869Y-121482461D01*
X202658026Y-121516099D01*
X202654165Y-121549711D01*
X202650288Y-121583296D01*
X202646393Y-121616856D01*
X202642481Y-121650389D01*
X202638552Y-121683896D01*
X202634606Y-121717377D01*
X202630644Y-121750832D01*
X202626664Y-121784260D01*
X202622667Y-121817663D01*
X202618653Y-121851039D01*
X202614622Y-121884389D01*
X202610574Y-121917713D01*
X202606509Y-121951012D01*
X202602427Y-121984283D01*
X202598328Y-122017530D01*
X202594212Y-122050750D01*
X202590079Y-122083944D01*
X202585930Y-122117112D01*
X202581763Y-122150254D01*
X202577580Y-122183370D01*
X202573380Y-122216460D01*
X202569162Y-122249525D01*
X202564928Y-122282563D01*
X202560678Y-122315576D01*
X202556410Y-122348562D01*
X202552125Y-122381523D01*
X202547824Y-122414458D01*
X202543506Y-122447367D01*
X202539171Y-122480251D01*
X202534820Y-122513108D01*
X202530451Y-122545940D01*
X202526066Y-122578746D01*
X202521664Y-122611526D01*
X202517246Y-122644281D01*
X202512810Y-122677010D01*
X202508358Y-122709713D01*
X202503890Y-122742391D01*
X202499405Y-122775042D01*
X202494903Y-122807669D01*
X202490384Y-122840269D01*
X202485849Y-122872844D01*
X202481297Y-122905393D01*
X202476728Y-122937917D01*
X202472143Y-122970415D01*
X202467542Y-123002888D01*
X202462923Y-123035335D01*
X202458289Y-123067756D01*
X202453637Y-123100152D01*
X202448969Y-123132523D01*
X202444285Y-123164868D01*
X202439584Y-123197188D01*
X202434867Y-123229482D01*
X202430133Y-123261751D01*
X202425382Y-123293994D01*
X202420615Y-123326212D01*
X202415832Y-123358404D01*
X202411032Y-123390572D01*
X202406216Y-123422713D01*
X202401384Y-123454830D01*
X202396535Y-123486921D01*
X202391669Y-123518987D01*
X202386787Y-123551027D01*
X202381889Y-123583043D01*
X202376975Y-123615033D01*
X202372044Y-123646998D01*
X202367097Y-123678937D01*
X202362133Y-123710852D01*
X202357153Y-123742741D01*
X202352157Y-123774605D01*
X202347145Y-123806443D01*
X202342116Y-123838257D01*
X202337071Y-123870046D01*
X202332010Y-123901809D01*
X202326932Y-123933547D01*
X202321839Y-123965261D01*
X202316729Y-123996949D01*
X202311602Y-124028612D01*
X202306460Y-124060250D01*
X202301302Y-124091863D01*
X202296127Y-124123451D01*
X202290936Y-124155014D01*
X202285729Y-124186552D01*
X202280506Y-124218066D01*
X202275267Y-124249553D01*
X202270011Y-124281017D01*
X202264740Y-124312455D01*
X202259452Y-124343869D01*
X202254148Y-124375257D01*
X202248828Y-124406621D01*
X202243493Y-124437959D01*
X202238141Y-124469274D01*
X202232773Y-124500562D01*
X202227389Y-124531827D01*
X202221989Y-124563066D01*
X202216573Y-124594281D01*
X202211141Y-124625471D01*
X202205693Y-124656636D01*
X202200229Y-124687777D01*
X202194749Y-124718893D01*
X202189253Y-124749983D01*
X202183742Y-124781050D01*
X202178214Y-124812091D01*
X202172670Y-124843109D01*
X202167111Y-124874101D01*
X202161535Y-124905069D01*
X202155944Y-124936012D01*
X202150337Y-124966931D01*
X202144714Y-124997824D01*
X202139075Y-125028694D01*
X202133420Y-125059539D01*
X202127750Y-125090359D01*
X202122063Y-125121155D01*
X202116361Y-125151927D01*
X202110643Y-125182673D01*
X202104909Y-125213396D01*
X202099160Y-125244093D01*
X202093395Y-125274767D01*
X202087614Y-125305416D01*
X202081817Y-125336041D01*
X202076004Y-125366641D01*
X202070176Y-125397217D01*
X202064332Y-125427768D01*
X202058473Y-125458295D01*
X202052597Y-125488798D01*
X202046706Y-125519277D01*
X202040800Y-125549730D01*
X202034877Y-125580161D01*
X202028940Y-125610566D01*
X202022986Y-125640948D01*
X202017017Y-125671304D01*
X202011032Y-125701637D01*
X202005032Y-125731946D01*
X201999015Y-125762230D01*
X201992984Y-125792490D01*
X201986937Y-125822727D01*
X201980874Y-125852938D01*
X201974796Y-125883126D01*
X201968702Y-125913290D01*
X201962593Y-125943430D01*
X201956468Y-125973544D01*
X201950328Y-126003636D01*
X201944172Y-126033703D01*
X201938001Y-126063747D01*
X201931814Y-126093765D01*
X201925612Y-126123761D01*
X201919394Y-126153732D01*
X201913161Y-126183680D01*
X201906912Y-126213602D01*
X201900648Y-126243502D01*
X201894369Y-126273377D01*
X201888074Y-126303229D01*
X201881764Y-126333055D01*
X201875439Y-126362860D01*
X201869098Y-126392639D01*
X201862741Y-126422395D01*
X201856370Y-126452126D01*
X201849983Y-126481835D01*
X201843581Y-126511519D01*
X201837163Y-126541180D01*
X201830730Y-126570816D01*
X201824282Y-126600429D01*
X201817819Y-126630018D01*
X201811340Y-126659584D01*
X201804846Y-126689125D01*
X201798336Y-126718643D01*
X201791812Y-126748137D01*
X201785272Y-126777608D01*
X201778717Y-126807054D01*
X201772147Y-126836478D01*
X201765562Y-126865877D01*
X201758961Y-126895253D01*
X201752346Y-126924605D01*
X201745714Y-126953934D01*
X201739069Y-126983238D01*
X201732407Y-127012520D01*
X201725731Y-127041778D01*
X201719039Y-127071013D01*
X201712333Y-127100223D01*
X201705611Y-127129411D01*
X201698874Y-127158574D01*
X201692122Y-127187715D01*
X201685355Y-127216831D01*
X201678573Y-127245925D01*
X201671776Y-127274994D01*
X201664964Y-127304042D01*
X201658136Y-127333064D01*
X201651294Y-127362064D01*
X201644437Y-127391040D01*
X201637564Y-127419994D01*
X201630677Y-127448923D01*
X201623775Y-127477830D01*
X201616858Y-127506712D01*
X201609925Y-127535572D01*
X201602978Y-127564408D01*
X201596016Y-127593222D01*
X201589039Y-127622011D01*
X201582046Y-127650778D01*
X201575040Y-127679520D01*
X201568017Y-127708241D01*
X201560981Y-127736937D01*
X201553929Y-127765612D01*
X201546862Y-127794261D01*
X201539781Y-127822889D01*
X201532685Y-127851493D01*
X201525573Y-127880075D01*
X201518447Y-127908632D01*
X201511306Y-127937167D01*
X201504151Y-127965678D01*
X201496980Y-127994168D01*
X201489795Y-128022632D01*
X201482594Y-128051076D01*
X201475380Y-128079494D01*
X201468150Y-128107892D01*
X201460906Y-128136264D01*
X201453646Y-128164616D01*
X201446372Y-128192942D01*
X201439083Y-128221248D01*
X201431780Y-128249528D01*
X201424462Y-128277788D01*
X201417129Y-128306023D01*
X201409781Y-128334236D01*
X201402419Y-128362426D01*
X201395042Y-128390593D01*
X201387650Y-128418737D01*
X201380244Y-128446859D01*
X201372823Y-128474957D01*
X201365387Y-128503033D01*
X201357937Y-128531085D01*
X201350472Y-128559116D01*
X201342992Y-128587123D01*
X201335498Y-128615108D01*
X201327989Y-128643069D01*
X201320466Y-128671009D01*
X201312928Y-128698924D01*
X201305375Y-128726819D01*
X201297808Y-128754689D01*
X201290226Y-128782538D01*
X201282630Y-128810363D01*
X201275019Y-128838167D01*
X201267394Y-128865946D01*
X201259754Y-128893705D01*
X201252100Y-128921439D01*
X201244431Y-128949152D01*
X201236748Y-128976842D01*
X201229050Y-129004510D01*
X201221338Y-129032154D01*
X201213611Y-129059777D01*
X201205870Y-129087376D01*
X201198114Y-129114954D01*
X201190344Y-129142508D01*
X201182559Y-129170041D01*
X201174761Y-129197550D01*
X201166947Y-129225038D01*
X201159119Y-129252502D01*
X201151277Y-129279946D01*
X201143421Y-129307365D01*
X201135549Y-129334764D01*
X201127664Y-129362138D01*
X201119764Y-129389492D01*
X201111851Y-129416822D01*
X201103922Y-129444131D01*
X201095980Y-129471416D01*
X201088022Y-129498681D01*
X201080051Y-129525921D01*
X201072065Y-129553141D01*
X201064065Y-129580337D01*
X201056051Y-129607513D01*
X201048023Y-129634664D01*
X201039980Y-129661795D01*
X201031923Y-129688902D01*
X201023851Y-129715989D01*
X201015766Y-129743052D01*
X201007666Y-129770094D01*
X200999552Y-129797112D01*
X200991423Y-129824110D01*
X200983281Y-129851084D01*
X200975124Y-129878038D01*
X200966953Y-129904968D01*
X200958768Y-129931877D01*
X200950569Y-129958763D01*
X200942355Y-129985628D01*
X200934128Y-130012470D01*
X200925886Y-130039291D01*
X200917630Y-130066089D01*
X200909360Y-130092866D01*
X200901076Y-130119620D01*
X200892777Y-130146353D01*
X200884465Y-130173063D01*
X200876138Y-130199752D01*
X200867798Y-130226418D01*
X200859443Y-130253064D01*
X200851074Y-130279685D01*
X200842691Y-130306287D01*
X200834295Y-130332865D01*
X200825883Y-130359423D01*
X200817459Y-130385958D01*
X200809019Y-130412472D01*
X200800566Y-130438963D01*
X200792099Y-130465434D01*
X200783618Y-130491881D01*
X200775122Y-130518308D01*
X200766614Y-130544711D01*
X200758090Y-130571095D01*
X200749553Y-130597455D01*
X200741002Y-130623796D01*
X200732437Y-130650112D01*
X200723858Y-130676409D01*
X200715265Y-130702682D01*
X200706658Y-130728936D01*
X200698037Y-130755165D01*
X200689402Y-130781376D01*
X200680754Y-130807562D01*
X200672090Y-130833729D01*
X200663414Y-130859872D01*
X200654723Y-130885996D01*
X200646019Y-130912096D01*
X200637301Y-130938177D01*
X200628569Y-130964234D01*
X200619823Y-130990272D01*
X200611063Y-131016285D01*
X200602289Y-131042280D01*
X200593502Y-131068251D01*
X200584700Y-131094202D01*
X200575886Y-131120130D01*
X200567056Y-131146039D01*
X200558214Y-131171924D01*
X200549357Y-131197790D01*
X200540487Y-131223632D01*
X200531602Y-131249455D01*
X200522705Y-131275254D01*
X200513792Y-131301035D01*
X200504867Y-131326791D01*
X200495928Y-131352529D01*
X200486975Y-131378242D01*
X200478008Y-131403937D01*
X200469028Y-131429609D01*
X200460033Y-131455261D01*
X200451026Y-131480890D01*
X200442003Y-131506499D01*
X200432968Y-131532085D01*
X200423919Y-131557653D01*
X200414857Y-131583196D01*
X200405780Y-131608721D01*
X200396690Y-131634222D01*
X200387586Y-131659705D01*
X200378469Y-131685163D01*
X200369337Y-131710604D01*
X200360193Y-131736020D01*
X200351034Y-131761418D01*
X200341862Y-131786792D01*
X200332676Y-131812148D01*
X200323478Y-131837480D01*
X200314264Y-131862793D01*
X200305038Y-131888083D01*
X200295798Y-131913354D01*
X200286544Y-131938602D01*
X200277277Y-131963831D01*
X200267996Y-131989037D01*
X200258701Y-132014224D01*
X200249394Y-132039388D01*
X200240072Y-132064533D01*
X200230737Y-132089654D01*
X200221388Y-132114758D01*
X200212027Y-132139838D01*
X200202651Y-132164899D01*
X200193262Y-132189937D01*
X200183859Y-132214957D01*
X200174443Y-132239953D01*
X200165013Y-132264931D01*
X200155570Y-132289885D01*
X200146113Y-132314821D01*
X200136643Y-132339734D01*
X200127159Y-132364628D01*
X200117663Y-132389499D01*
X200108152Y-132414352D01*
X200098628Y-132439182D01*
X200089090Y-132463993D01*
X200079540Y-132488781D01*
X200069975Y-132513551D01*
X200060398Y-132538297D01*
X200050806Y-132563026D01*
X200041202Y-132587730D01*
X200031584Y-132612417D01*
X200021953Y-132637081D01*
X200012308Y-132661727D01*
X200002650Y-132686349D01*
X199992978Y-132710953D01*
X199983294Y-132735534D01*
X199973595Y-132760097D01*
X199963884Y-132784637D01*
X199954159Y-132809159D01*
X199944421Y-132833657D01*
X199934669Y-132858138D01*
X199924905Y-132882596D01*
X199915126Y-132907035D01*
X199905335Y-132931452D01*
X199895529Y-132955850D01*
X199885712Y-132980226D01*
X199875880Y-133004583D01*
X199866036Y-133028917D01*
X199856177Y-133053234D01*
X199846306Y-133077528D01*
X199836421Y-133101803D01*
X199826524Y-133126056D01*
X199816612Y-133150291D01*
X199806688Y-133174502D01*
X199796750Y-133198697D01*
X199786800Y-133222867D01*
X199776835Y-133247021D01*
X199766859Y-133271151D01*
X199756868Y-133295264D01*
X199746864Y-133319353D01*
X199736847Y-133343425D01*
X199726817Y-133367474D01*
X199716773Y-133391506D01*
X199706718Y-133415514D01*
X199696647Y-133439505D01*
X199686565Y-133463473D01*
X199676468Y-133487423D01*
X199666360Y-133511350D01*
X199656237Y-133535260D01*
X199646102Y-133559147D01*
X199635953Y-133583017D01*
X199625791Y-133606863D01*
X199615616Y-133630692D01*
X199605428Y-133654499D01*
X199595226Y-133678288D01*
X199585013Y-133702053D01*
X199574785Y-133725802D01*
X199564545Y-133749528D01*
X199554291Y-133773236D01*
X199544025Y-133796922D01*
X199533744Y-133820590D01*
X199523452Y-133844235D01*
X199513145Y-133867864D01*
X199502827Y-133891469D01*
X199492494Y-133915057D01*
X199482150Y-133938622D01*
X199471791Y-133962170D01*
X199461420Y-133985695D01*
X199451035Y-134009204D01*
X199440639Y-134032689D01*
X199430228Y-134056157D01*
X199419805Y-134079603D01*
X199409368Y-134103031D01*
X199398919Y-134126437D01*
X199388456Y-134149825D01*
X199377981Y-134173191D01*
X199367492Y-134196540D01*
X199356991Y-134219866D01*
X199346476Y-134243175D01*
X199335950Y-134266461D01*
X199325409Y-134289731D01*
X199314856Y-134312977D01*
X199304289Y-134336207D01*
X199293711Y-134359414D01*
X199283118Y-134382605D01*
X199272513Y-134405772D01*
X199261894Y-134428923D01*
X199251264Y-134452051D01*
X199240620Y-134475162D01*
X199229963Y-134498250D01*
X199219293Y-134521322D01*
X199208611Y-134544371D01*
X199197915Y-134567404D01*
X199187207Y-134590414D01*
X199176485Y-134613407D01*
X199165751Y-134636377D01*
X199155003Y-134659331D01*
X199144244Y-134682262D01*
X199133470Y-134705177D01*
X199122685Y-134728069D01*
X199111886Y-134750944D01*
X199101075Y-134773797D01*
X199090250Y-134796633D01*
X199079414Y-134819447D01*
X199068563Y-134842244D01*
X199057701Y-134865018D01*
X199046824Y-134887777D01*
X199035936Y-134910512D01*
X199025034Y-134933231D01*
X199014121Y-134955927D01*
X199003193Y-134978608D01*
X198992254Y-135001265D01*
X198981300Y-135023907D01*
X198970336Y-135046525D01*
X198959357Y-135069128D01*
X198948367Y-135091707D01*
X198937362Y-135114271D01*
X198926346Y-135136812D01*
X198915316Y-135159337D01*
X198904275Y-135181839D01*
X198882152Y-135226788D01*
X198859979Y-135271660D01*
X198837754Y-135316455D01*
X198815478Y-135361173D01*
X198793152Y-135405814D01*
X198770775Y-135450377D01*
X198748347Y-135494864D01*
X198725868Y-135539274D01*
X198703338Y-135583607D01*
X198680758Y-135627864D01*
X198658127Y-135672044D01*
X198635445Y-135716147D01*
X198612712Y-135760174D01*
X198589930Y-135804125D01*
X198567096Y-135848000D01*
X198544212Y-135891799D01*
X198521278Y-135935521D01*
X198498293Y-135979168D01*
X198475257Y-136022739D01*
X198452172Y-136066234D01*
X198429036Y-136109653D01*
X198405849Y-136152997D01*
X198382613Y-136196266D01*
X198359326Y-136239459D01*
X198335989Y-136282576D01*
X198312602Y-136325619D01*
X198289164Y-136368586D01*
X198265677Y-136411478D01*
X198242139Y-136454295D01*
X198218552Y-136497038D01*
X198194914Y-136539705D01*
X198171226Y-136582298D01*
X198147489Y-136624816D01*
X198123701Y-136667260D01*
X198099864Y-136709629D01*
X198075977Y-136751924D01*
X198052039Y-136794144D01*
X198028053Y-136836291D01*
X198004016Y-136878363D01*
X197979929Y-136920361D01*
X197955793Y-136962285D01*
X197931607Y-137004135D01*
X197907372Y-137045912D01*
X197883087Y-137087614D01*
X197858752Y-137129243D01*
X197834367Y-137170799D01*
X197809933Y-137212281D01*
X197785450Y-137253689D01*
X197760917Y-137295025D01*
X197736334Y-137336287D01*
X197711702Y-137377475D01*
X197687021Y-137418591D01*
X197662290Y-137459634D01*
X197637510Y-137500604D01*
X197612681Y-137541501D01*
X197587802Y-137582325D01*
X197562873Y-137623076D01*
X197537896Y-137663755D01*
X197512869Y-137704362D01*
X197487793Y-137744896D01*
X197462668Y-137785357D01*
X197437494Y-137825746D01*
X197412270Y-137866063D01*
X197386997Y-137906308D01*
X197361676Y-137946481D01*
X197336305Y-137986582D01*
X197310885Y-138026611D01*
X197285416Y-138066568D01*
X197259897Y-138106453D01*
X197234330Y-138146266D01*
X197208714Y-138186008D01*
X197183049Y-138225679D01*
X197157335Y-138265277D01*
X197131572Y-138304805D01*
X197105760Y-138344261D01*
X197079899Y-138383646D01*
X197053989Y-138422960D01*
X197028030Y-138462202D01*
X197002023Y-138501374D01*
X196975967Y-138540474D01*
X196949861Y-138579504D01*
X196923708Y-138618463D01*
X196897505Y-138657351D01*
X196871253Y-138696169D01*
X196844953Y-138734915D01*
X196818604Y-138773592D01*
X196792206Y-138812197D01*
X196765760Y-138850733D01*
X196739265Y-138889198D01*
X196712721Y-138927593D01*
X196686129Y-138965917D01*
X196659488Y-139004172D01*
X196632798Y-139042356D01*
X196606060Y-139080471D01*
X196579273Y-139118515D01*
X196552438Y-139156490D01*
X196525554Y-139194395D01*
X196498622Y-139232230D01*
X196471640Y-139269996D01*
X196444611Y-139307692D01*
X196417533Y-139345318D01*
X196390406Y-139382875D01*
X196363231Y-139420363D01*
X196336008Y-139457781D01*
X196308736Y-139495130D01*
X196281415Y-139532410D01*
X196254046Y-139569620D01*
X196226629Y-139606762D01*
X196199163Y-139643834D01*
X196171649Y-139680838D01*
X196144087Y-139717773D01*
X196116476Y-139754639D01*
X196088817Y-139791436D01*
X196061109Y-139828164D01*
X196033353Y-139864824D01*
X196005549Y-139901416D01*
X195977696Y-139937938D01*
X195949795Y-139974393D01*
X195921846Y-140010779D01*
X195893848Y-140047096D01*
X195865802Y-140083346D01*
X195837708Y-140119527D01*
X195809565Y-140155640D01*
X195781375Y-140191685D01*
X195753135Y-140227662D01*
X195724848Y-140263571D01*
X195696513Y-140299412D01*
X195668129Y-140335185D01*
X195639697Y-140370890D01*
X195611216Y-140406528D01*
X195582688Y-140442098D01*
X195554111Y-140477600D01*
X195525486Y-140513035D01*
X195496813Y-140548402D01*
X195468092Y-140583702D01*
X195439322Y-140618934D01*
X195410504Y-140654099D01*
X195381638Y-140689197D01*
X195352724Y-140724227D01*
X195323762Y-140759191D01*
X195294751Y-140794087D01*
X195265692Y-140828916D01*
X195236585Y-140863678D01*
X195207430Y-140898373D01*
X195178227Y-140933001D01*
X195148976Y-140967562D01*
X195119676Y-141002057D01*
X195090328Y-141036484D01*
X195060932Y-141070845D01*
X195031488Y-141105140D01*
X195001996Y-141139367D01*
X194972456Y-141173528D01*
X194942867Y-141207623D01*
X194913231Y-141241651D01*
X194883546Y-141275613D01*
X194853813Y-141309508D01*
X194824032Y-141343337D01*
X194794203Y-141377099D01*
X194764325Y-141410796D01*
X194734400Y-141444426D01*
X194704426Y-141477990D01*
X194674404Y-141511488D01*
X194644335Y-141544920D01*
X194614216Y-141578286D01*
X194584050Y-141611586D01*
X194553836Y-141644820D01*
X194523573Y-141677989D01*
X194493263Y-141711091D01*
X194462904Y-141744128D01*
X194432497Y-141777099D01*
X194402042Y-141810004D01*
X194371539Y-141842843D01*
X194340987Y-141875617D01*
X194310388Y-141908326D01*
X194279740Y-141940969D01*
X194249044Y-141973546D01*
X194218300Y-142006058D01*
X194187508Y-142038505D01*
X194156668Y-142070886D01*
X194125779Y-142103202D01*
X194094842Y-142135452D01*
X194063857Y-142167638D01*
X194032824Y-142199758D01*
X194001743Y-142231813D01*
X193970614Y-142263803D01*
X193939436Y-142295728D01*
X193908210Y-142327587D01*
X193876936Y-142359382D01*
X193845614Y-142391112D01*
X193814243Y-142422777D01*
X193782825Y-142454377D01*
X193751358Y-142485912D01*
X193719843Y-142517382D01*
X193688280Y-142548787D01*
X193656668Y-142580128D01*
X193625008Y-142611404D01*
X193593300Y-142642615D01*
X193561544Y-142673762D01*
X193529739Y-142704844D01*
X193497887Y-142735861D01*
X193465985Y-142766814D01*
X193434036Y-142797702D01*
X193402038Y-142828526D01*
X193369993Y-142859285D01*
X193337898Y-142889980D01*
X193305756Y-142920611D01*
X193273565Y-142951177D01*
X193241326Y-142981679D01*
X193209039Y-143012116D01*
X193176703Y-143042489D01*
X193144319Y-143072798D01*
X193111886Y-143103043D01*
X193079406Y-143133223D01*
X193046877Y-143163339D01*
X193014299Y-143193392D01*
X192981673Y-143223380D01*
X192948999Y-143253303D01*
X192916277Y-143283163D01*
X192883506Y-143312959D01*
X192850686Y-143342691D01*
X192817819Y-143372358D01*
X192784902Y-143401962D01*
X192751938Y-143431502D01*
X192718925Y-143460978D01*
X192685863Y-143490390D01*
X192652754Y-143519738D01*
X192619595Y-143549022D01*
X192586388Y-143578243D01*
X192553133Y-143607399D01*
X192519830Y-143636492D01*
X192486477Y-143665521D01*
X192453077Y-143694486D01*
X192419627Y-143723388D01*
X192386130Y-143752226D01*
X192352584Y-143781000D01*
X192318989Y-143809711D01*
X192285346Y-143838357D01*
X192251654Y-143866940D01*
X192217913Y-143895460D01*
X192184124Y-143923916D01*
X192150287Y-143952308D01*
X192116401Y-143980637D01*
X192082466Y-144008902D01*
X192048483Y-144037104D01*
X192014451Y-144065242D01*
X191980371Y-144093317D01*
X191946242Y-144121328D01*
X191912064Y-144149276D01*
X191877838Y-144177160D01*
X191843563Y-144204981D01*
X191809239Y-144232738D01*
X191774867Y-144260432D01*
X191740446Y-144288062D01*
X191705976Y-144315629D01*
X191671458Y-144343133D01*
X191636891Y-144370573D01*
X191602275Y-144397950D01*
X191567611Y-144425263D01*
X191532897Y-144452514D01*
X191498136Y-144479700D01*
X191463325Y-144506824D01*
X191428466Y-144533884D01*
X191393557Y-144560881D01*
X191358601Y-144587814D01*
X191323595Y-144614684D01*
X191288540Y-144641491D01*
X191253437Y-144668235D01*
X191218285Y-144694915D01*
X191183084Y-144721532D01*
X191147835Y-144748086D01*
X191112536Y-144774576D01*
X191077189Y-144801003D01*
X191041793Y-144827367D01*
X191006348Y-144853668D01*
X190970854Y-144879905D01*
X190935311Y-144906079D01*
X190899720Y-144932190D01*
X190864079Y-144958237D01*
X190828390Y-144984222D01*
X190792652Y-145010143D01*
X190756864Y-145036000D01*
X190721028Y-145061795D01*
X190685144Y-145087526D01*
X190649210Y-145113194D01*
X190613227Y-145138799D01*
X190577195Y-145164340D01*
X190541115Y-145189818D01*
X190504985Y-145215233D01*
X190468807Y-145240585D01*
X190432579Y-145265873D01*
X190396303Y-145291098D01*
X190359977Y-145316260D01*
X190323603Y-145341358D01*
X190287180Y-145366394D01*
X190250707Y-145391365D01*
X190214186Y-145416274D01*
X190177616Y-145441119D01*
X190140996Y-145465901D01*
X190104328Y-145490620D01*
X190067611Y-145515275D01*
X190030845Y-145539867D01*
X189994029Y-145564395D01*
X189957165Y-145588860D01*
X189920252Y-145613262D01*
X189883289Y-145637601D01*
X189846278Y-145661876D01*
X189809218Y-145686087D01*
X189772108Y-145710235D01*
X189734950Y-145734320D01*
X189697742Y-145758341D01*
X189660486Y-145782299D01*
X189623180Y-145806193D01*
X189585826Y-145830024D01*
X189548422Y-145853791D01*
X189510970Y-145877495D01*
X189473468Y-145901135D01*
X189435917Y-145924712D01*
X189398318Y-145948225D01*
X189360669Y-145971675D01*
X189322971Y-145995061D01*
X189285224Y-146018383D01*
X189247428Y-146041642D01*
X189209583Y-146064837D01*
X189171689Y-146087968D01*
X189133746Y-146111036D01*
X189095754Y-146134040D01*
X189057713Y-146156980D01*
X189019623Y-146179857D01*
X188981484Y-146202669D01*
X188943296Y-146225418D01*
X188905059Y-146248103D01*
X188866773Y-146270725D01*
X188828438Y-146293282D01*
X188790054Y-146315776D01*
X188751621Y-146338205D01*
X188713139Y-146360571D01*
X188674608Y-146382873D01*
X188636028Y-146405110D01*
X188597399Y-146427284D01*
X188558721Y-146449394D01*
X188519995Y-146471439D01*
X188481219Y-146493421D01*
X188442394Y-146515338D01*
X188403521Y-146537191D01*
X188364598Y-146558981D01*
X188325627Y-146580705D01*
X188286607Y-146602366D01*
X188247538Y-146623963D01*
X188208420Y-146645495D01*
X188169253Y-146666962D01*
X188130038Y-146688366D01*
X188090773Y-146709705D01*
X188051460Y-146730980D01*
X188012098Y-146752190D01*
X187972687Y-146773336D01*
X187933228Y-146794417D01*
X187893719Y-146815433D01*
X187854162Y-146836385D01*
X187814557Y-146857273D01*
X187774902Y-146878096D01*
X187735199Y-146898854D01*
X187695448Y-146919547D01*
X187655647Y-146940176D01*
X187615799Y-146960740D01*
X187575901Y-146981239D01*
X187535955Y-147001673D01*
X187495960Y-147022042D01*
X187455917Y-147042346D01*
X187415826Y-147062585D01*
X187375686Y-147082760D01*
X187335497Y-147102869D01*
X187295260Y-147122913D01*
X187254975Y-147142892D01*
X187214641Y-147162806D01*
X187174259Y-147182654D01*
X187133829Y-147202437D01*
X187093350Y-147222155D01*
X187052824Y-147241808D01*
X187012249Y-147261395D01*
X186971625Y-147280916D01*
X186930954Y-147300373D01*
X186890235Y-147319763D01*
X186849467Y-147339088D01*
X186808651Y-147358348D01*
X186767788Y-147377541D01*
X186726876Y-147396669D01*
X186685917Y-147415731D01*
X186644909Y-147434728D01*
X186603854Y-147453658D01*
X186562751Y-147472523D01*
X186521600Y-147491322D01*
X186480401Y-147510054D01*
X186439155Y-147528721D01*
X186397861Y-147547321D01*
X186356520Y-147565855D01*
X186315130Y-147584323D01*
X186273694Y-147602725D01*
X186232210Y-147621060D01*
X186190678Y-147639329D01*
X186149100Y-147657532D01*
X186107473Y-147675668D01*
X186065800Y-147693738D01*
X186024079Y-147711741D01*
X185982312Y-147729677D01*
X185940497Y-147747546D01*
X185898635Y-147765349D01*
X185856726Y-147783085D01*
X185814771Y-147800754D01*
X185772768Y-147818356D01*
X185730719Y-147835892D01*
X185688622Y-147853360D01*
X185646480Y-147870761D01*
X185604290Y-147888095D01*
X185562054Y-147905361D01*
X185519772Y-147922560D01*
X185477443Y-147939692D01*
X185435068Y-147956757D01*
X185392647Y-147973754D01*
X185350179Y-147990683D01*
X185307666Y-148007545D01*
X185265106Y-148024340D01*
X185222500Y-148041066D01*
X185179849Y-148057725D01*
X185137151Y-148074316D01*
X185094408Y-148090839D01*
X185051620Y-148107293D01*
X185008786Y-148123680D01*
X184965906Y-148139999D01*
X184922981Y-148156250D01*
X184880011Y-148172432D01*
X184836995Y-148188546D01*
X184793935Y-148204592D01*
X184750829Y-148220569D01*
X184707678Y-148236477D01*
X184664483Y-148252317D01*
X184621243Y-148268089D01*
X184577959Y-148283791D01*
X184534629Y-148299425D01*
X184491256Y-148314990D01*
X184447838Y-148330486D01*
X184404376Y-148345913D01*
X184360870Y-148361271D01*
X184317320Y-148376560D01*
X184273726Y-148391779D01*
X184230089Y-148406929D01*
X184186407Y-148422010D01*
X184142683Y-148437021D01*
X184098915Y-148451963D01*
X184055103Y-148466835D01*
X184011249Y-148481638D01*
X183967351Y-148496370D01*
X183923411Y-148511033D01*
X183879428Y-148525626D01*
X183835402Y-148540149D01*
X183791334Y-148554602D01*
X183747224Y-148568985D01*
X183703071Y-148583297D01*
X183658877Y-148597539D01*
X183614640Y-148611711D01*
X183570362Y-148625812D01*
X183526042Y-148639843D01*
X183481681Y-148653803D01*
X183437279Y-148667693D01*
X183392835Y-148681511D01*
X183348351Y-148695259D01*
X183303825Y-148708936D01*
X183259259Y-148722542D01*
X183214653Y-148736076D01*
X183170006Y-148749540D01*
X183125320Y-148762932D01*
X183080593Y-148776253D01*
X183035827Y-148789502D01*
X182991021Y-148802680D01*
X182946175Y-148815786D01*
X182901291Y-148828820D01*
X182856367Y-148841783D01*
X182811405Y-148854673D01*
X182766404Y-148867492D01*
X182721365Y-148880239D01*
X182676287Y-148892913D01*
X182631172Y-148905516D01*
X182586019Y-148918046D01*
X182540828Y-148930503D01*
X182495600Y-148942888D01*
X182450335Y-148955201D01*
X182405033Y-148967440D01*
X182359694Y-148979607D01*
X182314319Y-148991701D01*
X182268907Y-149003722D01*
X182223460Y-149015671D01*
X182177977Y-149027545D01*
X182132459Y-149039347D01*
X182086905Y-149051076D01*
X182041317Y-149062731D01*
X181995694Y-149074312D01*
X181950036Y-149085820D01*
X181904345Y-149097254D01*
X181858619Y-149108614D01*
X181812860Y-149119901D01*
X181767068Y-149131114D01*
X181721242Y-149142252D01*
X181675384Y-149153316D01*
X181629494Y-149164306D01*
X181583571Y-149175222D01*
X181537617Y-149186063D01*
X181491631Y-149196830D01*
X181445613Y-149207522D01*
X181399565Y-149218139D01*
X181353487Y-149228682D01*
X181307378Y-149239149D01*
X181261239Y-149249542D01*
X181215071Y-149259859D01*
X181168874Y-149270101D01*
X181122647Y-149280268D01*
X181076393Y-149290360D01*
X181030110Y-149300375D01*
X180983799Y-149310316D01*
X180937461Y-149320180D01*
X180891096Y-149329969D01*
X180844705Y-149339682D01*
X180798287Y-149349319D01*
X180751844Y-149358880D01*
X180705375Y-149368364D01*
X180658881Y-149377772D01*
X180612362Y-149387104D01*
X180565820Y-149396360D01*
X180519253Y-149405538D01*
X180472664Y-149414640D01*
X180426051Y-149423666D01*
X180379417Y-149432614D01*
X180332760Y-149441485D01*
X180286082Y-149450280D01*
X180239383Y-149458997D01*
X180192664Y-149467636D01*
X180145924Y-149476199D01*
X180099165Y-149484684D01*
X180052388Y-149493091D01*
X180005591Y-149501421D01*
X179958777Y-149509673D01*
X179911946Y-149517847D01*
X179865097Y-149525942D01*
X179818233Y-149533960D01*
X179771352Y-149541900D01*
X179724457Y-149549762D01*
X179677547Y-149557545D01*
X179630623Y-149565249D01*
X179583685Y-149572875D01*
X179536735Y-149580422D01*
X179489773Y-149587891D01*
X179442799Y-149595281D01*
X179395814Y-149602592D01*
X179348819Y-149609823D01*
X179301815Y-149616976D01*
X179254801Y-149624049D01*
X179207780Y-149631043D01*
X179160750Y-149637958D01*
X179113714Y-149644793D01*
X179066672Y-149651548D01*
X179019625Y-149658224D01*
X178972573Y-149664820D01*
X178925517Y-149671336D01*
X178878458Y-149677772D01*
X178831397Y-149684128D01*
X178784334Y-149690404D01*
X178737270Y-149696599D01*
X178690207Y-149702715D01*
X178643144Y-149708750D01*
X178596084Y-149714704D01*
X178549026Y-149720578D01*
X178501971Y-149726371D01*
X178454921Y-149732083D01*
X178407876Y-149737715D01*
X178360837Y-149743265D01*
X178313805Y-149748735D01*
X178266781Y-149754124D01*
X178219767Y-149759431D01*
X178172762Y-149764658D01*
X178125768Y-149769803D01*
X178078787Y-149774866D01*
X178031818Y-149779849D01*
X177984863Y-149784749D01*
X177937924Y-149789569D01*
X177891000Y-149794306D01*
X177844093Y-149798962D01*
X177797205Y-149803537D01*
X177750336Y-149808029D01*
X177703488Y-149812440D01*
X177656661Y-149816769D01*
X177609857Y-149821016D01*
X177563077Y-149825180D01*
X177516322Y-149829263D01*
X177469593Y-149833264D01*
X177422891Y-149837183D01*
X177376217Y-149841020D01*
X177329574Y-149844774D01*
X177282961Y-149848447D01*
X177236381Y-149852037D01*
X177189833Y-149855545D01*
X177143320Y-149858971D01*
X177096843Y-149862315D01*
X177050402Y-149865576D01*
X177004000Y-149868755D01*
X176957636Y-149871853D01*
X176911312Y-149874867D01*
X176865030Y-149877800D01*
X176818790Y-149880651D01*
X176772592Y-149883420D01*
X176726439Y-149886106D01*
X176680331Y-149888711D01*
X176634269Y-149891234D01*
X176588253Y-149893674D01*
X176542283Y-149896034D01*
X176496361Y-149898311D01*
X176450486Y-149900507D01*
X176404659Y-149902622D01*
X176358878Y-149904655D01*
X176313144Y-149906607D01*
X176267456Y-149908478D01*
X176221812Y-149910268D01*
X176176210Y-149911978D01*
X176130649Y-149913607D01*
X176085124Y-149915156D01*
X176039632Y-149916625D01*
X175994168Y-149918014D01*
X175948725Y-149919324D01*
X175903296Y-149920555D01*
X175857871Y-149921708D01*
X175812437Y-149922782D01*
X175766979Y-149923778D01*
X175721476Y-149924697D01*
X175675906Y-149925539D01*
X175630235Y-149926305D01*
X175584424Y-149926996D01*
X175538419Y-149927611D01*
X175492148Y-149928153D01*
X175445514Y-149928622D01*
X175398380Y-149929019D01*
X175350548Y-149929345D01*
X175301710Y-149929602D01*
X175251360Y-149929792D01*
X175198572Y-149929918D01*
X175141305Y-149929984D01*
X175069000Y-149930000D01*
X203069000Y-113930000D02*
X203068896Y-113869901D01*
X203068772Y-113809840D01*
X203068629Y-113749817D01*
X203068465Y-113689831D01*
X203068281Y-113629882D01*
X203068078Y-113569972D01*
X203067855Y-113510098D01*
X203067611Y-113450263D01*
X203067348Y-113390464D01*
X203067066Y-113330704D01*
X203066763Y-113270980D01*
X203066441Y-113211295D01*
X203066098Y-113151646D01*
X203065736Y-113092036D01*
X203065355Y-113032462D01*
X203064953Y-112972926D01*
X203064532Y-112913427D01*
X203064091Y-112853966D01*
X203063630Y-112794542D01*
X203063150Y-112735156D01*
X203062650Y-112675807D01*
X203062130Y-112616495D01*
X203061590Y-112557220D01*
X203061031Y-112497983D01*
X203060452Y-112438783D01*
X203059854Y-112379620D01*
X203059236Y-112320494D01*
X203058598Y-112261406D01*
X203057941Y-112202355D01*
X203057264Y-112143341D01*
X203056568Y-112084364D01*
X203055852Y-112025425D01*
X203055117Y-111966522D01*
X203054362Y-111907657D01*
X203053587Y-111848829D01*
X203052793Y-111790038D01*
X203051980Y-111731284D01*
X203051147Y-111672567D01*
X203050294Y-111613888D01*
X203049422Y-111555245D01*
X203048531Y-111496639D01*
X203047620Y-111438070D01*
X203046690Y-111379539D01*
X203045740Y-111321044D01*
X203044771Y-111262586D01*
X203043783Y-111204166D01*
X203042775Y-111145782D01*
X203041748Y-111087435D01*
X203040702Y-111029125D01*
X203039636Y-110970852D01*
X203038551Y-110912616D01*
X203037446Y-110854416D01*
X203036322Y-110796254D01*
X203035179Y-110738128D01*
X203034017Y-110680039D01*
X203032836Y-110621987D01*
X203031635Y-110563972D01*
X203030415Y-110505994D01*
X203029175Y-110448052D01*
X203027917Y-110390147D01*
X203026639Y-110332279D01*
X203025342Y-110274447D01*
X203024026Y-110216653D01*
X203022691Y-110158895D01*
X203021337Y-110101173D01*
X203019963Y-110043488D01*
X203018571Y-109985840D01*
X203017159Y-109928229D01*
X203015728Y-109870654D01*
X203014278Y-109813116D01*
X203012809Y-109755614D01*
X203011321Y-109698149D01*
X203009814Y-109640720D01*
X203008288Y-109583328D01*
X203006743Y-109525973D01*
X203005178Y-109468654D01*
X203003595Y-109411371D01*
X203001993Y-109354125D01*
X203000372Y-109296916D01*
X202998732Y-109239743D01*
X202997072Y-109182606D01*
X202995394Y-109125506D01*
X202993697Y-109068442D01*
X202991981Y-109011414D01*
X202990247Y-108954423D01*
X202988493Y-108897468D01*
X202986720Y-108840550D01*
X202984929Y-108783668D01*
X202983118Y-108726822D01*
X202981289Y-108670013D01*
X202979441Y-108613240D01*
X202977574Y-108556503D01*
X202975689Y-108499802D01*
X202973784Y-108443138D01*
X202971861Y-108386509D01*
X202969919Y-108329918D01*
X202967958Y-108273362D01*
X202965979Y-108216842D01*
X202963980Y-108160359D01*
X202961963Y-108103912D01*
X202959928Y-108047500D01*
X202957873Y-107991125D01*
X202955800Y-107934786D01*
X202953708Y-107878484D01*
X202951598Y-107822217D01*
X202949469Y-107765986D01*
X202947321Y-107709792D01*
X202945155Y-107653633D01*
X202942970Y-107597510D01*
X202940766Y-107541424D01*
X202938544Y-107485373D01*
X202936303Y-107429359D01*
X202934044Y-107373380D01*
X202931766Y-107317437D01*
X202929469Y-107261530D01*
X202927154Y-107205660D01*
X202924821Y-107149825D01*
X202922469Y-107094026D01*
X202920098Y-107038262D01*
X202917709Y-106982535D01*
X202915302Y-106926843D01*
X202912876Y-106871188D01*
X202910431Y-106815568D01*
X202907968Y-106759984D01*
X202905487Y-106704435D01*
X202902987Y-106648923D01*
X202900469Y-106593446D01*
X202897933Y-106538005D01*
X202895378Y-106482600D01*
X202892805Y-106427230D01*
X202890213Y-106371896D01*
X202887603Y-106316598D01*
X202884975Y-106261335D01*
X202882328Y-106206108D01*
X202879663Y-106150917D01*
X202876980Y-106095761D01*
X202874279Y-106040641D01*
X202871559Y-105985557D01*
X202868821Y-105930508D01*
X202866065Y-105875494D01*
X202863290Y-105820516D01*
X202860497Y-105765574D01*
X202857686Y-105710667D01*
X202854857Y-105655796D01*
X202852010Y-105600960D01*
X202849145Y-105546160D01*
X202846261Y-105491395D01*
X202843359Y-105436666D01*
X202840439Y-105381971D01*
X202837501Y-105327313D01*
X202834545Y-105272689D01*
X202831570Y-105218102D01*
X202828578Y-105163549D01*
X202825567Y-105109032D01*
X202822539Y-105054550D01*
X202819492Y-105000104D01*
X202816427Y-104945692D01*
X202813345Y-104891317D01*
X202810244Y-104836976D01*
X202807125Y-104782671D01*
X202803988Y-104728400D01*
X202800834Y-104674166D01*
X202797661Y-104619966D01*
X202794470Y-104565802D01*
X202791261Y-104511672D01*
X202788035Y-104457578D01*
X202784790Y-104403519D01*
X202781528Y-104349496D01*
X202778247Y-104295507D01*
X202774949Y-104241554D01*
X202771633Y-104187635D01*
X202768299Y-104133752D01*
X202764947Y-104079903D01*
X202761577Y-104026090D01*
X202758190Y-103972312D01*
X202754784Y-103918569D01*
X202751361Y-103864861D01*
X202747920Y-103811188D01*
X202744461Y-103757549D01*
X202740985Y-103703946D01*
X202737490Y-103650378D01*
X202733978Y-103596845D01*
X202730448Y-103543346D01*
X202726901Y-103489883D01*
X202723335Y-103436454D01*
X202719752Y-103383061D01*
X202716152Y-103329702D01*
X202712533Y-103276378D01*
X202708897Y-103223089D01*
X202705243Y-103169835D01*
X202701572Y-103116615D01*
X202697883Y-103063431D01*
X202694176Y-103010280D01*
X202690452Y-102957165D01*
X202686710Y-102904085D01*
X202682951Y-102851039D01*
X202679174Y-102798028D01*
X202675379Y-102745052D01*
X202671567Y-102692110D01*
X202667737Y-102639204D01*
X202663890Y-102586331D01*
X202660025Y-102533494D01*
X202656142Y-102480691D01*
X202652243Y-102427923D01*
X202648325Y-102375188D01*
X202644391Y-102322490D01*
X202640438Y-102269825D01*
X202636469Y-102217195D01*
X202632481Y-102164599D01*
X202628477Y-102112039D01*
X202624455Y-102059512D01*
X202620415Y-102007020D01*
X202616358Y-101954563D01*
X202612284Y-101902140D01*
X202608193Y-101849751D01*
X202604084Y-101797397D01*
X202599957Y-101745077D01*
X202595814Y-101692793D01*
X202591653Y-101640541D01*
X202587475Y-101588325D01*
X202583279Y-101536143D01*
X202579066Y-101483995D01*
X202574836Y-101431882D01*
X202570588Y-101379803D01*
X202566324Y-101327758D01*
X202562042Y-101275748D01*
X202557742Y-101223771D01*
X202553426Y-101171830D01*
X202549092Y-101119922D01*
X202544742Y-101068049D01*
X202540373Y-101016209D01*
X202535988Y-100964404D01*
X202531586Y-100912633D01*
X202527166Y-100860897D01*
X202522730Y-100809194D01*
X202518276Y-100757526D01*
X202513805Y-100705892D01*
X202509317Y-100654292D01*
X202504812Y-100602726D01*
X202500289Y-100551194D01*
X202495750Y-100499696D01*
X202491194Y-100448233D01*
X202486620Y-100396803D01*
X202482030Y-100345408D01*
X202477422Y-100294046D01*
X202472797Y-100242718D01*
X202468156Y-100191424D01*
X202463497Y-100140165D01*
X202458822Y-100088939D01*
X202454129Y-100037748D01*
X202449420Y-99986590D01*
X202444693Y-99935466D01*
X202439950Y-99884376D01*
X202435189Y-99833320D01*
X202430412Y-99782297D01*
X202425618Y-99731310D01*
X202420807Y-99680355D01*
X202415979Y-99629434D01*
X202411134Y-99578547D01*
X202406272Y-99527695D01*
X202401394Y-99476875D01*
X202396498Y-99426090D01*
X202391586Y-99375338D01*
X202386657Y-99324620D01*
X202381711Y-99273935D01*
X202376748Y-99223285D01*
X202371769Y-99172668D01*
X202366773Y-99122085D01*
X202361760Y-99071535D01*
X202356730Y-99021020D01*
X202351683Y-98970537D01*
X202346620Y-98920089D01*
X202341540Y-98869674D01*
X202336444Y-98819293D01*
X202331330Y-98768945D01*
X202326200Y-98718631D01*
X202321054Y-98668350D01*
X202315890Y-98618104D01*
X202310710Y-98567889D01*
X202305514Y-98517710D01*
X202300300Y-98467563D01*
X202295070Y-98417450D01*
X202289824Y-98367370D01*
X202284561Y-98317325D01*
X202279281Y-98267311D01*
X202273985Y-98217333D01*
X202268672Y-98167386D01*
X202263342Y-98117474D01*
X202257996Y-98067595D01*
X202252634Y-98017750D01*
X202247255Y-97967937D01*
X202241860Y-97918158D01*
X202236447Y-97868412D01*
X202231019Y-97818700D01*
X202225574Y-97769021D01*
X202220113Y-97719376D01*
X202214635Y-97669763D01*
X202209140Y-97620184D01*
X202203630Y-97570637D01*
X202198103Y-97521125D01*
X202192559Y-97471645D01*
X202186999Y-97422199D01*
X202181423Y-97372785D01*
X202175830Y-97323406D01*
X202170221Y-97274059D01*
X202164595Y-97224745D01*
X202158953Y-97175464D01*
X202153295Y-97126217D01*
X202147621Y-97077002D01*
X202141930Y-97027822D01*
X202136223Y-96978673D01*
X202130500Y-96929558D01*
X202124760Y-96880475D01*
X202119004Y-96831427D01*
X202113232Y-96782410D01*
X202107443Y-96733428D01*
X202101639Y-96684477D01*
X202095818Y-96635560D01*
X202089981Y-96586676D01*
X202084128Y-96537825D01*
X202078258Y-96489006D01*
X202072372Y-96440221D01*
X202066471Y-96391468D01*
X202060553Y-96342749D01*
X202054618Y-96294062D01*
X202048668Y-96245408D01*
X202042702Y-96196787D01*
X202036719Y-96148199D01*
X202030721Y-96099643D01*
X202024706Y-96051121D01*
X202018675Y-96002630D01*
X202012628Y-95954174D01*
X202006565Y-95905749D01*
X202000487Y-95857358D01*
X201994391Y-95808998D01*
X201988281Y-95760673D01*
X201982153Y-95712379D01*
X201976010Y-95664119D01*
X201969851Y-95615890D01*
X201963676Y-95567695D01*
X201957485Y-95519532D01*
X201951278Y-95471402D01*
X201945055Y-95423304D01*
X201938817Y-95375239D01*
X201932562Y-95327206D01*
X201926291Y-95279207D01*
X201920004Y-95231239D01*
X201913702Y-95183305D01*
X201907383Y-95135402D01*
X201901049Y-95087533D01*
X201894699Y-95039695D01*
X201888333Y-94991891D01*
X201881951Y-94944118D01*
X201875553Y-94896379D01*
X201869140Y-94848671D01*
X201862711Y-94800997D01*
X201856265Y-94753354D01*
X201849805Y-94705744D01*
X201843328Y-94658166D01*
X201836835Y-94610621D01*
X201830327Y-94563107D01*
X201823803Y-94515627D01*
X201817263Y-94468178D01*
X201810708Y-94420763D01*
X201804137Y-94373379D01*
X201797550Y-94326028D01*
X201790947Y-94278708D01*
X201784329Y-94231422D01*
X201777695Y-94184167D01*
X201771046Y-94136945D01*
X201764380Y-94089754D01*
X201757699Y-94042597D01*
X201751003Y-93995470D01*
X201744291Y-93948377D01*
X201737563Y-93901315D01*
X201730820Y-93854286D01*
X201724061Y-93807288D01*
X201717286Y-93760324D01*
X201710496Y-93713390D01*
X201703690Y-93666490D01*
X201696869Y-93619620D01*
X201690032Y-93572784D01*
X201683180Y-93525979D01*
X201676312Y-93479207D01*
X201669429Y-93432465D01*
X201662530Y-93385757D01*
X201655616Y-93339080D01*
X201648686Y-93292436D01*
X201641741Y-93245822D01*
X201634780Y-93199242D01*
X201627804Y-93152693D01*
X201620813Y-93106177D01*
X201613806Y-93059691D01*
X201606783Y-93013238D01*
X201599746Y-92966816D01*
X201592692Y-92920428D01*
X201585624Y-92874069D01*
X201578540Y-92827744D01*
X201571441Y-92781450D01*
X201564326Y-92735188D01*
X201557196Y-92688957D01*
X201550051Y-92642759D01*
X201542890Y-92596592D01*
X201535714Y-92550457D01*
X201528523Y-92504353D01*
X201521317Y-92458283D01*
X201514095Y-92412242D01*
X201506858Y-92366235D01*
X201499605Y-92320257D01*
X201492338Y-92274313D01*
X201485055Y-92228399D01*
X201477757Y-92182518D01*
X201470444Y-92136668D01*
X201463116Y-92090850D01*
X201455772Y-92045063D01*
X201448413Y-91999308D01*
X201441039Y-91953584D01*
X201433650Y-91907893D01*
X201426246Y-91862232D01*
X201418827Y-91816603D01*
X201411392Y-91771005D01*
X201403942Y-91725440D01*
X201396478Y-91679905D01*
X201388998Y-91634403D01*
X201381503Y-91588930D01*
X201373993Y-91543491D01*
X201366468Y-91498082D01*
X201358927Y-91452705D01*
X201351372Y-91407359D01*
X201343802Y-91362045D01*
X201336217Y-91316761D01*
X201328616Y-91271510D01*
X201321001Y-91226289D01*
X201313371Y-91181101D01*
X201305725Y-91135942D01*
X201298065Y-91090817D01*
X201290390Y-91045721D01*
X201282700Y-91000658D01*
X201274995Y-90955624D01*
X201267275Y-90910624D01*
X201259539Y-90865653D01*
X201251790Y-90820715D01*
X201244025Y-90775806D01*
X201236245Y-90730931D01*
X201228450Y-90686085D01*
X201220641Y-90641271D01*
X201212817Y-90596487D01*
X201204978Y-90551736D01*
X201197123Y-90507015D01*
X201189255Y-90462326D01*
X201181371Y-90417667D01*
X201173472Y-90373040D01*
X201165559Y-90328443D01*
X201157631Y-90283879D01*
X201149688Y-90239343D01*
X201141730Y-90194841D01*
X201133758Y-90150368D01*
X201125771Y-90105927D01*
X201117769Y-90061516D01*
X201109752Y-90017138D01*
X201101721Y-89972789D01*
X201093675Y-89928472D01*
X201085614Y-89884185D01*
X201077538Y-89839930D01*
X201069448Y-89795705D01*
X201061343Y-89751512D01*
X201053224Y-89707348D01*
X201045090Y-89663217D01*
X201036941Y-89619115D01*
X201028777Y-89575045D01*
X201020599Y-89531005D01*
X201012406Y-89486997D01*
X201004199Y-89443018D01*
X200995977Y-89399072D01*
X200987741Y-89355155D01*
X200979490Y-89311270D01*
X200971224Y-89267414D01*
X200962944Y-89223591D01*
X200954649Y-89179797D01*
X200946340Y-89136035D01*
X200938016Y-89092302D01*
X200929678Y-89048601D01*
X200921325Y-89004930D01*
X200912958Y-88961291D01*
X200904576Y-88917680D01*
X200896180Y-88874102D01*
X200887769Y-88830553D01*
X200879344Y-88787036D01*
X200870904Y-88743548D01*
X200862450Y-88700093D01*
X200853982Y-88656666D01*
X200845499Y-88613271D01*
X200837002Y-88569905D01*
X200828490Y-88526572D01*
X200819964Y-88483267D01*
X200811424Y-88439994D01*
X200802869Y-88396750D01*
X200794300Y-88353538D01*
X200785716Y-88310355D01*
X200777118Y-88267205D01*
X200768506Y-88224082D01*
X200759880Y-88180992D01*
X200751239Y-88137931D01*
X200742584Y-88094902D01*
X200733914Y-88051901D01*
X200725231Y-88008932D01*
X200716533Y-87965992D01*
X200707821Y-87923084D01*
X200699094Y-87880205D01*
X200690354Y-87837357D01*
X200681599Y-87794538D01*
X200672830Y-87751752D01*
X200664046Y-87708993D01*
X200655249Y-87666267D01*
X200646437Y-87623569D01*
X200637611Y-87580903D01*
X200628771Y-87538265D01*
X200619917Y-87495660D01*
X200611048Y-87453082D01*
X200602166Y-87410537D01*
X200593269Y-87368020D01*
X200584359Y-87325535D01*
X200575434Y-87283078D01*
X200566495Y-87240654D01*
X200557542Y-87198257D01*
X200548575Y-87155893D01*
X200539593Y-87113556D01*
X200530598Y-87071252D01*
X200521588Y-87028975D01*
X200512565Y-86986731D01*
X200503528Y-86944514D01*
X200494476Y-86902330D01*
X200485411Y-86860173D01*
X200476331Y-86818049D01*
X200467238Y-86775952D01*
X200458131Y-86733888D01*
X200449009Y-86691851D01*
X200439874Y-86649846D01*
X200430724Y-86607869D01*
X200421561Y-86565924D01*
X200412384Y-86524007D01*
X200403193Y-86482122D01*
X200393987Y-86440264D01*
X200384768Y-86398438D01*
X200375535Y-86356640D01*
X200366289Y-86314874D01*
X200357028Y-86273136D01*
X200347753Y-86231430D01*
X200338465Y-86189751D01*
X200329163Y-86148104D01*
X200319846Y-86106484D01*
X200310517Y-86064897D01*
X200301173Y-86023337D01*
X200291815Y-85981809D01*
X200282444Y-85940308D01*
X200273059Y-85898840D01*
X200263659Y-85857398D01*
X200254247Y-85815989D01*
X200244820Y-85774607D01*
X200235380Y-85733257D01*
X200225926Y-85691934D01*
X200216458Y-85650643D01*
X200206977Y-85609379D01*
X200197482Y-85568147D01*
X200187972Y-85526942D01*
X200178450Y-85485770D01*
X200168913Y-85444624D01*
X200159364Y-85403510D01*
X200149800Y-85362424D01*
X200140223Y-85321369D01*
X200130631Y-85280341D01*
X200121027Y-85239345D01*
X200111408Y-85198376D01*
X200101777Y-85157439D01*
X200092131Y-85116529D01*
X200082472Y-85075651D01*
X200072799Y-85034800D01*
X200063113Y-84993980D01*
X200053413Y-84953188D01*
X200043699Y-84912427D01*
X200033972Y-84871693D01*
X200024232Y-84830991D01*
X200014477Y-84790316D01*
X200004710Y-84749672D01*
X199994928Y-84709056D01*
X199985134Y-84668471D01*
X199975325Y-84627913D01*
X199965504Y-84587386D01*
X199955668Y-84546886D01*
X199945820Y-84506418D01*
X199935957Y-84465977D01*
X199926082Y-84425567D01*
X199916193Y-84385184D01*
X199906290Y-84344833D01*
X199896374Y-84304508D01*
X199886445Y-84264215D01*
X199876502Y-84223949D01*
X199866546Y-84183714D01*
X199856576Y-84143506D01*
X199846593Y-84103329D01*
X199836597Y-84063179D01*
X199826587Y-84023060D01*
X199816564Y-83982968D01*
X199806528Y-83942908D01*
X199796477Y-83902874D01*
X199786415Y-83862871D01*
X199776338Y-83822895D01*
X199766248Y-83782950D01*
X199756145Y-83743032D01*
X199746029Y-83703146D01*
X199735899Y-83663285D01*
X199725756Y-83623457D01*
X199715600Y-83583654D01*
X199705431Y-83543883D01*
X199695248Y-83504139D01*
X199685052Y-83464425D01*
X199674842Y-83424738D01*
X199664620Y-83385083D01*
X199654384Y-83345453D01*
X199644136Y-83305855D01*
X199633873Y-83266284D01*
X199623598Y-83226743D01*
X199613310Y-83187229D01*
X199603009Y-83147746D01*
X199592693Y-83108290D01*
X199582366Y-83068864D01*
X199572025Y-83029465D01*
X199561671Y-82990097D01*
X199551303Y-82950756D01*
X199540923Y-82911445D01*
X199530529Y-82872161D01*
X199520123Y-82832907D01*
X199509703Y-82793680D01*
X199499270Y-82754484D01*
X199488824Y-82715314D01*
X199478366Y-82676176D01*
X199467893Y-82637063D01*
X199457409Y-82597981D01*
X199446910Y-82558926D01*
X199436399Y-82519901D01*
X199425875Y-82480903D01*
X199415338Y-82441935D01*
X199404788Y-82402994D01*
X199394225Y-82364084D01*
X199383649Y-82325199D01*
X199373060Y-82286346D01*
X199362458Y-82247518D01*
X199351843Y-82208722D01*
X199341215Y-82169951D01*
X199330574Y-82131211D01*
X199319920Y-82092497D01*
X199309254Y-82053815D01*
X199298574Y-82015157D01*
X199287882Y-81976531D01*
X199277176Y-81937931D01*
X199266458Y-81899362D01*
X199255726Y-81860818D01*
X199244983Y-81822305D01*
X199234225Y-81783818D01*
X199223456Y-81745362D01*
X199212673Y-81706931D01*
X199201878Y-81668532D01*
X199191069Y-81630158D01*
X199180249Y-81591814D01*
X199169414Y-81553497D01*
X199158568Y-81515210D01*
X199147708Y-81476949D01*
X199136836Y-81438719D01*
X199125951Y-81400514D01*
X199115053Y-81362340D01*
X199104143Y-81324191D01*
X199093220Y-81286074D01*
X199082283Y-81247981D01*
X199071335Y-81209920D01*
X199060373Y-81171884D01*
X199049399Y-81133879D01*
X199038412Y-81095899D01*
X199027413Y-81057950D01*
X199016400Y-81020026D01*
X199005376Y-80982133D01*
X198994338Y-80944265D01*
X198983288Y-80906428D01*
X198972224Y-80868616D01*
X198961149Y-80830835D01*
X198950061Y-80793079D01*
X198938960Y-80755354D01*
X198927846Y-80717654D01*
X198916721Y-80679985D01*
X198905582Y-80642341D01*
X198894431Y-80604727D01*
X198883267Y-80567139D01*
X198872091Y-80529581D01*
X198860901Y-80492049D01*
X198849700Y-80454547D01*
X198838486Y-80417070D01*
X198827259Y-80379624D01*
X198816020Y-80342202D01*
X198804769Y-80304812D01*
X198793504Y-80267446D01*
X198782228Y-80230111D01*
X198770938Y-80192801D01*
X198759637Y-80155521D01*
X198748322Y-80118267D01*
X198736996Y-80081043D01*
X198725657Y-80043843D01*
X198714305Y-80006675D01*
X198702941Y-79969531D01*
X198691565Y-79932417D01*
X198680176Y-79895329D01*
X198668775Y-79858271D01*
X198657361Y-79821238D01*
X198645935Y-79784235D01*
X198634496Y-79747257D01*
X198623046Y-79710309D01*
X198611582Y-79673386D01*
X198600107Y-79636494D01*
X198588618Y-79599626D01*
X198577118Y-79562789D01*
X198565605Y-79525976D01*
X198554081Y-79489194D01*
X198542543Y-79452437D01*
X198530993Y-79415709D01*
X198519431Y-79379007D01*
X198507857Y-79342335D01*
X198496270Y-79305687D01*
X198484672Y-79269069D01*
X198473060Y-79232477D01*
X198461437Y-79195914D01*
X198449801Y-79159376D01*
X198438153Y-79122868D01*
X198426493Y-79086385D01*
X198414821Y-79049932D01*
X198403135Y-79013504D01*
X198391439Y-78977106D01*
X198379729Y-78940732D01*
X198368009Y-78904388D01*
X198356274Y-78868069D01*
X198344529Y-78831780D01*
X198332771Y-78795515D01*
X198321001Y-78759281D01*
X198309219Y-78723071D01*
X198297425Y-78686891D01*
X198285618Y-78650735D01*
X198273799Y-78614610D01*
X198261968Y-78578509D01*
X198250126Y-78542438D01*
X198238270Y-78506391D01*
X198226403Y-78470374D01*
X198214524Y-78434381D01*
X198202633Y-78398419D01*
X198190729Y-78362481D01*
X198178814Y-78326573D01*
X198166886Y-78290689D01*
X198154946Y-78254835D01*
X198142994Y-78219005D01*
X198131031Y-78183205D01*
X198119055Y-78147429D01*
X198107067Y-78111684D01*
X198095067Y-78075962D01*
X198083056Y-78040270D01*
X198071031Y-78004603D01*
X198058996Y-77968965D01*
X198046948Y-77933351D01*
X198034888Y-77897768D01*
X198022816Y-77862208D01*
X198010733Y-77826678D01*
X197998637Y-77791172D01*
X197986529Y-77755697D01*
X197974409Y-77720244D01*
X197962278Y-77684822D01*
X197950134Y-77649424D01*
X197937980Y-77614056D01*
X197925812Y-77578711D01*
X197913633Y-77543397D01*
X197901441Y-77508106D01*
X197889239Y-77472845D01*
X197877024Y-77437608D01*
X197864798Y-77402400D01*
X197852558Y-77367217D01*
X197840309Y-77332063D01*
X197828046Y-77296933D01*
X197815772Y-77261833D01*
X197803486Y-77226756D01*
X197791189Y-77191709D01*
X197778879Y-77156686D01*
X197766558Y-77121692D01*
X197754224Y-77086723D01*
X197741880Y-77051783D01*
X197729522Y-77016866D01*
X197717154Y-76981979D01*
X197704774Y-76947116D01*
X197692382Y-76912283D01*
X197679978Y-76877473D01*
X197667563Y-76842693D01*
X197655135Y-76807936D01*
X197642697Y-76773209D01*
X197630245Y-76738505D01*
X197617784Y-76703831D01*
X197605309Y-76669180D01*
X197592824Y-76634560D01*
X197580326Y-76599962D01*
X197567817Y-76565394D01*
X197555296Y-76530850D01*
X197542764Y-76496335D01*
X197530219Y-76461843D01*
X197517664Y-76427381D01*
X197505096Y-76392943D01*
X197492517Y-76358534D01*
X197479926Y-76324148D01*
X197467324Y-76289792D01*
X197454710Y-76255458D01*
X197442085Y-76221155D01*
X197429447Y-76186875D01*
X197416799Y-76152624D01*
X197404138Y-76118396D01*
X197391467Y-76084198D01*
X197378782Y-76050023D01*
X197366088Y-76015878D01*
X197353381Y-75981756D01*
X197340663Y-75947663D01*
X197327933Y-75913593D01*
X197315193Y-75879553D01*
X197302439Y-75845535D01*
X197289676Y-75811548D01*
X197276899Y-75777583D01*
X197264113Y-75743648D01*
X197251313Y-75709735D01*
X197238504Y-75675852D01*
X197225682Y-75641992D01*
X197212849Y-75608162D01*
X197200004Y-75574354D01*
X197187149Y-75540575D01*
X197174280Y-75506820D01*
X197161402Y-75473094D01*
X197148511Y-75439391D01*
X197135610Y-75405717D01*
X197122696Y-75372066D01*
X197109772Y-75338444D01*
X197096836Y-75304845D01*
X197083889Y-75271276D01*
X197070930Y-75237729D01*
X197057960Y-75204211D01*
X197044978Y-75170716D01*
X197031986Y-75137251D01*
X197018981Y-75103808D01*
X197005966Y-75070394D01*
X196992938Y-75037003D01*
X196979901Y-75003642D01*
X196966851Y-74970303D01*
X196953790Y-74936993D01*
X196940717Y-74903706D01*
X196927635Y-74870448D01*
X196914539Y-74837212D01*
X196901434Y-74804006D01*
X196888316Y-74770823D01*
X196875188Y-74737668D01*
X196862047Y-74704536D01*
X196848897Y-74671434D01*
X196835734Y-74638353D01*
X196822561Y-74605302D01*
X196809375Y-74572273D01*
X196796180Y-74539274D01*
X196782972Y-74506296D01*
X196769754Y-74473349D01*
X196756523Y-74440423D01*
X196743283Y-74407527D01*
X196730030Y-74374652D01*
X196716767Y-74341807D01*
X196703492Y-74308984D01*
X196690207Y-74276191D01*
X196676910Y-74243419D01*
X196663602Y-74210677D01*
X196650282Y-74177957D01*
X196636953Y-74145266D01*
X196623611Y-74112597D01*
X196610259Y-74079957D01*
X196596894Y-74047340D01*
X196583520Y-74014751D01*
X196570134Y-73982185D01*
X196556737Y-73949648D01*
X196543328Y-73917132D01*
X196529910Y-73884646D01*
X196516479Y-73852182D01*
X196503038Y-73819747D01*
X196489585Y-73787333D01*
X196476122Y-73754949D01*
X196462647Y-73722587D01*
X196449162Y-73690254D01*
X196435665Y-73657943D01*
X196422158Y-73625661D01*
X196408639Y-73593400D01*
X196395110Y-73561169D01*
X196381568Y-73528959D01*
X196368017Y-73496779D01*
X196354454Y-73464620D01*
X196340881Y-73432491D01*
X196327296Y-73400383D01*
X196313701Y-73368304D01*
X196300093Y-73336246D01*
X196286477Y-73304218D01*
X196272847Y-73272212D01*
X196259209Y-73240234D01*
X196245557Y-73208278D01*
X196231897Y-73176351D01*
X196218224Y-73144446D01*
X196204542Y-73112570D01*
X196190847Y-73080715D01*
X196177143Y-73048889D01*
X196163426Y-73017085D01*
X196149700Y-72985309D01*
X196135962Y-72953555D01*
X196122214Y-72921831D01*
X196108454Y-72890127D01*
X196094684Y-72858452D01*
X196080902Y-72826799D01*
X196067111Y-72795175D01*
X196053308Y-72763572D01*
X196039495Y-72731998D01*
X196025670Y-72700446D01*
X196011835Y-72668922D01*
X195997988Y-72637420D01*
X195984132Y-72605946D01*
X195970264Y-72574494D01*
X195956386Y-72543071D01*
X195942496Y-72511668D01*
X195928597Y-72480295D01*
X195914685Y-72448943D01*
X195900765Y-72417620D01*
X195886831Y-72386318D01*
X195872889Y-72355045D01*
X195858934Y-72323793D01*
X195844971Y-72292570D01*
X195830995Y-72261368D01*
X195817010Y-72230195D01*
X195803012Y-72199042D01*
X195789005Y-72167919D01*
X195774986Y-72136817D01*
X195760958Y-72105743D01*
X195746918Y-72074691D01*
X195732869Y-72043667D01*
X195718807Y-72012664D01*
X195704736Y-71981690D01*
X195690653Y-71950737D01*
X195676561Y-71919813D01*
X195662457Y-71888910D01*
X195648343Y-71858035D01*
X195634218Y-71827181D01*
X195620083Y-71796357D01*
X195605936Y-71765552D01*
X195591780Y-71734777D01*
X195577612Y-71704022D01*
X195563435Y-71673297D01*
X195549246Y-71642591D01*
X195535048Y-71611915D01*
X195520837Y-71581259D01*
X195506618Y-71550632D01*
X195492386Y-71520026D01*
X195478146Y-71489449D01*
X195463893Y-71458892D01*
X195449631Y-71428364D01*
X195435357Y-71397856D01*
X195421074Y-71367377D01*
X195406779Y-71336919D01*
X195392476Y-71306489D01*
X195378160Y-71276080D01*
X195363835Y-71245700D01*
X195349498Y-71215340D01*
X195335152Y-71185009D01*
X195320794Y-71154698D01*
X195306427Y-71124416D01*
X195292048Y-71094154D01*
X195277661Y-71063921D01*
X195263260Y-71033708D01*
X195248852Y-71003524D01*
X195234431Y-70973361D01*
X195220002Y-70943226D01*
X195205560Y-70913111D01*
X195191109Y-70883025D01*
X195176647Y-70852959D01*
X195162176Y-70822922D01*
X195147692Y-70792905D01*
X195133200Y-70762917D01*
X195118696Y-70732949D01*
X195104183Y-70703010D01*
X195089658Y-70673091D01*
X195075124Y-70643200D01*
X195060578Y-70613330D01*
X195046024Y-70583488D01*
X195031457Y-70553666D01*
X195016882Y-70523873D01*
X195002295Y-70494100D01*
X194987699Y-70464355D01*
X194973091Y-70434631D01*
X194958475Y-70404935D01*
X194943846Y-70375259D01*
X194929209Y-70345611D01*
X194914560Y-70315984D01*
X194899902Y-70286385D01*
X194885232Y-70256806D01*
X194870554Y-70227256D01*
X194855863Y-70197726D01*
X194841165Y-70168224D01*
X194826453Y-70138742D01*
X194811734Y-70109288D01*
X194797002Y-70079854D01*
X194782263Y-70050449D01*
X194767510Y-70021064D01*
X194752750Y-69991707D01*
X194737977Y-69962370D01*
X194723197Y-69933061D01*
X194708404Y-69903772D01*
X194693602Y-69874512D01*
X194678789Y-69845271D01*
X194663967Y-69816059D01*
X194649133Y-69786867D01*
X194634291Y-69757703D01*
X194619437Y-69728558D01*
X194604575Y-69699442D01*
X194589700Y-69670346D01*
X194574817Y-69641278D01*
X194559922Y-69612230D01*
X194545019Y-69583210D01*
X194530104Y-69554210D01*
X194515180Y-69525238D01*
X194500245Y-69496285D01*
X194485301Y-69467361D01*
X194470345Y-69438457D01*
X194455381Y-69409581D01*
X194440405Y-69380724D01*
X194425421Y-69351896D01*
X194410424Y-69323087D01*
X194395420Y-69294306D01*
X194380404Y-69265545D01*
X194365379Y-69236813D01*
X194350342Y-69208099D01*
X194335298Y-69179414D01*
X194320241Y-69150749D01*
X194305176Y-69122111D01*
X194290099Y-69093493D01*
X194275015Y-69064904D01*
X194259917Y-69036333D01*
X194244813Y-69007791D01*
X194229695Y-68979268D01*
X194214570Y-68950774D01*
X194199433Y-68922299D01*
X194184288Y-68893852D01*
X194169131Y-68865424D01*
X194153966Y-68837024D01*
X194138789Y-68808644D01*
X194123604Y-68780292D01*
X194108407Y-68751959D01*
X194093202Y-68723654D01*
X194062760Y-68667111D01*
X194032278Y-68610663D01*
X194001756Y-68554309D01*
X193971195Y-68498049D01*
X193940594Y-68441884D01*
X193909953Y-68385814D01*
X193879273Y-68329837D01*
X193848553Y-68273955D01*
X193817794Y-68218167D01*
X193786995Y-68162472D01*
X193756156Y-68106872D01*
X193725279Y-68051365D01*
X193694362Y-67995952D01*
X193663406Y-67940633D01*
X193632410Y-67885407D01*
X193601375Y-67830275D01*
X193570302Y-67775237D01*
X193539189Y-67720291D01*
X193508037Y-67665439D01*
X193476846Y-67610680D01*
X193445616Y-67556014D01*
X193414347Y-67501441D01*
X193383039Y-67446961D01*
X193351693Y-67392574D01*
X193320307Y-67338280D01*
X193288883Y-67284078D01*
X193257421Y-67229969D01*
X193225919Y-67175953D01*
X193194379Y-67122029D01*
X193162801Y-67068198D01*
X193131183Y-67014458D01*
X193099528Y-66960811D01*
X193067834Y-66907257D01*
X193036102Y-66853794D01*
X193004331Y-66800423D01*
X192972522Y-66747144D01*
X192940675Y-66693957D01*
X192908789Y-66640862D01*
X192876866Y-66587859D01*
X192844904Y-66534947D01*
X192812904Y-66482127D01*
X192780866Y-66429398D01*
X192748790Y-66376760D01*
X192716677Y-66324214D01*
X192684525Y-66271760D01*
X192652335Y-66219396D01*
X192620108Y-66167123D01*
X192587843Y-66114942D01*
X192555540Y-66062851D01*
X192523199Y-66010852D01*
X192490821Y-65958943D01*
X192458405Y-65907125D01*
X192425952Y-65855397D01*
X192393461Y-65803760D01*
X192360932Y-65752214D01*
X192328366Y-65700758D01*
X192295763Y-65649392D01*
X192263122Y-65598117D01*
X192230444Y-65546932D01*
X192197729Y-65495837D01*
X192164977Y-65444832D01*
X192132187Y-65393917D01*
X192099360Y-65343092D01*
X192066496Y-65292357D01*
X192033595Y-65241712D01*
X192000657Y-65191156D01*
X191967682Y-65140691D01*
X191934670Y-65090314D01*
X191901621Y-65040027D01*
X191868535Y-64989830D01*
X191835413Y-64939722D01*
X191802253Y-64889703D01*
X191769057Y-64839774D01*
X191735824Y-64789933D01*
X191702555Y-64740182D01*
X191669249Y-64690520D01*
X191635906Y-64640946D01*
X191602527Y-64591462D01*
X191569111Y-64542066D01*
X191535659Y-64492759D01*
X191502170Y-64443541D01*
X191468645Y-64394412D01*
X191435083Y-64345370D01*
X191401486Y-64296418D01*
X191367852Y-64247554D01*
X191334182Y-64198778D01*
X191300475Y-64150090D01*
X191266732Y-64101491D01*
X191232954Y-64052979D01*
X191199139Y-64004556D01*
X191165288Y-63956221D01*
X191131401Y-63907973D01*
X191097479Y-63859814D01*
X191063520Y-63811742D01*
X191029525Y-63763758D01*
X190995495Y-63715862D01*
X190961429Y-63668053D01*
X190927327Y-63620332D01*
X190893189Y-63572698D01*
X190859015Y-63525152D01*
X190824806Y-63477693D01*
X190790562Y-63430321D01*
X190756281Y-63383037D01*
X190721965Y-63335840D01*
X190687614Y-63288729D01*
X190653227Y-63241706D01*
X190618805Y-63194770D01*
X190584348Y-63147921D01*
X190549855Y-63101158D01*
X190515326Y-63054482D01*
X190480763Y-63007893D01*
X190446164Y-62961391D01*
X190411530Y-62914975D01*
X190376861Y-62868646D01*
X190342156Y-62822403D01*
X190307417Y-62776246D01*
X190272643Y-62730176D01*
X190237833Y-62684193D01*
X190202989Y-62638295D01*
X190168109Y-62592483D01*
X190133195Y-62546758D01*
X190098246Y-62501119D01*
X190063262Y-62455565D01*
X190028243Y-62410098D01*
X189993190Y-62364716D01*
X189958101Y-62319420D01*
X189922978Y-62274210D01*
X189887821Y-62229086D01*
X189852628Y-62184047D01*
X189817402Y-62139094D01*
X189782140Y-62094226D01*
X189746844Y-62049444D01*
X189711514Y-62004747D01*
X189676149Y-61960135D01*
X189640750Y-61915609D01*
X189605317Y-61871168D01*
X189569849Y-61826812D01*
X189534347Y-61782541D01*
X189498810Y-61738355D01*
X189463240Y-61694254D01*
X189427635Y-61650238D01*
X189391996Y-61606307D01*
X189356323Y-61562461D01*
X189320616Y-61518699D01*
X189284875Y-61475022D01*
X189249100Y-61431430D01*
X189213291Y-61387923D01*
X189177448Y-61344500D01*
X189141571Y-61301161D01*
X189105660Y-61257907D01*
X189069715Y-61214738D01*
X189033737Y-61171652D01*
X188997725Y-61128651D01*
X188961679Y-61085734D01*
X188925600Y-61042902D01*
X188889487Y-61000153D01*
X188853340Y-60957489D01*
X188817159Y-60914908D01*
X188780946Y-60872411D01*
X188744698Y-60829999D01*
X188708417Y-60787670D01*
X188672103Y-60745425D01*
X188635755Y-60703264D01*
X188599374Y-60661186D01*
X188562960Y-60619193D01*
X188526512Y-60577282D01*
X188490032Y-60535456D01*
X188453517Y-60493712D01*
X188416970Y-60452053D01*
X188380390Y-60410476D01*
X188343776Y-60368983D01*
X188307130Y-60327574D01*
X188270450Y-60286247D01*
X188233737Y-60245004D01*
X188196992Y-60203844D01*
X188160213Y-60162767D01*
X188123402Y-60121773D01*
X188086558Y-60080862D01*
X188049680Y-60040035D01*
X188012770Y-59999290D01*
X187975828Y-59958628D01*
X187938852Y-59918048D01*
X187901844Y-59877552D01*
X187864804Y-59837138D01*
X187827730Y-59796807D01*
X187790624Y-59756559D01*
X187753486Y-59716393D01*
X187716315Y-59676310D01*
X187679112Y-59636310D01*
X187641876Y-59596391D01*
X187604608Y-59556556D01*
X187567307Y-59516802D01*
X187529974Y-59477131D01*
X187492609Y-59437543D01*
X187455211Y-59398036D01*
X187417782Y-59358612D01*
X187380320Y-59319270D01*
X187342826Y-59280010D01*
X187305300Y-59240832D01*
X187267742Y-59201737D01*
X187230151Y-59162723D01*
X187192529Y-59123791D01*
X187154875Y-59084941D01*
X187117189Y-59046173D01*
X187079471Y-59007487D01*
X187041721Y-58968883D01*
X187003939Y-58930360D01*
X186966126Y-58891920D01*
X186928281Y-58853560D01*
X186890404Y-58815283D01*
X186852495Y-58777087D01*
X186814555Y-58738973D01*
X186776584Y-58700940D01*
X186738580Y-58662989D01*
X186700545Y-58625119D01*
X186662479Y-58587331D01*
X186624381Y-58549624D01*
X186586252Y-58511998D01*
X186548092Y-58474454D01*
X186509900Y-58436991D01*
X186471677Y-58399609D01*
X186433422Y-58362309D01*
X186395137Y-58325089D01*
X186356820Y-58287951D01*
X186318472Y-58250894D01*
X186280093Y-58213918D01*
X186241683Y-58177023D01*
X186203241Y-58140209D01*
X186164769Y-58103476D01*
X186126266Y-58066823D01*
X186087732Y-58030252D01*
X186049167Y-57993762D01*
X186010572Y-57957352D01*
X185971945Y-57921024D01*
X185933288Y-57884776D01*
X185894600Y-57848609D01*
X185855881Y-57812522D01*
X185817132Y-57776516D01*
X185778352Y-57740591D01*
X185739542Y-57704747D01*
X185700701Y-57668983D01*
X185661829Y-57633300D01*
X185622928Y-57597697D01*
X185583995Y-57562175D01*
X185545033Y-57526733D01*
X185506040Y-57491372D01*
X185467017Y-57456091D01*
X185427963Y-57420890D01*
X185388880Y-57385770D01*
X185349766Y-57350730D01*
X185310622Y-57315771D01*
X185271448Y-57280891D01*
X185232245Y-57246093D01*
X185193011Y-57211374D01*
X185153747Y-57176735D01*
X185114453Y-57142177D01*
X185075130Y-57107699D01*
X185035776Y-57073301D01*
X184996393Y-57038983D01*
X184956980Y-57004745D01*
X184917538Y-56970588D01*
X184878066Y-56936510D01*
X184838564Y-56902512D01*
X184799033Y-56868595D01*
X184759472Y-56834757D01*
X184719882Y-56800999D01*
X184680262Y-56767321D01*
X184640613Y-56733723D01*
X184600935Y-56700206D01*
X184561227Y-56666767D01*
X184521490Y-56633409D01*
X184481724Y-56600131D01*
X184441929Y-56566932D01*
X184402105Y-56533813D01*
X184362252Y-56500774D01*
X184322370Y-56467815D01*
X184282458Y-56434935D01*
X184242518Y-56402136D01*
X184202549Y-56369415D01*
X184162552Y-56336775D01*
X184122525Y-56304214D01*
X184082470Y-56271733D01*
X184042386Y-56239332D01*
X184002274Y-56207010D01*
X183962133Y-56174767D01*
X183921963Y-56142605D01*
X183881765Y-56110522D01*
X183841539Y-56078518D01*
X183801284Y-56046594D01*
X183761001Y-56014750D01*
X183720690Y-55982985D01*
X183680351Y-55951299D01*
X183639983Y-55919693D01*
X183599587Y-55888167D01*
X183559163Y-55856720D01*
X183518712Y-55825352D01*
X183478232Y-55794064D01*
X183437725Y-55762855D01*
X183397189Y-55731726D01*
X183356626Y-55700676D01*
X183316035Y-55669706D01*
X183275417Y-55638815D01*
X183234771Y-55608003D01*
X183194097Y-55577271D01*
X183153396Y-55546618D01*
X183112667Y-55516044D01*
X183071911Y-55485550D01*
X183031128Y-55455135D01*
X182990318Y-55424800D01*
X182949480Y-55394544D01*
X182908615Y-55364367D01*
X182867723Y-55334269D01*
X182826804Y-55304251D01*
X182785858Y-55274312D01*
X182744885Y-55244453D01*
X182703886Y-55214672D01*
X182662859Y-55184971D01*
X182621806Y-55155350D01*
X182580726Y-55125807D01*
X182539620Y-55096344D01*
X182498487Y-55066960D01*
X182457328Y-55037656D01*
X182416142Y-55008430D01*
X182374930Y-54979284D01*
X182333691Y-54950218D01*
X182292427Y-54921230D01*
X182251136Y-54892322D01*
X182209819Y-54863493D01*
X182168477Y-54834743D01*
X182127108Y-54806073D01*
X182085713Y-54777482D01*
X182044293Y-54748970D01*
X182002847Y-54720538D01*
X181961375Y-54692184D01*
X181919878Y-54663911D01*
X181878355Y-54635716D01*
X181836807Y-54607601D01*
X181795234Y-54579565D01*
X181753635Y-54551608D01*
X181712011Y-54523730D01*
X181670362Y-54495932D01*
X181628687Y-54468214D01*
X181586988Y-54440574D01*
X181545264Y-54413014D01*
X181503515Y-54385533D01*
X181461741Y-54358132D01*
X181419943Y-54330810D01*
X181378120Y-54303567D01*
X181336273Y-54276404D01*
X181294401Y-54249320D01*
X181252505Y-54222315D01*
X181210584Y-54195390D01*
X181168640Y-54168544D01*
X181126671Y-54141778D01*
X181084678Y-54115091D01*
X181042662Y-54088484D01*
X181000621Y-54061956D01*
X180958557Y-54035507D01*
X180916469Y-54009138D01*
X180874357Y-53982848D01*
X180832223Y-53956638D01*
X180790064Y-53930508D01*
X180747883Y-53904457D01*
X180705678Y-53878485D01*
X180663450Y-53852594D01*
X180621199Y-53826781D01*
X180578925Y-53801049D01*
X180536628Y-53775396D01*
X180494309Y-53749822D01*
X180451967Y-53724328D01*
X180409602Y-53698914D01*
X180367215Y-53673580D01*
X180324806Y-53648325D01*
X180282374Y-53623150D01*
X180239920Y-53598055D01*
X180197445Y-53573039D01*
X180154947Y-53548104D01*
X180112427Y-53523248D01*
X180069886Y-53498472D01*
X180027323Y-53473776D01*
X179984739Y-53449159D01*
X179942133Y-53424623D01*
X179899507Y-53400166D01*
X179856858Y-53375790D01*
X179814189Y-53351493D01*
X179771499Y-53327276D01*
X179728788Y-53303140D01*
X179686057Y-53279083D01*
X179643305Y-53255107D01*
X179600532Y-53231210D01*
X179557739Y-53207394D01*
X179514926Y-53183658D01*
X179472093Y-53160002D01*
X179429239Y-53136426D01*
X179386366Y-53112931D01*
X179343474Y-53089515D01*
X179300561Y-53066181D01*
X179257629Y-53042926D01*
X179214678Y-53019752D01*
X179171708Y-52996658D01*
X179128719Y-52973644D01*
X179085710Y-52950711D01*
X179042683Y-52927859D01*
X178999637Y-52905087D01*
X178956573Y-52882395D01*
X178913490Y-52859784D01*
X178870389Y-52837254D01*
X178827270Y-52814805D01*
X178784133Y-52792436D01*
X178740979Y-52770147D01*
X178697806Y-52747940D01*
X178654617Y-52725813D01*
X178611409Y-52703768D01*
X178568185Y-52681803D01*
X178524944Y-52659919D01*
X178481685Y-52638116D01*
X178438410Y-52616394D01*
X178395119Y-52594753D01*
X178351811Y-52573193D01*
X178308487Y-52551714D01*
X178265146Y-52530316D01*
X178221790Y-52509000D01*
X178178418Y-52487765D01*
X178135031Y-52466611D01*
X178091628Y-52445538D01*
X178048210Y-52424547D01*
X178004777Y-52403637D01*
X177961329Y-52382809D01*
X177917867Y-52362062D01*
X177874390Y-52341397D01*
X177830898Y-52320813D01*
X177787393Y-52300311D01*
X177743873Y-52279891D01*
X177700340Y-52259552D01*
X177656794Y-52239296D01*
X177613234Y-52219121D01*
X177569661Y-52199028D01*
X177526075Y-52179017D01*
X177482476Y-52159088D01*
X177438865Y-52139241D01*
X177395241Y-52119476D01*
X177351605Y-52099793D01*
X177307958Y-52080193D01*
X177264299Y-52060675D01*
X177220628Y-52041239D01*
X177176946Y-52021885D01*
X177133253Y-52002614D01*
X177089549Y-51983426D01*
X177045835Y-51964320D01*
X177002110Y-51945296D01*
X176958376Y-51926355D01*
X176914631Y-51907497D01*
X176870877Y-51888722D01*
X176827113Y-51870030D01*
X176783341Y-51851420D01*
X176739559Y-51832894D01*
X176695769Y-51814450D01*
X176651971Y-51796090D01*
X176608164Y-51777813D01*
X176564350Y-51759619D01*
X176520528Y-51741508D01*
X176476699Y-51723480D01*
X176432862Y-51705536D01*
X176389019Y-51687676D01*
X176345170Y-51669899D01*
X176301314Y-51652206D01*
X176257453Y-51634596D01*
X176213586Y-51617070D01*
X176169713Y-51599628D01*
X176125836Y-51582270D01*
X176081953Y-51564996D01*
X176038067Y-51547805D01*
X175994176Y-51530699D01*
X175950282Y-51513677D01*
X175906384Y-51496740D01*
X175862482Y-51479886D01*
X175818579Y-51463117D01*
X175774672Y-51446433D01*
X175730764Y-51429833D01*
X175686853Y-51413317D01*
X175642941Y-51396887D01*
X175599028Y-51380541D01*
X175555115Y-51364280D01*
X175511201Y-51348104D01*
X175467287Y-51332013D01*
X175423373Y-51316007D01*
X175379460Y-51300086D01*
X175335548Y-51284251D01*
X175291637Y-51268501D01*
X175247728Y-51252836D01*
X175203822Y-51237257D01*
X175159918Y-51221763D01*
X175116017Y-51206355D01*
X175072120Y-51191033D01*
X175028227Y-51175797D01*
X174984338Y-51160646D01*
X174940453Y-51145582D01*
X174896574Y-51130604D01*
X174852701Y-51115712D01*
X174808833Y-51100906D01*
X174764972Y-51086187D01*
X174721119Y-51071554D01*
X174677272Y-51057007D01*
X174633434Y-51042548D01*
X174589603Y-51028175D01*
X174545782Y-51013889D01*
X174501970Y-50999690D01*
X174458169Y-50985578D01*
X174414377Y-50971553D01*
X174370597Y-50957616D01*
X174326827Y-50943765D01*
X174283070Y-50930002D01*
X174239326Y-50916327D01*
X174195594Y-50902740D01*
X174151877Y-50889240D01*
X174108173Y-50875828D01*
X174064485Y-50862504D01*
X174020811Y-50849268D01*
X173977154Y-50836120D01*
X173933513Y-50823060D01*
X173889890Y-50810089D01*
X173846284Y-50797206D01*
X173802697Y-50784412D01*
X173759129Y-50771707D01*
X173715581Y-50759090D01*
X173672053Y-50746562D01*
X173628547Y-50734124D01*
X173585062Y-50721774D01*
X173541600Y-50709514D01*
X173498161Y-50697343D01*
X173454746Y-50685262D01*
X173411356Y-50673270D01*
X173367991Y-50661368D01*
X173324653Y-50649556D01*
X173281341Y-50637834D01*
X173238058Y-50626202D01*
X173194803Y-50614660D01*
X173151577Y-50603208D01*
X173108382Y-50591847D01*
X173065218Y-50580577D01*
X173022086Y-50569397D01*
X172978987Y-50558308D01*
X172935921Y-50547310D01*
X172892891Y-50536403D01*
X172849896Y-50525587D01*
X172806937Y-50514863D01*
X172764016Y-50504230D01*
X172721134Y-50493689D01*
X172678291Y-50483239D01*
X172635489Y-50472882D01*
X172592728Y-50462616D01*
X172550010Y-50452443D01*
X172507336Y-50442361D01*
X172464707Y-50432373D01*
X172422124Y-50422476D01*
X172379588Y-50412673D01*
X172337100Y-50402962D01*
X172294662Y-50393345D01*
X172252274Y-50383820D01*
X172209939Y-50374389D01*
X172167657Y-50365051D01*
X172125430Y-50355807D01*
X172083258Y-50346656D01*
X172041144Y-50337600D01*
X171999089Y-50328637D01*
X171957093Y-50319769D01*
X171915160Y-50310995D01*
X171873289Y-50302315D01*
X171831483Y-50293730D01*
X171789743Y-50285240D01*
X171748071Y-50276845D01*
X171706469Y-50268545D01*
X171664937Y-50260340D01*
X171623478Y-50252231D01*
X171582094Y-50244218D01*
X171540787Y-50236300D01*
X171499557Y-50228478D01*
X171458407Y-50220752D01*
X171417340Y-50213122D01*
X171376356Y-50205589D01*
X171335459Y-50198153D01*
X171294650Y-50190813D01*
X171253931Y-50183571D01*
X171213304Y-50176425D01*
X171172772Y-50169377D01*
X171132338Y-50162427D01*
X171092003Y-50155574D01*
X171051770Y-50148819D01*
X171011641Y-50142162D01*
X170971620Y-50135603D01*
X170931708Y-50129143D01*
X170891909Y-50122781D01*
X170852225Y-50116519D01*
X170812660Y-50110355D01*
X170773216Y-50104290D01*
X170733897Y-50098325D01*
X170694705Y-50092460D01*
X170655645Y-50086694D01*
X170616719Y-50081029D01*
X170577931Y-50075463D01*
X170539285Y-50069999D01*
X170500785Y-50064634D01*
X170462435Y-50059371D01*
X170424238Y-50054209D01*
X170386200Y-50049148D01*
X170348324Y-50044188D01*
X170310615Y-50039330D01*
X170273078Y-50034574D01*
X170235718Y-50029921D01*
X170198539Y-50025370D01*
X170161549Y-50020921D01*
X170124751Y-50016575D01*
X170088153Y-50012333D01*
X170051760Y-50008193D01*
X170015578Y-50004158D01*
X169979615Y-50000226D01*
X169943877Y-49996398D01*
X169908373Y-49992674D01*
X169873109Y-49989055D01*
X169838095Y-49985541D01*
X169803338Y-49982132D01*
X169768848Y-49978828D01*
X169734635Y-49975630D01*
X169700709Y-49972538D01*
X169667082Y-49969552D01*
X169633764Y-49966672D01*
X169600769Y-49963899D01*
X169568109Y-49961233D01*
X169535799Y-49958674D01*
X169503855Y-49956222D01*
X169472293Y-49953878D01*
X169441131Y-49951643D01*
X169410389Y-49949515D01*
X169380088Y-49947497D01*
X169350252Y-49945587D01*
X169320906Y-49943786D01*
X169292079Y-49942095D01*
X169263803Y-49940514D01*
X169236113Y-49939043D01*
X169209051Y-49937682D01*
X169182664Y-49936432D01*
X169157003Y-49935293D01*
X169132134Y-49934265D01*
X169108131Y-49933348D01*
X169085085Y-49932543D01*
X169063110Y-49931850D01*
X169042352Y-49931268D01*
X169023009Y-49930798D01*
X169005358Y-49930439D01*
X168989838Y-49930190D01*
X168977238Y-49930047D01*
X168969000Y-49930000D01*
D10*
X161069000Y-149930000D02*
X175069000Y-149930000D01*
M02*
