%TF.GenerationSoftware,KiCad,Pcbnew,7.0.8*%
%TF.CreationDate,2024-10-12T14:26:22+02:00*%
%TF.ProjectId,PCB_Christmas_Tree,5043425f-4368-4726-9973-746d61735f54,rev?*%
%TF.SameCoordinates,Original*%
%TF.FileFunction,Drillmap*%
%TF.FilePolarity,Positive*%
%FSLAX45Y45*%
G04 Gerber Fmt 4.5, Leading zero omitted, Abs format (unit mm)*
G04 Created by KiCad (PCBNEW 7.0.8) date 2024-10-12 14:26:22*
%MOMM*%
%LPD*%
G01*
G04 APERTURE LIST*
%ADD10C,0.100000*%
%ADD11C,0.200000*%
%ADD12C,0.040000*%
%ADD13C,0.180000*%
G04 APERTURE END LIST*
D10*
X18958000Y-10340000D02*
X16958000Y-10340000D01*
X12458000Y-7340000D02*
X13708000Y-7340000D01*
X15048000Y-3880000D02*
X15048000Y-10560000D01*
X12958000Y-10340000D02*
X9958000Y-13740000D01*
X15048000Y-3880000D02*
X17458000Y-7340000D01*
X16958000Y-10340000D02*
X19958000Y-13740000D01*
X13708000Y-7340000D02*
X10958000Y-10340000D01*
X15048000Y-10560000D02*
X14868000Y-10560000D01*
X14868000Y-10560000D02*
X14868000Y-3880000D01*
X16208000Y-7340000D02*
X17458000Y-7340000D01*
X12958000Y-10340000D02*
X10958000Y-10340000D01*
X14868000Y-3880000D02*
X12458000Y-7340000D01*
X16208000Y-7340000D02*
X18958000Y-10340000D01*
X19958000Y-13740000D02*
X9958000Y-13740000D01*
D11*
D12*
X11205320Y-13581120D02*
X11245320Y-13621120D01*
X11245320Y-13581120D02*
X11205320Y-13621120D01*
X11388200Y-13383000D02*
X11428200Y-13423000D01*
X11428200Y-13383000D02*
X11388200Y-13423000D01*
X12048600Y-12036800D02*
X12088600Y-12076800D01*
X12088600Y-12036800D02*
X12048600Y-12076800D01*
X12246720Y-11843760D02*
X12286720Y-11883760D01*
X12286720Y-11843760D02*
X12246720Y-11883760D01*
X12251800Y-12240000D02*
X12291800Y-12280000D01*
X12291800Y-12240000D02*
X12251800Y-12280000D01*
X12312760Y-9760960D02*
X12352760Y-9800960D01*
X12352760Y-9760960D02*
X12312760Y-9800960D01*
X12317840Y-10157200D02*
X12357840Y-10197200D01*
X12357840Y-10157200D02*
X12317840Y-10197200D01*
X12353400Y-13332200D02*
X12393400Y-13372200D01*
X12393400Y-13332200D02*
X12353400Y-13372200D01*
X12510880Y-9954000D02*
X12550880Y-9994000D01*
X12550880Y-9954000D02*
X12510880Y-9994000D01*
X12627720Y-13565880D02*
X12667720Y-13605880D01*
X12667720Y-13565880D02*
X12627720Y-13605880D01*
X12642960Y-13113760D02*
X12682960Y-13153760D01*
X12682960Y-13113760D02*
X12642960Y-13153760D01*
X12810600Y-8950700D02*
X12850600Y-8990700D01*
X12850600Y-8950700D02*
X12810600Y-8990700D01*
X12957920Y-13332200D02*
X12997920Y-13372200D01*
X12997920Y-13332200D02*
X12957920Y-13372200D01*
X13079840Y-13118840D02*
X13119840Y-13158840D01*
X13119840Y-13118840D02*
X13079840Y-13158840D01*
X13206840Y-13342360D02*
X13246840Y-13382360D01*
X13246840Y-13342360D02*
X13206840Y-13382360D01*
X13435440Y-13560800D02*
X13475440Y-13600800D01*
X13475440Y-13560800D02*
X13435440Y-13600800D01*
X13440520Y-13113760D02*
X13480520Y-13153760D01*
X13480520Y-13113760D02*
X13440520Y-13153760D01*
X13455760Y-12692120D02*
X13495760Y-12732120D01*
X13495760Y-12692120D02*
X13455760Y-12732120D01*
X13628480Y-12636240D02*
X13668480Y-12676240D01*
X13668480Y-12636240D02*
X13628480Y-12676240D01*
X13915500Y-13141700D02*
X13955500Y-13181700D01*
X13955500Y-13141700D02*
X13915500Y-13181700D01*
X13943440Y-6921240D02*
X13983440Y-6961240D01*
X13983440Y-6921240D02*
X13943440Y-6961240D01*
X13953000Y-13590000D02*
X13993000Y-13630000D01*
X13993000Y-13590000D02*
X13953000Y-13630000D01*
X14202520Y-12422880D02*
X14242520Y-12462880D01*
X14242520Y-12422880D02*
X14202520Y-12462880D01*
X14238080Y-10268960D02*
X14278080Y-10308960D01*
X14278080Y-10268960D02*
X14238080Y-10308960D01*
X14248240Y-5524240D02*
X14288240Y-5564240D01*
X14288240Y-5524240D02*
X14248240Y-5564240D01*
X14309200Y-12138400D02*
X14349200Y-12178400D01*
X14349200Y-12138400D02*
X14309200Y-12178400D01*
X14339680Y-9267000D02*
X14379680Y-9307000D01*
X14379680Y-9267000D02*
X14339680Y-9307000D01*
X14339680Y-10162280D02*
X14379680Y-10202280D01*
X14379680Y-10162280D02*
X14339680Y-10202280D01*
X14400640Y-8936800D02*
X14440640Y-8976800D01*
X14440640Y-8936800D02*
X14400640Y-8976800D01*
X14451440Y-9597200D02*
X14491440Y-9637200D01*
X14491440Y-9597200D02*
X14451440Y-9637200D01*
X14481920Y-13525240D02*
X14521920Y-13565240D01*
X14521920Y-13525240D02*
X14481920Y-13565240D01*
X14527640Y-11955520D02*
X14567640Y-11995520D01*
X14567640Y-11955520D02*
X14527640Y-11995520D01*
X14537800Y-12798800D02*
X14577800Y-12838800D01*
X14577800Y-12798800D02*
X14537800Y-12838800D01*
X14542880Y-12392400D02*
X14582880Y-12432400D01*
X14582880Y-12392400D02*
X14542880Y-12432400D01*
X14608920Y-10152120D02*
X14648920Y-10192120D01*
X14648920Y-10152120D02*
X14608920Y-10192120D01*
X14614000Y-5509000D02*
X14654000Y-5549000D01*
X14654000Y-5509000D02*
X14614000Y-5549000D01*
X14614000Y-5763000D02*
X14654000Y-5803000D01*
X14654000Y-5763000D02*
X14614000Y-5803000D01*
X14614000Y-6017000D02*
X14654000Y-6057000D01*
X14654000Y-6017000D02*
X14614000Y-6057000D01*
X14614000Y-6271000D02*
X14654000Y-6311000D01*
X14654000Y-6271000D02*
X14614000Y-6311000D01*
X14614000Y-6525000D02*
X14654000Y-6565000D01*
X14654000Y-6525000D02*
X14614000Y-6565000D01*
X14614000Y-6779000D02*
X14654000Y-6819000D01*
X14654000Y-6779000D02*
X14614000Y-6819000D01*
X14614000Y-7033000D02*
X14654000Y-7073000D01*
X14654000Y-7033000D02*
X14614000Y-7073000D01*
X14614000Y-7287000D02*
X14654000Y-7327000D01*
X14654000Y-7287000D02*
X14614000Y-7327000D01*
X14614000Y-7541000D02*
X14654000Y-7581000D01*
X14654000Y-7541000D02*
X14614000Y-7581000D01*
X14614000Y-7795000D02*
X14654000Y-7835000D01*
X14654000Y-7795000D02*
X14614000Y-7835000D01*
X14614000Y-8049000D02*
X14654000Y-8089000D01*
X14654000Y-8049000D02*
X14614000Y-8089000D01*
X14614000Y-8303000D02*
X14654000Y-8343000D01*
X14654000Y-8303000D02*
X14614000Y-8343000D01*
X14614000Y-8887200D02*
X14654000Y-8927200D01*
X14654000Y-8887200D02*
X14614000Y-8927200D01*
X14614000Y-8988800D02*
X14654000Y-9028800D01*
X14654000Y-8988800D02*
X14614000Y-9028800D01*
X14614000Y-9217400D02*
X14654000Y-9257400D01*
X14654000Y-9217400D02*
X14614000Y-9257400D01*
X14614000Y-9319000D02*
X14654000Y-9359000D01*
X14654000Y-9319000D02*
X14614000Y-9359000D01*
X14614000Y-9547600D02*
X14654000Y-9587600D01*
X14654000Y-9547600D02*
X14614000Y-9587600D01*
X14614000Y-9649200D02*
X14654000Y-9689200D01*
X14654000Y-9649200D02*
X14614000Y-9689200D01*
X14614000Y-9852400D02*
X14654000Y-9892400D01*
X14654000Y-9852400D02*
X14614000Y-9892400D01*
X14614000Y-9954000D02*
X14654000Y-9994000D01*
X14654000Y-9954000D02*
X14614000Y-9994000D01*
X14730840Y-8694160D02*
X14770840Y-8734160D01*
X14770840Y-8694160D02*
X14730840Y-8734160D01*
X14735920Y-10324840D02*
X14775920Y-10364840D01*
X14775920Y-10324840D02*
X14735920Y-10364840D01*
X14741000Y-8887200D02*
X14781000Y-8927200D01*
X14781000Y-8887200D02*
X14741000Y-8927200D01*
X14741000Y-8988800D02*
X14781000Y-9028800D01*
X14781000Y-8988800D02*
X14741000Y-9028800D01*
X14741000Y-9217400D02*
X14781000Y-9257400D01*
X14781000Y-9217400D02*
X14741000Y-9257400D01*
X14741000Y-9319000D02*
X14781000Y-9359000D01*
X14781000Y-9319000D02*
X14741000Y-9359000D01*
X14741000Y-9547600D02*
X14781000Y-9587600D01*
X14781000Y-9547600D02*
X14741000Y-9587600D01*
X14741000Y-9649200D02*
X14781000Y-9689200D01*
X14781000Y-9649200D02*
X14741000Y-9689200D01*
X14741000Y-9852400D02*
X14781000Y-9892400D01*
X14781000Y-9852400D02*
X14741000Y-9892400D01*
X14741000Y-9954000D02*
X14781000Y-9994000D01*
X14781000Y-9954000D02*
X14741000Y-9994000D01*
X14741000Y-11960600D02*
X14781000Y-12000600D01*
X14781000Y-11960600D02*
X14741000Y-12000600D01*
X14741000Y-12189200D02*
X14781000Y-12229200D01*
X14781000Y-12189200D02*
X14741000Y-12229200D01*
X14751160Y-10147040D02*
X14791160Y-10187040D01*
X14791160Y-10147040D02*
X14751160Y-10187040D01*
X14793000Y-4410000D02*
X14833000Y-4450000D01*
X14833000Y-4410000D02*
X14793000Y-4450000D01*
X14913720Y-11940280D02*
X14953720Y-11980280D01*
X14953720Y-11940280D02*
X14913720Y-11980280D01*
X15066120Y-11940280D02*
X15106120Y-11980280D01*
X15106120Y-11940280D02*
X15066120Y-11980280D01*
X15083000Y-4410000D02*
X15123000Y-4450000D01*
X15123000Y-4410000D02*
X15083000Y-4450000D01*
X15122000Y-8704320D02*
X15162000Y-8744320D01*
X15162000Y-8704320D02*
X15122000Y-8744320D01*
X15122000Y-10147040D02*
X15162000Y-10187040D01*
X15162000Y-10147040D02*
X15122000Y-10187040D01*
X15132160Y-10319760D02*
X15172160Y-10359760D01*
X15172160Y-10319760D02*
X15132160Y-10359760D01*
X15147400Y-8887200D02*
X15187400Y-8927200D01*
X15187400Y-8887200D02*
X15147400Y-8927200D01*
X15147400Y-8988800D02*
X15187400Y-9028800D01*
X15187400Y-8988800D02*
X15147400Y-9028800D01*
X15147400Y-9217400D02*
X15187400Y-9257400D01*
X15187400Y-9217400D02*
X15147400Y-9257400D01*
X15147400Y-9319000D02*
X15187400Y-9359000D01*
X15187400Y-9319000D02*
X15147400Y-9359000D01*
X15147400Y-9547600D02*
X15187400Y-9587600D01*
X15187400Y-9547600D02*
X15147400Y-9587600D01*
X15147400Y-9649200D02*
X15187400Y-9689200D01*
X15187400Y-9649200D02*
X15147400Y-9689200D01*
X15147400Y-9852400D02*
X15187400Y-9892400D01*
X15187400Y-9852400D02*
X15147400Y-9892400D01*
X15147400Y-9954000D02*
X15187400Y-9994000D01*
X15187400Y-9954000D02*
X15147400Y-9994000D01*
X15152480Y-8465560D02*
X15192480Y-8505560D01*
X15192480Y-8465560D02*
X15152480Y-8505560D01*
X15223600Y-12201900D02*
X15263600Y-12241900D01*
X15263600Y-12201900D02*
X15223600Y-12241900D01*
X15249000Y-5509000D02*
X15289000Y-5549000D01*
X15289000Y-5509000D02*
X15249000Y-5549000D01*
X15249000Y-5763000D02*
X15289000Y-5803000D01*
X15289000Y-5763000D02*
X15249000Y-5803000D01*
X15249000Y-6017000D02*
X15289000Y-6057000D01*
X15289000Y-6017000D02*
X15249000Y-6057000D01*
X15249000Y-6271000D02*
X15289000Y-6311000D01*
X15289000Y-6271000D02*
X15249000Y-6311000D01*
X15249000Y-6525000D02*
X15289000Y-6565000D01*
X15289000Y-6525000D02*
X15249000Y-6565000D01*
X15249000Y-6779000D02*
X15289000Y-6819000D01*
X15289000Y-6779000D02*
X15249000Y-6819000D01*
X15249000Y-7033000D02*
X15289000Y-7073000D01*
X15289000Y-7033000D02*
X15249000Y-7073000D01*
X15249000Y-7287000D02*
X15289000Y-7327000D01*
X15289000Y-7287000D02*
X15249000Y-7327000D01*
X15249000Y-7541000D02*
X15289000Y-7581000D01*
X15289000Y-7541000D02*
X15249000Y-7581000D01*
X15249000Y-7795000D02*
X15289000Y-7835000D01*
X15289000Y-7795000D02*
X15249000Y-7835000D01*
X15249000Y-8049000D02*
X15289000Y-8089000D01*
X15289000Y-8049000D02*
X15249000Y-8089000D01*
X15264240Y-10147040D02*
X15304240Y-10187040D01*
X15304240Y-10147040D02*
X15264240Y-10187040D01*
X15274400Y-8887200D02*
X15314400Y-8927200D01*
X15314400Y-8887200D02*
X15274400Y-8927200D01*
X15274400Y-8988800D02*
X15314400Y-9028800D01*
X15314400Y-8988800D02*
X15274400Y-9028800D01*
X15274400Y-9217400D02*
X15314400Y-9257400D01*
X15314400Y-9217400D02*
X15274400Y-9257400D01*
X15274400Y-9319000D02*
X15314400Y-9359000D01*
X15314400Y-9319000D02*
X15274400Y-9359000D01*
X15274400Y-9547600D02*
X15314400Y-9587600D01*
X15314400Y-9547600D02*
X15274400Y-9587600D01*
X15274400Y-9649200D02*
X15314400Y-9689200D01*
X15314400Y-9649200D02*
X15274400Y-9689200D01*
X15274400Y-9852400D02*
X15314400Y-9892400D01*
X15314400Y-9852400D02*
X15274400Y-9892400D01*
X15274400Y-9954000D02*
X15314400Y-9994000D01*
X15314400Y-9954000D02*
X15274400Y-9994000D01*
X15340440Y-12407640D02*
X15380440Y-12447640D01*
X15380440Y-12407640D02*
X15340440Y-12447640D01*
X15381080Y-11909800D02*
X15421080Y-11949800D01*
X15421080Y-11909800D02*
X15381080Y-11949800D01*
X15386160Y-12661640D02*
X15426160Y-12701640D01*
X15426160Y-12661640D02*
X15386160Y-12701640D01*
X15413000Y-9115800D02*
X15453000Y-9155800D01*
X15453000Y-9115800D02*
X15413000Y-9155800D01*
X15413000Y-9433300D02*
X15453000Y-9473300D01*
X15453000Y-9433300D02*
X15413000Y-9473300D01*
X15426800Y-13497300D02*
X15466800Y-13537300D01*
X15466800Y-13497300D02*
X15426800Y-13537300D01*
X15447120Y-8744960D02*
X15487120Y-8784960D01*
X15487120Y-8744960D02*
X15447120Y-8784960D01*
X15452200Y-8937400D02*
X15492200Y-8977400D01*
X15492200Y-8937400D02*
X15452200Y-8977400D01*
X15509350Y-10074650D02*
X15549350Y-10114650D01*
X15549350Y-10074650D02*
X15509350Y-10114650D01*
X15599520Y-9267600D02*
X15639520Y-9307600D01*
X15639520Y-9267600D02*
X15599520Y-9307600D01*
X15609680Y-9597800D02*
X15649680Y-9637800D01*
X15649680Y-9597800D02*
X15609680Y-9637800D01*
X15617300Y-11337500D02*
X15657300Y-11377500D01*
X15657300Y-11337500D02*
X15617300Y-11377500D01*
X15635080Y-5524240D02*
X15675080Y-5564240D01*
X15675080Y-5524240D02*
X15635080Y-5564240D01*
X15757000Y-12092680D02*
X15797000Y-12132680D01*
X15797000Y-12092680D02*
X15757000Y-12132680D01*
X15787480Y-12255240D02*
X15827480Y-12295240D01*
X15827480Y-12255240D02*
X15787480Y-12295240D01*
X15787480Y-12438120D02*
X15827480Y-12478120D01*
X15827480Y-12438120D02*
X15787480Y-12478120D01*
X15843360Y-13073120D02*
X15883360Y-13113120D01*
X15883360Y-13073120D02*
X15843360Y-13113120D01*
X15845900Y-13446500D02*
X15885900Y-13486500D01*
X15885900Y-13446500D02*
X15845900Y-13486500D01*
X15929720Y-6931400D02*
X15969720Y-6971400D01*
X15969720Y-6931400D02*
X15929720Y-6971400D01*
X16036400Y-12920720D02*
X16076400Y-12960720D01*
X16076400Y-12920720D02*
X16036400Y-12960720D01*
X16099900Y-13446500D02*
X16139900Y-13486500D01*
X16139900Y-13446500D02*
X16099900Y-13486500D01*
X16193880Y-13073120D02*
X16233880Y-13113120D01*
X16233880Y-13073120D02*
X16193880Y-13113120D01*
X17428320Y-9948920D02*
X17468320Y-9988920D01*
X17468320Y-9948920D02*
X17428320Y-9988920D01*
X17621360Y-10177520D02*
X17661360Y-10217520D01*
X17661360Y-10177520D02*
X17621360Y-10217520D01*
X17626440Y-9745720D02*
X17666440Y-9785720D01*
X17666440Y-9745720D02*
X17626440Y-9785720D01*
X17738200Y-12189200D02*
X17778200Y-12229200D01*
X17778200Y-12189200D02*
X17738200Y-12229200D01*
X17743280Y-11706600D02*
X17783280Y-11746600D01*
X17783280Y-11706600D02*
X17743280Y-11746600D01*
X17987120Y-11950440D02*
X18027120Y-11990440D01*
X18027120Y-11950440D02*
X17987120Y-11990440D01*
X18379500Y-13383600D02*
X18419500Y-13423600D01*
X18419500Y-13383600D02*
X18379500Y-13423600D01*
X18606880Y-13581120D02*
X18646880Y-13621120D01*
X18646880Y-13581120D02*
X18606880Y-13621120D01*
D10*
X16457500Y-13460000D02*
G75*
G03*
X16457500Y-13460000I-50000J0D01*
G01*
X16711500Y-13460000D02*
G75*
G03*
X16711500Y-13460000I-50000J0D01*
G01*
X16965500Y-13460000D02*
G75*
G03*
X16965500Y-13460000I-50000J0D01*
G01*
D13*
X13927400Y-12532700D02*
X13927400Y-12712700D01*
X13837400Y-12622700D02*
X14017400Y-12622700D01*
X16035600Y-12532700D02*
X16035600Y-12712700D01*
X15945600Y-12622700D02*
X16125600Y-12622700D01*
D11*
X10213777Y-14056484D02*
X10213777Y-13856484D01*
X10213777Y-13856484D02*
X10261396Y-13856484D01*
X10261396Y-13856484D02*
X10289967Y-13866008D01*
X10289967Y-13866008D02*
X10309015Y-13885055D01*
X10309015Y-13885055D02*
X10318539Y-13904103D01*
X10318539Y-13904103D02*
X10328063Y-13942198D01*
X10328063Y-13942198D02*
X10328063Y-13970769D01*
X10328063Y-13970769D02*
X10318539Y-14008865D01*
X10318539Y-14008865D02*
X10309015Y-14027912D01*
X10309015Y-14027912D02*
X10289967Y-14046960D01*
X10289967Y-14046960D02*
X10261396Y-14056484D01*
X10261396Y-14056484D02*
X10213777Y-14056484D01*
X10413777Y-14056484D02*
X10413777Y-13923150D01*
X10413777Y-13961246D02*
X10423301Y-13942198D01*
X10423301Y-13942198D02*
X10432824Y-13932674D01*
X10432824Y-13932674D02*
X10451872Y-13923150D01*
X10451872Y-13923150D02*
X10470920Y-13923150D01*
X10537586Y-14056484D02*
X10537586Y-13923150D01*
X10537586Y-13856484D02*
X10528063Y-13866008D01*
X10528063Y-13866008D02*
X10537586Y-13875531D01*
X10537586Y-13875531D02*
X10547110Y-13866008D01*
X10547110Y-13866008D02*
X10537586Y-13856484D01*
X10537586Y-13856484D02*
X10537586Y-13875531D01*
X10661396Y-14056484D02*
X10642348Y-14046960D01*
X10642348Y-14046960D02*
X10632824Y-14027912D01*
X10632824Y-14027912D02*
X10632824Y-13856484D01*
X10766158Y-14056484D02*
X10747110Y-14046960D01*
X10747110Y-14046960D02*
X10737586Y-14027912D01*
X10737586Y-14027912D02*
X10737586Y-13856484D01*
X10994729Y-14056484D02*
X10994729Y-13856484D01*
X10994729Y-13856484D02*
X11061396Y-13999341D01*
X11061396Y-13999341D02*
X11128063Y-13856484D01*
X11128063Y-13856484D02*
X11128063Y-14056484D01*
X11309015Y-14056484D02*
X11309015Y-13951722D01*
X11309015Y-13951722D02*
X11299491Y-13932674D01*
X11299491Y-13932674D02*
X11280443Y-13923150D01*
X11280443Y-13923150D02*
X11242348Y-13923150D01*
X11242348Y-13923150D02*
X11223301Y-13932674D01*
X11309015Y-14046960D02*
X11289967Y-14056484D01*
X11289967Y-14056484D02*
X11242348Y-14056484D01*
X11242348Y-14056484D02*
X11223301Y-14046960D01*
X11223301Y-14046960D02*
X11213777Y-14027912D01*
X11213777Y-14027912D02*
X11213777Y-14008865D01*
X11213777Y-14008865D02*
X11223301Y-13989817D01*
X11223301Y-13989817D02*
X11242348Y-13980293D01*
X11242348Y-13980293D02*
X11289967Y-13980293D01*
X11289967Y-13980293D02*
X11309015Y-13970769D01*
X11404253Y-13923150D02*
X11404253Y-14123150D01*
X11404253Y-13932674D02*
X11423301Y-13923150D01*
X11423301Y-13923150D02*
X11461396Y-13923150D01*
X11461396Y-13923150D02*
X11480443Y-13932674D01*
X11480443Y-13932674D02*
X11489967Y-13942198D01*
X11489967Y-13942198D02*
X11499491Y-13961246D01*
X11499491Y-13961246D02*
X11499491Y-14018388D01*
X11499491Y-14018388D02*
X11489967Y-14037436D01*
X11489967Y-14037436D02*
X11480443Y-14046960D01*
X11480443Y-14046960D02*
X11461396Y-14056484D01*
X11461396Y-14056484D02*
X11423301Y-14056484D01*
X11423301Y-14056484D02*
X11404253Y-14046960D01*
X11585205Y-14037436D02*
X11594729Y-14046960D01*
X11594729Y-14046960D02*
X11585205Y-14056484D01*
X11585205Y-14056484D02*
X11575682Y-14046960D01*
X11575682Y-14046960D02*
X11585205Y-14037436D01*
X11585205Y-14037436D02*
X11585205Y-14056484D01*
X11585205Y-13932674D02*
X11594729Y-13942198D01*
X11594729Y-13942198D02*
X11585205Y-13951722D01*
X11585205Y-13951722D02*
X11575682Y-13942198D01*
X11575682Y-13942198D02*
X11585205Y-13932674D01*
X11585205Y-13932674D02*
X11585205Y-13951722D01*
D12*
X9913000Y-14365000D02*
X9953000Y-14405000D01*
X9953000Y-14365000D02*
X9913000Y-14405000D01*
D11*
X10251872Y-14276484D02*
X10270920Y-14276484D01*
X10270920Y-14276484D02*
X10289967Y-14286008D01*
X10289967Y-14286008D02*
X10299491Y-14295531D01*
X10299491Y-14295531D02*
X10309015Y-14314579D01*
X10309015Y-14314579D02*
X10318539Y-14352674D01*
X10318539Y-14352674D02*
X10318539Y-14400293D01*
X10318539Y-14400293D02*
X10309015Y-14438388D01*
X10309015Y-14438388D02*
X10299491Y-14457436D01*
X10299491Y-14457436D02*
X10289967Y-14466960D01*
X10289967Y-14466960D02*
X10270920Y-14476484D01*
X10270920Y-14476484D02*
X10251872Y-14476484D01*
X10251872Y-14476484D02*
X10232824Y-14466960D01*
X10232824Y-14466960D02*
X10223301Y-14457436D01*
X10223301Y-14457436D02*
X10213777Y-14438388D01*
X10213777Y-14438388D02*
X10204253Y-14400293D01*
X10204253Y-14400293D02*
X10204253Y-14352674D01*
X10204253Y-14352674D02*
X10213777Y-14314579D01*
X10213777Y-14314579D02*
X10223301Y-14295531D01*
X10223301Y-14295531D02*
X10232824Y-14286008D01*
X10232824Y-14286008D02*
X10251872Y-14276484D01*
X10404253Y-14457436D02*
X10413777Y-14466960D01*
X10413777Y-14466960D02*
X10404253Y-14476484D01*
X10404253Y-14476484D02*
X10394729Y-14466960D01*
X10394729Y-14466960D02*
X10404253Y-14457436D01*
X10404253Y-14457436D02*
X10404253Y-14476484D01*
X10585205Y-14343150D02*
X10585205Y-14476484D01*
X10537586Y-14266960D02*
X10489967Y-14409817D01*
X10489967Y-14409817D02*
X10613777Y-14409817D01*
X10728063Y-14276484D02*
X10747110Y-14276484D01*
X10747110Y-14276484D02*
X10766158Y-14286008D01*
X10766158Y-14286008D02*
X10775682Y-14295531D01*
X10775682Y-14295531D02*
X10785205Y-14314579D01*
X10785205Y-14314579D02*
X10794729Y-14352674D01*
X10794729Y-14352674D02*
X10794729Y-14400293D01*
X10794729Y-14400293D02*
X10785205Y-14438388D01*
X10785205Y-14438388D02*
X10775682Y-14457436D01*
X10775682Y-14457436D02*
X10766158Y-14466960D01*
X10766158Y-14466960D02*
X10747110Y-14476484D01*
X10747110Y-14476484D02*
X10728063Y-14476484D01*
X10728063Y-14476484D02*
X10709015Y-14466960D01*
X10709015Y-14466960D02*
X10699491Y-14457436D01*
X10699491Y-14457436D02*
X10689967Y-14438388D01*
X10689967Y-14438388D02*
X10680444Y-14400293D01*
X10680444Y-14400293D02*
X10680444Y-14352674D01*
X10680444Y-14352674D02*
X10689967Y-14314579D01*
X10689967Y-14314579D02*
X10699491Y-14295531D01*
X10699491Y-14295531D02*
X10709015Y-14286008D01*
X10709015Y-14286008D02*
X10728063Y-14276484D01*
X10918539Y-14276484D02*
X10937586Y-14276484D01*
X10937586Y-14276484D02*
X10956634Y-14286008D01*
X10956634Y-14286008D02*
X10966158Y-14295531D01*
X10966158Y-14295531D02*
X10975682Y-14314579D01*
X10975682Y-14314579D02*
X10985205Y-14352674D01*
X10985205Y-14352674D02*
X10985205Y-14400293D01*
X10985205Y-14400293D02*
X10975682Y-14438388D01*
X10975682Y-14438388D02*
X10966158Y-14457436D01*
X10966158Y-14457436D02*
X10956634Y-14466960D01*
X10956634Y-14466960D02*
X10937586Y-14476484D01*
X10937586Y-14476484D02*
X10918539Y-14476484D01*
X10918539Y-14476484D02*
X10899491Y-14466960D01*
X10899491Y-14466960D02*
X10889967Y-14457436D01*
X10889967Y-14457436D02*
X10880444Y-14438388D01*
X10880444Y-14438388D02*
X10870920Y-14400293D01*
X10870920Y-14400293D02*
X10870920Y-14352674D01*
X10870920Y-14352674D02*
X10880444Y-14314579D01*
X10880444Y-14314579D02*
X10889967Y-14295531D01*
X10889967Y-14295531D02*
X10899491Y-14286008D01*
X10899491Y-14286008D02*
X10918539Y-14276484D01*
X11070920Y-14476484D02*
X11070920Y-14343150D01*
X11070920Y-14362198D02*
X11080444Y-14352674D01*
X11080444Y-14352674D02*
X11099491Y-14343150D01*
X11099491Y-14343150D02*
X11128063Y-14343150D01*
X11128063Y-14343150D02*
X11147110Y-14352674D01*
X11147110Y-14352674D02*
X11156634Y-14371722D01*
X11156634Y-14371722D02*
X11156634Y-14476484D01*
X11156634Y-14371722D02*
X11166158Y-14352674D01*
X11166158Y-14352674D02*
X11185205Y-14343150D01*
X11185205Y-14343150D02*
X11213777Y-14343150D01*
X11213777Y-14343150D02*
X11232824Y-14352674D01*
X11232824Y-14352674D02*
X11242348Y-14371722D01*
X11242348Y-14371722D02*
X11242348Y-14476484D01*
X11337586Y-14476484D02*
X11337586Y-14343150D01*
X11337586Y-14362198D02*
X11347110Y-14352674D01*
X11347110Y-14352674D02*
X11366158Y-14343150D01*
X11366158Y-14343150D02*
X11394729Y-14343150D01*
X11394729Y-14343150D02*
X11413777Y-14352674D01*
X11413777Y-14352674D02*
X11423301Y-14371722D01*
X11423301Y-14371722D02*
X11423301Y-14476484D01*
X11423301Y-14371722D02*
X11432824Y-14352674D01*
X11432824Y-14352674D02*
X11451872Y-14343150D01*
X11451872Y-14343150D02*
X11480443Y-14343150D01*
X11480443Y-14343150D02*
X11499491Y-14352674D01*
X11499491Y-14352674D02*
X11509015Y-14371722D01*
X11509015Y-14371722D02*
X11509015Y-14476484D01*
X11899491Y-14266960D02*
X11728063Y-14524103D01*
X12156634Y-14276484D02*
X12175682Y-14276484D01*
X12175682Y-14276484D02*
X12194729Y-14286008D01*
X12194729Y-14286008D02*
X12204253Y-14295531D01*
X12204253Y-14295531D02*
X12213777Y-14314579D01*
X12213777Y-14314579D02*
X12223301Y-14352674D01*
X12223301Y-14352674D02*
X12223301Y-14400293D01*
X12223301Y-14400293D02*
X12213777Y-14438388D01*
X12213777Y-14438388D02*
X12204253Y-14457436D01*
X12204253Y-14457436D02*
X12194729Y-14466960D01*
X12194729Y-14466960D02*
X12175682Y-14476484D01*
X12175682Y-14476484D02*
X12156634Y-14476484D01*
X12156634Y-14476484D02*
X12137586Y-14466960D01*
X12137586Y-14466960D02*
X12128063Y-14457436D01*
X12128063Y-14457436D02*
X12118539Y-14438388D01*
X12118539Y-14438388D02*
X12109015Y-14400293D01*
X12109015Y-14400293D02*
X12109015Y-14352674D01*
X12109015Y-14352674D02*
X12118539Y-14314579D01*
X12118539Y-14314579D02*
X12128063Y-14295531D01*
X12128063Y-14295531D02*
X12137586Y-14286008D01*
X12137586Y-14286008D02*
X12156634Y-14276484D01*
X12309015Y-14457436D02*
X12318539Y-14466960D01*
X12318539Y-14466960D02*
X12309015Y-14476484D01*
X12309015Y-14476484D02*
X12299491Y-14466960D01*
X12299491Y-14466960D02*
X12309015Y-14457436D01*
X12309015Y-14457436D02*
X12309015Y-14476484D01*
X12442348Y-14276484D02*
X12461396Y-14276484D01*
X12461396Y-14276484D02*
X12480444Y-14286008D01*
X12480444Y-14286008D02*
X12489967Y-14295531D01*
X12489967Y-14295531D02*
X12499491Y-14314579D01*
X12499491Y-14314579D02*
X12509015Y-14352674D01*
X12509015Y-14352674D02*
X12509015Y-14400293D01*
X12509015Y-14400293D02*
X12499491Y-14438388D01*
X12499491Y-14438388D02*
X12489967Y-14457436D01*
X12489967Y-14457436D02*
X12480444Y-14466960D01*
X12480444Y-14466960D02*
X12461396Y-14476484D01*
X12461396Y-14476484D02*
X12442348Y-14476484D01*
X12442348Y-14476484D02*
X12423301Y-14466960D01*
X12423301Y-14466960D02*
X12413777Y-14457436D01*
X12413777Y-14457436D02*
X12404253Y-14438388D01*
X12404253Y-14438388D02*
X12394729Y-14400293D01*
X12394729Y-14400293D02*
X12394729Y-14352674D01*
X12394729Y-14352674D02*
X12404253Y-14314579D01*
X12404253Y-14314579D02*
X12413777Y-14295531D01*
X12413777Y-14295531D02*
X12423301Y-14286008D01*
X12423301Y-14286008D02*
X12442348Y-14276484D01*
X12699491Y-14476484D02*
X12585206Y-14476484D01*
X12642348Y-14476484D02*
X12642348Y-14276484D01*
X12642348Y-14276484D02*
X12623301Y-14305055D01*
X12623301Y-14305055D02*
X12604253Y-14324103D01*
X12604253Y-14324103D02*
X12585206Y-14333627D01*
X12880444Y-14276484D02*
X12785206Y-14276484D01*
X12785206Y-14276484D02*
X12775682Y-14371722D01*
X12775682Y-14371722D02*
X12785206Y-14362198D01*
X12785206Y-14362198D02*
X12804253Y-14352674D01*
X12804253Y-14352674D02*
X12851872Y-14352674D01*
X12851872Y-14352674D02*
X12870920Y-14362198D01*
X12870920Y-14362198D02*
X12880444Y-14371722D01*
X12880444Y-14371722D02*
X12889967Y-14390769D01*
X12889967Y-14390769D02*
X12889967Y-14438388D01*
X12889967Y-14438388D02*
X12880444Y-14457436D01*
X12880444Y-14457436D02*
X12870920Y-14466960D01*
X12870920Y-14466960D02*
X12851872Y-14476484D01*
X12851872Y-14476484D02*
X12804253Y-14476484D01*
X12804253Y-14476484D02*
X12785206Y-14466960D01*
X12785206Y-14466960D02*
X12775682Y-14457436D01*
X12956634Y-14276484D02*
X13089967Y-14276484D01*
X13089967Y-14276484D02*
X13004253Y-14476484D01*
X13156634Y-14276484D02*
X13156634Y-14314579D01*
X13232825Y-14276484D02*
X13232825Y-14314579D01*
X13528063Y-14552674D02*
X13518539Y-14543150D01*
X13518539Y-14543150D02*
X13499491Y-14514579D01*
X13499491Y-14514579D02*
X13489968Y-14495531D01*
X13489968Y-14495531D02*
X13480444Y-14466960D01*
X13480444Y-14466960D02*
X13470920Y-14419341D01*
X13470920Y-14419341D02*
X13470920Y-14381246D01*
X13470920Y-14381246D02*
X13480444Y-14333627D01*
X13480444Y-14333627D02*
X13489968Y-14305055D01*
X13489968Y-14305055D02*
X13499491Y-14286008D01*
X13499491Y-14286008D02*
X13518539Y-14257436D01*
X13518539Y-14257436D02*
X13528063Y-14247912D01*
X13709015Y-14476484D02*
X13594729Y-14476484D01*
X13651872Y-14476484D02*
X13651872Y-14276484D01*
X13651872Y-14276484D02*
X13632825Y-14305055D01*
X13632825Y-14305055D02*
X13613777Y-14324103D01*
X13613777Y-14324103D02*
X13594729Y-14333627D01*
X13775682Y-14276484D02*
X13899491Y-14276484D01*
X13899491Y-14276484D02*
X13832825Y-14352674D01*
X13832825Y-14352674D02*
X13861396Y-14352674D01*
X13861396Y-14352674D02*
X13880444Y-14362198D01*
X13880444Y-14362198D02*
X13889968Y-14371722D01*
X13889968Y-14371722D02*
X13899491Y-14390769D01*
X13899491Y-14390769D02*
X13899491Y-14438388D01*
X13899491Y-14438388D02*
X13889968Y-14457436D01*
X13889968Y-14457436D02*
X13880444Y-14466960D01*
X13880444Y-14466960D02*
X13861396Y-14476484D01*
X13861396Y-14476484D02*
X13804253Y-14476484D01*
X13804253Y-14476484D02*
X13785206Y-14466960D01*
X13785206Y-14466960D02*
X13775682Y-14457436D01*
X14080444Y-14276484D02*
X13985206Y-14276484D01*
X13985206Y-14276484D02*
X13975682Y-14371722D01*
X13975682Y-14371722D02*
X13985206Y-14362198D01*
X13985206Y-14362198D02*
X14004253Y-14352674D01*
X14004253Y-14352674D02*
X14051872Y-14352674D01*
X14051872Y-14352674D02*
X14070920Y-14362198D01*
X14070920Y-14362198D02*
X14080444Y-14371722D01*
X14080444Y-14371722D02*
X14089968Y-14390769D01*
X14089968Y-14390769D02*
X14089968Y-14438388D01*
X14089968Y-14438388D02*
X14080444Y-14457436D01*
X14080444Y-14457436D02*
X14070920Y-14466960D01*
X14070920Y-14466960D02*
X14051872Y-14476484D01*
X14051872Y-14476484D02*
X14004253Y-14476484D01*
X14004253Y-14476484D02*
X13985206Y-14466960D01*
X13985206Y-14466960D02*
X13975682Y-14457436D01*
X14328063Y-14476484D02*
X14328063Y-14276484D01*
X14413777Y-14476484D02*
X14413777Y-14371722D01*
X14413777Y-14371722D02*
X14404253Y-14352674D01*
X14404253Y-14352674D02*
X14385206Y-14343150D01*
X14385206Y-14343150D02*
X14356634Y-14343150D01*
X14356634Y-14343150D02*
X14337587Y-14352674D01*
X14337587Y-14352674D02*
X14328063Y-14362198D01*
X14537587Y-14476484D02*
X14518539Y-14466960D01*
X14518539Y-14466960D02*
X14509015Y-14457436D01*
X14509015Y-14457436D02*
X14499491Y-14438388D01*
X14499491Y-14438388D02*
X14499491Y-14381246D01*
X14499491Y-14381246D02*
X14509015Y-14362198D01*
X14509015Y-14362198D02*
X14518539Y-14352674D01*
X14518539Y-14352674D02*
X14537587Y-14343150D01*
X14537587Y-14343150D02*
X14566158Y-14343150D01*
X14566158Y-14343150D02*
X14585206Y-14352674D01*
X14585206Y-14352674D02*
X14594730Y-14362198D01*
X14594730Y-14362198D02*
X14604253Y-14381246D01*
X14604253Y-14381246D02*
X14604253Y-14438388D01*
X14604253Y-14438388D02*
X14594730Y-14457436D01*
X14594730Y-14457436D02*
X14585206Y-14466960D01*
X14585206Y-14466960D02*
X14566158Y-14476484D01*
X14566158Y-14476484D02*
X14537587Y-14476484D01*
X14718539Y-14476484D02*
X14699491Y-14466960D01*
X14699491Y-14466960D02*
X14689968Y-14447912D01*
X14689968Y-14447912D02*
X14689968Y-14276484D01*
X14870920Y-14466960D02*
X14851872Y-14476484D01*
X14851872Y-14476484D02*
X14813777Y-14476484D01*
X14813777Y-14476484D02*
X14794730Y-14466960D01*
X14794730Y-14466960D02*
X14785206Y-14447912D01*
X14785206Y-14447912D02*
X14785206Y-14371722D01*
X14785206Y-14371722D02*
X14794730Y-14352674D01*
X14794730Y-14352674D02*
X14813777Y-14343150D01*
X14813777Y-14343150D02*
X14851872Y-14343150D01*
X14851872Y-14343150D02*
X14870920Y-14352674D01*
X14870920Y-14352674D02*
X14880444Y-14371722D01*
X14880444Y-14371722D02*
X14880444Y-14390769D01*
X14880444Y-14390769D02*
X14785206Y-14409817D01*
X14956634Y-14466960D02*
X14975682Y-14476484D01*
X14975682Y-14476484D02*
X15013777Y-14476484D01*
X15013777Y-14476484D02*
X15032825Y-14466960D01*
X15032825Y-14466960D02*
X15042349Y-14447912D01*
X15042349Y-14447912D02*
X15042349Y-14438388D01*
X15042349Y-14438388D02*
X15032825Y-14419341D01*
X15032825Y-14419341D02*
X15013777Y-14409817D01*
X15013777Y-14409817D02*
X14985206Y-14409817D01*
X14985206Y-14409817D02*
X14966158Y-14400293D01*
X14966158Y-14400293D02*
X14956634Y-14381246D01*
X14956634Y-14381246D02*
X14956634Y-14371722D01*
X14956634Y-14371722D02*
X14966158Y-14352674D01*
X14966158Y-14352674D02*
X14985206Y-14343150D01*
X14985206Y-14343150D02*
X15013777Y-14343150D01*
X15013777Y-14343150D02*
X15032825Y-14352674D01*
X15109015Y-14552674D02*
X15118539Y-14543150D01*
X15118539Y-14543150D02*
X15137587Y-14514579D01*
X15137587Y-14514579D02*
X15147111Y-14495531D01*
X15147111Y-14495531D02*
X15156634Y-14466960D01*
X15156634Y-14466960D02*
X15166158Y-14419341D01*
X15166158Y-14419341D02*
X15166158Y-14381246D01*
X15166158Y-14381246D02*
X15156634Y-14333627D01*
X15156634Y-14333627D02*
X15147111Y-14305055D01*
X15147111Y-14305055D02*
X15137587Y-14286008D01*
X15137587Y-14286008D02*
X15118539Y-14257436D01*
X15118539Y-14257436D02*
X15109015Y-14247912D01*
D10*
X9953000Y-14649000D02*
G75*
G03*
X9953000Y-14649000I-50000J0D01*
G01*
D11*
X10318539Y-14740484D02*
X10204253Y-14740484D01*
X10261396Y-14740484D02*
X10261396Y-14540484D01*
X10261396Y-14540484D02*
X10242348Y-14569055D01*
X10242348Y-14569055D02*
X10223301Y-14588103D01*
X10223301Y-14588103D02*
X10204253Y-14597627D01*
X10404253Y-14721436D02*
X10413777Y-14730960D01*
X10413777Y-14730960D02*
X10404253Y-14740484D01*
X10404253Y-14740484D02*
X10394729Y-14730960D01*
X10394729Y-14730960D02*
X10404253Y-14721436D01*
X10404253Y-14721436D02*
X10404253Y-14740484D01*
X10537586Y-14540484D02*
X10556634Y-14540484D01*
X10556634Y-14540484D02*
X10575682Y-14550008D01*
X10575682Y-14550008D02*
X10585205Y-14559531D01*
X10585205Y-14559531D02*
X10594729Y-14578579D01*
X10594729Y-14578579D02*
X10604253Y-14616674D01*
X10604253Y-14616674D02*
X10604253Y-14664293D01*
X10604253Y-14664293D02*
X10594729Y-14702388D01*
X10594729Y-14702388D02*
X10585205Y-14721436D01*
X10585205Y-14721436D02*
X10575682Y-14730960D01*
X10575682Y-14730960D02*
X10556634Y-14740484D01*
X10556634Y-14740484D02*
X10537586Y-14740484D01*
X10537586Y-14740484D02*
X10518539Y-14730960D01*
X10518539Y-14730960D02*
X10509015Y-14721436D01*
X10509015Y-14721436D02*
X10499491Y-14702388D01*
X10499491Y-14702388D02*
X10489967Y-14664293D01*
X10489967Y-14664293D02*
X10489967Y-14616674D01*
X10489967Y-14616674D02*
X10499491Y-14578579D01*
X10499491Y-14578579D02*
X10509015Y-14559531D01*
X10509015Y-14559531D02*
X10518539Y-14550008D01*
X10518539Y-14550008D02*
X10537586Y-14540484D01*
X10728063Y-14540484D02*
X10747110Y-14540484D01*
X10747110Y-14540484D02*
X10766158Y-14550008D01*
X10766158Y-14550008D02*
X10775682Y-14559531D01*
X10775682Y-14559531D02*
X10785205Y-14578579D01*
X10785205Y-14578579D02*
X10794729Y-14616674D01*
X10794729Y-14616674D02*
X10794729Y-14664293D01*
X10794729Y-14664293D02*
X10785205Y-14702388D01*
X10785205Y-14702388D02*
X10775682Y-14721436D01*
X10775682Y-14721436D02*
X10766158Y-14730960D01*
X10766158Y-14730960D02*
X10747110Y-14740484D01*
X10747110Y-14740484D02*
X10728063Y-14740484D01*
X10728063Y-14740484D02*
X10709015Y-14730960D01*
X10709015Y-14730960D02*
X10699491Y-14721436D01*
X10699491Y-14721436D02*
X10689967Y-14702388D01*
X10689967Y-14702388D02*
X10680444Y-14664293D01*
X10680444Y-14664293D02*
X10680444Y-14616674D01*
X10680444Y-14616674D02*
X10689967Y-14578579D01*
X10689967Y-14578579D02*
X10699491Y-14559531D01*
X10699491Y-14559531D02*
X10709015Y-14550008D01*
X10709015Y-14550008D02*
X10728063Y-14540484D01*
X10918539Y-14540484D02*
X10937586Y-14540484D01*
X10937586Y-14540484D02*
X10956634Y-14550008D01*
X10956634Y-14550008D02*
X10966158Y-14559531D01*
X10966158Y-14559531D02*
X10975682Y-14578579D01*
X10975682Y-14578579D02*
X10985205Y-14616674D01*
X10985205Y-14616674D02*
X10985205Y-14664293D01*
X10985205Y-14664293D02*
X10975682Y-14702388D01*
X10975682Y-14702388D02*
X10966158Y-14721436D01*
X10966158Y-14721436D02*
X10956634Y-14730960D01*
X10956634Y-14730960D02*
X10937586Y-14740484D01*
X10937586Y-14740484D02*
X10918539Y-14740484D01*
X10918539Y-14740484D02*
X10899491Y-14730960D01*
X10899491Y-14730960D02*
X10889967Y-14721436D01*
X10889967Y-14721436D02*
X10880444Y-14702388D01*
X10880444Y-14702388D02*
X10870920Y-14664293D01*
X10870920Y-14664293D02*
X10870920Y-14616674D01*
X10870920Y-14616674D02*
X10880444Y-14578579D01*
X10880444Y-14578579D02*
X10889967Y-14559531D01*
X10889967Y-14559531D02*
X10899491Y-14550008D01*
X10899491Y-14550008D02*
X10918539Y-14540484D01*
X11070920Y-14740484D02*
X11070920Y-14607150D01*
X11070920Y-14626198D02*
X11080444Y-14616674D01*
X11080444Y-14616674D02*
X11099491Y-14607150D01*
X11099491Y-14607150D02*
X11128063Y-14607150D01*
X11128063Y-14607150D02*
X11147110Y-14616674D01*
X11147110Y-14616674D02*
X11156634Y-14635722D01*
X11156634Y-14635722D02*
X11156634Y-14740484D01*
X11156634Y-14635722D02*
X11166158Y-14616674D01*
X11166158Y-14616674D02*
X11185205Y-14607150D01*
X11185205Y-14607150D02*
X11213777Y-14607150D01*
X11213777Y-14607150D02*
X11232824Y-14616674D01*
X11232824Y-14616674D02*
X11242348Y-14635722D01*
X11242348Y-14635722D02*
X11242348Y-14740484D01*
X11337586Y-14740484D02*
X11337586Y-14607150D01*
X11337586Y-14626198D02*
X11347110Y-14616674D01*
X11347110Y-14616674D02*
X11366158Y-14607150D01*
X11366158Y-14607150D02*
X11394729Y-14607150D01*
X11394729Y-14607150D02*
X11413777Y-14616674D01*
X11413777Y-14616674D02*
X11423301Y-14635722D01*
X11423301Y-14635722D02*
X11423301Y-14740484D01*
X11423301Y-14635722D02*
X11432824Y-14616674D01*
X11432824Y-14616674D02*
X11451872Y-14607150D01*
X11451872Y-14607150D02*
X11480443Y-14607150D01*
X11480443Y-14607150D02*
X11499491Y-14616674D01*
X11499491Y-14616674D02*
X11509015Y-14635722D01*
X11509015Y-14635722D02*
X11509015Y-14740484D01*
X11899491Y-14530960D02*
X11728063Y-14788103D01*
X12156634Y-14540484D02*
X12175682Y-14540484D01*
X12175682Y-14540484D02*
X12194729Y-14550008D01*
X12194729Y-14550008D02*
X12204253Y-14559531D01*
X12204253Y-14559531D02*
X12213777Y-14578579D01*
X12213777Y-14578579D02*
X12223301Y-14616674D01*
X12223301Y-14616674D02*
X12223301Y-14664293D01*
X12223301Y-14664293D02*
X12213777Y-14702388D01*
X12213777Y-14702388D02*
X12204253Y-14721436D01*
X12204253Y-14721436D02*
X12194729Y-14730960D01*
X12194729Y-14730960D02*
X12175682Y-14740484D01*
X12175682Y-14740484D02*
X12156634Y-14740484D01*
X12156634Y-14740484D02*
X12137586Y-14730960D01*
X12137586Y-14730960D02*
X12128063Y-14721436D01*
X12128063Y-14721436D02*
X12118539Y-14702388D01*
X12118539Y-14702388D02*
X12109015Y-14664293D01*
X12109015Y-14664293D02*
X12109015Y-14616674D01*
X12109015Y-14616674D02*
X12118539Y-14578579D01*
X12118539Y-14578579D02*
X12128063Y-14559531D01*
X12128063Y-14559531D02*
X12137586Y-14550008D01*
X12137586Y-14550008D02*
X12156634Y-14540484D01*
X12309015Y-14721436D02*
X12318539Y-14730960D01*
X12318539Y-14730960D02*
X12309015Y-14740484D01*
X12309015Y-14740484D02*
X12299491Y-14730960D01*
X12299491Y-14730960D02*
X12309015Y-14721436D01*
X12309015Y-14721436D02*
X12309015Y-14740484D01*
X12442348Y-14540484D02*
X12461396Y-14540484D01*
X12461396Y-14540484D02*
X12480444Y-14550008D01*
X12480444Y-14550008D02*
X12489967Y-14559531D01*
X12489967Y-14559531D02*
X12499491Y-14578579D01*
X12499491Y-14578579D02*
X12509015Y-14616674D01*
X12509015Y-14616674D02*
X12509015Y-14664293D01*
X12509015Y-14664293D02*
X12499491Y-14702388D01*
X12499491Y-14702388D02*
X12489967Y-14721436D01*
X12489967Y-14721436D02*
X12480444Y-14730960D01*
X12480444Y-14730960D02*
X12461396Y-14740484D01*
X12461396Y-14740484D02*
X12442348Y-14740484D01*
X12442348Y-14740484D02*
X12423301Y-14730960D01*
X12423301Y-14730960D02*
X12413777Y-14721436D01*
X12413777Y-14721436D02*
X12404253Y-14702388D01*
X12404253Y-14702388D02*
X12394729Y-14664293D01*
X12394729Y-14664293D02*
X12394729Y-14616674D01*
X12394729Y-14616674D02*
X12404253Y-14578579D01*
X12404253Y-14578579D02*
X12413777Y-14559531D01*
X12413777Y-14559531D02*
X12423301Y-14550008D01*
X12423301Y-14550008D02*
X12442348Y-14540484D01*
X12575682Y-14540484D02*
X12699491Y-14540484D01*
X12699491Y-14540484D02*
X12632825Y-14616674D01*
X12632825Y-14616674D02*
X12661396Y-14616674D01*
X12661396Y-14616674D02*
X12680444Y-14626198D01*
X12680444Y-14626198D02*
X12689967Y-14635722D01*
X12689967Y-14635722D02*
X12699491Y-14654769D01*
X12699491Y-14654769D02*
X12699491Y-14702388D01*
X12699491Y-14702388D02*
X12689967Y-14721436D01*
X12689967Y-14721436D02*
X12680444Y-14730960D01*
X12680444Y-14730960D02*
X12661396Y-14740484D01*
X12661396Y-14740484D02*
X12604253Y-14740484D01*
X12604253Y-14740484D02*
X12585206Y-14730960D01*
X12585206Y-14730960D02*
X12575682Y-14721436D01*
X12794729Y-14740484D02*
X12832825Y-14740484D01*
X12832825Y-14740484D02*
X12851872Y-14730960D01*
X12851872Y-14730960D02*
X12861396Y-14721436D01*
X12861396Y-14721436D02*
X12880444Y-14692865D01*
X12880444Y-14692865D02*
X12889967Y-14654769D01*
X12889967Y-14654769D02*
X12889967Y-14578579D01*
X12889967Y-14578579D02*
X12880444Y-14559531D01*
X12880444Y-14559531D02*
X12870920Y-14550008D01*
X12870920Y-14550008D02*
X12851872Y-14540484D01*
X12851872Y-14540484D02*
X12813777Y-14540484D01*
X12813777Y-14540484D02*
X12794729Y-14550008D01*
X12794729Y-14550008D02*
X12785206Y-14559531D01*
X12785206Y-14559531D02*
X12775682Y-14578579D01*
X12775682Y-14578579D02*
X12775682Y-14626198D01*
X12775682Y-14626198D02*
X12785206Y-14645246D01*
X12785206Y-14645246D02*
X12794729Y-14654769D01*
X12794729Y-14654769D02*
X12813777Y-14664293D01*
X12813777Y-14664293D02*
X12851872Y-14664293D01*
X12851872Y-14664293D02*
X12870920Y-14654769D01*
X12870920Y-14654769D02*
X12880444Y-14645246D01*
X12880444Y-14645246D02*
X12889967Y-14626198D01*
X13061396Y-14607150D02*
X13061396Y-14740484D01*
X13013777Y-14530960D02*
X12966158Y-14673817D01*
X12966158Y-14673817D02*
X13089967Y-14673817D01*
X13156634Y-14540484D02*
X13156634Y-14578579D01*
X13232825Y-14540484D02*
X13232825Y-14578579D01*
X13528063Y-14816674D02*
X13518539Y-14807150D01*
X13518539Y-14807150D02*
X13499491Y-14778579D01*
X13499491Y-14778579D02*
X13489968Y-14759531D01*
X13489968Y-14759531D02*
X13480444Y-14730960D01*
X13480444Y-14730960D02*
X13470920Y-14683341D01*
X13470920Y-14683341D02*
X13470920Y-14645246D01*
X13470920Y-14645246D02*
X13480444Y-14597627D01*
X13480444Y-14597627D02*
X13489968Y-14569055D01*
X13489968Y-14569055D02*
X13499491Y-14550008D01*
X13499491Y-14550008D02*
X13518539Y-14521436D01*
X13518539Y-14521436D02*
X13528063Y-14511912D01*
X13585206Y-14540484D02*
X13709015Y-14540484D01*
X13709015Y-14540484D02*
X13642348Y-14616674D01*
X13642348Y-14616674D02*
X13670920Y-14616674D01*
X13670920Y-14616674D02*
X13689968Y-14626198D01*
X13689968Y-14626198D02*
X13699491Y-14635722D01*
X13699491Y-14635722D02*
X13709015Y-14654769D01*
X13709015Y-14654769D02*
X13709015Y-14702388D01*
X13709015Y-14702388D02*
X13699491Y-14721436D01*
X13699491Y-14721436D02*
X13689968Y-14730960D01*
X13689968Y-14730960D02*
X13670920Y-14740484D01*
X13670920Y-14740484D02*
X13613777Y-14740484D01*
X13613777Y-14740484D02*
X13594729Y-14730960D01*
X13594729Y-14730960D02*
X13585206Y-14721436D01*
X13947110Y-14740484D02*
X13947110Y-14540484D01*
X14032825Y-14740484D02*
X14032825Y-14635722D01*
X14032825Y-14635722D02*
X14023301Y-14616674D01*
X14023301Y-14616674D02*
X14004253Y-14607150D01*
X14004253Y-14607150D02*
X13975682Y-14607150D01*
X13975682Y-14607150D02*
X13956634Y-14616674D01*
X13956634Y-14616674D02*
X13947110Y-14626198D01*
X14156634Y-14740484D02*
X14137587Y-14730960D01*
X14137587Y-14730960D02*
X14128063Y-14721436D01*
X14128063Y-14721436D02*
X14118539Y-14702388D01*
X14118539Y-14702388D02*
X14118539Y-14645246D01*
X14118539Y-14645246D02*
X14128063Y-14626198D01*
X14128063Y-14626198D02*
X14137587Y-14616674D01*
X14137587Y-14616674D02*
X14156634Y-14607150D01*
X14156634Y-14607150D02*
X14185206Y-14607150D01*
X14185206Y-14607150D02*
X14204253Y-14616674D01*
X14204253Y-14616674D02*
X14213777Y-14626198D01*
X14213777Y-14626198D02*
X14223301Y-14645246D01*
X14223301Y-14645246D02*
X14223301Y-14702388D01*
X14223301Y-14702388D02*
X14213777Y-14721436D01*
X14213777Y-14721436D02*
X14204253Y-14730960D01*
X14204253Y-14730960D02*
X14185206Y-14740484D01*
X14185206Y-14740484D02*
X14156634Y-14740484D01*
X14337587Y-14740484D02*
X14318539Y-14730960D01*
X14318539Y-14730960D02*
X14309015Y-14711912D01*
X14309015Y-14711912D02*
X14309015Y-14540484D01*
X14489968Y-14730960D02*
X14470920Y-14740484D01*
X14470920Y-14740484D02*
X14432825Y-14740484D01*
X14432825Y-14740484D02*
X14413777Y-14730960D01*
X14413777Y-14730960D02*
X14404253Y-14711912D01*
X14404253Y-14711912D02*
X14404253Y-14635722D01*
X14404253Y-14635722D02*
X14413777Y-14616674D01*
X14413777Y-14616674D02*
X14432825Y-14607150D01*
X14432825Y-14607150D02*
X14470920Y-14607150D01*
X14470920Y-14607150D02*
X14489968Y-14616674D01*
X14489968Y-14616674D02*
X14499491Y-14635722D01*
X14499491Y-14635722D02*
X14499491Y-14654769D01*
X14499491Y-14654769D02*
X14404253Y-14673817D01*
X14575682Y-14730960D02*
X14594730Y-14740484D01*
X14594730Y-14740484D02*
X14632825Y-14740484D01*
X14632825Y-14740484D02*
X14651872Y-14730960D01*
X14651872Y-14730960D02*
X14661396Y-14711912D01*
X14661396Y-14711912D02*
X14661396Y-14702388D01*
X14661396Y-14702388D02*
X14651872Y-14683341D01*
X14651872Y-14683341D02*
X14632825Y-14673817D01*
X14632825Y-14673817D02*
X14604253Y-14673817D01*
X14604253Y-14673817D02*
X14585206Y-14664293D01*
X14585206Y-14664293D02*
X14575682Y-14645246D01*
X14575682Y-14645246D02*
X14575682Y-14635722D01*
X14575682Y-14635722D02*
X14585206Y-14616674D01*
X14585206Y-14616674D02*
X14604253Y-14607150D01*
X14604253Y-14607150D02*
X14632825Y-14607150D01*
X14632825Y-14607150D02*
X14651872Y-14616674D01*
X14728063Y-14816674D02*
X14737587Y-14807150D01*
X14737587Y-14807150D02*
X14756634Y-14778579D01*
X14756634Y-14778579D02*
X14766158Y-14759531D01*
X14766158Y-14759531D02*
X14775682Y-14730960D01*
X14775682Y-14730960D02*
X14785206Y-14683341D01*
X14785206Y-14683341D02*
X14785206Y-14645246D01*
X14785206Y-14645246D02*
X14775682Y-14597627D01*
X14775682Y-14597627D02*
X14766158Y-14569055D01*
X14766158Y-14569055D02*
X14756634Y-14550008D01*
X14756634Y-14550008D02*
X14737587Y-14521436D01*
X14737587Y-14521436D02*
X14728063Y-14511912D01*
D13*
X9863000Y-14823000D02*
X9863000Y-15003000D01*
X9773000Y-14913000D02*
X9953000Y-14913000D01*
D11*
X10318539Y-15004484D02*
X10204253Y-15004484D01*
X10261396Y-15004484D02*
X10261396Y-14804484D01*
X10261396Y-14804484D02*
X10242348Y-14833055D01*
X10242348Y-14833055D02*
X10223301Y-14852103D01*
X10223301Y-14852103D02*
X10204253Y-14861627D01*
X10404253Y-14985436D02*
X10413777Y-14994960D01*
X10413777Y-14994960D02*
X10404253Y-15004484D01*
X10404253Y-15004484D02*
X10394729Y-14994960D01*
X10394729Y-14994960D02*
X10404253Y-14985436D01*
X10404253Y-14985436D02*
X10404253Y-15004484D01*
X10528063Y-14890198D02*
X10509015Y-14880674D01*
X10509015Y-14880674D02*
X10499491Y-14871150D01*
X10499491Y-14871150D02*
X10489967Y-14852103D01*
X10489967Y-14852103D02*
X10489967Y-14842579D01*
X10489967Y-14842579D02*
X10499491Y-14823531D01*
X10499491Y-14823531D02*
X10509015Y-14814008D01*
X10509015Y-14814008D02*
X10528063Y-14804484D01*
X10528063Y-14804484D02*
X10566158Y-14804484D01*
X10566158Y-14804484D02*
X10585205Y-14814008D01*
X10585205Y-14814008D02*
X10594729Y-14823531D01*
X10594729Y-14823531D02*
X10604253Y-14842579D01*
X10604253Y-14842579D02*
X10604253Y-14852103D01*
X10604253Y-14852103D02*
X10594729Y-14871150D01*
X10594729Y-14871150D02*
X10585205Y-14880674D01*
X10585205Y-14880674D02*
X10566158Y-14890198D01*
X10566158Y-14890198D02*
X10528063Y-14890198D01*
X10528063Y-14890198D02*
X10509015Y-14899722D01*
X10509015Y-14899722D02*
X10499491Y-14909246D01*
X10499491Y-14909246D02*
X10489967Y-14928293D01*
X10489967Y-14928293D02*
X10489967Y-14966388D01*
X10489967Y-14966388D02*
X10499491Y-14985436D01*
X10499491Y-14985436D02*
X10509015Y-14994960D01*
X10509015Y-14994960D02*
X10528063Y-15004484D01*
X10528063Y-15004484D02*
X10566158Y-15004484D01*
X10566158Y-15004484D02*
X10585205Y-14994960D01*
X10585205Y-14994960D02*
X10594729Y-14985436D01*
X10594729Y-14985436D02*
X10604253Y-14966388D01*
X10604253Y-14966388D02*
X10604253Y-14928293D01*
X10604253Y-14928293D02*
X10594729Y-14909246D01*
X10594729Y-14909246D02*
X10585205Y-14899722D01*
X10585205Y-14899722D02*
X10566158Y-14890198D01*
X10728063Y-14804484D02*
X10747110Y-14804484D01*
X10747110Y-14804484D02*
X10766158Y-14814008D01*
X10766158Y-14814008D02*
X10775682Y-14823531D01*
X10775682Y-14823531D02*
X10785205Y-14842579D01*
X10785205Y-14842579D02*
X10794729Y-14880674D01*
X10794729Y-14880674D02*
X10794729Y-14928293D01*
X10794729Y-14928293D02*
X10785205Y-14966388D01*
X10785205Y-14966388D02*
X10775682Y-14985436D01*
X10775682Y-14985436D02*
X10766158Y-14994960D01*
X10766158Y-14994960D02*
X10747110Y-15004484D01*
X10747110Y-15004484D02*
X10728063Y-15004484D01*
X10728063Y-15004484D02*
X10709015Y-14994960D01*
X10709015Y-14994960D02*
X10699491Y-14985436D01*
X10699491Y-14985436D02*
X10689967Y-14966388D01*
X10689967Y-14966388D02*
X10680444Y-14928293D01*
X10680444Y-14928293D02*
X10680444Y-14880674D01*
X10680444Y-14880674D02*
X10689967Y-14842579D01*
X10689967Y-14842579D02*
X10699491Y-14823531D01*
X10699491Y-14823531D02*
X10709015Y-14814008D01*
X10709015Y-14814008D02*
X10728063Y-14804484D01*
X10918539Y-14804484D02*
X10937586Y-14804484D01*
X10937586Y-14804484D02*
X10956634Y-14814008D01*
X10956634Y-14814008D02*
X10966158Y-14823531D01*
X10966158Y-14823531D02*
X10975682Y-14842579D01*
X10975682Y-14842579D02*
X10985205Y-14880674D01*
X10985205Y-14880674D02*
X10985205Y-14928293D01*
X10985205Y-14928293D02*
X10975682Y-14966388D01*
X10975682Y-14966388D02*
X10966158Y-14985436D01*
X10966158Y-14985436D02*
X10956634Y-14994960D01*
X10956634Y-14994960D02*
X10937586Y-15004484D01*
X10937586Y-15004484D02*
X10918539Y-15004484D01*
X10918539Y-15004484D02*
X10899491Y-14994960D01*
X10899491Y-14994960D02*
X10889967Y-14985436D01*
X10889967Y-14985436D02*
X10880444Y-14966388D01*
X10880444Y-14966388D02*
X10870920Y-14928293D01*
X10870920Y-14928293D02*
X10870920Y-14880674D01*
X10870920Y-14880674D02*
X10880444Y-14842579D01*
X10880444Y-14842579D02*
X10889967Y-14823531D01*
X10889967Y-14823531D02*
X10899491Y-14814008D01*
X10899491Y-14814008D02*
X10918539Y-14804484D01*
X11070920Y-15004484D02*
X11070920Y-14871150D01*
X11070920Y-14890198D02*
X11080444Y-14880674D01*
X11080444Y-14880674D02*
X11099491Y-14871150D01*
X11099491Y-14871150D02*
X11128063Y-14871150D01*
X11128063Y-14871150D02*
X11147110Y-14880674D01*
X11147110Y-14880674D02*
X11156634Y-14899722D01*
X11156634Y-14899722D02*
X11156634Y-15004484D01*
X11156634Y-14899722D02*
X11166158Y-14880674D01*
X11166158Y-14880674D02*
X11185205Y-14871150D01*
X11185205Y-14871150D02*
X11213777Y-14871150D01*
X11213777Y-14871150D02*
X11232824Y-14880674D01*
X11232824Y-14880674D02*
X11242348Y-14899722D01*
X11242348Y-14899722D02*
X11242348Y-15004484D01*
X11337586Y-15004484D02*
X11337586Y-14871150D01*
X11337586Y-14890198D02*
X11347110Y-14880674D01*
X11347110Y-14880674D02*
X11366158Y-14871150D01*
X11366158Y-14871150D02*
X11394729Y-14871150D01*
X11394729Y-14871150D02*
X11413777Y-14880674D01*
X11413777Y-14880674D02*
X11423301Y-14899722D01*
X11423301Y-14899722D02*
X11423301Y-15004484D01*
X11423301Y-14899722D02*
X11432824Y-14880674D01*
X11432824Y-14880674D02*
X11451872Y-14871150D01*
X11451872Y-14871150D02*
X11480443Y-14871150D01*
X11480443Y-14871150D02*
X11499491Y-14880674D01*
X11499491Y-14880674D02*
X11509015Y-14899722D01*
X11509015Y-14899722D02*
X11509015Y-15004484D01*
X11899491Y-14794960D02*
X11728063Y-15052103D01*
X12156634Y-14804484D02*
X12175682Y-14804484D01*
X12175682Y-14804484D02*
X12194729Y-14814008D01*
X12194729Y-14814008D02*
X12204253Y-14823531D01*
X12204253Y-14823531D02*
X12213777Y-14842579D01*
X12213777Y-14842579D02*
X12223301Y-14880674D01*
X12223301Y-14880674D02*
X12223301Y-14928293D01*
X12223301Y-14928293D02*
X12213777Y-14966388D01*
X12213777Y-14966388D02*
X12204253Y-14985436D01*
X12204253Y-14985436D02*
X12194729Y-14994960D01*
X12194729Y-14994960D02*
X12175682Y-15004484D01*
X12175682Y-15004484D02*
X12156634Y-15004484D01*
X12156634Y-15004484D02*
X12137586Y-14994960D01*
X12137586Y-14994960D02*
X12128063Y-14985436D01*
X12128063Y-14985436D02*
X12118539Y-14966388D01*
X12118539Y-14966388D02*
X12109015Y-14928293D01*
X12109015Y-14928293D02*
X12109015Y-14880674D01*
X12109015Y-14880674D02*
X12118539Y-14842579D01*
X12118539Y-14842579D02*
X12128063Y-14823531D01*
X12128063Y-14823531D02*
X12137586Y-14814008D01*
X12137586Y-14814008D02*
X12156634Y-14804484D01*
X12309015Y-14985436D02*
X12318539Y-14994960D01*
X12318539Y-14994960D02*
X12309015Y-15004484D01*
X12309015Y-15004484D02*
X12299491Y-14994960D01*
X12299491Y-14994960D02*
X12309015Y-14985436D01*
X12309015Y-14985436D02*
X12309015Y-15004484D01*
X12442348Y-14804484D02*
X12461396Y-14804484D01*
X12461396Y-14804484D02*
X12480444Y-14814008D01*
X12480444Y-14814008D02*
X12489967Y-14823531D01*
X12489967Y-14823531D02*
X12499491Y-14842579D01*
X12499491Y-14842579D02*
X12509015Y-14880674D01*
X12509015Y-14880674D02*
X12509015Y-14928293D01*
X12509015Y-14928293D02*
X12499491Y-14966388D01*
X12499491Y-14966388D02*
X12489967Y-14985436D01*
X12489967Y-14985436D02*
X12480444Y-14994960D01*
X12480444Y-14994960D02*
X12461396Y-15004484D01*
X12461396Y-15004484D02*
X12442348Y-15004484D01*
X12442348Y-15004484D02*
X12423301Y-14994960D01*
X12423301Y-14994960D02*
X12413777Y-14985436D01*
X12413777Y-14985436D02*
X12404253Y-14966388D01*
X12404253Y-14966388D02*
X12394729Y-14928293D01*
X12394729Y-14928293D02*
X12394729Y-14880674D01*
X12394729Y-14880674D02*
X12404253Y-14842579D01*
X12404253Y-14842579D02*
X12413777Y-14823531D01*
X12413777Y-14823531D02*
X12423301Y-14814008D01*
X12423301Y-14814008D02*
X12442348Y-14804484D01*
X12575682Y-14804484D02*
X12709015Y-14804484D01*
X12709015Y-14804484D02*
X12623301Y-15004484D01*
X12823301Y-14804484D02*
X12842348Y-14804484D01*
X12842348Y-14804484D02*
X12861396Y-14814008D01*
X12861396Y-14814008D02*
X12870920Y-14823531D01*
X12870920Y-14823531D02*
X12880444Y-14842579D01*
X12880444Y-14842579D02*
X12889967Y-14880674D01*
X12889967Y-14880674D02*
X12889967Y-14928293D01*
X12889967Y-14928293D02*
X12880444Y-14966388D01*
X12880444Y-14966388D02*
X12870920Y-14985436D01*
X12870920Y-14985436D02*
X12861396Y-14994960D01*
X12861396Y-14994960D02*
X12842348Y-15004484D01*
X12842348Y-15004484D02*
X12823301Y-15004484D01*
X12823301Y-15004484D02*
X12804253Y-14994960D01*
X12804253Y-14994960D02*
X12794729Y-14985436D01*
X12794729Y-14985436D02*
X12785206Y-14966388D01*
X12785206Y-14966388D02*
X12775682Y-14928293D01*
X12775682Y-14928293D02*
X12775682Y-14880674D01*
X12775682Y-14880674D02*
X12785206Y-14842579D01*
X12785206Y-14842579D02*
X12794729Y-14823531D01*
X12794729Y-14823531D02*
X12804253Y-14814008D01*
X12804253Y-14814008D02*
X12823301Y-14804484D01*
X12985206Y-15004484D02*
X13023301Y-15004484D01*
X13023301Y-15004484D02*
X13042348Y-14994960D01*
X13042348Y-14994960D02*
X13051872Y-14985436D01*
X13051872Y-14985436D02*
X13070920Y-14956865D01*
X13070920Y-14956865D02*
X13080444Y-14918769D01*
X13080444Y-14918769D02*
X13080444Y-14842579D01*
X13080444Y-14842579D02*
X13070920Y-14823531D01*
X13070920Y-14823531D02*
X13061396Y-14814008D01*
X13061396Y-14814008D02*
X13042348Y-14804484D01*
X13042348Y-14804484D02*
X13004253Y-14804484D01*
X13004253Y-14804484D02*
X12985206Y-14814008D01*
X12985206Y-14814008D02*
X12975682Y-14823531D01*
X12975682Y-14823531D02*
X12966158Y-14842579D01*
X12966158Y-14842579D02*
X12966158Y-14890198D01*
X12966158Y-14890198D02*
X12975682Y-14909246D01*
X12975682Y-14909246D02*
X12985206Y-14918769D01*
X12985206Y-14918769D02*
X13004253Y-14928293D01*
X13004253Y-14928293D02*
X13042348Y-14928293D01*
X13042348Y-14928293D02*
X13061396Y-14918769D01*
X13061396Y-14918769D02*
X13070920Y-14909246D01*
X13070920Y-14909246D02*
X13080444Y-14890198D01*
X13156634Y-14804484D02*
X13156634Y-14842579D01*
X13232825Y-14804484D02*
X13232825Y-14842579D01*
X13528063Y-15080674D02*
X13518539Y-15071150D01*
X13518539Y-15071150D02*
X13499491Y-15042579D01*
X13499491Y-15042579D02*
X13489968Y-15023531D01*
X13489968Y-15023531D02*
X13480444Y-14994960D01*
X13480444Y-14994960D02*
X13470920Y-14947341D01*
X13470920Y-14947341D02*
X13470920Y-14909246D01*
X13470920Y-14909246D02*
X13480444Y-14861627D01*
X13480444Y-14861627D02*
X13489968Y-14833055D01*
X13489968Y-14833055D02*
X13499491Y-14814008D01*
X13499491Y-14814008D02*
X13518539Y-14785436D01*
X13518539Y-14785436D02*
X13528063Y-14775912D01*
X13594729Y-14823531D02*
X13604253Y-14814008D01*
X13604253Y-14814008D02*
X13623301Y-14804484D01*
X13623301Y-14804484D02*
X13670920Y-14804484D01*
X13670920Y-14804484D02*
X13689968Y-14814008D01*
X13689968Y-14814008D02*
X13699491Y-14823531D01*
X13699491Y-14823531D02*
X13709015Y-14842579D01*
X13709015Y-14842579D02*
X13709015Y-14861627D01*
X13709015Y-14861627D02*
X13699491Y-14890198D01*
X13699491Y-14890198D02*
X13585206Y-15004484D01*
X13585206Y-15004484D02*
X13709015Y-15004484D01*
X13947110Y-15004484D02*
X13947110Y-14804484D01*
X14032825Y-15004484D02*
X14032825Y-14899722D01*
X14032825Y-14899722D02*
X14023301Y-14880674D01*
X14023301Y-14880674D02*
X14004253Y-14871150D01*
X14004253Y-14871150D02*
X13975682Y-14871150D01*
X13975682Y-14871150D02*
X13956634Y-14880674D01*
X13956634Y-14880674D02*
X13947110Y-14890198D01*
X14156634Y-15004484D02*
X14137587Y-14994960D01*
X14137587Y-14994960D02*
X14128063Y-14985436D01*
X14128063Y-14985436D02*
X14118539Y-14966388D01*
X14118539Y-14966388D02*
X14118539Y-14909246D01*
X14118539Y-14909246D02*
X14128063Y-14890198D01*
X14128063Y-14890198D02*
X14137587Y-14880674D01*
X14137587Y-14880674D02*
X14156634Y-14871150D01*
X14156634Y-14871150D02*
X14185206Y-14871150D01*
X14185206Y-14871150D02*
X14204253Y-14880674D01*
X14204253Y-14880674D02*
X14213777Y-14890198D01*
X14213777Y-14890198D02*
X14223301Y-14909246D01*
X14223301Y-14909246D02*
X14223301Y-14966388D01*
X14223301Y-14966388D02*
X14213777Y-14985436D01*
X14213777Y-14985436D02*
X14204253Y-14994960D01*
X14204253Y-14994960D02*
X14185206Y-15004484D01*
X14185206Y-15004484D02*
X14156634Y-15004484D01*
X14337587Y-15004484D02*
X14318539Y-14994960D01*
X14318539Y-14994960D02*
X14309015Y-14975912D01*
X14309015Y-14975912D02*
X14309015Y-14804484D01*
X14489968Y-14994960D02*
X14470920Y-15004484D01*
X14470920Y-15004484D02*
X14432825Y-15004484D01*
X14432825Y-15004484D02*
X14413777Y-14994960D01*
X14413777Y-14994960D02*
X14404253Y-14975912D01*
X14404253Y-14975912D02*
X14404253Y-14899722D01*
X14404253Y-14899722D02*
X14413777Y-14880674D01*
X14413777Y-14880674D02*
X14432825Y-14871150D01*
X14432825Y-14871150D02*
X14470920Y-14871150D01*
X14470920Y-14871150D02*
X14489968Y-14880674D01*
X14489968Y-14880674D02*
X14499491Y-14899722D01*
X14499491Y-14899722D02*
X14499491Y-14918769D01*
X14499491Y-14918769D02*
X14404253Y-14937817D01*
X14575682Y-14994960D02*
X14594730Y-15004484D01*
X14594730Y-15004484D02*
X14632825Y-15004484D01*
X14632825Y-15004484D02*
X14651872Y-14994960D01*
X14651872Y-14994960D02*
X14661396Y-14975912D01*
X14661396Y-14975912D02*
X14661396Y-14966388D01*
X14661396Y-14966388D02*
X14651872Y-14947341D01*
X14651872Y-14947341D02*
X14632825Y-14937817D01*
X14632825Y-14937817D02*
X14604253Y-14937817D01*
X14604253Y-14937817D02*
X14585206Y-14928293D01*
X14585206Y-14928293D02*
X14575682Y-14909246D01*
X14575682Y-14909246D02*
X14575682Y-14899722D01*
X14575682Y-14899722D02*
X14585206Y-14880674D01*
X14585206Y-14880674D02*
X14604253Y-14871150D01*
X14604253Y-14871150D02*
X14632825Y-14871150D01*
X14632825Y-14871150D02*
X14651872Y-14880674D01*
X14728063Y-15080674D02*
X14737587Y-15071150D01*
X14737587Y-15071150D02*
X14756634Y-15042579D01*
X14756634Y-15042579D02*
X14766158Y-15023531D01*
X14766158Y-15023531D02*
X14775682Y-14994960D01*
X14775682Y-14994960D02*
X14785206Y-14947341D01*
X14785206Y-14947341D02*
X14785206Y-14909246D01*
X14785206Y-14909246D02*
X14775682Y-14861627D01*
X14775682Y-14861627D02*
X14766158Y-14833055D01*
X14766158Y-14833055D02*
X14756634Y-14814008D01*
X14756634Y-14814008D02*
X14737587Y-14785436D01*
X14737587Y-14785436D02*
X14728063Y-14775912D01*
M02*
