G04 #@! TF.GenerationSoftware,KiCad,Pcbnew,7.0.8*
G04 #@! TF.CreationDate,2024-10-12T14:26:17+02:00*
G04 #@! TF.ProjectId,PCB_Christmas_Tree,5043425f-4368-4726-9973-746d61735f54,rev?*
G04 #@! TF.SameCoordinates,Original*
G04 #@! TF.FileFunction,Copper,L1,Top*
G04 #@! TF.FilePolarity,Positive*
%FSLAX46Y46*%
G04 Gerber Fmt 4.6, Leading zero omitted, Abs format (unit mm)*
G04 Created by KiCad (PCBNEW 7.0.8) date 2024-10-12 14:26:17*
%MOMM*%
%LPD*%
G01*
G04 APERTURE LIST*
G04 Aperture macros list*
%AMRoundRect*
0 Rectangle with rounded corners*
0 $1 Rounding radius*
0 $2 $3 $4 $5 $6 $7 $8 $9 X,Y pos of 4 corners*
0 Add a 4 corners polygon primitive as box body*
4,1,4,$2,$3,$4,$5,$6,$7,$8,$9,$2,$3,0*
0 Add four circle primitives for the rounded corners*
1,1,$1+$1,$2,$3*
1,1,$1+$1,$4,$5*
1,1,$1+$1,$6,$7*
1,1,$1+$1,$8,$9*
0 Add four rect primitives between the rounded corners*
20,1,$1+$1,$2,$3,$4,$5,0*
20,1,$1+$1,$4,$5,$6,$7,0*
20,1,$1+$1,$6,$7,$8,$9,0*
20,1,$1+$1,$8,$9,$2,$3,0*%
G04 Aperture macros list end*
G04 #@! TA.AperFunction,SMDPad,CuDef*
%ADD10RoundRect,0.250000X0.450000X-0.325000X0.450000X0.325000X-0.450000X0.325000X-0.450000X-0.325000X0*%
G04 #@! TD*
G04 #@! TA.AperFunction,SMDPad,CuDef*
%ADD11R,1.550000X1.300000*%
G04 #@! TD*
G04 #@! TA.AperFunction,SMDPad,CuDef*
%ADD12RoundRect,0.250000X0.325000X0.450000X-0.325000X0.450000X-0.325000X-0.450000X0.325000X-0.450000X0*%
G04 #@! TD*
G04 #@! TA.AperFunction,ComponentPad*
%ADD13C,3.000000*%
G04 #@! TD*
G04 #@! TA.AperFunction,SMDPad,CuDef*
%ADD14R,5.000000X5.000000*%
G04 #@! TD*
G04 #@! TA.AperFunction,SMDPad,CuDef*
%ADD15R,3.000000X2.000000*%
G04 #@! TD*
G04 #@! TA.AperFunction,SMDPad,CuDef*
%ADD16RoundRect,0.250000X-0.350000X-0.450000X0.350000X-0.450000X0.350000X0.450000X-0.350000X0.450000X0*%
G04 #@! TD*
G04 #@! TA.AperFunction,SMDPad,CuDef*
%ADD17RoundRect,0.250000X-0.250000X-0.750000X0.250000X-0.750000X0.250000X0.750000X-0.250000X0.750000X0*%
G04 #@! TD*
G04 #@! TA.AperFunction,ComponentPad*
%ADD18R,1.700000X1.700000*%
G04 #@! TD*
G04 #@! TA.AperFunction,ComponentPad*
%ADD19O,1.700000X1.700000*%
G04 #@! TD*
G04 #@! TA.AperFunction,ViaPad*
%ADD20C,0.800000*%
G04 #@! TD*
G04 #@! TA.AperFunction,Conductor*
%ADD21C,0.600000*%
G04 #@! TD*
G04 #@! TA.AperFunction,Conductor*
%ADD22C,0.250000*%
G04 #@! TD*
G04 #@! TA.AperFunction,Conductor*
%ADD23C,1.000000*%
G04 #@! TD*
G04 #@! TA.AperFunction,Conductor*
%ADD24C,1.500000*%
G04 #@! TD*
G04 APERTURE END LIST*
D10*
X173630000Y-115625000D03*
X173630000Y-113575000D03*
D11*
X134567000Y-133613000D03*
X126617000Y-133613000D03*
X134567000Y-129113000D03*
X126617000Y-129113000D03*
D12*
X119670000Y-99740000D03*
X117620000Y-99740000D03*
D13*
X139274000Y-126227000D03*
X160356000Y-126227000D03*
D14*
X149815000Y-126227000D03*
D15*
X147130000Y-89568000D03*
X147130000Y-92870000D03*
X147130000Y-96172000D03*
X147130000Y-99220000D03*
D10*
X166630000Y-85625000D03*
X166630000Y-83575000D03*
D16*
X175630000Y-119600000D03*
X177630000Y-119600000D03*
X167542500Y-89600000D03*
X169542500Y-89600000D03*
X154630000Y-53600000D03*
X156630000Y-53600000D03*
D17*
X151039000Y-44241000D03*
D16*
X110288000Y-134030000D03*
X112288000Y-134030000D03*
D17*
X148118000Y-44241000D03*
D16*
X135942000Y-69514000D03*
X137942000Y-69514000D03*
D12*
X107995000Y-134030000D03*
X105945000Y-134030000D03*
X134157000Y-69514000D03*
X132107000Y-69514000D03*
D16*
X121445000Y-99740000D03*
X123445000Y-99740000D03*
D10*
X153630000Y-49625000D03*
X153630000Y-47575000D03*
D18*
X169155000Y-134600000D03*
D19*
X166615000Y-134600000D03*
X164075000Y-134600000D03*
D20*
X148130000Y-44300000D03*
X151030000Y-44300000D03*
X139355000Y-131617000D03*
X144206400Y-89568000D03*
X152944000Y-90088000D03*
X142580800Y-102889600D03*
X151674000Y-90088000D03*
X152944000Y-89072000D03*
X156373000Y-113575000D03*
X154722000Y-89574000D03*
X152436000Y-122219000D03*
X147610000Y-89072000D03*
X147610000Y-90088000D03*
X151674000Y-89072000D03*
X146340000Y-89072000D03*
X146340000Y-90088000D03*
X144714400Y-96172000D03*
X151674000Y-96692000D03*
X147610000Y-119806000D03*
X146340000Y-95676000D03*
X151674000Y-95676000D03*
X147610000Y-96692000D03*
X156296800Y-96178000D03*
X152944000Y-96692000D03*
X152944000Y-95676000D03*
X146340000Y-96692000D03*
X147610000Y-95676000D03*
X147610000Y-122092000D03*
X147610000Y-93390000D03*
X152944000Y-92374000D03*
X151674000Y-93390000D03*
X147610000Y-92374000D03*
X151674000Y-92374000D03*
X146340000Y-92374000D03*
X146340000Y-93390000D03*
X143596800Y-101822800D03*
X143596800Y-92870000D03*
X155293500Y-100946500D03*
X156195200Y-92876000D03*
X152944000Y-93390000D03*
X132268400Y-133623600D03*
X146340000Y-73070000D03*
X145628800Y-124124000D03*
X146340000Y-78150000D03*
X125308800Y-99740000D03*
X123327600Y-97809600D03*
X154671200Y-87649600D03*
X154330000Y-94533000D03*
X150861200Y-119602800D03*
X159497200Y-69514000D03*
X146340000Y-70530000D03*
X128306000Y-89707000D03*
X153604400Y-124276400D03*
X122718000Y-122600000D03*
X154010800Y-119298000D03*
X142682400Y-55442400D03*
X152944000Y-98724000D03*
X152690000Y-78150000D03*
X147559200Y-103448400D03*
X146340000Y-65450000D03*
X154330000Y-91358000D03*
X139730000Y-136100000D03*
X149337200Y-119602800D03*
X151521600Y-103397600D03*
X151420000Y-87243200D03*
X152690000Y-60370000D03*
X145578000Y-128188000D03*
X152690000Y-80690000D03*
X157770000Y-121126800D03*
X147610000Y-98724000D03*
X162138800Y-130931200D03*
X142225200Y-124428800D03*
X126629600Y-131337600D03*
X152690000Y-75610000D03*
X147711600Y-101670400D03*
X129779200Y-133522000D03*
X145476400Y-119755200D03*
X176464400Y-97657200D03*
X151674000Y-99740000D03*
X156550800Y-55442400D03*
X158659000Y-134665000D03*
X176413600Y-101975200D03*
X146340000Y-98724000D03*
X160564000Y-129407200D03*
X151420000Y-101670400D03*
X120686000Y-120568000D03*
X152944000Y-99740000D03*
X123378400Y-101772000D03*
X152690000Y-73070000D03*
X151674000Y-98724000D03*
X146340000Y-83230000D03*
X146340000Y-67990000D03*
X152690000Y-67990000D03*
X126477200Y-135858800D03*
X158074800Y-124581200D03*
X139634400Y-69412400D03*
X146340000Y-57830000D03*
X152690000Y-70530000D03*
X147610000Y-99740000D03*
X177632800Y-117266000D03*
X180071200Y-119704400D03*
X186268800Y-136011200D03*
X146340000Y-55290000D03*
X152690000Y-62910000D03*
X183995000Y-134036000D03*
X177582000Y-122092000D03*
X145019200Y-135452400D03*
X154468000Y-135173000D03*
X152690000Y-57830000D03*
X122667200Y-118637600D03*
X146340000Y-99740000D03*
X112253200Y-136011200D03*
X146340000Y-80690000D03*
X151724800Y-84855600D03*
X114082000Y-134030000D03*
X134605200Y-131337600D03*
X130998400Y-131388400D03*
X143292000Y-121584000D03*
X158074800Y-122752400D03*
X152690000Y-65450000D03*
X146340000Y-75610000D03*
X146340000Y-62910000D03*
X136484800Y-126562400D03*
X174483200Y-99689200D03*
X161199000Y-134665000D03*
X158633600Y-130931200D03*
X134757600Y-127121200D03*
X152842400Y-101670400D03*
X152690000Y-55290000D03*
X154061600Y-126816400D03*
X146340000Y-60370000D03*
X146289200Y-101721200D03*
X123734000Y-133522000D03*
X147508400Y-87141600D03*
X134554400Y-135808000D03*
D21*
X173630000Y-115625000D02*
X173630000Y-118521000D01*
X173630000Y-118521000D02*
X174709000Y-119600000D01*
X154717500Y-52364500D02*
X154717500Y-53600000D01*
X166630000Y-87137000D02*
X167630000Y-88137000D01*
X153630000Y-51277000D02*
X154717500Y-52364500D01*
X110375500Y-134030000D02*
X107995000Y-134030000D01*
D22*
X119670000Y-99740000D02*
X121532500Y-99740000D01*
X134157000Y-69514000D02*
X136029500Y-69514000D01*
D21*
X153630000Y-49625000D02*
X153630000Y-51277000D01*
X167630000Y-88137000D02*
X167630000Y-89600000D01*
X174709000Y-119600000D02*
X175717500Y-119600000D01*
X166630000Y-85625000D02*
X166630000Y-87137000D01*
X139355000Y-131617000D02*
X136851000Y-129113000D01*
D23*
X126617000Y-129113000D02*
X134567000Y-129113000D01*
D21*
X136851000Y-129113000D02*
X134567000Y-129113000D01*
D22*
X152436000Y-122219000D02*
X152436000Y-113575000D01*
X147610000Y-89072000D02*
X147130000Y-89568000D01*
X146340000Y-89072000D02*
X146340000Y-89326000D01*
X105945000Y-134030000D02*
X105945000Y-133023000D01*
X120076400Y-131998000D02*
X138499400Y-113575000D01*
X155382400Y-90234400D02*
X154722000Y-89574000D01*
X156373000Y-113575000D02*
X153960000Y-113575000D01*
X106970000Y-131998000D02*
X120076400Y-131998000D01*
X144206400Y-89568000D02*
X145590000Y-89568000D01*
X146582000Y-89568000D02*
X147610000Y-90088000D01*
X155382400Y-99257400D02*
X155382400Y-90234400D01*
X173630000Y-113575000D02*
X156373000Y-113575000D01*
X147102000Y-89072000D02*
X147610000Y-89072000D01*
X105945000Y-133023000D02*
X106970000Y-131998000D01*
X147102000Y-90088000D02*
X147102000Y-89072000D01*
X147610000Y-90088000D02*
X147102000Y-90088000D01*
X145590000Y-89568000D02*
X146086000Y-89072000D01*
X156373000Y-113575000D02*
X156373000Y-100248000D01*
X153960000Y-113575000D02*
X152436000Y-113575000D01*
X146340000Y-89326000D02*
X146582000Y-89568000D01*
X138499400Y-113575000D02*
X147559200Y-113575000D01*
X146086000Y-89072000D02*
X146340000Y-89072000D01*
X142580800Y-102889600D02*
X152436000Y-112744800D01*
X152436000Y-112744800D02*
X152436000Y-113575000D01*
X147559200Y-113575000D02*
X152436000Y-113575000D01*
X146086000Y-89072000D02*
X146086000Y-89072000D01*
X156373000Y-100248000D02*
X155382400Y-99257400D01*
X147610000Y-119806000D02*
X147610000Y-122092000D01*
X146836000Y-96172000D02*
X147130000Y-96172000D01*
X157008000Y-86989200D02*
X160422200Y-83575000D01*
X160422200Y-83575000D02*
X166630000Y-83575000D01*
X144714400Y-96172000D02*
X145844000Y-96172000D01*
X156296800Y-96178000D02*
X157008000Y-95466800D01*
X146340000Y-95676000D02*
X146836000Y-96172000D01*
X157008000Y-95466800D02*
X157008000Y-86989200D01*
X145844000Y-96172000D02*
X146340000Y-95676000D01*
X119428000Y-96172000D02*
X117620000Y-97980000D01*
X144714400Y-96172000D02*
X119428000Y-96172000D01*
X117620000Y-97980000D02*
X117620000Y-99740000D01*
X143088800Y-76168800D02*
X138720000Y-71800000D01*
X151420000Y-82087000D02*
X151420000Y-48940000D01*
X145844000Y-92870000D02*
X146340000Y-92374000D01*
X156195200Y-86862200D02*
X151420000Y-82087000D01*
X143596800Y-92870000D02*
X143534000Y-92870000D01*
X143088800Y-92424800D02*
X143088800Y-76168800D01*
X151420000Y-48940000D02*
X152785000Y-47575000D01*
X146836000Y-92870000D02*
X147130000Y-92870000D01*
X132107000Y-70521000D02*
X132107000Y-69514000D01*
X133386000Y-71800000D02*
X132107000Y-70521000D01*
X146340000Y-92374000D02*
X146836000Y-92870000D01*
X150962800Y-106852000D02*
X155293500Y-102521300D01*
X143596800Y-92870000D02*
X147130000Y-92870000D01*
X155293500Y-102521300D02*
X155293500Y-100946500D01*
X138720000Y-71800000D02*
X133386000Y-71800000D01*
X152785000Y-47575000D02*
X153630000Y-47575000D01*
X143596800Y-102203800D02*
X148245000Y-106852000D01*
X143534000Y-92870000D02*
X143088800Y-92424800D01*
X148245000Y-106852000D02*
X150962800Y-106852000D01*
X143596800Y-101822800D02*
X143596800Y-102203800D01*
X156195200Y-92876000D02*
X156195200Y-86862200D01*
D24*
X160356000Y-126227000D02*
X155601000Y-130982000D01*
X155601000Y-130982000D02*
X144029000Y-130982000D01*
X144029000Y-130982000D02*
X139274000Y-126227000D01*
G04 #@! TA.AperFunction,Conductor*
G36*
X150685703Y-39102857D02*
G01*
X150706247Y-39125695D01*
X161623898Y-54799998D01*
X174443308Y-73204628D01*
X174465472Y-73270889D01*
X174448294Y-73338614D01*
X174397228Y-73386301D01*
X174341558Y-73399500D01*
X162080952Y-73399500D01*
X162080006Y-73399458D01*
X162079902Y-73399500D01*
X162079901Y-73399500D01*
X162079821Y-73399532D01*
X162079634Y-73399601D01*
X162079633Y-73399601D01*
X162079621Y-73399606D01*
X162079545Y-73399791D01*
X162079453Y-73399987D01*
X162079538Y-73400193D01*
X162079603Y-73400370D01*
X162080298Y-73401065D01*
X177376656Y-90088000D01*
X189284026Y-103077859D01*
X189388390Y-103191710D01*
X189419180Y-103254430D01*
X189411173Y-103323839D01*
X189366911Y-103377901D01*
X189300448Y-103399452D01*
X189296983Y-103399500D01*
X169582648Y-103399500D01*
X169580022Y-103399416D01*
X169579585Y-103399580D01*
X169579407Y-103399973D01*
X169579567Y-103400392D01*
X169581370Y-103402309D01*
X199397090Y-137193459D01*
X199426684Y-137256751D01*
X199417362Y-137325996D01*
X199372084Y-137379209D01*
X199305224Y-137399495D01*
X199304110Y-137399500D01*
X99855889Y-137399500D01*
X99788850Y-137379815D01*
X99743095Y-137327011D01*
X99733151Y-137257853D01*
X99762176Y-137194297D01*
X99762909Y-137193459D01*
X102113019Y-134530001D01*
X104869500Y-134530001D01*
X104869501Y-134530019D01*
X104880000Y-134632796D01*
X104880001Y-134632799D01*
X104935185Y-134799331D01*
X104935187Y-134799336D01*
X104961921Y-134842679D01*
X105027288Y-134948656D01*
X105151344Y-135072712D01*
X105300666Y-135164814D01*
X105467203Y-135219999D01*
X105569991Y-135230500D01*
X106320008Y-135230499D01*
X106320016Y-135230498D01*
X106320019Y-135230498D01*
X106376302Y-135224748D01*
X106422797Y-135219999D01*
X106589334Y-135164814D01*
X106738656Y-135072712D01*
X106862712Y-134948656D01*
X106864461Y-134945819D01*
X106866169Y-134944283D01*
X106867193Y-134942989D01*
X106867414Y-134943163D01*
X106916406Y-134899096D01*
X106985368Y-134887872D01*
X107049451Y-134915713D01*
X107075537Y-134945817D01*
X107077288Y-134948656D01*
X107201344Y-135072712D01*
X107350666Y-135164814D01*
X107517203Y-135219999D01*
X107619991Y-135230500D01*
X108370008Y-135230499D01*
X108370016Y-135230498D01*
X108370019Y-135230498D01*
X108426302Y-135224748D01*
X108472797Y-135219999D01*
X108639334Y-135164814D01*
X108788656Y-135072712D01*
X108912712Y-134948656D01*
X108949259Y-134889402D01*
X109001207Y-134842679D01*
X109054798Y-134830500D01*
X109203202Y-134830500D01*
X109270241Y-134850185D01*
X109308739Y-134889401D01*
X109345288Y-134948656D01*
X109469344Y-135072712D01*
X109618666Y-135164814D01*
X109785203Y-135219999D01*
X109887991Y-135230500D01*
X110688008Y-135230499D01*
X110688016Y-135230498D01*
X110688019Y-135230498D01*
X110744302Y-135224748D01*
X110790797Y-135219999D01*
X110957334Y-135164814D01*
X111106656Y-135072712D01*
X111200675Y-134978692D01*
X111261994Y-134945210D01*
X111331686Y-134950194D01*
X111376034Y-134978695D01*
X111469654Y-135072315D01*
X111618875Y-135164356D01*
X111618880Y-135164358D01*
X111785302Y-135219505D01*
X111785309Y-135219506D01*
X111888019Y-135229999D01*
X112037999Y-135229999D01*
X112038000Y-135229998D01*
X112038000Y-134280000D01*
X112538000Y-134280000D01*
X112538000Y-135229999D01*
X112687972Y-135229999D01*
X112687986Y-135229998D01*
X112790697Y-135219505D01*
X112957119Y-135164358D01*
X112957124Y-135164356D01*
X113106345Y-135072315D01*
X113230315Y-134948345D01*
X113322356Y-134799124D01*
X113322358Y-134799119D01*
X113377505Y-134632697D01*
X113377506Y-134632690D01*
X113387999Y-134529986D01*
X113388000Y-134529973D01*
X113388000Y-134280000D01*
X112538000Y-134280000D01*
X112038000Y-134280000D01*
X112038000Y-133904000D01*
X112050039Y-133863000D01*
X125342000Y-133863000D01*
X125342000Y-134310844D01*
X125348401Y-134370372D01*
X125348403Y-134370379D01*
X125398645Y-134505086D01*
X125398649Y-134505093D01*
X125484809Y-134620187D01*
X125484812Y-134620190D01*
X125599906Y-134706350D01*
X125599913Y-134706354D01*
X125734620Y-134756596D01*
X125734627Y-134756598D01*
X125794155Y-134762999D01*
X125794172Y-134763000D01*
X126367000Y-134763000D01*
X126367000Y-133863000D01*
X126867000Y-133863000D01*
X126867000Y-134763000D01*
X127439828Y-134763000D01*
X127439844Y-134762999D01*
X127499372Y-134756598D01*
X127499379Y-134756596D01*
X127634086Y-134706354D01*
X127634093Y-134706350D01*
X127749187Y-134620190D01*
X127749190Y-134620187D01*
X127835350Y-134505093D01*
X127835354Y-134505086D01*
X127885596Y-134370379D01*
X127885598Y-134370372D01*
X127891999Y-134310844D01*
X127892000Y-134310827D01*
X127892000Y-133863000D01*
X133292000Y-133863000D01*
X133292000Y-134310844D01*
X133298401Y-134370372D01*
X133298403Y-134370379D01*
X133348645Y-134505086D01*
X133348649Y-134505093D01*
X133434809Y-134620187D01*
X133434812Y-134620190D01*
X133549906Y-134706350D01*
X133549913Y-134706354D01*
X133684620Y-134756596D01*
X133684627Y-134756598D01*
X133744155Y-134762999D01*
X133744172Y-134763000D01*
X134317000Y-134763000D01*
X134317000Y-133863000D01*
X134817000Y-133863000D01*
X134817000Y-134763000D01*
X135389828Y-134763000D01*
X135389844Y-134762999D01*
X135449372Y-134756598D01*
X135449379Y-134756596D01*
X135584086Y-134706354D01*
X135584093Y-134706350D01*
X135699187Y-134620190D01*
X135699190Y-134620187D01*
X135714302Y-134600000D01*
X162719341Y-134600000D01*
X162739936Y-134835403D01*
X162739938Y-134835413D01*
X162801094Y-135063655D01*
X162801096Y-135063659D01*
X162801097Y-135063663D01*
X162884155Y-135241781D01*
X162900965Y-135277830D01*
X162900967Y-135277834D01*
X163009281Y-135432521D01*
X163036505Y-135471401D01*
X163203599Y-135638495D01*
X163300384Y-135706265D01*
X163397165Y-135774032D01*
X163397167Y-135774033D01*
X163397170Y-135774035D01*
X163611337Y-135873903D01*
X163839592Y-135935063D01*
X164016034Y-135950500D01*
X164074999Y-135955659D01*
X164075000Y-135955659D01*
X164075001Y-135955659D01*
X164133966Y-135950500D01*
X164310408Y-135935063D01*
X164538663Y-135873903D01*
X164752830Y-135774035D01*
X164946401Y-135638495D01*
X165113495Y-135471401D01*
X165243730Y-135285405D01*
X165298307Y-135241781D01*
X165367805Y-135234587D01*
X165430160Y-135266110D01*
X165446879Y-135285405D01*
X165576890Y-135471078D01*
X165743917Y-135638105D01*
X165937421Y-135773600D01*
X166151507Y-135873429D01*
X166151516Y-135873433D01*
X166365000Y-135930634D01*
X166365000Y-135035501D01*
X166472685Y-135084680D01*
X166579237Y-135100000D01*
X166650763Y-135100000D01*
X166757315Y-135084680D01*
X166865000Y-135035501D01*
X166865000Y-135930633D01*
X167078483Y-135873433D01*
X167078492Y-135873429D01*
X167292578Y-135773600D01*
X167486078Y-135638108D01*
X167608133Y-135516053D01*
X167669456Y-135482568D01*
X167739148Y-135487552D01*
X167795082Y-135529423D01*
X167811997Y-135560401D01*
X167861202Y-135692328D01*
X167861206Y-135692335D01*
X167947452Y-135807544D01*
X167947455Y-135807547D01*
X168062664Y-135893793D01*
X168062671Y-135893797D01*
X168197517Y-135944091D01*
X168197516Y-135944091D01*
X168204444Y-135944835D01*
X168257127Y-135950500D01*
X170052872Y-135950499D01*
X170112483Y-135944091D01*
X170247331Y-135893796D01*
X170362546Y-135807546D01*
X170448796Y-135692331D01*
X170499091Y-135557483D01*
X170505500Y-135497873D01*
X170505499Y-133702128D01*
X170499091Y-133642517D01*
X170498002Y-133639598D01*
X170448797Y-133507671D01*
X170448793Y-133507664D01*
X170362547Y-133392455D01*
X170362544Y-133392452D01*
X170247335Y-133306206D01*
X170247328Y-133306202D01*
X170112482Y-133255908D01*
X170112483Y-133255908D01*
X170052883Y-133249501D01*
X170052881Y-133249500D01*
X170052873Y-133249500D01*
X170052864Y-133249500D01*
X168257129Y-133249500D01*
X168257123Y-133249501D01*
X168197516Y-133255908D01*
X168062671Y-133306202D01*
X168062664Y-133306206D01*
X167947455Y-133392452D01*
X167947452Y-133392455D01*
X167861206Y-133507664D01*
X167861202Y-133507671D01*
X167811997Y-133639598D01*
X167770126Y-133695532D01*
X167704661Y-133719949D01*
X167636388Y-133705097D01*
X167608134Y-133683946D01*
X167486082Y-133561894D01*
X167292578Y-133426399D01*
X167078492Y-133326570D01*
X167078486Y-133326567D01*
X166865000Y-133269364D01*
X166865000Y-134164498D01*
X166757315Y-134115320D01*
X166650763Y-134100000D01*
X166579237Y-134100000D01*
X166472685Y-134115320D01*
X166365000Y-134164498D01*
X166365000Y-133269364D01*
X166364999Y-133269364D01*
X166151513Y-133326567D01*
X166151507Y-133326570D01*
X165937422Y-133426399D01*
X165937420Y-133426400D01*
X165743926Y-133561886D01*
X165743920Y-133561891D01*
X165576891Y-133728920D01*
X165576890Y-133728922D01*
X165446880Y-133914595D01*
X165392303Y-133958219D01*
X165322804Y-133965412D01*
X165260450Y-133933890D01*
X165243730Y-133914594D01*
X165113494Y-133728597D01*
X164946402Y-133561506D01*
X164946395Y-133561501D01*
X164752834Y-133425967D01*
X164752830Y-133425965D01*
X164752828Y-133425964D01*
X164538663Y-133326097D01*
X164538659Y-133326096D01*
X164538655Y-133326094D01*
X164310413Y-133264938D01*
X164310403Y-133264936D01*
X164075001Y-133244341D01*
X164074999Y-133244341D01*
X163839596Y-133264936D01*
X163839586Y-133264938D01*
X163611344Y-133326094D01*
X163611335Y-133326098D01*
X163397171Y-133425964D01*
X163397169Y-133425965D01*
X163203597Y-133561505D01*
X163036505Y-133728597D01*
X162900965Y-133922169D01*
X162900964Y-133922171D01*
X162801098Y-134136335D01*
X162801094Y-134136344D01*
X162739938Y-134364586D01*
X162739936Y-134364596D01*
X162719341Y-134599999D01*
X162719341Y-134600000D01*
X135714302Y-134600000D01*
X135785350Y-134505093D01*
X135785354Y-134505086D01*
X135835596Y-134370379D01*
X135835598Y-134370372D01*
X135841999Y-134310844D01*
X135842000Y-134310827D01*
X135842000Y-133863000D01*
X134817000Y-133863000D01*
X134317000Y-133863000D01*
X133292000Y-133863000D01*
X127892000Y-133863000D01*
X126867000Y-133863000D01*
X126367000Y-133863000D01*
X125342000Y-133863000D01*
X112050039Y-133863000D01*
X112057685Y-133836961D01*
X112110489Y-133791206D01*
X112162000Y-133780000D01*
X113387999Y-133780000D01*
X113387999Y-133530028D01*
X113387998Y-133530013D01*
X113377505Y-133427302D01*
X113356197Y-133363000D01*
X125342000Y-133363000D01*
X126367000Y-133363000D01*
X126367000Y-132463000D01*
X126867000Y-132463000D01*
X126867000Y-133363000D01*
X127892000Y-133363000D01*
X133292000Y-133363000D01*
X134317000Y-133363000D01*
X134317000Y-132463000D01*
X134817000Y-132463000D01*
X134817000Y-133363000D01*
X135842000Y-133363000D01*
X135842000Y-132915172D01*
X135841999Y-132915155D01*
X135835598Y-132855627D01*
X135835596Y-132855620D01*
X135785354Y-132720913D01*
X135785350Y-132720906D01*
X135699190Y-132605812D01*
X135699187Y-132605809D01*
X135584093Y-132519649D01*
X135584086Y-132519645D01*
X135449379Y-132469403D01*
X135449372Y-132469401D01*
X135389844Y-132463000D01*
X134817000Y-132463000D01*
X134317000Y-132463000D01*
X133744155Y-132463000D01*
X133684627Y-132469401D01*
X133684620Y-132469403D01*
X133549913Y-132519645D01*
X133549906Y-132519649D01*
X133434812Y-132605809D01*
X133434809Y-132605812D01*
X133348649Y-132720906D01*
X133348645Y-132720913D01*
X133298403Y-132855620D01*
X133298401Y-132855627D01*
X133292000Y-132915155D01*
X133292000Y-133363000D01*
X127892000Y-133363000D01*
X127892000Y-132915172D01*
X127891999Y-132915155D01*
X127885598Y-132855627D01*
X127885596Y-132855620D01*
X127835354Y-132720913D01*
X127835350Y-132720906D01*
X127749190Y-132605812D01*
X127749187Y-132605809D01*
X127634093Y-132519649D01*
X127634086Y-132519645D01*
X127499379Y-132469403D01*
X127499372Y-132469401D01*
X127439844Y-132463000D01*
X126867000Y-132463000D01*
X126367000Y-132463000D01*
X125794155Y-132463000D01*
X125734627Y-132469401D01*
X125734620Y-132469403D01*
X125599913Y-132519645D01*
X125599906Y-132519649D01*
X125484812Y-132605809D01*
X125484809Y-132605812D01*
X125398649Y-132720906D01*
X125398645Y-132720913D01*
X125348403Y-132855620D01*
X125348401Y-132855627D01*
X125342000Y-132915155D01*
X125342000Y-133363000D01*
X113356197Y-133363000D01*
X113322358Y-133260880D01*
X113322356Y-133260875D01*
X113230315Y-133111654D01*
X113106345Y-132987684D01*
X112957124Y-132895643D01*
X112957119Y-132895641D01*
X112865271Y-132865206D01*
X112807826Y-132825433D01*
X112781003Y-132760918D01*
X112793318Y-132692142D01*
X112840861Y-132640942D01*
X112904275Y-132623500D01*
X119993657Y-132623500D01*
X120009277Y-132625224D01*
X120009304Y-132624939D01*
X120017060Y-132625671D01*
X120017067Y-132625673D01*
X120086214Y-132623500D01*
X120115750Y-132623500D01*
X120122628Y-132622630D01*
X120128441Y-132622172D01*
X120175027Y-132620709D01*
X120194269Y-132615117D01*
X120213312Y-132611174D01*
X120233192Y-132608664D01*
X120276522Y-132591507D01*
X120282046Y-132589617D01*
X120285796Y-132588527D01*
X120326790Y-132576618D01*
X120344029Y-132566422D01*
X120361503Y-132557862D01*
X120380127Y-132550488D01*
X120380127Y-132550487D01*
X120380132Y-132550486D01*
X120417849Y-132523082D01*
X120422705Y-132519892D01*
X120462820Y-132496170D01*
X120476989Y-132481999D01*
X120491779Y-132469368D01*
X120507987Y-132457594D01*
X120537699Y-132421676D01*
X120541612Y-132417376D01*
X123148118Y-129810870D01*
X125341500Y-129810870D01*
X125341501Y-129810876D01*
X125347908Y-129870483D01*
X125398202Y-130005328D01*
X125398206Y-130005335D01*
X125484452Y-130120544D01*
X125484455Y-130120547D01*
X125599664Y-130206793D01*
X125599671Y-130206797D01*
X125734517Y-130257091D01*
X125734516Y-130257091D01*
X125741444Y-130257835D01*
X125794127Y-130263500D01*
X127439872Y-130263499D01*
X127499483Y-130257091D01*
X127634331Y-130206796D01*
X127692819Y-130163011D01*
X127725920Y-130138233D01*
X127791385Y-130113816D01*
X127800231Y-130113500D01*
X133383769Y-130113500D01*
X133450808Y-130133185D01*
X133458080Y-130138233D01*
X133549668Y-130206795D01*
X133549671Y-130206797D01*
X133684517Y-130257091D01*
X133684516Y-130257091D01*
X133691444Y-130257835D01*
X133744127Y-130263500D01*
X135389872Y-130263499D01*
X135449483Y-130257091D01*
X135584331Y-130206796D01*
X135699546Y-130120546D01*
X135785796Y-130005331D01*
X135789960Y-129994165D01*
X135831829Y-129938234D01*
X135897293Y-129913816D01*
X135906141Y-129913500D01*
X136468060Y-129913500D01*
X136535099Y-129933185D01*
X136555741Y-129949819D01*
X138476262Y-131870340D01*
X138506512Y-131919703D01*
X138527818Y-131985277D01*
X138527821Y-131985284D01*
X138622467Y-132149216D01*
X138701722Y-132237237D01*
X138749129Y-132289888D01*
X138902265Y-132401148D01*
X138902270Y-132401151D01*
X139075192Y-132478142D01*
X139075197Y-132478144D01*
X139260354Y-132517500D01*
X139260355Y-132517500D01*
X139449644Y-132517500D01*
X139449646Y-132517500D01*
X139634803Y-132478144D01*
X139807730Y-132401151D01*
X139960871Y-132289888D01*
X140087533Y-132149216D01*
X140182179Y-131985284D01*
X140240674Y-131805256D01*
X140260460Y-131617000D01*
X140240674Y-131428744D01*
X140182179Y-131248716D01*
X140087533Y-131084784D01*
X139960871Y-130944112D01*
X139960870Y-130944111D01*
X139807734Y-130832851D01*
X139807729Y-130832848D01*
X139639809Y-130758084D01*
X139602564Y-130732486D01*
X137353262Y-128483184D01*
X137353259Y-128483182D01*
X137317904Y-128460966D01*
X137312229Y-128456940D01*
X137279589Y-128430910D01*
X137241959Y-128412787D01*
X137235872Y-128409422D01*
X137200525Y-128387212D01*
X137161114Y-128373421D01*
X137154688Y-128370759D01*
X137117061Y-128352639D01*
X137076345Y-128343345D01*
X137069662Y-128341420D01*
X137030259Y-128327632D01*
X136988763Y-128322955D01*
X136981908Y-128321791D01*
X136941200Y-128312501D01*
X136941196Y-128312500D01*
X136941194Y-128312500D01*
X136941191Y-128312500D01*
X135906141Y-128312500D01*
X135839102Y-128292815D01*
X135793347Y-128240011D01*
X135789969Y-128231859D01*
X135785796Y-128220669D01*
X135785793Y-128220665D01*
X135785793Y-128220664D01*
X135699547Y-128105455D01*
X135699544Y-128105452D01*
X135584335Y-128019206D01*
X135584328Y-128019202D01*
X135449482Y-127968908D01*
X135449483Y-127968908D01*
X135389883Y-127962501D01*
X135389881Y-127962500D01*
X135389873Y-127962500D01*
X135389864Y-127962500D01*
X133744129Y-127962500D01*
X133744123Y-127962501D01*
X133684516Y-127968908D01*
X133549671Y-128019202D01*
X133549668Y-128019204D01*
X133458080Y-128087767D01*
X133392615Y-128112184D01*
X133383769Y-128112500D01*
X127800231Y-128112500D01*
X127733192Y-128092815D01*
X127725920Y-128087767D01*
X127634331Y-128019204D01*
X127634328Y-128019202D01*
X127499482Y-127968908D01*
X127499483Y-127968908D01*
X127439883Y-127962501D01*
X127439881Y-127962500D01*
X127439873Y-127962500D01*
X127439864Y-127962500D01*
X125794129Y-127962500D01*
X125794123Y-127962501D01*
X125734516Y-127968908D01*
X125599671Y-128019202D01*
X125599664Y-128019206D01*
X125484455Y-128105452D01*
X125484452Y-128105455D01*
X125398206Y-128220664D01*
X125398202Y-128220671D01*
X125347908Y-128355517D01*
X125341501Y-128415116D01*
X125341500Y-128415135D01*
X125341500Y-129810870D01*
X123148118Y-129810870D01*
X126731988Y-126227001D01*
X137268390Y-126227001D01*
X137288804Y-126512433D01*
X137349628Y-126792037D01*
X137449635Y-127060166D01*
X137586770Y-127311309D01*
X137586775Y-127311317D01*
X137758254Y-127540387D01*
X137758270Y-127540405D01*
X137960594Y-127742729D01*
X137960612Y-127742745D01*
X138189682Y-127914224D01*
X138189690Y-127914229D01*
X138440833Y-128051364D01*
X138440832Y-128051364D01*
X138440836Y-128051365D01*
X138440839Y-128051367D01*
X138708954Y-128151369D01*
X138708960Y-128151370D01*
X138708962Y-128151371D01*
X138988566Y-128212195D01*
X138988568Y-128212195D01*
X138988572Y-128212196D01*
X139242220Y-128230337D01*
X139273999Y-128232610D01*
X139273999Y-128232609D01*
X139274000Y-128232610D01*
X139438822Y-128220821D01*
X139507095Y-128235673D01*
X139535350Y-128256824D01*
X143092642Y-131814116D01*
X143097279Y-131819304D01*
X143121492Y-131849666D01*
X143172967Y-131894639D01*
X143176000Y-131897474D01*
X143184470Y-131905944D01*
X143210312Y-131927519D01*
X143216814Y-131932947D01*
X143291004Y-131997765D01*
X143294750Y-132000003D01*
X143310624Y-132011265D01*
X143313981Y-132014068D01*
X143399659Y-132062683D01*
X143484236Y-132113215D01*
X143488327Y-132114750D01*
X143505955Y-132122996D01*
X143509755Y-132125153D01*
X143578523Y-132149216D01*
X143602746Y-132157692D01*
X143691930Y-132191164D01*
X143694976Y-132192307D01*
X143697565Y-132192776D01*
X143699274Y-132193087D01*
X143718089Y-132198053D01*
X143722217Y-132199498D01*
X143819527Y-132214910D01*
X143916450Y-132232500D01*
X143916453Y-132232500D01*
X143920828Y-132232500D01*
X143940231Y-132234028D01*
X143941938Y-132234297D01*
X143944540Y-132234710D01*
X144043002Y-132232500D01*
X155527293Y-132232500D01*
X155534231Y-132232889D01*
X155572827Y-132237238D01*
X155572829Y-132237237D01*
X155572830Y-132237238D01*
X155590586Y-132236040D01*
X155641032Y-132232639D01*
X155645188Y-132232500D01*
X155657147Y-132232500D01*
X155657155Y-132232500D01*
X155699123Y-132228722D01*
X155797412Y-132222096D01*
X155801646Y-132221028D01*
X155820841Y-132217767D01*
X155825188Y-132217377D01*
X155920165Y-132191164D01*
X156015683Y-132167096D01*
X156019655Y-132165291D01*
X156037962Y-132158654D01*
X156042170Y-132157493D01*
X156130935Y-132114746D01*
X156220626Y-132074007D01*
X156224220Y-132071516D01*
X156241035Y-132061724D01*
X156244973Y-132059829D01*
X156324676Y-132001921D01*
X156405654Y-131945820D01*
X156408743Y-131942730D01*
X156423545Y-131930088D01*
X156427078Y-131927522D01*
X156495153Y-131856320D01*
X160094650Y-128256822D01*
X160155971Y-128223339D01*
X160191175Y-128220821D01*
X160355999Y-128232610D01*
X160356000Y-128232610D01*
X160641428Y-128212196D01*
X160921046Y-128151369D01*
X161189161Y-128051367D01*
X161440315Y-127914226D01*
X161669395Y-127742739D01*
X161871739Y-127540395D01*
X162043226Y-127311315D01*
X162180367Y-127060161D01*
X162280369Y-126792046D01*
X162341196Y-126512428D01*
X162361610Y-126227000D01*
X162341196Y-125941572D01*
X162280369Y-125661954D01*
X162180367Y-125393839D01*
X162043226Y-125142685D01*
X162043224Y-125142682D01*
X161871745Y-124913612D01*
X161871729Y-124913594D01*
X161669405Y-124711270D01*
X161669387Y-124711254D01*
X161440317Y-124539775D01*
X161440309Y-124539770D01*
X161189166Y-124402635D01*
X161189167Y-124402635D01*
X161081915Y-124362632D01*
X160921046Y-124302631D01*
X160921043Y-124302630D01*
X160921037Y-124302628D01*
X160641433Y-124241804D01*
X160356001Y-124221390D01*
X160355999Y-124221390D01*
X160070566Y-124241804D01*
X159790962Y-124302628D01*
X159522833Y-124402635D01*
X159271690Y-124539770D01*
X159271682Y-124539775D01*
X159042612Y-124711254D01*
X159042594Y-124711270D01*
X158840270Y-124913594D01*
X158840254Y-124913612D01*
X158668775Y-125142682D01*
X158668770Y-125142690D01*
X158531635Y-125393833D01*
X158431628Y-125661962D01*
X158370804Y-125941566D01*
X158350390Y-126226999D01*
X158350390Y-126227000D01*
X158362178Y-126391822D01*
X158347326Y-126460095D01*
X158326175Y-126488349D01*
X155119345Y-129695181D01*
X155058022Y-129728666D01*
X155031664Y-129731500D01*
X144598336Y-129731500D01*
X144531297Y-129711815D01*
X144510655Y-129695181D01*
X141303824Y-126488350D01*
X141297626Y-126477000D01*
X146815000Y-126477000D01*
X146815000Y-128774844D01*
X146821401Y-128834372D01*
X146821403Y-128834379D01*
X146871645Y-128969086D01*
X146871649Y-128969093D01*
X146957809Y-129084187D01*
X146957812Y-129084190D01*
X147072906Y-129170350D01*
X147072913Y-129170354D01*
X147207620Y-129220596D01*
X147207627Y-129220598D01*
X147267155Y-129226999D01*
X147267172Y-129227000D01*
X149565000Y-129227000D01*
X149565000Y-126477000D01*
X150065000Y-126477000D01*
X150065000Y-129227000D01*
X152362828Y-129227000D01*
X152362844Y-129226999D01*
X152422372Y-129220598D01*
X152422379Y-129220596D01*
X152557086Y-129170354D01*
X152557093Y-129170350D01*
X152672187Y-129084190D01*
X152672190Y-129084187D01*
X152758350Y-128969093D01*
X152758354Y-128969086D01*
X152808596Y-128834379D01*
X152808598Y-128834372D01*
X152814999Y-128774844D01*
X152815000Y-128774827D01*
X152815000Y-126477000D01*
X150065000Y-126477000D01*
X149565000Y-126477000D01*
X146815000Y-126477000D01*
X141297626Y-126477000D01*
X141270339Y-126427027D01*
X141267821Y-126391822D01*
X141279610Y-126226999D01*
X141277337Y-126195220D01*
X141259196Y-125941572D01*
X141198369Y-125661954D01*
X141098367Y-125393839D01*
X140961226Y-125142685D01*
X140961224Y-125142682D01*
X140789745Y-124913612D01*
X140789729Y-124913594D01*
X140587405Y-124711270D01*
X140587387Y-124711254D01*
X140358317Y-124539775D01*
X140358309Y-124539770D01*
X140107166Y-124402635D01*
X140107167Y-124402635D01*
X139999915Y-124362632D01*
X139839046Y-124302631D01*
X139839043Y-124302630D01*
X139839037Y-124302628D01*
X139559433Y-124241804D01*
X139274001Y-124221390D01*
X139273999Y-124221390D01*
X138988566Y-124241804D01*
X138708962Y-124302628D01*
X138440833Y-124402635D01*
X138189690Y-124539770D01*
X138189682Y-124539775D01*
X137960612Y-124711254D01*
X137960594Y-124711270D01*
X137758270Y-124913594D01*
X137758254Y-124913612D01*
X137586775Y-125142682D01*
X137586770Y-125142690D01*
X137449635Y-125393833D01*
X137349628Y-125661962D01*
X137288804Y-125941566D01*
X137268390Y-126226998D01*
X137268390Y-126227001D01*
X126731988Y-126227001D01*
X130866990Y-122092000D01*
X146704540Y-122092000D01*
X146724326Y-122280256D01*
X146724327Y-122280259D01*
X146782818Y-122460277D01*
X146782821Y-122460284D01*
X146877467Y-122624216D01*
X146991817Y-122751214D01*
X147004129Y-122764888D01*
X147157265Y-122876148D01*
X147157270Y-122876151D01*
X147330192Y-122953142D01*
X147330197Y-122953144D01*
X147464591Y-122981710D01*
X147526073Y-123014902D01*
X147559849Y-123076065D01*
X147555197Y-123145780D01*
X147513592Y-123201912D01*
X147448245Y-123226641D01*
X147438810Y-123227000D01*
X147267155Y-123227000D01*
X147207627Y-123233401D01*
X147207620Y-123233403D01*
X147072913Y-123283645D01*
X147072906Y-123283649D01*
X146957812Y-123369809D01*
X146957809Y-123369812D01*
X146871649Y-123484906D01*
X146871645Y-123484913D01*
X146821403Y-123619620D01*
X146821401Y-123619627D01*
X146815000Y-123679155D01*
X146815000Y-125977000D01*
X149565000Y-125977000D01*
X149565000Y-123227000D01*
X147781190Y-123227000D01*
X147714151Y-123207315D01*
X147668396Y-123154511D01*
X147658452Y-123085353D01*
X147687477Y-123021797D01*
X147746255Y-122984023D01*
X147755409Y-122981710D01*
X147889803Y-122953144D01*
X148062730Y-122876151D01*
X148215871Y-122764888D01*
X148342533Y-122624216D01*
X148437179Y-122460284D01*
X148495674Y-122280256D01*
X148515460Y-122092000D01*
X148495674Y-121903744D01*
X148437179Y-121723716D01*
X148342533Y-121559784D01*
X148324982Y-121540292D01*
X148267350Y-121476284D01*
X148237120Y-121413292D01*
X148235500Y-121393312D01*
X148235500Y-120504687D01*
X148255185Y-120437648D01*
X148267350Y-120421715D01*
X148297949Y-120387731D01*
X148342533Y-120338216D01*
X148437179Y-120174284D01*
X148495674Y-119994256D01*
X148515460Y-119806000D01*
X148495674Y-119617744D01*
X148437179Y-119437716D01*
X148342533Y-119273784D01*
X148215871Y-119133112D01*
X148170335Y-119100028D01*
X148062734Y-119021851D01*
X148062729Y-119021848D01*
X147889807Y-118944857D01*
X147889802Y-118944855D01*
X147720303Y-118908828D01*
X147704646Y-118905500D01*
X147515354Y-118905500D01*
X147499697Y-118908828D01*
X147330197Y-118944855D01*
X147330192Y-118944857D01*
X147157270Y-119021848D01*
X147157265Y-119021851D01*
X147004129Y-119133111D01*
X146877466Y-119273785D01*
X146782821Y-119437715D01*
X146782818Y-119437722D01*
X146724327Y-119617740D01*
X146724326Y-119617744D01*
X146704540Y-119806000D01*
X146724326Y-119994256D01*
X146724327Y-119994259D01*
X146782818Y-120174277D01*
X146782821Y-120174284D01*
X146877467Y-120338216D01*
X146907504Y-120371575D01*
X146952650Y-120421715D01*
X146982880Y-120484706D01*
X146984500Y-120504687D01*
X146984500Y-121393312D01*
X146964815Y-121460351D01*
X146952650Y-121476284D01*
X146877466Y-121559784D01*
X146782821Y-121723715D01*
X146782818Y-121723722D01*
X146724327Y-121903740D01*
X146724326Y-121903744D01*
X146704540Y-122092000D01*
X130866990Y-122092000D01*
X138722172Y-114236819D01*
X138783495Y-114203334D01*
X138809853Y-114200500D01*
X147480181Y-114200500D01*
X151686500Y-114200500D01*
X151753539Y-114220185D01*
X151799294Y-114272989D01*
X151810500Y-114324500D01*
X151810500Y-121520312D01*
X151790815Y-121587351D01*
X151778650Y-121603284D01*
X151703466Y-121686784D01*
X151608821Y-121850715D01*
X151608818Y-121850722D01*
X151550327Y-122030740D01*
X151550326Y-122030744D01*
X151530540Y-122219000D01*
X151550326Y-122407256D01*
X151550327Y-122407259D01*
X151608818Y-122587277D01*
X151608821Y-122587284D01*
X151703467Y-122751216D01*
X151815957Y-122876148D01*
X151830129Y-122891888D01*
X151982624Y-123002682D01*
X152025290Y-123058012D01*
X152031269Y-123127625D01*
X151998663Y-123189420D01*
X151937825Y-123223777D01*
X151909739Y-123227000D01*
X150065000Y-123227000D01*
X150065000Y-125977000D01*
X152815000Y-125977000D01*
X152815000Y-123679172D01*
X152814999Y-123679155D01*
X152808598Y-123619627D01*
X152808596Y-123619620D01*
X152758354Y-123484913D01*
X152758350Y-123484906D01*
X152672190Y-123369812D01*
X152599197Y-123315169D01*
X152557327Y-123259235D01*
X152552343Y-123189544D01*
X152585829Y-123128221D01*
X152647152Y-123094736D01*
X152715803Y-123080144D01*
X152888730Y-123003151D01*
X153041871Y-122891888D01*
X153168533Y-122751216D01*
X153263179Y-122587284D01*
X153321674Y-122407256D01*
X153341460Y-122219000D01*
X153321674Y-122030744D01*
X153263179Y-121850716D01*
X153168533Y-121686784D01*
X153093350Y-121603284D01*
X153063120Y-121540292D01*
X153061500Y-121520312D01*
X153061500Y-114324500D01*
X153081185Y-114257461D01*
X153133989Y-114211706D01*
X153185500Y-114200500D01*
X153880981Y-114200500D01*
X155669252Y-114200500D01*
X155736291Y-114220185D01*
X155761400Y-114241526D01*
X155767126Y-114247885D01*
X155767130Y-114247889D01*
X155920265Y-114359148D01*
X155920270Y-114359151D01*
X156093192Y-114436142D01*
X156093197Y-114436144D01*
X156278354Y-114475500D01*
X156278355Y-114475500D01*
X156467644Y-114475500D01*
X156467646Y-114475500D01*
X156652803Y-114436144D01*
X156825730Y-114359151D01*
X156978871Y-114247888D01*
X156981788Y-114244647D01*
X156984600Y-114241526D01*
X157044087Y-114204879D01*
X157076748Y-114200500D01*
X172414362Y-114200500D01*
X172481401Y-114220185D01*
X172519899Y-114259401D01*
X172587288Y-114368656D01*
X172587289Y-114368657D01*
X172711346Y-114492714D01*
X172714182Y-114494463D01*
X172715717Y-114496170D01*
X172717011Y-114497193D01*
X172716836Y-114497414D01*
X172760905Y-114546411D01*
X172772126Y-114615374D01*
X172744282Y-114679456D01*
X172714182Y-114705537D01*
X172711346Y-114707285D01*
X172587289Y-114831342D01*
X172495187Y-114980663D01*
X172495186Y-114980666D01*
X172440001Y-115147203D01*
X172440001Y-115147204D01*
X172440000Y-115147204D01*
X172429500Y-115249983D01*
X172429500Y-116000001D01*
X172429501Y-116000019D01*
X172440000Y-116102796D01*
X172440001Y-116102799D01*
X172495185Y-116269331D01*
X172495186Y-116269334D01*
X172587288Y-116418656D01*
X172711344Y-116542712D01*
X172770596Y-116579258D01*
X172817321Y-116631204D01*
X172829500Y-116684797D01*
X172829500Y-118611191D01*
X172829501Y-118611200D01*
X172838791Y-118651908D01*
X172839955Y-118658763D01*
X172844632Y-118700259D01*
X172858420Y-118739662D01*
X172860345Y-118746345D01*
X172869639Y-118787061D01*
X172887759Y-118824688D01*
X172890421Y-118831114D01*
X172904212Y-118870525D01*
X172926422Y-118905872D01*
X172929787Y-118911959D01*
X172947910Y-118949589D01*
X172973940Y-118982229D01*
X172977966Y-118987904D01*
X173000182Y-119023259D01*
X173000184Y-119023262D01*
X174206740Y-120229818D01*
X174219790Y-120238017D01*
X174242104Y-120252038D01*
X174247757Y-120256049D01*
X174280413Y-120282091D01*
X174318044Y-120300213D01*
X174324106Y-120303563D01*
X174359478Y-120325789D01*
X174398898Y-120339583D01*
X174405326Y-120342245D01*
X174442939Y-120360359D01*
X174483655Y-120369652D01*
X174490324Y-120371574D01*
X174529745Y-120385368D01*
X174550727Y-120387732D01*
X174615139Y-120414796D01*
X174642383Y-120445855D01*
X174687285Y-120518652D01*
X174687288Y-120518656D01*
X174811344Y-120642712D01*
X174960666Y-120734814D01*
X175127203Y-120789999D01*
X175229991Y-120800500D01*
X176030008Y-120800499D01*
X176030016Y-120800498D01*
X176030019Y-120800498D01*
X176086302Y-120794748D01*
X176132797Y-120789999D01*
X176299334Y-120734814D01*
X176448656Y-120642712D01*
X176542675Y-120548692D01*
X176603994Y-120515210D01*
X176673686Y-120520194D01*
X176718034Y-120548695D01*
X176811654Y-120642315D01*
X176960875Y-120734356D01*
X176960880Y-120734358D01*
X177127302Y-120789505D01*
X177127309Y-120789506D01*
X177230019Y-120799999D01*
X177379999Y-120799999D01*
X177380000Y-120799998D01*
X177380000Y-119850000D01*
X177880000Y-119850000D01*
X177880000Y-120799999D01*
X178029972Y-120799999D01*
X178029986Y-120799998D01*
X178132697Y-120789505D01*
X178299119Y-120734358D01*
X178299124Y-120734356D01*
X178448345Y-120642315D01*
X178572315Y-120518345D01*
X178664356Y-120369124D01*
X178664358Y-120369119D01*
X178719505Y-120202697D01*
X178719506Y-120202690D01*
X178729999Y-120099986D01*
X178730000Y-120099973D01*
X178730000Y-119850000D01*
X177880000Y-119850000D01*
X177380000Y-119850000D01*
X177380000Y-118400000D01*
X177880000Y-118400000D01*
X177880000Y-119350000D01*
X178729999Y-119350000D01*
X178729999Y-119100028D01*
X178729998Y-119100013D01*
X178719505Y-118997302D01*
X178664358Y-118830880D01*
X178664356Y-118830875D01*
X178572315Y-118681654D01*
X178448345Y-118557684D01*
X178299124Y-118465643D01*
X178299119Y-118465641D01*
X178132697Y-118410494D01*
X178132690Y-118410493D01*
X178029986Y-118400000D01*
X177880000Y-118400000D01*
X177380000Y-118400000D01*
X177230027Y-118400000D01*
X177230012Y-118400001D01*
X177127302Y-118410494D01*
X176960880Y-118465641D01*
X176960875Y-118465643D01*
X176811657Y-118557682D01*
X176718034Y-118651305D01*
X176656710Y-118684789D01*
X176587019Y-118679805D01*
X176542672Y-118651304D01*
X176448657Y-118557289D01*
X176448656Y-118557288D01*
X176299334Y-118465186D01*
X176132797Y-118410001D01*
X176132795Y-118410000D01*
X176030010Y-118399500D01*
X175229998Y-118399500D01*
X175229980Y-118399501D01*
X175127203Y-118410000D01*
X175127200Y-118410001D01*
X174960668Y-118465185D01*
X174960659Y-118465189D01*
X174886765Y-118510768D01*
X174819373Y-118529208D01*
X174752709Y-118508285D01*
X174733988Y-118492910D01*
X174466819Y-118225741D01*
X174433334Y-118164418D01*
X174430500Y-118138060D01*
X174430500Y-116684797D01*
X174450185Y-116617758D01*
X174489403Y-116579258D01*
X174548656Y-116542712D01*
X174672712Y-116418656D01*
X174764814Y-116269334D01*
X174819999Y-116102797D01*
X174830500Y-116000009D01*
X174830499Y-115249992D01*
X174819999Y-115147203D01*
X174764814Y-114980666D01*
X174672712Y-114831344D01*
X174548656Y-114707288D01*
X174545819Y-114705538D01*
X174544283Y-114703830D01*
X174542989Y-114702807D01*
X174543163Y-114702585D01*
X174499096Y-114653594D01*
X174487872Y-114584632D01*
X174515713Y-114520549D01*
X174545817Y-114494462D01*
X174548656Y-114492712D01*
X174672712Y-114368656D01*
X174764814Y-114219334D01*
X174819999Y-114052797D01*
X174830500Y-113950009D01*
X174830499Y-113199992D01*
X174825967Y-113155631D01*
X174819999Y-113097203D01*
X174819998Y-113097200D01*
X174764814Y-112930666D01*
X174672712Y-112781344D01*
X174548656Y-112657288D01*
X174399334Y-112565186D01*
X174232797Y-112510001D01*
X174232795Y-112510000D01*
X174130010Y-112499500D01*
X173129998Y-112499500D01*
X173129980Y-112499501D01*
X173027203Y-112510000D01*
X173027200Y-112510001D01*
X172860668Y-112565185D01*
X172860663Y-112565187D01*
X172711342Y-112657289D01*
X172587289Y-112781342D01*
X172587288Y-112781344D01*
X172528281Y-112877011D01*
X172519901Y-112890597D01*
X172467953Y-112937321D01*
X172414362Y-112949500D01*
X157122500Y-112949500D01*
X157055461Y-112929815D01*
X157009706Y-112877011D01*
X156998500Y-112825500D01*
X156998500Y-100330742D01*
X157000224Y-100315122D01*
X156999939Y-100315096D01*
X157000671Y-100307340D01*
X157000673Y-100307333D01*
X156998500Y-100238185D01*
X156998500Y-100208650D01*
X156997631Y-100201772D01*
X156997172Y-100195943D01*
X156995709Y-100149372D01*
X156990122Y-100130144D01*
X156986174Y-100111084D01*
X156983663Y-100091204D01*
X156966512Y-100047887D01*
X156964619Y-100042358D01*
X156951618Y-99997609D01*
X156951616Y-99997606D01*
X156941423Y-99980371D01*
X156932861Y-99962894D01*
X156925487Y-99944270D01*
X156925486Y-99944268D01*
X156898079Y-99906545D01*
X156894888Y-99901686D01*
X156871172Y-99861583D01*
X156871165Y-99861574D01*
X156857006Y-99847415D01*
X156844368Y-99832619D01*
X156832594Y-99816413D01*
X156796688Y-99786709D01*
X156792376Y-99782786D01*
X156044219Y-99034628D01*
X156010734Y-98973305D01*
X156007900Y-98946947D01*
X156007900Y-97190337D01*
X156027585Y-97123298D01*
X156080389Y-97077543D01*
X156149547Y-97067599D01*
X156157680Y-97069047D01*
X156165189Y-97070643D01*
X156202154Y-97078500D01*
X156202155Y-97078500D01*
X156391444Y-97078500D01*
X156391446Y-97078500D01*
X156576603Y-97039144D01*
X156749530Y-96962151D01*
X156902671Y-96850888D01*
X157029333Y-96710216D01*
X157123979Y-96546284D01*
X157182474Y-96366256D01*
X157200121Y-96198345D01*
X157226705Y-96133732D01*
X157235752Y-96123636D01*
X157391786Y-95967602D01*
X157404048Y-95957780D01*
X157403865Y-95957559D01*
X157409867Y-95952592D01*
X157409877Y-95952586D01*
X157457241Y-95902148D01*
X157478120Y-95881270D01*
X157482373Y-95875786D01*
X157486150Y-95871363D01*
X157518062Y-95837382D01*
X157527714Y-95819823D01*
X157538389Y-95803572D01*
X157550674Y-95787736D01*
X157569186Y-95744952D01*
X157571742Y-95739735D01*
X157594197Y-95698892D01*
X157599180Y-95679480D01*
X157605477Y-95661091D01*
X157613438Y-95642695D01*
X157620729Y-95596653D01*
X157621908Y-95590962D01*
X157633500Y-95545819D01*
X157633500Y-95525783D01*
X157635027Y-95506382D01*
X157635171Y-95505474D01*
X157638160Y-95486604D01*
X157633775Y-95440215D01*
X157633500Y-95434377D01*
X157633500Y-87299652D01*
X157653185Y-87232613D01*
X157669819Y-87211971D01*
X160644972Y-84236819D01*
X160706295Y-84203334D01*
X160732653Y-84200500D01*
X165414362Y-84200500D01*
X165481401Y-84220185D01*
X165519901Y-84259403D01*
X165587289Y-84368657D01*
X165711346Y-84492714D01*
X165714182Y-84494463D01*
X165715717Y-84496170D01*
X165717011Y-84497193D01*
X165716836Y-84497414D01*
X165760905Y-84546411D01*
X165772126Y-84615374D01*
X165744282Y-84679456D01*
X165714182Y-84705537D01*
X165711346Y-84707285D01*
X165587289Y-84831342D01*
X165495187Y-84980663D01*
X165495186Y-84980666D01*
X165440001Y-85147203D01*
X165440001Y-85147204D01*
X165440000Y-85147204D01*
X165429500Y-85249983D01*
X165429500Y-86000001D01*
X165429501Y-86000019D01*
X165440000Y-86102796D01*
X165440001Y-86102799D01*
X165495185Y-86269331D01*
X165495186Y-86269334D01*
X165587288Y-86418656D01*
X165711344Y-86542712D01*
X165770596Y-86579258D01*
X165817321Y-86631204D01*
X165829500Y-86684797D01*
X165829500Y-87227191D01*
X165829501Y-87227200D01*
X165838791Y-87267908D01*
X165839955Y-87274763D01*
X165844632Y-87316259D01*
X165858420Y-87355662D01*
X165860345Y-87362345D01*
X165869639Y-87403061D01*
X165887759Y-87440688D01*
X165890421Y-87447114D01*
X165904212Y-87486525D01*
X165926422Y-87521872D01*
X165929787Y-87527959D01*
X165947910Y-87565589D01*
X165973940Y-87598229D01*
X165977966Y-87603904D01*
X166000182Y-87639259D01*
X166000184Y-87639262D01*
X166733859Y-88372937D01*
X166767344Y-88434260D01*
X166762360Y-88503952D01*
X166727964Y-88551194D01*
X166728951Y-88552181D01*
X166599789Y-88681342D01*
X166507687Y-88830663D01*
X166507685Y-88830668D01*
X166482326Y-88907197D01*
X166452501Y-88997203D01*
X166452501Y-88997204D01*
X166452500Y-88997204D01*
X166442000Y-89099983D01*
X166442000Y-90100001D01*
X166442001Y-90100019D01*
X166452500Y-90202796D01*
X166452501Y-90202799D01*
X166501991Y-90352148D01*
X166507686Y-90369334D01*
X166599788Y-90518656D01*
X166723844Y-90642712D01*
X166873166Y-90734814D01*
X167039703Y-90789999D01*
X167142491Y-90800500D01*
X167942508Y-90800499D01*
X167942516Y-90800498D01*
X167942519Y-90800498D01*
X168019071Y-90792678D01*
X168045297Y-90789999D01*
X168211834Y-90734814D01*
X168361156Y-90642712D01*
X168455175Y-90548692D01*
X168516494Y-90515210D01*
X168586186Y-90520194D01*
X168630534Y-90548695D01*
X168724154Y-90642315D01*
X168873375Y-90734356D01*
X168873380Y-90734358D01*
X169039802Y-90789505D01*
X169039809Y-90789506D01*
X169142519Y-90799999D01*
X169292499Y-90799999D01*
X169292500Y-90799998D01*
X169292500Y-89850000D01*
X169792500Y-89850000D01*
X169792500Y-90799999D01*
X169942472Y-90799999D01*
X169942486Y-90799998D01*
X170045197Y-90789505D01*
X170211619Y-90734358D01*
X170211624Y-90734356D01*
X170360845Y-90642315D01*
X170484815Y-90518345D01*
X170576856Y-90369124D01*
X170576858Y-90369119D01*
X170632005Y-90202697D01*
X170632006Y-90202690D01*
X170642499Y-90099986D01*
X170642500Y-90099973D01*
X170642500Y-89850000D01*
X169792500Y-89850000D01*
X169292500Y-89850000D01*
X169292500Y-88400000D01*
X169792500Y-88400000D01*
X169792500Y-89350000D01*
X170642499Y-89350000D01*
X170642499Y-89100028D01*
X170642498Y-89100013D01*
X170632005Y-88997302D01*
X170576858Y-88830880D01*
X170576856Y-88830875D01*
X170484815Y-88681654D01*
X170360845Y-88557684D01*
X170211624Y-88465643D01*
X170211619Y-88465641D01*
X170045197Y-88410494D01*
X170045190Y-88410493D01*
X169942486Y-88400000D01*
X169792500Y-88400000D01*
X169292500Y-88400000D01*
X169142527Y-88400000D01*
X169142512Y-88400001D01*
X169039802Y-88410494D01*
X168873380Y-88465641D01*
X168873375Y-88465643D01*
X168724154Y-88557684D01*
X168642181Y-88639658D01*
X168580858Y-88673143D01*
X168511166Y-88668159D01*
X168455233Y-88626287D01*
X168430816Y-88560823D01*
X168430500Y-88551977D01*
X168430500Y-88046807D01*
X168430500Y-88046806D01*
X168421207Y-88006093D01*
X168420042Y-87999233D01*
X168415368Y-87957745D01*
X168415367Y-87957742D01*
X168401576Y-87918328D01*
X168399650Y-87911641D01*
X168390360Y-87870939D01*
X168372238Y-87833307D01*
X168369583Y-87826899D01*
X168355789Y-87787478D01*
X168333574Y-87752123D01*
X168330208Y-87746033D01*
X168312092Y-87708415D01*
X168312090Y-87708411D01*
X168286060Y-87675770D01*
X168282033Y-87670096D01*
X168259816Y-87634738D01*
X167466819Y-86841741D01*
X167433334Y-86780418D01*
X167430500Y-86754060D01*
X167430500Y-86684797D01*
X167450185Y-86617758D01*
X167489403Y-86579258D01*
X167548656Y-86542712D01*
X167672712Y-86418656D01*
X167764814Y-86269334D01*
X167819999Y-86102797D01*
X167830500Y-86000009D01*
X167830499Y-85249992D01*
X167819999Y-85147203D01*
X167764814Y-84980666D01*
X167672712Y-84831344D01*
X167548656Y-84707288D01*
X167545819Y-84705538D01*
X167544283Y-84703830D01*
X167542989Y-84702807D01*
X167543163Y-84702585D01*
X167499096Y-84653594D01*
X167487872Y-84584632D01*
X167515713Y-84520549D01*
X167545817Y-84494462D01*
X167548656Y-84492712D01*
X167672712Y-84368656D01*
X167764814Y-84219334D01*
X167819999Y-84052797D01*
X167830500Y-83950009D01*
X167830499Y-83199992D01*
X167825967Y-83155631D01*
X167819999Y-83097203D01*
X167819998Y-83097200D01*
X167813248Y-83076829D01*
X167764814Y-82930666D01*
X167672712Y-82781344D01*
X167548656Y-82657288D01*
X167399334Y-82565186D01*
X167232797Y-82510001D01*
X167232795Y-82510000D01*
X167130010Y-82499500D01*
X166129998Y-82499500D01*
X166129980Y-82499501D01*
X166027203Y-82510000D01*
X166027200Y-82510001D01*
X165860668Y-82565185D01*
X165860663Y-82565187D01*
X165711342Y-82657289D01*
X165587289Y-82781342D01*
X165519901Y-82890597D01*
X165467953Y-82937321D01*
X165414362Y-82949500D01*
X160504943Y-82949500D01*
X160489322Y-82947775D01*
X160489296Y-82948061D01*
X160481534Y-82947327D01*
X160481533Y-82947327D01*
X160412386Y-82949500D01*
X160382849Y-82949500D01*
X160375966Y-82950369D01*
X160370149Y-82950826D01*
X160323573Y-82952290D01*
X160304329Y-82957881D01*
X160285279Y-82961825D01*
X160265411Y-82964334D01*
X160222084Y-82981488D01*
X160216558Y-82983379D01*
X160171814Y-82996379D01*
X160171810Y-82996381D01*
X160154566Y-83006579D01*
X160137105Y-83015133D01*
X160118474Y-83022510D01*
X160118462Y-83022517D01*
X160080770Y-83049902D01*
X160075887Y-83053109D01*
X160035780Y-83076829D01*
X160021614Y-83090995D01*
X160006824Y-83103627D01*
X159990614Y-83115404D01*
X159990611Y-83115407D01*
X159960910Y-83151309D01*
X159956977Y-83155631D01*
X156752780Y-86359828D01*
X156691457Y-86393313D01*
X156621765Y-86388329D01*
X156577418Y-86359828D01*
X152081819Y-81864228D01*
X152048334Y-81802905D01*
X152045500Y-81776547D01*
X152045500Y-49250451D01*
X152065185Y-49183412D01*
X152081815Y-49162774D01*
X152239840Y-49004749D01*
X152301162Y-48971265D01*
X152370854Y-48976249D01*
X152426787Y-49018121D01*
X152451204Y-49083585D01*
X152445227Y-49131433D01*
X152440000Y-49147205D01*
X152429500Y-49249983D01*
X152429500Y-50000001D01*
X152429501Y-50000019D01*
X152440000Y-50102796D01*
X152440001Y-50102799D01*
X152495185Y-50269331D01*
X152495186Y-50269334D01*
X152587288Y-50418656D01*
X152711344Y-50542712D01*
X152770596Y-50579258D01*
X152817321Y-50631204D01*
X152829500Y-50684797D01*
X152829500Y-51367191D01*
X152829501Y-51367200D01*
X152838791Y-51407908D01*
X152839955Y-51414763D01*
X152844632Y-51456259D01*
X152858420Y-51495662D01*
X152860345Y-51502345D01*
X152869639Y-51543061D01*
X152887759Y-51580688D01*
X152890421Y-51587114D01*
X152904212Y-51626525D01*
X152926422Y-51661872D01*
X152929787Y-51667959D01*
X152947910Y-51705589D01*
X152973940Y-51738229D01*
X152977966Y-51743904D01*
X153000182Y-51779259D01*
X153000184Y-51779262D01*
X153707096Y-52486174D01*
X153740581Y-52547497D01*
X153735597Y-52617189D01*
X153707096Y-52661536D01*
X153687289Y-52681342D01*
X153595187Y-52830663D01*
X153595185Y-52830668D01*
X153595115Y-52830880D01*
X153540001Y-52997203D01*
X153540001Y-52997204D01*
X153540000Y-52997204D01*
X153529500Y-53099983D01*
X153529500Y-54100001D01*
X153529501Y-54100019D01*
X153540000Y-54202796D01*
X153540001Y-54202799D01*
X153595115Y-54369119D01*
X153595186Y-54369334D01*
X153687288Y-54518656D01*
X153811344Y-54642712D01*
X153960666Y-54734814D01*
X154127203Y-54789999D01*
X154229991Y-54800500D01*
X155030008Y-54800499D01*
X155030016Y-54800498D01*
X155030019Y-54800498D01*
X155086302Y-54794748D01*
X155132797Y-54789999D01*
X155299334Y-54734814D01*
X155448656Y-54642712D01*
X155542675Y-54548692D01*
X155603994Y-54515210D01*
X155673686Y-54520194D01*
X155718034Y-54548695D01*
X155811654Y-54642315D01*
X155960875Y-54734356D01*
X155960880Y-54734358D01*
X156127302Y-54789505D01*
X156127309Y-54789506D01*
X156230019Y-54799999D01*
X156379999Y-54799999D01*
X156380000Y-54799998D01*
X156380000Y-53850000D01*
X156880000Y-53850000D01*
X156880000Y-54799999D01*
X157029972Y-54799999D01*
X157029986Y-54799998D01*
X157132697Y-54789505D01*
X157299119Y-54734358D01*
X157299124Y-54734356D01*
X157448345Y-54642315D01*
X157572315Y-54518345D01*
X157664356Y-54369124D01*
X157664358Y-54369119D01*
X157719505Y-54202697D01*
X157719506Y-54202690D01*
X157729999Y-54099986D01*
X157730000Y-54099973D01*
X157730000Y-53850000D01*
X156880000Y-53850000D01*
X156380000Y-53850000D01*
X156380000Y-52400000D01*
X156880000Y-52400000D01*
X156880000Y-53350000D01*
X157729999Y-53350000D01*
X157729999Y-53100028D01*
X157729998Y-53100013D01*
X157719505Y-52997302D01*
X157664358Y-52830880D01*
X157664356Y-52830875D01*
X157572315Y-52681654D01*
X157448345Y-52557684D01*
X157299124Y-52465643D01*
X157299119Y-52465641D01*
X157132697Y-52410494D01*
X157132690Y-52410493D01*
X157029986Y-52400000D01*
X156880000Y-52400000D01*
X156380000Y-52400000D01*
X156230027Y-52400000D01*
X156230012Y-52400001D01*
X156127302Y-52410494D01*
X155960880Y-52465641D01*
X155960875Y-52465643D01*
X155811654Y-52557684D01*
X155729681Y-52639658D01*
X155668358Y-52673143D01*
X155598666Y-52668159D01*
X155542733Y-52626287D01*
X155518316Y-52560823D01*
X155518000Y-52551977D01*
X155518000Y-52274307D01*
X155518000Y-52274306D01*
X155508707Y-52233593D01*
X155507542Y-52226733D01*
X155502868Y-52185245D01*
X155502867Y-52185242D01*
X155489076Y-52145828D01*
X155487150Y-52139141D01*
X155477861Y-52098441D01*
X155459744Y-52060820D01*
X155457081Y-52054391D01*
X155443289Y-52014977D01*
X155432077Y-51997135D01*
X155421067Y-51979612D01*
X155417706Y-51973530D01*
X155399591Y-51935912D01*
X155399590Y-51935911D01*
X155373555Y-51903265D01*
X155369528Y-51897589D01*
X155347316Y-51862238D01*
X155219762Y-51734684D01*
X154466819Y-50981741D01*
X154433334Y-50920418D01*
X154430500Y-50894060D01*
X154430500Y-50684797D01*
X154450185Y-50617758D01*
X154489403Y-50579258D01*
X154548656Y-50542712D01*
X154672712Y-50418656D01*
X154764814Y-50269334D01*
X154819999Y-50102797D01*
X154830500Y-50000009D01*
X154830499Y-49249992D01*
X154819999Y-49147203D01*
X154764814Y-48980666D01*
X154672712Y-48831344D01*
X154548656Y-48707288D01*
X154545819Y-48705538D01*
X154544283Y-48703830D01*
X154542989Y-48702807D01*
X154543163Y-48702585D01*
X154499096Y-48653594D01*
X154487872Y-48584632D01*
X154515713Y-48520549D01*
X154545817Y-48494462D01*
X154548656Y-48492712D01*
X154672712Y-48368656D01*
X154764814Y-48219334D01*
X154819999Y-48052797D01*
X154830500Y-47950009D01*
X154830499Y-47199992D01*
X154825967Y-47155631D01*
X154819999Y-47097203D01*
X154819998Y-47097200D01*
X154764814Y-46930666D01*
X154672712Y-46781344D01*
X154548656Y-46657288D01*
X154399334Y-46565186D01*
X154232797Y-46510001D01*
X154232795Y-46510000D01*
X154130010Y-46499500D01*
X153129998Y-46499500D01*
X153129980Y-46499501D01*
X153027203Y-46510000D01*
X153027200Y-46510001D01*
X152860668Y-46565185D01*
X152860663Y-46565187D01*
X152711342Y-46657289D01*
X152587289Y-46781342D01*
X152495184Y-46930668D01*
X152473100Y-46997312D01*
X152433327Y-47054756D01*
X152418519Y-47065036D01*
X152398581Y-47076827D01*
X152384408Y-47091000D01*
X152369623Y-47103628D01*
X152353412Y-47115407D01*
X152323709Y-47151310D01*
X152319777Y-47155631D01*
X151036208Y-48439199D01*
X151023951Y-48449020D01*
X151024134Y-48449241D01*
X151018123Y-48454213D01*
X150970772Y-48504636D01*
X150949889Y-48525519D01*
X150949877Y-48525532D01*
X150945621Y-48531017D01*
X150941837Y-48535447D01*
X150909937Y-48569418D01*
X150909936Y-48569420D01*
X150900284Y-48586976D01*
X150889610Y-48603226D01*
X150877329Y-48619061D01*
X150877324Y-48619068D01*
X150858815Y-48661838D01*
X150856245Y-48667084D01*
X150833803Y-48707906D01*
X150828822Y-48727307D01*
X150822521Y-48745710D01*
X150814562Y-48764102D01*
X150814561Y-48764105D01*
X150807271Y-48810127D01*
X150806087Y-48815846D01*
X150794501Y-48860972D01*
X150794500Y-48860982D01*
X150794500Y-48881016D01*
X150792973Y-48900415D01*
X150789840Y-48920194D01*
X150789840Y-48920195D01*
X150794225Y-48966583D01*
X150794500Y-48972421D01*
X150794500Y-82004255D01*
X150792775Y-82019872D01*
X150793061Y-82019899D01*
X150792326Y-82027665D01*
X150794500Y-82096814D01*
X150794500Y-82126343D01*
X150794501Y-82126360D01*
X150795368Y-82133231D01*
X150795826Y-82139050D01*
X150797290Y-82185624D01*
X150797291Y-82185627D01*
X150802880Y-82204867D01*
X150806824Y-82223911D01*
X150809336Y-82243791D01*
X150826490Y-82287119D01*
X150828382Y-82292647D01*
X150841381Y-82337388D01*
X150851580Y-82354634D01*
X150860138Y-82372103D01*
X150867514Y-82390732D01*
X150894898Y-82428423D01*
X150898106Y-82433307D01*
X150921827Y-82473416D01*
X150921833Y-82473424D01*
X150935990Y-82487580D01*
X150948628Y-82502376D01*
X150960405Y-82518586D01*
X150960406Y-82518587D01*
X150996309Y-82548288D01*
X151000620Y-82552210D01*
X153279752Y-84831342D01*
X155533381Y-87084971D01*
X155566866Y-87146294D01*
X155569700Y-87172652D01*
X155569700Y-88846659D01*
X155550015Y-88913698D01*
X155497211Y-88959453D01*
X155428053Y-88969397D01*
X155364497Y-88940372D01*
X155353551Y-88929632D01*
X155327871Y-88901112D01*
X155327870Y-88901111D01*
X155174734Y-88789851D01*
X155174729Y-88789848D01*
X155001807Y-88712857D01*
X155001802Y-88712855D01*
X154853540Y-88681342D01*
X154816646Y-88673500D01*
X154627354Y-88673500D01*
X154594897Y-88680398D01*
X154442197Y-88712855D01*
X154442192Y-88712857D01*
X154269270Y-88789848D01*
X154269265Y-88789851D01*
X154116129Y-88901111D01*
X154116128Y-88901112D01*
X154047608Y-88977211D01*
X153988121Y-89013859D01*
X153918264Y-89012528D01*
X153860216Y-88973641D01*
X153832407Y-88909544D01*
X153832149Y-88907296D01*
X153829674Y-88883744D01*
X153780693Y-88732997D01*
X153771181Y-88703722D01*
X153771180Y-88703721D01*
X153771179Y-88703716D01*
X153676533Y-88539784D01*
X153549871Y-88399112D01*
X153538432Y-88390801D01*
X153396734Y-88287851D01*
X153396729Y-88287848D01*
X153223807Y-88210857D01*
X153223802Y-88210855D01*
X153078001Y-88179865D01*
X153038646Y-88171500D01*
X152849354Y-88171500D01*
X152816897Y-88178398D01*
X152664197Y-88210855D01*
X152664192Y-88210857D01*
X152491270Y-88287848D01*
X152491265Y-88287851D01*
X152381885Y-88367321D01*
X152316079Y-88390801D01*
X152248025Y-88374975D01*
X152236115Y-88367321D01*
X152126734Y-88287851D01*
X152126729Y-88287848D01*
X151953807Y-88210857D01*
X151953802Y-88210855D01*
X151808001Y-88179865D01*
X151768646Y-88171500D01*
X151579354Y-88171500D01*
X151546897Y-88178398D01*
X151394197Y-88210855D01*
X151394192Y-88210857D01*
X151221270Y-88287848D01*
X151221265Y-88287851D01*
X151068129Y-88399111D01*
X150941466Y-88539785D01*
X150846821Y-88703715D01*
X150846818Y-88703722D01*
X150788327Y-88883740D01*
X150788326Y-88883744D01*
X150768540Y-89072000D01*
X150788326Y-89260256D01*
X150788327Y-89260259D01*
X150846820Y-89440283D01*
X150891690Y-89518001D01*
X150908162Y-89585901D01*
X150891690Y-89641999D01*
X150846820Y-89719716D01*
X150788327Y-89899740D01*
X150788326Y-89899744D01*
X150768540Y-90088000D01*
X150788326Y-90276256D01*
X150788327Y-90276258D01*
X150788327Y-90276259D01*
X150846818Y-90456277D01*
X150846821Y-90456284D01*
X150941467Y-90620216D01*
X151044241Y-90734358D01*
X151068129Y-90760888D01*
X151221265Y-90872148D01*
X151221270Y-90872151D01*
X151394192Y-90949142D01*
X151394197Y-90949144D01*
X151579354Y-90988500D01*
X151579355Y-90988500D01*
X151768644Y-90988500D01*
X151768646Y-90988500D01*
X151953803Y-90949144D01*
X152126730Y-90872151D01*
X152236117Y-90792676D01*
X152301920Y-90769198D01*
X152369974Y-90785023D01*
X152381871Y-90792668D01*
X152491266Y-90872148D01*
X152491270Y-90872151D01*
X152664192Y-90949142D01*
X152664197Y-90949144D01*
X152849354Y-90988500D01*
X152849355Y-90988500D01*
X153038644Y-90988500D01*
X153038646Y-90988500D01*
X153223803Y-90949144D01*
X153396730Y-90872151D01*
X153549871Y-90760888D01*
X153676533Y-90620216D01*
X153771179Y-90456284D01*
X153829674Y-90276256D01*
X153833268Y-90242052D01*
X153859850Y-90177441D01*
X153917146Y-90137455D01*
X153986965Y-90134793D01*
X154047139Y-90170301D01*
X154048738Y-90172043D01*
X154116129Y-90246888D01*
X154269265Y-90358148D01*
X154269270Y-90358151D01*
X154442192Y-90435142D01*
X154442197Y-90435144D01*
X154627354Y-90474500D01*
X154632900Y-90474500D01*
X154699939Y-90494185D01*
X154745694Y-90546989D01*
X154756900Y-90598500D01*
X154756900Y-99174655D01*
X154755175Y-99190272D01*
X154755461Y-99190299D01*
X154754726Y-99198065D01*
X154756900Y-99267214D01*
X154756900Y-99296743D01*
X154756901Y-99296760D01*
X154757768Y-99303631D01*
X154758226Y-99309450D01*
X154759690Y-99356024D01*
X154759691Y-99356027D01*
X154765280Y-99375267D01*
X154769224Y-99394311D01*
X154771736Y-99414191D01*
X154788890Y-99457519D01*
X154790782Y-99463047D01*
X154803781Y-99507788D01*
X154813980Y-99525034D01*
X154822538Y-99542503D01*
X154829914Y-99561132D01*
X154857298Y-99598823D01*
X154860506Y-99603707D01*
X154884227Y-99643816D01*
X154884233Y-99643824D01*
X154898390Y-99657980D01*
X154911028Y-99672776D01*
X154922805Y-99688986D01*
X154922806Y-99688987D01*
X154958709Y-99718688D01*
X154963020Y-99722610D01*
X155056821Y-99816411D01*
X155109573Y-99869163D01*
X155143058Y-99930486D01*
X155138074Y-100000178D01*
X155096202Y-100056111D01*
X155047673Y-100078134D01*
X155013697Y-100085355D01*
X155013692Y-100085357D01*
X154840770Y-100162348D01*
X154840765Y-100162351D01*
X154687629Y-100273611D01*
X154560966Y-100414285D01*
X154466321Y-100578215D01*
X154466318Y-100578222D01*
X154420252Y-100720000D01*
X154407826Y-100758244D01*
X154388040Y-100946500D01*
X154407826Y-101134756D01*
X154407827Y-101134759D01*
X154466318Y-101314777D01*
X154466321Y-101314784D01*
X154560967Y-101478716D01*
X154604272Y-101526810D01*
X154636150Y-101562215D01*
X154666380Y-101625206D01*
X154668000Y-101645187D01*
X154668000Y-102210847D01*
X154648315Y-102277886D01*
X154631681Y-102298528D01*
X150740028Y-106190181D01*
X150678705Y-106223666D01*
X150652347Y-106226500D01*
X148555453Y-106226500D01*
X148488414Y-106206815D01*
X148467772Y-106190181D01*
X144488671Y-102211080D01*
X144455186Y-102149757D01*
X144458420Y-102085083D01*
X144482474Y-102011056D01*
X144502260Y-101822800D01*
X144482474Y-101634544D01*
X144423979Y-101454516D01*
X144329333Y-101290584D01*
X144202671Y-101149912D01*
X144181815Y-101134759D01*
X144049534Y-101038651D01*
X144049529Y-101038648D01*
X143876607Y-100961657D01*
X143876602Y-100961655D01*
X143727667Y-100929999D01*
X143691446Y-100922300D01*
X143502154Y-100922300D01*
X143469697Y-100929198D01*
X143316997Y-100961655D01*
X143316992Y-100961657D01*
X143144070Y-101038648D01*
X143144065Y-101038651D01*
X142990929Y-101149911D01*
X142864266Y-101290585D01*
X142769621Y-101454515D01*
X142769618Y-101454522D01*
X142734627Y-101562215D01*
X142711126Y-101634544D01*
X142691340Y-101822800D01*
X142694423Y-101852140D01*
X142681855Y-101920868D01*
X142634123Y-101971892D01*
X142571103Y-101989100D01*
X142486154Y-101989100D01*
X142453697Y-101995998D01*
X142300997Y-102028455D01*
X142300992Y-102028457D01*
X142128070Y-102105448D01*
X142128065Y-102105451D01*
X141974929Y-102216711D01*
X141848266Y-102357385D01*
X141753621Y-102521315D01*
X141753618Y-102521322D01*
X141695127Y-102701340D01*
X141695126Y-102701344D01*
X141675340Y-102889600D01*
X141695126Y-103077856D01*
X141695127Y-103077859D01*
X141753618Y-103257877D01*
X141753621Y-103257884D01*
X141848267Y-103421816D01*
X141974929Y-103562488D01*
X142128065Y-103673748D01*
X142128070Y-103673751D01*
X142300992Y-103750742D01*
X142300997Y-103750744D01*
X142486154Y-103790100D01*
X142545348Y-103790100D01*
X142612387Y-103809785D01*
X142633029Y-103826419D01*
X151544428Y-112737819D01*
X151577913Y-112799142D01*
X151572929Y-112868834D01*
X151531057Y-112924767D01*
X151465593Y-112949184D01*
X151456747Y-112949500D01*
X138582137Y-112949500D01*
X138566520Y-112947776D01*
X138566493Y-112948062D01*
X138558731Y-112947327D01*
X138489603Y-112949500D01*
X138460050Y-112949500D01*
X138459329Y-112949590D01*
X138453157Y-112950369D01*
X138447345Y-112950826D01*
X138400772Y-112952290D01*
X138400769Y-112952291D01*
X138381526Y-112957881D01*
X138362483Y-112961825D01*
X138342604Y-112964336D01*
X138342603Y-112964337D01*
X138299278Y-112981490D01*
X138293752Y-112983382D01*
X138249008Y-112996383D01*
X138249004Y-112996385D01*
X138231765Y-113006580D01*
X138214298Y-113015137D01*
X138195669Y-113022512D01*
X138195667Y-113022513D01*
X138157964Y-113049906D01*
X138153082Y-113053112D01*
X138112980Y-113076828D01*
X138098808Y-113091000D01*
X138084023Y-113103628D01*
X138067812Y-113115407D01*
X138038109Y-113151310D01*
X138034177Y-113155631D01*
X119853628Y-131336181D01*
X119792305Y-131369666D01*
X119765947Y-131372500D01*
X107052743Y-131372500D01*
X107037122Y-131370775D01*
X107037096Y-131371061D01*
X107029334Y-131370327D01*
X107029333Y-131370327D01*
X106960186Y-131372500D01*
X106930649Y-131372500D01*
X106923766Y-131373369D01*
X106917949Y-131373826D01*
X106871373Y-131375290D01*
X106852129Y-131380881D01*
X106833079Y-131384825D01*
X106813211Y-131387334D01*
X106769884Y-131404488D01*
X106764358Y-131406379D01*
X106719614Y-131419379D01*
X106719610Y-131419381D01*
X106702366Y-131429579D01*
X106684905Y-131438133D01*
X106666274Y-131445510D01*
X106666262Y-131445517D01*
X106628570Y-131472902D01*
X106623687Y-131476109D01*
X106583580Y-131499829D01*
X106569414Y-131513995D01*
X106554624Y-131526627D01*
X106538414Y-131538404D01*
X106538411Y-131538407D01*
X106508710Y-131574309D01*
X106504777Y-131578631D01*
X105561208Y-132522199D01*
X105548951Y-132532020D01*
X105549134Y-132532241D01*
X105543123Y-132537213D01*
X105495772Y-132587636D01*
X105474889Y-132608519D01*
X105474877Y-132608532D01*
X105470621Y-132614017D01*
X105466837Y-132618447D01*
X105434937Y-132652418D01*
X105434936Y-132652420D01*
X105425284Y-132669976D01*
X105414610Y-132686226D01*
X105402329Y-132702061D01*
X105402324Y-132702068D01*
X105383815Y-132744838D01*
X105381245Y-132750084D01*
X105358803Y-132790906D01*
X105353822Y-132810307D01*
X105347519Y-132828715D01*
X105340836Y-132844158D01*
X105296145Y-132897865D01*
X105292132Y-132900448D01*
X105151347Y-132987285D01*
X105151343Y-132987288D01*
X105027289Y-133111342D01*
X104935187Y-133260663D01*
X104935185Y-133260668D01*
X104907349Y-133344670D01*
X104880001Y-133427203D01*
X104880001Y-133427204D01*
X104880000Y-133427204D01*
X104869500Y-133529983D01*
X104869500Y-134530001D01*
X102113019Y-134530001D01*
X103116738Y-133392452D01*
X129578664Y-103402268D01*
X129580463Y-103400352D01*
X129580596Y-103399998D01*
X129580594Y-103399908D01*
X129580441Y-103399568D01*
X129580427Y-103399556D01*
X129580059Y-103399417D01*
X129577396Y-103399500D01*
X109863018Y-103399500D01*
X109795979Y-103379815D01*
X109750224Y-103327011D01*
X109740280Y-103257853D01*
X109769305Y-103194297D01*
X109771611Y-103191710D01*
X109828101Y-103130085D01*
X137077913Y-73403014D01*
X137080300Y-73400706D01*
X137080543Y-73400080D01*
X137080539Y-73399900D01*
X137080538Y-73399889D01*
X137080444Y-73399675D01*
X137080418Y-73399651D01*
X137080372Y-73399604D01*
X137080194Y-73399539D01*
X137079973Y-73399448D01*
X137077670Y-73399500D01*
X124818443Y-73399500D01*
X124751404Y-73379815D01*
X124705649Y-73327011D01*
X124695705Y-73257853D01*
X124716693Y-73204628D01*
X137645933Y-54642315D01*
X148453751Y-39125695D01*
X148508219Y-39081937D01*
X148577699Y-39074572D01*
X148640131Y-39105941D01*
X148675694Y-39166083D01*
X148679500Y-39196569D01*
X148679500Y-42631870D01*
X148659815Y-42698909D01*
X148607011Y-42744664D01*
X148537853Y-42754608D01*
X148527468Y-42752161D01*
X148527414Y-42752418D01*
X148520795Y-42751000D01*
X148418010Y-42740500D01*
X147817998Y-42740500D01*
X147817980Y-42740501D01*
X147715203Y-42751000D01*
X147715200Y-42751001D01*
X147548668Y-42806185D01*
X147548663Y-42806187D01*
X147399342Y-42898289D01*
X147275289Y-43022342D01*
X147183187Y-43171663D01*
X147183186Y-43171666D01*
X147128001Y-43338203D01*
X147128001Y-43338204D01*
X147128000Y-43338204D01*
X147117500Y-43440983D01*
X147117500Y-45041001D01*
X147117501Y-45041018D01*
X147128000Y-45143796D01*
X147128001Y-45143799D01*
X147183185Y-45310331D01*
X147183186Y-45310334D01*
X147275288Y-45459656D01*
X147399344Y-45583712D01*
X147548666Y-45675814D01*
X147715203Y-45730999D01*
X147817991Y-45741500D01*
X148418008Y-45741499D01*
X148418016Y-45741498D01*
X148418019Y-45741498D01*
X148450039Y-45738227D01*
X148520797Y-45730999D01*
X148520804Y-45730996D01*
X148527414Y-45729582D01*
X148527939Y-45732037D01*
X148586281Y-45730010D01*
X148646336Y-45765720D01*
X148677551Y-45828230D01*
X148679500Y-45850129D01*
X148679500Y-87943500D01*
X148659815Y-88010539D01*
X148607011Y-88056294D01*
X148555500Y-88067500D01*
X145582129Y-88067500D01*
X145582123Y-88067501D01*
X145522516Y-88073908D01*
X145387671Y-88124202D01*
X145387664Y-88124206D01*
X145272455Y-88210452D01*
X145272452Y-88210455D01*
X145186206Y-88325664D01*
X145186202Y-88325671D01*
X145135908Y-88460517D01*
X145129501Y-88520116D01*
X145129500Y-88520135D01*
X145129500Y-88818500D01*
X145109815Y-88885539D01*
X145057011Y-88931294D01*
X145005500Y-88942500D01*
X144910148Y-88942500D01*
X144843109Y-88922815D01*
X144818000Y-88901474D01*
X144812273Y-88895114D01*
X144812269Y-88895110D01*
X144659134Y-88783851D01*
X144659129Y-88783848D01*
X144486207Y-88706857D01*
X144486202Y-88706855D01*
X144327594Y-88673143D01*
X144301046Y-88667500D01*
X144111754Y-88667500D01*
X144085206Y-88673143D01*
X143926597Y-88706855D01*
X143926596Y-88706855D01*
X143888735Y-88723713D01*
X143819485Y-88732997D01*
X143756209Y-88703368D01*
X143718996Y-88644233D01*
X143714300Y-88610433D01*
X143714300Y-76251537D01*
X143716024Y-76235923D01*
X143715738Y-76235896D01*
X143716472Y-76228133D01*
X143714300Y-76159003D01*
X143714300Y-76129451D01*
X143714300Y-76129450D01*
X143713429Y-76122559D01*
X143712972Y-76116745D01*
X143711509Y-76070172D01*
X143705922Y-76050944D01*
X143701974Y-76031884D01*
X143699464Y-76012008D01*
X143682307Y-75968675D01*
X143680419Y-75963159D01*
X143667419Y-75918412D01*
X143657218Y-75901163D01*
X143648660Y-75883694D01*
X143641286Y-75865068D01*
X143641283Y-75865064D01*
X143641283Y-75865063D01*
X143613898Y-75827371D01*
X143610690Y-75822487D01*
X143586972Y-75782382D01*
X143586963Y-75782371D01*
X143572805Y-75768213D01*
X143560170Y-75753420D01*
X143548393Y-75737212D01*
X143512493Y-75707513D01*
X143508181Y-75703590D01*
X139220803Y-71416212D01*
X139210980Y-71403950D01*
X139210759Y-71404134D01*
X139205786Y-71398123D01*
X139155364Y-71350773D01*
X139144919Y-71340328D01*
X139134475Y-71329883D01*
X139128986Y-71325625D01*
X139124561Y-71321847D01*
X139090582Y-71289938D01*
X139090580Y-71289936D01*
X139090577Y-71289935D01*
X139073029Y-71280288D01*
X139056763Y-71269604D01*
X139040933Y-71257325D01*
X138998168Y-71238818D01*
X138992922Y-71236248D01*
X138952093Y-71213803D01*
X138952092Y-71213802D01*
X138932693Y-71208822D01*
X138914281Y-71202518D01*
X138895898Y-71194562D01*
X138895892Y-71194560D01*
X138849874Y-71187272D01*
X138844152Y-71186087D01*
X138799021Y-71174500D01*
X138799019Y-71174500D01*
X138778984Y-71174500D01*
X138759586Y-71172973D01*
X138752162Y-71171797D01*
X138739805Y-71169840D01*
X138739804Y-71169840D01*
X138693416Y-71174225D01*
X138687578Y-71174500D01*
X133696453Y-71174500D01*
X133629414Y-71154815D01*
X133608772Y-71138181D01*
X133236548Y-70765957D01*
X133203063Y-70704634D01*
X133208047Y-70634942D01*
X133249919Y-70579009D01*
X133315383Y-70554592D01*
X133383656Y-70569444D01*
X133389305Y-70572725D01*
X133512666Y-70648814D01*
X133679203Y-70703999D01*
X133781991Y-70714500D01*
X134532008Y-70714499D01*
X134532016Y-70714498D01*
X134532019Y-70714498D01*
X134588302Y-70708748D01*
X134634797Y-70703999D01*
X134801334Y-70648814D01*
X134950656Y-70556712D01*
X134950662Y-70556705D01*
X134956319Y-70552234D01*
X134957419Y-70553625D01*
X135010642Y-70524564D01*
X135080334Y-70529548D01*
X135116990Y-70553106D01*
X135117681Y-70552234D01*
X135123341Y-70556709D01*
X135123344Y-70556712D01*
X135272666Y-70648814D01*
X135439203Y-70703999D01*
X135541991Y-70714500D01*
X136342008Y-70714499D01*
X136342016Y-70714498D01*
X136342019Y-70714498D01*
X136398302Y-70708748D01*
X136444797Y-70703999D01*
X136611334Y-70648814D01*
X136760656Y-70556712D01*
X136854675Y-70462692D01*
X136915994Y-70429210D01*
X136985686Y-70434194D01*
X137030034Y-70462695D01*
X137123654Y-70556315D01*
X137272875Y-70648356D01*
X137272880Y-70648358D01*
X137439302Y-70703505D01*
X137439309Y-70703506D01*
X137542019Y-70713999D01*
X137691999Y-70713999D01*
X137692000Y-70713998D01*
X137692000Y-69764000D01*
X138192000Y-69764000D01*
X138192000Y-70713999D01*
X138341972Y-70713999D01*
X138341986Y-70713998D01*
X138444697Y-70703505D01*
X138611119Y-70648358D01*
X138611124Y-70648356D01*
X138760345Y-70556315D01*
X138884315Y-70432345D01*
X138976356Y-70283124D01*
X138976358Y-70283119D01*
X139031505Y-70116697D01*
X139031506Y-70116690D01*
X139041999Y-70013986D01*
X139042000Y-70013973D01*
X139042000Y-69764000D01*
X138192000Y-69764000D01*
X137692000Y-69764000D01*
X137692000Y-68314000D01*
X138192000Y-68314000D01*
X138192000Y-69264000D01*
X139041999Y-69264000D01*
X139041999Y-69014028D01*
X139041998Y-69014013D01*
X139031505Y-68911302D01*
X138976358Y-68744880D01*
X138976356Y-68744875D01*
X138884315Y-68595654D01*
X138760345Y-68471684D01*
X138611124Y-68379643D01*
X138611119Y-68379641D01*
X138444697Y-68324494D01*
X138444690Y-68324493D01*
X138341986Y-68314000D01*
X138192000Y-68314000D01*
X137692000Y-68314000D01*
X137542027Y-68314000D01*
X137542012Y-68314001D01*
X137439302Y-68324494D01*
X137272880Y-68379641D01*
X137272875Y-68379643D01*
X137123657Y-68471682D01*
X137030034Y-68565305D01*
X136968710Y-68598789D01*
X136899019Y-68593805D01*
X136854672Y-68565304D01*
X136760657Y-68471289D01*
X136760656Y-68471288D01*
X136611334Y-68379186D01*
X136444797Y-68324001D01*
X136444795Y-68324000D01*
X136342010Y-68313500D01*
X135541998Y-68313500D01*
X135541980Y-68313501D01*
X135439203Y-68324000D01*
X135439200Y-68324001D01*
X135272668Y-68379185D01*
X135272663Y-68379187D01*
X135123341Y-68471290D01*
X135117681Y-68475766D01*
X135116580Y-68474374D01*
X135063358Y-68503436D01*
X134993666Y-68498452D01*
X134957009Y-68474893D01*
X134956319Y-68475766D01*
X134950658Y-68471290D01*
X134950656Y-68471288D01*
X134801334Y-68379186D01*
X134634797Y-68324001D01*
X134634795Y-68324000D01*
X134532010Y-68313500D01*
X133781998Y-68313500D01*
X133781980Y-68313501D01*
X133679203Y-68324000D01*
X133679200Y-68324001D01*
X133512668Y-68379185D01*
X133512663Y-68379187D01*
X133363342Y-68471289D01*
X133239285Y-68595346D01*
X133237537Y-68598182D01*
X133235829Y-68599717D01*
X133234807Y-68601011D01*
X133234585Y-68600836D01*
X133185589Y-68644905D01*
X133116626Y-68656126D01*
X133052544Y-68628282D01*
X133026463Y-68598182D01*
X133024714Y-68595346D01*
X132900657Y-68471289D01*
X132900656Y-68471288D01*
X132751334Y-68379186D01*
X132584797Y-68324001D01*
X132584795Y-68324000D01*
X132482010Y-68313500D01*
X131731998Y-68313500D01*
X131731980Y-68313501D01*
X131629203Y-68324000D01*
X131629200Y-68324001D01*
X131462668Y-68379185D01*
X131462663Y-68379187D01*
X131313342Y-68471289D01*
X131189289Y-68595342D01*
X131097187Y-68744663D01*
X131097185Y-68744668D01*
X131097115Y-68744880D01*
X131042001Y-68911203D01*
X131042001Y-68911204D01*
X131042000Y-68911204D01*
X131031500Y-69013983D01*
X131031500Y-70014001D01*
X131031501Y-70014019D01*
X131042000Y-70116796D01*
X131042001Y-70116799D01*
X131082000Y-70237505D01*
X131097186Y-70283334D01*
X131189288Y-70432656D01*
X131313344Y-70556712D01*
X131456994Y-70645315D01*
X131503718Y-70697261D01*
X131507190Y-70705208D01*
X131513489Y-70721119D01*
X131515382Y-70726647D01*
X131528381Y-70771388D01*
X131538580Y-70788634D01*
X131547138Y-70806103D01*
X131554514Y-70824732D01*
X131581898Y-70862423D01*
X131585106Y-70867307D01*
X131608827Y-70907416D01*
X131608833Y-70907424D01*
X131622990Y-70921580D01*
X131635628Y-70936376D01*
X131647405Y-70952586D01*
X131647406Y-70952587D01*
X131683309Y-70982288D01*
X131687620Y-70986210D01*
X131991345Y-71289935D01*
X132885197Y-72183788D01*
X132895022Y-72196051D01*
X132895243Y-72195869D01*
X132900214Y-72201878D01*
X132926217Y-72226295D01*
X132950635Y-72249226D01*
X132971529Y-72270120D01*
X132977011Y-72274373D01*
X132981443Y-72278157D01*
X133015418Y-72310062D01*
X133032976Y-72319714D01*
X133049235Y-72330395D01*
X133065064Y-72342673D01*
X133107838Y-72361182D01*
X133113056Y-72363738D01*
X133153908Y-72386197D01*
X133173316Y-72391180D01*
X133191717Y-72397480D01*
X133210104Y-72405437D01*
X133253488Y-72412308D01*
X133256119Y-72412725D01*
X133261839Y-72413909D01*
X133306981Y-72425500D01*
X133327016Y-72425500D01*
X133346414Y-72427026D01*
X133366194Y-72430159D01*
X133366195Y-72430160D01*
X133366195Y-72430159D01*
X133366196Y-72430160D01*
X133412584Y-72425775D01*
X133418422Y-72425500D01*
X138409548Y-72425500D01*
X138476587Y-72445185D01*
X138497229Y-72461819D01*
X142426981Y-76391571D01*
X142460466Y-76452894D01*
X142463300Y-76479252D01*
X142463300Y-92342055D01*
X142461575Y-92357672D01*
X142461861Y-92357699D01*
X142461126Y-92365465D01*
X142463300Y-92434614D01*
X142463300Y-92464143D01*
X142463301Y-92464160D01*
X142464168Y-92471031D01*
X142464626Y-92476850D01*
X142466090Y-92523424D01*
X142466091Y-92523427D01*
X142471680Y-92542667D01*
X142475624Y-92561711D01*
X142475694Y-92562259D01*
X142478136Y-92581591D01*
X142495290Y-92624919D01*
X142497182Y-92630447D01*
X142510181Y-92675188D01*
X142520380Y-92692434D01*
X142528938Y-92709903D01*
X142536314Y-92728532D01*
X142563698Y-92766223D01*
X142566906Y-92771107D01*
X142590627Y-92811216D01*
X142590633Y-92811224D01*
X142604790Y-92825380D01*
X142617428Y-92840176D01*
X142629205Y-92856386D01*
X142629206Y-92856387D01*
X142656697Y-92879129D01*
X142695805Y-92937029D01*
X142700978Y-92961710D01*
X142711126Y-93058258D01*
X142711127Y-93058260D01*
X142769618Y-93238277D01*
X142769621Y-93238284D01*
X142864267Y-93402216D01*
X142965985Y-93515185D01*
X142990929Y-93542888D01*
X143144065Y-93654148D01*
X143144070Y-93654151D01*
X143316992Y-93731142D01*
X143316997Y-93731144D01*
X143502154Y-93770500D01*
X143502155Y-93770500D01*
X143691444Y-93770500D01*
X143691446Y-93770500D01*
X143876603Y-93731144D01*
X144049530Y-93654151D01*
X144202671Y-93542888D01*
X144205588Y-93539647D01*
X144208400Y-93536526D01*
X144267887Y-93499879D01*
X144300548Y-93495500D01*
X145005501Y-93495500D01*
X145072540Y-93515185D01*
X145118295Y-93567989D01*
X145129501Y-93619500D01*
X145129501Y-93917876D01*
X145135908Y-93977483D01*
X145186202Y-94112328D01*
X145186206Y-94112335D01*
X145272452Y-94227544D01*
X145272455Y-94227547D01*
X145387664Y-94313793D01*
X145387671Y-94313797D01*
X145522517Y-94364091D01*
X145522516Y-94364091D01*
X145529444Y-94364835D01*
X145582127Y-94370500D01*
X148555500Y-94370499D01*
X148622539Y-94390184D01*
X148668294Y-94442988D01*
X148679500Y-94494499D01*
X148679500Y-94547500D01*
X148659815Y-94614539D01*
X148607011Y-94660294D01*
X148555500Y-94671500D01*
X145582129Y-94671500D01*
X145582123Y-94671501D01*
X145522516Y-94677908D01*
X145387671Y-94728202D01*
X145387664Y-94728206D01*
X145272455Y-94814452D01*
X145272452Y-94814455D01*
X145186206Y-94929664D01*
X145186202Y-94929671D01*
X145135908Y-95064517D01*
X145129501Y-95124116D01*
X145129500Y-95124135D01*
X145129500Y-95186487D01*
X145109815Y-95253526D01*
X145057011Y-95299281D01*
X144987853Y-95309225D01*
X144979720Y-95307777D01*
X144809046Y-95271500D01*
X144619754Y-95271500D01*
X144591526Y-95277500D01*
X144434597Y-95310855D01*
X144434592Y-95310857D01*
X144261670Y-95387848D01*
X144261665Y-95387851D01*
X144108530Y-95499110D01*
X144108526Y-95499114D01*
X144102800Y-95505474D01*
X144043313Y-95542121D01*
X144010652Y-95546500D01*
X119510738Y-95546500D01*
X119495121Y-95544776D01*
X119495094Y-95545062D01*
X119487332Y-95544327D01*
X119418204Y-95546500D01*
X119388650Y-95546500D01*
X119387929Y-95546590D01*
X119381757Y-95547369D01*
X119375945Y-95547826D01*
X119329373Y-95549290D01*
X119329372Y-95549290D01*
X119310129Y-95554881D01*
X119291079Y-95558825D01*
X119271211Y-95561334D01*
X119271209Y-95561335D01*
X119227884Y-95578488D01*
X119222357Y-95580380D01*
X119177610Y-95593381D01*
X119177609Y-95593382D01*
X119160367Y-95603579D01*
X119142899Y-95612137D01*
X119124269Y-95619513D01*
X119124267Y-95619514D01*
X119086576Y-95646898D01*
X119081694Y-95650105D01*
X119041579Y-95673830D01*
X119027408Y-95688000D01*
X119012623Y-95700628D01*
X118996412Y-95712407D01*
X118966709Y-95748310D01*
X118962777Y-95752631D01*
X117236208Y-97479199D01*
X117223951Y-97489020D01*
X117224134Y-97489241D01*
X117218123Y-97494213D01*
X117170772Y-97544636D01*
X117149889Y-97565519D01*
X117149877Y-97565532D01*
X117145621Y-97571017D01*
X117141837Y-97575447D01*
X117109937Y-97609418D01*
X117109936Y-97609420D01*
X117100284Y-97626976D01*
X117089610Y-97643226D01*
X117077329Y-97659061D01*
X117077324Y-97659068D01*
X117058815Y-97701838D01*
X117056245Y-97707084D01*
X117033803Y-97747906D01*
X117028822Y-97767307D01*
X117022521Y-97785710D01*
X117014562Y-97804102D01*
X117014561Y-97804105D01*
X117007271Y-97850127D01*
X117006087Y-97855846D01*
X116994501Y-97900972D01*
X116994500Y-97900982D01*
X116994500Y-97921016D01*
X116992973Y-97940415D01*
X116989840Y-97960194D01*
X116989840Y-97960195D01*
X116994225Y-98006583D01*
X116994500Y-98012421D01*
X116994500Y-98524362D01*
X116974815Y-98591401D01*
X116935598Y-98629899D01*
X116867288Y-98672033D01*
X116826342Y-98697289D01*
X116702289Y-98821342D01*
X116610187Y-98970663D01*
X116610185Y-98970668D01*
X116601026Y-98998309D01*
X116555001Y-99137203D01*
X116555001Y-99137204D01*
X116555000Y-99137204D01*
X116544500Y-99239983D01*
X116544500Y-100240001D01*
X116544501Y-100240019D01*
X116555000Y-100342796D01*
X116555001Y-100342799D01*
X116594532Y-100462093D01*
X116610186Y-100509334D01*
X116702288Y-100658656D01*
X116826344Y-100782712D01*
X116975666Y-100874814D01*
X117142203Y-100929999D01*
X117244991Y-100940500D01*
X117995008Y-100940499D01*
X117995016Y-100940498D01*
X117995019Y-100940498D01*
X118051302Y-100934748D01*
X118097797Y-100929999D01*
X118264334Y-100874814D01*
X118413656Y-100782712D01*
X118537712Y-100658656D01*
X118539461Y-100655819D01*
X118541169Y-100654283D01*
X118542193Y-100652989D01*
X118542414Y-100653163D01*
X118591406Y-100609096D01*
X118660368Y-100597872D01*
X118724451Y-100625713D01*
X118750537Y-100655817D01*
X118752288Y-100658656D01*
X118876344Y-100782712D01*
X119025666Y-100874814D01*
X119192203Y-100929999D01*
X119294991Y-100940500D01*
X120045008Y-100940499D01*
X120045016Y-100940498D01*
X120045019Y-100940498D01*
X120101302Y-100934748D01*
X120147797Y-100929999D01*
X120314334Y-100874814D01*
X120463656Y-100782712D01*
X120463664Y-100782703D01*
X120468085Y-100779209D01*
X120532879Y-100753066D01*
X120601522Y-100766103D01*
X120621915Y-100779209D01*
X120626339Y-100782707D01*
X120626344Y-100782712D01*
X120775666Y-100874814D01*
X120942203Y-100929999D01*
X121044991Y-100940500D01*
X121845008Y-100940499D01*
X121845016Y-100940498D01*
X121845019Y-100940498D01*
X121901302Y-100934748D01*
X121947797Y-100929999D01*
X122114334Y-100874814D01*
X122263656Y-100782712D01*
X122357675Y-100688692D01*
X122418994Y-100655210D01*
X122488686Y-100660194D01*
X122533034Y-100688695D01*
X122626654Y-100782315D01*
X122775875Y-100874356D01*
X122775880Y-100874358D01*
X122942302Y-100929505D01*
X122942309Y-100929506D01*
X123045019Y-100939999D01*
X123194999Y-100939999D01*
X123195000Y-100939998D01*
X123195000Y-99990000D01*
X123695000Y-99990000D01*
X123695000Y-100939999D01*
X123844972Y-100939999D01*
X123844986Y-100939998D01*
X123947697Y-100929505D01*
X124114119Y-100874358D01*
X124114124Y-100874356D01*
X124263345Y-100782315D01*
X124387315Y-100658345D01*
X124479356Y-100509124D01*
X124479358Y-100509119D01*
X124534505Y-100342697D01*
X124534506Y-100342690D01*
X124544999Y-100239986D01*
X124545000Y-100239973D01*
X124545000Y-99990000D01*
X123695000Y-99990000D01*
X123195000Y-99990000D01*
X123195000Y-98540000D01*
X123695000Y-98540000D01*
X123695000Y-99490000D01*
X124544999Y-99490000D01*
X124544999Y-99240028D01*
X124544998Y-99240013D01*
X124534505Y-99137302D01*
X124479358Y-98970880D01*
X124479356Y-98970875D01*
X124387315Y-98821654D01*
X124263345Y-98697684D01*
X124114124Y-98605643D01*
X124114119Y-98605641D01*
X123947697Y-98550494D01*
X123947690Y-98550493D01*
X123844986Y-98540000D01*
X123695000Y-98540000D01*
X123195000Y-98540000D01*
X123045027Y-98540000D01*
X123045012Y-98540001D01*
X122942302Y-98550494D01*
X122775880Y-98605641D01*
X122775875Y-98605643D01*
X122626657Y-98697682D01*
X122533034Y-98791305D01*
X122471710Y-98824789D01*
X122402019Y-98819805D01*
X122357672Y-98791304D01*
X122263657Y-98697289D01*
X122263656Y-98697288D01*
X122114334Y-98605186D01*
X121947797Y-98550001D01*
X121947795Y-98550000D01*
X121845010Y-98539500D01*
X121044998Y-98539500D01*
X121044980Y-98539501D01*
X120942203Y-98550000D01*
X120942200Y-98550001D01*
X120775668Y-98605185D01*
X120775663Y-98605187D01*
X120626342Y-98697289D01*
X120621909Y-98700795D01*
X120557113Y-98726934D01*
X120488471Y-98713892D01*
X120468091Y-98700795D01*
X120463657Y-98697289D01*
X120463656Y-98697288D01*
X120314334Y-98605186D01*
X120147797Y-98550001D01*
X120147795Y-98550000D01*
X120045010Y-98539500D01*
X119294998Y-98539500D01*
X119294980Y-98539501D01*
X119192203Y-98550000D01*
X119192200Y-98550001D01*
X119025668Y-98605185D01*
X119025663Y-98605187D01*
X118876342Y-98697289D01*
X118752285Y-98821346D01*
X118750537Y-98824182D01*
X118748829Y-98825717D01*
X118747807Y-98827011D01*
X118747585Y-98826836D01*
X118698589Y-98870905D01*
X118629626Y-98882126D01*
X118565544Y-98854282D01*
X118539463Y-98824182D01*
X118537714Y-98821346D01*
X118413657Y-98697289D01*
X118413656Y-98697288D01*
X118304402Y-98629900D01*
X118257679Y-98577953D01*
X118245500Y-98524362D01*
X118245500Y-98290452D01*
X118265185Y-98223413D01*
X118281819Y-98202771D01*
X119650772Y-96833819D01*
X119712095Y-96800334D01*
X119738453Y-96797500D01*
X144010652Y-96797500D01*
X144077691Y-96817185D01*
X144102800Y-96838526D01*
X144108526Y-96844885D01*
X144108530Y-96844889D01*
X144261665Y-96956148D01*
X144261670Y-96956151D01*
X144434592Y-97033142D01*
X144434597Y-97033144D01*
X144619754Y-97072500D01*
X144619755Y-97072500D01*
X144809044Y-97072500D01*
X144809046Y-97072500D01*
X144979721Y-97036222D01*
X145049386Y-97041538D01*
X145105120Y-97083675D01*
X145129225Y-97149255D01*
X145129500Y-97157510D01*
X145129500Y-97219869D01*
X145129501Y-97219876D01*
X145135908Y-97279483D01*
X145186202Y-97414328D01*
X145186206Y-97414335D01*
X145272452Y-97529544D01*
X145272455Y-97529547D01*
X145362621Y-97597046D01*
X145404492Y-97652980D01*
X145409476Y-97722671D01*
X145375990Y-97783994D01*
X145362622Y-97795578D01*
X145272809Y-97862812D01*
X145186649Y-97977906D01*
X145186645Y-97977913D01*
X145136403Y-98112620D01*
X145136401Y-98112627D01*
X145130000Y-98172155D01*
X145130000Y-100267844D01*
X145136401Y-100327372D01*
X145136403Y-100327379D01*
X145186645Y-100462086D01*
X145186649Y-100462093D01*
X145272808Y-100577185D01*
X145272817Y-100577194D01*
X145356560Y-100639885D01*
X145356562Y-100639884D01*
X147042319Y-98954128D01*
X147103642Y-98920643D01*
X147173334Y-98925627D01*
X147217681Y-98954128D01*
X147395871Y-99132318D01*
X147429356Y-99193641D01*
X147424372Y-99263333D01*
X147395871Y-99307680D01*
X145983552Y-100719999D01*
X145983553Y-100720000D01*
X148555500Y-100720000D01*
X148622539Y-100739685D01*
X148668294Y-100792489D01*
X148679500Y-100844000D01*
X148679500Y-105575467D01*
X148679416Y-105575889D01*
X148679459Y-105600001D01*
X148679500Y-105600099D01*
X148679616Y-105600382D01*
X148679618Y-105600384D01*
X148679808Y-105600462D01*
X148680000Y-105600541D01*
X148680002Y-105600539D01*
X148704616Y-105600524D01*
X148704616Y-105600528D01*
X148704760Y-105600500D01*
X150455240Y-105600500D01*
X150455383Y-105600528D01*
X150455384Y-105600524D01*
X150479997Y-105600539D01*
X150480000Y-105600541D01*
X150480383Y-105600383D01*
X150480500Y-105600099D01*
X150480541Y-105600000D01*
X150480540Y-105599997D01*
X150480583Y-105575889D01*
X150480500Y-105575467D01*
X150480500Y-96692000D01*
X150768540Y-96692000D01*
X150788326Y-96880256D01*
X150788327Y-96880259D01*
X150846818Y-97060277D01*
X150846821Y-97060284D01*
X150941467Y-97224216D01*
X150991230Y-97279483D01*
X151068129Y-97364888D01*
X151221265Y-97476148D01*
X151221270Y-97476151D01*
X151394192Y-97553142D01*
X151394197Y-97553144D01*
X151579354Y-97592500D01*
X151579355Y-97592500D01*
X151768644Y-97592500D01*
X151768646Y-97592500D01*
X151953803Y-97553144D01*
X152126730Y-97476151D01*
X152236117Y-97396676D01*
X152301920Y-97373198D01*
X152369974Y-97389023D01*
X152381871Y-97396668D01*
X152491266Y-97476148D01*
X152491270Y-97476151D01*
X152664192Y-97553142D01*
X152664197Y-97553144D01*
X152849354Y-97592500D01*
X152849355Y-97592500D01*
X153038644Y-97592500D01*
X153038646Y-97592500D01*
X153223803Y-97553144D01*
X153396730Y-97476151D01*
X153549871Y-97364888D01*
X153676533Y-97224216D01*
X153771179Y-97060284D01*
X153829674Y-96880256D01*
X153849460Y-96692000D01*
X153829674Y-96503744D01*
X153771179Y-96323716D01*
X153726308Y-96245997D01*
X153709836Y-96178100D01*
X153726309Y-96122001D01*
X153771179Y-96044284D01*
X153829674Y-95864256D01*
X153849460Y-95676000D01*
X153829674Y-95487744D01*
X153771179Y-95307716D01*
X153676533Y-95143784D01*
X153549871Y-95003112D01*
X153538432Y-94994801D01*
X153396734Y-94891851D01*
X153396729Y-94891848D01*
X153223807Y-94814857D01*
X153223802Y-94814855D01*
X153078001Y-94783865D01*
X153038646Y-94775500D01*
X152849354Y-94775500D01*
X152816897Y-94782398D01*
X152664197Y-94814855D01*
X152664192Y-94814857D01*
X152491270Y-94891848D01*
X152491265Y-94891851D01*
X152381885Y-94971321D01*
X152316079Y-94994801D01*
X152248025Y-94978975D01*
X152236115Y-94971321D01*
X152126734Y-94891851D01*
X152126729Y-94891848D01*
X151953807Y-94814857D01*
X151953802Y-94814855D01*
X151808001Y-94783865D01*
X151768646Y-94775500D01*
X151579354Y-94775500D01*
X151546897Y-94782398D01*
X151394197Y-94814855D01*
X151394192Y-94814857D01*
X151221270Y-94891848D01*
X151221265Y-94891851D01*
X151068129Y-95003111D01*
X150941466Y-95143785D01*
X150846821Y-95307715D01*
X150846818Y-95307722D01*
X150820783Y-95387851D01*
X150788326Y-95487744D01*
X150768540Y-95676000D01*
X150788326Y-95864256D01*
X150788327Y-95864259D01*
X150846820Y-96044283D01*
X150891690Y-96122001D01*
X150908162Y-96189901D01*
X150891690Y-96245999D01*
X150846820Y-96323716D01*
X150788327Y-96503740D01*
X150788326Y-96503744D01*
X150768540Y-96692000D01*
X150480500Y-96692000D01*
X150480500Y-93390000D01*
X150768540Y-93390000D01*
X150788326Y-93578256D01*
X150788327Y-93578259D01*
X150846818Y-93758277D01*
X150846821Y-93758284D01*
X150941467Y-93922216D01*
X150991230Y-93977483D01*
X151068129Y-94062888D01*
X151221265Y-94174148D01*
X151221270Y-94174151D01*
X151394192Y-94251142D01*
X151394197Y-94251144D01*
X151579354Y-94290500D01*
X151579355Y-94290500D01*
X151768644Y-94290500D01*
X151768646Y-94290500D01*
X151953803Y-94251144D01*
X152126730Y-94174151D01*
X152236117Y-94094676D01*
X152301920Y-94071198D01*
X152369974Y-94087023D01*
X152381871Y-94094668D01*
X152491266Y-94174148D01*
X152491270Y-94174151D01*
X152664192Y-94251142D01*
X152664197Y-94251144D01*
X152849354Y-94290500D01*
X152849355Y-94290500D01*
X153038644Y-94290500D01*
X153038646Y-94290500D01*
X153223803Y-94251144D01*
X153396730Y-94174151D01*
X153549871Y-94062888D01*
X153676533Y-93922216D01*
X153771179Y-93758284D01*
X153829674Y-93578256D01*
X153849460Y-93390000D01*
X153829674Y-93201744D01*
X153771179Y-93021716D01*
X153726308Y-92943997D01*
X153709836Y-92876100D01*
X153726309Y-92820001D01*
X153771179Y-92742284D01*
X153829674Y-92562256D01*
X153849460Y-92374000D01*
X153829674Y-92185744D01*
X153771179Y-92005716D01*
X153676533Y-91841784D01*
X153549871Y-91701112D01*
X153538432Y-91692801D01*
X153396734Y-91589851D01*
X153396729Y-91589848D01*
X153223807Y-91512857D01*
X153223802Y-91512855D01*
X153078001Y-91481865D01*
X153038646Y-91473500D01*
X152849354Y-91473500D01*
X152816897Y-91480398D01*
X152664197Y-91512855D01*
X152664192Y-91512857D01*
X152491270Y-91589848D01*
X152491265Y-91589851D01*
X152381885Y-91669321D01*
X152316079Y-91692801D01*
X152248025Y-91676975D01*
X152236115Y-91669321D01*
X152126734Y-91589851D01*
X152126729Y-91589848D01*
X151953807Y-91512857D01*
X151953802Y-91512855D01*
X151808001Y-91481865D01*
X151768646Y-91473500D01*
X151579354Y-91473500D01*
X151546897Y-91480398D01*
X151394197Y-91512855D01*
X151394192Y-91512857D01*
X151221270Y-91589848D01*
X151221265Y-91589851D01*
X151068129Y-91701111D01*
X150941466Y-91841785D01*
X150846821Y-92005715D01*
X150846818Y-92005722D01*
X150820783Y-92085851D01*
X150788326Y-92185744D01*
X150768540Y-92374000D01*
X150788326Y-92562256D01*
X150788327Y-92562259D01*
X150846820Y-92742283D01*
X150891690Y-92820001D01*
X150908162Y-92887901D01*
X150891690Y-92943999D01*
X150846820Y-93021716D01*
X150788327Y-93201740D01*
X150788326Y-93201744D01*
X150768540Y-93390000D01*
X150480500Y-93390000D01*
X150480500Y-45851021D01*
X150500185Y-45783982D01*
X150552989Y-45738227D01*
X150622147Y-45728283D01*
X150630464Y-45729770D01*
X150636203Y-45730999D01*
X150738991Y-45741500D01*
X151339008Y-45741499D01*
X151339016Y-45741498D01*
X151339019Y-45741498D01*
X151395302Y-45735748D01*
X151441797Y-45730999D01*
X151608334Y-45675814D01*
X151757656Y-45583712D01*
X151881712Y-45459656D01*
X151973814Y-45310334D01*
X152028999Y-45143797D01*
X152039500Y-45041009D01*
X152039499Y-43440992D01*
X152028999Y-43338203D01*
X151973814Y-43171666D01*
X151881712Y-43022344D01*
X151757656Y-42898288D01*
X151608334Y-42806186D01*
X151441797Y-42751001D01*
X151441795Y-42751000D01*
X151339010Y-42740500D01*
X150738998Y-42740500D01*
X150738980Y-42740501D01*
X150636199Y-42751001D01*
X150630443Y-42752233D01*
X150560769Y-42747010D01*
X150504979Y-42704947D01*
X150480786Y-42639400D01*
X150480500Y-42630977D01*
X150480500Y-39196570D01*
X150500185Y-39129531D01*
X150552989Y-39083776D01*
X150622147Y-39073832D01*
X150685703Y-39102857D01*
G37*
G04 #@! TD.AperFunction*
M02*
