M48
; DRILL file {KiCad 7.0.8} date Sat Oct 12 14:26:21 2024
; FORMAT={-:-/ absolute / metric / decimal}
; #@! TF.CreationDate,2024-10-12T14:26:21+02:00
; #@! TF.GenerationSoftware,Kicad,Pcbnew,7.0.8
; #@! TF.FileFunction,Plated,1,2,PTH
FMAT,2
METRIC
; #@! TA.AperFunction,Plated,PTH,ViaDrill
T1C0.400
; #@! TA.AperFunction,Plated,PTH,ComponentDrill
T2C1.000
; #@! TA.AperFunction,Plated,PTH,ComponentDrill
T3C1.800
%
G90
G05
T1
X112.253Y-136.011
X114.082Y-134.03
X120.686Y-120.568
X122.667Y-118.638
X122.718Y-122.6
X123.328Y-97.81
X123.378Y-101.772
X123.734Y-133.522
X125.309Y-99.74
X126.477Y-135.859
X126.63Y-131.338
X128.306Y-89.707
X129.779Y-133.522
X130.998Y-131.388
X132.268Y-133.624
X134.554Y-135.808
X134.605Y-131.338
X134.758Y-127.121
X136.485Y-126.562
X139.355Y-131.617
X139.634Y-69.412
X139.73Y-136.1
X142.225Y-124.429
X142.581Y-102.89
X142.682Y-55.442
X143.292Y-121.584
X143.597Y-92.87
X143.597Y-101.823
X144.206Y-89.568
X144.714Y-96.172
X145.019Y-135.452
X145.476Y-119.755
X145.578Y-128.188
X145.629Y-124.124
X146.289Y-101.721
X146.34Y-55.29
X146.34Y-57.83
X146.34Y-60.37
X146.34Y-62.91
X146.34Y-65.45
X146.34Y-67.99
X146.34Y-70.53
X146.34Y-73.07
X146.34Y-75.61
X146.34Y-78.15
X146.34Y-80.69
X146.34Y-83.23
X146.34Y-89.072
X146.34Y-90.088
X146.34Y-92.374
X146.34Y-93.39
X146.34Y-95.676
X146.34Y-96.692
X146.34Y-98.724
X146.34Y-99.74
X147.508Y-87.142
X147.559Y-103.448
X147.61Y-89.072
X147.61Y-90.088
X147.61Y-92.374
X147.61Y-93.39
X147.61Y-95.676
X147.61Y-96.692
X147.61Y-98.724
X147.61Y-99.74
X147.61Y-119.806
X147.61Y-122.092
X147.712Y-101.67
X148.13Y-44.3
X149.337Y-119.603
X150.861Y-119.603
X151.03Y-44.3
X151.42Y-87.243
X151.42Y-101.67
X151.522Y-103.398
X151.674Y-89.072
X151.674Y-90.088
X151.674Y-92.374
X151.674Y-93.39
X151.674Y-95.676
X151.674Y-96.692
X151.674Y-98.724
X151.674Y-99.74
X151.725Y-84.856
X152.436Y-122.219
X152.69Y-55.29
X152.69Y-57.83
X152.69Y-60.37
X152.69Y-62.91
X152.69Y-65.45
X152.69Y-67.99
X152.69Y-70.53
X152.69Y-73.07
X152.69Y-75.61
X152.69Y-78.15
X152.69Y-80.69
X152.842Y-101.67
X152.944Y-89.072
X152.944Y-90.088
X152.944Y-92.374
X152.944Y-93.39
X152.944Y-95.676
X152.944Y-96.692
X152.944Y-98.724
X152.944Y-99.74
X153.604Y-124.276
X154.011Y-119.298
X154.062Y-126.816
X154.33Y-91.358
X154.33Y-94.533
X154.468Y-135.173
X154.671Y-87.65
X154.722Y-89.574
X155.293Y-100.947
X156.195Y-92.876
X156.297Y-96.178
X156.373Y-113.575
X156.551Y-55.442
X157.77Y-121.127
X158.075Y-122.752
X158.075Y-124.581
X158.634Y-130.931
X158.659Y-134.665
X159.497Y-69.514
X160.564Y-129.407
X161.199Y-134.665
X162.139Y-130.931
X174.483Y-99.689
X176.414Y-101.975
X176.464Y-97.657
X177.582Y-122.092
X177.633Y-117.266
X180.071Y-119.704
X183.995Y-134.036
X186.269Y-136.011
T2
X164.075Y-134.6
X166.615Y-134.6
X169.155Y-134.6
T3
X139.274Y-126.227
X160.356Y-126.227
T0
M30
