%TF.GenerationSoftware,KiCad,Pcbnew,7.0.8*%
%TF.CreationDate,2024-10-11T08:25:40+02:00*%
%TF.ProjectId,PCB_Christmas_Tree,5043425f-4368-4726-9973-746d61735f54,rev?*%
%TF.SameCoordinates,Original*%
%TF.FileFunction,Drillmap*%
%TF.FilePolarity,Positive*%
%FSLAX45Y45*%
G04 Gerber Fmt 4.5, Leading zero omitted, Abs format (unit mm)*
G04 Created by KiCad (PCBNEW 7.0.8) date 2024-10-11 08:25:40*
%MOMM*%
%LPD*%
G01*
G04 APERTURE LIST*
%ADD10C,0.100000*%
%ADD11C,0.200000*%
%ADD12C,0.040000*%
G04 APERTURE END LIST*
D10*
X11682300Y-10809800D02*
X14682300Y-14209800D01*
X10932300Y-7809800D02*
X12182300Y-7809800D01*
X4682300Y-14209800D02*
X9346700Y-14208400D01*
X10282300Y-14209800D02*
X14682300Y-14209800D01*
X13682300Y-10809800D02*
X11682300Y-10809800D01*
X7182300Y-7809800D02*
X8432300Y-7809800D01*
X9772300Y-4349800D02*
X9592300Y-4349800D01*
X7682300Y-10809800D02*
X5682300Y-10809800D01*
X10282300Y-14209800D02*
X10282300Y-11009800D01*
X9592300Y-4349800D02*
X7182300Y-7809800D01*
X10282300Y-11009800D02*
X9346700Y-11009800D01*
X10932300Y-7809800D02*
X13682300Y-10809800D01*
X7682300Y-10809800D02*
X4682300Y-14209800D01*
X9772300Y-4349800D02*
X12182300Y-7809800D01*
X8432300Y-7809800D02*
X5682300Y-10809800D01*
X9346700Y-11009800D02*
X9346700Y-14208400D01*
D11*
D12*
X6111060Y-13573720D02*
X6151060Y-13613720D01*
X6151060Y-13573720D02*
X6111060Y-13613720D01*
X6299020Y-13782000D02*
X6339020Y-13822000D01*
X6339020Y-13782000D02*
X6299020Y-13822000D01*
X6878140Y-12679640D02*
X6918140Y-12719640D01*
X6918140Y-12679640D02*
X6878140Y-12719640D01*
X7045780Y-10251400D02*
X7085780Y-10291400D01*
X7085780Y-10251400D02*
X7045780Y-10291400D01*
X7238820Y-10454600D02*
X7278820Y-10494600D01*
X7278820Y-10454600D02*
X7238820Y-10494600D01*
X7569020Y-9194760D02*
X7609020Y-9234760D01*
X7609020Y-9194760D02*
X7569020Y-9234760D01*
X7756980Y-9397960D02*
X7796980Y-9437960D01*
X7796980Y-9397960D02*
X7756980Y-9437960D01*
X7772220Y-8956000D02*
X7812220Y-8996000D01*
X7812220Y-8956000D02*
X7772220Y-8996000D01*
X8391980Y-7152600D02*
X8431980Y-7192600D01*
X8431980Y-7152600D02*
X8391980Y-7192600D01*
X8614400Y-7336100D02*
X8654400Y-7376100D01*
X8654400Y-7336100D02*
X8614400Y-7376100D01*
X8864420Y-5989280D02*
X8904420Y-6029280D01*
X8904420Y-5989280D02*
X8864420Y-6029280D01*
X9047300Y-10048200D02*
X9087300Y-10088200D01*
X9087300Y-10048200D02*
X9047300Y-10088200D01*
X9148900Y-9057600D02*
X9188900Y-9097600D01*
X9188900Y-9057600D02*
X9148900Y-9097600D01*
X9174300Y-10911800D02*
X9214300Y-10951800D01*
X9214300Y-10911800D02*
X9174300Y-10951800D01*
X9174300Y-11165800D02*
X9214300Y-11205800D01*
X9214300Y-11165800D02*
X9174300Y-11205800D01*
X9174300Y-11419800D02*
X9214300Y-11459800D01*
X9214300Y-11419800D02*
X9174300Y-11459800D01*
X9174300Y-11673800D02*
X9214300Y-11713800D01*
X9214300Y-11673800D02*
X9174300Y-11713800D01*
X9174300Y-11927800D02*
X9214300Y-11967800D01*
X9214300Y-11927800D02*
X9174300Y-11967800D01*
X9174300Y-12181800D02*
X9214300Y-12221800D01*
X9214300Y-12181800D02*
X9174300Y-12221800D01*
X9174300Y-12435800D02*
X9214300Y-12475800D01*
X9214300Y-12435800D02*
X9174300Y-12475800D01*
X9174300Y-12689800D02*
X9214300Y-12729800D01*
X9214300Y-12689800D02*
X9174300Y-12729800D01*
X9174300Y-12943800D02*
X9214300Y-12983800D01*
X9214300Y-12943800D02*
X9174300Y-12983800D01*
X9174300Y-13197800D02*
X9214300Y-13237800D01*
X9214300Y-13197800D02*
X9174300Y-13237800D01*
X9174300Y-13451800D02*
X9214300Y-13491800D01*
X9214300Y-13451800D02*
X9174300Y-13491800D01*
X9174300Y-13705800D02*
X9214300Y-13745800D01*
X9214300Y-13705800D02*
X9174300Y-13745800D01*
X9174300Y-13959800D02*
X9214300Y-13999800D01*
X9214300Y-13959800D02*
X9174300Y-13999800D01*
X9189540Y-10383480D02*
X9229540Y-10423480D01*
X9229540Y-10383480D02*
X9189540Y-10423480D01*
X9199700Y-9400800D02*
X9239700Y-9440800D01*
X9239700Y-9400800D02*
X9199700Y-9440800D01*
X9377500Y-10314900D02*
X9417500Y-10354900D01*
X9417500Y-10314900D02*
X9377500Y-10354900D01*
X9377500Y-10416500D02*
X9417500Y-10456500D01*
X9417500Y-10416500D02*
X9377500Y-10456500D01*
X9390200Y-9349700D02*
X9430200Y-9389700D01*
X9430200Y-9349700D02*
X9390200Y-9389700D01*
X9390200Y-9451300D02*
X9430200Y-9491300D01*
X9430200Y-9451300D02*
X9390200Y-9491300D01*
X9390200Y-9679900D02*
X9430200Y-9719900D01*
X9430200Y-9679900D02*
X9390200Y-9719900D01*
X9390200Y-9781500D02*
X9430200Y-9821500D01*
X9430200Y-9781500D02*
X9390200Y-9821500D01*
X9390200Y-10010100D02*
X9430200Y-10050100D01*
X9430200Y-10010100D02*
X9390200Y-10050100D01*
X9390200Y-10111700D02*
X9430200Y-10151700D01*
X9430200Y-10111700D02*
X9390200Y-10151700D01*
X9428300Y-9133800D02*
X9468300Y-9173800D01*
X9468300Y-9133800D02*
X9428300Y-9173800D01*
X9453700Y-10657800D02*
X9493700Y-10697800D01*
X9493700Y-10657800D02*
X9453700Y-10697800D01*
X9522300Y-4909800D02*
X9562300Y-4949800D01*
X9562300Y-4909800D02*
X9522300Y-4949800D01*
X9529900Y-10314900D02*
X9569900Y-10354900D01*
X9569900Y-10314900D02*
X9529900Y-10354900D01*
X9529900Y-10416500D02*
X9569900Y-10456500D01*
X9569900Y-10416500D02*
X9529900Y-10456500D01*
X9542600Y-9349700D02*
X9582600Y-9389700D01*
X9582600Y-9349700D02*
X9542600Y-9389700D01*
X9542600Y-9451300D02*
X9582600Y-9491300D01*
X9582600Y-9451300D02*
X9542600Y-9491300D01*
X9542600Y-9679900D02*
X9582600Y-9719900D01*
X9582600Y-9679900D02*
X9542600Y-9719900D01*
X9542600Y-9781500D02*
X9582600Y-9821500D01*
X9582600Y-9781500D02*
X9542600Y-9821500D01*
X9542600Y-10010100D02*
X9582600Y-10050100D01*
X9582600Y-10010100D02*
X9542600Y-10050100D01*
X9542600Y-10111700D02*
X9582600Y-10151700D01*
X9582600Y-10111700D02*
X9542600Y-10151700D01*
X9555300Y-5450800D02*
X9595300Y-5490800D01*
X9595300Y-5450800D02*
X9555300Y-5490800D01*
X9555300Y-5958800D02*
X9595300Y-5998800D01*
X9595300Y-5958800D02*
X9555300Y-5998800D01*
X9555300Y-6466800D02*
X9595300Y-6506800D01*
X9595300Y-6466800D02*
X9555300Y-6506800D01*
X9555300Y-6974800D02*
X9595300Y-7014800D01*
X9595300Y-6974800D02*
X9555300Y-7014800D01*
X9555300Y-7482800D02*
X9595300Y-7522800D01*
X9595300Y-7482800D02*
X9555300Y-7522800D01*
X9555300Y-7863800D02*
X9595300Y-7903800D01*
X9595300Y-7863800D02*
X9555300Y-7903800D01*
X9555300Y-8371800D02*
X9595300Y-8411800D01*
X9595300Y-8371800D02*
X9555300Y-8411800D01*
X9555300Y-8879800D02*
X9595300Y-8919800D01*
X9595300Y-8879800D02*
X9555300Y-8919800D01*
X9682300Y-5704800D02*
X9722300Y-5744800D01*
X9722300Y-5704800D02*
X9682300Y-5744800D01*
X9682300Y-6212800D02*
X9722300Y-6252800D01*
X9722300Y-6212800D02*
X9682300Y-6252800D01*
X9682300Y-6720800D02*
X9722300Y-6760800D01*
X9722300Y-6720800D02*
X9682300Y-6760800D01*
X9682300Y-7228800D02*
X9722300Y-7268800D01*
X9722300Y-7228800D02*
X9682300Y-7268800D01*
X9682300Y-8117800D02*
X9722300Y-8157800D01*
X9722300Y-8117800D02*
X9682300Y-8157800D01*
X9682300Y-8625800D02*
X9722300Y-8665800D01*
X9722300Y-8625800D02*
X9682300Y-8665800D01*
X9783900Y-9349700D02*
X9823900Y-9389700D01*
X9823900Y-9349700D02*
X9783900Y-9389700D01*
X9783900Y-9451300D02*
X9823900Y-9491300D01*
X9823900Y-9451300D02*
X9783900Y-9491300D01*
X9783900Y-9679900D02*
X9823900Y-9719900D01*
X9823900Y-9679900D02*
X9783900Y-9719900D01*
X9783900Y-9781500D02*
X9823900Y-9821500D01*
X9823900Y-9781500D02*
X9783900Y-9821500D01*
X9783900Y-10010100D02*
X9823900Y-10050100D01*
X9823900Y-10010100D02*
X9783900Y-10050100D01*
X9783900Y-10111700D02*
X9823900Y-10151700D01*
X9823900Y-10111700D02*
X9783900Y-10151700D01*
X9783900Y-10314900D02*
X9823900Y-10354900D01*
X9823900Y-10314900D02*
X9783900Y-10354900D01*
X9783900Y-10416500D02*
X9823900Y-10456500D01*
X9823900Y-10416500D02*
X9783900Y-10456500D01*
X9812300Y-4909800D02*
X9852300Y-4949800D01*
X9852300Y-4909800D02*
X9812300Y-4949800D01*
X9880420Y-10657800D02*
X9920420Y-10697800D01*
X9920420Y-10657800D02*
X9880420Y-10697800D01*
X9936300Y-9349700D02*
X9976300Y-9389700D01*
X9976300Y-9349700D02*
X9936300Y-9389700D01*
X9936300Y-9451300D02*
X9976300Y-9491300D01*
X9976300Y-9451300D02*
X9936300Y-9491300D01*
X9936300Y-9679900D02*
X9976300Y-9719900D01*
X9976300Y-9679900D02*
X9936300Y-9719900D01*
X9936300Y-9781500D02*
X9976300Y-9821500D01*
X9976300Y-9781500D02*
X9936300Y-9821500D01*
X9936300Y-10010100D02*
X9976300Y-10050100D01*
X9976300Y-10010100D02*
X9936300Y-10050100D01*
X9936300Y-10111700D02*
X9976300Y-10151700D01*
X9976300Y-10111700D02*
X9936300Y-10151700D01*
X9936300Y-10314900D02*
X9976300Y-10354900D01*
X9976300Y-10314900D02*
X9936300Y-10354900D01*
X9936300Y-10416500D02*
X9976300Y-10456500D01*
X9976300Y-10416500D02*
X9936300Y-10456500D01*
X10144580Y-8183840D02*
X10184580Y-8223840D01*
X10184580Y-8183840D02*
X10144580Y-8223840D01*
X10144580Y-9291280D02*
X10184580Y-9331280D01*
X10184580Y-9291280D02*
X10144580Y-9331280D01*
X10152200Y-10365700D02*
X10192200Y-10405700D01*
X10192200Y-10365700D02*
X10152200Y-10405700D01*
X10190300Y-10657800D02*
X10230300Y-10697800D01*
X10230300Y-10657800D02*
X10190300Y-10697800D01*
X10362300Y-10911800D02*
X10402300Y-10951800D01*
X10402300Y-10911800D02*
X10362300Y-10951800D01*
X10362300Y-11165800D02*
X10402300Y-11205800D01*
X10402300Y-11165800D02*
X10362300Y-11205800D01*
X10362300Y-11419800D02*
X10402300Y-11459800D01*
X10402300Y-11419800D02*
X10362300Y-11459800D01*
X10362300Y-11673800D02*
X10402300Y-11713800D01*
X10402300Y-11673800D02*
X10362300Y-11713800D01*
X10362300Y-11927800D02*
X10402300Y-11967800D01*
X10402300Y-11927800D02*
X10362300Y-11967800D01*
X10362300Y-12181800D02*
X10402300Y-12221800D01*
X10402300Y-12181800D02*
X10362300Y-12221800D01*
X10362300Y-12435800D02*
X10402300Y-12475800D01*
X10402300Y-12435800D02*
X10362300Y-12475800D01*
X10362300Y-12689800D02*
X10402300Y-12729800D01*
X10402300Y-12689800D02*
X10362300Y-12729800D01*
X10362300Y-12943800D02*
X10402300Y-12983800D01*
X10402300Y-12943800D02*
X10362300Y-12983800D01*
X10362300Y-13197800D02*
X10402300Y-13237800D01*
X10402300Y-13197800D02*
X10362300Y-13237800D01*
X10362300Y-13451800D02*
X10402300Y-13491800D01*
X10402300Y-13451800D02*
X10362300Y-13491800D01*
X10362300Y-13705800D02*
X10402300Y-13745800D01*
X10402300Y-13705800D02*
X10362300Y-13745800D01*
X10362300Y-13959800D02*
X10402300Y-13999800D01*
X10402300Y-13959800D02*
X10362300Y-13999800D01*
X10454460Y-5989280D02*
X10494460Y-6029280D01*
X10494460Y-5989280D02*
X10454460Y-6029280D01*
X10642300Y-7350400D02*
X10682300Y-7390400D01*
X10682300Y-7350400D02*
X10642300Y-7390400D01*
X10647500Y-9895800D02*
X10687500Y-9935800D01*
X10687500Y-9895800D02*
X10647500Y-9935800D01*
X10830380Y-7147520D02*
X10870380Y-7187520D01*
X10870380Y-7147520D02*
X10830380Y-7187520D01*
X11130100Y-9895800D02*
X11170100Y-9935800D01*
X11170100Y-9895800D02*
X11130100Y-9935800D01*
X11653340Y-9403040D02*
X11693340Y-9443040D01*
X11693340Y-9403040D02*
X11653340Y-9443040D01*
X11663500Y-8966160D02*
X11703500Y-9006160D01*
X11703500Y-8966160D02*
X11663500Y-9006160D01*
X11861620Y-9169360D02*
X11901620Y-9209360D01*
X11901620Y-9169360D02*
X11861620Y-9209360D01*
X11988620Y-10474920D02*
X12028620Y-10514920D01*
X12028620Y-10474920D02*
X11988620Y-10514920D01*
X12191820Y-10271720D02*
X12231820Y-10311720D01*
X12231820Y-10271720D02*
X12191820Y-10311720D01*
X12455980Y-12181800D02*
X12495980Y-12221800D01*
X12495980Y-12181800D02*
X12455980Y-12221800D01*
X12643940Y-12379920D02*
X12683940Y-12419920D01*
X12683940Y-12379920D02*
X12643940Y-12419920D01*
X13019860Y-13827720D02*
X13059860Y-13867720D01*
X13059860Y-13827720D02*
X13019860Y-13867720D01*
X13202740Y-13624520D02*
X13242740Y-13664520D01*
X13242740Y-13624520D02*
X13202740Y-13664520D01*
D11*
X4938077Y-14526284D02*
X4938077Y-14326284D01*
X4938077Y-14326284D02*
X4985696Y-14326284D01*
X4985696Y-14326284D02*
X5014267Y-14335808D01*
X5014267Y-14335808D02*
X5033315Y-14354855D01*
X5033315Y-14354855D02*
X5042839Y-14373903D01*
X5042839Y-14373903D02*
X5052363Y-14411998D01*
X5052363Y-14411998D02*
X5052363Y-14440569D01*
X5052363Y-14440569D02*
X5042839Y-14478665D01*
X5042839Y-14478665D02*
X5033315Y-14497712D01*
X5033315Y-14497712D02*
X5014267Y-14516760D01*
X5014267Y-14516760D02*
X4985696Y-14526284D01*
X4985696Y-14526284D02*
X4938077Y-14526284D01*
X5138077Y-14526284D02*
X5138077Y-14392950D01*
X5138077Y-14431046D02*
X5147601Y-14411998D01*
X5147601Y-14411998D02*
X5157124Y-14402474D01*
X5157124Y-14402474D02*
X5176172Y-14392950D01*
X5176172Y-14392950D02*
X5195220Y-14392950D01*
X5261886Y-14526284D02*
X5261886Y-14392950D01*
X5261886Y-14326284D02*
X5252363Y-14335808D01*
X5252363Y-14335808D02*
X5261886Y-14345331D01*
X5261886Y-14345331D02*
X5271410Y-14335808D01*
X5271410Y-14335808D02*
X5261886Y-14326284D01*
X5261886Y-14326284D02*
X5261886Y-14345331D01*
X5385696Y-14526284D02*
X5366648Y-14516760D01*
X5366648Y-14516760D02*
X5357124Y-14497712D01*
X5357124Y-14497712D02*
X5357124Y-14326284D01*
X5490458Y-14526284D02*
X5471410Y-14516760D01*
X5471410Y-14516760D02*
X5461886Y-14497712D01*
X5461886Y-14497712D02*
X5461886Y-14326284D01*
X5719029Y-14526284D02*
X5719029Y-14326284D01*
X5719029Y-14326284D02*
X5785696Y-14469141D01*
X5785696Y-14469141D02*
X5852362Y-14326284D01*
X5852362Y-14326284D02*
X5852362Y-14526284D01*
X6033315Y-14526284D02*
X6033315Y-14421522D01*
X6033315Y-14421522D02*
X6023791Y-14402474D01*
X6023791Y-14402474D02*
X6004743Y-14392950D01*
X6004743Y-14392950D02*
X5966648Y-14392950D01*
X5966648Y-14392950D02*
X5947601Y-14402474D01*
X6033315Y-14516760D02*
X6014267Y-14526284D01*
X6014267Y-14526284D02*
X5966648Y-14526284D01*
X5966648Y-14526284D02*
X5947601Y-14516760D01*
X5947601Y-14516760D02*
X5938077Y-14497712D01*
X5938077Y-14497712D02*
X5938077Y-14478665D01*
X5938077Y-14478665D02*
X5947601Y-14459617D01*
X5947601Y-14459617D02*
X5966648Y-14450093D01*
X5966648Y-14450093D02*
X6014267Y-14450093D01*
X6014267Y-14450093D02*
X6033315Y-14440569D01*
X6128553Y-14392950D02*
X6128553Y-14592950D01*
X6128553Y-14402474D02*
X6147601Y-14392950D01*
X6147601Y-14392950D02*
X6185696Y-14392950D01*
X6185696Y-14392950D02*
X6204743Y-14402474D01*
X6204743Y-14402474D02*
X6214267Y-14411998D01*
X6214267Y-14411998D02*
X6223791Y-14431046D01*
X6223791Y-14431046D02*
X6223791Y-14488188D01*
X6223791Y-14488188D02*
X6214267Y-14507236D01*
X6214267Y-14507236D02*
X6204743Y-14516760D01*
X6204743Y-14516760D02*
X6185696Y-14526284D01*
X6185696Y-14526284D02*
X6147601Y-14526284D01*
X6147601Y-14526284D02*
X6128553Y-14516760D01*
X6309505Y-14507236D02*
X6319029Y-14516760D01*
X6319029Y-14516760D02*
X6309505Y-14526284D01*
X6309505Y-14526284D02*
X6299982Y-14516760D01*
X6299982Y-14516760D02*
X6309505Y-14507236D01*
X6309505Y-14507236D02*
X6309505Y-14526284D01*
X6309505Y-14402474D02*
X6319029Y-14411998D01*
X6319029Y-14411998D02*
X6309505Y-14421522D01*
X6309505Y-14421522D02*
X6299982Y-14411998D01*
X6299982Y-14411998D02*
X6309505Y-14402474D01*
X6309505Y-14402474D02*
X6309505Y-14421522D01*
D12*
X4637300Y-14834800D02*
X4677300Y-14874800D01*
X4677300Y-14834800D02*
X4637300Y-14874800D01*
D11*
X4976172Y-14746284D02*
X4995220Y-14746284D01*
X4995220Y-14746284D02*
X5014267Y-14755808D01*
X5014267Y-14755808D02*
X5023791Y-14765331D01*
X5023791Y-14765331D02*
X5033315Y-14784379D01*
X5033315Y-14784379D02*
X5042839Y-14822474D01*
X5042839Y-14822474D02*
X5042839Y-14870093D01*
X5042839Y-14870093D02*
X5033315Y-14908188D01*
X5033315Y-14908188D02*
X5023791Y-14927236D01*
X5023791Y-14927236D02*
X5014267Y-14936760D01*
X5014267Y-14936760D02*
X4995220Y-14946284D01*
X4995220Y-14946284D02*
X4976172Y-14946284D01*
X4976172Y-14946284D02*
X4957124Y-14936760D01*
X4957124Y-14936760D02*
X4947601Y-14927236D01*
X4947601Y-14927236D02*
X4938077Y-14908188D01*
X4938077Y-14908188D02*
X4928553Y-14870093D01*
X4928553Y-14870093D02*
X4928553Y-14822474D01*
X4928553Y-14822474D02*
X4938077Y-14784379D01*
X4938077Y-14784379D02*
X4947601Y-14765331D01*
X4947601Y-14765331D02*
X4957124Y-14755808D01*
X4957124Y-14755808D02*
X4976172Y-14746284D01*
X5128553Y-14927236D02*
X5138077Y-14936760D01*
X5138077Y-14936760D02*
X5128553Y-14946284D01*
X5128553Y-14946284D02*
X5119029Y-14936760D01*
X5119029Y-14936760D02*
X5128553Y-14927236D01*
X5128553Y-14927236D02*
X5128553Y-14946284D01*
X5309505Y-14812950D02*
X5309505Y-14946284D01*
X5261886Y-14736760D02*
X5214267Y-14879617D01*
X5214267Y-14879617D02*
X5338077Y-14879617D01*
X5452363Y-14746284D02*
X5471410Y-14746284D01*
X5471410Y-14746284D02*
X5490458Y-14755808D01*
X5490458Y-14755808D02*
X5499982Y-14765331D01*
X5499982Y-14765331D02*
X5509505Y-14784379D01*
X5509505Y-14784379D02*
X5519029Y-14822474D01*
X5519029Y-14822474D02*
X5519029Y-14870093D01*
X5519029Y-14870093D02*
X5509505Y-14908188D01*
X5509505Y-14908188D02*
X5499982Y-14927236D01*
X5499982Y-14927236D02*
X5490458Y-14936760D01*
X5490458Y-14936760D02*
X5471410Y-14946284D01*
X5471410Y-14946284D02*
X5452363Y-14946284D01*
X5452363Y-14946284D02*
X5433315Y-14936760D01*
X5433315Y-14936760D02*
X5423791Y-14927236D01*
X5423791Y-14927236D02*
X5414267Y-14908188D01*
X5414267Y-14908188D02*
X5404744Y-14870093D01*
X5404744Y-14870093D02*
X5404744Y-14822474D01*
X5404744Y-14822474D02*
X5414267Y-14784379D01*
X5414267Y-14784379D02*
X5423791Y-14765331D01*
X5423791Y-14765331D02*
X5433315Y-14755808D01*
X5433315Y-14755808D02*
X5452363Y-14746284D01*
X5642839Y-14746284D02*
X5661886Y-14746284D01*
X5661886Y-14746284D02*
X5680934Y-14755808D01*
X5680934Y-14755808D02*
X5690458Y-14765331D01*
X5690458Y-14765331D02*
X5699982Y-14784379D01*
X5699982Y-14784379D02*
X5709505Y-14822474D01*
X5709505Y-14822474D02*
X5709505Y-14870093D01*
X5709505Y-14870093D02*
X5699982Y-14908188D01*
X5699982Y-14908188D02*
X5690458Y-14927236D01*
X5690458Y-14927236D02*
X5680934Y-14936760D01*
X5680934Y-14936760D02*
X5661886Y-14946284D01*
X5661886Y-14946284D02*
X5642839Y-14946284D01*
X5642839Y-14946284D02*
X5623791Y-14936760D01*
X5623791Y-14936760D02*
X5614267Y-14927236D01*
X5614267Y-14927236D02*
X5604743Y-14908188D01*
X5604743Y-14908188D02*
X5595220Y-14870093D01*
X5595220Y-14870093D02*
X5595220Y-14822474D01*
X5595220Y-14822474D02*
X5604743Y-14784379D01*
X5604743Y-14784379D02*
X5614267Y-14765331D01*
X5614267Y-14765331D02*
X5623791Y-14755808D01*
X5623791Y-14755808D02*
X5642839Y-14746284D01*
X5795220Y-14946284D02*
X5795220Y-14812950D01*
X5795220Y-14831998D02*
X5804743Y-14822474D01*
X5804743Y-14822474D02*
X5823791Y-14812950D01*
X5823791Y-14812950D02*
X5852363Y-14812950D01*
X5852363Y-14812950D02*
X5871410Y-14822474D01*
X5871410Y-14822474D02*
X5880934Y-14841522D01*
X5880934Y-14841522D02*
X5880934Y-14946284D01*
X5880934Y-14841522D02*
X5890458Y-14822474D01*
X5890458Y-14822474D02*
X5909505Y-14812950D01*
X5909505Y-14812950D02*
X5938077Y-14812950D01*
X5938077Y-14812950D02*
X5957124Y-14822474D01*
X5957124Y-14822474D02*
X5966648Y-14841522D01*
X5966648Y-14841522D02*
X5966648Y-14946284D01*
X6061886Y-14946284D02*
X6061886Y-14812950D01*
X6061886Y-14831998D02*
X6071410Y-14822474D01*
X6071410Y-14822474D02*
X6090458Y-14812950D01*
X6090458Y-14812950D02*
X6119029Y-14812950D01*
X6119029Y-14812950D02*
X6138077Y-14822474D01*
X6138077Y-14822474D02*
X6147601Y-14841522D01*
X6147601Y-14841522D02*
X6147601Y-14946284D01*
X6147601Y-14841522D02*
X6157124Y-14822474D01*
X6157124Y-14822474D02*
X6176172Y-14812950D01*
X6176172Y-14812950D02*
X6204743Y-14812950D01*
X6204743Y-14812950D02*
X6223791Y-14822474D01*
X6223791Y-14822474D02*
X6233315Y-14841522D01*
X6233315Y-14841522D02*
X6233315Y-14946284D01*
X6623791Y-14736760D02*
X6452363Y-14993903D01*
X6880934Y-14746284D02*
X6899982Y-14746284D01*
X6899982Y-14746284D02*
X6919029Y-14755808D01*
X6919029Y-14755808D02*
X6928553Y-14765331D01*
X6928553Y-14765331D02*
X6938077Y-14784379D01*
X6938077Y-14784379D02*
X6947601Y-14822474D01*
X6947601Y-14822474D02*
X6947601Y-14870093D01*
X6947601Y-14870093D02*
X6938077Y-14908188D01*
X6938077Y-14908188D02*
X6928553Y-14927236D01*
X6928553Y-14927236D02*
X6919029Y-14936760D01*
X6919029Y-14936760D02*
X6899982Y-14946284D01*
X6899982Y-14946284D02*
X6880934Y-14946284D01*
X6880934Y-14946284D02*
X6861886Y-14936760D01*
X6861886Y-14936760D02*
X6852363Y-14927236D01*
X6852363Y-14927236D02*
X6842839Y-14908188D01*
X6842839Y-14908188D02*
X6833315Y-14870093D01*
X6833315Y-14870093D02*
X6833315Y-14822474D01*
X6833315Y-14822474D02*
X6842839Y-14784379D01*
X6842839Y-14784379D02*
X6852363Y-14765331D01*
X6852363Y-14765331D02*
X6861886Y-14755808D01*
X6861886Y-14755808D02*
X6880934Y-14746284D01*
X7033315Y-14927236D02*
X7042839Y-14936760D01*
X7042839Y-14936760D02*
X7033315Y-14946284D01*
X7033315Y-14946284D02*
X7023791Y-14936760D01*
X7023791Y-14936760D02*
X7033315Y-14927236D01*
X7033315Y-14927236D02*
X7033315Y-14946284D01*
X7166648Y-14746284D02*
X7185696Y-14746284D01*
X7185696Y-14746284D02*
X7204744Y-14755808D01*
X7204744Y-14755808D02*
X7214267Y-14765331D01*
X7214267Y-14765331D02*
X7223791Y-14784379D01*
X7223791Y-14784379D02*
X7233315Y-14822474D01*
X7233315Y-14822474D02*
X7233315Y-14870093D01*
X7233315Y-14870093D02*
X7223791Y-14908188D01*
X7223791Y-14908188D02*
X7214267Y-14927236D01*
X7214267Y-14927236D02*
X7204744Y-14936760D01*
X7204744Y-14936760D02*
X7185696Y-14946284D01*
X7185696Y-14946284D02*
X7166648Y-14946284D01*
X7166648Y-14946284D02*
X7147601Y-14936760D01*
X7147601Y-14936760D02*
X7138077Y-14927236D01*
X7138077Y-14927236D02*
X7128553Y-14908188D01*
X7128553Y-14908188D02*
X7119029Y-14870093D01*
X7119029Y-14870093D02*
X7119029Y-14822474D01*
X7119029Y-14822474D02*
X7128553Y-14784379D01*
X7128553Y-14784379D02*
X7138077Y-14765331D01*
X7138077Y-14765331D02*
X7147601Y-14755808D01*
X7147601Y-14755808D02*
X7166648Y-14746284D01*
X7423791Y-14946284D02*
X7309506Y-14946284D01*
X7366648Y-14946284D02*
X7366648Y-14746284D01*
X7366648Y-14746284D02*
X7347601Y-14774855D01*
X7347601Y-14774855D02*
X7328553Y-14793903D01*
X7328553Y-14793903D02*
X7309506Y-14803427D01*
X7604744Y-14746284D02*
X7509506Y-14746284D01*
X7509506Y-14746284D02*
X7499982Y-14841522D01*
X7499982Y-14841522D02*
X7509506Y-14831998D01*
X7509506Y-14831998D02*
X7528553Y-14822474D01*
X7528553Y-14822474D02*
X7576172Y-14822474D01*
X7576172Y-14822474D02*
X7595220Y-14831998D01*
X7595220Y-14831998D02*
X7604744Y-14841522D01*
X7604744Y-14841522D02*
X7614267Y-14860569D01*
X7614267Y-14860569D02*
X7614267Y-14908188D01*
X7614267Y-14908188D02*
X7604744Y-14927236D01*
X7604744Y-14927236D02*
X7595220Y-14936760D01*
X7595220Y-14936760D02*
X7576172Y-14946284D01*
X7576172Y-14946284D02*
X7528553Y-14946284D01*
X7528553Y-14946284D02*
X7509506Y-14936760D01*
X7509506Y-14936760D02*
X7499982Y-14927236D01*
X7680934Y-14746284D02*
X7814267Y-14746284D01*
X7814267Y-14746284D02*
X7728553Y-14946284D01*
X7880934Y-14746284D02*
X7880934Y-14784379D01*
X7957125Y-14746284D02*
X7957125Y-14784379D01*
X8252363Y-15022474D02*
X8242839Y-15012950D01*
X8242839Y-15012950D02*
X8223791Y-14984379D01*
X8223791Y-14984379D02*
X8214268Y-14965331D01*
X8214268Y-14965331D02*
X8204744Y-14936760D01*
X8204744Y-14936760D02*
X8195220Y-14889141D01*
X8195220Y-14889141D02*
X8195220Y-14851046D01*
X8195220Y-14851046D02*
X8204744Y-14803427D01*
X8204744Y-14803427D02*
X8214268Y-14774855D01*
X8214268Y-14774855D02*
X8223791Y-14755808D01*
X8223791Y-14755808D02*
X8242839Y-14727236D01*
X8242839Y-14727236D02*
X8252363Y-14717712D01*
X8433315Y-14946284D02*
X8319029Y-14946284D01*
X8376172Y-14946284D02*
X8376172Y-14746284D01*
X8376172Y-14746284D02*
X8357125Y-14774855D01*
X8357125Y-14774855D02*
X8338077Y-14793903D01*
X8338077Y-14793903D02*
X8319029Y-14803427D01*
X8623791Y-14946284D02*
X8509506Y-14946284D01*
X8566649Y-14946284D02*
X8566649Y-14746284D01*
X8566649Y-14746284D02*
X8547601Y-14774855D01*
X8547601Y-14774855D02*
X8528553Y-14793903D01*
X8528553Y-14793903D02*
X8509506Y-14803427D01*
X8747601Y-14746284D02*
X8766649Y-14746284D01*
X8766649Y-14746284D02*
X8785696Y-14755808D01*
X8785696Y-14755808D02*
X8795220Y-14765331D01*
X8795220Y-14765331D02*
X8804744Y-14784379D01*
X8804744Y-14784379D02*
X8814268Y-14822474D01*
X8814268Y-14822474D02*
X8814268Y-14870093D01*
X8814268Y-14870093D02*
X8804744Y-14908188D01*
X8804744Y-14908188D02*
X8795220Y-14927236D01*
X8795220Y-14927236D02*
X8785696Y-14936760D01*
X8785696Y-14936760D02*
X8766649Y-14946284D01*
X8766649Y-14946284D02*
X8747601Y-14946284D01*
X8747601Y-14946284D02*
X8728553Y-14936760D01*
X8728553Y-14936760D02*
X8719030Y-14927236D01*
X8719030Y-14927236D02*
X8709506Y-14908188D01*
X8709506Y-14908188D02*
X8699982Y-14870093D01*
X8699982Y-14870093D02*
X8699982Y-14822474D01*
X8699982Y-14822474D02*
X8709506Y-14784379D01*
X8709506Y-14784379D02*
X8719030Y-14765331D01*
X8719030Y-14765331D02*
X8728553Y-14755808D01*
X8728553Y-14755808D02*
X8747601Y-14746284D01*
X9052363Y-14946284D02*
X9052363Y-14746284D01*
X9138077Y-14946284D02*
X9138077Y-14841522D01*
X9138077Y-14841522D02*
X9128553Y-14822474D01*
X9128553Y-14822474D02*
X9109506Y-14812950D01*
X9109506Y-14812950D02*
X9080934Y-14812950D01*
X9080934Y-14812950D02*
X9061887Y-14822474D01*
X9061887Y-14822474D02*
X9052363Y-14831998D01*
X9261887Y-14946284D02*
X9242839Y-14936760D01*
X9242839Y-14936760D02*
X9233315Y-14927236D01*
X9233315Y-14927236D02*
X9223792Y-14908188D01*
X9223792Y-14908188D02*
X9223792Y-14851046D01*
X9223792Y-14851046D02*
X9233315Y-14831998D01*
X9233315Y-14831998D02*
X9242839Y-14822474D01*
X9242839Y-14822474D02*
X9261887Y-14812950D01*
X9261887Y-14812950D02*
X9290458Y-14812950D01*
X9290458Y-14812950D02*
X9309506Y-14822474D01*
X9309506Y-14822474D02*
X9319030Y-14831998D01*
X9319030Y-14831998D02*
X9328553Y-14851046D01*
X9328553Y-14851046D02*
X9328553Y-14908188D01*
X9328553Y-14908188D02*
X9319030Y-14927236D01*
X9319030Y-14927236D02*
X9309506Y-14936760D01*
X9309506Y-14936760D02*
X9290458Y-14946284D01*
X9290458Y-14946284D02*
X9261887Y-14946284D01*
X9442839Y-14946284D02*
X9423792Y-14936760D01*
X9423792Y-14936760D02*
X9414268Y-14917712D01*
X9414268Y-14917712D02*
X9414268Y-14746284D01*
X9595220Y-14936760D02*
X9576173Y-14946284D01*
X9576173Y-14946284D02*
X9538077Y-14946284D01*
X9538077Y-14946284D02*
X9519030Y-14936760D01*
X9519030Y-14936760D02*
X9509506Y-14917712D01*
X9509506Y-14917712D02*
X9509506Y-14841522D01*
X9509506Y-14841522D02*
X9519030Y-14822474D01*
X9519030Y-14822474D02*
X9538077Y-14812950D01*
X9538077Y-14812950D02*
X9576173Y-14812950D01*
X9576173Y-14812950D02*
X9595220Y-14822474D01*
X9595220Y-14822474D02*
X9604744Y-14841522D01*
X9604744Y-14841522D02*
X9604744Y-14860569D01*
X9604744Y-14860569D02*
X9509506Y-14879617D01*
X9680934Y-14936760D02*
X9699982Y-14946284D01*
X9699982Y-14946284D02*
X9738077Y-14946284D01*
X9738077Y-14946284D02*
X9757125Y-14936760D01*
X9757125Y-14936760D02*
X9766649Y-14917712D01*
X9766649Y-14917712D02*
X9766649Y-14908188D01*
X9766649Y-14908188D02*
X9757125Y-14889141D01*
X9757125Y-14889141D02*
X9738077Y-14879617D01*
X9738077Y-14879617D02*
X9709506Y-14879617D01*
X9709506Y-14879617D02*
X9690458Y-14870093D01*
X9690458Y-14870093D02*
X9680934Y-14851046D01*
X9680934Y-14851046D02*
X9680934Y-14841522D01*
X9680934Y-14841522D02*
X9690458Y-14822474D01*
X9690458Y-14822474D02*
X9709506Y-14812950D01*
X9709506Y-14812950D02*
X9738077Y-14812950D01*
X9738077Y-14812950D02*
X9757125Y-14822474D01*
X9833315Y-15022474D02*
X9842839Y-15012950D01*
X9842839Y-15012950D02*
X9861887Y-14984379D01*
X9861887Y-14984379D02*
X9871411Y-14965331D01*
X9871411Y-14965331D02*
X9880934Y-14936760D01*
X9880934Y-14936760D02*
X9890458Y-14889141D01*
X9890458Y-14889141D02*
X9890458Y-14851046D01*
X9890458Y-14851046D02*
X9880934Y-14803427D01*
X9880934Y-14803427D02*
X9871411Y-14774855D01*
X9871411Y-14774855D02*
X9861887Y-14755808D01*
X9861887Y-14755808D02*
X9842839Y-14727236D01*
X9842839Y-14727236D02*
X9833315Y-14717712D01*
M02*
