G04 #@! TF.GenerationSoftware,KiCad,Pcbnew,7.0.8*
G04 #@! TF.CreationDate,2024-10-12T14:26:50+02:00*
G04 #@! TF.ProjectId,PCB_Christmas_Tree,5043425f-4368-4726-9973-746d61735f54,rev?*
G04 #@! TF.SameCoordinates,Original*
G04 #@! TF.FileFunction,Legend,Bot*
G04 #@! TF.FilePolarity,Positive*
%FSLAX46Y46*%
G04 Gerber Fmt 4.6, Leading zero omitted, Abs format (unit mm)*
G04 Created by KiCad (PCBNEW 7.0.8) date 2024-10-12 14:26:50*
%MOMM*%
%LPD*%
G01*
G04 APERTURE LIST*
G04 Aperture macros list*
%AMRoundRect*
0 Rectangle with rounded corners*
0 $1 Rounding radius*
0 $2 $3 $4 $5 $6 $7 $8 $9 X,Y pos of 4 corners*
0 Add a 4 corners polygon primitive as box body*
4,1,4,$2,$3,$4,$5,$6,$7,$8,$9,$2,$3,0*
0 Add four circle primitives for the rounded corners*
1,1,$1+$1,$2,$3*
1,1,$1+$1,$4,$5*
1,1,$1+$1,$6,$7*
1,1,$1+$1,$8,$9*
0 Add four rect primitives between the rounded corners*
20,1,$1+$1,$2,$3,$4,$5,0*
20,1,$1+$1,$4,$5,$6,$7,0*
20,1,$1+$1,$6,$7,$8,$9,0*
20,1,$1+$1,$8,$9,$2,$3,0*%
G04 Aperture macros list end*
%ADD10C,0.400000*%
%ADD11C,2.000000*%
%ADD12C,0.150000*%
%ADD13C,0.120000*%
%ADD14RoundRect,0.250000X-0.325000X-0.450000X0.325000X-0.450000X0.325000X0.450000X-0.325000X0.450000X0*%
%ADD15RoundRect,0.250000X0.450000X-0.325000X0.450000X0.325000X-0.450000X0.325000X-0.450000X-0.325000X0*%
%ADD16RoundRect,0.250000X0.350000X0.450000X-0.350000X0.450000X-0.350000X-0.450000X0.350000X-0.450000X0*%
%ADD17RoundRect,0.250000X0.250000X0.750000X-0.250000X0.750000X-0.250000X-0.750000X0.250000X-0.750000X0*%
%ADD18R,3.000000X2.000000*%
G04 APERTURE END LIST*
D10*
X112043000Y-131908000D02*
X112493000Y-133168000D01*
X112863000Y-134068000D02*
X113483000Y-135808000D01*
X101993000Y-61318000D02*
X100483000Y-62448000D01*
X109663000Y-88658000D02*
X108983000Y-90438000D01*
X81943000Y-70128000D02*
X83593000Y-70108000D01*
X84053000Y-68848000D02*
X83593000Y-70108000D01*
X102843000Y-60658000D02*
X104043000Y-59768000D01*
X108413000Y-87768000D02*
X110063000Y-87748000D01*
X111343000Y-88648000D02*
X112543000Y-87758000D01*
X69523000Y-103138000D02*
X70143000Y-104878000D01*
X112013000Y-134728000D02*
X113483000Y-135808000D01*
X121523000Y-121018000D02*
X121063000Y-122278000D01*
X107583000Y-103158000D02*
X108033000Y-104418000D01*
X84873000Y-71008000D02*
X86073000Y-70118000D01*
X101993000Y-61318000D02*
X103463000Y-62398000D01*
X70723000Y-102248000D02*
X69153000Y-102238000D01*
X107553000Y-105978000D02*
X109023000Y-107058000D01*
X93913000Y-83618000D02*
X92343000Y-83608000D01*
X110523000Y-86488000D02*
X110063000Y-87748000D01*
X112043000Y-131908000D02*
X111583000Y-133168000D01*
X69523000Y-103138000D02*
X70723000Y-102248000D01*
X110493000Y-89308000D02*
X108983000Y-90438000D01*
X55153000Y-136668000D02*
X56403000Y-137558000D01*
X91033000Y-84518000D02*
X90353000Y-86298000D01*
D11*
X109203000Y-77888000D02*
X136703000Y-107888000D01*
D10*
X84023000Y-71668000D02*
X85493000Y-72748000D01*
X58083000Y-137548000D02*
X58703000Y-139288000D01*
D11*
X96595000Y-42455000D02*
X72495000Y-77055000D01*
D10*
X104043000Y-59768000D02*
X102473000Y-59758000D01*
X84023000Y-71668000D02*
X82513000Y-72798000D01*
D11*
X136703000Y-107888000D02*
X116703000Y-107888000D01*
D10*
X114063000Y-133178000D02*
X112493000Y-133168000D01*
X99913000Y-59778000D02*
X101563000Y-59758000D01*
X92713000Y-84508000D02*
X93333000Y-86248000D01*
X107583000Y-103158000D02*
X107123000Y-104418000D01*
X83193000Y-71018000D02*
X82513000Y-72798000D01*
X110523000Y-86488000D02*
X110973000Y-87748000D01*
X102843000Y-60658000D02*
X103463000Y-62398000D01*
X107553000Y-105978000D02*
X106043000Y-107108000D01*
X57233000Y-138208000D02*
X55723000Y-139338000D01*
X120663000Y-123188000D02*
X119983000Y-124968000D01*
X101163000Y-60668000D02*
X100483000Y-62448000D01*
X89783000Y-83628000D02*
X91433000Y-83608000D01*
X119413000Y-122298000D02*
X121063000Y-122278000D01*
X102023000Y-58498000D02*
X101563000Y-59758000D01*
X66593000Y-102258000D02*
X67843000Y-103148000D01*
D11*
X76703000Y-107888000D02*
X46703000Y-141888000D01*
D10*
X119413000Y-122298000D02*
X120663000Y-123188000D01*
D11*
X71703000Y-77888000D02*
X84203000Y-77888000D01*
D10*
X102023000Y-58498000D02*
X102473000Y-59758000D01*
X108403000Y-105318000D02*
X109023000Y-107058000D01*
X121523000Y-121018000D02*
X121973000Y-122278000D01*
X105473000Y-104438000D02*
X106723000Y-105328000D01*
D11*
X116703000Y-107888000D02*
X146703000Y-141888000D01*
D10*
X57263000Y-135388000D02*
X56803000Y-136648000D01*
D11*
X76703000Y-107888000D02*
X56703000Y-107888000D01*
X84203000Y-77888000D02*
X56703000Y-107888000D01*
D10*
X112543000Y-87758000D02*
X110973000Y-87748000D01*
X121493000Y-123838000D02*
X119983000Y-124968000D01*
X68703000Y-100978000D02*
X68243000Y-102238000D01*
X91893000Y-82348000D02*
X91433000Y-83608000D01*
X105473000Y-104438000D02*
X107123000Y-104418000D01*
X68673000Y-103798000D02*
X67163000Y-104928000D01*
X89783000Y-83628000D02*
X91033000Y-84518000D01*
D11*
X146703000Y-141888000D02*
X46703000Y-141888000D01*
D10*
X81943000Y-70128000D02*
X83193000Y-71018000D01*
X109933000Y-133188000D02*
X111583000Y-133168000D01*
X112863000Y-134068000D02*
X114063000Y-133178000D01*
X58083000Y-137548000D02*
X59283000Y-136658000D01*
D11*
X109203000Y-77888000D02*
X121703000Y-77888000D01*
D10*
X91893000Y-82348000D02*
X92343000Y-83608000D01*
X68703000Y-100978000D02*
X69153000Y-102238000D01*
X108403000Y-105318000D02*
X109603000Y-104428000D01*
X66593000Y-102258000D02*
X68243000Y-102238000D01*
X106723000Y-105328000D02*
X106043000Y-107108000D01*
X56403000Y-137558000D02*
X55723000Y-139338000D01*
X122343000Y-123178000D02*
X122963000Y-124918000D01*
X109933000Y-133188000D02*
X111183000Y-134078000D01*
X99913000Y-59778000D02*
X101163000Y-60668000D01*
X57263000Y-135388000D02*
X57713000Y-136648000D01*
X92713000Y-84508000D02*
X93913000Y-83618000D01*
X67843000Y-103148000D02*
X67163000Y-104928000D01*
X108413000Y-87768000D02*
X109663000Y-88658000D01*
X110493000Y-89308000D02*
X111963000Y-90388000D01*
X84053000Y-68848000D02*
X84503000Y-70108000D01*
X121493000Y-123838000D02*
X122963000Y-124918000D01*
D11*
X96595000Y-42455000D02*
X121703000Y-77888000D01*
D10*
X111343000Y-88648000D02*
X111963000Y-90388000D01*
X112013000Y-134728000D02*
X110503000Y-135858000D01*
X84873000Y-71008000D02*
X85493000Y-72748000D01*
X86073000Y-70118000D02*
X84503000Y-70108000D01*
X91863000Y-85168000D02*
X90353000Y-86298000D01*
X55153000Y-136668000D02*
X56803000Y-136648000D01*
X57233000Y-138208000D02*
X58703000Y-139288000D01*
X122343000Y-123178000D02*
X123543000Y-122288000D01*
X123543000Y-122288000D02*
X121973000Y-122278000D01*
X109603000Y-104428000D02*
X108033000Y-104418000D01*
X68673000Y-103798000D02*
X70143000Y-104878000D01*
X111183000Y-134078000D02*
X110503000Y-135858000D01*
X91863000Y-85168000D02*
X93333000Y-86248000D01*
X59283000Y-136658000D02*
X57713000Y-136648000D01*
D12*
X112837285Y-71926819D02*
X112837285Y-70926819D01*
X112837285Y-70926819D02*
X112599190Y-70926819D01*
X112599190Y-70926819D02*
X112456333Y-70974438D01*
X112456333Y-70974438D02*
X112361095Y-71069676D01*
X112361095Y-71069676D02*
X112313476Y-71164914D01*
X112313476Y-71164914D02*
X112265857Y-71355390D01*
X112265857Y-71355390D02*
X112265857Y-71498247D01*
X112265857Y-71498247D02*
X112313476Y-71688723D01*
X112313476Y-71688723D02*
X112361095Y-71783961D01*
X112361095Y-71783961D02*
X112456333Y-71879200D01*
X112456333Y-71879200D02*
X112599190Y-71926819D01*
X112599190Y-71926819D02*
X112837285Y-71926819D01*
X111313476Y-71926819D02*
X111884904Y-71926819D01*
X111599190Y-71926819D02*
X111599190Y-70926819D01*
X111599190Y-70926819D02*
X111694428Y-71069676D01*
X111694428Y-71069676D02*
X111789666Y-71164914D01*
X111789666Y-71164914D02*
X111884904Y-71212533D01*
X110837285Y-71926819D02*
X110646809Y-71926819D01*
X110646809Y-71926819D02*
X110551571Y-71879200D01*
X110551571Y-71879200D02*
X110503952Y-71831580D01*
X110503952Y-71831580D02*
X110408714Y-71688723D01*
X110408714Y-71688723D02*
X110361095Y-71498247D01*
X110361095Y-71498247D02*
X110361095Y-71117295D01*
X110361095Y-71117295D02*
X110408714Y-71022057D01*
X110408714Y-71022057D02*
X110456333Y-70974438D01*
X110456333Y-70974438D02*
X110551571Y-70926819D01*
X110551571Y-70926819D02*
X110742047Y-70926819D01*
X110742047Y-70926819D02*
X110837285Y-70974438D01*
X110837285Y-70974438D02*
X110884904Y-71022057D01*
X110884904Y-71022057D02*
X110932523Y-71117295D01*
X110932523Y-71117295D02*
X110932523Y-71355390D01*
X110932523Y-71355390D02*
X110884904Y-71450628D01*
X110884904Y-71450628D02*
X110837285Y-71498247D01*
X110837285Y-71498247D02*
X110742047Y-71545866D01*
X110742047Y-71545866D02*
X110551571Y-71545866D01*
X110551571Y-71545866D02*
X110456333Y-71498247D01*
X110456333Y-71498247D02*
X110408714Y-71450628D01*
X110408714Y-71450628D02*
X110361095Y-71355390D01*
X126939285Y-102914819D02*
X126939285Y-101914819D01*
X126939285Y-101914819D02*
X126701190Y-101914819D01*
X126701190Y-101914819D02*
X126558333Y-101962438D01*
X126558333Y-101962438D02*
X126463095Y-102057676D01*
X126463095Y-102057676D02*
X126415476Y-102152914D01*
X126415476Y-102152914D02*
X126367857Y-102343390D01*
X126367857Y-102343390D02*
X126367857Y-102486247D01*
X126367857Y-102486247D02*
X126415476Y-102676723D01*
X126415476Y-102676723D02*
X126463095Y-102771961D01*
X126463095Y-102771961D02*
X126558333Y-102867200D01*
X126558333Y-102867200D02*
X126701190Y-102914819D01*
X126701190Y-102914819D02*
X126939285Y-102914819D01*
X125986904Y-102010057D02*
X125939285Y-101962438D01*
X125939285Y-101962438D02*
X125844047Y-101914819D01*
X125844047Y-101914819D02*
X125605952Y-101914819D01*
X125605952Y-101914819D02*
X125510714Y-101962438D01*
X125510714Y-101962438D02*
X125463095Y-102010057D01*
X125463095Y-102010057D02*
X125415476Y-102105295D01*
X125415476Y-102105295D02*
X125415476Y-102200533D01*
X125415476Y-102200533D02*
X125463095Y-102343390D01*
X125463095Y-102343390D02*
X126034523Y-102914819D01*
X126034523Y-102914819D02*
X125415476Y-102914819D01*
X124510714Y-101914819D02*
X124986904Y-101914819D01*
X124986904Y-101914819D02*
X125034523Y-102391009D01*
X125034523Y-102391009D02*
X124986904Y-102343390D01*
X124986904Y-102343390D02*
X124891666Y-102295771D01*
X124891666Y-102295771D02*
X124653571Y-102295771D01*
X124653571Y-102295771D02*
X124558333Y-102343390D01*
X124558333Y-102343390D02*
X124510714Y-102391009D01*
X124510714Y-102391009D02*
X124463095Y-102486247D01*
X124463095Y-102486247D02*
X124463095Y-102724342D01*
X124463095Y-102724342D02*
X124510714Y-102819580D01*
X124510714Y-102819580D02*
X124558333Y-102867200D01*
X124558333Y-102867200D02*
X124653571Y-102914819D01*
X124653571Y-102914819D02*
X124891666Y-102914819D01*
X124891666Y-102914819D02*
X124986904Y-102867200D01*
X124986904Y-102867200D02*
X125034523Y-102819580D01*
X94737285Y-57852819D02*
X94737285Y-56852819D01*
X94737285Y-56852819D02*
X94499190Y-56852819D01*
X94499190Y-56852819D02*
X94356333Y-56900438D01*
X94356333Y-56900438D02*
X94261095Y-56995676D01*
X94261095Y-56995676D02*
X94213476Y-57090914D01*
X94213476Y-57090914D02*
X94165857Y-57281390D01*
X94165857Y-57281390D02*
X94165857Y-57424247D01*
X94165857Y-57424247D02*
X94213476Y-57614723D01*
X94213476Y-57614723D02*
X94261095Y-57709961D01*
X94261095Y-57709961D02*
X94356333Y-57805200D01*
X94356333Y-57805200D02*
X94499190Y-57852819D01*
X94499190Y-57852819D02*
X94737285Y-57852819D01*
X93784904Y-56948057D02*
X93737285Y-56900438D01*
X93737285Y-56900438D02*
X93642047Y-56852819D01*
X93642047Y-56852819D02*
X93403952Y-56852819D01*
X93403952Y-56852819D02*
X93308714Y-56900438D01*
X93308714Y-56900438D02*
X93261095Y-56948057D01*
X93261095Y-56948057D02*
X93213476Y-57043295D01*
X93213476Y-57043295D02*
X93213476Y-57138533D01*
X93213476Y-57138533D02*
X93261095Y-57281390D01*
X93261095Y-57281390D02*
X93832523Y-57852819D01*
X93832523Y-57852819D02*
X93213476Y-57852819D01*
X92880142Y-56852819D02*
X92261095Y-56852819D01*
X92261095Y-56852819D02*
X92594428Y-57233771D01*
X92594428Y-57233771D02*
X92451571Y-57233771D01*
X92451571Y-57233771D02*
X92356333Y-57281390D01*
X92356333Y-57281390D02*
X92308714Y-57329009D01*
X92308714Y-57329009D02*
X92261095Y-57424247D01*
X92261095Y-57424247D02*
X92261095Y-57662342D01*
X92261095Y-57662342D02*
X92308714Y-57757580D01*
X92308714Y-57757580D02*
X92356333Y-57805200D01*
X92356333Y-57805200D02*
X92451571Y-57852819D01*
X92451571Y-57852819D02*
X92737285Y-57852819D01*
X92737285Y-57852819D02*
X92832523Y-57805200D01*
X92832523Y-57805200D02*
X92880142Y-57757580D01*
X106265857Y-72752819D02*
X106599190Y-72276628D01*
X106837285Y-72752819D02*
X106837285Y-71752819D01*
X106837285Y-71752819D02*
X106456333Y-71752819D01*
X106456333Y-71752819D02*
X106361095Y-71800438D01*
X106361095Y-71800438D02*
X106313476Y-71848057D01*
X106313476Y-71848057D02*
X106265857Y-71943295D01*
X106265857Y-71943295D02*
X106265857Y-72086152D01*
X106265857Y-72086152D02*
X106313476Y-72181390D01*
X106313476Y-72181390D02*
X106361095Y-72229009D01*
X106361095Y-72229009D02*
X106456333Y-72276628D01*
X106456333Y-72276628D02*
X106837285Y-72276628D01*
X105884904Y-71848057D02*
X105837285Y-71800438D01*
X105837285Y-71800438D02*
X105742047Y-71752819D01*
X105742047Y-71752819D02*
X105503952Y-71752819D01*
X105503952Y-71752819D02*
X105408714Y-71800438D01*
X105408714Y-71800438D02*
X105361095Y-71848057D01*
X105361095Y-71848057D02*
X105313476Y-71943295D01*
X105313476Y-71943295D02*
X105313476Y-72038533D01*
X105313476Y-72038533D02*
X105361095Y-72181390D01*
X105361095Y-72181390D02*
X105932523Y-72752819D01*
X105932523Y-72752819D02*
X105313476Y-72752819D01*
X104980142Y-71752819D02*
X104361095Y-71752819D01*
X104361095Y-71752819D02*
X104694428Y-72133771D01*
X104694428Y-72133771D02*
X104551571Y-72133771D01*
X104551571Y-72133771D02*
X104456333Y-72181390D01*
X104456333Y-72181390D02*
X104408714Y-72229009D01*
X104408714Y-72229009D02*
X104361095Y-72324247D01*
X104361095Y-72324247D02*
X104361095Y-72562342D01*
X104361095Y-72562342D02*
X104408714Y-72657580D01*
X104408714Y-72657580D02*
X104456333Y-72705200D01*
X104456333Y-72705200D02*
X104551571Y-72752819D01*
X104551571Y-72752819D02*
X104837285Y-72752819D01*
X104837285Y-72752819D02*
X104932523Y-72705200D01*
X104932523Y-72705200D02*
X104980142Y-72657580D01*
X119765857Y-103804819D02*
X120099190Y-103328628D01*
X120337285Y-103804819D02*
X120337285Y-102804819D01*
X120337285Y-102804819D02*
X119956333Y-102804819D01*
X119956333Y-102804819D02*
X119861095Y-102852438D01*
X119861095Y-102852438D02*
X119813476Y-102900057D01*
X119813476Y-102900057D02*
X119765857Y-102995295D01*
X119765857Y-102995295D02*
X119765857Y-103138152D01*
X119765857Y-103138152D02*
X119813476Y-103233390D01*
X119813476Y-103233390D02*
X119861095Y-103281009D01*
X119861095Y-103281009D02*
X119956333Y-103328628D01*
X119956333Y-103328628D02*
X120337285Y-103328628D01*
X119384904Y-102900057D02*
X119337285Y-102852438D01*
X119337285Y-102852438D02*
X119242047Y-102804819D01*
X119242047Y-102804819D02*
X119003952Y-102804819D01*
X119003952Y-102804819D02*
X118908714Y-102852438D01*
X118908714Y-102852438D02*
X118861095Y-102900057D01*
X118861095Y-102900057D02*
X118813476Y-102995295D01*
X118813476Y-102995295D02*
X118813476Y-103090533D01*
X118813476Y-103090533D02*
X118861095Y-103233390D01*
X118861095Y-103233390D02*
X119432523Y-103804819D01*
X119432523Y-103804819D02*
X118813476Y-103804819D01*
X118337285Y-103804819D02*
X118146809Y-103804819D01*
X118146809Y-103804819D02*
X118051571Y-103757200D01*
X118051571Y-103757200D02*
X118003952Y-103709580D01*
X118003952Y-103709580D02*
X117908714Y-103566723D01*
X117908714Y-103566723D02*
X117861095Y-103376247D01*
X117861095Y-103376247D02*
X117861095Y-102995295D01*
X117861095Y-102995295D02*
X117908714Y-102900057D01*
X117908714Y-102900057D02*
X117956333Y-102852438D01*
X117956333Y-102852438D02*
X118051571Y-102804819D01*
X118051571Y-102804819D02*
X118242047Y-102804819D01*
X118242047Y-102804819D02*
X118337285Y-102852438D01*
X118337285Y-102852438D02*
X118384904Y-102900057D01*
X118384904Y-102900057D02*
X118432523Y-102995295D01*
X118432523Y-102995295D02*
X118432523Y-103233390D01*
X118432523Y-103233390D02*
X118384904Y-103328628D01*
X118384904Y-103328628D02*
X118337285Y-103376247D01*
X118337285Y-103376247D02*
X118242047Y-103423866D01*
X118242047Y-103423866D02*
X118051571Y-103423866D01*
X118051571Y-103423866D02*
X117956333Y-103376247D01*
X117956333Y-103376247D02*
X117908714Y-103328628D01*
X117908714Y-103328628D02*
X117861095Y-103233390D01*
X83465857Y-92952819D02*
X83799190Y-92476628D01*
X84037285Y-92952819D02*
X84037285Y-91952819D01*
X84037285Y-91952819D02*
X83656333Y-91952819D01*
X83656333Y-91952819D02*
X83561095Y-92000438D01*
X83561095Y-92000438D02*
X83513476Y-92048057D01*
X83513476Y-92048057D02*
X83465857Y-92143295D01*
X83465857Y-92143295D02*
X83465857Y-92286152D01*
X83465857Y-92286152D02*
X83513476Y-92381390D01*
X83513476Y-92381390D02*
X83561095Y-92429009D01*
X83561095Y-92429009D02*
X83656333Y-92476628D01*
X83656333Y-92476628D02*
X84037285Y-92476628D01*
X83084904Y-92048057D02*
X83037285Y-92000438D01*
X83037285Y-92000438D02*
X82942047Y-91952819D01*
X82942047Y-91952819D02*
X82703952Y-91952819D01*
X82703952Y-91952819D02*
X82608714Y-92000438D01*
X82608714Y-92000438D02*
X82561095Y-92048057D01*
X82561095Y-92048057D02*
X82513476Y-92143295D01*
X82513476Y-92143295D02*
X82513476Y-92238533D01*
X82513476Y-92238533D02*
X82561095Y-92381390D01*
X82561095Y-92381390D02*
X83132523Y-92952819D01*
X83132523Y-92952819D02*
X82513476Y-92952819D01*
X81561095Y-92952819D02*
X82132523Y-92952819D01*
X81846809Y-92952819D02*
X81846809Y-91952819D01*
X81846809Y-91952819D02*
X81942047Y-92095676D01*
X81942047Y-92095676D02*
X82037285Y-92190914D01*
X82037285Y-92190914D02*
X82132523Y-92238533D01*
X136845285Y-136442819D02*
X136845285Y-135442819D01*
X136845285Y-135442819D02*
X136607190Y-135442819D01*
X136607190Y-135442819D02*
X136464333Y-135490438D01*
X136464333Y-135490438D02*
X136369095Y-135585676D01*
X136369095Y-135585676D02*
X136321476Y-135680914D01*
X136321476Y-135680914D02*
X136273857Y-135871390D01*
X136273857Y-135871390D02*
X136273857Y-136014247D01*
X136273857Y-136014247D02*
X136321476Y-136204723D01*
X136321476Y-136204723D02*
X136369095Y-136299961D01*
X136369095Y-136299961D02*
X136464333Y-136395200D01*
X136464333Y-136395200D02*
X136607190Y-136442819D01*
X136607190Y-136442819D02*
X136845285Y-136442819D01*
X135321476Y-136442819D02*
X135892904Y-136442819D01*
X135607190Y-136442819D02*
X135607190Y-135442819D01*
X135607190Y-135442819D02*
X135702428Y-135585676D01*
X135702428Y-135585676D02*
X135797666Y-135680914D01*
X135797666Y-135680914D02*
X135892904Y-135728533D01*
X134416714Y-135442819D02*
X134892904Y-135442819D01*
X134892904Y-135442819D02*
X134940523Y-135919009D01*
X134940523Y-135919009D02*
X134892904Y-135871390D01*
X134892904Y-135871390D02*
X134797666Y-135823771D01*
X134797666Y-135823771D02*
X134559571Y-135823771D01*
X134559571Y-135823771D02*
X134464333Y-135871390D01*
X134464333Y-135871390D02*
X134416714Y-135919009D01*
X134416714Y-135919009D02*
X134369095Y-136014247D01*
X134369095Y-136014247D02*
X134369095Y-136252342D01*
X134369095Y-136252342D02*
X134416714Y-136347580D01*
X134416714Y-136347580D02*
X134464333Y-136395200D01*
X134464333Y-136395200D02*
X134559571Y-136442819D01*
X134559571Y-136442819D02*
X134797666Y-136442819D01*
X134797666Y-136442819D02*
X134892904Y-136395200D01*
X134892904Y-136395200D02*
X134940523Y-136347580D01*
X129765857Y-137152819D02*
X130099190Y-136676628D01*
X130337285Y-137152819D02*
X130337285Y-136152819D01*
X130337285Y-136152819D02*
X129956333Y-136152819D01*
X129956333Y-136152819D02*
X129861095Y-136200438D01*
X129861095Y-136200438D02*
X129813476Y-136248057D01*
X129813476Y-136248057D02*
X129765857Y-136343295D01*
X129765857Y-136343295D02*
X129765857Y-136486152D01*
X129765857Y-136486152D02*
X129813476Y-136581390D01*
X129813476Y-136581390D02*
X129861095Y-136629009D01*
X129861095Y-136629009D02*
X129956333Y-136676628D01*
X129956333Y-136676628D02*
X130337285Y-136676628D01*
X128813476Y-137152819D02*
X129384904Y-137152819D01*
X129099190Y-137152819D02*
X129099190Y-136152819D01*
X129099190Y-136152819D02*
X129194428Y-136295676D01*
X129194428Y-136295676D02*
X129289666Y-136390914D01*
X129289666Y-136390914D02*
X129384904Y-136438533D01*
X128337285Y-137152819D02*
X128146809Y-137152819D01*
X128146809Y-137152819D02*
X128051571Y-137105200D01*
X128051571Y-137105200D02*
X128003952Y-137057580D01*
X128003952Y-137057580D02*
X127908714Y-136914723D01*
X127908714Y-136914723D02*
X127861095Y-136724247D01*
X127861095Y-136724247D02*
X127861095Y-136343295D01*
X127861095Y-136343295D02*
X127908714Y-136248057D01*
X127908714Y-136248057D02*
X127956333Y-136200438D01*
X127956333Y-136200438D02*
X128051571Y-136152819D01*
X128051571Y-136152819D02*
X128242047Y-136152819D01*
X128242047Y-136152819D02*
X128337285Y-136200438D01*
X128337285Y-136200438D02*
X128384904Y-136248057D01*
X128384904Y-136248057D02*
X128432523Y-136343295D01*
X128432523Y-136343295D02*
X128432523Y-136581390D01*
X128432523Y-136581390D02*
X128384904Y-136676628D01*
X128384904Y-136676628D02*
X128337285Y-136724247D01*
X128337285Y-136724247D02*
X128242047Y-136771866D01*
X128242047Y-136771866D02*
X128051571Y-136771866D01*
X128051571Y-136771866D02*
X127956333Y-136724247D01*
X127956333Y-136724247D02*
X127908714Y-136676628D01*
X127908714Y-136676628D02*
X127861095Y-136581390D01*
X91765857Y-61152819D02*
X92099190Y-60676628D01*
X92337285Y-61152819D02*
X92337285Y-60152819D01*
X92337285Y-60152819D02*
X91956333Y-60152819D01*
X91956333Y-60152819D02*
X91861095Y-60200438D01*
X91861095Y-60200438D02*
X91813476Y-60248057D01*
X91813476Y-60248057D02*
X91765857Y-60343295D01*
X91765857Y-60343295D02*
X91765857Y-60486152D01*
X91765857Y-60486152D02*
X91813476Y-60581390D01*
X91813476Y-60581390D02*
X91861095Y-60629009D01*
X91861095Y-60629009D02*
X91956333Y-60676628D01*
X91956333Y-60676628D02*
X92337285Y-60676628D01*
X91384904Y-60248057D02*
X91337285Y-60200438D01*
X91337285Y-60200438D02*
X91242047Y-60152819D01*
X91242047Y-60152819D02*
X91003952Y-60152819D01*
X91003952Y-60152819D02*
X90908714Y-60200438D01*
X90908714Y-60200438D02*
X90861095Y-60248057D01*
X90861095Y-60248057D02*
X90813476Y-60343295D01*
X90813476Y-60343295D02*
X90813476Y-60438533D01*
X90813476Y-60438533D02*
X90861095Y-60581390D01*
X90861095Y-60581390D02*
X91432523Y-61152819D01*
X91432523Y-61152819D02*
X90813476Y-61152819D01*
X90480142Y-60152819D02*
X89813476Y-60152819D01*
X89813476Y-60152819D02*
X90242047Y-61152819D01*
X74565857Y-124552819D02*
X74899190Y-124076628D01*
X75137285Y-124552819D02*
X75137285Y-123552819D01*
X75137285Y-123552819D02*
X74756333Y-123552819D01*
X74756333Y-123552819D02*
X74661095Y-123600438D01*
X74661095Y-123600438D02*
X74613476Y-123648057D01*
X74613476Y-123648057D02*
X74565857Y-123743295D01*
X74565857Y-123743295D02*
X74565857Y-123886152D01*
X74565857Y-123886152D02*
X74613476Y-123981390D01*
X74613476Y-123981390D02*
X74661095Y-124029009D01*
X74661095Y-124029009D02*
X74756333Y-124076628D01*
X74756333Y-124076628D02*
X75137285Y-124076628D01*
X74184904Y-123648057D02*
X74137285Y-123600438D01*
X74137285Y-123600438D02*
X74042047Y-123552819D01*
X74042047Y-123552819D02*
X73803952Y-123552819D01*
X73803952Y-123552819D02*
X73708714Y-123600438D01*
X73708714Y-123600438D02*
X73661095Y-123648057D01*
X73661095Y-123648057D02*
X73613476Y-123743295D01*
X73613476Y-123743295D02*
X73613476Y-123838533D01*
X73613476Y-123838533D02*
X73661095Y-123981390D01*
X73661095Y-123981390D02*
X74232523Y-124552819D01*
X74232523Y-124552819D02*
X73613476Y-124552819D01*
X72708714Y-123552819D02*
X73184904Y-123552819D01*
X73184904Y-123552819D02*
X73232523Y-124029009D01*
X73232523Y-124029009D02*
X73184904Y-123981390D01*
X73184904Y-123981390D02*
X73089666Y-123933771D01*
X73089666Y-123933771D02*
X72851571Y-123933771D01*
X72851571Y-123933771D02*
X72756333Y-123981390D01*
X72756333Y-123981390D02*
X72708714Y-124029009D01*
X72708714Y-124029009D02*
X72661095Y-124124247D01*
X72661095Y-124124247D02*
X72661095Y-124362342D01*
X72661095Y-124362342D02*
X72708714Y-124457580D01*
X72708714Y-124457580D02*
X72756333Y-124505200D01*
X72756333Y-124505200D02*
X72851571Y-124552819D01*
X72851571Y-124552819D02*
X73089666Y-124552819D01*
X73089666Y-124552819D02*
X73184904Y-124505200D01*
X73184904Y-124505200D02*
X73232523Y-124457580D01*
X75687285Y-117392819D02*
X75687285Y-116392819D01*
X75687285Y-116392819D02*
X75449190Y-116392819D01*
X75449190Y-116392819D02*
X75306333Y-116440438D01*
X75306333Y-116440438D02*
X75211095Y-116535676D01*
X75211095Y-116535676D02*
X75163476Y-116630914D01*
X75163476Y-116630914D02*
X75115857Y-116821390D01*
X75115857Y-116821390D02*
X75115857Y-116964247D01*
X75115857Y-116964247D02*
X75163476Y-117154723D01*
X75163476Y-117154723D02*
X75211095Y-117249961D01*
X75211095Y-117249961D02*
X75306333Y-117345200D01*
X75306333Y-117345200D02*
X75449190Y-117392819D01*
X75449190Y-117392819D02*
X75687285Y-117392819D01*
X74734904Y-116488057D02*
X74687285Y-116440438D01*
X74687285Y-116440438D02*
X74592047Y-116392819D01*
X74592047Y-116392819D02*
X74353952Y-116392819D01*
X74353952Y-116392819D02*
X74258714Y-116440438D01*
X74258714Y-116440438D02*
X74211095Y-116488057D01*
X74211095Y-116488057D02*
X74163476Y-116583295D01*
X74163476Y-116583295D02*
X74163476Y-116678533D01*
X74163476Y-116678533D02*
X74211095Y-116821390D01*
X74211095Y-116821390D02*
X74782523Y-117392819D01*
X74782523Y-117392819D02*
X74163476Y-117392819D01*
X73211095Y-117392819D02*
X73782523Y-117392819D01*
X73496809Y-117392819D02*
X73496809Y-116392819D01*
X73496809Y-116392819D02*
X73592047Y-116535676D01*
X73592047Y-116535676D02*
X73687285Y-116630914D01*
X73687285Y-116630914D02*
X73782523Y-116678533D01*
X85283285Y-88436819D02*
X85283285Y-87436819D01*
X85283285Y-87436819D02*
X85045190Y-87436819D01*
X85045190Y-87436819D02*
X84902333Y-87484438D01*
X84902333Y-87484438D02*
X84807095Y-87579676D01*
X84807095Y-87579676D02*
X84759476Y-87674914D01*
X84759476Y-87674914D02*
X84711857Y-87865390D01*
X84711857Y-87865390D02*
X84711857Y-88008247D01*
X84711857Y-88008247D02*
X84759476Y-88198723D01*
X84759476Y-88198723D02*
X84807095Y-88293961D01*
X84807095Y-88293961D02*
X84902333Y-88389200D01*
X84902333Y-88389200D02*
X85045190Y-88436819D01*
X85045190Y-88436819D02*
X85283285Y-88436819D01*
X83759476Y-88436819D02*
X84330904Y-88436819D01*
X84045190Y-88436819D02*
X84045190Y-87436819D01*
X84045190Y-87436819D02*
X84140428Y-87579676D01*
X84140428Y-87579676D02*
X84235666Y-87674914D01*
X84235666Y-87674914D02*
X84330904Y-87722533D01*
X83426142Y-87436819D02*
X82759476Y-87436819D01*
X82759476Y-87436819D02*
X83188047Y-88436819D01*
G36*
X89261326Y-130961563D02*
G01*
X89261326Y-131869930D01*
X88250125Y-131869930D01*
X87238924Y-131869930D01*
X87238924Y-130961563D01*
X87238924Y-130053196D01*
X88250125Y-130053196D01*
X89261326Y-130053196D01*
X89261326Y-130961563D01*
G37*
G36*
X84155842Y-133599959D02*
G01*
X84183728Y-133656202D01*
X84200491Y-133699115D01*
X84240836Y-133801517D01*
X84287021Y-133918041D01*
X84358572Y-134098000D01*
X84153404Y-134098000D01*
X84060327Y-134096570D01*
X83979385Y-134091838D01*
X83948236Y-134084942D01*
X83950702Y-134074127D01*
X83971151Y-134013364D01*
X84006060Y-133918092D01*
X84047849Y-133808097D01*
X84088940Y-133703166D01*
X84121753Y-133623086D01*
X84138710Y-133587646D01*
X84155842Y-133599959D01*
G37*
G36*
X87196968Y-133206772D02*
G01*
X87201269Y-133220660D01*
X87213983Y-133244767D01*
X87223121Y-133224669D01*
X87229317Y-133154279D01*
X87233207Y-133027513D01*
X87235425Y-132838284D01*
X87238924Y-132349822D01*
X88250125Y-132349822D01*
X89261326Y-132349822D01*
X89261326Y-134493788D01*
X89261326Y-135246313D01*
X89261326Y-138142805D01*
X88250125Y-138142805D01*
X87238924Y-138142805D01*
X87237037Y-136454613D01*
X87235149Y-134766421D01*
X87168097Y-135022546D01*
X87025678Y-135467531D01*
X86811126Y-135936803D01*
X86541910Y-136366153D01*
X86219528Y-136754219D01*
X85845477Y-137099639D01*
X85421255Y-137401053D01*
X84948360Y-137657098D01*
X84428289Y-137866412D01*
X83862541Y-138027634D01*
X83782149Y-138044805D01*
X83663740Y-138063771D01*
X83529853Y-138076797D01*
X83367233Y-138084727D01*
X83162620Y-138088405D01*
X82902757Y-138088672D01*
X82843196Y-138088418D01*
X82618245Y-138086666D01*
X82443902Y-138082802D01*
X82305538Y-138075370D01*
X82188522Y-138062914D01*
X82078226Y-138043979D01*
X81960020Y-138017109D01*
X81819275Y-137980847D01*
X81469349Y-137875644D01*
X80982903Y-137679119D01*
X80538693Y-137433744D01*
X80130242Y-137136279D01*
X80018537Y-137040057D01*
X79831426Y-136864056D01*
X79656987Y-136683330D01*
X79517031Y-136519805D01*
X79443121Y-136425979D01*
X79367716Y-136331274D01*
X79361729Y-136323726D01*
X79273996Y-136199098D01*
X79170242Y-136031504D01*
X79061305Y-135839216D01*
X78958023Y-135640510D01*
X78847837Y-135417703D01*
X79912972Y-135408637D01*
X80978106Y-135399571D01*
X81073744Y-135515596D01*
X81159795Y-135607246D01*
X81365028Y-135769081D01*
X81619658Y-135916045D01*
X81911418Y-136042396D01*
X82228043Y-136142391D01*
X82557270Y-136210286D01*
X82755357Y-136232025D01*
X83157484Y-136230194D01*
X83557515Y-136170691D01*
X83940251Y-136056324D01*
X84290490Y-135889903D01*
X84330635Y-135865455D01*
X84502248Y-135741595D01*
X84680084Y-135587624D01*
X84847756Y-135419662D01*
X84988878Y-135253827D01*
X85087067Y-135106239D01*
X85180419Y-134931887D01*
X83150360Y-134909173D01*
X83019811Y-134907739D01*
X82596955Y-134903426D01*
X82159573Y-134899419D01*
X81719534Y-134895800D01*
X81288707Y-134892651D01*
X80878958Y-134890057D01*
X80502155Y-134888099D01*
X80170167Y-134886861D01*
X79894862Y-134886426D01*
X78669423Y-134886394D01*
X78666203Y-134757852D01*
X78663310Y-134705128D01*
X78655877Y-134694471D01*
X78641749Y-134741881D01*
X78618520Y-134852116D01*
X78599725Y-134939465D01*
X78486954Y-135326732D01*
X78329945Y-135716013D01*
X78138997Y-136084221D01*
X77924407Y-136408271D01*
X77687448Y-136690494D01*
X77325363Y-137037350D01*
X76918649Y-137345834D01*
X76478489Y-137607705D01*
X76016066Y-137814722D01*
X75934699Y-137844055D01*
X75634819Y-137935288D01*
X75311279Y-138012195D01*
X74992079Y-138068709D01*
X74705225Y-138098762D01*
X74350395Y-138118856D01*
X74350395Y-137190652D01*
X74350395Y-136262447D01*
X74547494Y-136239915D01*
X74583733Y-136235603D01*
X75026068Y-136152576D01*
X75423308Y-136018329D01*
X75776276Y-135832516D01*
X76085798Y-135594793D01*
X76088639Y-135592184D01*
X76195604Y-135485045D01*
X76306103Y-135360030D01*
X76409888Y-135230561D01*
X76496709Y-135110057D01*
X76556318Y-135011942D01*
X76578465Y-134949636D01*
X76565450Y-134945220D01*
X76493822Y-134938592D01*
X76366711Y-134932699D01*
X76192166Y-134927751D01*
X75978238Y-134923958D01*
X75732976Y-134921529D01*
X75464430Y-134920672D01*
X74350395Y-134920672D01*
X74350395Y-133995166D01*
X74350395Y-133960888D01*
X81240274Y-133960888D01*
X81240404Y-134098099D01*
X81241689Y-134264860D01*
X81245377Y-134379179D01*
X81252702Y-134450920D01*
X81264897Y-134489950D01*
X81283195Y-134506134D01*
X81308830Y-134509336D01*
X81321170Y-134508933D01*
X81351447Y-134497830D01*
X81368383Y-134460819D01*
X81375766Y-134383696D01*
X81377386Y-134252251D01*
X81377386Y-133995166D01*
X81685888Y-133995166D01*
X81994390Y-133995166D01*
X81994390Y-134252251D01*
X81994497Y-134298528D01*
X81997458Y-134412067D01*
X82007328Y-134475577D01*
X82027894Y-134503264D01*
X82062946Y-134509336D01*
X82080097Y-134508294D01*
X82100942Y-134498016D01*
X82115232Y-134468509D01*
X82124200Y-134409908D01*
X82129079Y-134312348D01*
X82130608Y-134201683D01*
X82440004Y-134201683D01*
X82440149Y-134257744D01*
X82443763Y-134362540D01*
X82456729Y-134422779D01*
X82484935Y-134455771D01*
X82534268Y-134478822D01*
X82567984Y-134489629D01*
X82677420Y-134512807D01*
X82799923Y-134527848D01*
X82845224Y-134530370D01*
X83066399Y-134513842D01*
X83066654Y-134513747D01*
X83606935Y-134513747D01*
X83697817Y-134502972D01*
X83749622Y-134489066D01*
X83797022Y-134441960D01*
X83837506Y-134345134D01*
X83886314Y-134198070D01*
X84148652Y-134208022D01*
X84410989Y-134217973D01*
X84461349Y-134363655D01*
X84490478Y-134436650D01*
X84533306Y-134493751D01*
X84589892Y-134509336D01*
X84638886Y-134505882D01*
X84668074Y-134493788D01*
X84661533Y-134473289D01*
X84633720Y-134397848D01*
X84587882Y-134277478D01*
X84528158Y-134123026D01*
X84458690Y-133945340D01*
X84454606Y-133934945D01*
X84378500Y-133742217D01*
X84321802Y-133603888D01*
X84279144Y-133510948D01*
X84245163Y-133454387D01*
X84214491Y-133425193D01*
X84181765Y-133414358D01*
X84141619Y-133412869D01*
X84120052Y-133412677D01*
X84091504Y-133414334D01*
X84066175Y-133424471D01*
X84040550Y-133450012D01*
X84011111Y-133497880D01*
X83974340Y-133574998D01*
X83926721Y-133688290D01*
X83864736Y-133844680D01*
X83813139Y-133978027D01*
X83784868Y-134051089D01*
X83683599Y-134314443D01*
X83606935Y-134513747D01*
X83066654Y-134513747D01*
X83243510Y-134447986D01*
X83373635Y-134335160D01*
X83453852Y-134177721D01*
X83481241Y-133978027D01*
X83473490Y-133865124D01*
X83418001Y-133687009D01*
X83310212Y-133552801D01*
X83151453Y-133463875D01*
X82943051Y-133421604D01*
X82848903Y-133418188D01*
X82703054Y-133425117D01*
X82585685Y-133444217D01*
X82497535Y-133473616D01*
X82451485Y-133510832D01*
X82440004Y-133568012D01*
X82441373Y-133613225D01*
X82455775Y-133645381D01*
X82498946Y-133638662D01*
X82586585Y-133596072D01*
X82708529Y-133554255D01*
X82870931Y-133539421D01*
X83029152Y-133559955D01*
X83155383Y-133614933D01*
X83255102Y-133722421D01*
X83310473Y-133864416D01*
X83317018Y-134020102D01*
X83274062Y-134171333D01*
X83180927Y-134299961D01*
X83155900Y-134320439D01*
X83029922Y-134378374D01*
X82870055Y-134403701D01*
X82699260Y-134392032D01*
X82675416Y-134387394D01*
X82608754Y-134365482D01*
X82582013Y-134322021D01*
X82577116Y-134233559D01*
X82577116Y-134098000D01*
X82731367Y-134098000D01*
X82742448Y-134097974D01*
X82833617Y-134092545D01*
X82875525Y-134072286D01*
X82885618Y-134029444D01*
X82879637Y-133994102D01*
X82850616Y-133972542D01*
X82783390Y-133963025D01*
X82662811Y-133960888D01*
X82440004Y-133960888D01*
X82440004Y-134201683D01*
X82130608Y-134201683D01*
X82131101Y-134165963D01*
X82131502Y-133960888D01*
X82131371Y-133823677D01*
X82130087Y-133656917D01*
X82126398Y-133542598D01*
X82119073Y-133470856D01*
X82106878Y-133431826D01*
X82088580Y-133415642D01*
X82062946Y-133412440D01*
X82027603Y-133418421D01*
X82006044Y-133447442D01*
X81996526Y-133514668D01*
X81994390Y-133635247D01*
X81994390Y-133858054D01*
X81685888Y-133858054D01*
X81377386Y-133858054D01*
X81377386Y-133635247D01*
X81375546Y-133520384D01*
X81366616Y-133450316D01*
X81345931Y-133419384D01*
X81308830Y-133412440D01*
X81291678Y-133413483D01*
X81270833Y-133423761D01*
X81256543Y-133453267D01*
X81247576Y-133511868D01*
X81242697Y-133609429D01*
X81240674Y-133755814D01*
X81240274Y-133960888D01*
X74350395Y-133960888D01*
X74350395Y-133069660D01*
X75515847Y-133069660D01*
X76681299Y-133069660D01*
X76681299Y-131561428D01*
X76681299Y-130053196D01*
X77692500Y-130053196D01*
X78703701Y-130053196D01*
X78707201Y-131724249D01*
X78707211Y-131729268D01*
X78708561Y-132138250D01*
X78710771Y-132481004D01*
X78713898Y-132759825D01*
X78717997Y-132977011D01*
X78723127Y-133134858D01*
X78729342Y-133235662D01*
X78736699Y-133281720D01*
X78745255Y-133275328D01*
X78815890Y-133038779D01*
X80760382Y-133038779D01*
X80786412Y-133043972D01*
X80876405Y-133049449D01*
X81026196Y-133054411D01*
X81231128Y-133058793D01*
X81486543Y-133062528D01*
X81787785Y-133065548D01*
X82130196Y-133067788D01*
X82509118Y-133069181D01*
X82919896Y-133069660D01*
X83005386Y-133069644D01*
X83379002Y-133069171D01*
X83730318Y-133068091D01*
X84053549Y-133066459D01*
X84342916Y-133064334D01*
X84592636Y-133061773D01*
X84796927Y-133058832D01*
X84950007Y-133055569D01*
X85046096Y-133052041D01*
X85079410Y-133048305D01*
X85078448Y-133044578D01*
X85052285Y-132998267D01*
X84997627Y-132914897D01*
X84924232Y-132809487D01*
X84905316Y-132783467D01*
X84666818Y-132517937D01*
X84374688Y-132290731D01*
X84033974Y-132105196D01*
X83649725Y-131964678D01*
X83558686Y-131941727D01*
X83300385Y-131901449D01*
X83010698Y-131883723D01*
X82713300Y-131888534D01*
X82431865Y-131915863D01*
X82190066Y-131965695D01*
X81819904Y-132099015D01*
X81470976Y-132286974D01*
X81169102Y-132520746D01*
X80918476Y-132797585D01*
X80903458Y-132817703D01*
X80830818Y-132919413D01*
X80779703Y-132998328D01*
X80760382Y-133038779D01*
X78815890Y-133038779D01*
X78822448Y-133016817D01*
X78908999Y-132757333D01*
X78996655Y-132534542D01*
X79092739Y-132331736D01*
X79204571Y-132132209D01*
X79339471Y-131919254D01*
X79356531Y-131893648D01*
X79675547Y-131478559D01*
X80041018Y-131113532D01*
X80451721Y-130799387D01*
X80906431Y-130536949D01*
X81403923Y-130327039D01*
X81942973Y-130170481D01*
X82082976Y-130139259D01*
X82230608Y-130111217D01*
X82370849Y-130092413D01*
X82522679Y-130080978D01*
X82705081Y-130075049D01*
X82937035Y-130072758D01*
X83058120Y-130072576D01*
X83269438Y-130075024D01*
X83439097Y-130082533D01*
X83585254Y-130096596D01*
X83726063Y-130118709D01*
X83879680Y-130150367D01*
X84113304Y-130208708D01*
X84624212Y-130382775D01*
X85107114Y-130611965D01*
X85556366Y-130892014D01*
X85966325Y-131218657D01*
X86331348Y-131587632D01*
X86645793Y-131994673D01*
X86904014Y-132435517D01*
X86925950Y-132480177D01*
X87068767Y-132816922D01*
X87144857Y-133048305D01*
X87196968Y-133206772D01*
G37*
D13*
X111673000Y-72798000D02*
X114533000Y-72798000D01*
X111673000Y-74718000D02*
X111673000Y-72798000D01*
X114533000Y-74718000D02*
X111673000Y-74718000D01*
X126151000Y-104040000D02*
X129011000Y-104040000D01*
X126151000Y-105960000D02*
X126151000Y-104040000D01*
X129011000Y-105960000D02*
X126151000Y-105960000D01*
X90863000Y-55933000D02*
X90863000Y-53073000D01*
X92783000Y-55933000D02*
X90863000Y-55933000D01*
X92783000Y-53073000D02*
X92783000Y-55933000D01*
X109696064Y-74493000D02*
X109241936Y-74493000D01*
X109696064Y-73023000D02*
X109241936Y-73023000D01*
X123238064Y-105735000D02*
X122783936Y-105735000D01*
X123238064Y-104265000D02*
X122783936Y-104265000D01*
X79050064Y-92808000D02*
X78595936Y-92808000D01*
X79050064Y-91338000D02*
X78595936Y-91338000D01*
X136311000Y-137568000D02*
X139171000Y-137568000D01*
X136311000Y-139488000D02*
X136311000Y-137568000D01*
X139171000Y-139488000D02*
X136311000Y-139488000D01*
X133398064Y-139263000D02*
X132943936Y-139263000D01*
X133398064Y-137793000D02*
X132943936Y-137793000D01*
X90050064Y-58833000D02*
X89595936Y-58833000D01*
X90050064Y-57363000D02*
X89595936Y-57363000D01*
X70137564Y-125833000D02*
X69683436Y-125833000D01*
X70137564Y-124363000D02*
X69683436Y-124363000D01*
X71863000Y-121933000D02*
X71863000Y-119073000D01*
X73783000Y-121933000D02*
X71863000Y-121933000D01*
X73783000Y-119073000D02*
X73783000Y-121933000D01*
X79863000Y-89958000D02*
X79863000Y-87098000D01*
X81783000Y-89958000D02*
X79863000Y-89958000D01*
X81783000Y-87098000D02*
X81783000Y-89958000D01*
%LPC*%
D14*
X112508000Y-73758000D03*
X114558000Y-73758000D03*
X126986000Y-105000000D03*
X129036000Y-105000000D03*
D15*
X91823000Y-55098000D03*
X91823000Y-53048000D03*
D16*
X110469000Y-73758000D03*
X108469000Y-73758000D03*
D17*
X98293000Y-49247000D03*
D16*
X124011000Y-105000000D03*
X122011000Y-105000000D03*
X79823000Y-92073000D03*
X77823000Y-92073000D03*
D17*
X95372000Y-49247000D03*
D14*
X137146000Y-138528000D03*
X139196000Y-138528000D03*
D16*
X134171000Y-138528000D03*
X132171000Y-138528000D03*
X90823000Y-58098000D03*
X88823000Y-58098000D03*
D18*
X94823000Y-94208000D03*
X94823000Y-97510000D03*
X94823000Y-100812000D03*
X94823000Y-103860000D03*
D16*
X70910500Y-125098000D03*
X68910500Y-125098000D03*
D15*
X72823000Y-121098000D03*
X72823000Y-119048000D03*
X80823000Y-89123000D03*
X80823000Y-87073000D03*
%LPD*%
M02*
