%TF.GenerationSoftware,KiCad,Pcbnew,7.0.8*%
%TF.CreationDate,2024-10-11T08:25:40+02:00*%
%TF.ProjectId,PCB_Christmas_Tree,5043425f-4368-4726-9973-746d61735f54,rev?*%
%TF.SameCoordinates,Original*%
%TF.FileFunction,Drillmap*%
%TF.FilePolarity,Positive*%
%FSLAX45Y45*%
G04 Gerber Fmt 4.5, Leading zero omitted, Abs format (unit mm)*
G04 Created by KiCad (PCBNEW 7.0.8) date 2024-10-11 08:25:40*
%MOMM*%
%LPD*%
G01*
G04 APERTURE LIST*
%ADD10C,0.100000*%
%ADD11C,0.200000*%
G04 APERTURE END LIST*
D10*
X11682300Y-10809800D02*
X14682300Y-14209800D01*
X10932300Y-7809800D02*
X12182300Y-7809800D01*
X4682300Y-14209800D02*
X9346700Y-14208400D01*
X10282300Y-14209800D02*
X14682300Y-14209800D01*
X13682300Y-10809800D02*
X11682300Y-10809800D01*
X7182300Y-7809800D02*
X8432300Y-7809800D01*
X9772300Y-4349800D02*
X9592300Y-4349800D01*
X7682300Y-10809800D02*
X5682300Y-10809800D01*
X10282300Y-14209800D02*
X10282300Y-11009800D01*
X9592300Y-4349800D02*
X7182300Y-7809800D01*
X10282300Y-11009800D02*
X9346700Y-11009800D01*
X10932300Y-7809800D02*
X13682300Y-10809800D01*
X7682300Y-10809800D02*
X4682300Y-14209800D01*
X9772300Y-4349800D02*
X12182300Y-7809800D01*
X8432300Y-7809800D02*
X5682300Y-10809800D01*
X9346700Y-11009800D02*
X9346700Y-14208400D01*
D11*
X4938077Y-14526284D02*
X4938077Y-14326284D01*
X4938077Y-14326284D02*
X4985696Y-14326284D01*
X4985696Y-14326284D02*
X5014267Y-14335808D01*
X5014267Y-14335808D02*
X5033315Y-14354855D01*
X5033315Y-14354855D02*
X5042839Y-14373903D01*
X5042839Y-14373903D02*
X5052363Y-14411998D01*
X5052363Y-14411998D02*
X5052363Y-14440569D01*
X5052363Y-14440569D02*
X5042839Y-14478665D01*
X5042839Y-14478665D02*
X5033315Y-14497712D01*
X5033315Y-14497712D02*
X5014267Y-14516760D01*
X5014267Y-14516760D02*
X4985696Y-14526284D01*
X4985696Y-14526284D02*
X4938077Y-14526284D01*
X5138077Y-14526284D02*
X5138077Y-14392950D01*
X5138077Y-14431046D02*
X5147601Y-14411998D01*
X5147601Y-14411998D02*
X5157124Y-14402474D01*
X5157124Y-14402474D02*
X5176172Y-14392950D01*
X5176172Y-14392950D02*
X5195220Y-14392950D01*
X5261886Y-14526284D02*
X5261886Y-14392950D01*
X5261886Y-14326284D02*
X5252363Y-14335808D01*
X5252363Y-14335808D02*
X5261886Y-14345331D01*
X5261886Y-14345331D02*
X5271410Y-14335808D01*
X5271410Y-14335808D02*
X5261886Y-14326284D01*
X5261886Y-14326284D02*
X5261886Y-14345331D01*
X5385696Y-14526284D02*
X5366648Y-14516760D01*
X5366648Y-14516760D02*
X5357124Y-14497712D01*
X5357124Y-14497712D02*
X5357124Y-14326284D01*
X5490458Y-14526284D02*
X5471410Y-14516760D01*
X5471410Y-14516760D02*
X5461886Y-14497712D01*
X5461886Y-14497712D02*
X5461886Y-14326284D01*
X5719029Y-14526284D02*
X5719029Y-14326284D01*
X5719029Y-14326284D02*
X5785696Y-14469141D01*
X5785696Y-14469141D02*
X5852362Y-14326284D01*
X5852362Y-14326284D02*
X5852362Y-14526284D01*
X6033315Y-14526284D02*
X6033315Y-14421522D01*
X6033315Y-14421522D02*
X6023791Y-14402474D01*
X6023791Y-14402474D02*
X6004743Y-14392950D01*
X6004743Y-14392950D02*
X5966648Y-14392950D01*
X5966648Y-14392950D02*
X5947601Y-14402474D01*
X6033315Y-14516760D02*
X6014267Y-14526284D01*
X6014267Y-14526284D02*
X5966648Y-14526284D01*
X5966648Y-14526284D02*
X5947601Y-14516760D01*
X5947601Y-14516760D02*
X5938077Y-14497712D01*
X5938077Y-14497712D02*
X5938077Y-14478665D01*
X5938077Y-14478665D02*
X5947601Y-14459617D01*
X5947601Y-14459617D02*
X5966648Y-14450093D01*
X5966648Y-14450093D02*
X6014267Y-14450093D01*
X6014267Y-14450093D02*
X6033315Y-14440569D01*
X6128553Y-14392950D02*
X6128553Y-14592950D01*
X6128553Y-14402474D02*
X6147601Y-14392950D01*
X6147601Y-14392950D02*
X6185696Y-14392950D01*
X6185696Y-14392950D02*
X6204743Y-14402474D01*
X6204743Y-14402474D02*
X6214267Y-14411998D01*
X6214267Y-14411998D02*
X6223791Y-14431046D01*
X6223791Y-14431046D02*
X6223791Y-14488188D01*
X6223791Y-14488188D02*
X6214267Y-14507236D01*
X6214267Y-14507236D02*
X6204743Y-14516760D01*
X6204743Y-14516760D02*
X6185696Y-14526284D01*
X6185696Y-14526284D02*
X6147601Y-14526284D01*
X6147601Y-14526284D02*
X6128553Y-14516760D01*
X6309505Y-14507236D02*
X6319029Y-14516760D01*
X6319029Y-14516760D02*
X6309505Y-14526284D01*
X6309505Y-14526284D02*
X6299982Y-14516760D01*
X6299982Y-14516760D02*
X6309505Y-14507236D01*
X6309505Y-14507236D02*
X6309505Y-14526284D01*
X6309505Y-14402474D02*
X6319029Y-14411998D01*
X6319029Y-14411998D02*
X6309505Y-14421522D01*
X6309505Y-14421522D02*
X6299982Y-14411998D01*
X6299982Y-14411998D02*
X6309505Y-14402474D01*
X6309505Y-14402474D02*
X6309505Y-14421522D01*
M02*
