G04 #@! TF.GenerationSoftware,KiCad,Pcbnew,7.0.8*
G04 #@! TF.CreationDate,2024-10-12T14:26:50+02:00*
G04 #@! TF.ProjectId,PCB_Christmas_Tree,5043425f-4368-4726-9973-746d61735f54,rev?*
G04 #@! TF.SameCoordinates,Original*
G04 #@! TF.FileFunction,Copper,L1,Top*
G04 #@! TF.FilePolarity,Positive*
%FSLAX46Y46*%
G04 Gerber Fmt 4.6, Leading zero omitted, Abs format (unit mm)*
G04 Created by KiCad (PCBNEW 7.0.8) date 2024-10-12 14:26:50*
%MOMM*%
%LPD*%
G01*
G04 APERTURE LIST*
G04 Aperture macros list*
%AMRoundRect*
0 Rectangle with rounded corners*
0 $1 Rounding radius*
0 $2 $3 $4 $5 $6 $7 $8 $9 X,Y pos of 4 corners*
0 Add a 4 corners polygon primitive as box body*
4,1,4,$2,$3,$4,$5,$6,$7,$8,$9,$2,$3,0*
0 Add four circle primitives for the rounded corners*
1,1,$1+$1,$2,$3*
1,1,$1+$1,$4,$5*
1,1,$1+$1,$6,$7*
1,1,$1+$1,$8,$9*
0 Add four rect primitives between the rounded corners*
20,1,$1+$1,$2,$3,$4,$5,0*
20,1,$1+$1,$4,$5,$6,$7,0*
20,1,$1+$1,$6,$7,$8,$9,0*
20,1,$1+$1,$8,$9,$2,$3,0*%
G04 Aperture macros list end*
G04 #@! TA.AperFunction,SMDPad,CuDef*
%ADD10R,3.000000X2.000000*%
G04 #@! TD*
G04 #@! TA.AperFunction,SMDPad,CuDef*
%ADD11RoundRect,0.250000X0.325000X0.450000X-0.325000X0.450000X-0.325000X-0.450000X0.325000X-0.450000X0*%
G04 #@! TD*
G04 #@! TA.AperFunction,SMDPad,CuDef*
%ADD12RoundRect,0.250000X-0.350000X-0.450000X0.350000X-0.450000X0.350000X0.450000X-0.350000X0.450000X0*%
G04 #@! TD*
G04 #@! TA.AperFunction,SMDPad,CuDef*
%ADD13RoundRect,0.250000X-0.250000X-0.750000X0.250000X-0.750000X0.250000X0.750000X-0.250000X0.750000X0*%
G04 #@! TD*
G04 #@! TA.AperFunction,SMDPad,CuDef*
%ADD14RoundRect,0.250000X0.450000X-0.325000X0.450000X0.325000X-0.450000X0.325000X-0.450000X-0.325000X0*%
G04 #@! TD*
G04 #@! TA.AperFunction,ViaPad*
%ADD15C,0.800000*%
G04 #@! TD*
G04 #@! TA.AperFunction,Conductor*
%ADD16C,0.600000*%
G04 #@! TD*
G04 #@! TA.AperFunction,Conductor*
%ADD17C,0.250000*%
G04 #@! TD*
G04 APERTURE END LIST*
D10*
X98823000Y-94208000D03*
X98823000Y-97510000D03*
X98823000Y-100812000D03*
X98823000Y-103860000D03*
D11*
X57408000Y-138020000D03*
X55358000Y-138020000D03*
D12*
X102823000Y-58098000D03*
X104823000Y-58098000D03*
D13*
X95372000Y-49247000D03*
D14*
X121823000Y-121148000D03*
X121823000Y-119098000D03*
X113823000Y-89123000D03*
X113823000Y-87073000D03*
D12*
X122823000Y-124098000D03*
X124823000Y-124098000D03*
D11*
X66797000Y-104746000D03*
X64747000Y-104746000D03*
X80259000Y-73758000D03*
X78209000Y-73758000D03*
D12*
X114823000Y-92098000D03*
X116823000Y-92098000D03*
X59447000Y-138020000D03*
X61447000Y-138020000D03*
X82307000Y-73758000D03*
X84307000Y-73758000D03*
X68836000Y-104746000D03*
X70836000Y-104746000D03*
D13*
X98293000Y-49247000D03*
D14*
X101823000Y-55123000D03*
X101823000Y-53073000D03*
D15*
X95423000Y-49298000D03*
X98323000Y-49298000D03*
X94102000Y-93697000D03*
X95626000Y-94713000D03*
X94102000Y-94713000D03*
X99563000Y-94713000D03*
X99563000Y-93697000D03*
X98039000Y-94713000D03*
X95626000Y-93697000D03*
X92197000Y-94208000D03*
X98039000Y-93697000D03*
X111501000Y-99158000D03*
X98039000Y-101317000D03*
X99563000Y-101317000D03*
X106675000Y-99158000D03*
X95626000Y-100301000D03*
X90673000Y-100682000D03*
X95626000Y-101317000D03*
X91689000Y-90776000D03*
X94102000Y-100301000D03*
X98039000Y-100301000D03*
X94102000Y-101317000D03*
X99563000Y-100301000D03*
X95626000Y-98015000D03*
X98039000Y-96999000D03*
X98039000Y-98015000D03*
X101645800Y-82038400D03*
X99563000Y-98015000D03*
X94102000Y-96999000D03*
X95626000Y-96999000D03*
X99563000Y-96999000D03*
X94102000Y-98015000D03*
X101645800Y-93112800D03*
X97023000Y-86458000D03*
X122118200Y-102917200D03*
X91943000Y-122018000D03*
X61310600Y-135937200D03*
X91943000Y-124558000D03*
X103823000Y-119478000D03*
X95753000Y-75028000D03*
X91943000Y-111858000D03*
X94737000Y-106778000D03*
X103823000Y-134718000D03*
X91943000Y-137258000D03*
X68981400Y-126996400D03*
X99004200Y-106778000D03*
X93975000Y-104365000D03*
X118816200Y-91893600D03*
X103823000Y-122018000D03*
X95753000Y-88998000D03*
X93975000Y-103349000D03*
X88844200Y-60092800D03*
X75890200Y-92147600D03*
X95753000Y-59788000D03*
X95753000Y-54708000D03*
X97023000Y-67408000D03*
X91943000Y-119478000D03*
X97023000Y-62328000D03*
X95753000Y-78838000D03*
X63190200Y-138020000D03*
X91943000Y-127098000D03*
X91943000Y-116938000D03*
X99563000Y-103349000D03*
X103823000Y-132178000D03*
X104744600Y-60092800D03*
X77769800Y-94179600D03*
X70657800Y-102714000D03*
X103823000Y-139798000D03*
X103823000Y-114398000D03*
X97023000Y-72488000D03*
X101722000Y-103857000D03*
X77922200Y-89760000D03*
X91943000Y-139798000D03*
X103823000Y-111858000D03*
X103823000Y-137258000D03*
X116835000Y-89861600D03*
X130398600Y-138477200D03*
X103823000Y-109318000D03*
X103823000Y-129638000D03*
X103823000Y-124558000D03*
X126639400Y-123999200D03*
X91943000Y-134718000D03*
X132227400Y-136445200D03*
X102103000Y-106778000D03*
X91943000Y-129638000D03*
X91943000Y-109318000D03*
X120086200Y-104949200D03*
X92095400Y-104034800D03*
X84119800Y-71726000D03*
X98039000Y-104365000D03*
X94483000Y-91538000D03*
X91943000Y-114398000D03*
X95499000Y-104365000D03*
X91943000Y-132178000D03*
X116733400Y-94230400D03*
X97023000Y-57248000D03*
X86344000Y-73561000D03*
X95753000Y-69948000D03*
X103823000Y-127098000D03*
X103823000Y-116938000D03*
X106623000Y-73704000D03*
X72588200Y-104746000D03*
X124759800Y-122018000D03*
X97023000Y-81378000D03*
X98039000Y-103349000D03*
X108503800Y-71675200D03*
X99563000Y-104365000D03*
X95753000Y-64868000D03*
X95753000Y-83918000D03*
X95499000Y-103349000D03*
D16*
X80259000Y-73758000D02*
X82394500Y-73758000D01*
X113823000Y-89123000D02*
X113823000Y-91010500D01*
X102910500Y-57293500D02*
X102910500Y-58098000D01*
X101823000Y-56206000D02*
X102910500Y-57293500D01*
X101823000Y-55123000D02*
X101823000Y-56206000D01*
X66797000Y-104746000D02*
X68923500Y-104746000D01*
X113823000Y-91010500D02*
X114910500Y-92098000D01*
X57408000Y-138020000D02*
X59534500Y-138020000D01*
D17*
X99928000Y-53073000D02*
X98547000Y-54454000D01*
X101823000Y-53073000D02*
X99928000Y-53073000D01*
X106020000Y-87073000D02*
X105958000Y-87073000D01*
X98547000Y-54454000D02*
X98547000Y-72488000D01*
X99563000Y-93697000D02*
X99334000Y-93697000D01*
X106020000Y-79961000D02*
X106020000Y-87073000D01*
X105958000Y-87073000D02*
X99563000Y-93468000D01*
X113823000Y-87073000D02*
X106020000Y-87073000D01*
X99563000Y-93468000D02*
X99563000Y-93697000D01*
X98547000Y-72488000D02*
X106020000Y-79961000D01*
X99334000Y-93697000D02*
X98823000Y-94208000D01*
X111501000Y-99158000D02*
X106675000Y-99158000D01*
X90673000Y-91792000D02*
X91689000Y-90776000D01*
X64747000Y-102986000D02*
X64747000Y-104746000D01*
X67051000Y-100682000D02*
X64747000Y-102986000D01*
X90673000Y-100682000D02*
X55358000Y-135997000D01*
X90673000Y-100682000D02*
X67051000Y-100682000D01*
X90673000Y-100682000D02*
X90673000Y-91792000D01*
X55358000Y-135997000D02*
X55358000Y-138020000D01*
X78209000Y-75518000D02*
X78209000Y-73758000D01*
X101645800Y-97532400D02*
X101747400Y-97634000D01*
X101645800Y-93112800D02*
X101645800Y-97532400D01*
X121823000Y-117709600D02*
X121823000Y-119098000D01*
X79141400Y-76450400D02*
X78209000Y-75518000D01*
X101747400Y-97634000D02*
X101623400Y-97510000D01*
X96057800Y-76450400D02*
X79141400Y-76450400D01*
X101645800Y-82038400D02*
X96057800Y-76450400D01*
X101623400Y-97510000D02*
X98823000Y-97510000D01*
X101747400Y-97634000D02*
X121823000Y-117709600D01*
X121823000Y-123010500D02*
X122910500Y-124098000D01*
X121823000Y-121148000D02*
X121823000Y-123010500D01*
G04 #@! TA.AperFunction,Conductor*
G36*
X97725032Y-43518185D02*
G01*
X97759743Y-43551628D01*
X121686308Y-77902628D01*
X121708472Y-77968889D01*
X121691294Y-78036614D01*
X121640228Y-78084301D01*
X121584558Y-78097500D01*
X109323952Y-78097500D01*
X109323006Y-78097458D01*
X109322902Y-78097500D01*
X109322901Y-78097500D01*
X109322821Y-78097532D01*
X109322634Y-78097601D01*
X109322633Y-78097601D01*
X109322621Y-78097606D01*
X109322545Y-78097791D01*
X109322453Y-78097987D01*
X109322538Y-78098193D01*
X109322603Y-78098370D01*
X109323298Y-78099065D01*
X124150525Y-94274221D01*
X134587748Y-105660283D01*
X136631390Y-107889710D01*
X136662180Y-107952430D01*
X136654173Y-108021839D01*
X136609911Y-108075901D01*
X136543448Y-108097452D01*
X136539983Y-108097500D01*
X116825648Y-108097500D01*
X116823022Y-108097416D01*
X116822585Y-108097580D01*
X116822407Y-108097973D01*
X116822567Y-108098392D01*
X116824370Y-108100309D01*
X146640090Y-141891459D01*
X146669684Y-141954751D01*
X146660362Y-142023996D01*
X146615084Y-142077209D01*
X146548224Y-142097495D01*
X146547110Y-142097500D01*
X102947500Y-142097500D01*
X102880461Y-142077815D01*
X102834706Y-142025011D01*
X102823500Y-141973500D01*
X102823500Y-110122759D01*
X102823528Y-110122616D01*
X102823524Y-110122616D01*
X102823539Y-110098002D01*
X102823541Y-110098000D01*
X102823462Y-110097808D01*
X102823384Y-110097618D01*
X102823382Y-110097616D01*
X102823099Y-110097500D01*
X102823000Y-110097459D01*
X102798446Y-110097459D01*
X102798240Y-110097500D01*
X93491760Y-110097500D01*
X93491554Y-110097459D01*
X93467000Y-110097459D01*
X93466901Y-110097500D01*
X93466617Y-110097616D01*
X93466615Y-110097618D01*
X93466459Y-110097999D01*
X93466476Y-110122616D01*
X93466471Y-110122616D01*
X93466500Y-110122759D01*
X93466500Y-141959537D01*
X93446815Y-142026576D01*
X93394011Y-142072331D01*
X93342537Y-142083537D01*
X47098997Y-142097416D01*
X47031952Y-142077752D01*
X46986181Y-142024961D01*
X46976217Y-141955806D01*
X47005223Y-141892241D01*
X47005907Y-141891459D01*
X49980723Y-138520001D01*
X54282500Y-138520001D01*
X54282501Y-138520019D01*
X54293000Y-138622796D01*
X54293001Y-138622799D01*
X54333000Y-138743505D01*
X54348186Y-138789334D01*
X54440288Y-138938656D01*
X54564344Y-139062712D01*
X54713666Y-139154814D01*
X54880203Y-139209999D01*
X54982991Y-139220500D01*
X55733008Y-139220499D01*
X55733016Y-139220498D01*
X55733019Y-139220498D01*
X55789302Y-139214748D01*
X55835797Y-139209999D01*
X56002334Y-139154814D01*
X56151656Y-139062712D01*
X56275712Y-138938656D01*
X56277461Y-138935819D01*
X56279169Y-138934283D01*
X56280193Y-138932989D01*
X56280414Y-138933163D01*
X56329406Y-138889096D01*
X56398368Y-138877872D01*
X56462451Y-138905713D01*
X56488537Y-138935817D01*
X56490288Y-138938656D01*
X56614344Y-139062712D01*
X56763666Y-139154814D01*
X56930203Y-139209999D01*
X57032991Y-139220500D01*
X57783008Y-139220499D01*
X57783016Y-139220498D01*
X57783019Y-139220498D01*
X57839302Y-139214748D01*
X57885797Y-139209999D01*
X58052334Y-139154814D01*
X58201656Y-139062712D01*
X58325712Y-138938656D01*
X58325712Y-138938655D01*
X58327319Y-138937049D01*
X58388642Y-138903564D01*
X58458334Y-138908548D01*
X58502681Y-138937049D01*
X58504288Y-138938656D01*
X58628344Y-139062712D01*
X58777666Y-139154814D01*
X58944203Y-139209999D01*
X59046991Y-139220500D01*
X59847008Y-139220499D01*
X59847016Y-139220498D01*
X59847019Y-139220498D01*
X59903302Y-139214748D01*
X59949797Y-139209999D01*
X60116334Y-139154814D01*
X60265656Y-139062712D01*
X60359675Y-138968692D01*
X60420994Y-138935210D01*
X60490686Y-138940194D01*
X60535034Y-138968695D01*
X60628654Y-139062315D01*
X60777875Y-139154356D01*
X60777880Y-139154358D01*
X60944302Y-139209505D01*
X60944309Y-139209506D01*
X61047019Y-139219999D01*
X61196999Y-139219999D01*
X61197000Y-139219998D01*
X61197000Y-138270000D01*
X61697000Y-138270000D01*
X61697000Y-139219999D01*
X61846972Y-139219999D01*
X61846986Y-139219998D01*
X61949697Y-139209505D01*
X62116119Y-139154358D01*
X62116124Y-139154356D01*
X62265345Y-139062315D01*
X62389315Y-138938345D01*
X62481356Y-138789124D01*
X62481358Y-138789119D01*
X62536505Y-138622697D01*
X62536506Y-138622690D01*
X62546999Y-138519986D01*
X62547000Y-138519973D01*
X62547000Y-138270000D01*
X61697000Y-138270000D01*
X61197000Y-138270000D01*
X61197000Y-136820000D01*
X61697000Y-136820000D01*
X61697000Y-137770000D01*
X62546999Y-137770000D01*
X62546999Y-137520028D01*
X62546998Y-137520013D01*
X62536505Y-137417302D01*
X62481358Y-137250880D01*
X62481356Y-137250875D01*
X62389315Y-137101654D01*
X62265345Y-136977684D01*
X62116124Y-136885643D01*
X62116119Y-136885641D01*
X61949697Y-136830494D01*
X61949690Y-136830493D01*
X61846986Y-136820000D01*
X61697000Y-136820000D01*
X61197000Y-136820000D01*
X61047027Y-136820000D01*
X61047012Y-136820001D01*
X60944302Y-136830494D01*
X60777880Y-136885641D01*
X60777875Y-136885643D01*
X60628657Y-136977682D01*
X60535034Y-137071305D01*
X60473710Y-137104789D01*
X60404019Y-137099805D01*
X60359672Y-137071304D01*
X60265657Y-136977289D01*
X60265656Y-136977288D01*
X60116334Y-136885186D01*
X59949797Y-136830001D01*
X59949795Y-136830000D01*
X59847010Y-136819500D01*
X59046998Y-136819500D01*
X59046980Y-136819501D01*
X58944203Y-136830000D01*
X58944200Y-136830001D01*
X58777668Y-136885185D01*
X58777663Y-136885187D01*
X58628342Y-136977289D01*
X58502681Y-137102951D01*
X58441358Y-137136436D01*
X58371666Y-137131452D01*
X58327319Y-137102951D01*
X58201657Y-136977289D01*
X58201656Y-136977288D01*
X58052334Y-136885186D01*
X57885797Y-136830001D01*
X57885795Y-136830000D01*
X57783010Y-136819500D01*
X57032998Y-136819500D01*
X57032980Y-136819501D01*
X56930203Y-136830000D01*
X56930200Y-136830001D01*
X56763668Y-136885185D01*
X56763663Y-136885187D01*
X56614342Y-136977289D01*
X56490285Y-137101346D01*
X56488537Y-137104182D01*
X56486829Y-137105717D01*
X56485807Y-137107011D01*
X56485585Y-137106836D01*
X56436589Y-137150905D01*
X56367626Y-137162126D01*
X56303544Y-137134282D01*
X56277463Y-137104182D01*
X56275714Y-137101346D01*
X56151657Y-136977289D01*
X56151656Y-136977288D01*
X56042402Y-136909900D01*
X55995679Y-136857953D01*
X55983500Y-136804362D01*
X55983500Y-136307452D01*
X56003185Y-136240413D01*
X56019819Y-136219771D01*
X86879592Y-105359999D01*
X97676552Y-105359999D01*
X97676553Y-105360000D01*
X99969447Y-105360000D01*
X99969447Y-105359999D01*
X98823000Y-104213553D01*
X97676552Y-105359999D01*
X86879592Y-105359999D01*
X90620772Y-101618819D01*
X90682095Y-101585334D01*
X90708453Y-101582500D01*
X90767644Y-101582500D01*
X90767646Y-101582500D01*
X90952803Y-101543144D01*
X91125730Y-101466151D01*
X91278871Y-101354888D01*
X91312986Y-101317000D01*
X93196540Y-101317000D01*
X93216326Y-101505256D01*
X93216327Y-101505259D01*
X93274818Y-101685277D01*
X93274821Y-101685284D01*
X93369467Y-101849216D01*
X93432150Y-101918832D01*
X93496129Y-101989888D01*
X93649265Y-102101148D01*
X93649270Y-102101151D01*
X93822192Y-102178142D01*
X93822197Y-102178144D01*
X94007354Y-102217500D01*
X94007355Y-102217500D01*
X94196644Y-102217500D01*
X94196646Y-102217500D01*
X94381803Y-102178144D01*
X94554730Y-102101151D01*
X94707871Y-101989888D01*
X94771850Y-101918831D01*
X94831337Y-101882183D01*
X94901194Y-101883514D01*
X94956150Y-101918832D01*
X95020129Y-101989888D01*
X95173265Y-102101148D01*
X95173270Y-102101151D01*
X95346192Y-102178142D01*
X95346197Y-102178144D01*
X95531354Y-102217500D01*
X95531355Y-102217500D01*
X95720644Y-102217500D01*
X95720646Y-102217500D01*
X95905803Y-102178144D01*
X96078730Y-102101151D01*
X96231871Y-101989888D01*
X96348940Y-101859870D01*
X96822500Y-101859870D01*
X96822501Y-101859876D01*
X96828908Y-101919483D01*
X96879202Y-102054328D01*
X96879206Y-102054335D01*
X96965452Y-102169544D01*
X96965455Y-102169547D01*
X97055621Y-102237046D01*
X97097492Y-102292980D01*
X97102476Y-102362671D01*
X97068990Y-102423994D01*
X97055622Y-102435578D01*
X96965809Y-102502812D01*
X96879649Y-102617906D01*
X96879645Y-102617913D01*
X96829403Y-102752620D01*
X96829401Y-102752627D01*
X96823000Y-102812155D01*
X96823000Y-104907844D01*
X96829401Y-104967372D01*
X96829403Y-104967379D01*
X96879645Y-105102086D01*
X96879649Y-105102093D01*
X96965808Y-105217185D01*
X96965817Y-105217194D01*
X97049560Y-105279885D01*
X97049562Y-105279884D01*
X98735318Y-103594128D01*
X98796641Y-103560643D01*
X98866333Y-103565627D01*
X98910680Y-103594128D01*
X100596436Y-105279884D01*
X100680190Y-105217186D01*
X100766350Y-105102093D01*
X100766354Y-105102086D01*
X100816596Y-104967379D01*
X100816598Y-104967372D01*
X100822999Y-104907844D01*
X100823000Y-104907827D01*
X100823000Y-102812172D01*
X100822999Y-102812155D01*
X100816598Y-102752627D01*
X100816596Y-102752620D01*
X100766354Y-102617913D01*
X100766350Y-102617906D01*
X100680190Y-102502813D01*
X100590378Y-102435579D01*
X100548507Y-102379645D01*
X100543523Y-102309953D01*
X100577008Y-102248630D01*
X100590371Y-102237050D01*
X100680546Y-102169546D01*
X100766796Y-102054331D01*
X100817091Y-101919483D01*
X100823500Y-101859873D01*
X100823499Y-99764128D01*
X100817091Y-99704517D01*
X100811756Y-99690214D01*
X100766797Y-99569671D01*
X100766793Y-99569664D01*
X100680547Y-99454455D01*
X100680544Y-99454452D01*
X100565335Y-99368206D01*
X100565328Y-99368202D01*
X100430482Y-99317908D01*
X100430483Y-99317908D01*
X100370883Y-99311501D01*
X100370881Y-99311500D01*
X100370873Y-99311500D01*
X100370864Y-99311500D01*
X97275129Y-99311500D01*
X97275123Y-99311501D01*
X97215516Y-99317908D01*
X97080671Y-99368202D01*
X97080664Y-99368206D01*
X96965455Y-99454452D01*
X96965452Y-99454455D01*
X96879206Y-99569664D01*
X96879202Y-99569671D01*
X96828908Y-99704517D01*
X96822501Y-99764116D01*
X96822501Y-99764123D01*
X96822500Y-99764135D01*
X96822500Y-101859870D01*
X96348940Y-101859870D01*
X96358533Y-101849216D01*
X96453179Y-101685284D01*
X96511674Y-101505256D01*
X96531460Y-101317000D01*
X96511674Y-101128744D01*
X96453179Y-100948716D01*
X96408308Y-100870997D01*
X96391836Y-100803100D01*
X96408309Y-100747001D01*
X96453179Y-100669284D01*
X96511674Y-100489256D01*
X96531460Y-100301000D01*
X96511674Y-100112744D01*
X96453179Y-99932716D01*
X96358533Y-99768784D01*
X96231871Y-99628112D01*
X96151434Y-99569671D01*
X96078734Y-99516851D01*
X96078729Y-99516848D01*
X95905807Y-99439857D01*
X95905802Y-99439855D01*
X95760001Y-99408865D01*
X95720646Y-99400500D01*
X95531354Y-99400500D01*
X95498897Y-99407398D01*
X95346197Y-99439855D01*
X95346192Y-99439857D01*
X95173270Y-99516848D01*
X95173265Y-99516851D01*
X95020129Y-99628111D01*
X95020128Y-99628112D01*
X94956149Y-99699168D01*
X94896663Y-99735816D01*
X94826806Y-99734485D01*
X94771851Y-99699168D01*
X94707871Y-99628112D01*
X94707870Y-99628111D01*
X94554734Y-99516851D01*
X94554729Y-99516848D01*
X94381807Y-99439857D01*
X94381802Y-99439855D01*
X94236001Y-99408865D01*
X94196646Y-99400500D01*
X94007354Y-99400500D01*
X93974897Y-99407398D01*
X93822197Y-99439855D01*
X93822192Y-99439857D01*
X93649270Y-99516848D01*
X93649265Y-99516851D01*
X93496129Y-99628111D01*
X93369466Y-99768785D01*
X93274821Y-99932715D01*
X93274818Y-99932722D01*
X93219369Y-100103379D01*
X93216326Y-100112744D01*
X93196540Y-100301000D01*
X93216326Y-100489256D01*
X93216327Y-100489259D01*
X93274820Y-100669283D01*
X93319690Y-100747001D01*
X93336162Y-100814901D01*
X93319690Y-100870999D01*
X93274820Y-100948716D01*
X93241819Y-101050284D01*
X93216326Y-101128744D01*
X93196540Y-101317000D01*
X91312986Y-101317000D01*
X91405533Y-101214216D01*
X91500179Y-101050284D01*
X91558674Y-100870256D01*
X91578460Y-100682000D01*
X91558674Y-100493744D01*
X91500179Y-100313716D01*
X91405533Y-100149784D01*
X91330350Y-100066284D01*
X91300120Y-100003292D01*
X91298500Y-99983312D01*
X91298500Y-98015000D01*
X93196540Y-98015000D01*
X93216326Y-98203256D01*
X93216327Y-98203259D01*
X93274818Y-98383277D01*
X93274821Y-98383284D01*
X93369467Y-98547216D01*
X93440211Y-98625785D01*
X93496129Y-98687888D01*
X93649265Y-98799148D01*
X93649270Y-98799151D01*
X93822192Y-98876142D01*
X93822197Y-98876144D01*
X94007354Y-98915500D01*
X94007355Y-98915500D01*
X94196644Y-98915500D01*
X94196646Y-98915500D01*
X94381803Y-98876144D01*
X94554730Y-98799151D01*
X94707871Y-98687888D01*
X94771850Y-98616831D01*
X94831337Y-98580183D01*
X94901194Y-98581514D01*
X94956150Y-98616832D01*
X95020129Y-98687888D01*
X95173265Y-98799148D01*
X95173270Y-98799151D01*
X95346192Y-98876142D01*
X95346197Y-98876144D01*
X95531354Y-98915500D01*
X95531355Y-98915500D01*
X95720644Y-98915500D01*
X95720646Y-98915500D01*
X95905803Y-98876144D01*
X96078730Y-98799151D01*
X96231871Y-98687888D01*
X96348940Y-98557870D01*
X96822500Y-98557870D01*
X96822501Y-98557876D01*
X96828908Y-98617483D01*
X96879202Y-98752328D01*
X96879206Y-98752335D01*
X96965452Y-98867544D01*
X96965455Y-98867547D01*
X97080664Y-98953793D01*
X97080671Y-98953797D01*
X97215517Y-99004091D01*
X97215516Y-99004091D01*
X97222444Y-99004835D01*
X97275127Y-99010500D01*
X100370872Y-99010499D01*
X100430483Y-99004091D01*
X100565331Y-98953796D01*
X100680546Y-98867546D01*
X100766796Y-98752331D01*
X100817091Y-98617483D01*
X100823500Y-98557873D01*
X100823500Y-98259500D01*
X100843185Y-98192461D01*
X100895989Y-98146706D01*
X100947500Y-98135500D01*
X101312948Y-98135500D01*
X101379987Y-98155185D01*
X101400629Y-98171819D01*
X121109303Y-117880493D01*
X121142788Y-117941816D01*
X121137804Y-118011508D01*
X121095932Y-118067441D01*
X121060630Y-118085878D01*
X121053666Y-118088186D01*
X121053663Y-118088187D01*
X120904342Y-118180289D01*
X120780289Y-118304342D01*
X120688187Y-118453663D01*
X120688186Y-118453666D01*
X120633001Y-118620203D01*
X120633001Y-118620204D01*
X120633000Y-118620204D01*
X120622500Y-118722983D01*
X120622500Y-119473001D01*
X120622501Y-119473019D01*
X120633000Y-119575796D01*
X120633001Y-119575799D01*
X120688185Y-119742331D01*
X120688187Y-119742336D01*
X120780289Y-119891657D01*
X120904346Y-120015714D01*
X120907182Y-120017463D01*
X120908717Y-120019170D01*
X120910011Y-120020193D01*
X120909836Y-120020414D01*
X120953905Y-120069411D01*
X120965126Y-120138374D01*
X120937282Y-120202456D01*
X120907182Y-120228537D01*
X120904346Y-120230285D01*
X120780289Y-120354342D01*
X120688187Y-120503663D01*
X120688186Y-120503666D01*
X120633001Y-120670203D01*
X120633001Y-120670204D01*
X120633000Y-120670204D01*
X120622500Y-120772983D01*
X120622500Y-121523001D01*
X120622501Y-121523019D01*
X120633000Y-121625796D01*
X120633001Y-121625799D01*
X120688185Y-121792331D01*
X120688186Y-121792334D01*
X120780288Y-121941656D01*
X120904344Y-122065712D01*
X121053666Y-122157814D01*
X121053668Y-122157815D01*
X121074110Y-122164588D01*
X121112502Y-122177310D01*
X121169947Y-122217081D01*
X121196772Y-122281596D01*
X121197500Y-122295016D01*
X121197500Y-122927755D01*
X121195775Y-122943372D01*
X121196061Y-122943399D01*
X121195326Y-122951165D01*
X121197500Y-123020314D01*
X121197500Y-123049843D01*
X121197501Y-123049860D01*
X121198368Y-123056731D01*
X121198826Y-123062550D01*
X121200290Y-123109124D01*
X121200291Y-123109127D01*
X121205880Y-123128367D01*
X121209824Y-123147411D01*
X121212336Y-123167292D01*
X121218472Y-123182789D01*
X121229490Y-123210619D01*
X121231382Y-123216147D01*
X121244381Y-123260888D01*
X121254580Y-123278134D01*
X121263138Y-123295603D01*
X121270514Y-123314232D01*
X121297898Y-123351923D01*
X121301106Y-123356807D01*
X121324827Y-123396916D01*
X121324833Y-123396924D01*
X121338990Y-123411080D01*
X121351628Y-123425876D01*
X121363405Y-123442086D01*
X121363406Y-123442087D01*
X121399309Y-123471788D01*
X121403620Y-123475710D01*
X121686181Y-123758271D01*
X121719666Y-123819594D01*
X121722500Y-123845952D01*
X121722500Y-124598001D01*
X121722501Y-124598019D01*
X121733000Y-124700796D01*
X121733001Y-124700799D01*
X121788115Y-124867119D01*
X121788186Y-124867334D01*
X121880288Y-125016656D01*
X122004344Y-125140712D01*
X122153666Y-125232814D01*
X122320203Y-125287999D01*
X122422991Y-125298500D01*
X123223008Y-125298499D01*
X123223016Y-125298498D01*
X123223019Y-125298498D01*
X123279302Y-125292748D01*
X123325797Y-125287999D01*
X123492334Y-125232814D01*
X123641656Y-125140712D01*
X123735675Y-125046692D01*
X123796994Y-125013210D01*
X123866686Y-125018194D01*
X123911034Y-125046695D01*
X124004654Y-125140315D01*
X124153875Y-125232356D01*
X124153880Y-125232358D01*
X124320302Y-125287505D01*
X124320309Y-125287506D01*
X124423019Y-125297999D01*
X124572999Y-125297999D01*
X124573000Y-125297998D01*
X124573000Y-124348000D01*
X125073000Y-124348000D01*
X125073000Y-125297999D01*
X125222972Y-125297999D01*
X125222986Y-125297998D01*
X125325697Y-125287505D01*
X125492119Y-125232358D01*
X125492124Y-125232356D01*
X125641345Y-125140315D01*
X125765315Y-125016345D01*
X125857356Y-124867124D01*
X125857358Y-124867119D01*
X125912505Y-124700697D01*
X125912506Y-124700690D01*
X125922999Y-124597986D01*
X125923000Y-124597973D01*
X125923000Y-124348000D01*
X125073000Y-124348000D01*
X124573000Y-124348000D01*
X124573000Y-122898000D01*
X125073000Y-122898000D01*
X125073000Y-123848000D01*
X125922999Y-123848000D01*
X125922999Y-123598028D01*
X125922998Y-123598013D01*
X125912505Y-123495302D01*
X125857358Y-123328880D01*
X125857356Y-123328875D01*
X125765315Y-123179654D01*
X125641345Y-123055684D01*
X125492124Y-122963643D01*
X125492119Y-122963641D01*
X125325697Y-122908494D01*
X125325690Y-122908493D01*
X125222986Y-122898000D01*
X125073000Y-122898000D01*
X124573000Y-122898000D01*
X124423027Y-122898000D01*
X124423012Y-122898001D01*
X124320302Y-122908494D01*
X124153880Y-122963641D01*
X124153875Y-122963643D01*
X124004657Y-123055682D01*
X123911034Y-123149305D01*
X123849710Y-123182789D01*
X123780019Y-123177805D01*
X123735672Y-123149304D01*
X123641657Y-123055289D01*
X123641656Y-123055288D01*
X123492334Y-122963186D01*
X123325797Y-122908001D01*
X123325795Y-122908000D01*
X123223016Y-122897500D01*
X123223009Y-122897500D01*
X122645953Y-122897500D01*
X122578914Y-122877815D01*
X122558272Y-122861181D01*
X122484819Y-122787728D01*
X122451334Y-122726405D01*
X122448500Y-122700047D01*
X122448500Y-122295016D01*
X122468185Y-122227977D01*
X122520989Y-122182222D01*
X122533488Y-122177313D01*
X122592334Y-122157814D01*
X122741656Y-122065712D01*
X122865712Y-121941656D01*
X122957814Y-121792334D01*
X123012999Y-121625797D01*
X123023500Y-121523009D01*
X123023499Y-120772992D01*
X123012999Y-120670203D01*
X122957814Y-120503666D01*
X122865712Y-120354344D01*
X122741656Y-120230288D01*
X122738819Y-120228538D01*
X122737283Y-120226830D01*
X122735989Y-120225807D01*
X122736163Y-120225585D01*
X122692096Y-120176594D01*
X122680872Y-120107632D01*
X122708713Y-120043549D01*
X122738817Y-120017462D01*
X122741656Y-120015712D01*
X122865712Y-119891656D01*
X122957814Y-119742334D01*
X123012999Y-119575797D01*
X123023500Y-119473009D01*
X123023499Y-118722992D01*
X123012999Y-118620203D01*
X122957814Y-118453666D01*
X122865712Y-118304344D01*
X122741656Y-118180288D01*
X122592334Y-118088186D01*
X122533493Y-118068688D01*
X122476051Y-118028916D01*
X122449228Y-117964400D01*
X122448500Y-117950983D01*
X122448500Y-117792342D01*
X122450224Y-117776722D01*
X122449939Y-117776696D01*
X122450671Y-117768940D01*
X122450673Y-117768933D01*
X122448500Y-117699785D01*
X122448500Y-117670250D01*
X122447631Y-117663372D01*
X122447172Y-117657543D01*
X122445709Y-117610972D01*
X122440122Y-117591744D01*
X122436174Y-117572684D01*
X122433663Y-117552804D01*
X122416512Y-117509487D01*
X122414619Y-117503958D01*
X122401618Y-117459209D01*
X122401616Y-117459206D01*
X122391423Y-117441971D01*
X122382861Y-117424494D01*
X122375487Y-117405870D01*
X122375486Y-117405868D01*
X122348079Y-117368145D01*
X122344888Y-117363286D01*
X122321172Y-117323183D01*
X122321165Y-117323174D01*
X122307006Y-117309015D01*
X122294368Y-117294219D01*
X122282594Y-117278013D01*
X122246688Y-117248309D01*
X122242376Y-117244386D01*
X104155991Y-99158000D01*
X105769540Y-99158000D01*
X105789326Y-99346256D01*
X105789327Y-99346259D01*
X105847818Y-99526277D01*
X105847821Y-99526284D01*
X105942467Y-99690216D01*
X106044185Y-99803185D01*
X106069129Y-99830888D01*
X106222265Y-99942148D01*
X106222270Y-99942151D01*
X106395192Y-100019142D01*
X106395197Y-100019144D01*
X106580354Y-100058500D01*
X106580355Y-100058500D01*
X106769644Y-100058500D01*
X106769646Y-100058500D01*
X106954803Y-100019144D01*
X107127730Y-99942151D01*
X107280871Y-99830888D01*
X107283788Y-99827647D01*
X107286600Y-99824526D01*
X107346087Y-99787879D01*
X107378748Y-99783500D01*
X110797252Y-99783500D01*
X110864291Y-99803185D01*
X110889400Y-99824526D01*
X110895126Y-99830885D01*
X110895130Y-99830889D01*
X111048265Y-99942148D01*
X111048270Y-99942151D01*
X111221192Y-100019142D01*
X111221197Y-100019144D01*
X111406354Y-100058500D01*
X111406355Y-100058500D01*
X111595644Y-100058500D01*
X111595646Y-100058500D01*
X111780803Y-100019144D01*
X111953730Y-99942151D01*
X112106871Y-99830888D01*
X112233533Y-99690216D01*
X112328179Y-99526284D01*
X112386674Y-99346256D01*
X112406460Y-99158000D01*
X112386674Y-98969744D01*
X112328179Y-98789716D01*
X112233533Y-98625784D01*
X112106871Y-98485112D01*
X112106870Y-98485111D01*
X111953734Y-98373851D01*
X111953729Y-98373848D01*
X111780807Y-98296857D01*
X111780802Y-98296855D01*
X111605055Y-98259500D01*
X111595646Y-98257500D01*
X111406354Y-98257500D01*
X111396945Y-98259500D01*
X111221197Y-98296855D01*
X111221192Y-98296857D01*
X111048270Y-98373848D01*
X111048265Y-98373851D01*
X110895130Y-98485110D01*
X110895126Y-98485114D01*
X110889400Y-98491474D01*
X110829913Y-98528121D01*
X110797252Y-98532500D01*
X107378748Y-98532500D01*
X107311709Y-98512815D01*
X107286600Y-98491474D01*
X107280873Y-98485114D01*
X107280869Y-98485110D01*
X107127734Y-98373851D01*
X107127729Y-98373848D01*
X106954807Y-98296857D01*
X106954802Y-98296855D01*
X106779055Y-98259500D01*
X106769646Y-98257500D01*
X106580354Y-98257500D01*
X106570945Y-98259500D01*
X106395197Y-98296855D01*
X106395192Y-98296857D01*
X106222270Y-98373848D01*
X106222265Y-98373851D01*
X106069129Y-98485111D01*
X105942466Y-98625785D01*
X105847821Y-98789715D01*
X105847818Y-98789722D01*
X105789327Y-98969740D01*
X105789326Y-98969744D01*
X105769540Y-99158000D01*
X104155991Y-99158000D01*
X102307619Y-97309628D01*
X102274134Y-97248305D01*
X102271300Y-97221947D01*
X102271300Y-93811487D01*
X102290985Y-93744448D01*
X102303150Y-93728515D01*
X102337149Y-93690755D01*
X102378333Y-93645016D01*
X102472979Y-93481084D01*
X102531474Y-93301056D01*
X102551260Y-93112800D01*
X102531474Y-92924544D01*
X102472979Y-92744516D01*
X102378333Y-92580584D01*
X102251671Y-92439912D01*
X102251670Y-92439911D01*
X102098534Y-92328651D01*
X102098529Y-92328648D01*
X101925603Y-92251655D01*
X101920551Y-92250014D01*
X101862875Y-92210578D01*
X101835676Y-92146219D01*
X101847590Y-92077373D01*
X101871184Y-92044405D01*
X106180771Y-87734819D01*
X106242094Y-87701334D01*
X106268452Y-87698500D01*
X112607362Y-87698500D01*
X112674401Y-87718185D01*
X112712901Y-87757403D01*
X112780289Y-87866657D01*
X112904346Y-87990714D01*
X112907182Y-87992463D01*
X112908717Y-87994170D01*
X112910011Y-87995193D01*
X112909836Y-87995414D01*
X112953905Y-88044411D01*
X112965126Y-88113374D01*
X112937282Y-88177456D01*
X112907182Y-88203537D01*
X112904346Y-88205285D01*
X112780289Y-88329342D01*
X112688187Y-88478663D01*
X112688186Y-88478666D01*
X112633001Y-88645203D01*
X112633001Y-88645204D01*
X112633000Y-88645204D01*
X112622500Y-88747983D01*
X112622500Y-89498001D01*
X112622501Y-89498019D01*
X112633000Y-89600796D01*
X112633001Y-89600799D01*
X112688185Y-89767331D01*
X112688186Y-89767334D01*
X112780288Y-89916656D01*
X112904344Y-90040712D01*
X112963596Y-90077258D01*
X113010321Y-90129204D01*
X113022500Y-90182797D01*
X113022500Y-91100691D01*
X113022501Y-91100700D01*
X113031791Y-91141408D01*
X113032955Y-91148263D01*
X113037632Y-91189759D01*
X113051420Y-91229162D01*
X113053345Y-91235845D01*
X113062639Y-91276561D01*
X113080759Y-91314188D01*
X113083420Y-91320613D01*
X113088743Y-91335822D01*
X113097212Y-91360025D01*
X113119422Y-91395372D01*
X113122787Y-91401459D01*
X113140910Y-91439089D01*
X113166940Y-91471729D01*
X113170966Y-91477404D01*
X113193182Y-91512759D01*
X113193184Y-91512762D01*
X113686181Y-92005759D01*
X113719666Y-92067082D01*
X113722500Y-92093440D01*
X113722500Y-92598001D01*
X113722501Y-92598019D01*
X113733000Y-92700796D01*
X113733001Y-92700799D01*
X113782593Y-92850455D01*
X113788186Y-92867334D01*
X113880288Y-93016656D01*
X114004344Y-93140712D01*
X114153666Y-93232814D01*
X114320203Y-93287999D01*
X114422991Y-93298500D01*
X115223008Y-93298499D01*
X115223016Y-93298498D01*
X115223019Y-93298498D01*
X115279302Y-93292748D01*
X115325797Y-93287999D01*
X115492334Y-93232814D01*
X115641656Y-93140712D01*
X115735675Y-93046692D01*
X115796994Y-93013210D01*
X115866686Y-93018194D01*
X115911034Y-93046695D01*
X116004654Y-93140315D01*
X116153875Y-93232356D01*
X116153880Y-93232358D01*
X116320302Y-93287505D01*
X116320309Y-93287506D01*
X116423019Y-93297999D01*
X116572999Y-93297999D01*
X116573000Y-93297998D01*
X116573000Y-92348000D01*
X117073000Y-92348000D01*
X117073000Y-93297999D01*
X117222972Y-93297999D01*
X117222986Y-93297998D01*
X117325697Y-93287505D01*
X117492119Y-93232358D01*
X117492124Y-93232356D01*
X117641345Y-93140315D01*
X117765315Y-93016345D01*
X117857356Y-92867124D01*
X117857358Y-92867119D01*
X117912505Y-92700697D01*
X117912506Y-92700690D01*
X117922999Y-92597986D01*
X117923000Y-92597973D01*
X117923000Y-92348000D01*
X117073000Y-92348000D01*
X116573000Y-92348000D01*
X116573000Y-90898000D01*
X117073000Y-90898000D01*
X117073000Y-91848000D01*
X117922999Y-91848000D01*
X117922999Y-91598028D01*
X117922998Y-91598013D01*
X117912505Y-91495302D01*
X117857358Y-91328880D01*
X117857356Y-91328875D01*
X117765315Y-91179654D01*
X117641345Y-91055684D01*
X117492124Y-90963643D01*
X117492119Y-90963641D01*
X117325697Y-90908494D01*
X117325690Y-90908493D01*
X117222986Y-90898000D01*
X117073000Y-90898000D01*
X116573000Y-90898000D01*
X116423027Y-90898000D01*
X116423012Y-90898001D01*
X116320302Y-90908494D01*
X116153880Y-90963641D01*
X116153875Y-90963643D01*
X116004657Y-91055682D01*
X115911034Y-91149305D01*
X115849710Y-91182789D01*
X115780019Y-91177805D01*
X115735672Y-91149304D01*
X115641657Y-91055289D01*
X115641656Y-91055288D01*
X115492334Y-90963186D01*
X115325797Y-90908001D01*
X115325795Y-90908000D01*
X115223016Y-90897500D01*
X115223009Y-90897500D01*
X114893440Y-90897500D01*
X114826401Y-90877815D01*
X114805759Y-90861181D01*
X114659819Y-90715241D01*
X114626334Y-90653918D01*
X114623500Y-90627560D01*
X114623500Y-90182797D01*
X114643185Y-90115758D01*
X114682403Y-90077258D01*
X114741656Y-90040712D01*
X114865712Y-89916656D01*
X114957814Y-89767334D01*
X115012999Y-89600797D01*
X115023500Y-89498009D01*
X115023499Y-88747992D01*
X115012999Y-88645203D01*
X114957814Y-88478666D01*
X114865712Y-88329344D01*
X114741656Y-88205288D01*
X114738819Y-88203538D01*
X114737283Y-88201830D01*
X114735989Y-88200807D01*
X114736163Y-88200585D01*
X114692096Y-88151594D01*
X114680872Y-88082632D01*
X114708713Y-88018549D01*
X114738817Y-87992462D01*
X114741656Y-87990712D01*
X114865712Y-87866656D01*
X114957814Y-87717334D01*
X115012999Y-87550797D01*
X115023500Y-87448009D01*
X115023499Y-86697992D01*
X115012999Y-86595203D01*
X114957814Y-86428666D01*
X114865712Y-86279344D01*
X114741656Y-86155288D01*
X114592334Y-86063186D01*
X114425797Y-86008001D01*
X114425795Y-86008000D01*
X114323010Y-85997500D01*
X113322998Y-85997500D01*
X113322980Y-85997501D01*
X113220203Y-86008000D01*
X113220200Y-86008001D01*
X113053668Y-86063185D01*
X113053663Y-86063187D01*
X112904342Y-86155289D01*
X112780289Y-86279342D01*
X112780288Y-86279344D01*
X112721281Y-86375011D01*
X112712901Y-86388597D01*
X112660953Y-86435321D01*
X112607362Y-86447500D01*
X106769500Y-86447500D01*
X106702461Y-86427815D01*
X106656706Y-86375011D01*
X106645500Y-86323500D01*
X106645500Y-80043742D01*
X106647224Y-80028122D01*
X106646939Y-80028096D01*
X106647671Y-80020340D01*
X106647673Y-80020333D01*
X106645500Y-79951185D01*
X106645500Y-79921650D01*
X106644631Y-79914772D01*
X106644172Y-79908943D01*
X106642709Y-79862372D01*
X106637122Y-79843144D01*
X106633174Y-79824084D01*
X106630663Y-79804204D01*
X106613512Y-79760887D01*
X106611619Y-79755358D01*
X106598618Y-79710609D01*
X106598616Y-79710606D01*
X106588423Y-79693371D01*
X106579861Y-79675894D01*
X106572487Y-79657270D01*
X106572486Y-79657268D01*
X106545079Y-79619545D01*
X106541888Y-79614686D01*
X106518172Y-79574583D01*
X106518165Y-79574574D01*
X106504006Y-79560415D01*
X106491368Y-79545619D01*
X106479594Y-79529413D01*
X106443688Y-79499709D01*
X106439376Y-79495786D01*
X99208819Y-72265228D01*
X99175334Y-72203905D01*
X99172500Y-72177547D01*
X99172500Y-54764452D01*
X99192185Y-54697413D01*
X99208819Y-54676771D01*
X100150772Y-53734819D01*
X100212095Y-53701334D01*
X100238453Y-53698500D01*
X100607362Y-53698500D01*
X100674401Y-53718185D01*
X100712901Y-53757403D01*
X100780289Y-53866657D01*
X100904346Y-53990714D01*
X100907182Y-53992463D01*
X100908717Y-53994170D01*
X100910011Y-53995193D01*
X100909836Y-53995414D01*
X100953905Y-54044411D01*
X100965126Y-54113374D01*
X100937282Y-54177456D01*
X100907182Y-54203537D01*
X100904346Y-54205285D01*
X100780289Y-54329342D01*
X100688187Y-54478663D01*
X100688185Y-54478668D01*
X100686587Y-54483492D01*
X100633001Y-54645203D01*
X100633001Y-54645204D01*
X100633000Y-54645204D01*
X100622500Y-54747983D01*
X100622500Y-55498001D01*
X100622501Y-55498019D01*
X100633000Y-55600796D01*
X100633001Y-55600799D01*
X100688185Y-55767331D01*
X100688186Y-55767334D01*
X100780288Y-55916656D01*
X100904344Y-56040712D01*
X100963596Y-56077258D01*
X101010321Y-56129204D01*
X101022500Y-56182797D01*
X101022500Y-56296191D01*
X101022501Y-56296200D01*
X101031791Y-56336908D01*
X101032955Y-56343763D01*
X101037632Y-56385259D01*
X101051420Y-56424662D01*
X101053345Y-56431345D01*
X101062639Y-56472061D01*
X101080759Y-56509688D01*
X101083421Y-56516114D01*
X101097212Y-56555525D01*
X101119422Y-56590872D01*
X101122787Y-56596959D01*
X101140910Y-56634589D01*
X101166940Y-56667229D01*
X101170966Y-56672904D01*
X101193182Y-56708259D01*
X101193184Y-56708262D01*
X101740425Y-57255503D01*
X101773910Y-57316826D01*
X101770450Y-57382187D01*
X101733001Y-57495200D01*
X101733000Y-57495204D01*
X101722500Y-57597983D01*
X101722500Y-58598001D01*
X101722501Y-58598019D01*
X101733000Y-58700796D01*
X101733001Y-58700799D01*
X101788115Y-58867119D01*
X101788186Y-58867334D01*
X101880288Y-59016656D01*
X102004344Y-59140712D01*
X102153666Y-59232814D01*
X102320203Y-59287999D01*
X102422991Y-59298500D01*
X103223008Y-59298499D01*
X103223016Y-59298498D01*
X103223019Y-59298498D01*
X103279302Y-59292748D01*
X103325797Y-59287999D01*
X103492334Y-59232814D01*
X103641656Y-59140712D01*
X103735675Y-59046692D01*
X103796994Y-59013210D01*
X103866686Y-59018194D01*
X103911034Y-59046695D01*
X104004654Y-59140315D01*
X104153875Y-59232356D01*
X104153880Y-59232358D01*
X104320302Y-59287505D01*
X104320309Y-59287506D01*
X104423019Y-59297999D01*
X104572999Y-59297999D01*
X104573000Y-59297998D01*
X104573000Y-58348000D01*
X105073000Y-58348000D01*
X105073000Y-59297999D01*
X105222972Y-59297999D01*
X105222986Y-59297998D01*
X105325697Y-59287505D01*
X105492119Y-59232358D01*
X105492124Y-59232356D01*
X105641345Y-59140315D01*
X105765315Y-59016345D01*
X105857356Y-58867124D01*
X105857358Y-58867119D01*
X105912505Y-58700697D01*
X105912506Y-58700690D01*
X105922999Y-58597986D01*
X105923000Y-58597973D01*
X105923000Y-58348000D01*
X105073000Y-58348000D01*
X104573000Y-58348000D01*
X104573000Y-56898000D01*
X105073000Y-56898000D01*
X105073000Y-57848000D01*
X105922999Y-57848000D01*
X105922999Y-57598028D01*
X105922998Y-57598013D01*
X105912505Y-57495302D01*
X105857358Y-57328880D01*
X105857356Y-57328875D01*
X105765315Y-57179654D01*
X105641345Y-57055684D01*
X105492124Y-56963643D01*
X105492119Y-56963641D01*
X105325697Y-56908494D01*
X105325690Y-56908493D01*
X105222986Y-56898000D01*
X105073000Y-56898000D01*
X104573000Y-56898000D01*
X104423027Y-56898000D01*
X104423012Y-56898001D01*
X104320302Y-56908494D01*
X104153880Y-56963641D01*
X104153875Y-56963643D01*
X104004657Y-57055682D01*
X103911034Y-57149305D01*
X103849710Y-57182789D01*
X103780019Y-57177805D01*
X103735672Y-57149304D01*
X103713326Y-57126958D01*
X103683966Y-57080234D01*
X103682074Y-57074826D01*
X103680155Y-57068167D01*
X103670860Y-57027439D01*
X103652744Y-56989820D01*
X103650081Y-56983391D01*
X103636289Y-56943977D01*
X103625077Y-56926135D01*
X103614067Y-56908612D01*
X103610706Y-56902530D01*
X103592591Y-56864912D01*
X103592590Y-56864911D01*
X103566555Y-56832265D01*
X103562528Y-56826589D01*
X103540316Y-56791238D01*
X103412762Y-56663684D01*
X102853404Y-56104326D01*
X102819919Y-56043003D01*
X102824903Y-55973311D01*
X102853404Y-55928964D01*
X102865712Y-55916656D01*
X102957814Y-55767334D01*
X103012999Y-55600797D01*
X103023500Y-55498009D01*
X103023499Y-54747992D01*
X103012999Y-54645203D01*
X102957814Y-54478666D01*
X102865712Y-54329344D01*
X102741656Y-54205288D01*
X102738819Y-54203538D01*
X102737283Y-54201830D01*
X102735989Y-54200807D01*
X102736163Y-54200585D01*
X102692096Y-54151594D01*
X102680872Y-54082632D01*
X102708713Y-54018549D01*
X102738817Y-53992462D01*
X102741656Y-53990712D01*
X102865712Y-53866656D01*
X102957814Y-53717334D01*
X103012999Y-53550797D01*
X103023500Y-53448009D01*
X103023499Y-52697992D01*
X103018967Y-52653631D01*
X103012999Y-52595203D01*
X103012998Y-52595200D01*
X103006248Y-52574829D01*
X102957814Y-52428666D01*
X102865712Y-52279344D01*
X102741656Y-52155288D01*
X102592334Y-52063186D01*
X102425797Y-52008001D01*
X102425795Y-52008000D01*
X102323010Y-51997500D01*
X101322998Y-51997500D01*
X101322980Y-51997501D01*
X101220203Y-52008000D01*
X101220200Y-52008001D01*
X101053668Y-52063185D01*
X101053663Y-52063187D01*
X100904342Y-52155289D01*
X100780289Y-52279342D01*
X100712901Y-52388597D01*
X100660953Y-52435321D01*
X100607362Y-52447500D01*
X100010743Y-52447500D01*
X99995122Y-52445775D01*
X99995096Y-52446061D01*
X99987334Y-52445327D01*
X99987333Y-52445327D01*
X99918186Y-52447500D01*
X99888649Y-52447500D01*
X99881766Y-52448369D01*
X99875949Y-52448826D01*
X99829373Y-52450290D01*
X99810129Y-52455881D01*
X99791079Y-52459825D01*
X99771211Y-52462334D01*
X99727884Y-52479488D01*
X99722358Y-52481379D01*
X99677614Y-52494379D01*
X99677610Y-52494381D01*
X99660366Y-52504579D01*
X99642905Y-52513133D01*
X99624274Y-52520510D01*
X99624262Y-52520517D01*
X99586570Y-52547902D01*
X99581687Y-52551109D01*
X99541580Y-52574829D01*
X99527414Y-52588995D01*
X99512624Y-52601627D01*
X99496414Y-52613404D01*
X99496411Y-52613407D01*
X99466710Y-52649309D01*
X99462777Y-52653631D01*
X98163208Y-53953199D01*
X98150951Y-53963020D01*
X98151134Y-53963241D01*
X98145123Y-53968213D01*
X98097772Y-54018636D01*
X98076889Y-54039519D01*
X98076877Y-54039532D01*
X98072621Y-54045017D01*
X98068837Y-54049447D01*
X98036937Y-54083418D01*
X98036936Y-54083420D01*
X98027284Y-54100976D01*
X98016610Y-54117226D01*
X98004329Y-54133061D01*
X98004324Y-54133068D01*
X97985815Y-54175838D01*
X97983245Y-54181084D01*
X97960803Y-54221906D01*
X97955822Y-54241307D01*
X97949521Y-54259710D01*
X97941562Y-54278102D01*
X97941561Y-54278105D01*
X97934271Y-54324127D01*
X97933087Y-54329846D01*
X97921501Y-54374972D01*
X97921500Y-54374982D01*
X97921500Y-54395016D01*
X97919973Y-54414415D01*
X97916840Y-54434194D01*
X97916840Y-54434195D01*
X97921225Y-54480583D01*
X97921500Y-54486421D01*
X97921500Y-72405255D01*
X97919775Y-72420872D01*
X97920061Y-72420899D01*
X97919326Y-72428665D01*
X97921500Y-72497814D01*
X97921500Y-72527343D01*
X97921501Y-72527360D01*
X97922368Y-72534231D01*
X97922826Y-72540050D01*
X97924290Y-72586624D01*
X97924291Y-72586627D01*
X97929880Y-72605867D01*
X97933824Y-72624911D01*
X97936336Y-72644791D01*
X97953490Y-72688119D01*
X97955382Y-72693647D01*
X97968381Y-72738388D01*
X97978580Y-72755634D01*
X97987138Y-72773103D01*
X97994514Y-72791732D01*
X98021898Y-72829423D01*
X98025106Y-72834307D01*
X98048827Y-72874416D01*
X98048833Y-72874424D01*
X98062990Y-72888580D01*
X98075628Y-72903376D01*
X98087405Y-72919586D01*
X98087406Y-72919587D01*
X98123309Y-72949288D01*
X98127620Y-72953210D01*
X102008594Y-76834184D01*
X105358181Y-80183771D01*
X105391666Y-80245094D01*
X105394500Y-80271452D01*
X105394500Y-86700546D01*
X105374815Y-86767585D01*
X105358181Y-86788227D01*
X99475226Y-92671181D01*
X99413903Y-92704666D01*
X99387545Y-92707500D01*
X97275129Y-92707500D01*
X97275123Y-92707501D01*
X97215516Y-92713908D01*
X97080671Y-92764202D01*
X97080664Y-92764206D01*
X96965455Y-92850452D01*
X96965452Y-92850455D01*
X96879206Y-92965664D01*
X96879202Y-92965671D01*
X96828908Y-93100517D01*
X96822501Y-93160116D01*
X96822500Y-93160135D01*
X96822500Y-95255870D01*
X96822501Y-95255876D01*
X96828908Y-95315483D01*
X96879202Y-95450328D01*
X96879206Y-95450335D01*
X96965452Y-95565544D01*
X96965455Y-95565547D01*
X97080664Y-95651793D01*
X97080671Y-95651797D01*
X97215517Y-95702091D01*
X97215516Y-95702091D01*
X97222444Y-95702835D01*
X97275127Y-95708500D01*
X100370872Y-95708499D01*
X100430483Y-95702091D01*
X100565331Y-95651796D01*
X100680546Y-95565546D01*
X100766796Y-95450331D01*
X100780118Y-95414614D01*
X100821988Y-95358680D01*
X100887452Y-95334262D01*
X100955726Y-95349113D01*
X101005131Y-95398518D01*
X101020300Y-95457946D01*
X101020300Y-96260053D01*
X101000615Y-96327092D01*
X100947811Y-96372847D01*
X100878653Y-96382791D01*
X100815097Y-96353766D01*
X100780118Y-96303386D01*
X100766797Y-96267671D01*
X100766793Y-96267664D01*
X100680547Y-96152455D01*
X100680544Y-96152452D01*
X100565335Y-96066206D01*
X100565328Y-96066202D01*
X100430482Y-96015908D01*
X100430483Y-96015908D01*
X100370883Y-96009501D01*
X100370881Y-96009500D01*
X100370873Y-96009500D01*
X100370864Y-96009500D01*
X97275129Y-96009500D01*
X97275123Y-96009501D01*
X97215516Y-96015908D01*
X97080671Y-96066202D01*
X97080664Y-96066206D01*
X96965455Y-96152452D01*
X96965452Y-96152455D01*
X96879206Y-96267664D01*
X96879202Y-96267671D01*
X96828908Y-96402517D01*
X96822501Y-96462116D01*
X96822500Y-96462135D01*
X96822500Y-98557870D01*
X96348940Y-98557870D01*
X96358533Y-98547216D01*
X96453179Y-98383284D01*
X96511674Y-98203256D01*
X96531460Y-98015000D01*
X96511674Y-97826744D01*
X96453179Y-97646716D01*
X96408308Y-97568997D01*
X96391836Y-97501100D01*
X96408309Y-97445001D01*
X96453179Y-97367284D01*
X96511674Y-97187256D01*
X96531460Y-96999000D01*
X96511674Y-96810744D01*
X96453179Y-96630716D01*
X96358533Y-96466784D01*
X96231871Y-96326112D01*
X96231870Y-96326111D01*
X96078734Y-96214851D01*
X96078729Y-96214848D01*
X95905807Y-96137857D01*
X95905802Y-96137855D01*
X95760001Y-96106865D01*
X95720646Y-96098500D01*
X95531354Y-96098500D01*
X95498897Y-96105398D01*
X95346197Y-96137855D01*
X95346192Y-96137857D01*
X95173270Y-96214848D01*
X95173265Y-96214851D01*
X95020129Y-96326111D01*
X95020128Y-96326112D01*
X94956149Y-96397168D01*
X94896663Y-96433816D01*
X94826806Y-96432485D01*
X94771851Y-96397168D01*
X94707871Y-96326112D01*
X94707870Y-96326111D01*
X94554734Y-96214851D01*
X94554729Y-96214848D01*
X94381807Y-96137857D01*
X94381802Y-96137855D01*
X94236001Y-96106865D01*
X94196646Y-96098500D01*
X94007354Y-96098500D01*
X93974897Y-96105398D01*
X93822197Y-96137855D01*
X93822192Y-96137857D01*
X93649270Y-96214848D01*
X93649265Y-96214851D01*
X93496129Y-96326111D01*
X93369466Y-96466785D01*
X93274821Y-96630715D01*
X93274818Y-96630722D01*
X93216327Y-96810740D01*
X93216326Y-96810744D01*
X93196540Y-96999000D01*
X93216326Y-97187256D01*
X93216327Y-97187259D01*
X93274820Y-97367283D01*
X93319690Y-97445001D01*
X93336162Y-97512901D01*
X93319690Y-97568999D01*
X93274820Y-97646716D01*
X93216327Y-97826740D01*
X93216326Y-97826744D01*
X93196540Y-98015000D01*
X91298500Y-98015000D01*
X91298500Y-94878921D01*
X91318185Y-94811882D01*
X91370989Y-94766127D01*
X91440147Y-94756183D01*
X91503703Y-94785208D01*
X91514644Y-94795943D01*
X91528996Y-94811882D01*
X91591129Y-94880888D01*
X91744265Y-94992148D01*
X91744270Y-94992151D01*
X91917192Y-95069142D01*
X91917197Y-95069144D01*
X92102354Y-95108500D01*
X92102355Y-95108500D01*
X92291644Y-95108500D01*
X92291646Y-95108500D01*
X92476803Y-95069144D01*
X92649730Y-94992151D01*
X92802871Y-94880888D01*
X92929533Y-94740216D01*
X92967023Y-94675280D01*
X93017588Y-94627067D01*
X93086195Y-94613843D01*
X93151060Y-94639811D01*
X93191589Y-94696724D01*
X93197729Y-94724317D01*
X93216326Y-94901256D01*
X93216327Y-94901259D01*
X93274818Y-95081277D01*
X93274821Y-95081284D01*
X93369467Y-95245216D01*
X93432150Y-95314832D01*
X93496129Y-95385888D01*
X93649265Y-95497148D01*
X93649270Y-95497151D01*
X93822192Y-95574142D01*
X93822197Y-95574144D01*
X94007354Y-95613500D01*
X94007355Y-95613500D01*
X94196644Y-95613500D01*
X94196646Y-95613500D01*
X94381803Y-95574144D01*
X94554730Y-95497151D01*
X94707871Y-95385888D01*
X94771850Y-95314831D01*
X94831337Y-95278183D01*
X94901194Y-95279514D01*
X94956150Y-95314832D01*
X95020129Y-95385888D01*
X95173265Y-95497148D01*
X95173270Y-95497151D01*
X95346192Y-95574142D01*
X95346197Y-95574144D01*
X95531354Y-95613500D01*
X95531355Y-95613500D01*
X95720644Y-95613500D01*
X95720646Y-95613500D01*
X95905803Y-95574144D01*
X96078730Y-95497151D01*
X96231871Y-95385888D01*
X96358533Y-95245216D01*
X96453179Y-95081284D01*
X96511674Y-94901256D01*
X96531460Y-94713000D01*
X96511674Y-94524744D01*
X96453179Y-94344716D01*
X96408308Y-94266997D01*
X96391836Y-94199100D01*
X96408308Y-94143002D01*
X96453179Y-94065284D01*
X96511674Y-93885256D01*
X96531460Y-93697000D01*
X96511674Y-93508744D01*
X96453179Y-93328716D01*
X96358533Y-93164784D01*
X96231871Y-93024112D01*
X96151434Y-92965671D01*
X96078734Y-92912851D01*
X96078729Y-92912848D01*
X95905807Y-92835857D01*
X95905802Y-92835855D01*
X95760001Y-92804865D01*
X95720646Y-92796500D01*
X95531354Y-92796500D01*
X95498897Y-92803398D01*
X95346197Y-92835855D01*
X95346192Y-92835857D01*
X95173270Y-92912848D01*
X95173265Y-92912851D01*
X95020129Y-93024111D01*
X95020128Y-93024112D01*
X94956149Y-93095168D01*
X94896663Y-93131816D01*
X94826806Y-93130485D01*
X94771851Y-93095168D01*
X94707871Y-93024112D01*
X94707870Y-93024111D01*
X94554734Y-92912851D01*
X94554729Y-92912848D01*
X94381807Y-92835857D01*
X94381802Y-92835855D01*
X94236001Y-92804865D01*
X94196646Y-92796500D01*
X94007354Y-92796500D01*
X93974897Y-92803398D01*
X93822197Y-92835855D01*
X93822192Y-92835857D01*
X93649270Y-92912848D01*
X93649265Y-92912851D01*
X93496129Y-93024111D01*
X93369466Y-93164785D01*
X93274821Y-93328715D01*
X93274818Y-93328722D01*
X93225313Y-93481084D01*
X93216326Y-93508744D01*
X93205003Y-93616482D01*
X93197196Y-93690755D01*
X93170611Y-93755369D01*
X93113314Y-93795354D01*
X93043495Y-93798014D01*
X92983321Y-93762504D01*
X92966491Y-93739797D01*
X92929533Y-93675784D01*
X92802871Y-93535112D01*
X92802870Y-93535111D01*
X92649734Y-93423851D01*
X92649729Y-93423848D01*
X92476807Y-93346857D01*
X92476802Y-93346855D01*
X92331001Y-93315865D01*
X92291646Y-93307500D01*
X92102354Y-93307500D01*
X92069897Y-93314398D01*
X91917197Y-93346855D01*
X91917192Y-93346857D01*
X91744270Y-93423848D01*
X91744265Y-93423851D01*
X91591129Y-93535111D01*
X91514650Y-93620050D01*
X91455163Y-93656699D01*
X91385306Y-93655368D01*
X91327258Y-93616482D01*
X91299448Y-93552385D01*
X91298500Y-93537078D01*
X91298500Y-92102452D01*
X91318185Y-92035413D01*
X91334819Y-92014771D01*
X91636772Y-91712819D01*
X91698095Y-91679334D01*
X91724453Y-91676500D01*
X91783644Y-91676500D01*
X91783646Y-91676500D01*
X91968803Y-91637144D01*
X92141730Y-91560151D01*
X92294871Y-91448888D01*
X92421533Y-91308216D01*
X92516179Y-91144284D01*
X92574674Y-90964256D01*
X92594460Y-90776000D01*
X92574674Y-90587744D01*
X92516179Y-90407716D01*
X92421533Y-90243784D01*
X92294871Y-90103112D01*
X92259285Y-90077257D01*
X92141734Y-89991851D01*
X92141729Y-89991848D01*
X91968807Y-89914857D01*
X91968802Y-89914855D01*
X91823001Y-89883865D01*
X91783646Y-89875500D01*
X91594354Y-89875500D01*
X91561897Y-89882398D01*
X91409197Y-89914855D01*
X91409192Y-89914857D01*
X91236270Y-89991848D01*
X91236265Y-89991851D01*
X91083129Y-90103111D01*
X90956466Y-90243785D01*
X90861821Y-90407715D01*
X90861818Y-90407722D01*
X90803327Y-90587740D01*
X90803326Y-90587744D01*
X90796371Y-90653918D01*
X90785679Y-90755649D01*
X90759094Y-90820263D01*
X90750039Y-90830368D01*
X90289208Y-91291199D01*
X90276951Y-91301020D01*
X90277134Y-91301241D01*
X90271123Y-91306213D01*
X90223772Y-91356636D01*
X90202889Y-91377519D01*
X90202877Y-91377532D01*
X90198621Y-91383017D01*
X90194837Y-91387447D01*
X90162937Y-91421418D01*
X90162936Y-91421420D01*
X90153284Y-91438976D01*
X90142610Y-91455226D01*
X90130329Y-91471061D01*
X90130324Y-91471068D01*
X90111815Y-91513838D01*
X90109245Y-91519084D01*
X90086803Y-91559906D01*
X90081822Y-91579307D01*
X90075521Y-91597710D01*
X90067562Y-91616102D01*
X90067561Y-91616105D01*
X90060271Y-91662127D01*
X90059087Y-91667846D01*
X90047501Y-91712972D01*
X90047500Y-91712982D01*
X90047500Y-91733016D01*
X90045973Y-91752415D01*
X90042840Y-91772194D01*
X90042840Y-91772195D01*
X90047225Y-91818583D01*
X90047500Y-91824421D01*
X90047500Y-99932500D01*
X90027815Y-99999539D01*
X89975011Y-100045294D01*
X89923500Y-100056500D01*
X67133738Y-100056500D01*
X67118121Y-100054776D01*
X67118094Y-100055062D01*
X67110332Y-100054327D01*
X67041204Y-100056500D01*
X67011650Y-100056500D01*
X67010929Y-100056590D01*
X67004757Y-100057369D01*
X66998945Y-100057826D01*
X66952373Y-100059290D01*
X66952372Y-100059290D01*
X66933129Y-100064881D01*
X66914079Y-100068825D01*
X66894211Y-100071334D01*
X66850884Y-100088488D01*
X66845358Y-100090379D01*
X66800614Y-100103379D01*
X66800610Y-100103381D01*
X66783366Y-100113579D01*
X66765905Y-100122133D01*
X66747274Y-100129510D01*
X66747262Y-100129517D01*
X66709570Y-100156902D01*
X66704687Y-100160109D01*
X66664580Y-100183829D01*
X66650414Y-100197995D01*
X66635624Y-100210627D01*
X66619414Y-100222404D01*
X66619411Y-100222407D01*
X66589710Y-100258309D01*
X66585777Y-100262631D01*
X64363208Y-102485199D01*
X64350951Y-102495020D01*
X64351134Y-102495241D01*
X64345123Y-102500213D01*
X64297772Y-102550636D01*
X64276889Y-102571519D01*
X64276877Y-102571532D01*
X64272621Y-102577017D01*
X64268837Y-102581447D01*
X64236937Y-102615418D01*
X64236936Y-102615420D01*
X64227284Y-102632976D01*
X64216610Y-102649226D01*
X64204329Y-102665061D01*
X64204324Y-102665068D01*
X64185815Y-102707838D01*
X64183245Y-102713084D01*
X64160803Y-102753906D01*
X64155822Y-102773307D01*
X64149521Y-102791710D01*
X64141562Y-102810102D01*
X64141561Y-102810105D01*
X64134271Y-102856127D01*
X64133087Y-102861846D01*
X64121501Y-102906972D01*
X64121500Y-102906982D01*
X64121500Y-102927016D01*
X64119973Y-102946415D01*
X64116840Y-102966194D01*
X64116840Y-102966195D01*
X64121225Y-103012583D01*
X64121500Y-103018421D01*
X64121500Y-103530362D01*
X64101815Y-103597401D01*
X64062598Y-103635899D01*
X63994288Y-103678033D01*
X63953342Y-103703289D01*
X63829289Y-103827342D01*
X63737187Y-103976663D01*
X63737185Y-103976668D01*
X63737115Y-103976880D01*
X63682001Y-104143203D01*
X63682001Y-104143204D01*
X63682000Y-104143204D01*
X63671500Y-104245983D01*
X63671500Y-105246001D01*
X63671501Y-105246019D01*
X63682000Y-105348796D01*
X63682001Y-105348799D01*
X63685713Y-105360000D01*
X63737186Y-105515334D01*
X63829288Y-105664656D01*
X63953344Y-105788712D01*
X64102666Y-105880814D01*
X64269203Y-105935999D01*
X64371991Y-105946500D01*
X65122008Y-105946499D01*
X65122016Y-105946498D01*
X65122019Y-105946498D01*
X65178302Y-105940748D01*
X65224797Y-105935999D01*
X65391334Y-105880814D01*
X65540656Y-105788712D01*
X65664712Y-105664656D01*
X65666461Y-105661819D01*
X65668169Y-105660283D01*
X65669193Y-105658989D01*
X65669414Y-105659163D01*
X65718406Y-105615096D01*
X65787368Y-105603872D01*
X65851451Y-105631713D01*
X65877537Y-105661817D01*
X65879288Y-105664656D01*
X66003344Y-105788712D01*
X66152666Y-105880814D01*
X66319203Y-105935999D01*
X66421991Y-105946500D01*
X67172008Y-105946499D01*
X67172016Y-105946498D01*
X67172019Y-105946498D01*
X67228302Y-105940748D01*
X67274797Y-105935999D01*
X67441334Y-105880814D01*
X67590656Y-105788712D01*
X67714712Y-105664656D01*
X67714712Y-105664655D01*
X67716319Y-105663049D01*
X67777642Y-105629564D01*
X67847334Y-105634548D01*
X67891681Y-105663049D01*
X67893288Y-105664656D01*
X68017344Y-105788712D01*
X68166666Y-105880814D01*
X68333203Y-105935999D01*
X68435991Y-105946500D01*
X69236008Y-105946499D01*
X69236016Y-105946498D01*
X69236019Y-105946498D01*
X69292302Y-105940748D01*
X69338797Y-105935999D01*
X69505334Y-105880814D01*
X69654656Y-105788712D01*
X69748675Y-105694692D01*
X69809994Y-105661210D01*
X69879686Y-105666194D01*
X69924034Y-105694695D01*
X70017654Y-105788315D01*
X70166875Y-105880356D01*
X70166880Y-105880358D01*
X70333302Y-105935505D01*
X70333309Y-105935506D01*
X70436019Y-105945999D01*
X70585999Y-105945999D01*
X70586000Y-105945998D01*
X70586000Y-104996000D01*
X71086000Y-104996000D01*
X71086000Y-105945999D01*
X71235972Y-105945999D01*
X71235986Y-105945998D01*
X71338697Y-105935505D01*
X71505119Y-105880358D01*
X71505124Y-105880356D01*
X71654345Y-105788315D01*
X71778315Y-105664345D01*
X71870356Y-105515124D01*
X71870358Y-105515119D01*
X71925505Y-105348697D01*
X71925506Y-105348690D01*
X71935999Y-105245986D01*
X71936000Y-105245973D01*
X71936000Y-104996000D01*
X71086000Y-104996000D01*
X70586000Y-104996000D01*
X70586000Y-103546000D01*
X71086000Y-103546000D01*
X71086000Y-104496000D01*
X71935999Y-104496000D01*
X71935999Y-104246028D01*
X71935998Y-104246013D01*
X71925505Y-104143302D01*
X71870358Y-103976880D01*
X71870356Y-103976875D01*
X71778315Y-103827654D01*
X71654345Y-103703684D01*
X71505124Y-103611643D01*
X71505119Y-103611641D01*
X71338697Y-103556494D01*
X71338690Y-103556493D01*
X71235986Y-103546000D01*
X71086000Y-103546000D01*
X70586000Y-103546000D01*
X70436027Y-103546000D01*
X70436012Y-103546001D01*
X70333302Y-103556494D01*
X70166880Y-103611641D01*
X70166875Y-103611643D01*
X70017657Y-103703682D01*
X69924034Y-103797305D01*
X69862710Y-103830789D01*
X69793019Y-103825805D01*
X69748672Y-103797304D01*
X69654657Y-103703289D01*
X69654656Y-103703288D01*
X69505334Y-103611186D01*
X69338797Y-103556001D01*
X69338795Y-103556000D01*
X69236010Y-103545500D01*
X68435998Y-103545500D01*
X68435980Y-103545501D01*
X68333203Y-103556000D01*
X68333200Y-103556001D01*
X68166668Y-103611185D01*
X68166663Y-103611187D01*
X68017342Y-103703289D01*
X67891681Y-103828951D01*
X67830358Y-103862436D01*
X67760666Y-103857452D01*
X67716319Y-103828951D01*
X67590657Y-103703289D01*
X67590656Y-103703288D01*
X67441334Y-103611186D01*
X67274797Y-103556001D01*
X67274795Y-103556000D01*
X67172010Y-103545500D01*
X66421998Y-103545500D01*
X66421980Y-103545501D01*
X66319203Y-103556000D01*
X66319200Y-103556001D01*
X66152668Y-103611185D01*
X66152663Y-103611187D01*
X66003342Y-103703289D01*
X65879285Y-103827346D01*
X65877537Y-103830182D01*
X65875829Y-103831717D01*
X65874807Y-103833011D01*
X65874585Y-103832836D01*
X65825589Y-103876905D01*
X65756626Y-103888126D01*
X65692544Y-103860282D01*
X65666463Y-103830182D01*
X65664714Y-103827346D01*
X65540657Y-103703289D01*
X65540656Y-103703288D01*
X65431402Y-103635900D01*
X65384679Y-103583953D01*
X65372500Y-103530362D01*
X65372500Y-103296452D01*
X65392185Y-103229413D01*
X65408819Y-103208771D01*
X67273772Y-101343819D01*
X67335095Y-101310334D01*
X67361453Y-101307500D01*
X88863548Y-101307500D01*
X88930587Y-101327185D01*
X88976342Y-101379989D01*
X88986286Y-101449147D01*
X88957261Y-101512703D01*
X88951229Y-101519181D01*
X54974208Y-135496199D01*
X54961951Y-135506020D01*
X54962134Y-135506241D01*
X54956123Y-135511213D01*
X54908772Y-135561636D01*
X54887889Y-135582519D01*
X54887877Y-135582532D01*
X54883621Y-135588017D01*
X54879837Y-135592447D01*
X54847937Y-135626418D01*
X54847936Y-135626420D01*
X54838284Y-135643976D01*
X54827610Y-135660226D01*
X54815329Y-135676061D01*
X54815324Y-135676068D01*
X54796815Y-135718838D01*
X54794245Y-135724084D01*
X54771803Y-135764906D01*
X54766822Y-135784307D01*
X54760521Y-135802710D01*
X54752562Y-135821102D01*
X54752561Y-135821105D01*
X54745271Y-135867127D01*
X54744087Y-135872846D01*
X54732501Y-135917972D01*
X54732500Y-135917982D01*
X54732500Y-135938016D01*
X54730973Y-135957415D01*
X54727840Y-135977194D01*
X54727840Y-135977195D01*
X54732225Y-136023583D01*
X54732500Y-136029421D01*
X54732500Y-136804362D01*
X54712815Y-136871401D01*
X54673598Y-136909899D01*
X54605288Y-136952033D01*
X54564342Y-136977289D01*
X54440289Y-137101342D01*
X54348187Y-137250663D01*
X54348185Y-137250668D01*
X54348115Y-137250880D01*
X54293001Y-137417203D01*
X54293001Y-137417204D01*
X54293000Y-137417204D01*
X54282500Y-137519983D01*
X54282500Y-138520001D01*
X49980723Y-138520001D01*
X76821664Y-108100268D01*
X76823463Y-108098352D01*
X76823596Y-108097998D01*
X76823594Y-108097908D01*
X76823441Y-108097568D01*
X76823427Y-108097556D01*
X76823059Y-108097417D01*
X76820396Y-108097500D01*
X57106018Y-108097500D01*
X57038979Y-108077815D01*
X56993224Y-108025011D01*
X56983280Y-107955853D01*
X57012305Y-107892297D01*
X57014611Y-107889710D01*
X58805965Y-105935506D01*
X84320913Y-78101014D01*
X84323300Y-78098706D01*
X84323543Y-78098080D01*
X84323539Y-78097900D01*
X84323538Y-78097889D01*
X84323444Y-78097675D01*
X84323418Y-78097651D01*
X84323372Y-78097604D01*
X84323194Y-78097539D01*
X84322973Y-78097448D01*
X84320670Y-78097500D01*
X72061443Y-78097500D01*
X71994404Y-78077815D01*
X71948649Y-78025011D01*
X71938705Y-77955853D01*
X71959693Y-77902628D01*
X74498292Y-74258001D01*
X77133500Y-74258001D01*
X77133501Y-74258019D01*
X77144000Y-74360796D01*
X77144001Y-74360799D01*
X77184000Y-74481505D01*
X77199186Y-74527334D01*
X77291288Y-74676656D01*
X77415344Y-74800712D01*
X77524597Y-74868099D01*
X77571321Y-74920047D01*
X77583500Y-74973638D01*
X77583500Y-75435255D01*
X77581775Y-75450872D01*
X77582061Y-75450899D01*
X77581326Y-75458665D01*
X77583500Y-75527814D01*
X77583500Y-75557343D01*
X77583501Y-75557360D01*
X77584368Y-75564231D01*
X77584826Y-75570050D01*
X77586290Y-75616624D01*
X77586291Y-75616627D01*
X77591880Y-75635867D01*
X77595824Y-75654911D01*
X77598336Y-75674791D01*
X77615490Y-75718119D01*
X77617382Y-75723647D01*
X77630381Y-75768388D01*
X77640580Y-75785634D01*
X77649136Y-75803100D01*
X77656514Y-75821732D01*
X77673391Y-75844962D01*
X77683898Y-75859423D01*
X77687106Y-75864307D01*
X77710827Y-75904416D01*
X77710833Y-75904424D01*
X77724990Y-75918580D01*
X77737627Y-75933375D01*
X77749406Y-75949587D01*
X77781364Y-75976025D01*
X77785309Y-75979288D01*
X77789620Y-75983210D01*
X78640594Y-76834184D01*
X78650419Y-76846448D01*
X78650640Y-76846266D01*
X78655610Y-76852273D01*
X78655613Y-76852276D01*
X78655614Y-76852277D01*
X78706051Y-76899641D01*
X78726930Y-76920520D01*
X78732404Y-76924766D01*
X78736842Y-76928556D01*
X78770818Y-76960462D01*
X78770822Y-76960464D01*
X78788373Y-76970113D01*
X78804631Y-76980792D01*
X78820464Y-76993074D01*
X78842415Y-77002572D01*
X78863237Y-77011583D01*
X78868481Y-77014152D01*
X78909308Y-77036597D01*
X78928712Y-77041579D01*
X78947110Y-77047878D01*
X78965505Y-77055838D01*
X79011529Y-77063126D01*
X79017232Y-77064307D01*
X79062381Y-77075900D01*
X79082416Y-77075900D01*
X79101813Y-77077426D01*
X79121596Y-77080560D01*
X79167984Y-77076175D01*
X79173822Y-77075900D01*
X95747348Y-77075900D01*
X95814387Y-77095585D01*
X95835029Y-77112219D01*
X100706838Y-81984029D01*
X100740323Y-82045352D01*
X100742478Y-82058748D01*
X100750768Y-82137627D01*
X100760126Y-82226656D01*
X100760127Y-82226659D01*
X100818618Y-82406677D01*
X100818621Y-82406684D01*
X100913267Y-82570616D01*
X101039929Y-82711288D01*
X101193065Y-82822548D01*
X101193070Y-82822551D01*
X101365992Y-82899542D01*
X101365997Y-82899544D01*
X101551154Y-82938900D01*
X101551155Y-82938900D01*
X101740444Y-82938900D01*
X101740446Y-82938900D01*
X101925603Y-82899544D01*
X102098530Y-82822551D01*
X102251671Y-82711288D01*
X102378333Y-82570616D01*
X102472979Y-82406684D01*
X102531474Y-82226656D01*
X102551260Y-82038400D01*
X102531474Y-81850144D01*
X102472979Y-81670116D01*
X102378333Y-81506184D01*
X102251671Y-81365512D01*
X102251670Y-81365511D01*
X102098534Y-81254251D01*
X102098529Y-81254248D01*
X101925607Y-81177257D01*
X101925602Y-81177255D01*
X101779801Y-81146265D01*
X101740446Y-81137900D01*
X101740445Y-81137900D01*
X101681253Y-81137900D01*
X101614214Y-81118215D01*
X101593572Y-81101581D01*
X96558603Y-76066612D01*
X96548780Y-76054350D01*
X96548559Y-76054534D01*
X96543586Y-76048523D01*
X96493164Y-76001173D01*
X96482719Y-75990728D01*
X96472275Y-75980283D01*
X96466786Y-75976025D01*
X96462361Y-75972247D01*
X96428382Y-75940338D01*
X96428380Y-75940336D01*
X96428377Y-75940335D01*
X96410829Y-75930688D01*
X96394563Y-75920004D01*
X96378736Y-75907727D01*
X96378735Y-75907726D01*
X96378733Y-75907725D01*
X96335968Y-75889218D01*
X96330722Y-75886648D01*
X96289893Y-75864203D01*
X96289892Y-75864202D01*
X96270493Y-75859222D01*
X96252081Y-75852918D01*
X96233698Y-75844962D01*
X96233692Y-75844960D01*
X96187674Y-75837672D01*
X96181952Y-75836487D01*
X96136821Y-75824900D01*
X96136819Y-75824900D01*
X96116784Y-75824900D01*
X96097386Y-75823373D01*
X96089962Y-75822197D01*
X96077605Y-75820240D01*
X96077604Y-75820240D01*
X96031216Y-75824625D01*
X96025378Y-75824900D01*
X79451852Y-75824900D01*
X79384813Y-75805215D01*
X79364171Y-75788581D01*
X78870819Y-75295228D01*
X78837334Y-75233905D01*
X78834500Y-75207547D01*
X78834500Y-74973638D01*
X78854185Y-74906599D01*
X78893401Y-74868100D01*
X79002656Y-74800712D01*
X79126712Y-74676656D01*
X79128461Y-74673819D01*
X79130169Y-74672283D01*
X79131193Y-74670989D01*
X79131414Y-74671163D01*
X79180406Y-74627096D01*
X79249368Y-74615872D01*
X79313451Y-74643713D01*
X79339537Y-74673817D01*
X79341288Y-74676656D01*
X79465344Y-74800712D01*
X79614666Y-74892814D01*
X79781203Y-74947999D01*
X79883991Y-74958500D01*
X80634008Y-74958499D01*
X80634016Y-74958498D01*
X80634019Y-74958498D01*
X80690302Y-74952748D01*
X80736797Y-74947999D01*
X80903334Y-74892814D01*
X81052656Y-74800712D01*
X81176712Y-74676656D01*
X81176712Y-74676655D01*
X81181819Y-74671549D01*
X81183826Y-74673556D01*
X81230240Y-74640683D01*
X81300039Y-74637535D01*
X81358971Y-74671758D01*
X81359181Y-74671549D01*
X81359972Y-74672340D01*
X81360459Y-74672623D01*
X81361783Y-74674151D01*
X81364288Y-74676656D01*
X81488344Y-74800712D01*
X81637666Y-74892814D01*
X81804203Y-74947999D01*
X81906991Y-74958500D01*
X82707008Y-74958499D01*
X82707016Y-74958498D01*
X82707019Y-74958498D01*
X82763302Y-74952748D01*
X82809797Y-74947999D01*
X82976334Y-74892814D01*
X83125656Y-74800712D01*
X83219675Y-74706692D01*
X83280994Y-74673210D01*
X83350686Y-74678194D01*
X83395034Y-74706695D01*
X83488654Y-74800315D01*
X83637875Y-74892356D01*
X83637880Y-74892358D01*
X83804302Y-74947505D01*
X83804309Y-74947506D01*
X83907019Y-74957999D01*
X84056999Y-74957999D01*
X84057000Y-74957998D01*
X84057000Y-74008000D01*
X84557000Y-74008000D01*
X84557000Y-74957999D01*
X84706972Y-74957999D01*
X84706986Y-74957998D01*
X84809697Y-74947505D01*
X84976119Y-74892358D01*
X84976124Y-74892356D01*
X85125345Y-74800315D01*
X85249315Y-74676345D01*
X85341356Y-74527124D01*
X85341358Y-74527119D01*
X85396505Y-74360697D01*
X85396506Y-74360690D01*
X85406999Y-74257986D01*
X85407000Y-74257973D01*
X85407000Y-74008000D01*
X84557000Y-74008000D01*
X84057000Y-74008000D01*
X84057000Y-72558000D01*
X84557000Y-72558000D01*
X84557000Y-73508000D01*
X85406999Y-73508000D01*
X85406999Y-73258028D01*
X85406998Y-73258013D01*
X85396505Y-73155302D01*
X85341358Y-72988880D01*
X85341356Y-72988875D01*
X85249315Y-72839654D01*
X85125345Y-72715684D01*
X84976124Y-72623643D01*
X84976119Y-72623641D01*
X84809697Y-72568494D01*
X84809690Y-72568493D01*
X84706986Y-72558000D01*
X84557000Y-72558000D01*
X84057000Y-72558000D01*
X83907027Y-72558000D01*
X83907012Y-72558001D01*
X83804302Y-72568494D01*
X83637880Y-72623641D01*
X83637875Y-72623643D01*
X83488657Y-72715682D01*
X83395034Y-72809305D01*
X83333710Y-72842789D01*
X83264019Y-72837805D01*
X83219672Y-72809304D01*
X83125657Y-72715289D01*
X83125656Y-72715288D01*
X83011363Y-72644792D01*
X82976336Y-72623187D01*
X82976331Y-72623185D01*
X82952333Y-72615233D01*
X82809797Y-72568001D01*
X82809795Y-72568000D01*
X82707010Y-72557500D01*
X81906998Y-72557500D01*
X81906980Y-72557501D01*
X81804203Y-72568000D01*
X81804200Y-72568001D01*
X81637668Y-72623185D01*
X81637663Y-72623187D01*
X81488342Y-72715289D01*
X81359181Y-72844451D01*
X81357179Y-72842449D01*
X81310715Y-72875332D01*
X81240915Y-72878453D01*
X81182038Y-72844231D01*
X81181819Y-72844451D01*
X81180990Y-72843622D01*
X81180508Y-72843342D01*
X81179195Y-72841827D01*
X81052657Y-72715289D01*
X81052656Y-72715288D01*
X80938363Y-72644792D01*
X80903336Y-72623187D01*
X80903331Y-72623185D01*
X80879333Y-72615233D01*
X80736797Y-72568001D01*
X80736795Y-72568000D01*
X80634010Y-72557500D01*
X79883998Y-72557500D01*
X79883980Y-72557501D01*
X79781203Y-72568000D01*
X79781200Y-72568001D01*
X79614668Y-72623185D01*
X79614663Y-72623187D01*
X79465342Y-72715289D01*
X79341285Y-72839346D01*
X79339537Y-72842182D01*
X79337829Y-72843717D01*
X79336807Y-72845011D01*
X79336585Y-72844836D01*
X79287589Y-72888905D01*
X79218626Y-72900126D01*
X79154544Y-72872282D01*
X79128463Y-72842182D01*
X79126714Y-72839346D01*
X79002657Y-72715289D01*
X79002656Y-72715288D01*
X78888363Y-72644792D01*
X78853336Y-72623187D01*
X78853331Y-72623185D01*
X78829333Y-72615233D01*
X78686797Y-72568001D01*
X78686795Y-72568000D01*
X78584010Y-72557500D01*
X77833998Y-72557500D01*
X77833980Y-72557501D01*
X77731203Y-72568000D01*
X77731200Y-72568001D01*
X77564668Y-72623185D01*
X77564663Y-72623187D01*
X77415342Y-72715289D01*
X77291289Y-72839342D01*
X77199187Y-72988663D01*
X77199185Y-72988668D01*
X77199115Y-72988880D01*
X77144001Y-73155203D01*
X77144001Y-73155204D01*
X77144000Y-73155204D01*
X77133500Y-73257983D01*
X77133500Y-74258001D01*
X74498292Y-74258001D01*
X91362022Y-50047001D01*
X94371500Y-50047001D01*
X94371501Y-50047018D01*
X94382000Y-50149796D01*
X94382001Y-50149799D01*
X94437185Y-50316331D01*
X94437186Y-50316334D01*
X94529288Y-50465656D01*
X94653344Y-50589712D01*
X94802666Y-50681814D01*
X94969203Y-50736999D01*
X95071991Y-50747500D01*
X95672008Y-50747499D01*
X95672016Y-50747498D01*
X95672019Y-50747498D01*
X95728302Y-50741748D01*
X95774797Y-50736999D01*
X95941334Y-50681814D01*
X96090656Y-50589712D01*
X96214712Y-50465656D01*
X96306814Y-50316334D01*
X96361999Y-50149797D01*
X96372500Y-50047009D01*
X96372500Y-50047001D01*
X97292500Y-50047001D01*
X97292501Y-50047018D01*
X97303000Y-50149796D01*
X97303001Y-50149799D01*
X97358185Y-50316331D01*
X97358186Y-50316334D01*
X97450288Y-50465656D01*
X97574344Y-50589712D01*
X97723666Y-50681814D01*
X97890203Y-50736999D01*
X97992991Y-50747500D01*
X98593008Y-50747499D01*
X98593016Y-50747498D01*
X98593019Y-50747498D01*
X98649302Y-50741748D01*
X98695797Y-50736999D01*
X98862334Y-50681814D01*
X99011656Y-50589712D01*
X99135712Y-50465656D01*
X99227814Y-50316334D01*
X99282999Y-50149797D01*
X99293500Y-50047009D01*
X99293499Y-48446992D01*
X99282999Y-48344203D01*
X99227814Y-48177666D01*
X99135712Y-48028344D01*
X99011656Y-47904288D01*
X98862334Y-47812186D01*
X98695797Y-47757001D01*
X98695795Y-47757000D01*
X98593010Y-47746500D01*
X97992998Y-47746500D01*
X97992980Y-47746501D01*
X97890203Y-47757000D01*
X97890200Y-47757001D01*
X97723668Y-47812185D01*
X97723663Y-47812187D01*
X97574342Y-47904289D01*
X97450289Y-48028342D01*
X97358187Y-48177663D01*
X97358186Y-48177666D01*
X97303001Y-48344203D01*
X97303001Y-48344204D01*
X97303000Y-48344204D01*
X97292500Y-48446983D01*
X97292500Y-50047001D01*
X96372500Y-50047001D01*
X96372499Y-48446992D01*
X96361999Y-48344203D01*
X96306814Y-48177666D01*
X96214712Y-48028344D01*
X96090656Y-47904288D01*
X95941334Y-47812186D01*
X95774797Y-47757001D01*
X95774795Y-47757000D01*
X95672010Y-47746500D01*
X95071998Y-47746500D01*
X95071980Y-47746501D01*
X94969203Y-47757000D01*
X94969200Y-47757001D01*
X94802668Y-47812185D01*
X94802663Y-47812187D01*
X94653342Y-47904289D01*
X94529289Y-48028342D01*
X94437187Y-48177663D01*
X94437186Y-48177666D01*
X94382001Y-48344203D01*
X94382001Y-48344204D01*
X94382000Y-48344204D01*
X94371500Y-48446983D01*
X94371500Y-50047001D01*
X91362022Y-50047001D01*
X95886256Y-43551628D01*
X95940725Y-43507868D01*
X95988006Y-43498500D01*
X97657993Y-43498500D01*
X97725032Y-43518185D01*
G37*
G04 #@! TD.AperFunction*
M02*
