M48
; DRILL file {KiCad 7.0.8} date Fri Oct 11 08:25:39 2024
; FORMAT={-:-/ absolute / metric / decimal}
; #@! TF.CreationDate,2024-10-11T08:25:39+02:00
; #@! TF.GenerationSoftware,Kicad,Pcbnew,7.0.8
; #@! TF.FileFunction,Plated,1,2,PTH
FMAT,2
METRIC
; #@! TA.AperFunction,Plated,PTH,ViaDrill
T1C0.400
%
G90
G05
T1
X61.311Y-135.937
X63.19Y-138.02
X68.981Y-126.996
X70.658Y-102.714
X72.588Y-104.746
X75.89Y-92.148
X77.77Y-94.18
X77.922Y-89.76
X84.12Y-71.726
X86.344Y-73.561
X88.844Y-60.093
X90.673Y-100.682
X91.689Y-90.776
X91.943Y-109.318
X91.943Y-111.858
X91.943Y-114.398
X91.943Y-116.938
X91.943Y-119.478
X91.943Y-122.018
X91.943Y-124.558
X91.943Y-127.098
X91.943Y-129.638
X91.943Y-132.178
X91.943Y-134.718
X91.943Y-137.258
X91.943Y-139.798
X92.095Y-104.035
X92.197Y-94.208
X93.975Y-103.349
X93.975Y-104.365
X94.102Y-93.697
X94.102Y-94.713
X94.102Y-96.999
X94.102Y-98.015
X94.102Y-100.301
X94.102Y-101.317
X94.483Y-91.538
X94.737Y-106.778
X95.423Y-49.298
X95.499Y-103.349
X95.499Y-104.365
X95.626Y-93.697
X95.626Y-94.713
X95.626Y-96.999
X95.626Y-98.015
X95.626Y-100.301
X95.626Y-101.317
X95.753Y-54.708
X95.753Y-59.788
X95.753Y-64.868
X95.753Y-69.948
X95.753Y-75.028
X95.753Y-78.838
X95.753Y-83.918
X95.753Y-88.998
X97.023Y-57.248
X97.023Y-62.328
X97.023Y-67.408
X97.023Y-72.488
X97.023Y-81.378
X97.023Y-86.458
X98.039Y-93.697
X98.039Y-94.713
X98.039Y-96.999
X98.039Y-98.015
X98.039Y-100.301
X98.039Y-101.317
X98.039Y-103.349
X98.039Y-104.365
X98.323Y-49.298
X99.004Y-106.778
X99.563Y-93.697
X99.563Y-94.713
X99.563Y-96.999
X99.563Y-98.015
X99.563Y-100.301
X99.563Y-101.317
X99.563Y-103.349
X99.563Y-104.365
X101.646Y-82.038
X101.646Y-93.113
X101.722Y-103.857
X102.103Y-106.778
X103.823Y-109.318
X103.823Y-111.858
X103.823Y-114.398
X103.823Y-116.938
X103.823Y-119.478
X103.823Y-122.018
X103.823Y-124.558
X103.823Y-127.098
X103.823Y-129.638
X103.823Y-132.178
X103.823Y-134.718
X103.823Y-137.258
X103.823Y-139.798
X104.745Y-60.093
X106.623Y-73.704
X106.675Y-99.158
X108.504Y-71.675
X111.501Y-99.158
X116.733Y-94.23
X116.835Y-89.862
X118.816Y-91.894
X120.086Y-104.949
X122.118Y-102.917
X124.76Y-122.018
X126.639Y-123.999
X130.399Y-138.477
X132.227Y-136.445
T0
M30
