M48
; DRILL file {KiCad 7.0.8} date Tue Jun 18 20:25:41 2024
; FORMAT={-:-/ absolute / metric / decimal}
; #@! TF.CreationDate,2024-06-18T20:25:41+02:00
; #@! TF.GenerationSoftware,Kicad,Pcbnew,7.0.8
; #@! TF.FileFunction,Plated,1,2,PTH
FMAT,2
METRIC
; #@! TA.AperFunction,Plated,PTH,ViaDrill
T1C0.400
%
G90
G05
T1
X163.679Y-135.616
X165.559Y-137.698
X171.35Y-126.675
X173.026Y-102.392
X174.957Y-104.424
X178.259Y-91.826
X180.138Y-93.858
X180.291Y-89.438
X186.488Y-71.404
X188.712Y-73.239
X191.213Y-59.771
X193.041Y-100.36
X194.057Y-90.454
X194.311Y-108.996
X194.311Y-111.536
X194.311Y-114.076
X194.311Y-116.616
X194.311Y-119.156
X194.311Y-121.696
X194.311Y-124.236
X194.311Y-126.776
X194.311Y-129.316
X194.311Y-131.856
X194.311Y-134.396
X194.311Y-136.936
X194.311Y-139.476
X194.464Y-103.713
X194.565Y-93.886
X196.343Y-103.027
X196.343Y-104.043
X196.47Y-93.375
X196.47Y-94.391
X196.47Y-96.677
X196.47Y-97.693
X196.47Y-99.979
X196.47Y-100.995
X196.851Y-91.216
X197.105Y-106.456
X197.867Y-103.027
X197.867Y-104.043
X197.994Y-93.375
X197.994Y-94.391
X197.994Y-96.677
X197.994Y-97.693
X197.994Y-99.979
X197.994Y-100.995
X198.121Y-54.386
X198.121Y-59.466
X198.121Y-64.546
X198.121Y-69.626
X198.121Y-74.706
X198.121Y-78.516
X198.121Y-83.596
X198.121Y-88.676
X199.391Y-56.926
X199.391Y-62.006
X199.391Y-67.086
X199.391Y-72.166
X199.391Y-81.056
X199.391Y-86.136
X200.407Y-93.375
X200.407Y-94.391
X200.407Y-96.677
X200.407Y-97.693
X200.407Y-99.979
X200.407Y-100.995
X200.407Y-103.027
X200.407Y-104.043
X201.373Y-106.456
X201.931Y-93.375
X201.931Y-94.391
X201.931Y-96.677
X201.931Y-97.693
X201.931Y-99.979
X201.931Y-100.995
X201.931Y-103.027
X201.931Y-104.043
X204.014Y-81.717
X204.014Y-92.791
X204.09Y-103.535
X204.471Y-106.456
X207.113Y-59.771
X208.281Y-108.996
X208.281Y-111.536
X208.281Y-114.076
X208.281Y-116.616
X208.281Y-119.156
X208.281Y-121.696
X208.281Y-124.236
X208.281Y-126.776
X208.281Y-129.316
X208.281Y-131.856
X208.281Y-134.396
X208.281Y-136.936
X208.281Y-139.476
X208.991Y-73.382
X209.043Y-98.836
X210.872Y-71.354
X213.869Y-98.836
X219.102Y-93.909
X219.203Y-89.54
X221.185Y-91.572
X222.455Y-104.628
X224.487Y-102.596
X227.128Y-121.696
X229.008Y-123.678
X232.767Y-138.156
X234.596Y-136.124
T0
M30
