%TF.GenerationSoftware,KiCad,Pcbnew,7.0.8*%
%TF.CreationDate,2024-06-18T20:25:42+02:00*%
%TF.ProjectId,PCB_Christmas_Tree,5043425f-4368-4726-9973-746d61735f54,rev?*%
%TF.SameCoordinates,Original*%
%TF.FileFunction,Drillmap*%
%TF.FilePolarity,Positive*%
%FSLAX45Y45*%
G04 Gerber Fmt 4.5, Leading zero omitted, Abs format (unit mm)*
G04 Created by KiCad (PCBNEW 7.0.8) date 2024-06-18 20:25:42*
%MOMM*%
%LPD*%
G01*
G04 APERTURE LIST*
%ADD10C,0.100000*%
%ADD11C,0.200000*%
%ADD12C,0.040000*%
G04 APERTURE END LIST*
D10*
X20719146Y-10977631D02*
X19583546Y-10977631D01*
X21169146Y-7777630D02*
X22419145Y-7777630D01*
X19829146Y-4317631D02*
X17419146Y-7777630D01*
X20009146Y-4317631D02*
X19829146Y-4317631D01*
X20009146Y-4317631D02*
X22419145Y-7777630D01*
X20719146Y-14177630D02*
X20719146Y-10977631D01*
X21919146Y-10777631D02*
X24919145Y-14177630D01*
X20719146Y-14177630D02*
X24919145Y-14177630D01*
X14919145Y-14177630D02*
X19583546Y-14176230D01*
X19583546Y-10977631D02*
X19583546Y-14176230D01*
X23919145Y-10777631D02*
X21919146Y-10777631D01*
X17919146Y-10777631D02*
X14919145Y-14177630D01*
X17419146Y-7777630D02*
X18669146Y-7777630D01*
X21169146Y-7777630D02*
X23919145Y-10777631D01*
X18669146Y-7777630D02*
X15919145Y-10777631D01*
X17919146Y-10777631D02*
X15919145Y-10777631D01*
D11*
D12*
X16347905Y-13541550D02*
X16387905Y-13581550D01*
X16387905Y-13541550D02*
X16347905Y-13581550D01*
X16535865Y-13749830D02*
X16575865Y-13789830D01*
X16575865Y-13749830D02*
X16535865Y-13789830D01*
X17114986Y-12647470D02*
X17154986Y-12687470D01*
X17154986Y-12647470D02*
X17114986Y-12687470D01*
X17282626Y-10219231D02*
X17322626Y-10259231D01*
X17322626Y-10219231D02*
X17282626Y-10259231D01*
X17475666Y-10422431D02*
X17515666Y-10462431D01*
X17515666Y-10422431D02*
X17475666Y-10462431D01*
X17805866Y-9162591D02*
X17845866Y-9202591D01*
X17845866Y-9162591D02*
X17805866Y-9202591D01*
X17993826Y-9365791D02*
X18033826Y-9405791D01*
X18033826Y-9365791D02*
X17993826Y-9405791D01*
X18009066Y-8923831D02*
X18049066Y-8963831D01*
X18049066Y-8923831D02*
X18009066Y-8963831D01*
X18628826Y-7120430D02*
X18668826Y-7160430D01*
X18668826Y-7120430D02*
X18628826Y-7160430D01*
X18851246Y-7303930D02*
X18891246Y-7343930D01*
X18891246Y-7303930D02*
X18851246Y-7343930D01*
X19101266Y-5957110D02*
X19141266Y-5997110D01*
X19141266Y-5957110D02*
X19101266Y-5997110D01*
X19284146Y-10016031D02*
X19324146Y-10056031D01*
X19324146Y-10016031D02*
X19284146Y-10056031D01*
X19385746Y-9025431D02*
X19425746Y-9065431D01*
X19425746Y-9025431D02*
X19385746Y-9065431D01*
X19411146Y-10879631D02*
X19451146Y-10919631D01*
X19451146Y-10879631D02*
X19411146Y-10919631D01*
X19411146Y-11133631D02*
X19451146Y-11173631D01*
X19451146Y-11133631D02*
X19411146Y-11173631D01*
X19411146Y-11387630D02*
X19451146Y-11427630D01*
X19451146Y-11387630D02*
X19411146Y-11427630D01*
X19411146Y-11641630D02*
X19451146Y-11681630D01*
X19451146Y-11641630D02*
X19411146Y-11681630D01*
X19411146Y-11895630D02*
X19451146Y-11935630D01*
X19451146Y-11895630D02*
X19411146Y-11935630D01*
X19411146Y-12149630D02*
X19451146Y-12189630D01*
X19451146Y-12149630D02*
X19411146Y-12189630D01*
X19411146Y-12403630D02*
X19451146Y-12443630D01*
X19451146Y-12403630D02*
X19411146Y-12443630D01*
X19411146Y-12657630D02*
X19451146Y-12697630D01*
X19451146Y-12657630D02*
X19411146Y-12697630D01*
X19411146Y-12911630D02*
X19451146Y-12951630D01*
X19451146Y-12911630D02*
X19411146Y-12951630D01*
X19411146Y-13165630D02*
X19451146Y-13205630D01*
X19451146Y-13165630D02*
X19411146Y-13205630D01*
X19411146Y-13419630D02*
X19451146Y-13459630D01*
X19451146Y-13419630D02*
X19411146Y-13459630D01*
X19411146Y-13673630D02*
X19451146Y-13713630D01*
X19451146Y-13673630D02*
X19411146Y-13713630D01*
X19411146Y-13927630D02*
X19451146Y-13967630D01*
X19451146Y-13927630D02*
X19411146Y-13967630D01*
X19426386Y-10351311D02*
X19466386Y-10391311D01*
X19466386Y-10351311D02*
X19426386Y-10391311D01*
X19436546Y-9368631D02*
X19476546Y-9408631D01*
X19476546Y-9368631D02*
X19436546Y-9408631D01*
X19614346Y-10282731D02*
X19654346Y-10322731D01*
X19654346Y-10282731D02*
X19614346Y-10322731D01*
X19614346Y-10384331D02*
X19654346Y-10424331D01*
X19654346Y-10384331D02*
X19614346Y-10424331D01*
X19627046Y-9317531D02*
X19667046Y-9357531D01*
X19667046Y-9317531D02*
X19627046Y-9357531D01*
X19627046Y-9419131D02*
X19667046Y-9459131D01*
X19667046Y-9419131D02*
X19627046Y-9459131D01*
X19627046Y-9647731D02*
X19667046Y-9687731D01*
X19667046Y-9647731D02*
X19627046Y-9687731D01*
X19627046Y-9749331D02*
X19667046Y-9789331D01*
X19667046Y-9749331D02*
X19627046Y-9789331D01*
X19627046Y-9977931D02*
X19667046Y-10017931D01*
X19667046Y-9977931D02*
X19627046Y-10017931D01*
X19627046Y-10079531D02*
X19667046Y-10119531D01*
X19667046Y-10079531D02*
X19627046Y-10119531D01*
X19665146Y-9101631D02*
X19705146Y-9141631D01*
X19705146Y-9101631D02*
X19665146Y-9141631D01*
X19690546Y-10625631D02*
X19730546Y-10665631D01*
X19730546Y-10625631D02*
X19690546Y-10665631D01*
X19766746Y-10282731D02*
X19806746Y-10322731D01*
X19806746Y-10282731D02*
X19766746Y-10322731D01*
X19766746Y-10384331D02*
X19806746Y-10424331D01*
X19806746Y-10384331D02*
X19766746Y-10424331D01*
X19779446Y-9317531D02*
X19819446Y-9357531D01*
X19819446Y-9317531D02*
X19779446Y-9357531D01*
X19779446Y-9419131D02*
X19819446Y-9459131D01*
X19819446Y-9419131D02*
X19779446Y-9459131D01*
X19779446Y-9647731D02*
X19819446Y-9687731D01*
X19819446Y-9647731D02*
X19779446Y-9687731D01*
X19779446Y-9749331D02*
X19819446Y-9789331D01*
X19819446Y-9749331D02*
X19779446Y-9789331D01*
X19779446Y-9977931D02*
X19819446Y-10017931D01*
X19819446Y-9977931D02*
X19779446Y-10017931D01*
X19779446Y-10079531D02*
X19819446Y-10119531D01*
X19819446Y-10079531D02*
X19779446Y-10119531D01*
X19792146Y-5418631D02*
X19832146Y-5458631D01*
X19832146Y-5418631D02*
X19792146Y-5458631D01*
X19792146Y-5926630D02*
X19832146Y-5966630D01*
X19832146Y-5926630D02*
X19792146Y-5966630D01*
X19792146Y-6434630D02*
X19832146Y-6474630D01*
X19832146Y-6434630D02*
X19792146Y-6474630D01*
X19792146Y-6942630D02*
X19832146Y-6982630D01*
X19832146Y-6942630D02*
X19792146Y-6982630D01*
X19792146Y-7450630D02*
X19832146Y-7490630D01*
X19832146Y-7450630D02*
X19792146Y-7490630D01*
X19792146Y-7831630D02*
X19832146Y-7871630D01*
X19832146Y-7831630D02*
X19792146Y-7871630D01*
X19792146Y-8339630D02*
X19832146Y-8379630D01*
X19832146Y-8339630D02*
X19792146Y-8379630D01*
X19792146Y-8847631D02*
X19832146Y-8887631D01*
X19832146Y-8847631D02*
X19792146Y-8887631D01*
X19919146Y-5672630D02*
X19959146Y-5712630D01*
X19959146Y-5672630D02*
X19919146Y-5712630D01*
X19919146Y-6180630D02*
X19959146Y-6220630D01*
X19959146Y-6180630D02*
X19919146Y-6220630D01*
X19919146Y-6688630D02*
X19959146Y-6728630D01*
X19959146Y-6688630D02*
X19919146Y-6728630D01*
X19919146Y-7196630D02*
X19959146Y-7236630D01*
X19959146Y-7196630D02*
X19919146Y-7236630D01*
X19919146Y-8085630D02*
X19959146Y-8125630D01*
X19959146Y-8085630D02*
X19919146Y-8125630D01*
X19919146Y-8593631D02*
X19959146Y-8633631D01*
X19959146Y-8593631D02*
X19919146Y-8633631D01*
X20020746Y-9317531D02*
X20060746Y-9357531D01*
X20060746Y-9317531D02*
X20020746Y-9357531D01*
X20020746Y-9419131D02*
X20060746Y-9459131D01*
X20060746Y-9419131D02*
X20020746Y-9459131D01*
X20020746Y-9647731D02*
X20060746Y-9687731D01*
X20060746Y-9647731D02*
X20020746Y-9687731D01*
X20020746Y-9749331D02*
X20060746Y-9789331D01*
X20060746Y-9749331D02*
X20020746Y-9789331D01*
X20020746Y-9977931D02*
X20060746Y-10017931D01*
X20060746Y-9977931D02*
X20020746Y-10017931D01*
X20020746Y-10079531D02*
X20060746Y-10119531D01*
X20060746Y-10079531D02*
X20020746Y-10119531D01*
X20020746Y-10282731D02*
X20060746Y-10322731D01*
X20060746Y-10282731D02*
X20020746Y-10322731D01*
X20020746Y-10384331D02*
X20060746Y-10424331D01*
X20060746Y-10384331D02*
X20020746Y-10424331D01*
X20117266Y-10625631D02*
X20157266Y-10665631D01*
X20157266Y-10625631D02*
X20117266Y-10665631D01*
X20173146Y-9317531D02*
X20213146Y-9357531D01*
X20213146Y-9317531D02*
X20173146Y-9357531D01*
X20173146Y-9419131D02*
X20213146Y-9459131D01*
X20213146Y-9419131D02*
X20173146Y-9459131D01*
X20173146Y-9647731D02*
X20213146Y-9687731D01*
X20213146Y-9647731D02*
X20173146Y-9687731D01*
X20173146Y-9749331D02*
X20213146Y-9789331D01*
X20213146Y-9749331D02*
X20173146Y-9789331D01*
X20173146Y-9977931D02*
X20213146Y-10017931D01*
X20213146Y-9977931D02*
X20173146Y-10017931D01*
X20173146Y-10079531D02*
X20213146Y-10119531D01*
X20213146Y-10079531D02*
X20173146Y-10119531D01*
X20173146Y-10282731D02*
X20213146Y-10322731D01*
X20213146Y-10282731D02*
X20173146Y-10322731D01*
X20173146Y-10384331D02*
X20213146Y-10424331D01*
X20213146Y-10384331D02*
X20173146Y-10424331D01*
X20381426Y-8151670D02*
X20421426Y-8191670D01*
X20421426Y-8151670D02*
X20381426Y-8191670D01*
X20381426Y-9259111D02*
X20421426Y-9299111D01*
X20421426Y-9259111D02*
X20381426Y-9299111D01*
X20389046Y-10333531D02*
X20429046Y-10373531D01*
X20429046Y-10333531D02*
X20389046Y-10373531D01*
X20427146Y-10625631D02*
X20467146Y-10665631D01*
X20467146Y-10625631D02*
X20427146Y-10665631D01*
X20691306Y-5957110D02*
X20731306Y-5997110D01*
X20731306Y-5957110D02*
X20691306Y-5997110D01*
X20808146Y-10879631D02*
X20848146Y-10919631D01*
X20848146Y-10879631D02*
X20808146Y-10919631D01*
X20808146Y-11133631D02*
X20848146Y-11173631D01*
X20848146Y-11133631D02*
X20808146Y-11173631D01*
X20808146Y-11387630D02*
X20848146Y-11427630D01*
X20848146Y-11387630D02*
X20808146Y-11427630D01*
X20808146Y-11641630D02*
X20848146Y-11681630D01*
X20848146Y-11641630D02*
X20808146Y-11681630D01*
X20808146Y-11895630D02*
X20848146Y-11935630D01*
X20848146Y-11895630D02*
X20808146Y-11935630D01*
X20808146Y-12149630D02*
X20848146Y-12189630D01*
X20848146Y-12149630D02*
X20808146Y-12189630D01*
X20808146Y-12403630D02*
X20848146Y-12443630D01*
X20848146Y-12403630D02*
X20808146Y-12443630D01*
X20808146Y-12657630D02*
X20848146Y-12697630D01*
X20848146Y-12657630D02*
X20808146Y-12697630D01*
X20808146Y-12911630D02*
X20848146Y-12951630D01*
X20848146Y-12911630D02*
X20808146Y-12951630D01*
X20808146Y-13165630D02*
X20848146Y-13205630D01*
X20848146Y-13165630D02*
X20808146Y-13205630D01*
X20808146Y-13419630D02*
X20848146Y-13459630D01*
X20848146Y-13419630D02*
X20808146Y-13459630D01*
X20808146Y-13673630D02*
X20848146Y-13713630D01*
X20848146Y-13673630D02*
X20808146Y-13713630D01*
X20808146Y-13927630D02*
X20848146Y-13967630D01*
X20848146Y-13927630D02*
X20808146Y-13967630D01*
X20879146Y-7318230D02*
X20919146Y-7358230D01*
X20919146Y-7318230D02*
X20879146Y-7358230D01*
X20884346Y-9863631D02*
X20924346Y-9903631D01*
X20924346Y-9863631D02*
X20884346Y-9903631D01*
X21067226Y-7115350D02*
X21107226Y-7155350D01*
X21107226Y-7115350D02*
X21067226Y-7155350D01*
X21366946Y-9863631D02*
X21406946Y-9903631D01*
X21406946Y-9863631D02*
X21366946Y-9903631D01*
X21890186Y-9370871D02*
X21930186Y-9410871D01*
X21930186Y-9370871D02*
X21890186Y-9410871D01*
X21900346Y-8933991D02*
X21940346Y-8973991D01*
X21940346Y-8933991D02*
X21900346Y-8973991D01*
X22098466Y-9137191D02*
X22138466Y-9177191D01*
X22138466Y-9137191D02*
X22098466Y-9177191D01*
X22225466Y-10442751D02*
X22265466Y-10482751D01*
X22265466Y-10442751D02*
X22225466Y-10482751D01*
X22428665Y-10239551D02*
X22468665Y-10279551D01*
X22468665Y-10239551D02*
X22428665Y-10279551D01*
X22692825Y-12149630D02*
X22732825Y-12189630D01*
X22732825Y-12149630D02*
X22692825Y-12189630D01*
X22880785Y-12347750D02*
X22920785Y-12387750D01*
X22920785Y-12347750D02*
X22880785Y-12387750D01*
X23256705Y-13795550D02*
X23296705Y-13835550D01*
X23296705Y-13795550D02*
X23256705Y-13835550D01*
X23439585Y-13592350D02*
X23479585Y-13632350D01*
X23479585Y-13592350D02*
X23439585Y-13632350D01*
D11*
X15174922Y-14494114D02*
X15174922Y-14294114D01*
X15174922Y-14294114D02*
X15222541Y-14294114D01*
X15222541Y-14294114D02*
X15251113Y-14303638D01*
X15251113Y-14303638D02*
X15270160Y-14322686D01*
X15270160Y-14322686D02*
X15279684Y-14341733D01*
X15279684Y-14341733D02*
X15289208Y-14379828D01*
X15289208Y-14379828D02*
X15289208Y-14408400D01*
X15289208Y-14408400D02*
X15279684Y-14446495D01*
X15279684Y-14446495D02*
X15270160Y-14465543D01*
X15270160Y-14465543D02*
X15251113Y-14484590D01*
X15251113Y-14484590D02*
X15222541Y-14494114D01*
X15222541Y-14494114D02*
X15174922Y-14494114D01*
X15374922Y-14494114D02*
X15374922Y-14360781D01*
X15374922Y-14398876D02*
X15384446Y-14379828D01*
X15384446Y-14379828D02*
X15393970Y-14370305D01*
X15393970Y-14370305D02*
X15413017Y-14360781D01*
X15413017Y-14360781D02*
X15432065Y-14360781D01*
X15498732Y-14494114D02*
X15498732Y-14360781D01*
X15498732Y-14294114D02*
X15489208Y-14303638D01*
X15489208Y-14303638D02*
X15498732Y-14313162D01*
X15498732Y-14313162D02*
X15508256Y-14303638D01*
X15508256Y-14303638D02*
X15498732Y-14294114D01*
X15498732Y-14294114D02*
X15498732Y-14313162D01*
X15622541Y-14494114D02*
X15603494Y-14484590D01*
X15603494Y-14484590D02*
X15593970Y-14465543D01*
X15593970Y-14465543D02*
X15593970Y-14294114D01*
X15727303Y-14494114D02*
X15708256Y-14484590D01*
X15708256Y-14484590D02*
X15698732Y-14465543D01*
X15698732Y-14465543D02*
X15698732Y-14294114D01*
X15955875Y-14494114D02*
X15955875Y-14294114D01*
X15955875Y-14294114D02*
X16022541Y-14436971D01*
X16022541Y-14436971D02*
X16089208Y-14294114D01*
X16089208Y-14294114D02*
X16089208Y-14494114D01*
X16270160Y-14494114D02*
X16270160Y-14389352D01*
X16270160Y-14389352D02*
X16260637Y-14370305D01*
X16260637Y-14370305D02*
X16241589Y-14360781D01*
X16241589Y-14360781D02*
X16203494Y-14360781D01*
X16203494Y-14360781D02*
X16184446Y-14370305D01*
X16270160Y-14484590D02*
X16251113Y-14494114D01*
X16251113Y-14494114D02*
X16203494Y-14494114D01*
X16203494Y-14494114D02*
X16184446Y-14484590D01*
X16184446Y-14484590D02*
X16174922Y-14465543D01*
X16174922Y-14465543D02*
X16174922Y-14446495D01*
X16174922Y-14446495D02*
X16184446Y-14427448D01*
X16184446Y-14427448D02*
X16203494Y-14417924D01*
X16203494Y-14417924D02*
X16251113Y-14417924D01*
X16251113Y-14417924D02*
X16270160Y-14408400D01*
X16365398Y-14360781D02*
X16365398Y-14560781D01*
X16365398Y-14370305D02*
X16384446Y-14360781D01*
X16384446Y-14360781D02*
X16422541Y-14360781D01*
X16422541Y-14360781D02*
X16441589Y-14370305D01*
X16441589Y-14370305D02*
X16451113Y-14379828D01*
X16451113Y-14379828D02*
X16460637Y-14398876D01*
X16460637Y-14398876D02*
X16460637Y-14456019D01*
X16460637Y-14456019D02*
X16451113Y-14475067D01*
X16451113Y-14475067D02*
X16441589Y-14484590D01*
X16441589Y-14484590D02*
X16422541Y-14494114D01*
X16422541Y-14494114D02*
X16384446Y-14494114D01*
X16384446Y-14494114D02*
X16365398Y-14484590D01*
X16546351Y-14475067D02*
X16555875Y-14484590D01*
X16555875Y-14484590D02*
X16546351Y-14494114D01*
X16546351Y-14494114D02*
X16536827Y-14484590D01*
X16536827Y-14484590D02*
X16546351Y-14475067D01*
X16546351Y-14475067D02*
X16546351Y-14494114D01*
X16546351Y-14370305D02*
X16555875Y-14379828D01*
X16555875Y-14379828D02*
X16546351Y-14389352D01*
X16546351Y-14389352D02*
X16536827Y-14379828D01*
X16536827Y-14379828D02*
X16546351Y-14370305D01*
X16546351Y-14370305D02*
X16546351Y-14389352D01*
D12*
X14874145Y-14802630D02*
X14914145Y-14842630D01*
X14914145Y-14802630D02*
X14874145Y-14842630D01*
D11*
X15213017Y-14714114D02*
X15232065Y-14714114D01*
X15232065Y-14714114D02*
X15251113Y-14723638D01*
X15251113Y-14723638D02*
X15260637Y-14733162D01*
X15260637Y-14733162D02*
X15270160Y-14752209D01*
X15270160Y-14752209D02*
X15279684Y-14790305D01*
X15279684Y-14790305D02*
X15279684Y-14837924D01*
X15279684Y-14837924D02*
X15270160Y-14876019D01*
X15270160Y-14876019D02*
X15260637Y-14895067D01*
X15260637Y-14895067D02*
X15251113Y-14904590D01*
X15251113Y-14904590D02*
X15232065Y-14914114D01*
X15232065Y-14914114D02*
X15213017Y-14914114D01*
X15213017Y-14914114D02*
X15193970Y-14904590D01*
X15193970Y-14904590D02*
X15184446Y-14895067D01*
X15184446Y-14895067D02*
X15174922Y-14876019D01*
X15174922Y-14876019D02*
X15165398Y-14837924D01*
X15165398Y-14837924D02*
X15165398Y-14790305D01*
X15165398Y-14790305D02*
X15174922Y-14752209D01*
X15174922Y-14752209D02*
X15184446Y-14733162D01*
X15184446Y-14733162D02*
X15193970Y-14723638D01*
X15193970Y-14723638D02*
X15213017Y-14714114D01*
X15365398Y-14895067D02*
X15374922Y-14904590D01*
X15374922Y-14904590D02*
X15365398Y-14914114D01*
X15365398Y-14914114D02*
X15355875Y-14904590D01*
X15355875Y-14904590D02*
X15365398Y-14895067D01*
X15365398Y-14895067D02*
X15365398Y-14914114D01*
X15546351Y-14780781D02*
X15546351Y-14914114D01*
X15498732Y-14704590D02*
X15451113Y-14847448D01*
X15451113Y-14847448D02*
X15574922Y-14847448D01*
X15689208Y-14714114D02*
X15708256Y-14714114D01*
X15708256Y-14714114D02*
X15727303Y-14723638D01*
X15727303Y-14723638D02*
X15736827Y-14733162D01*
X15736827Y-14733162D02*
X15746351Y-14752209D01*
X15746351Y-14752209D02*
X15755875Y-14790305D01*
X15755875Y-14790305D02*
X15755875Y-14837924D01*
X15755875Y-14837924D02*
X15746351Y-14876019D01*
X15746351Y-14876019D02*
X15736827Y-14895067D01*
X15736827Y-14895067D02*
X15727303Y-14904590D01*
X15727303Y-14904590D02*
X15708256Y-14914114D01*
X15708256Y-14914114D02*
X15689208Y-14914114D01*
X15689208Y-14914114D02*
X15670160Y-14904590D01*
X15670160Y-14904590D02*
X15660637Y-14895067D01*
X15660637Y-14895067D02*
X15651113Y-14876019D01*
X15651113Y-14876019D02*
X15641589Y-14837924D01*
X15641589Y-14837924D02*
X15641589Y-14790305D01*
X15641589Y-14790305D02*
X15651113Y-14752209D01*
X15651113Y-14752209D02*
X15660637Y-14733162D01*
X15660637Y-14733162D02*
X15670160Y-14723638D01*
X15670160Y-14723638D02*
X15689208Y-14714114D01*
X15879684Y-14714114D02*
X15898732Y-14714114D01*
X15898732Y-14714114D02*
X15917779Y-14723638D01*
X15917779Y-14723638D02*
X15927303Y-14733162D01*
X15927303Y-14733162D02*
X15936827Y-14752209D01*
X15936827Y-14752209D02*
X15946351Y-14790305D01*
X15946351Y-14790305D02*
X15946351Y-14837924D01*
X15946351Y-14837924D02*
X15936827Y-14876019D01*
X15936827Y-14876019D02*
X15927303Y-14895067D01*
X15927303Y-14895067D02*
X15917779Y-14904590D01*
X15917779Y-14904590D02*
X15898732Y-14914114D01*
X15898732Y-14914114D02*
X15879684Y-14914114D01*
X15879684Y-14914114D02*
X15860637Y-14904590D01*
X15860637Y-14904590D02*
X15851113Y-14895067D01*
X15851113Y-14895067D02*
X15841589Y-14876019D01*
X15841589Y-14876019D02*
X15832065Y-14837924D01*
X15832065Y-14837924D02*
X15832065Y-14790305D01*
X15832065Y-14790305D02*
X15841589Y-14752209D01*
X15841589Y-14752209D02*
X15851113Y-14733162D01*
X15851113Y-14733162D02*
X15860637Y-14723638D01*
X15860637Y-14723638D02*
X15879684Y-14714114D01*
X16032065Y-14914114D02*
X16032065Y-14780781D01*
X16032065Y-14799828D02*
X16041589Y-14790305D01*
X16041589Y-14790305D02*
X16060637Y-14780781D01*
X16060637Y-14780781D02*
X16089208Y-14780781D01*
X16089208Y-14780781D02*
X16108256Y-14790305D01*
X16108256Y-14790305D02*
X16117779Y-14809352D01*
X16117779Y-14809352D02*
X16117779Y-14914114D01*
X16117779Y-14809352D02*
X16127303Y-14790305D01*
X16127303Y-14790305D02*
X16146351Y-14780781D01*
X16146351Y-14780781D02*
X16174922Y-14780781D01*
X16174922Y-14780781D02*
X16193970Y-14790305D01*
X16193970Y-14790305D02*
X16203494Y-14809352D01*
X16203494Y-14809352D02*
X16203494Y-14914114D01*
X16298732Y-14914114D02*
X16298732Y-14780781D01*
X16298732Y-14799828D02*
X16308256Y-14790305D01*
X16308256Y-14790305D02*
X16327303Y-14780781D01*
X16327303Y-14780781D02*
X16355875Y-14780781D01*
X16355875Y-14780781D02*
X16374922Y-14790305D01*
X16374922Y-14790305D02*
X16384446Y-14809352D01*
X16384446Y-14809352D02*
X16384446Y-14914114D01*
X16384446Y-14809352D02*
X16393970Y-14790305D01*
X16393970Y-14790305D02*
X16413018Y-14780781D01*
X16413018Y-14780781D02*
X16441589Y-14780781D01*
X16441589Y-14780781D02*
X16460637Y-14790305D01*
X16460637Y-14790305D02*
X16470160Y-14809352D01*
X16470160Y-14809352D02*
X16470160Y-14914114D01*
X16860637Y-14704590D02*
X16689208Y-14961733D01*
X17117780Y-14714114D02*
X17136827Y-14714114D01*
X17136827Y-14714114D02*
X17155875Y-14723638D01*
X17155875Y-14723638D02*
X17165399Y-14733162D01*
X17165399Y-14733162D02*
X17174923Y-14752209D01*
X17174923Y-14752209D02*
X17184446Y-14790305D01*
X17184446Y-14790305D02*
X17184446Y-14837924D01*
X17184446Y-14837924D02*
X17174923Y-14876019D01*
X17174923Y-14876019D02*
X17165399Y-14895067D01*
X17165399Y-14895067D02*
X17155875Y-14904590D01*
X17155875Y-14904590D02*
X17136827Y-14914114D01*
X17136827Y-14914114D02*
X17117780Y-14914114D01*
X17117780Y-14914114D02*
X17098732Y-14904590D01*
X17098732Y-14904590D02*
X17089208Y-14895067D01*
X17089208Y-14895067D02*
X17079684Y-14876019D01*
X17079684Y-14876019D02*
X17070161Y-14837924D01*
X17070161Y-14837924D02*
X17070161Y-14790305D01*
X17070161Y-14790305D02*
X17079684Y-14752209D01*
X17079684Y-14752209D02*
X17089208Y-14733162D01*
X17089208Y-14733162D02*
X17098732Y-14723638D01*
X17098732Y-14723638D02*
X17117780Y-14714114D01*
X17270161Y-14895067D02*
X17279684Y-14904590D01*
X17279684Y-14904590D02*
X17270161Y-14914114D01*
X17270161Y-14914114D02*
X17260637Y-14904590D01*
X17260637Y-14904590D02*
X17270161Y-14895067D01*
X17270161Y-14895067D02*
X17270161Y-14914114D01*
X17403494Y-14714114D02*
X17422542Y-14714114D01*
X17422542Y-14714114D02*
X17441589Y-14723638D01*
X17441589Y-14723638D02*
X17451113Y-14733162D01*
X17451113Y-14733162D02*
X17460637Y-14752209D01*
X17460637Y-14752209D02*
X17470161Y-14790305D01*
X17470161Y-14790305D02*
X17470161Y-14837924D01*
X17470161Y-14837924D02*
X17460637Y-14876019D01*
X17460637Y-14876019D02*
X17451113Y-14895067D01*
X17451113Y-14895067D02*
X17441589Y-14904590D01*
X17441589Y-14904590D02*
X17422542Y-14914114D01*
X17422542Y-14914114D02*
X17403494Y-14914114D01*
X17403494Y-14914114D02*
X17384446Y-14904590D01*
X17384446Y-14904590D02*
X17374923Y-14895067D01*
X17374923Y-14895067D02*
X17365399Y-14876019D01*
X17365399Y-14876019D02*
X17355875Y-14837924D01*
X17355875Y-14837924D02*
X17355875Y-14790305D01*
X17355875Y-14790305D02*
X17365399Y-14752209D01*
X17365399Y-14752209D02*
X17374923Y-14733162D01*
X17374923Y-14733162D02*
X17384446Y-14723638D01*
X17384446Y-14723638D02*
X17403494Y-14714114D01*
X17660637Y-14914114D02*
X17546351Y-14914114D01*
X17603494Y-14914114D02*
X17603494Y-14714114D01*
X17603494Y-14714114D02*
X17584446Y-14742686D01*
X17584446Y-14742686D02*
X17565399Y-14761733D01*
X17565399Y-14761733D02*
X17546351Y-14771257D01*
X17841589Y-14714114D02*
X17746351Y-14714114D01*
X17746351Y-14714114D02*
X17736827Y-14809352D01*
X17736827Y-14809352D02*
X17746351Y-14799828D01*
X17746351Y-14799828D02*
X17765399Y-14790305D01*
X17765399Y-14790305D02*
X17813018Y-14790305D01*
X17813018Y-14790305D02*
X17832065Y-14799828D01*
X17832065Y-14799828D02*
X17841589Y-14809352D01*
X17841589Y-14809352D02*
X17851113Y-14828400D01*
X17851113Y-14828400D02*
X17851113Y-14876019D01*
X17851113Y-14876019D02*
X17841589Y-14895067D01*
X17841589Y-14895067D02*
X17832065Y-14904590D01*
X17832065Y-14904590D02*
X17813018Y-14914114D01*
X17813018Y-14914114D02*
X17765399Y-14914114D01*
X17765399Y-14914114D02*
X17746351Y-14904590D01*
X17746351Y-14904590D02*
X17736827Y-14895067D01*
X17917780Y-14714114D02*
X18051113Y-14714114D01*
X18051113Y-14714114D02*
X17965399Y-14914114D01*
X18117780Y-14714114D02*
X18117780Y-14752209D01*
X18193970Y-14714114D02*
X18193970Y-14752209D01*
X18489208Y-14990305D02*
X18479685Y-14980781D01*
X18479685Y-14980781D02*
X18460637Y-14952209D01*
X18460637Y-14952209D02*
X18451113Y-14933162D01*
X18451113Y-14933162D02*
X18441589Y-14904590D01*
X18441589Y-14904590D02*
X18432066Y-14856971D01*
X18432066Y-14856971D02*
X18432066Y-14818876D01*
X18432066Y-14818876D02*
X18441589Y-14771257D01*
X18441589Y-14771257D02*
X18451113Y-14742686D01*
X18451113Y-14742686D02*
X18460637Y-14723638D01*
X18460637Y-14723638D02*
X18479685Y-14695067D01*
X18479685Y-14695067D02*
X18489208Y-14685543D01*
X18670161Y-14914114D02*
X18555875Y-14914114D01*
X18613018Y-14914114D02*
X18613018Y-14714114D01*
X18613018Y-14714114D02*
X18593970Y-14742686D01*
X18593970Y-14742686D02*
X18574923Y-14761733D01*
X18574923Y-14761733D02*
X18555875Y-14771257D01*
X18793970Y-14714114D02*
X18813018Y-14714114D01*
X18813018Y-14714114D02*
X18832066Y-14723638D01*
X18832066Y-14723638D02*
X18841589Y-14733162D01*
X18841589Y-14733162D02*
X18851113Y-14752209D01*
X18851113Y-14752209D02*
X18860637Y-14790305D01*
X18860637Y-14790305D02*
X18860637Y-14837924D01*
X18860637Y-14837924D02*
X18851113Y-14876019D01*
X18851113Y-14876019D02*
X18841589Y-14895067D01*
X18841589Y-14895067D02*
X18832066Y-14904590D01*
X18832066Y-14904590D02*
X18813018Y-14914114D01*
X18813018Y-14914114D02*
X18793970Y-14914114D01*
X18793970Y-14914114D02*
X18774923Y-14904590D01*
X18774923Y-14904590D02*
X18765399Y-14895067D01*
X18765399Y-14895067D02*
X18755875Y-14876019D01*
X18755875Y-14876019D02*
X18746351Y-14837924D01*
X18746351Y-14837924D02*
X18746351Y-14790305D01*
X18746351Y-14790305D02*
X18755875Y-14752209D01*
X18755875Y-14752209D02*
X18765399Y-14733162D01*
X18765399Y-14733162D02*
X18774923Y-14723638D01*
X18774923Y-14723638D02*
X18793970Y-14714114D01*
X18974923Y-14799828D02*
X18955875Y-14790305D01*
X18955875Y-14790305D02*
X18946351Y-14780781D01*
X18946351Y-14780781D02*
X18936827Y-14761733D01*
X18936827Y-14761733D02*
X18936827Y-14752209D01*
X18936827Y-14752209D02*
X18946351Y-14733162D01*
X18946351Y-14733162D02*
X18955875Y-14723638D01*
X18955875Y-14723638D02*
X18974923Y-14714114D01*
X18974923Y-14714114D02*
X19013018Y-14714114D01*
X19013018Y-14714114D02*
X19032066Y-14723638D01*
X19032066Y-14723638D02*
X19041589Y-14733162D01*
X19041589Y-14733162D02*
X19051113Y-14752209D01*
X19051113Y-14752209D02*
X19051113Y-14761733D01*
X19051113Y-14761733D02*
X19041589Y-14780781D01*
X19041589Y-14780781D02*
X19032066Y-14790305D01*
X19032066Y-14790305D02*
X19013018Y-14799828D01*
X19013018Y-14799828D02*
X18974923Y-14799828D01*
X18974923Y-14799828D02*
X18955875Y-14809352D01*
X18955875Y-14809352D02*
X18946351Y-14818876D01*
X18946351Y-14818876D02*
X18936827Y-14837924D01*
X18936827Y-14837924D02*
X18936827Y-14876019D01*
X18936827Y-14876019D02*
X18946351Y-14895067D01*
X18946351Y-14895067D02*
X18955875Y-14904590D01*
X18955875Y-14904590D02*
X18974923Y-14914114D01*
X18974923Y-14914114D02*
X19013018Y-14914114D01*
X19013018Y-14914114D02*
X19032066Y-14904590D01*
X19032066Y-14904590D02*
X19041589Y-14895067D01*
X19041589Y-14895067D02*
X19051113Y-14876019D01*
X19051113Y-14876019D02*
X19051113Y-14837924D01*
X19051113Y-14837924D02*
X19041589Y-14818876D01*
X19041589Y-14818876D02*
X19032066Y-14809352D01*
X19032066Y-14809352D02*
X19013018Y-14799828D01*
X19289208Y-14914114D02*
X19289208Y-14714114D01*
X19374923Y-14914114D02*
X19374923Y-14809352D01*
X19374923Y-14809352D02*
X19365399Y-14790305D01*
X19365399Y-14790305D02*
X19346351Y-14780781D01*
X19346351Y-14780781D02*
X19317780Y-14780781D01*
X19317780Y-14780781D02*
X19298732Y-14790305D01*
X19298732Y-14790305D02*
X19289208Y-14799828D01*
X19498732Y-14914114D02*
X19479685Y-14904590D01*
X19479685Y-14904590D02*
X19470161Y-14895067D01*
X19470161Y-14895067D02*
X19460637Y-14876019D01*
X19460637Y-14876019D02*
X19460637Y-14818876D01*
X19460637Y-14818876D02*
X19470161Y-14799828D01*
X19470161Y-14799828D02*
X19479685Y-14790305D01*
X19479685Y-14790305D02*
X19498732Y-14780781D01*
X19498732Y-14780781D02*
X19527304Y-14780781D01*
X19527304Y-14780781D02*
X19546351Y-14790305D01*
X19546351Y-14790305D02*
X19555875Y-14799828D01*
X19555875Y-14799828D02*
X19565399Y-14818876D01*
X19565399Y-14818876D02*
X19565399Y-14876019D01*
X19565399Y-14876019D02*
X19555875Y-14895067D01*
X19555875Y-14895067D02*
X19546351Y-14904590D01*
X19546351Y-14904590D02*
X19527304Y-14914114D01*
X19527304Y-14914114D02*
X19498732Y-14914114D01*
X19679685Y-14914114D02*
X19660637Y-14904590D01*
X19660637Y-14904590D02*
X19651113Y-14885543D01*
X19651113Y-14885543D02*
X19651113Y-14714114D01*
X19832066Y-14904590D02*
X19813018Y-14914114D01*
X19813018Y-14914114D02*
X19774923Y-14914114D01*
X19774923Y-14914114D02*
X19755875Y-14904590D01*
X19755875Y-14904590D02*
X19746351Y-14885543D01*
X19746351Y-14885543D02*
X19746351Y-14809352D01*
X19746351Y-14809352D02*
X19755875Y-14790305D01*
X19755875Y-14790305D02*
X19774923Y-14780781D01*
X19774923Y-14780781D02*
X19813018Y-14780781D01*
X19813018Y-14780781D02*
X19832066Y-14790305D01*
X19832066Y-14790305D02*
X19841589Y-14809352D01*
X19841589Y-14809352D02*
X19841589Y-14828400D01*
X19841589Y-14828400D02*
X19746351Y-14847448D01*
X19917780Y-14904590D02*
X19936828Y-14914114D01*
X19936828Y-14914114D02*
X19974923Y-14914114D01*
X19974923Y-14914114D02*
X19993970Y-14904590D01*
X19993970Y-14904590D02*
X20003494Y-14885543D01*
X20003494Y-14885543D02*
X20003494Y-14876019D01*
X20003494Y-14876019D02*
X19993970Y-14856971D01*
X19993970Y-14856971D02*
X19974923Y-14847448D01*
X19974923Y-14847448D02*
X19946351Y-14847448D01*
X19946351Y-14847448D02*
X19927304Y-14837924D01*
X19927304Y-14837924D02*
X19917780Y-14818876D01*
X19917780Y-14818876D02*
X19917780Y-14809352D01*
X19917780Y-14809352D02*
X19927304Y-14790305D01*
X19927304Y-14790305D02*
X19946351Y-14780781D01*
X19946351Y-14780781D02*
X19974923Y-14780781D01*
X19974923Y-14780781D02*
X19993970Y-14790305D01*
X20070161Y-14990305D02*
X20079685Y-14980781D01*
X20079685Y-14980781D02*
X20098732Y-14952209D01*
X20098732Y-14952209D02*
X20108256Y-14933162D01*
X20108256Y-14933162D02*
X20117780Y-14904590D01*
X20117780Y-14904590D02*
X20127304Y-14856971D01*
X20127304Y-14856971D02*
X20127304Y-14818876D01*
X20127304Y-14818876D02*
X20117780Y-14771257D01*
X20117780Y-14771257D02*
X20108256Y-14742686D01*
X20108256Y-14742686D02*
X20098732Y-14723638D01*
X20098732Y-14723638D02*
X20079685Y-14695067D01*
X20079685Y-14695067D02*
X20070161Y-14685543D01*
M02*
