G04 #@! TF.GenerationSoftware,KiCad,Pcbnew,7.0.8*
G04 #@! TF.CreationDate,2024-06-18T20:25:39+02:00*
G04 #@! TF.ProjectId,PCB_Christmas_Tree,5043425f-4368-4726-9973-746d61735f54,rev?*
G04 #@! TF.SameCoordinates,Original*
G04 #@! TF.FileFunction,Copper,L1,Top*
G04 #@! TF.FilePolarity,Positive*
%FSLAX46Y46*%
G04 Gerber Fmt 4.6, Leading zero omitted, Abs format (unit mm)*
G04 Created by KiCad (PCBNEW 7.0.8) date 2024-06-18 20:25:39*
%MOMM*%
%LPD*%
G01*
G04 APERTURE LIST*
G04 Aperture macros list*
%AMRoundRect*
0 Rectangle with rounded corners*
0 $1 Rounding radius*
0 $2 $3 $4 $5 $6 $7 $8 $9 X,Y pos of 4 corners*
0 Add a 4 corners polygon primitive as box body*
4,1,4,$2,$3,$4,$5,$6,$7,$8,$9,$2,$3,0*
0 Add four circle primitives for the rounded corners*
1,1,$1+$1,$2,$3*
1,1,$1+$1,$4,$5*
1,1,$1+$1,$6,$7*
1,1,$1+$1,$8,$9*
0 Add four rect primitives between the rounded corners*
20,1,$1+$1,$2,$3,$4,$5,0*
20,1,$1+$1,$4,$5,$6,$7,0*
20,1,$1+$1,$6,$7,$8,$9,0*
20,1,$1+$1,$8,$9,$2,$3,0*%
G04 Aperture macros list end*
G04 #@! TA.AperFunction,SMDPad,CuDef*
%ADD10RoundRect,0.237500X-0.250000X-0.237500X0.250000X-0.237500X0.250000X0.237500X-0.250000X0.237500X0*%
G04 #@! TD*
G04 #@! TA.AperFunction,SMDPad,CuDef*
%ADD11RoundRect,0.250000X0.450000X-0.325000X0.450000X0.325000X-0.450000X0.325000X-0.450000X-0.325000X0*%
G04 #@! TD*
G04 #@! TA.AperFunction,SMDPad,CuDef*
%ADD12RoundRect,0.250000X-0.250000X-0.750000X0.250000X-0.750000X0.250000X0.750000X-0.250000X0.750000X0*%
G04 #@! TD*
G04 #@! TA.AperFunction,SMDPad,CuDef*
%ADD13RoundRect,0.250000X0.325000X0.450000X-0.325000X0.450000X-0.325000X-0.450000X0.325000X-0.450000X0*%
G04 #@! TD*
G04 #@! TA.AperFunction,SMDPad,CuDef*
%ADD14R,3.000000X2.000000*%
G04 #@! TD*
G04 #@! TA.AperFunction,ViaPad*
%ADD15C,0.800000*%
G04 #@! TD*
G04 #@! TA.AperFunction,Conductor*
%ADD16C,0.250000*%
G04 #@! TD*
G04 #@! TA.AperFunction,Conductor*
%ADD17C,0.600000*%
G04 #@! TD*
G04 APERTURE END LIST*
D10*
X225278955Y-123776305D03*
X227103955Y-123776305D03*
D11*
X216191455Y-88801305D03*
X216191455Y-86751305D03*
D10*
X205278955Y-57776305D03*
X207103955Y-57776305D03*
D12*
X197740455Y-48925305D03*
D10*
X217278955Y-91776305D03*
X219103955Y-91776305D03*
D12*
X200661455Y-48925305D03*
D13*
X169165455Y-104424305D03*
X167115455Y-104424305D03*
D14*
X201191455Y-93886305D03*
X201191455Y-97188305D03*
X201191455Y-100490305D03*
X201191455Y-103538305D03*
D13*
X159776455Y-137698305D03*
X157726455Y-137698305D03*
D11*
X204191455Y-54801305D03*
X204191455Y-52751305D03*
D13*
X182627455Y-73436305D03*
X180577455Y-73436305D03*
D10*
X171291955Y-104424305D03*
X173116955Y-104424305D03*
D11*
X224191455Y-120826305D03*
X224191455Y-118776305D03*
D10*
X184762955Y-73436305D03*
X186587955Y-73436305D03*
X161902955Y-137698305D03*
X163727955Y-137698305D03*
D15*
X234595855Y-136123505D03*
X163679055Y-135615505D03*
X227128255Y-121696305D03*
X224486655Y-102595505D03*
X180138255Y-93857905D03*
X219101855Y-93908705D03*
X165558655Y-137698305D03*
X186488255Y-71404305D03*
X210872255Y-71353505D03*
X221184655Y-91571905D03*
X219203455Y-89539905D03*
X180290655Y-89438305D03*
X173026255Y-102392305D03*
X171349855Y-126674705D03*
X208281455Y-121696305D03*
X208281455Y-116616305D03*
X208281455Y-119156305D03*
X208281455Y-136936305D03*
X194311455Y-139476305D03*
X208281455Y-139476305D03*
X208281455Y-134396305D03*
X208281455Y-114076305D03*
X194311455Y-136936305D03*
X204471455Y-106456305D03*
X208281455Y-131856305D03*
X208281455Y-108996305D03*
X208281455Y-129316305D03*
X208281455Y-126776305D03*
X208281455Y-124236305D03*
X208281455Y-111536305D03*
X194311455Y-134396305D03*
X199391455Y-86136305D03*
X198121455Y-74706305D03*
X199391455Y-72166305D03*
X194311455Y-131856305D03*
X194311455Y-126776305D03*
X194311455Y-114076305D03*
X194311455Y-108996305D03*
X196851455Y-91216305D03*
X198121455Y-78516305D03*
X199391455Y-67086305D03*
X199391455Y-81056305D03*
X194311455Y-124236305D03*
X194311455Y-121696305D03*
X198121455Y-59466305D03*
X194311455Y-129316305D03*
X194311455Y-119156305D03*
X199391455Y-62006305D03*
X198121455Y-69626305D03*
X198121455Y-83596305D03*
X198121455Y-88676305D03*
X199391455Y-56926305D03*
X198121455Y-54386305D03*
X194311455Y-116616305D03*
X194311455Y-111536305D03*
X198121455Y-64546305D03*
X196343455Y-103027305D03*
X196343455Y-104043305D03*
X200407455Y-104043305D03*
X222454655Y-104627505D03*
X201931455Y-104043305D03*
X201931455Y-96677305D03*
X201372655Y-106456305D03*
X197994455Y-96677305D03*
X201931455Y-97693305D03*
X201931455Y-103027305D03*
X191212655Y-59771105D03*
X200407455Y-96677305D03*
X188712455Y-73239305D03*
X178258655Y-91825905D03*
X204090455Y-103535305D03*
X197867455Y-103027305D03*
X197105455Y-106456305D03*
X229007855Y-123677505D03*
X200407455Y-103027305D03*
X207113055Y-59771105D03*
X232767055Y-138155505D03*
X174956655Y-104424305D03*
X196470455Y-97693305D03*
X197994455Y-97693305D03*
X204014255Y-81716705D03*
X208991455Y-73382305D03*
X197867455Y-104043305D03*
X194463855Y-103713105D03*
X200407455Y-97693305D03*
X200407455Y-99979305D03*
X213869455Y-98836305D03*
X201931455Y-99979305D03*
X196470455Y-96677305D03*
X200407455Y-93375305D03*
X194565455Y-93886305D03*
X201931455Y-100995305D03*
X201931455Y-94391305D03*
X197994455Y-93375305D03*
X196470455Y-99979305D03*
X197994455Y-99979305D03*
X209043455Y-98836305D03*
X193041455Y-100360305D03*
X197994455Y-94391305D03*
X200407455Y-94391305D03*
X196470455Y-100995305D03*
X200407455Y-100995305D03*
X196470455Y-94391305D03*
X201931455Y-93375305D03*
X194057455Y-90454305D03*
X196470455Y-93375305D03*
X204014255Y-92791105D03*
X197994455Y-100995305D03*
D16*
X193041455Y-100360305D02*
X193041455Y-91470305D01*
X193041455Y-91470305D02*
X194057455Y-90454305D01*
X157726455Y-135675305D02*
X157726455Y-137698305D01*
X193041455Y-100360305D02*
X157726455Y-135675305D01*
X193041455Y-100360305D02*
X169419455Y-100360305D01*
X167115455Y-102664305D02*
X167115455Y-104424305D01*
X169419455Y-100360305D02*
X167115455Y-102664305D01*
X224191455Y-117387905D02*
X224191455Y-118776305D01*
X204014255Y-92791105D02*
X204014255Y-97210705D01*
X203991855Y-97188305D02*
X201191455Y-97188305D01*
X204115855Y-97312305D02*
X203991855Y-97188305D01*
X204014255Y-97210705D02*
X204115855Y-97312305D01*
X204115855Y-97312305D02*
X224191455Y-117387905D01*
X198426255Y-76128705D02*
X181509855Y-76128705D01*
X204014255Y-81716705D02*
X198426255Y-76128705D01*
X180577455Y-75196305D02*
X180577455Y-73436305D01*
X181509855Y-76128705D02*
X180577455Y-75196305D01*
D17*
X205278955Y-56971805D02*
X205278955Y-57776305D01*
X204191455Y-55884305D02*
X205278955Y-56971805D01*
X204191455Y-54801305D02*
X204191455Y-55884305D01*
D16*
X224191455Y-120826305D02*
X224191455Y-122688805D01*
X224191455Y-122688805D02*
X225278955Y-123776305D01*
D17*
X182627455Y-73436305D02*
X184762955Y-73436305D01*
X159776455Y-137698305D02*
X161902955Y-137698305D01*
D16*
X213869455Y-98836305D02*
X209043455Y-98836305D01*
D17*
X169165455Y-104424305D02*
X171291955Y-104424305D01*
D16*
X208388455Y-86751305D02*
X208326455Y-86751305D01*
X201931455Y-93146305D02*
X201931455Y-93375305D01*
X200915455Y-54132305D02*
X200915455Y-72166305D01*
D17*
X216191455Y-88801305D02*
X216191455Y-90688805D01*
D16*
X216191455Y-86751305D02*
X208388455Y-86751305D01*
X204191455Y-52751305D02*
X202296455Y-52751305D01*
D17*
X216191455Y-90688805D02*
X217278955Y-91776305D01*
D16*
X208326455Y-86751305D02*
X201931455Y-93146305D01*
X208388455Y-79639305D02*
X208388455Y-86751305D01*
X202296455Y-52751305D02*
X200915455Y-54132305D01*
X201702455Y-93375305D02*
X201191455Y-93886305D01*
X201931455Y-93375305D02*
X201702455Y-93375305D01*
X200915455Y-72166305D02*
X208388455Y-79639305D01*
G04 #@! TA.AperFunction,Conductor*
G36*
X200093487Y-43196490D02*
G01*
X200128198Y-43229933D01*
X224054763Y-77580933D01*
X224076927Y-77647194D01*
X224059749Y-77714919D01*
X224008683Y-77762606D01*
X223953013Y-77775805D01*
X211692407Y-77775805D01*
X211691461Y-77775763D01*
X211691357Y-77775805D01*
X211691356Y-77775805D01*
X211691276Y-77775837D01*
X211691089Y-77775906D01*
X211691088Y-77775906D01*
X211691076Y-77775911D01*
X211691000Y-77776096D01*
X211690908Y-77776292D01*
X211690993Y-77776498D01*
X211691058Y-77776675D01*
X211691753Y-77777370D01*
X226518980Y-93952526D01*
X237002853Y-105389479D01*
X238999845Y-107568015D01*
X239030635Y-107630735D01*
X239022628Y-107700144D01*
X238978366Y-107754206D01*
X238911903Y-107775757D01*
X238908438Y-107775805D01*
X219194103Y-107775805D01*
X219191477Y-107775721D01*
X219191040Y-107775885D01*
X219190862Y-107776278D01*
X219191022Y-107776697D01*
X219192825Y-107778614D01*
X249008545Y-141569764D01*
X249038139Y-141633056D01*
X249028817Y-141702301D01*
X248983539Y-141755514D01*
X248916679Y-141775800D01*
X248915565Y-141775805D01*
X207315955Y-141775805D01*
X207248916Y-141756120D01*
X207203161Y-141703316D01*
X207191955Y-141651805D01*
X207191955Y-109801064D01*
X207191983Y-109800921D01*
X207191979Y-109800921D01*
X207191994Y-109776307D01*
X207191996Y-109776305D01*
X207191917Y-109776113D01*
X207191839Y-109775923D01*
X207191837Y-109775921D01*
X207191554Y-109775805D01*
X207191455Y-109775764D01*
X207166901Y-109775764D01*
X207166695Y-109775805D01*
X195860215Y-109775805D01*
X195860009Y-109775764D01*
X195835455Y-109775764D01*
X195835356Y-109775805D01*
X195835072Y-109775921D01*
X195835070Y-109775923D01*
X195834914Y-109776304D01*
X195834931Y-109800921D01*
X195834926Y-109800921D01*
X195834955Y-109801064D01*
X195834955Y-141637842D01*
X195815270Y-141704881D01*
X195762466Y-141750636D01*
X195710992Y-141761842D01*
X149467452Y-141775721D01*
X149400407Y-141756057D01*
X149354636Y-141703266D01*
X149344672Y-141634111D01*
X149373678Y-141570546D01*
X149374362Y-141569764D01*
X152349178Y-138198306D01*
X156650955Y-138198306D01*
X156650956Y-138198324D01*
X156661455Y-138301101D01*
X156661456Y-138301104D01*
X156684564Y-138370837D01*
X156716641Y-138467639D01*
X156808743Y-138616961D01*
X156932799Y-138741017D01*
X157082121Y-138833119D01*
X157248658Y-138888304D01*
X157351446Y-138898805D01*
X158101463Y-138898804D01*
X158101471Y-138898803D01*
X158101474Y-138898803D01*
X158157757Y-138893053D01*
X158204252Y-138888304D01*
X158370789Y-138833119D01*
X158520111Y-138741017D01*
X158644167Y-138616961D01*
X158645916Y-138614124D01*
X158647624Y-138612588D01*
X158648648Y-138611294D01*
X158648869Y-138611468D01*
X158697861Y-138567401D01*
X158766823Y-138556177D01*
X158830906Y-138584018D01*
X158856992Y-138614122D01*
X158858743Y-138616961D01*
X158982799Y-138741017D01*
X159132121Y-138833119D01*
X159298658Y-138888304D01*
X159401446Y-138898805D01*
X160151463Y-138898804D01*
X160151471Y-138898803D01*
X160151474Y-138898803D01*
X160207757Y-138893053D01*
X160254252Y-138888304D01*
X160420789Y-138833119D01*
X160570111Y-138741017D01*
X160694167Y-138616961D01*
X160730714Y-138557707D01*
X160782662Y-138510984D01*
X160836253Y-138498805D01*
X161124773Y-138498805D01*
X161189870Y-138517266D01*
X161192103Y-138518643D01*
X161192105Y-138518645D01*
X161338939Y-138609213D01*
X161502702Y-138663479D01*
X161603778Y-138673805D01*
X162202131Y-138673804D01*
X162202139Y-138673803D01*
X162202142Y-138673803D01*
X162257485Y-138668149D01*
X162303208Y-138663479D01*
X162466971Y-138609213D01*
X162613805Y-138518645D01*
X162728130Y-138404319D01*
X162789449Y-138370837D01*
X162859141Y-138375821D01*
X162903489Y-138404322D01*
X163017416Y-138518249D01*
X163017420Y-138518252D01*
X163164143Y-138608753D01*
X163164154Y-138608758D01*
X163327802Y-138662985D01*
X163428806Y-138673304D01*
X163477954Y-138673303D01*
X163477955Y-138673303D01*
X163477955Y-137948305D01*
X163977955Y-137948305D01*
X163977955Y-138673304D01*
X164027095Y-138673304D01*
X164027109Y-138673303D01*
X164128107Y-138662985D01*
X164291755Y-138608758D01*
X164291766Y-138608753D01*
X164438489Y-138518252D01*
X164438493Y-138518249D01*
X164560399Y-138396343D01*
X164560402Y-138396339D01*
X164650903Y-138249616D01*
X164650908Y-138249605D01*
X164705135Y-138085957D01*
X164715454Y-137984959D01*
X164715455Y-137984946D01*
X164715455Y-137948305D01*
X163977955Y-137948305D01*
X163477955Y-137948305D01*
X163477955Y-136723305D01*
X163977955Y-136723305D01*
X163977955Y-137448305D01*
X164715454Y-137448305D01*
X164715454Y-137411665D01*
X164715453Y-137411650D01*
X164705135Y-137310652D01*
X164650908Y-137147004D01*
X164650903Y-137146993D01*
X164560402Y-137000270D01*
X164560399Y-137000266D01*
X164438493Y-136878360D01*
X164438489Y-136878357D01*
X164291766Y-136787856D01*
X164291755Y-136787851D01*
X164128107Y-136733624D01*
X164027109Y-136723305D01*
X163977955Y-136723305D01*
X163477955Y-136723305D01*
X163477954Y-136723304D01*
X163428816Y-136723305D01*
X163428798Y-136723306D01*
X163327802Y-136733624D01*
X163164154Y-136787851D01*
X163164143Y-136787856D01*
X163017420Y-136878357D01*
X162903489Y-136992288D01*
X162842166Y-137025772D01*
X162772474Y-137020788D01*
X162728127Y-136992287D01*
X162613806Y-136877966D01*
X162613805Y-136877965D01*
X162522584Y-136821700D01*
X162466973Y-136787398D01*
X162466968Y-136787396D01*
X162443583Y-136779647D01*
X162303208Y-136733131D01*
X162303206Y-136733130D01*
X162202133Y-136722805D01*
X161603785Y-136722805D01*
X161603767Y-136722806D01*
X161502702Y-136733130D01*
X161338939Y-136787397D01*
X161338936Y-136787398D01*
X161271149Y-136829210D01*
X161192105Y-136877965D01*
X161192103Y-136877966D01*
X161189870Y-136879344D01*
X161124773Y-136897805D01*
X160836253Y-136897805D01*
X160769214Y-136878120D01*
X160730714Y-136838902D01*
X160714483Y-136812587D01*
X160694167Y-136779649D01*
X160570111Y-136655593D01*
X160420789Y-136563491D01*
X160254252Y-136508306D01*
X160254250Y-136508305D01*
X160151465Y-136497805D01*
X159401453Y-136497805D01*
X159401435Y-136497806D01*
X159298658Y-136508305D01*
X159298655Y-136508306D01*
X159132123Y-136563490D01*
X159132118Y-136563492D01*
X158982797Y-136655594D01*
X158858740Y-136779651D01*
X158856992Y-136782487D01*
X158855284Y-136784022D01*
X158854262Y-136785316D01*
X158854040Y-136785141D01*
X158805044Y-136829210D01*
X158736081Y-136840431D01*
X158671999Y-136812587D01*
X158645918Y-136782487D01*
X158644169Y-136779651D01*
X158520112Y-136655594D01*
X158520111Y-136655593D01*
X158410857Y-136588205D01*
X158364134Y-136536258D01*
X158351955Y-136482667D01*
X158351955Y-135985757D01*
X158371640Y-135918718D01*
X158388274Y-135898076D01*
X189248047Y-105038304D01*
X200045007Y-105038304D01*
X200045008Y-105038305D01*
X202337902Y-105038305D01*
X202337902Y-105038304D01*
X201191455Y-103891858D01*
X200045007Y-105038304D01*
X189248047Y-105038304D01*
X192989227Y-101297124D01*
X193050550Y-101263639D01*
X193076908Y-101260805D01*
X193136099Y-101260805D01*
X193136101Y-101260805D01*
X193321258Y-101221449D01*
X193494185Y-101144456D01*
X193647326Y-101033193D01*
X193681441Y-100995305D01*
X195564995Y-100995305D01*
X195584781Y-101183561D01*
X195584782Y-101183564D01*
X195643273Y-101363582D01*
X195643276Y-101363589D01*
X195737922Y-101527521D01*
X195800605Y-101597137D01*
X195864584Y-101668193D01*
X196017720Y-101779453D01*
X196017725Y-101779456D01*
X196190647Y-101856447D01*
X196190652Y-101856449D01*
X196375809Y-101895805D01*
X196375810Y-101895805D01*
X196565099Y-101895805D01*
X196565101Y-101895805D01*
X196750258Y-101856449D01*
X196923185Y-101779456D01*
X197076326Y-101668193D01*
X197140305Y-101597136D01*
X197199792Y-101560488D01*
X197269649Y-101561819D01*
X197324605Y-101597137D01*
X197388584Y-101668193D01*
X197541720Y-101779453D01*
X197541725Y-101779456D01*
X197714647Y-101856447D01*
X197714652Y-101856449D01*
X197899809Y-101895805D01*
X197899810Y-101895805D01*
X198089099Y-101895805D01*
X198089101Y-101895805D01*
X198274258Y-101856449D01*
X198447185Y-101779456D01*
X198600326Y-101668193D01*
X198717395Y-101538175D01*
X199190955Y-101538175D01*
X199190956Y-101538181D01*
X199197363Y-101597788D01*
X199247657Y-101732633D01*
X199247661Y-101732640D01*
X199333907Y-101847849D01*
X199333910Y-101847852D01*
X199424076Y-101915351D01*
X199465947Y-101971285D01*
X199470931Y-102040976D01*
X199437445Y-102102299D01*
X199424077Y-102113883D01*
X199334264Y-102181117D01*
X199248104Y-102296211D01*
X199248100Y-102296218D01*
X199197858Y-102430925D01*
X199197856Y-102430932D01*
X199191455Y-102490460D01*
X199191455Y-104586149D01*
X199197856Y-104645677D01*
X199197858Y-104645684D01*
X199248100Y-104780391D01*
X199248104Y-104780398D01*
X199334263Y-104895490D01*
X199334272Y-104895499D01*
X199418015Y-104958190D01*
X199418017Y-104958189D01*
X201103773Y-103272433D01*
X201165096Y-103238948D01*
X201234788Y-103243932D01*
X201279135Y-103272433D01*
X202964891Y-104958189D01*
X203048645Y-104895491D01*
X203134805Y-104780398D01*
X203134809Y-104780391D01*
X203185051Y-104645684D01*
X203185053Y-104645677D01*
X203191454Y-104586149D01*
X203191455Y-104586132D01*
X203191455Y-102490477D01*
X203191454Y-102490460D01*
X203185053Y-102430932D01*
X203185051Y-102430925D01*
X203134809Y-102296218D01*
X203134805Y-102296211D01*
X203048645Y-102181118D01*
X202958833Y-102113884D01*
X202916962Y-102057950D01*
X202911978Y-101988258D01*
X202945463Y-101926935D01*
X202958826Y-101915355D01*
X203049001Y-101847851D01*
X203135251Y-101732636D01*
X203185546Y-101597788D01*
X203191955Y-101538178D01*
X203191954Y-99442433D01*
X203185546Y-99382822D01*
X203180211Y-99368519D01*
X203135252Y-99247976D01*
X203135248Y-99247969D01*
X203049002Y-99132760D01*
X203048999Y-99132757D01*
X202933790Y-99046511D01*
X202933783Y-99046507D01*
X202798937Y-98996213D01*
X202798938Y-98996213D01*
X202739338Y-98989806D01*
X202739336Y-98989805D01*
X202739328Y-98989805D01*
X202739319Y-98989805D01*
X199643584Y-98989805D01*
X199643578Y-98989806D01*
X199583971Y-98996213D01*
X199449126Y-99046507D01*
X199449119Y-99046511D01*
X199333910Y-99132757D01*
X199333907Y-99132760D01*
X199247661Y-99247969D01*
X199247657Y-99247976D01*
X199197363Y-99382822D01*
X199190956Y-99442421D01*
X199190956Y-99442428D01*
X199190955Y-99442440D01*
X199190955Y-101538175D01*
X198717395Y-101538175D01*
X198726988Y-101527521D01*
X198821634Y-101363589D01*
X198880129Y-101183561D01*
X198899915Y-100995305D01*
X198880129Y-100807049D01*
X198821634Y-100627021D01*
X198776763Y-100549302D01*
X198760291Y-100481405D01*
X198776764Y-100425306D01*
X198821634Y-100347589D01*
X198880129Y-100167561D01*
X198899915Y-99979305D01*
X198880129Y-99791049D01*
X198821634Y-99611021D01*
X198726988Y-99447089D01*
X198600326Y-99306417D01*
X198519889Y-99247976D01*
X198447189Y-99195156D01*
X198447184Y-99195153D01*
X198274262Y-99118162D01*
X198274257Y-99118160D01*
X198128456Y-99087170D01*
X198089101Y-99078805D01*
X197899809Y-99078805D01*
X197867352Y-99085703D01*
X197714652Y-99118160D01*
X197714647Y-99118162D01*
X197541725Y-99195153D01*
X197541720Y-99195156D01*
X197388584Y-99306416D01*
X197388583Y-99306417D01*
X197324604Y-99377473D01*
X197265118Y-99414121D01*
X197195261Y-99412790D01*
X197140306Y-99377473D01*
X197076326Y-99306417D01*
X197076325Y-99306416D01*
X196923189Y-99195156D01*
X196923184Y-99195153D01*
X196750262Y-99118162D01*
X196750257Y-99118160D01*
X196604456Y-99087170D01*
X196565101Y-99078805D01*
X196375809Y-99078805D01*
X196343352Y-99085703D01*
X196190652Y-99118160D01*
X196190647Y-99118162D01*
X196017725Y-99195153D01*
X196017720Y-99195156D01*
X195864584Y-99306416D01*
X195737921Y-99447090D01*
X195643276Y-99611020D01*
X195643273Y-99611027D01*
X195587824Y-99781684D01*
X195584781Y-99791049D01*
X195564995Y-99979305D01*
X195584781Y-100167561D01*
X195584782Y-100167564D01*
X195643275Y-100347588D01*
X195688145Y-100425306D01*
X195704617Y-100493206D01*
X195688145Y-100549304D01*
X195643275Y-100627021D01*
X195610274Y-100728589D01*
X195584781Y-100807049D01*
X195564995Y-100995305D01*
X193681441Y-100995305D01*
X193773988Y-100892521D01*
X193868634Y-100728589D01*
X193927129Y-100548561D01*
X193946915Y-100360305D01*
X193927129Y-100172049D01*
X193868634Y-99992021D01*
X193773988Y-99828089D01*
X193698805Y-99744589D01*
X193668575Y-99681597D01*
X193666955Y-99661617D01*
X193666955Y-97693305D01*
X195564995Y-97693305D01*
X195584781Y-97881561D01*
X195584782Y-97881564D01*
X195643273Y-98061582D01*
X195643276Y-98061589D01*
X195737922Y-98225521D01*
X195808666Y-98304090D01*
X195864584Y-98366193D01*
X196017720Y-98477453D01*
X196017725Y-98477456D01*
X196190647Y-98554447D01*
X196190652Y-98554449D01*
X196375809Y-98593805D01*
X196375810Y-98593805D01*
X196565099Y-98593805D01*
X196565101Y-98593805D01*
X196750258Y-98554449D01*
X196923185Y-98477456D01*
X197076326Y-98366193D01*
X197140305Y-98295136D01*
X197199792Y-98258488D01*
X197269649Y-98259819D01*
X197324605Y-98295137D01*
X197388584Y-98366193D01*
X197541720Y-98477453D01*
X197541725Y-98477456D01*
X197714647Y-98554447D01*
X197714652Y-98554449D01*
X197899809Y-98593805D01*
X197899810Y-98593805D01*
X198089099Y-98593805D01*
X198089101Y-98593805D01*
X198274258Y-98554449D01*
X198447185Y-98477456D01*
X198600326Y-98366193D01*
X198717395Y-98236175D01*
X199190955Y-98236175D01*
X199190956Y-98236181D01*
X199197363Y-98295788D01*
X199247657Y-98430633D01*
X199247661Y-98430640D01*
X199333907Y-98545849D01*
X199333910Y-98545852D01*
X199449119Y-98632098D01*
X199449126Y-98632102D01*
X199583972Y-98682396D01*
X199583971Y-98682396D01*
X199590899Y-98683140D01*
X199643582Y-98688805D01*
X202739327Y-98688804D01*
X202798938Y-98682396D01*
X202933786Y-98632101D01*
X203049001Y-98545851D01*
X203135251Y-98430636D01*
X203185546Y-98295788D01*
X203191955Y-98236178D01*
X203191955Y-97937805D01*
X203211640Y-97870766D01*
X203264444Y-97825011D01*
X203315955Y-97813805D01*
X203681403Y-97813805D01*
X203748442Y-97833490D01*
X203769084Y-97850124D01*
X223477758Y-117558798D01*
X223511243Y-117620121D01*
X223506259Y-117689813D01*
X223464387Y-117745746D01*
X223429085Y-117764183D01*
X223422121Y-117766491D01*
X223422118Y-117766492D01*
X223272797Y-117858594D01*
X223148744Y-117982647D01*
X223056642Y-118131968D01*
X223056641Y-118131971D01*
X223001456Y-118298508D01*
X223001456Y-118298509D01*
X223001455Y-118298509D01*
X222990955Y-118401288D01*
X222990955Y-119151306D01*
X222990956Y-119151324D01*
X223001455Y-119254101D01*
X223001456Y-119254104D01*
X223056640Y-119420636D01*
X223056642Y-119420641D01*
X223148744Y-119569962D01*
X223272801Y-119694019D01*
X223275637Y-119695768D01*
X223277172Y-119697475D01*
X223278466Y-119698498D01*
X223278291Y-119698719D01*
X223322360Y-119747716D01*
X223333581Y-119816679D01*
X223305737Y-119880761D01*
X223275637Y-119906842D01*
X223272801Y-119908590D01*
X223148744Y-120032647D01*
X223056642Y-120181968D01*
X223056641Y-120181971D01*
X223001456Y-120348508D01*
X223001456Y-120348509D01*
X223001455Y-120348509D01*
X222990955Y-120451288D01*
X222990955Y-121201306D01*
X222990956Y-121201324D01*
X223001455Y-121304101D01*
X223001456Y-121304104D01*
X223056640Y-121470636D01*
X223056641Y-121470639D01*
X223148743Y-121619961D01*
X223272799Y-121744017D01*
X223422121Y-121836119D01*
X223422123Y-121836120D01*
X223442565Y-121842893D01*
X223480957Y-121855615D01*
X223538402Y-121895386D01*
X223565227Y-121959901D01*
X223565955Y-121973321D01*
X223565955Y-122606060D01*
X223564230Y-122621677D01*
X223564516Y-122621704D01*
X223563781Y-122629470D01*
X223565955Y-122698619D01*
X223565955Y-122728148D01*
X223565956Y-122728165D01*
X223566823Y-122735036D01*
X223567281Y-122740855D01*
X223568745Y-122787429D01*
X223568746Y-122787432D01*
X223574335Y-122806672D01*
X223578279Y-122825716D01*
X223580791Y-122845596D01*
X223597945Y-122888924D01*
X223599837Y-122894452D01*
X223612837Y-122939195D01*
X223622986Y-122956357D01*
X223623035Y-122956439D01*
X223631593Y-122973908D01*
X223638969Y-122992537D01*
X223666353Y-123030228D01*
X223669561Y-123035112D01*
X223693282Y-123075221D01*
X223693288Y-123075229D01*
X223707445Y-123089385D01*
X223720083Y-123104181D01*
X223731860Y-123120391D01*
X223731861Y-123120392D01*
X223767764Y-123150093D01*
X223772075Y-123154015D01*
X224107689Y-123489629D01*
X224254636Y-123636576D01*
X224288121Y-123697899D01*
X224290955Y-123724257D01*
X224290955Y-124062973D01*
X224290956Y-124062992D01*
X224301280Y-124164057D01*
X224337564Y-124273554D01*
X224355547Y-124327821D01*
X224446115Y-124474655D01*
X224568105Y-124596645D01*
X224714939Y-124687213D01*
X224878702Y-124741479D01*
X224979778Y-124751805D01*
X225578131Y-124751804D01*
X225578139Y-124751803D01*
X225578142Y-124751803D01*
X225633485Y-124746149D01*
X225679208Y-124741479D01*
X225842971Y-124687213D01*
X225989805Y-124596645D01*
X226104130Y-124482319D01*
X226165449Y-124448837D01*
X226235141Y-124453821D01*
X226279489Y-124482322D01*
X226393416Y-124596249D01*
X226393420Y-124596252D01*
X226540143Y-124686753D01*
X226540154Y-124686758D01*
X226703802Y-124740985D01*
X226804806Y-124751304D01*
X226853954Y-124751303D01*
X226853955Y-124751303D01*
X226853955Y-124026305D01*
X227353955Y-124026305D01*
X227353955Y-124751304D01*
X227403095Y-124751304D01*
X227403109Y-124751303D01*
X227504107Y-124740985D01*
X227667755Y-124686758D01*
X227667766Y-124686753D01*
X227814489Y-124596252D01*
X227814493Y-124596249D01*
X227936399Y-124474343D01*
X227936402Y-124474339D01*
X228026903Y-124327616D01*
X228026908Y-124327605D01*
X228081135Y-124163957D01*
X228091454Y-124062959D01*
X228091455Y-124062946D01*
X228091455Y-124026305D01*
X227353955Y-124026305D01*
X226853955Y-124026305D01*
X226853955Y-122801305D01*
X227353955Y-122801305D01*
X227353955Y-123526305D01*
X228091454Y-123526305D01*
X228091454Y-123489665D01*
X228091453Y-123489650D01*
X228081135Y-123388652D01*
X228026908Y-123225004D01*
X228026903Y-123224993D01*
X227936402Y-123078270D01*
X227936399Y-123078266D01*
X227814493Y-122956360D01*
X227814489Y-122956357D01*
X227667766Y-122865856D01*
X227667755Y-122865851D01*
X227504107Y-122811624D01*
X227403109Y-122801305D01*
X227353955Y-122801305D01*
X226853955Y-122801305D01*
X226853954Y-122801304D01*
X226804816Y-122801305D01*
X226804798Y-122801306D01*
X226703802Y-122811624D01*
X226540154Y-122865851D01*
X226540143Y-122865856D01*
X226393420Y-122956357D01*
X226279489Y-123070288D01*
X226218166Y-123103772D01*
X226148474Y-123098788D01*
X226104127Y-123070287D01*
X225989806Y-122955966D01*
X225989805Y-122955965D01*
X225881114Y-122888924D01*
X225842973Y-122865398D01*
X225842968Y-122865396D01*
X225841524Y-122864917D01*
X225679208Y-122811131D01*
X225679206Y-122811130D01*
X225578139Y-122800805D01*
X225578132Y-122800805D01*
X225239408Y-122800805D01*
X225172369Y-122781120D01*
X225151727Y-122764486D01*
X224853274Y-122466033D01*
X224819789Y-122404710D01*
X224816955Y-122378352D01*
X224816955Y-121973321D01*
X224836640Y-121906282D01*
X224889444Y-121860527D01*
X224901943Y-121855618D01*
X224960789Y-121836119D01*
X225110111Y-121744017D01*
X225234167Y-121619961D01*
X225326269Y-121470639D01*
X225381454Y-121304102D01*
X225391955Y-121201314D01*
X225391954Y-120451297D01*
X225381454Y-120348508D01*
X225326269Y-120181971D01*
X225234167Y-120032649D01*
X225110111Y-119908593D01*
X225107274Y-119906843D01*
X225105738Y-119905135D01*
X225104444Y-119904112D01*
X225104618Y-119903890D01*
X225060551Y-119854899D01*
X225049327Y-119785937D01*
X225077168Y-119721854D01*
X225107272Y-119695767D01*
X225110111Y-119694017D01*
X225234167Y-119569961D01*
X225326269Y-119420639D01*
X225381454Y-119254102D01*
X225391955Y-119151314D01*
X225391954Y-118401297D01*
X225381454Y-118298508D01*
X225326269Y-118131971D01*
X225234167Y-117982649D01*
X225110111Y-117858593D01*
X224960789Y-117766491D01*
X224901948Y-117746993D01*
X224844506Y-117707221D01*
X224817683Y-117642705D01*
X224816955Y-117629288D01*
X224816955Y-117470647D01*
X224818679Y-117455027D01*
X224818394Y-117455001D01*
X224819126Y-117447245D01*
X224819128Y-117447238D01*
X224816955Y-117378090D01*
X224816955Y-117348555D01*
X224816086Y-117341677D01*
X224815627Y-117335848D01*
X224814164Y-117289277D01*
X224808577Y-117270049D01*
X224804629Y-117250989D01*
X224802118Y-117231109D01*
X224784967Y-117187792D01*
X224783074Y-117182263D01*
X224770073Y-117137514D01*
X224770071Y-117137511D01*
X224759878Y-117120276D01*
X224751316Y-117102799D01*
X224743942Y-117084175D01*
X224743941Y-117084173D01*
X224716534Y-117046450D01*
X224713343Y-117041591D01*
X224689627Y-117001488D01*
X224689620Y-117001479D01*
X224675461Y-116987320D01*
X224662823Y-116972524D01*
X224651049Y-116956318D01*
X224615143Y-116926614D01*
X224610831Y-116922691D01*
X206524446Y-98836305D01*
X208137995Y-98836305D01*
X208157781Y-99024561D01*
X208157782Y-99024564D01*
X208216273Y-99204582D01*
X208216276Y-99204589D01*
X208310922Y-99368521D01*
X208412640Y-99481490D01*
X208437584Y-99509193D01*
X208590720Y-99620453D01*
X208590725Y-99620456D01*
X208763647Y-99697447D01*
X208763652Y-99697449D01*
X208948809Y-99736805D01*
X208948810Y-99736805D01*
X209138099Y-99736805D01*
X209138101Y-99736805D01*
X209323258Y-99697449D01*
X209496185Y-99620456D01*
X209649326Y-99509193D01*
X209652243Y-99505952D01*
X209655055Y-99502831D01*
X209714542Y-99466184D01*
X209747203Y-99461805D01*
X213165707Y-99461805D01*
X213232746Y-99481490D01*
X213257855Y-99502831D01*
X213263581Y-99509190D01*
X213263585Y-99509194D01*
X213416720Y-99620453D01*
X213416725Y-99620456D01*
X213589647Y-99697447D01*
X213589652Y-99697449D01*
X213774809Y-99736805D01*
X213774810Y-99736805D01*
X213964099Y-99736805D01*
X213964101Y-99736805D01*
X214149258Y-99697449D01*
X214322185Y-99620456D01*
X214475326Y-99509193D01*
X214601988Y-99368521D01*
X214696634Y-99204589D01*
X214755129Y-99024561D01*
X214774915Y-98836305D01*
X214755129Y-98648049D01*
X214696634Y-98468021D01*
X214601988Y-98304089D01*
X214475326Y-98163417D01*
X214475325Y-98163416D01*
X214322189Y-98052156D01*
X214322184Y-98052153D01*
X214149262Y-97975162D01*
X214149257Y-97975160D01*
X213973510Y-97937805D01*
X213964101Y-97935805D01*
X213774809Y-97935805D01*
X213765400Y-97937805D01*
X213589652Y-97975160D01*
X213589647Y-97975162D01*
X213416725Y-98052153D01*
X213416720Y-98052156D01*
X213263585Y-98163415D01*
X213263581Y-98163419D01*
X213257855Y-98169779D01*
X213198368Y-98206426D01*
X213165707Y-98210805D01*
X209747203Y-98210805D01*
X209680164Y-98191120D01*
X209655055Y-98169779D01*
X209649328Y-98163419D01*
X209649324Y-98163415D01*
X209496189Y-98052156D01*
X209496184Y-98052153D01*
X209323262Y-97975162D01*
X209323257Y-97975160D01*
X209147510Y-97937805D01*
X209138101Y-97935805D01*
X208948809Y-97935805D01*
X208939400Y-97937805D01*
X208763652Y-97975160D01*
X208763647Y-97975162D01*
X208590725Y-98052153D01*
X208590720Y-98052156D01*
X208437584Y-98163416D01*
X208310921Y-98304090D01*
X208216276Y-98468020D01*
X208216273Y-98468027D01*
X208157782Y-98648045D01*
X208157781Y-98648049D01*
X208137995Y-98836305D01*
X206524446Y-98836305D01*
X204676074Y-96987933D01*
X204642589Y-96926610D01*
X204639755Y-96900252D01*
X204639755Y-93489792D01*
X204659440Y-93422753D01*
X204671605Y-93406820D01*
X204705604Y-93369060D01*
X204746788Y-93323321D01*
X204841434Y-93159389D01*
X204899929Y-92979361D01*
X204919715Y-92791105D01*
X204899929Y-92602849D01*
X204841434Y-92422821D01*
X204746788Y-92258889D01*
X204620126Y-92118217D01*
X204620125Y-92118216D01*
X204466989Y-92006956D01*
X204466984Y-92006953D01*
X204294058Y-91929960D01*
X204289006Y-91928319D01*
X204231330Y-91888883D01*
X204204131Y-91824524D01*
X204216045Y-91755678D01*
X204239639Y-91722710D01*
X208549226Y-87413124D01*
X208610549Y-87379639D01*
X208636907Y-87376805D01*
X214975817Y-87376805D01*
X215042856Y-87396490D01*
X215081356Y-87435708D01*
X215148744Y-87544962D01*
X215272801Y-87669019D01*
X215275637Y-87670768D01*
X215277172Y-87672475D01*
X215278466Y-87673498D01*
X215278291Y-87673719D01*
X215322360Y-87722716D01*
X215333581Y-87791679D01*
X215305737Y-87855761D01*
X215275637Y-87881842D01*
X215272801Y-87883590D01*
X215148744Y-88007647D01*
X215056642Y-88156968D01*
X215056641Y-88156971D01*
X215001456Y-88323508D01*
X215001456Y-88323509D01*
X215001455Y-88323509D01*
X214990955Y-88426288D01*
X214990955Y-89176306D01*
X214990956Y-89176324D01*
X215001455Y-89279101D01*
X215001456Y-89279104D01*
X215056640Y-89445636D01*
X215056641Y-89445639D01*
X215148743Y-89594961D01*
X215272799Y-89719017D01*
X215332051Y-89755563D01*
X215378776Y-89807509D01*
X215390955Y-89861102D01*
X215390955Y-90778996D01*
X215390956Y-90779005D01*
X215400246Y-90819713D01*
X215401410Y-90826568D01*
X215406087Y-90868064D01*
X215419875Y-90907467D01*
X215421800Y-90914150D01*
X215431094Y-90954866D01*
X215449214Y-90992493D01*
X215451876Y-90998919D01*
X215465667Y-91038330D01*
X215487877Y-91073677D01*
X215491242Y-91079764D01*
X215509365Y-91117394D01*
X215535395Y-91150034D01*
X215539421Y-91155709D01*
X215561637Y-91191064D01*
X215561639Y-91191067D01*
X216254636Y-91884064D01*
X216288121Y-91945387D01*
X216290955Y-91971744D01*
X216290955Y-92062973D01*
X216290956Y-92062992D01*
X216301280Y-92164057D01*
X216332705Y-92258889D01*
X216355547Y-92327821D01*
X216446115Y-92474655D01*
X216568105Y-92596645D01*
X216714939Y-92687213D01*
X216878702Y-92741479D01*
X216979778Y-92751805D01*
X217578131Y-92751804D01*
X217578139Y-92751803D01*
X217578142Y-92751803D01*
X217633485Y-92746149D01*
X217679208Y-92741479D01*
X217842971Y-92687213D01*
X217989805Y-92596645D01*
X218104130Y-92482319D01*
X218165449Y-92448837D01*
X218235141Y-92453821D01*
X218279489Y-92482322D01*
X218393416Y-92596249D01*
X218393420Y-92596252D01*
X218540143Y-92686753D01*
X218540154Y-92686758D01*
X218703802Y-92740985D01*
X218804806Y-92751304D01*
X218853954Y-92751303D01*
X218853955Y-92751303D01*
X218853955Y-92026305D01*
X219353955Y-92026305D01*
X219353955Y-92751304D01*
X219403095Y-92751304D01*
X219403109Y-92751303D01*
X219504107Y-92740985D01*
X219667755Y-92686758D01*
X219667766Y-92686753D01*
X219814489Y-92596252D01*
X219814493Y-92596249D01*
X219936399Y-92474343D01*
X219936402Y-92474339D01*
X220026903Y-92327616D01*
X220026908Y-92327605D01*
X220081135Y-92163957D01*
X220091454Y-92062959D01*
X220091455Y-92062946D01*
X220091455Y-92026305D01*
X219353955Y-92026305D01*
X218853955Y-92026305D01*
X218853955Y-90801305D01*
X219353955Y-90801305D01*
X219353955Y-91526305D01*
X220091454Y-91526305D01*
X220091454Y-91489665D01*
X220091453Y-91489650D01*
X220081135Y-91388652D01*
X220026908Y-91225004D01*
X220026903Y-91224993D01*
X219936402Y-91078270D01*
X219936399Y-91078266D01*
X219814493Y-90956360D01*
X219814489Y-90956357D01*
X219667766Y-90865856D01*
X219667755Y-90865851D01*
X219504107Y-90811624D01*
X219403109Y-90801305D01*
X219353955Y-90801305D01*
X218853955Y-90801305D01*
X218853954Y-90801304D01*
X218804816Y-90801305D01*
X218804798Y-90801306D01*
X218703802Y-90811624D01*
X218540154Y-90865851D01*
X218540143Y-90865856D01*
X218393420Y-90956357D01*
X218279489Y-91070288D01*
X218218166Y-91103772D01*
X218148474Y-91098788D01*
X218104127Y-91070287D01*
X217989806Y-90955966D01*
X217989805Y-90955965D01*
X217847295Y-90868064D01*
X217842973Y-90865398D01*
X217842968Y-90865396D01*
X217841524Y-90864917D01*
X217679208Y-90811131D01*
X217679206Y-90811130D01*
X217578139Y-90800805D01*
X217578132Y-90800805D01*
X217486895Y-90800805D01*
X217419856Y-90781120D01*
X217399214Y-90764486D01*
X217028274Y-90393546D01*
X216994789Y-90332223D01*
X216991955Y-90305865D01*
X216991955Y-89861102D01*
X217011640Y-89794063D01*
X217050858Y-89755563D01*
X217110111Y-89719017D01*
X217234167Y-89594961D01*
X217326269Y-89445639D01*
X217381454Y-89279102D01*
X217391955Y-89176314D01*
X217391954Y-88426297D01*
X217381454Y-88323508D01*
X217326269Y-88156971D01*
X217234167Y-88007649D01*
X217110111Y-87883593D01*
X217107274Y-87881843D01*
X217105738Y-87880135D01*
X217104444Y-87879112D01*
X217104618Y-87878890D01*
X217060551Y-87829899D01*
X217049327Y-87760937D01*
X217077168Y-87696854D01*
X217107272Y-87670767D01*
X217110111Y-87669017D01*
X217234167Y-87544961D01*
X217326269Y-87395639D01*
X217381454Y-87229102D01*
X217391955Y-87126314D01*
X217391954Y-86376297D01*
X217381454Y-86273508D01*
X217326269Y-86106971D01*
X217234167Y-85957649D01*
X217110111Y-85833593D01*
X216960789Y-85741491D01*
X216794252Y-85686306D01*
X216794250Y-85686305D01*
X216691465Y-85675805D01*
X215691453Y-85675805D01*
X215691435Y-85675806D01*
X215588658Y-85686305D01*
X215588655Y-85686306D01*
X215422123Y-85741490D01*
X215422118Y-85741492D01*
X215272797Y-85833594D01*
X215148744Y-85957647D01*
X215148743Y-85957649D01*
X215089736Y-86053316D01*
X215081356Y-86066902D01*
X215029408Y-86113626D01*
X214975817Y-86125805D01*
X209137955Y-86125805D01*
X209070916Y-86106120D01*
X209025161Y-86053316D01*
X209013955Y-86001805D01*
X209013955Y-79722047D01*
X209015679Y-79706427D01*
X209015394Y-79706401D01*
X209016126Y-79698645D01*
X209016128Y-79698638D01*
X209013955Y-79629490D01*
X209013955Y-79599955D01*
X209013086Y-79593077D01*
X209012627Y-79587248D01*
X209011164Y-79540677D01*
X209005577Y-79521449D01*
X209001629Y-79502389D01*
X208999118Y-79482509D01*
X208981967Y-79439192D01*
X208980074Y-79433663D01*
X208967073Y-79388914D01*
X208967071Y-79388911D01*
X208956878Y-79371676D01*
X208948316Y-79354199D01*
X208940942Y-79335575D01*
X208940941Y-79335573D01*
X208913534Y-79297850D01*
X208910343Y-79292991D01*
X208886627Y-79252888D01*
X208886620Y-79252879D01*
X208872461Y-79238720D01*
X208859823Y-79223924D01*
X208848049Y-79207718D01*
X208812143Y-79178014D01*
X208807831Y-79174091D01*
X201577274Y-71943533D01*
X201543789Y-71882210D01*
X201540955Y-71855852D01*
X201540955Y-54442757D01*
X201560640Y-54375718D01*
X201577274Y-54355076D01*
X202519227Y-53413124D01*
X202580550Y-53379639D01*
X202606908Y-53376805D01*
X202975817Y-53376805D01*
X203042856Y-53396490D01*
X203081356Y-53435708D01*
X203148744Y-53544962D01*
X203272801Y-53669019D01*
X203275637Y-53670768D01*
X203277172Y-53672475D01*
X203278466Y-53673498D01*
X203278291Y-53673719D01*
X203322360Y-53722716D01*
X203333581Y-53791679D01*
X203305737Y-53855761D01*
X203275637Y-53881842D01*
X203272801Y-53883590D01*
X203148744Y-54007647D01*
X203056642Y-54156968D01*
X203056640Y-54156973D01*
X203055042Y-54161797D01*
X203001456Y-54323508D01*
X203001456Y-54323509D01*
X203001455Y-54323509D01*
X202990955Y-54426288D01*
X202990955Y-55176306D01*
X202990956Y-55176324D01*
X203001455Y-55279101D01*
X203001456Y-55279104D01*
X203056640Y-55445636D01*
X203056641Y-55445639D01*
X203148743Y-55594961D01*
X203272799Y-55719017D01*
X203332051Y-55755563D01*
X203378776Y-55807509D01*
X203390955Y-55861102D01*
X203390955Y-55974496D01*
X203390956Y-55974505D01*
X203400246Y-56015213D01*
X203401410Y-56022068D01*
X203406087Y-56063564D01*
X203419875Y-56102967D01*
X203421800Y-56109650D01*
X203431094Y-56150366D01*
X203449214Y-56187993D01*
X203451876Y-56194419D01*
X203465667Y-56233830D01*
X203487877Y-56269177D01*
X203491242Y-56275264D01*
X203509365Y-56312894D01*
X203535395Y-56345534D01*
X203539421Y-56351209D01*
X203561637Y-56386564D01*
X203561639Y-56386567D01*
X204312493Y-57137421D01*
X204345978Y-57198744D01*
X204342518Y-57264105D01*
X204301281Y-57388549D01*
X204301280Y-57388553D01*
X204290955Y-57489620D01*
X204290955Y-58062974D01*
X204290956Y-58062992D01*
X204301280Y-58164057D01*
X204337564Y-58273554D01*
X204355547Y-58327821D01*
X204446115Y-58474655D01*
X204568105Y-58596645D01*
X204714939Y-58687213D01*
X204878702Y-58741479D01*
X204979778Y-58751805D01*
X205578131Y-58751804D01*
X205578139Y-58751803D01*
X205578142Y-58751803D01*
X205633485Y-58746149D01*
X205679208Y-58741479D01*
X205842971Y-58687213D01*
X205989805Y-58596645D01*
X206104130Y-58482319D01*
X206165449Y-58448837D01*
X206235141Y-58453821D01*
X206279489Y-58482322D01*
X206393416Y-58596249D01*
X206393420Y-58596252D01*
X206540143Y-58686753D01*
X206540154Y-58686758D01*
X206703802Y-58740985D01*
X206804806Y-58751304D01*
X206853954Y-58751303D01*
X206853955Y-58751303D01*
X206853955Y-58026305D01*
X207353955Y-58026305D01*
X207353955Y-58751304D01*
X207403095Y-58751304D01*
X207403109Y-58751303D01*
X207504107Y-58740985D01*
X207667755Y-58686758D01*
X207667766Y-58686753D01*
X207814489Y-58596252D01*
X207814493Y-58596249D01*
X207936399Y-58474343D01*
X207936402Y-58474339D01*
X208026903Y-58327616D01*
X208026908Y-58327605D01*
X208081135Y-58163957D01*
X208091454Y-58062959D01*
X208091455Y-58062946D01*
X208091455Y-58026305D01*
X207353955Y-58026305D01*
X206853955Y-58026305D01*
X206853955Y-56801305D01*
X207353955Y-56801305D01*
X207353955Y-57526305D01*
X208091454Y-57526305D01*
X208091454Y-57489665D01*
X208091453Y-57489650D01*
X208081135Y-57388652D01*
X208026908Y-57225004D01*
X208026903Y-57224993D01*
X207936402Y-57078270D01*
X207936399Y-57078266D01*
X207814493Y-56956360D01*
X207814489Y-56956357D01*
X207667766Y-56865856D01*
X207667755Y-56865851D01*
X207504107Y-56811624D01*
X207403109Y-56801305D01*
X207353955Y-56801305D01*
X206853955Y-56801305D01*
X206853954Y-56801304D01*
X206804816Y-56801305D01*
X206804798Y-56801306D01*
X206703802Y-56811624D01*
X206540154Y-56865851D01*
X206540143Y-56865856D01*
X206393420Y-56956357D01*
X206291136Y-57058641D01*
X206229813Y-57092125D01*
X206160121Y-57087141D01*
X206104188Y-57045269D01*
X206079771Y-56979804D01*
X206079455Y-56970959D01*
X206079455Y-56881612D01*
X206079455Y-56881611D01*
X206070162Y-56840898D01*
X206068997Y-56834038D01*
X206064323Y-56792550D01*
X206064322Y-56792547D01*
X206050531Y-56753133D01*
X206048605Y-56746446D01*
X206039316Y-56705746D01*
X206021199Y-56668125D01*
X206018536Y-56661696D01*
X206004744Y-56622282D01*
X205993532Y-56604440D01*
X205982522Y-56586917D01*
X205979161Y-56580835D01*
X205961046Y-56543217D01*
X205961045Y-56543216D01*
X205935010Y-56510570D01*
X205930983Y-56504894D01*
X205908771Y-56469543D01*
X205781217Y-56341989D01*
X205221859Y-55782631D01*
X205188374Y-55721308D01*
X205193358Y-55651616D01*
X205221859Y-55607269D01*
X205234167Y-55594961D01*
X205326269Y-55445639D01*
X205381454Y-55279102D01*
X205391955Y-55176314D01*
X205391954Y-54426297D01*
X205381454Y-54323508D01*
X205326269Y-54156971D01*
X205234167Y-54007649D01*
X205110111Y-53883593D01*
X205107274Y-53881843D01*
X205105738Y-53880135D01*
X205104444Y-53879112D01*
X205104618Y-53878890D01*
X205060551Y-53829899D01*
X205049327Y-53760937D01*
X205077168Y-53696854D01*
X205107272Y-53670767D01*
X205110111Y-53669017D01*
X205234167Y-53544961D01*
X205326269Y-53395639D01*
X205381454Y-53229102D01*
X205391955Y-53126314D01*
X205391954Y-52376297D01*
X205387422Y-52331936D01*
X205381454Y-52273508D01*
X205381453Y-52273505D01*
X205374703Y-52253134D01*
X205326269Y-52106971D01*
X205234167Y-51957649D01*
X205110111Y-51833593D01*
X204960789Y-51741491D01*
X204794252Y-51686306D01*
X204794250Y-51686305D01*
X204691465Y-51675805D01*
X203691453Y-51675805D01*
X203691435Y-51675806D01*
X203588658Y-51686305D01*
X203588655Y-51686306D01*
X203422123Y-51741490D01*
X203422118Y-51741492D01*
X203272797Y-51833594D01*
X203148744Y-51957647D01*
X203081356Y-52066902D01*
X203029408Y-52113626D01*
X202975817Y-52125805D01*
X202379198Y-52125805D01*
X202363577Y-52124080D01*
X202363551Y-52124366D01*
X202355789Y-52123632D01*
X202355788Y-52123632D01*
X202286641Y-52125805D01*
X202257104Y-52125805D01*
X202250221Y-52126674D01*
X202244404Y-52127131D01*
X202197828Y-52128595D01*
X202178584Y-52134186D01*
X202159534Y-52138130D01*
X202139666Y-52140639D01*
X202096339Y-52157793D01*
X202090813Y-52159684D01*
X202046069Y-52172684D01*
X202046065Y-52172686D01*
X202028821Y-52182884D01*
X202011360Y-52191438D01*
X201992729Y-52198815D01*
X201992717Y-52198822D01*
X201955025Y-52226207D01*
X201950142Y-52229414D01*
X201910035Y-52253134D01*
X201895869Y-52267300D01*
X201881079Y-52279932D01*
X201864869Y-52291709D01*
X201864866Y-52291712D01*
X201835165Y-52327614D01*
X201831232Y-52331936D01*
X200531663Y-53631504D01*
X200519406Y-53641325D01*
X200519589Y-53641546D01*
X200513578Y-53646518D01*
X200466227Y-53696941D01*
X200445344Y-53717824D01*
X200445332Y-53717837D01*
X200441076Y-53723322D01*
X200437292Y-53727752D01*
X200405392Y-53761723D01*
X200405391Y-53761725D01*
X200395739Y-53779281D01*
X200385065Y-53795531D01*
X200372784Y-53811366D01*
X200372779Y-53811373D01*
X200354270Y-53854143D01*
X200351700Y-53859389D01*
X200329258Y-53900211D01*
X200324277Y-53919612D01*
X200317976Y-53938015D01*
X200310017Y-53956407D01*
X200310016Y-53956410D01*
X200302726Y-54002432D01*
X200301542Y-54008151D01*
X200289956Y-54053277D01*
X200289955Y-54053287D01*
X200289955Y-54073321D01*
X200288428Y-54092720D01*
X200285295Y-54112499D01*
X200285295Y-54112500D01*
X200289680Y-54158888D01*
X200289955Y-54164726D01*
X200289955Y-72083560D01*
X200288230Y-72099177D01*
X200288516Y-72099204D01*
X200287781Y-72106970D01*
X200289955Y-72176119D01*
X200289955Y-72205648D01*
X200289956Y-72205665D01*
X200290823Y-72212536D01*
X200291281Y-72218355D01*
X200292745Y-72264929D01*
X200292746Y-72264932D01*
X200298335Y-72284172D01*
X200302279Y-72303216D01*
X200304791Y-72323096D01*
X200321945Y-72366424D01*
X200323837Y-72371952D01*
X200336836Y-72416693D01*
X200347035Y-72433939D01*
X200355593Y-72451408D01*
X200362969Y-72470037D01*
X200390353Y-72507728D01*
X200393561Y-72512612D01*
X200417282Y-72552721D01*
X200417288Y-72552729D01*
X200431445Y-72566885D01*
X200444083Y-72581681D01*
X200455860Y-72597891D01*
X200455861Y-72597892D01*
X200491764Y-72627593D01*
X200496075Y-72631515D01*
X204377049Y-76512489D01*
X207726636Y-79862076D01*
X207760121Y-79923399D01*
X207762955Y-79949757D01*
X207762955Y-86378851D01*
X207743270Y-86445890D01*
X207726636Y-86466532D01*
X201843681Y-92349486D01*
X201782358Y-92382971D01*
X201756000Y-92385805D01*
X199643584Y-92385805D01*
X199643578Y-92385806D01*
X199583971Y-92392213D01*
X199449126Y-92442507D01*
X199449119Y-92442511D01*
X199333910Y-92528757D01*
X199333907Y-92528760D01*
X199247661Y-92643969D01*
X199247657Y-92643976D01*
X199197363Y-92778822D01*
X199190956Y-92838421D01*
X199190955Y-92838440D01*
X199190955Y-94934175D01*
X199190956Y-94934181D01*
X199197363Y-94993788D01*
X199247657Y-95128633D01*
X199247661Y-95128640D01*
X199333907Y-95243849D01*
X199333910Y-95243852D01*
X199449119Y-95330098D01*
X199449126Y-95330102D01*
X199583972Y-95380396D01*
X199583971Y-95380396D01*
X199590899Y-95381140D01*
X199643582Y-95386805D01*
X202739327Y-95386804D01*
X202798938Y-95380396D01*
X202933786Y-95330101D01*
X203049001Y-95243851D01*
X203135251Y-95128636D01*
X203148573Y-95092919D01*
X203190443Y-95036985D01*
X203255907Y-95012567D01*
X203324181Y-95027418D01*
X203373586Y-95076823D01*
X203388755Y-95136251D01*
X203388755Y-95938358D01*
X203369070Y-96005397D01*
X203316266Y-96051152D01*
X203247108Y-96061096D01*
X203183552Y-96032071D01*
X203148573Y-95981691D01*
X203135252Y-95945976D01*
X203135248Y-95945969D01*
X203049002Y-95830760D01*
X203048999Y-95830757D01*
X202933790Y-95744511D01*
X202933783Y-95744507D01*
X202798937Y-95694213D01*
X202798938Y-95694213D01*
X202739338Y-95687806D01*
X202739336Y-95687805D01*
X202739328Y-95687805D01*
X202739319Y-95687805D01*
X199643584Y-95687805D01*
X199643578Y-95687806D01*
X199583971Y-95694213D01*
X199449126Y-95744507D01*
X199449119Y-95744511D01*
X199333910Y-95830757D01*
X199333907Y-95830760D01*
X199247661Y-95945969D01*
X199247657Y-95945976D01*
X199197363Y-96080822D01*
X199190956Y-96140421D01*
X199190955Y-96140440D01*
X199190955Y-98236175D01*
X198717395Y-98236175D01*
X198726988Y-98225521D01*
X198821634Y-98061589D01*
X198880129Y-97881561D01*
X198899915Y-97693305D01*
X198880129Y-97505049D01*
X198821634Y-97325021D01*
X198776763Y-97247302D01*
X198760291Y-97179405D01*
X198776764Y-97123306D01*
X198821634Y-97045589D01*
X198880129Y-96865561D01*
X198899915Y-96677305D01*
X198880129Y-96489049D01*
X198821634Y-96309021D01*
X198726988Y-96145089D01*
X198600326Y-96004417D01*
X198600325Y-96004416D01*
X198447189Y-95893156D01*
X198447184Y-95893153D01*
X198274262Y-95816162D01*
X198274257Y-95816160D01*
X198128456Y-95785170D01*
X198089101Y-95776805D01*
X197899809Y-95776805D01*
X197867352Y-95783703D01*
X197714652Y-95816160D01*
X197714647Y-95816162D01*
X197541725Y-95893153D01*
X197541720Y-95893156D01*
X197388584Y-96004416D01*
X197388583Y-96004417D01*
X197324604Y-96075473D01*
X197265118Y-96112121D01*
X197195261Y-96110790D01*
X197140306Y-96075473D01*
X197076326Y-96004417D01*
X197076325Y-96004416D01*
X196923189Y-95893156D01*
X196923184Y-95893153D01*
X196750262Y-95816162D01*
X196750257Y-95816160D01*
X196604456Y-95785170D01*
X196565101Y-95776805D01*
X196375809Y-95776805D01*
X196343352Y-95783703D01*
X196190652Y-95816160D01*
X196190647Y-95816162D01*
X196017725Y-95893153D01*
X196017720Y-95893156D01*
X195864584Y-96004416D01*
X195737921Y-96145090D01*
X195643276Y-96309020D01*
X195643273Y-96309027D01*
X195584782Y-96489045D01*
X195584781Y-96489049D01*
X195564995Y-96677305D01*
X195584781Y-96865561D01*
X195584782Y-96865564D01*
X195643275Y-97045588D01*
X195688145Y-97123306D01*
X195704617Y-97191206D01*
X195688145Y-97247304D01*
X195643275Y-97325021D01*
X195584782Y-97505045D01*
X195584781Y-97505049D01*
X195564995Y-97693305D01*
X193666955Y-97693305D01*
X193666955Y-94557226D01*
X193686640Y-94490187D01*
X193739444Y-94444432D01*
X193808602Y-94434488D01*
X193872158Y-94463513D01*
X193883099Y-94474248D01*
X193897451Y-94490187D01*
X193959584Y-94559193D01*
X194112720Y-94670453D01*
X194112725Y-94670456D01*
X194285647Y-94747447D01*
X194285652Y-94747449D01*
X194470809Y-94786805D01*
X194470810Y-94786805D01*
X194660099Y-94786805D01*
X194660101Y-94786805D01*
X194845258Y-94747449D01*
X195018185Y-94670456D01*
X195171326Y-94559193D01*
X195297988Y-94418521D01*
X195335478Y-94353585D01*
X195386043Y-94305372D01*
X195454650Y-94292148D01*
X195519515Y-94318116D01*
X195560044Y-94375029D01*
X195566184Y-94402622D01*
X195584781Y-94579561D01*
X195584782Y-94579564D01*
X195643273Y-94759582D01*
X195643276Y-94759589D01*
X195737922Y-94923521D01*
X195800605Y-94993137D01*
X195864584Y-95064193D01*
X196017720Y-95175453D01*
X196017725Y-95175456D01*
X196190647Y-95252447D01*
X196190652Y-95252449D01*
X196375809Y-95291805D01*
X196375810Y-95291805D01*
X196565099Y-95291805D01*
X196565101Y-95291805D01*
X196750258Y-95252449D01*
X196923185Y-95175456D01*
X197076326Y-95064193D01*
X197140305Y-94993136D01*
X197199792Y-94956488D01*
X197269649Y-94957819D01*
X197324605Y-94993137D01*
X197388584Y-95064193D01*
X197541720Y-95175453D01*
X197541725Y-95175456D01*
X197714647Y-95252447D01*
X197714652Y-95252449D01*
X197899809Y-95291805D01*
X197899810Y-95291805D01*
X198089099Y-95291805D01*
X198089101Y-95291805D01*
X198274258Y-95252449D01*
X198447185Y-95175456D01*
X198600326Y-95064193D01*
X198726988Y-94923521D01*
X198821634Y-94759589D01*
X198880129Y-94579561D01*
X198899915Y-94391305D01*
X198880129Y-94203049D01*
X198821634Y-94023021D01*
X198776763Y-93945302D01*
X198760291Y-93877405D01*
X198776763Y-93821307D01*
X198821634Y-93743589D01*
X198880129Y-93563561D01*
X198899915Y-93375305D01*
X198880129Y-93187049D01*
X198821634Y-93007021D01*
X198726988Y-92843089D01*
X198600326Y-92702417D01*
X198600325Y-92702416D01*
X198447189Y-92591156D01*
X198447184Y-92591153D01*
X198274262Y-92514162D01*
X198274257Y-92514160D01*
X198124466Y-92482322D01*
X198089101Y-92474805D01*
X197899809Y-92474805D01*
X197867352Y-92481703D01*
X197714652Y-92514160D01*
X197714647Y-92514162D01*
X197541725Y-92591153D01*
X197541720Y-92591156D01*
X197388584Y-92702416D01*
X197388583Y-92702417D01*
X197324604Y-92773473D01*
X197265118Y-92810121D01*
X197195261Y-92808790D01*
X197140306Y-92773473D01*
X197076326Y-92702417D01*
X197076325Y-92702416D01*
X196923189Y-92591156D01*
X196923184Y-92591153D01*
X196750262Y-92514162D01*
X196750257Y-92514160D01*
X196600466Y-92482322D01*
X196565101Y-92474805D01*
X196375809Y-92474805D01*
X196343352Y-92481703D01*
X196190652Y-92514160D01*
X196190647Y-92514162D01*
X196017725Y-92591153D01*
X196017720Y-92591156D01*
X195864584Y-92702416D01*
X195737921Y-92843090D01*
X195643276Y-93007020D01*
X195643273Y-93007027D01*
X195593768Y-93159389D01*
X195584781Y-93187049D01*
X195573458Y-93294787D01*
X195565651Y-93369060D01*
X195539066Y-93433674D01*
X195481769Y-93473659D01*
X195411950Y-93476319D01*
X195351776Y-93440809D01*
X195334946Y-93418102D01*
X195297988Y-93354089D01*
X195171326Y-93213417D01*
X195171325Y-93213416D01*
X195018189Y-93102156D01*
X195018184Y-93102153D01*
X194845262Y-93025162D01*
X194845257Y-93025160D01*
X194699456Y-92994170D01*
X194660101Y-92985805D01*
X194470809Y-92985805D01*
X194438352Y-92992703D01*
X194285652Y-93025160D01*
X194285647Y-93025162D01*
X194112725Y-93102153D01*
X194112720Y-93102156D01*
X193959584Y-93213416D01*
X193883105Y-93298355D01*
X193823618Y-93335004D01*
X193753761Y-93333673D01*
X193695713Y-93294787D01*
X193667903Y-93230690D01*
X193666955Y-93215383D01*
X193666955Y-91780757D01*
X193686640Y-91713718D01*
X193703274Y-91693076D01*
X194005227Y-91391124D01*
X194066550Y-91357639D01*
X194092908Y-91354805D01*
X194152099Y-91354805D01*
X194152101Y-91354805D01*
X194337258Y-91315449D01*
X194510185Y-91238456D01*
X194663326Y-91127193D01*
X194789988Y-90986521D01*
X194884634Y-90822589D01*
X194943129Y-90642561D01*
X194962915Y-90454305D01*
X194943129Y-90266049D01*
X194884634Y-90086021D01*
X194789988Y-89922089D01*
X194663326Y-89781417D01*
X194627740Y-89755562D01*
X194510189Y-89670156D01*
X194510184Y-89670153D01*
X194337262Y-89593162D01*
X194337257Y-89593160D01*
X194191456Y-89562170D01*
X194152101Y-89553805D01*
X193962809Y-89553805D01*
X193930352Y-89560703D01*
X193777652Y-89593160D01*
X193777647Y-89593162D01*
X193604725Y-89670153D01*
X193604720Y-89670156D01*
X193451584Y-89781416D01*
X193324921Y-89922090D01*
X193230276Y-90086020D01*
X193230273Y-90086027D01*
X193171782Y-90266045D01*
X193171781Y-90266049D01*
X193164826Y-90332223D01*
X193154134Y-90433954D01*
X193127549Y-90498568D01*
X193118494Y-90508673D01*
X192657663Y-90969504D01*
X192645406Y-90979325D01*
X192645589Y-90979546D01*
X192639578Y-90984518D01*
X192592227Y-91034941D01*
X192571344Y-91055824D01*
X192571332Y-91055837D01*
X192567076Y-91061322D01*
X192563292Y-91065752D01*
X192531392Y-91099723D01*
X192531391Y-91099725D01*
X192521739Y-91117281D01*
X192511065Y-91133531D01*
X192498784Y-91149366D01*
X192498779Y-91149373D01*
X192480270Y-91192143D01*
X192477700Y-91197389D01*
X192455258Y-91238211D01*
X192450277Y-91257612D01*
X192443976Y-91276015D01*
X192436017Y-91294407D01*
X192436016Y-91294410D01*
X192428726Y-91340432D01*
X192427542Y-91346151D01*
X192415956Y-91391277D01*
X192415955Y-91391287D01*
X192415955Y-91411321D01*
X192414428Y-91430720D01*
X192411295Y-91450499D01*
X192411295Y-91450500D01*
X192415680Y-91496888D01*
X192415955Y-91502726D01*
X192415955Y-99610805D01*
X192396270Y-99677844D01*
X192343466Y-99723599D01*
X192291955Y-99734805D01*
X169502193Y-99734805D01*
X169486576Y-99733081D01*
X169486549Y-99733367D01*
X169478787Y-99732632D01*
X169409659Y-99734805D01*
X169380105Y-99734805D01*
X169379384Y-99734895D01*
X169373212Y-99735674D01*
X169367400Y-99736131D01*
X169320828Y-99737595D01*
X169320827Y-99737595D01*
X169301584Y-99743186D01*
X169282534Y-99747130D01*
X169262666Y-99749639D01*
X169219339Y-99766793D01*
X169213813Y-99768684D01*
X169169069Y-99781684D01*
X169169065Y-99781686D01*
X169151821Y-99791884D01*
X169134360Y-99800438D01*
X169115729Y-99807815D01*
X169115717Y-99807822D01*
X169078025Y-99835207D01*
X169073142Y-99838414D01*
X169033035Y-99862134D01*
X169018869Y-99876300D01*
X169004079Y-99888932D01*
X168987869Y-99900709D01*
X168987866Y-99900712D01*
X168958165Y-99936614D01*
X168954232Y-99940936D01*
X166731663Y-102163504D01*
X166719406Y-102173325D01*
X166719589Y-102173546D01*
X166713578Y-102178518D01*
X166666227Y-102228941D01*
X166645344Y-102249824D01*
X166645332Y-102249837D01*
X166641076Y-102255322D01*
X166637292Y-102259752D01*
X166605392Y-102293723D01*
X166605391Y-102293725D01*
X166595739Y-102311281D01*
X166585065Y-102327531D01*
X166572784Y-102343366D01*
X166572779Y-102343373D01*
X166554270Y-102386143D01*
X166551700Y-102391389D01*
X166529258Y-102432211D01*
X166524277Y-102451612D01*
X166517976Y-102470015D01*
X166510017Y-102488407D01*
X166510016Y-102488410D01*
X166502726Y-102534432D01*
X166501542Y-102540151D01*
X166489956Y-102585277D01*
X166489955Y-102585287D01*
X166489955Y-102605321D01*
X166488428Y-102624720D01*
X166485295Y-102644499D01*
X166485295Y-102644500D01*
X166489680Y-102690888D01*
X166489955Y-102696726D01*
X166489955Y-103208667D01*
X166470270Y-103275706D01*
X166431053Y-103314204D01*
X166362743Y-103356338D01*
X166321797Y-103381594D01*
X166197744Y-103505647D01*
X166105642Y-103654968D01*
X166105641Y-103654971D01*
X166050456Y-103821508D01*
X166050456Y-103821509D01*
X166050455Y-103821509D01*
X166039955Y-103924288D01*
X166039955Y-104924306D01*
X166039956Y-104924324D01*
X166050455Y-105027101D01*
X166050456Y-105027104D01*
X166054168Y-105038305D01*
X166105641Y-105193639D01*
X166197743Y-105342961D01*
X166321799Y-105467017D01*
X166471121Y-105559119D01*
X166637658Y-105614304D01*
X166740446Y-105624805D01*
X167490463Y-105624804D01*
X167490471Y-105624803D01*
X167490474Y-105624803D01*
X167546757Y-105619053D01*
X167593252Y-105614304D01*
X167759789Y-105559119D01*
X167909111Y-105467017D01*
X168033167Y-105342961D01*
X168034916Y-105340124D01*
X168036624Y-105338588D01*
X168037648Y-105337294D01*
X168037869Y-105337468D01*
X168086861Y-105293401D01*
X168155823Y-105282177D01*
X168219906Y-105310018D01*
X168245992Y-105340122D01*
X168247743Y-105342961D01*
X168371799Y-105467017D01*
X168521121Y-105559119D01*
X168687658Y-105614304D01*
X168790446Y-105624805D01*
X169540463Y-105624804D01*
X169540471Y-105624803D01*
X169540474Y-105624803D01*
X169596757Y-105619053D01*
X169643252Y-105614304D01*
X169809789Y-105559119D01*
X169959111Y-105467017D01*
X170083167Y-105342961D01*
X170119714Y-105283707D01*
X170171662Y-105236984D01*
X170225253Y-105224805D01*
X170513773Y-105224805D01*
X170578870Y-105243266D01*
X170581103Y-105244643D01*
X170581105Y-105244645D01*
X170727939Y-105335213D01*
X170891702Y-105389479D01*
X170992778Y-105399805D01*
X171591131Y-105399804D01*
X171591139Y-105399803D01*
X171591142Y-105399803D01*
X171646485Y-105394149D01*
X171692208Y-105389479D01*
X171855971Y-105335213D01*
X172002805Y-105244645D01*
X172117130Y-105130319D01*
X172178449Y-105096837D01*
X172248141Y-105101821D01*
X172292489Y-105130322D01*
X172406416Y-105244249D01*
X172406420Y-105244252D01*
X172553143Y-105334753D01*
X172553154Y-105334758D01*
X172716802Y-105388985D01*
X172817806Y-105399304D01*
X172866954Y-105399303D01*
X172866955Y-105399303D01*
X172866955Y-104674305D01*
X173366955Y-104674305D01*
X173366955Y-105399304D01*
X173416095Y-105399304D01*
X173416109Y-105399303D01*
X173517107Y-105388985D01*
X173680755Y-105334758D01*
X173680766Y-105334753D01*
X173827489Y-105244252D01*
X173827493Y-105244249D01*
X173949399Y-105122343D01*
X173949402Y-105122339D01*
X174039903Y-104975616D01*
X174039908Y-104975605D01*
X174094135Y-104811957D01*
X174104454Y-104710959D01*
X174104455Y-104710946D01*
X174104455Y-104674305D01*
X173366955Y-104674305D01*
X172866955Y-104674305D01*
X172866955Y-103449305D01*
X173366955Y-103449305D01*
X173366955Y-104174305D01*
X174104454Y-104174305D01*
X174104454Y-104137665D01*
X174104453Y-104137650D01*
X174094135Y-104036652D01*
X174039908Y-103873004D01*
X174039903Y-103872993D01*
X173949402Y-103726270D01*
X173949399Y-103726266D01*
X173827493Y-103604360D01*
X173827489Y-103604357D01*
X173680766Y-103513856D01*
X173680755Y-103513851D01*
X173517107Y-103459624D01*
X173416109Y-103449305D01*
X173366955Y-103449305D01*
X172866955Y-103449305D01*
X172866954Y-103449304D01*
X172817816Y-103449305D01*
X172817798Y-103449306D01*
X172716802Y-103459624D01*
X172553154Y-103513851D01*
X172553143Y-103513856D01*
X172406420Y-103604357D01*
X172292489Y-103718288D01*
X172231166Y-103751772D01*
X172161474Y-103746788D01*
X172117127Y-103718287D01*
X172002806Y-103603966D01*
X172002805Y-103603965D01*
X171911584Y-103547700D01*
X171855973Y-103513398D01*
X171855968Y-103513396D01*
X171832583Y-103505647D01*
X171692208Y-103459131D01*
X171692206Y-103459130D01*
X171591133Y-103448805D01*
X170992785Y-103448805D01*
X170992767Y-103448806D01*
X170891702Y-103459130D01*
X170727939Y-103513397D01*
X170727936Y-103513398D01*
X170660149Y-103555210D01*
X170581105Y-103603965D01*
X170581103Y-103603966D01*
X170578870Y-103605344D01*
X170513773Y-103623805D01*
X170225253Y-103623805D01*
X170158214Y-103604120D01*
X170119714Y-103564902D01*
X170103483Y-103538587D01*
X170083167Y-103505649D01*
X169959111Y-103381593D01*
X169809789Y-103289491D01*
X169643252Y-103234306D01*
X169643250Y-103234305D01*
X169540465Y-103223805D01*
X168790453Y-103223805D01*
X168790435Y-103223806D01*
X168687658Y-103234305D01*
X168687655Y-103234306D01*
X168521123Y-103289490D01*
X168521118Y-103289492D01*
X168371797Y-103381594D01*
X168247740Y-103505651D01*
X168245992Y-103508487D01*
X168244284Y-103510022D01*
X168243262Y-103511316D01*
X168243040Y-103511141D01*
X168194044Y-103555210D01*
X168125081Y-103566431D01*
X168060999Y-103538587D01*
X168034918Y-103508487D01*
X168033169Y-103505651D01*
X167909112Y-103381594D01*
X167909111Y-103381593D01*
X167799857Y-103314205D01*
X167753134Y-103262258D01*
X167740955Y-103208667D01*
X167740955Y-102974757D01*
X167760640Y-102907718D01*
X167777274Y-102887076D01*
X169642227Y-101022124D01*
X169703550Y-100988639D01*
X169729908Y-100985805D01*
X191232003Y-100985805D01*
X191299042Y-101005490D01*
X191344797Y-101058294D01*
X191354741Y-101127452D01*
X191325716Y-101191008D01*
X191319684Y-101197486D01*
X157342663Y-135174504D01*
X157330406Y-135184325D01*
X157330589Y-135184546D01*
X157324578Y-135189518D01*
X157277227Y-135239941D01*
X157256344Y-135260824D01*
X157256332Y-135260837D01*
X157252076Y-135266322D01*
X157248292Y-135270752D01*
X157216392Y-135304723D01*
X157216391Y-135304725D01*
X157206739Y-135322281D01*
X157196065Y-135338531D01*
X157183784Y-135354366D01*
X157183779Y-135354373D01*
X157165270Y-135397143D01*
X157162700Y-135402389D01*
X157140258Y-135443211D01*
X157135277Y-135462612D01*
X157128976Y-135481015D01*
X157121017Y-135499407D01*
X157121016Y-135499410D01*
X157113726Y-135545432D01*
X157112542Y-135551151D01*
X157100956Y-135596277D01*
X157100955Y-135596287D01*
X157100955Y-135616321D01*
X157099428Y-135635720D01*
X157096295Y-135655499D01*
X157096295Y-135655500D01*
X157100680Y-135701888D01*
X157100955Y-135707726D01*
X157100955Y-136482667D01*
X157081270Y-136549706D01*
X157042053Y-136588204D01*
X156973743Y-136630338D01*
X156932797Y-136655594D01*
X156808744Y-136779647D01*
X156716642Y-136928968D01*
X156716641Y-136928971D01*
X156661456Y-137095508D01*
X156661456Y-137095509D01*
X156661455Y-137095509D01*
X156650955Y-137198288D01*
X156650955Y-138198306D01*
X152349178Y-138198306D01*
X179190119Y-107778573D01*
X179191918Y-107776657D01*
X179192051Y-107776303D01*
X179192049Y-107776213D01*
X179191896Y-107775873D01*
X179191882Y-107775861D01*
X179191514Y-107775722D01*
X179188851Y-107775805D01*
X159474473Y-107775805D01*
X159407434Y-107756120D01*
X159361679Y-107703316D01*
X159351735Y-107634158D01*
X159380760Y-107570602D01*
X159383066Y-107568015D01*
X161427734Y-105337468D01*
X186689368Y-77779319D01*
X186691755Y-77777011D01*
X186691998Y-77776385D01*
X186691994Y-77776205D01*
X186691993Y-77776194D01*
X186691899Y-77775980D01*
X186691873Y-77775956D01*
X186691827Y-77775909D01*
X186691649Y-77775844D01*
X186691428Y-77775753D01*
X186689125Y-77775805D01*
X174429898Y-77775805D01*
X174362859Y-77756120D01*
X174317104Y-77703316D01*
X174307160Y-77634158D01*
X174328148Y-77580933D01*
X176866747Y-73936306D01*
X179501955Y-73936306D01*
X179501956Y-73936324D01*
X179512455Y-74039101D01*
X179512456Y-74039104D01*
X179535564Y-74108837D01*
X179567641Y-74205639D01*
X179659743Y-74354961D01*
X179783799Y-74479017D01*
X179893052Y-74546404D01*
X179939776Y-74598352D01*
X179951955Y-74651943D01*
X179951955Y-75113560D01*
X179950230Y-75129177D01*
X179950516Y-75129204D01*
X179949781Y-75136970D01*
X179951955Y-75206119D01*
X179951955Y-75235648D01*
X179951956Y-75235665D01*
X179952823Y-75242536D01*
X179953281Y-75248355D01*
X179954745Y-75294929D01*
X179954746Y-75294932D01*
X179960335Y-75314172D01*
X179964279Y-75333216D01*
X179966791Y-75353096D01*
X179983945Y-75396424D01*
X179985837Y-75401952D01*
X179998836Y-75446693D01*
X180009035Y-75463939D01*
X180017591Y-75481405D01*
X180024969Y-75500037D01*
X180041846Y-75523267D01*
X180052353Y-75537728D01*
X180055561Y-75542612D01*
X180079282Y-75582721D01*
X180079288Y-75582729D01*
X180093445Y-75596885D01*
X180106082Y-75611680D01*
X180117861Y-75627892D01*
X180149819Y-75654330D01*
X180153764Y-75657593D01*
X180158075Y-75661515D01*
X181009049Y-76512489D01*
X181018874Y-76524753D01*
X181019095Y-76524571D01*
X181024065Y-76530578D01*
X181024068Y-76530581D01*
X181024069Y-76530582D01*
X181074506Y-76577946D01*
X181095385Y-76598825D01*
X181100859Y-76603071D01*
X181105297Y-76606861D01*
X181139273Y-76638767D01*
X181139277Y-76638769D01*
X181156828Y-76648418D01*
X181173086Y-76659097D01*
X181188919Y-76671379D01*
X181210870Y-76680877D01*
X181231692Y-76689888D01*
X181236936Y-76692457D01*
X181277763Y-76714902D01*
X181297167Y-76719884D01*
X181315565Y-76726183D01*
X181333960Y-76734143D01*
X181379984Y-76741431D01*
X181385687Y-76742612D01*
X181430836Y-76754205D01*
X181450871Y-76754205D01*
X181470268Y-76755731D01*
X181490051Y-76758865D01*
X181536439Y-76754480D01*
X181542277Y-76754205D01*
X198115803Y-76754205D01*
X198182842Y-76773890D01*
X198203484Y-76790524D01*
X203075293Y-81662334D01*
X203108778Y-81723657D01*
X203110933Y-81737053D01*
X203119223Y-81815932D01*
X203128581Y-81904961D01*
X203128582Y-81904964D01*
X203187073Y-82084982D01*
X203187076Y-82084989D01*
X203281722Y-82248921D01*
X203408384Y-82389593D01*
X203561520Y-82500853D01*
X203561525Y-82500856D01*
X203734447Y-82577847D01*
X203734452Y-82577849D01*
X203919609Y-82617205D01*
X203919610Y-82617205D01*
X204108899Y-82617205D01*
X204108901Y-82617205D01*
X204294058Y-82577849D01*
X204466985Y-82500856D01*
X204620126Y-82389593D01*
X204746788Y-82248921D01*
X204841434Y-82084989D01*
X204899929Y-81904961D01*
X204919715Y-81716705D01*
X204899929Y-81528449D01*
X204841434Y-81348421D01*
X204746788Y-81184489D01*
X204620126Y-81043817D01*
X204620125Y-81043816D01*
X204466989Y-80932556D01*
X204466984Y-80932553D01*
X204294062Y-80855562D01*
X204294057Y-80855560D01*
X204148256Y-80824570D01*
X204108901Y-80816205D01*
X204108900Y-80816205D01*
X204049708Y-80816205D01*
X203982669Y-80796520D01*
X203962027Y-80779886D01*
X198927058Y-75744917D01*
X198917235Y-75732655D01*
X198917014Y-75732839D01*
X198912041Y-75726828D01*
X198861619Y-75679478D01*
X198851174Y-75669033D01*
X198840730Y-75658588D01*
X198835241Y-75654330D01*
X198830816Y-75650552D01*
X198796837Y-75618643D01*
X198796835Y-75618641D01*
X198796832Y-75618640D01*
X198779284Y-75608993D01*
X198763018Y-75598309D01*
X198747191Y-75586032D01*
X198747190Y-75586031D01*
X198747188Y-75586030D01*
X198704423Y-75567523D01*
X198699177Y-75564953D01*
X198658348Y-75542508D01*
X198658347Y-75542507D01*
X198638948Y-75537527D01*
X198620536Y-75531223D01*
X198602153Y-75523267D01*
X198602147Y-75523265D01*
X198556129Y-75515977D01*
X198550407Y-75514792D01*
X198505276Y-75503205D01*
X198505274Y-75503205D01*
X198485239Y-75503205D01*
X198465841Y-75501678D01*
X198458417Y-75500502D01*
X198446060Y-75498545D01*
X198446059Y-75498545D01*
X198399671Y-75502930D01*
X198393833Y-75503205D01*
X181820307Y-75503205D01*
X181753268Y-75483520D01*
X181732626Y-75466886D01*
X181239274Y-74973533D01*
X181205789Y-74912210D01*
X181202955Y-74885852D01*
X181202955Y-74651943D01*
X181222640Y-74584904D01*
X181261856Y-74546405D01*
X181371111Y-74479017D01*
X181495167Y-74354961D01*
X181496916Y-74352124D01*
X181498624Y-74350588D01*
X181499648Y-74349294D01*
X181499869Y-74349468D01*
X181548861Y-74305401D01*
X181617823Y-74294177D01*
X181681906Y-74322018D01*
X181707992Y-74352122D01*
X181709743Y-74354961D01*
X181833799Y-74479017D01*
X181983121Y-74571119D01*
X182149658Y-74626304D01*
X182252446Y-74636805D01*
X183002463Y-74636804D01*
X183002471Y-74636803D01*
X183002474Y-74636803D01*
X183058757Y-74631053D01*
X183105252Y-74626304D01*
X183271789Y-74571119D01*
X183421111Y-74479017D01*
X183545167Y-74354961D01*
X183581714Y-74295707D01*
X183633662Y-74248984D01*
X183687253Y-74236805D01*
X183984773Y-74236805D01*
X184049870Y-74255266D01*
X184052103Y-74256643D01*
X184052105Y-74256645D01*
X184198939Y-74347213D01*
X184362702Y-74401479D01*
X184463778Y-74411805D01*
X185062131Y-74411804D01*
X185062139Y-74411803D01*
X185062142Y-74411803D01*
X185117485Y-74406149D01*
X185163208Y-74401479D01*
X185326971Y-74347213D01*
X185473805Y-74256645D01*
X185588130Y-74142319D01*
X185649449Y-74108837D01*
X185719141Y-74113821D01*
X185763489Y-74142322D01*
X185877416Y-74256249D01*
X185877420Y-74256252D01*
X186024143Y-74346753D01*
X186024154Y-74346758D01*
X186187802Y-74400985D01*
X186288806Y-74411304D01*
X186337954Y-74411303D01*
X186337955Y-74411303D01*
X186337955Y-73686305D01*
X186837955Y-73686305D01*
X186837955Y-74411304D01*
X186887095Y-74411304D01*
X186887109Y-74411303D01*
X186988107Y-74400985D01*
X187151755Y-74346758D01*
X187151766Y-74346753D01*
X187298489Y-74256252D01*
X187298493Y-74256249D01*
X187420399Y-74134343D01*
X187420402Y-74134339D01*
X187510903Y-73987616D01*
X187510908Y-73987605D01*
X187565135Y-73823957D01*
X187575454Y-73722959D01*
X187575455Y-73722946D01*
X187575455Y-73686305D01*
X186837955Y-73686305D01*
X186337955Y-73686305D01*
X186337955Y-72461305D01*
X186837955Y-72461305D01*
X186837955Y-73186305D01*
X187575454Y-73186305D01*
X187575454Y-73149665D01*
X187575453Y-73149650D01*
X187565135Y-73048652D01*
X187510908Y-72885004D01*
X187510903Y-72884993D01*
X187420402Y-72738270D01*
X187420399Y-72738266D01*
X187298493Y-72616360D01*
X187298489Y-72616357D01*
X187151766Y-72525856D01*
X187151755Y-72525851D01*
X186988107Y-72471624D01*
X186887109Y-72461305D01*
X186837955Y-72461305D01*
X186337955Y-72461305D01*
X186337954Y-72461304D01*
X186288816Y-72461305D01*
X186288798Y-72461306D01*
X186187802Y-72471624D01*
X186024154Y-72525851D01*
X186024143Y-72525856D01*
X185877420Y-72616357D01*
X185763489Y-72730288D01*
X185702166Y-72763772D01*
X185632474Y-72758788D01*
X185588127Y-72730287D01*
X185473806Y-72615966D01*
X185473805Y-72615965D01*
X185371270Y-72552721D01*
X185326973Y-72525398D01*
X185326968Y-72525396D01*
X185303583Y-72517647D01*
X185163208Y-72471131D01*
X185163206Y-72471130D01*
X185062133Y-72460805D01*
X184463785Y-72460805D01*
X184463767Y-72460806D01*
X184362702Y-72471130D01*
X184198939Y-72525397D01*
X184198936Y-72525398D01*
X184131676Y-72566885D01*
X184052105Y-72615965D01*
X184052103Y-72615966D01*
X184049870Y-72617344D01*
X183984773Y-72635805D01*
X183687253Y-72635805D01*
X183620214Y-72616120D01*
X183581714Y-72576902D01*
X183575736Y-72567210D01*
X183545167Y-72517649D01*
X183421111Y-72393593D01*
X183306818Y-72323097D01*
X183271791Y-72301492D01*
X183271786Y-72301490D01*
X183247788Y-72293538D01*
X183105252Y-72246306D01*
X183105250Y-72246305D01*
X183002465Y-72235805D01*
X182252453Y-72235805D01*
X182252435Y-72235806D01*
X182149658Y-72246305D01*
X182149655Y-72246306D01*
X181983123Y-72301490D01*
X181983118Y-72301492D01*
X181833797Y-72393594D01*
X181709740Y-72517651D01*
X181707992Y-72520487D01*
X181706284Y-72522022D01*
X181705262Y-72523316D01*
X181705040Y-72523141D01*
X181656044Y-72567210D01*
X181587081Y-72578431D01*
X181522999Y-72550587D01*
X181496918Y-72520487D01*
X181495169Y-72517651D01*
X181371112Y-72393594D01*
X181371111Y-72393593D01*
X181256818Y-72323097D01*
X181221791Y-72301492D01*
X181221786Y-72301490D01*
X181197788Y-72293538D01*
X181055252Y-72246306D01*
X181055250Y-72246305D01*
X180952465Y-72235805D01*
X180202453Y-72235805D01*
X180202435Y-72235806D01*
X180099658Y-72246305D01*
X180099655Y-72246306D01*
X179933123Y-72301490D01*
X179933118Y-72301492D01*
X179783797Y-72393594D01*
X179659744Y-72517647D01*
X179567642Y-72666968D01*
X179567641Y-72666971D01*
X179512456Y-72833508D01*
X179512456Y-72833509D01*
X179512455Y-72833509D01*
X179501955Y-72936288D01*
X179501955Y-73936306D01*
X176866747Y-73936306D01*
X193730477Y-49725306D01*
X196739955Y-49725306D01*
X196739956Y-49725323D01*
X196750455Y-49828101D01*
X196750456Y-49828104D01*
X196805640Y-49994636D01*
X196805641Y-49994639D01*
X196897743Y-50143961D01*
X197021799Y-50268017D01*
X197171121Y-50360119D01*
X197337658Y-50415304D01*
X197440446Y-50425805D01*
X198040463Y-50425804D01*
X198040471Y-50425803D01*
X198040474Y-50425803D01*
X198096757Y-50420053D01*
X198143252Y-50415304D01*
X198309789Y-50360119D01*
X198459111Y-50268017D01*
X198583167Y-50143961D01*
X198675269Y-49994639D01*
X198730454Y-49828102D01*
X198740955Y-49725314D01*
X198740955Y-49725306D01*
X199660955Y-49725306D01*
X199660956Y-49725323D01*
X199671455Y-49828101D01*
X199671456Y-49828104D01*
X199726640Y-49994636D01*
X199726641Y-49994639D01*
X199818743Y-50143961D01*
X199942799Y-50268017D01*
X200092121Y-50360119D01*
X200258658Y-50415304D01*
X200361446Y-50425805D01*
X200961463Y-50425804D01*
X200961471Y-50425803D01*
X200961474Y-50425803D01*
X201017757Y-50420053D01*
X201064252Y-50415304D01*
X201230789Y-50360119D01*
X201380111Y-50268017D01*
X201504167Y-50143961D01*
X201596269Y-49994639D01*
X201651454Y-49828102D01*
X201661955Y-49725314D01*
X201661954Y-48125297D01*
X201651454Y-48022508D01*
X201596269Y-47855971D01*
X201504167Y-47706649D01*
X201380111Y-47582593D01*
X201230789Y-47490491D01*
X201064252Y-47435306D01*
X201064250Y-47435305D01*
X200961465Y-47424805D01*
X200361453Y-47424805D01*
X200361435Y-47424806D01*
X200258658Y-47435305D01*
X200258655Y-47435306D01*
X200092123Y-47490490D01*
X200092118Y-47490492D01*
X199942797Y-47582594D01*
X199818744Y-47706647D01*
X199726642Y-47855968D01*
X199726641Y-47855971D01*
X199671456Y-48022508D01*
X199671456Y-48022509D01*
X199671455Y-48022509D01*
X199660955Y-48125288D01*
X199660955Y-49725306D01*
X198740955Y-49725306D01*
X198740954Y-48125297D01*
X198730454Y-48022508D01*
X198675269Y-47855971D01*
X198583167Y-47706649D01*
X198459111Y-47582593D01*
X198309789Y-47490491D01*
X198143252Y-47435306D01*
X198143250Y-47435305D01*
X198040465Y-47424805D01*
X197440453Y-47424805D01*
X197440435Y-47424806D01*
X197337658Y-47435305D01*
X197337655Y-47435306D01*
X197171123Y-47490490D01*
X197171118Y-47490492D01*
X197021797Y-47582594D01*
X196897744Y-47706647D01*
X196805642Y-47855968D01*
X196805641Y-47855971D01*
X196750456Y-48022508D01*
X196750456Y-48022509D01*
X196750455Y-48022509D01*
X196739955Y-48125288D01*
X196739955Y-49725306D01*
X193730477Y-49725306D01*
X198254711Y-43229933D01*
X198309180Y-43186173D01*
X198356461Y-43176805D01*
X200026448Y-43176805D01*
X200093487Y-43196490D01*
G37*
G04 #@! TD.AperFunction*
M02*
