%TF.GenerationSoftware,KiCad,Pcbnew,7.0.8*%
%TF.CreationDate,2024-06-18T20:25:42+02:00*%
%TF.ProjectId,PCB_Christmas_Tree,5043425f-4368-4726-9973-746d61735f54,rev?*%
%TF.SameCoordinates,Original*%
%TF.FileFunction,Drillmap*%
%TF.FilePolarity,Positive*%
%FSLAX45Y45*%
G04 Gerber Fmt 4.5, Leading zero omitted, Abs format (unit mm)*
G04 Created by KiCad (PCBNEW 7.0.8) date 2024-06-18 20:25:42*
%MOMM*%
%LPD*%
G01*
G04 APERTURE LIST*
%ADD10C,0.100000*%
%ADD11C,0.200000*%
G04 APERTURE END LIST*
D10*
X20719146Y-10977631D02*
X19583546Y-10977631D01*
X21169146Y-7777630D02*
X22419145Y-7777630D01*
X19829146Y-4317631D02*
X17419146Y-7777630D01*
X20009146Y-4317631D02*
X19829146Y-4317631D01*
X20009146Y-4317631D02*
X22419145Y-7777630D01*
X20719146Y-14177630D02*
X20719146Y-10977631D01*
X21919146Y-10777631D02*
X24919145Y-14177630D01*
X20719146Y-14177630D02*
X24919145Y-14177630D01*
X14919145Y-14177630D02*
X19583546Y-14176230D01*
X19583546Y-10977631D02*
X19583546Y-14176230D01*
X23919145Y-10777631D02*
X21919146Y-10777631D01*
X17919146Y-10777631D02*
X14919145Y-14177630D01*
X17419146Y-7777630D02*
X18669146Y-7777630D01*
X21169146Y-7777630D02*
X23919145Y-10777631D01*
X18669146Y-7777630D02*
X15919145Y-10777631D01*
X17919146Y-10777631D02*
X15919145Y-10777631D01*
D11*
X15174922Y-14494114D02*
X15174922Y-14294114D01*
X15174922Y-14294114D02*
X15222541Y-14294114D01*
X15222541Y-14294114D02*
X15251113Y-14303638D01*
X15251113Y-14303638D02*
X15270160Y-14322686D01*
X15270160Y-14322686D02*
X15279684Y-14341733D01*
X15279684Y-14341733D02*
X15289208Y-14379828D01*
X15289208Y-14379828D02*
X15289208Y-14408400D01*
X15289208Y-14408400D02*
X15279684Y-14446495D01*
X15279684Y-14446495D02*
X15270160Y-14465543D01*
X15270160Y-14465543D02*
X15251113Y-14484590D01*
X15251113Y-14484590D02*
X15222541Y-14494114D01*
X15222541Y-14494114D02*
X15174922Y-14494114D01*
X15374922Y-14494114D02*
X15374922Y-14360781D01*
X15374922Y-14398876D02*
X15384446Y-14379828D01*
X15384446Y-14379828D02*
X15393970Y-14370305D01*
X15393970Y-14370305D02*
X15413017Y-14360781D01*
X15413017Y-14360781D02*
X15432065Y-14360781D01*
X15498732Y-14494114D02*
X15498732Y-14360781D01*
X15498732Y-14294114D02*
X15489208Y-14303638D01*
X15489208Y-14303638D02*
X15498732Y-14313162D01*
X15498732Y-14313162D02*
X15508256Y-14303638D01*
X15508256Y-14303638D02*
X15498732Y-14294114D01*
X15498732Y-14294114D02*
X15498732Y-14313162D01*
X15622541Y-14494114D02*
X15603494Y-14484590D01*
X15603494Y-14484590D02*
X15593970Y-14465543D01*
X15593970Y-14465543D02*
X15593970Y-14294114D01*
X15727303Y-14494114D02*
X15708256Y-14484590D01*
X15708256Y-14484590D02*
X15698732Y-14465543D01*
X15698732Y-14465543D02*
X15698732Y-14294114D01*
X15955875Y-14494114D02*
X15955875Y-14294114D01*
X15955875Y-14294114D02*
X16022541Y-14436971D01*
X16022541Y-14436971D02*
X16089208Y-14294114D01*
X16089208Y-14294114D02*
X16089208Y-14494114D01*
X16270160Y-14494114D02*
X16270160Y-14389352D01*
X16270160Y-14389352D02*
X16260637Y-14370305D01*
X16260637Y-14370305D02*
X16241589Y-14360781D01*
X16241589Y-14360781D02*
X16203494Y-14360781D01*
X16203494Y-14360781D02*
X16184446Y-14370305D01*
X16270160Y-14484590D02*
X16251113Y-14494114D01*
X16251113Y-14494114D02*
X16203494Y-14494114D01*
X16203494Y-14494114D02*
X16184446Y-14484590D01*
X16184446Y-14484590D02*
X16174922Y-14465543D01*
X16174922Y-14465543D02*
X16174922Y-14446495D01*
X16174922Y-14446495D02*
X16184446Y-14427448D01*
X16184446Y-14427448D02*
X16203494Y-14417924D01*
X16203494Y-14417924D02*
X16251113Y-14417924D01*
X16251113Y-14417924D02*
X16270160Y-14408400D01*
X16365398Y-14360781D02*
X16365398Y-14560781D01*
X16365398Y-14370305D02*
X16384446Y-14360781D01*
X16384446Y-14360781D02*
X16422541Y-14360781D01*
X16422541Y-14360781D02*
X16441589Y-14370305D01*
X16441589Y-14370305D02*
X16451113Y-14379828D01*
X16451113Y-14379828D02*
X16460637Y-14398876D01*
X16460637Y-14398876D02*
X16460637Y-14456019D01*
X16460637Y-14456019D02*
X16451113Y-14475067D01*
X16451113Y-14475067D02*
X16441589Y-14484590D01*
X16441589Y-14484590D02*
X16422541Y-14494114D01*
X16422541Y-14494114D02*
X16384446Y-14494114D01*
X16384446Y-14494114D02*
X16365398Y-14484590D01*
X16546351Y-14475067D02*
X16555875Y-14484590D01*
X16555875Y-14484590D02*
X16546351Y-14494114D01*
X16546351Y-14494114D02*
X16536827Y-14484590D01*
X16536827Y-14484590D02*
X16546351Y-14475067D01*
X16546351Y-14475067D02*
X16546351Y-14494114D01*
X16546351Y-14370305D02*
X16555875Y-14379828D01*
X16555875Y-14379828D02*
X16546351Y-14389352D01*
X16546351Y-14389352D02*
X16536827Y-14379828D01*
X16536827Y-14379828D02*
X16546351Y-14370305D01*
X16546351Y-14370305D02*
X16546351Y-14389352D01*
M02*
