%TF.GenerationSoftware,KiCad,Pcbnew,7.0.8*%
%TF.CreationDate,2024-03-10T12:53:15+01:00*%
%TF.ProjectId,PCB_Christmas_Tree,5043425f-4368-4726-9973-746d61735f54,rev?*%
%TF.SameCoordinates,Original*%
%TF.FileFunction,Legend,Bot*%
%TF.FilePolarity,Positive*%
%FSLAX46Y46*%
G04 Gerber Fmt 4.6, Leading zero omitted, Abs format (unit mm)*
G04 Created by KiCad (PCBNEW 7.0.8) date 2024-03-10 12:53:15*
%MOMM*%
%LPD*%
G01*
G04 APERTURE LIST*
G04 Aperture macros list*
%AMRoundRect*
0 Rectangle with rounded corners*
0 $1 Rounding radius*
0 $2 $3 $4 $5 $6 $7 $8 $9 X,Y pos of 4 corners*
0 Add a 4 corners polygon primitive as box body*
4,1,4,$2,$3,$4,$5,$6,$7,$8,$9,$2,$3,0*
0 Add four circle primitives for the rounded corners*
1,1,$1+$1,$2,$3*
1,1,$1+$1,$4,$5*
1,1,$1+$1,$6,$7*
1,1,$1+$1,$8,$9*
0 Add four rect primitives between the rounded corners*
20,1,$1+$1,$2,$3,$4,$5,0*
20,1,$1+$1,$4,$5,$6,$7,0*
20,1,$1+$1,$6,$7,$8,$9,0*
20,1,$1+$1,$8,$9,$2,$3,0*%
G04 Aperture macros list end*
%ADD10C,0.400000*%
%ADD11C,2.000000*%
%ADD12C,0.150000*%
%ADD13C,0.100000*%
%ADD14C,0.120000*%
%ADD15C,3.000000*%
%ADD16RoundRect,0.237500X0.250000X0.237500X-0.250000X0.237500X-0.250000X-0.237500X0.250000X-0.237500X0*%
%ADD17RoundRect,0.250000X-0.325000X-0.450000X0.325000X-0.450000X0.325000X0.450000X-0.325000X0.450000X0*%
%ADD18RoundRect,0.237500X-0.250000X-0.237500X0.250000X-0.237500X0.250000X0.237500X-0.250000X0.237500X0*%
%ADD19R,0.450000X1.500000*%
%ADD20RoundRect,0.250000X0.450000X-0.325000X0.450000X0.325000X-0.450000X0.325000X-0.450000X-0.325000X0*%
%ADD21R,1.500000X0.450000*%
%ADD22RoundRect,0.150000X0.587500X0.150000X-0.587500X0.150000X-0.587500X-0.150000X0.587500X-0.150000X0*%
%ADD23R,3.000000X2.000000*%
%ADD24R,1.700000X1.700000*%
%ADD25O,1.700000X1.700000*%
%ADD26RoundRect,0.150000X0.150000X-0.825000X0.150000X0.825000X-0.150000X0.825000X-0.150000X-0.825000X0*%
G04 APERTURE END LIST*
D10*
X122500000Y-133570000D02*
X120990000Y-134700000D01*
X113660000Y-89740000D02*
X112090000Y-89730000D01*
X102210000Y-59780000D02*
X103680000Y-60860000D01*
X70630000Y-129320000D02*
X71830000Y-128430000D01*
X111640000Y-88470000D02*
X112090000Y-89730000D01*
D11*
X76010000Y-107720000D02*
X46010000Y-141720000D01*
D10*
X54310000Y-136360000D02*
X55560000Y-137250000D01*
D11*
X146010000Y-141720000D02*
X46010000Y-141720000D01*
D10*
X112460000Y-90630000D02*
X113080000Y-92370000D01*
X81600000Y-72730000D02*
X82220000Y-74470000D01*
X83380000Y-117120000D02*
X84580000Y-116230000D01*
X114440000Y-118950000D02*
X112930000Y-120080000D01*
X68400000Y-101100000D02*
X67940000Y-102360000D01*
X102240000Y-56960000D02*
X101780000Y-58220000D01*
X71830000Y-128430000D02*
X70260000Y-128420000D01*
X87090000Y-84110000D02*
X88340000Y-85000000D01*
X113610000Y-118300000D02*
X112930000Y-120080000D01*
X102210000Y-59780000D02*
X100700000Y-60910000D01*
X80450000Y-116240000D02*
X82100000Y-116220000D01*
X116490000Y-117400000D02*
X114920000Y-117390000D01*
X55560000Y-137250000D02*
X54880000Y-139030000D01*
X110780000Y-90640000D02*
X110100000Y-92420000D01*
X82560000Y-114960000D02*
X83010000Y-116220000D01*
X67700000Y-128440000D02*
X68950000Y-129330000D01*
X69810000Y-127160000D02*
X70260000Y-128420000D01*
X89200000Y-82830000D02*
X89650000Y-84090000D01*
X104260000Y-58230000D02*
X102690000Y-58220000D01*
X101380000Y-59130000D02*
X100700000Y-60910000D01*
X67540000Y-103270000D02*
X66860000Y-105050000D01*
X102240000Y-56960000D02*
X102690000Y-58220000D01*
X70420000Y-102370000D02*
X68850000Y-102360000D01*
X109530000Y-89750000D02*
X110780000Y-90640000D01*
D11*
X116010000Y-107720000D02*
X146010000Y-141720000D01*
D10*
X111610000Y-91290000D02*
X110100000Y-92420000D01*
X66290000Y-102380000D02*
X67540000Y-103270000D01*
X89200000Y-82830000D02*
X88740000Y-84090000D01*
D11*
X108510000Y-77720000D02*
X121010000Y-77720000D01*
D10*
X66290000Y-102380000D02*
X67940000Y-102360000D01*
X81600000Y-72730000D02*
X82800000Y-71840000D01*
X114440000Y-118950000D02*
X115910000Y-120030000D01*
X90020000Y-84990000D02*
X91220000Y-84100000D01*
D11*
X136010000Y-107720000D02*
X116010000Y-107720000D01*
D10*
X109530000Y-89750000D02*
X111180000Y-89730000D01*
X122500000Y-133570000D02*
X123970000Y-134650000D01*
X115290000Y-118290000D02*
X115910000Y-120030000D01*
X122530000Y-130750000D02*
X122980000Y-132010000D01*
X70630000Y-129320000D02*
X71250000Y-131060000D01*
X100130000Y-58240000D02*
X101780000Y-58220000D01*
X69810000Y-127160000D02*
X69350000Y-128420000D01*
X69220000Y-103260000D02*
X69840000Y-105000000D01*
X103060000Y-59120000D02*
X103680000Y-60860000D01*
X87090000Y-84110000D02*
X88740000Y-84090000D01*
X80780000Y-70570000D02*
X81230000Y-71830000D01*
X81700000Y-117130000D02*
X81020000Y-118910000D01*
X68950000Y-129330000D02*
X68270000Y-131110000D01*
X89170000Y-85650000D02*
X87660000Y-86780000D01*
X57240000Y-137240000D02*
X58440000Y-136350000D01*
X112360000Y-117410000D02*
X113610000Y-118300000D01*
X68400000Y-101100000D02*
X68850000Y-102360000D01*
X80780000Y-70570000D02*
X80320000Y-71830000D01*
D11*
X71010000Y-77720000D02*
X83510000Y-77720000D01*
D10*
X91220000Y-84100000D02*
X89650000Y-84090000D01*
X122530000Y-130750000D02*
X122070000Y-132010000D01*
X112360000Y-117410000D02*
X114010000Y-117390000D01*
X112460000Y-90630000D02*
X113660000Y-89740000D01*
X111640000Y-88470000D02*
X111180000Y-89730000D01*
X82560000Y-114960000D02*
X82100000Y-116220000D01*
X123350000Y-132910000D02*
X124550000Y-132020000D01*
X67700000Y-128440000D02*
X69350000Y-128420000D01*
X68370000Y-103920000D02*
X66860000Y-105050000D01*
X123350000Y-132910000D02*
X123970000Y-134650000D01*
X57240000Y-137240000D02*
X57860000Y-138980000D01*
D11*
X95110000Y-43120000D02*
X71010000Y-77720000D01*
D10*
X82530000Y-117780000D02*
X84000000Y-118860000D01*
X89170000Y-85650000D02*
X90640000Y-86730000D01*
X69220000Y-103260000D02*
X70420000Y-102370000D01*
X78670000Y-71850000D02*
X79920000Y-72740000D01*
X80450000Y-116240000D02*
X81700000Y-117130000D01*
X82530000Y-117780000D02*
X81020000Y-118910000D01*
D11*
X95902000Y-42287000D02*
X121010000Y-77720000D01*
D10*
X80750000Y-73390000D02*
X79240000Y-74520000D01*
X124550000Y-132020000D02*
X122980000Y-132010000D01*
X69780000Y-129980000D02*
X71250000Y-131060000D01*
D11*
X76010000Y-107720000D02*
X56010000Y-107720000D01*
D10*
X83380000Y-117120000D02*
X84000000Y-118860000D01*
X78670000Y-71850000D02*
X80320000Y-71830000D01*
X88340000Y-85000000D02*
X87660000Y-86780000D01*
X84580000Y-116230000D02*
X83010000Y-116220000D01*
X120420000Y-132030000D02*
X122070000Y-132010000D01*
X82800000Y-71840000D02*
X81230000Y-71830000D01*
X114470000Y-116130000D02*
X114010000Y-117390000D01*
X58440000Y-136350000D02*
X56870000Y-136340000D01*
X69780000Y-129980000D02*
X68270000Y-131110000D01*
D11*
X83510000Y-77720000D02*
X56010000Y-107720000D01*
D10*
X115290000Y-118290000D02*
X116490000Y-117400000D01*
X100130000Y-58240000D02*
X101380000Y-59130000D01*
X54310000Y-136360000D02*
X55960000Y-136340000D01*
X111610000Y-91290000D02*
X113080000Y-92370000D01*
X114470000Y-116130000D02*
X114920000Y-117390000D01*
X68370000Y-103920000D02*
X69840000Y-105000000D01*
D11*
X108510000Y-77720000D02*
X136010000Y-107720000D01*
D10*
X121670000Y-132920000D02*
X120990000Y-134700000D01*
X120420000Y-132030000D02*
X121670000Y-132920000D01*
X103060000Y-59120000D02*
X104260000Y-58230000D01*
X80750000Y-73390000D02*
X82220000Y-74470000D01*
X56420000Y-135080000D02*
X56870000Y-136340000D01*
X56390000Y-137900000D02*
X57860000Y-138980000D01*
X56390000Y-137900000D02*
X54880000Y-139030000D01*
X90020000Y-84990000D02*
X90640000Y-86730000D01*
X56420000Y-135080000D02*
X55960000Y-136340000D01*
X79920000Y-72740000D02*
X79240000Y-74520000D01*
D12*
X70642857Y-124024819D02*
X70976190Y-123548628D01*
X71214285Y-124024819D02*
X71214285Y-123024819D01*
X71214285Y-123024819D02*
X70833333Y-123024819D01*
X70833333Y-123024819D02*
X70738095Y-123072438D01*
X70738095Y-123072438D02*
X70690476Y-123120057D01*
X70690476Y-123120057D02*
X70642857Y-123215295D01*
X70642857Y-123215295D02*
X70642857Y-123358152D01*
X70642857Y-123358152D02*
X70690476Y-123453390D01*
X70690476Y-123453390D02*
X70738095Y-123501009D01*
X70738095Y-123501009D02*
X70833333Y-123548628D01*
X70833333Y-123548628D02*
X71214285Y-123548628D01*
X69690476Y-124024819D02*
X70261904Y-124024819D01*
X69976190Y-124024819D02*
X69976190Y-123024819D01*
X69976190Y-123024819D02*
X70071428Y-123167676D01*
X70071428Y-123167676D02*
X70166666Y-123262914D01*
X70166666Y-123262914D02*
X70261904Y-123310533D01*
X68833333Y-123358152D02*
X68833333Y-124024819D01*
X69071428Y-122977200D02*
X69309523Y-123691485D01*
X69309523Y-123691485D02*
X68690476Y-123691485D01*
X128976285Y-106244819D02*
X128976285Y-105244819D01*
X128976285Y-105244819D02*
X128738190Y-105244819D01*
X128738190Y-105244819D02*
X128595333Y-105292438D01*
X128595333Y-105292438D02*
X128500095Y-105387676D01*
X128500095Y-105387676D02*
X128452476Y-105482914D01*
X128452476Y-105482914D02*
X128404857Y-105673390D01*
X128404857Y-105673390D02*
X128404857Y-105816247D01*
X128404857Y-105816247D02*
X128452476Y-106006723D01*
X128452476Y-106006723D02*
X128500095Y-106101961D01*
X128500095Y-106101961D02*
X128595333Y-106197200D01*
X128595333Y-106197200D02*
X128738190Y-106244819D01*
X128738190Y-106244819D02*
X128976285Y-106244819D01*
X127452476Y-106244819D02*
X128023904Y-106244819D01*
X127738190Y-106244819D02*
X127738190Y-105244819D01*
X127738190Y-105244819D02*
X127833428Y-105387676D01*
X127833428Y-105387676D02*
X127928666Y-105482914D01*
X127928666Y-105482914D02*
X128023904Y-105530533D01*
X126976285Y-106244819D02*
X126785809Y-106244819D01*
X126785809Y-106244819D02*
X126690571Y-106197200D01*
X126690571Y-106197200D02*
X126642952Y-106149580D01*
X126642952Y-106149580D02*
X126547714Y-106006723D01*
X126547714Y-106006723D02*
X126500095Y-105816247D01*
X126500095Y-105816247D02*
X126500095Y-105435295D01*
X126500095Y-105435295D02*
X126547714Y-105340057D01*
X126547714Y-105340057D02*
X126595333Y-105292438D01*
X126595333Y-105292438D02*
X126690571Y-105244819D01*
X126690571Y-105244819D02*
X126881047Y-105244819D01*
X126881047Y-105244819D02*
X126976285Y-105292438D01*
X126976285Y-105292438D02*
X127023904Y-105340057D01*
X127023904Y-105340057D02*
X127071523Y-105435295D01*
X127071523Y-105435295D02*
X127071523Y-105673390D01*
X127071523Y-105673390D02*
X127023904Y-105768628D01*
X127023904Y-105768628D02*
X126976285Y-105816247D01*
X126976285Y-105816247D02*
X126881047Y-105863866D01*
X126881047Y-105863866D02*
X126690571Y-105863866D01*
X126690571Y-105863866D02*
X126595333Y-105816247D01*
X126595333Y-105816247D02*
X126547714Y-105768628D01*
X126547714Y-105768628D02*
X126500095Y-105673390D01*
X78642857Y-93024819D02*
X78976190Y-92548628D01*
X79214285Y-93024819D02*
X79214285Y-92024819D01*
X79214285Y-92024819D02*
X78833333Y-92024819D01*
X78833333Y-92024819D02*
X78738095Y-92072438D01*
X78738095Y-92072438D02*
X78690476Y-92120057D01*
X78690476Y-92120057D02*
X78642857Y-92215295D01*
X78642857Y-92215295D02*
X78642857Y-92358152D01*
X78642857Y-92358152D02*
X78690476Y-92453390D01*
X78690476Y-92453390D02*
X78738095Y-92501009D01*
X78738095Y-92501009D02*
X78833333Y-92548628D01*
X78833333Y-92548628D02*
X79214285Y-92548628D01*
X77690476Y-93024819D02*
X78261904Y-93024819D01*
X77976190Y-93024819D02*
X77976190Y-92024819D01*
X77976190Y-92024819D02*
X78071428Y-92167676D01*
X78071428Y-92167676D02*
X78166666Y-92262914D01*
X78166666Y-92262914D02*
X78261904Y-92310533D01*
X76738095Y-93024819D02*
X77309523Y-93024819D01*
X77023809Y-93024819D02*
X77023809Y-92024819D01*
X77023809Y-92024819D02*
X77119047Y-92167676D01*
X77119047Y-92167676D02*
X77214285Y-92262914D01*
X77214285Y-92262914D02*
X77309523Y-92310533D01*
X90079166Y-138155819D02*
X90412499Y-137679628D01*
X90650594Y-138155819D02*
X90650594Y-137155819D01*
X90650594Y-137155819D02*
X90269642Y-137155819D01*
X90269642Y-137155819D02*
X90174404Y-137203438D01*
X90174404Y-137203438D02*
X90126785Y-137251057D01*
X90126785Y-137251057D02*
X90079166Y-137346295D01*
X90079166Y-137346295D02*
X90079166Y-137489152D01*
X90079166Y-137489152D02*
X90126785Y-137584390D01*
X90126785Y-137584390D02*
X90174404Y-137632009D01*
X90174404Y-137632009D02*
X90269642Y-137679628D01*
X90269642Y-137679628D02*
X90650594Y-137679628D01*
X89222023Y-137489152D02*
X89222023Y-138155819D01*
X89460118Y-137108200D02*
X89698213Y-137822485D01*
X89698213Y-137822485D02*
X89079166Y-137822485D01*
X102050057Y-125175761D02*
X102002438Y-125080523D01*
X102002438Y-125080523D02*
X101907200Y-124985285D01*
X101907200Y-124985285D02*
X101764342Y-124842428D01*
X101764342Y-124842428D02*
X101716723Y-124747190D01*
X101716723Y-124747190D02*
X101716723Y-124651952D01*
X101954819Y-124699571D02*
X101907200Y-124604333D01*
X101907200Y-124604333D02*
X101811961Y-124509095D01*
X101811961Y-124509095D02*
X101621485Y-124461476D01*
X101621485Y-124461476D02*
X101288152Y-124461476D01*
X101288152Y-124461476D02*
X101097676Y-124509095D01*
X101097676Y-124509095D02*
X101002438Y-124604333D01*
X101002438Y-124604333D02*
X100954819Y-124699571D01*
X100954819Y-124699571D02*
X100954819Y-124890047D01*
X100954819Y-124890047D02*
X101002438Y-124985285D01*
X101002438Y-124985285D02*
X101097676Y-125080523D01*
X101097676Y-125080523D02*
X101288152Y-125128142D01*
X101288152Y-125128142D02*
X101621485Y-125128142D01*
X101621485Y-125128142D02*
X101811961Y-125080523D01*
X101811961Y-125080523D02*
X101907200Y-124985285D01*
X101907200Y-124985285D02*
X101954819Y-124890047D01*
X101954819Y-124890047D02*
X101954819Y-124699571D01*
X100954819Y-126032904D02*
X100954819Y-125556714D01*
X100954819Y-125556714D02*
X101431009Y-125509095D01*
X101431009Y-125509095D02*
X101383390Y-125556714D01*
X101383390Y-125556714D02*
X101335771Y-125651952D01*
X101335771Y-125651952D02*
X101335771Y-125890047D01*
X101335771Y-125890047D02*
X101383390Y-125985285D01*
X101383390Y-125985285D02*
X101431009Y-126032904D01*
X101431009Y-126032904D02*
X101526247Y-126080523D01*
X101526247Y-126080523D02*
X101764342Y-126080523D01*
X101764342Y-126080523D02*
X101859580Y-126032904D01*
X101859580Y-126032904D02*
X101907200Y-125985285D01*
X101907200Y-125985285D02*
X101954819Y-125890047D01*
X101954819Y-125890047D02*
X101954819Y-125651952D01*
X101954819Y-125651952D02*
X101907200Y-125556714D01*
X101907200Y-125556714D02*
X101859580Y-125509095D01*
X95240666Y-128295819D02*
X95573999Y-127819628D01*
X95812094Y-128295819D02*
X95812094Y-127295819D01*
X95812094Y-127295819D02*
X95431142Y-127295819D01*
X95431142Y-127295819D02*
X95335904Y-127343438D01*
X95335904Y-127343438D02*
X95288285Y-127391057D01*
X95288285Y-127391057D02*
X95240666Y-127486295D01*
X95240666Y-127486295D02*
X95240666Y-127629152D01*
X95240666Y-127629152D02*
X95288285Y-127724390D01*
X95288285Y-127724390D02*
X95335904Y-127772009D01*
X95335904Y-127772009D02*
X95431142Y-127819628D01*
X95431142Y-127819628D02*
X95812094Y-127819628D01*
X94907332Y-127295819D02*
X94288285Y-127295819D01*
X94288285Y-127295819D02*
X94621618Y-127676771D01*
X94621618Y-127676771D02*
X94478761Y-127676771D01*
X94478761Y-127676771D02*
X94383523Y-127724390D01*
X94383523Y-127724390D02*
X94335904Y-127772009D01*
X94335904Y-127772009D02*
X94288285Y-127867247D01*
X94288285Y-127867247D02*
X94288285Y-128105342D01*
X94288285Y-128105342D02*
X94335904Y-128200580D01*
X94335904Y-128200580D02*
X94383523Y-128248200D01*
X94383523Y-128248200D02*
X94478761Y-128295819D01*
X94478761Y-128295819D02*
X94764475Y-128295819D01*
X94764475Y-128295819D02*
X94859713Y-128248200D01*
X94859713Y-128248200D02*
X94907332Y-128200580D01*
X82104819Y-88261905D02*
X81104819Y-88261905D01*
X81104819Y-88261905D02*
X81104819Y-88500000D01*
X81104819Y-88500000D02*
X81152438Y-88642857D01*
X81152438Y-88642857D02*
X81247676Y-88738095D01*
X81247676Y-88738095D02*
X81342914Y-88785714D01*
X81342914Y-88785714D02*
X81533390Y-88833333D01*
X81533390Y-88833333D02*
X81676247Y-88833333D01*
X81676247Y-88833333D02*
X81866723Y-88785714D01*
X81866723Y-88785714D02*
X81961961Y-88738095D01*
X81961961Y-88738095D02*
X82057200Y-88642857D01*
X82057200Y-88642857D02*
X82104819Y-88500000D01*
X82104819Y-88500000D02*
X82104819Y-88261905D01*
X81104819Y-89690476D02*
X81104819Y-89500000D01*
X81104819Y-89500000D02*
X81152438Y-89404762D01*
X81152438Y-89404762D02*
X81200057Y-89357143D01*
X81200057Y-89357143D02*
X81342914Y-89261905D01*
X81342914Y-89261905D02*
X81533390Y-89214286D01*
X81533390Y-89214286D02*
X81914342Y-89214286D01*
X81914342Y-89214286D02*
X82009580Y-89261905D01*
X82009580Y-89261905D02*
X82057200Y-89309524D01*
X82057200Y-89309524D02*
X82104819Y-89404762D01*
X82104819Y-89404762D02*
X82104819Y-89595238D01*
X82104819Y-89595238D02*
X82057200Y-89690476D01*
X82057200Y-89690476D02*
X82009580Y-89738095D01*
X82009580Y-89738095D02*
X81914342Y-89785714D01*
X81914342Y-89785714D02*
X81676247Y-89785714D01*
X81676247Y-89785714D02*
X81581009Y-89738095D01*
X81581009Y-89738095D02*
X81533390Y-89690476D01*
X81533390Y-89690476D02*
X81485771Y-89595238D01*
X81485771Y-89595238D02*
X81485771Y-89404762D01*
X81485771Y-89404762D02*
X81533390Y-89309524D01*
X81533390Y-89309524D02*
X81581009Y-89261905D01*
X81581009Y-89261905D02*
X81676247Y-89214286D01*
X90095238Y-126321057D02*
X90190476Y-126273438D01*
X90190476Y-126273438D02*
X90285714Y-126178200D01*
X90285714Y-126178200D02*
X90428571Y-126035342D01*
X90428571Y-126035342D02*
X90523809Y-125987723D01*
X90523809Y-125987723D02*
X90619047Y-125987723D01*
X90571428Y-126225819D02*
X90666666Y-126178200D01*
X90666666Y-126178200D02*
X90761904Y-126082961D01*
X90761904Y-126082961D02*
X90809523Y-125892485D01*
X90809523Y-125892485D02*
X90809523Y-125559152D01*
X90809523Y-125559152D02*
X90761904Y-125368676D01*
X90761904Y-125368676D02*
X90666666Y-125273438D01*
X90666666Y-125273438D02*
X90571428Y-125225819D01*
X90571428Y-125225819D02*
X90380952Y-125225819D01*
X90380952Y-125225819D02*
X90285714Y-125273438D01*
X90285714Y-125273438D02*
X90190476Y-125368676D01*
X90190476Y-125368676D02*
X90142857Y-125559152D01*
X90142857Y-125559152D02*
X90142857Y-125892485D01*
X90142857Y-125892485D02*
X90190476Y-126082961D01*
X90190476Y-126082961D02*
X90285714Y-126178200D01*
X90285714Y-126178200D02*
X90380952Y-126225819D01*
X90380952Y-126225819D02*
X90571428Y-126225819D01*
X89190476Y-126225819D02*
X89761904Y-126225819D01*
X89476190Y-126225819D02*
X89476190Y-125225819D01*
X89476190Y-125225819D02*
X89571428Y-125368676D01*
X89571428Y-125368676D02*
X89666666Y-125463914D01*
X89666666Y-125463914D02*
X89761904Y-125511533D01*
X85095238Y-133421057D02*
X85190476Y-133373438D01*
X85190476Y-133373438D02*
X85285714Y-133278200D01*
X85285714Y-133278200D02*
X85428571Y-133135342D01*
X85428571Y-133135342D02*
X85523809Y-133087723D01*
X85523809Y-133087723D02*
X85619047Y-133087723D01*
X85571428Y-133325819D02*
X85666666Y-133278200D01*
X85666666Y-133278200D02*
X85761904Y-133182961D01*
X85761904Y-133182961D02*
X85809523Y-132992485D01*
X85809523Y-132992485D02*
X85809523Y-132659152D01*
X85809523Y-132659152D02*
X85761904Y-132468676D01*
X85761904Y-132468676D02*
X85666666Y-132373438D01*
X85666666Y-132373438D02*
X85571428Y-132325819D01*
X85571428Y-132325819D02*
X85380952Y-132325819D01*
X85380952Y-132325819D02*
X85285714Y-132373438D01*
X85285714Y-132373438D02*
X85190476Y-132468676D01*
X85190476Y-132468676D02*
X85142857Y-132659152D01*
X85142857Y-132659152D02*
X85142857Y-132992485D01*
X85142857Y-132992485D02*
X85190476Y-133182961D01*
X85190476Y-133182961D02*
X85285714Y-133278200D01*
X85285714Y-133278200D02*
X85380952Y-133325819D01*
X85380952Y-133325819D02*
X85571428Y-133325819D01*
X84285714Y-132659152D02*
X84285714Y-133325819D01*
X84523809Y-132278200D02*
X84761904Y-132992485D01*
X84761904Y-132992485D02*
X84142857Y-132992485D01*
X91079166Y-132655819D02*
X91412499Y-132179628D01*
X91650594Y-132655819D02*
X91650594Y-131655819D01*
X91650594Y-131655819D02*
X91269642Y-131655819D01*
X91269642Y-131655819D02*
X91174404Y-131703438D01*
X91174404Y-131703438D02*
X91126785Y-131751057D01*
X91126785Y-131751057D02*
X91079166Y-131846295D01*
X91079166Y-131846295D02*
X91079166Y-131989152D01*
X91079166Y-131989152D02*
X91126785Y-132084390D01*
X91126785Y-132084390D02*
X91174404Y-132132009D01*
X91174404Y-132132009D02*
X91269642Y-132179628D01*
X91269642Y-132179628D02*
X91650594Y-132179628D01*
X90126785Y-132655819D02*
X90698213Y-132655819D01*
X90412499Y-132655819D02*
X90412499Y-131655819D01*
X90412499Y-131655819D02*
X90507737Y-131798676D01*
X90507737Y-131798676D02*
X90602975Y-131893914D01*
X90602975Y-131893914D02*
X90698213Y-131941533D01*
X124340857Y-103164819D02*
X124674190Y-102688628D01*
X124912285Y-103164819D02*
X124912285Y-102164819D01*
X124912285Y-102164819D02*
X124531333Y-102164819D01*
X124531333Y-102164819D02*
X124436095Y-102212438D01*
X124436095Y-102212438D02*
X124388476Y-102260057D01*
X124388476Y-102260057D02*
X124340857Y-102355295D01*
X124340857Y-102355295D02*
X124340857Y-102498152D01*
X124340857Y-102498152D02*
X124388476Y-102593390D01*
X124388476Y-102593390D02*
X124436095Y-102641009D01*
X124436095Y-102641009D02*
X124531333Y-102688628D01*
X124531333Y-102688628D02*
X124912285Y-102688628D01*
X123959904Y-102260057D02*
X123912285Y-102212438D01*
X123912285Y-102212438D02*
X123817047Y-102164819D01*
X123817047Y-102164819D02*
X123578952Y-102164819D01*
X123578952Y-102164819D02*
X123483714Y-102212438D01*
X123483714Y-102212438D02*
X123436095Y-102260057D01*
X123436095Y-102260057D02*
X123388476Y-102355295D01*
X123388476Y-102355295D02*
X123388476Y-102450533D01*
X123388476Y-102450533D02*
X123436095Y-102593390D01*
X123436095Y-102593390D02*
X124007523Y-103164819D01*
X124007523Y-103164819D02*
X123388476Y-103164819D01*
X122531333Y-102498152D02*
X122531333Y-103164819D01*
X122769428Y-102117200D02*
X123007523Y-102831485D01*
X123007523Y-102831485D02*
X122388476Y-102831485D01*
X90738094Y-131825819D02*
X90738094Y-130825819D01*
X90738094Y-130825819D02*
X90499999Y-130825819D01*
X90499999Y-130825819D02*
X90357142Y-130873438D01*
X90357142Y-130873438D02*
X90261904Y-130968676D01*
X90261904Y-130968676D02*
X90214285Y-131063914D01*
X90214285Y-131063914D02*
X90166666Y-131254390D01*
X90166666Y-131254390D02*
X90166666Y-131397247D01*
X90166666Y-131397247D02*
X90214285Y-131587723D01*
X90214285Y-131587723D02*
X90261904Y-131682961D01*
X90261904Y-131682961D02*
X90357142Y-131778200D01*
X90357142Y-131778200D02*
X90499999Y-131825819D01*
X90499999Y-131825819D02*
X90738094Y-131825819D01*
X89214285Y-131825819D02*
X89785713Y-131825819D01*
X89499999Y-131825819D02*
X89499999Y-130825819D01*
X89499999Y-130825819D02*
X89595237Y-130968676D01*
X89595237Y-130968676D02*
X89690475Y-131063914D01*
X89690475Y-131063914D02*
X89785713Y-131111533D01*
X90746357Y-56766819D02*
X91079690Y-56290628D01*
X91317785Y-56766819D02*
X91317785Y-55766819D01*
X91317785Y-55766819D02*
X90936833Y-55766819D01*
X90936833Y-55766819D02*
X90841595Y-55814438D01*
X90841595Y-55814438D02*
X90793976Y-55862057D01*
X90793976Y-55862057D02*
X90746357Y-55957295D01*
X90746357Y-55957295D02*
X90746357Y-56100152D01*
X90746357Y-56100152D02*
X90793976Y-56195390D01*
X90793976Y-56195390D02*
X90841595Y-56243009D01*
X90841595Y-56243009D02*
X90936833Y-56290628D01*
X90936833Y-56290628D02*
X91317785Y-56290628D01*
X89793976Y-56766819D02*
X90365404Y-56766819D01*
X90079690Y-56766819D02*
X90079690Y-55766819D01*
X90079690Y-55766819D02*
X90174928Y-55909676D01*
X90174928Y-55909676D02*
X90270166Y-56004914D01*
X90270166Y-56004914D02*
X90365404Y-56052533D01*
X89413023Y-55862057D02*
X89365404Y-55814438D01*
X89365404Y-55814438D02*
X89270166Y-55766819D01*
X89270166Y-55766819D02*
X89032071Y-55766819D01*
X89032071Y-55766819D02*
X88936833Y-55814438D01*
X88936833Y-55814438D02*
X88889214Y-55862057D01*
X88889214Y-55862057D02*
X88841595Y-55957295D01*
X88841595Y-55957295D02*
X88841595Y-56052533D01*
X88841595Y-56052533D02*
X88889214Y-56195390D01*
X88889214Y-56195390D02*
X89460642Y-56766819D01*
X89460642Y-56766819D02*
X88841595Y-56766819D01*
D13*
X100905419Y-100244666D02*
X101619704Y-100244666D01*
X101619704Y-100244666D02*
X101762561Y-100197047D01*
X101762561Y-100197047D02*
X101857800Y-100101809D01*
X101857800Y-100101809D02*
X101905419Y-99958952D01*
X101905419Y-99958952D02*
X101905419Y-99863714D01*
X100905419Y-101197047D02*
X100905419Y-100720857D01*
X100905419Y-100720857D02*
X101381609Y-100673238D01*
X101381609Y-100673238D02*
X101333990Y-100720857D01*
X101333990Y-100720857D02*
X101286371Y-100816095D01*
X101286371Y-100816095D02*
X101286371Y-101054190D01*
X101286371Y-101054190D02*
X101333990Y-101149428D01*
X101333990Y-101149428D02*
X101381609Y-101197047D01*
X101381609Y-101197047D02*
X101476847Y-101244666D01*
X101476847Y-101244666D02*
X101714942Y-101244666D01*
X101714942Y-101244666D02*
X101810180Y-101197047D01*
X101810180Y-101197047D02*
X101857800Y-101149428D01*
X101857800Y-101149428D02*
X101905419Y-101054190D01*
X101905419Y-101054190D02*
X101905419Y-100816095D01*
X101905419Y-100816095D02*
X101857800Y-100720857D01*
X101857800Y-100720857D02*
X101810180Y-100673238D01*
D12*
X74104819Y-119261905D02*
X73104819Y-119261905D01*
X73104819Y-119261905D02*
X73104819Y-119500000D01*
X73104819Y-119500000D02*
X73152438Y-119642857D01*
X73152438Y-119642857D02*
X73247676Y-119738095D01*
X73247676Y-119738095D02*
X73342914Y-119785714D01*
X73342914Y-119785714D02*
X73533390Y-119833333D01*
X73533390Y-119833333D02*
X73676247Y-119833333D01*
X73676247Y-119833333D02*
X73866723Y-119785714D01*
X73866723Y-119785714D02*
X73961961Y-119738095D01*
X73961961Y-119738095D02*
X74057200Y-119642857D01*
X74057200Y-119642857D02*
X74104819Y-119500000D01*
X74104819Y-119500000D02*
X74104819Y-119261905D01*
X74104819Y-120309524D02*
X74104819Y-120500000D01*
X74104819Y-120500000D02*
X74057200Y-120595238D01*
X74057200Y-120595238D02*
X74009580Y-120642857D01*
X74009580Y-120642857D02*
X73866723Y-120738095D01*
X73866723Y-120738095D02*
X73676247Y-120785714D01*
X73676247Y-120785714D02*
X73295295Y-120785714D01*
X73295295Y-120785714D02*
X73200057Y-120738095D01*
X73200057Y-120738095D02*
X73152438Y-120690476D01*
X73152438Y-120690476D02*
X73104819Y-120595238D01*
X73104819Y-120595238D02*
X73104819Y-120404762D01*
X73104819Y-120404762D02*
X73152438Y-120309524D01*
X73152438Y-120309524D02*
X73200057Y-120261905D01*
X73200057Y-120261905D02*
X73295295Y-120214286D01*
X73295295Y-120214286D02*
X73533390Y-120214286D01*
X73533390Y-120214286D02*
X73628628Y-120261905D01*
X73628628Y-120261905D02*
X73676247Y-120309524D01*
X73676247Y-120309524D02*
X73723866Y-120404762D01*
X73723866Y-120404762D02*
X73723866Y-120595238D01*
X73723866Y-120595238D02*
X73676247Y-120690476D01*
X73676247Y-120690476D02*
X73628628Y-120738095D01*
X73628628Y-120738095D02*
X73533390Y-120785714D01*
X117309819Y-138666666D02*
X118024104Y-138666666D01*
X118024104Y-138666666D02*
X118166961Y-138619047D01*
X118166961Y-138619047D02*
X118262200Y-138523809D01*
X118262200Y-138523809D02*
X118309819Y-138380952D01*
X118309819Y-138380952D02*
X118309819Y-138285714D01*
X118309819Y-139666666D02*
X118309819Y-139095238D01*
X118309819Y-139380952D02*
X117309819Y-139380952D01*
X117309819Y-139380952D02*
X117452676Y-139285714D01*
X117452676Y-139285714D02*
X117547914Y-139190476D01*
X117547914Y-139190476D02*
X117595533Y-139095238D01*
X94104819Y-52236905D02*
X93104819Y-52236905D01*
X93104819Y-52236905D02*
X93104819Y-52475000D01*
X93104819Y-52475000D02*
X93152438Y-52617857D01*
X93152438Y-52617857D02*
X93247676Y-52713095D01*
X93247676Y-52713095D02*
X93342914Y-52760714D01*
X93342914Y-52760714D02*
X93533390Y-52808333D01*
X93533390Y-52808333D02*
X93676247Y-52808333D01*
X93676247Y-52808333D02*
X93866723Y-52760714D01*
X93866723Y-52760714D02*
X93961961Y-52713095D01*
X93961961Y-52713095D02*
X94057200Y-52617857D01*
X94057200Y-52617857D02*
X94104819Y-52475000D01*
X94104819Y-52475000D02*
X94104819Y-52236905D01*
X93104819Y-53141667D02*
X93104819Y-53808333D01*
X93104819Y-53808333D02*
X94104819Y-53379762D01*
X103550057Y-132675761D02*
X103502438Y-132580523D01*
X103502438Y-132580523D02*
X103407200Y-132485285D01*
X103407200Y-132485285D02*
X103264342Y-132342428D01*
X103264342Y-132342428D02*
X103216723Y-132247190D01*
X103216723Y-132247190D02*
X103216723Y-132151952D01*
X103454819Y-132199571D02*
X103407200Y-132104333D01*
X103407200Y-132104333D02*
X103311961Y-132009095D01*
X103311961Y-132009095D02*
X103121485Y-131961476D01*
X103121485Y-131961476D02*
X102788152Y-131961476D01*
X102788152Y-131961476D02*
X102597676Y-132009095D01*
X102597676Y-132009095D02*
X102502438Y-132104333D01*
X102502438Y-132104333D02*
X102454819Y-132199571D01*
X102454819Y-132199571D02*
X102454819Y-132390047D01*
X102454819Y-132390047D02*
X102502438Y-132485285D01*
X102502438Y-132485285D02*
X102597676Y-132580523D01*
X102597676Y-132580523D02*
X102788152Y-132628142D01*
X102788152Y-132628142D02*
X103121485Y-132628142D01*
X103121485Y-132628142D02*
X103311961Y-132580523D01*
X103311961Y-132580523D02*
X103407200Y-132485285D01*
X103407200Y-132485285D02*
X103454819Y-132390047D01*
X103454819Y-132390047D02*
X103454819Y-132199571D01*
X102550057Y-133009095D02*
X102502438Y-133056714D01*
X102502438Y-133056714D02*
X102454819Y-133151952D01*
X102454819Y-133151952D02*
X102454819Y-133390047D01*
X102454819Y-133390047D02*
X102502438Y-133485285D01*
X102502438Y-133485285D02*
X102550057Y-133532904D01*
X102550057Y-133532904D02*
X102645295Y-133580523D01*
X102645295Y-133580523D02*
X102740533Y-133580523D01*
X102740533Y-133580523D02*
X102883390Y-133532904D01*
X102883390Y-133532904D02*
X103454819Y-132961476D01*
X103454819Y-132961476D02*
X103454819Y-133580523D01*
X138406094Y-140280819D02*
X138406094Y-139280819D01*
X138406094Y-139280819D02*
X138167999Y-139280819D01*
X138167999Y-139280819D02*
X138025142Y-139328438D01*
X138025142Y-139328438D02*
X137929904Y-139423676D01*
X137929904Y-139423676D02*
X137882285Y-139518914D01*
X137882285Y-139518914D02*
X137834666Y-139709390D01*
X137834666Y-139709390D02*
X137834666Y-139852247D01*
X137834666Y-139852247D02*
X137882285Y-140042723D01*
X137882285Y-140042723D02*
X137929904Y-140137961D01*
X137929904Y-140137961D02*
X138025142Y-140233200D01*
X138025142Y-140233200D02*
X138167999Y-140280819D01*
X138167999Y-140280819D02*
X138406094Y-140280819D01*
X137263237Y-139709390D02*
X137358475Y-139661771D01*
X137358475Y-139661771D02*
X137406094Y-139614152D01*
X137406094Y-139614152D02*
X137453713Y-139518914D01*
X137453713Y-139518914D02*
X137453713Y-139471295D01*
X137453713Y-139471295D02*
X137406094Y-139376057D01*
X137406094Y-139376057D02*
X137358475Y-139328438D01*
X137358475Y-139328438D02*
X137263237Y-139280819D01*
X137263237Y-139280819D02*
X137072761Y-139280819D01*
X137072761Y-139280819D02*
X136977523Y-139328438D01*
X136977523Y-139328438D02*
X136929904Y-139376057D01*
X136929904Y-139376057D02*
X136882285Y-139471295D01*
X136882285Y-139471295D02*
X136882285Y-139518914D01*
X136882285Y-139518914D02*
X136929904Y-139614152D01*
X136929904Y-139614152D02*
X136977523Y-139661771D01*
X136977523Y-139661771D02*
X137072761Y-139709390D01*
X137072761Y-139709390D02*
X137263237Y-139709390D01*
X137263237Y-139709390D02*
X137358475Y-139757009D01*
X137358475Y-139757009D02*
X137406094Y-139804628D01*
X137406094Y-139804628D02*
X137453713Y-139899866D01*
X137453713Y-139899866D02*
X137453713Y-140090342D01*
X137453713Y-140090342D02*
X137406094Y-140185580D01*
X137406094Y-140185580D02*
X137358475Y-140233200D01*
X137358475Y-140233200D02*
X137263237Y-140280819D01*
X137263237Y-140280819D02*
X137072761Y-140280819D01*
X137072761Y-140280819D02*
X136977523Y-140233200D01*
X136977523Y-140233200D02*
X136929904Y-140185580D01*
X136929904Y-140185580D02*
X136882285Y-140090342D01*
X136882285Y-140090342D02*
X136882285Y-139899866D01*
X136882285Y-139899866D02*
X136929904Y-139804628D01*
X136929904Y-139804628D02*
X136977523Y-139757009D01*
X136977523Y-139757009D02*
X137072761Y-139709390D01*
X101420666Y-135751819D02*
X101753999Y-135275628D01*
X101992094Y-135751819D02*
X101992094Y-134751819D01*
X101992094Y-134751819D02*
X101611142Y-134751819D01*
X101611142Y-134751819D02*
X101515904Y-134799438D01*
X101515904Y-134799438D02*
X101468285Y-134847057D01*
X101468285Y-134847057D02*
X101420666Y-134942295D01*
X101420666Y-134942295D02*
X101420666Y-135085152D01*
X101420666Y-135085152D02*
X101468285Y-135180390D01*
X101468285Y-135180390D02*
X101515904Y-135228009D01*
X101515904Y-135228009D02*
X101611142Y-135275628D01*
X101611142Y-135275628D02*
X101992094Y-135275628D01*
X101039713Y-134847057D02*
X100992094Y-134799438D01*
X100992094Y-134799438D02*
X100896856Y-134751819D01*
X100896856Y-134751819D02*
X100658761Y-134751819D01*
X100658761Y-134751819D02*
X100563523Y-134799438D01*
X100563523Y-134799438D02*
X100515904Y-134847057D01*
X100515904Y-134847057D02*
X100468285Y-134942295D01*
X100468285Y-134942295D02*
X100468285Y-135037533D01*
X100468285Y-135037533D02*
X100515904Y-135180390D01*
X100515904Y-135180390D02*
X101087332Y-135751819D01*
X101087332Y-135751819D02*
X100468285Y-135751819D01*
X134246857Y-137200819D02*
X134580190Y-136724628D01*
X134818285Y-137200819D02*
X134818285Y-136200819D01*
X134818285Y-136200819D02*
X134437333Y-136200819D01*
X134437333Y-136200819D02*
X134342095Y-136248438D01*
X134342095Y-136248438D02*
X134294476Y-136296057D01*
X134294476Y-136296057D02*
X134246857Y-136391295D01*
X134246857Y-136391295D02*
X134246857Y-136534152D01*
X134246857Y-136534152D02*
X134294476Y-136629390D01*
X134294476Y-136629390D02*
X134342095Y-136677009D01*
X134342095Y-136677009D02*
X134437333Y-136724628D01*
X134437333Y-136724628D02*
X134818285Y-136724628D01*
X133294476Y-137200819D02*
X133865904Y-137200819D01*
X133580190Y-137200819D02*
X133580190Y-136200819D01*
X133580190Y-136200819D02*
X133675428Y-136343676D01*
X133675428Y-136343676D02*
X133770666Y-136438914D01*
X133770666Y-136438914D02*
X133865904Y-136486533D01*
X132961142Y-136200819D02*
X132342095Y-136200819D01*
X132342095Y-136200819D02*
X132675428Y-136581771D01*
X132675428Y-136581771D02*
X132532571Y-136581771D01*
X132532571Y-136581771D02*
X132437333Y-136629390D01*
X132437333Y-136629390D02*
X132389714Y-136677009D01*
X132389714Y-136677009D02*
X132342095Y-136772247D01*
X132342095Y-136772247D02*
X132342095Y-137010342D01*
X132342095Y-137010342D02*
X132389714Y-137105580D01*
X132389714Y-137105580D02*
X132437333Y-137153200D01*
X132437333Y-137153200D02*
X132532571Y-137200819D01*
X132532571Y-137200819D02*
X132818285Y-137200819D01*
X132818285Y-137200819D02*
X132913523Y-137153200D01*
X132913523Y-137153200D02*
X132961142Y-137105580D01*
X109091857Y-72938819D02*
X109425190Y-72462628D01*
X109663285Y-72938819D02*
X109663285Y-71938819D01*
X109663285Y-71938819D02*
X109282333Y-71938819D01*
X109282333Y-71938819D02*
X109187095Y-71986438D01*
X109187095Y-71986438D02*
X109139476Y-72034057D01*
X109139476Y-72034057D02*
X109091857Y-72129295D01*
X109091857Y-72129295D02*
X109091857Y-72272152D01*
X109091857Y-72272152D02*
X109139476Y-72367390D01*
X109139476Y-72367390D02*
X109187095Y-72415009D01*
X109187095Y-72415009D02*
X109282333Y-72462628D01*
X109282333Y-72462628D02*
X109663285Y-72462628D01*
X108758523Y-71938819D02*
X108139476Y-71938819D01*
X108139476Y-71938819D02*
X108472809Y-72319771D01*
X108472809Y-72319771D02*
X108329952Y-72319771D01*
X108329952Y-72319771D02*
X108234714Y-72367390D01*
X108234714Y-72367390D02*
X108187095Y-72415009D01*
X108187095Y-72415009D02*
X108139476Y-72510247D01*
X108139476Y-72510247D02*
X108139476Y-72748342D01*
X108139476Y-72748342D02*
X108187095Y-72843580D01*
X108187095Y-72843580D02*
X108234714Y-72891200D01*
X108234714Y-72891200D02*
X108329952Y-72938819D01*
X108329952Y-72938819D02*
X108615666Y-72938819D01*
X108615666Y-72938819D02*
X108710904Y-72891200D01*
X108710904Y-72891200D02*
X108758523Y-72843580D01*
X107520428Y-71938819D02*
X107425190Y-71938819D01*
X107425190Y-71938819D02*
X107329952Y-71986438D01*
X107329952Y-71986438D02*
X107282333Y-72034057D01*
X107282333Y-72034057D02*
X107234714Y-72129295D01*
X107234714Y-72129295D02*
X107187095Y-72319771D01*
X107187095Y-72319771D02*
X107187095Y-72557866D01*
X107187095Y-72557866D02*
X107234714Y-72748342D01*
X107234714Y-72748342D02*
X107282333Y-72843580D01*
X107282333Y-72843580D02*
X107329952Y-72891200D01*
X107329952Y-72891200D02*
X107425190Y-72938819D01*
X107425190Y-72938819D02*
X107520428Y-72938819D01*
X107520428Y-72938819D02*
X107615666Y-72891200D01*
X107615666Y-72891200D02*
X107663285Y-72843580D01*
X107663285Y-72843580D02*
X107710904Y-72748342D01*
X107710904Y-72748342D02*
X107758523Y-72557866D01*
X107758523Y-72557866D02*
X107758523Y-72319771D01*
X107758523Y-72319771D02*
X107710904Y-72129295D01*
X107710904Y-72129295D02*
X107663285Y-72034057D01*
X107663285Y-72034057D02*
X107615666Y-71986438D01*
X107615666Y-71986438D02*
X107520428Y-71938819D01*
X113482285Y-76018819D02*
X113482285Y-75018819D01*
X113482285Y-75018819D02*
X113244190Y-75018819D01*
X113244190Y-75018819D02*
X113101333Y-75066438D01*
X113101333Y-75066438D02*
X113006095Y-75161676D01*
X113006095Y-75161676D02*
X112958476Y-75256914D01*
X112958476Y-75256914D02*
X112910857Y-75447390D01*
X112910857Y-75447390D02*
X112910857Y-75590247D01*
X112910857Y-75590247D02*
X112958476Y-75780723D01*
X112958476Y-75780723D02*
X113006095Y-75875961D01*
X113006095Y-75875961D02*
X113101333Y-75971200D01*
X113101333Y-75971200D02*
X113244190Y-76018819D01*
X113244190Y-76018819D02*
X113482285Y-76018819D01*
X112529904Y-75114057D02*
X112482285Y-75066438D01*
X112482285Y-75066438D02*
X112387047Y-75018819D01*
X112387047Y-75018819D02*
X112148952Y-75018819D01*
X112148952Y-75018819D02*
X112053714Y-75066438D01*
X112053714Y-75066438D02*
X112006095Y-75114057D01*
X112006095Y-75114057D02*
X111958476Y-75209295D01*
X111958476Y-75209295D02*
X111958476Y-75304533D01*
X111958476Y-75304533D02*
X112006095Y-75447390D01*
X112006095Y-75447390D02*
X112577523Y-76018819D01*
X112577523Y-76018819D02*
X111958476Y-76018819D01*
X111053714Y-75018819D02*
X111529904Y-75018819D01*
X111529904Y-75018819D02*
X111577523Y-75495009D01*
X111577523Y-75495009D02*
X111529904Y-75447390D01*
X111529904Y-75447390D02*
X111434666Y-75399771D01*
X111434666Y-75399771D02*
X111196571Y-75399771D01*
X111196571Y-75399771D02*
X111101333Y-75447390D01*
X111101333Y-75447390D02*
X111053714Y-75495009D01*
X111053714Y-75495009D02*
X111006095Y-75590247D01*
X111006095Y-75590247D02*
X111006095Y-75828342D01*
X111006095Y-75828342D02*
X111053714Y-75923580D01*
X111053714Y-75923580D02*
X111101333Y-75971200D01*
X111101333Y-75971200D02*
X111196571Y-76018819D01*
X111196571Y-76018819D02*
X111434666Y-76018819D01*
X111434666Y-76018819D02*
X111529904Y-75971200D01*
X111529904Y-75971200D02*
X111577523Y-75923580D01*
X97700057Y-125175761D02*
X97652438Y-125080523D01*
X97652438Y-125080523D02*
X97557200Y-124985285D01*
X97557200Y-124985285D02*
X97414342Y-124842428D01*
X97414342Y-124842428D02*
X97366723Y-124747190D01*
X97366723Y-124747190D02*
X97366723Y-124651952D01*
X97604819Y-124699571D02*
X97557200Y-124604333D01*
X97557200Y-124604333D02*
X97461961Y-124509095D01*
X97461961Y-124509095D02*
X97271485Y-124461476D01*
X97271485Y-124461476D02*
X96938152Y-124461476D01*
X96938152Y-124461476D02*
X96747676Y-124509095D01*
X96747676Y-124509095D02*
X96652438Y-124604333D01*
X96652438Y-124604333D02*
X96604819Y-124699571D01*
X96604819Y-124699571D02*
X96604819Y-124890047D01*
X96604819Y-124890047D02*
X96652438Y-124985285D01*
X96652438Y-124985285D02*
X96747676Y-125080523D01*
X96747676Y-125080523D02*
X96938152Y-125128142D01*
X96938152Y-125128142D02*
X97271485Y-125128142D01*
X97271485Y-125128142D02*
X97461961Y-125080523D01*
X97461961Y-125080523D02*
X97557200Y-124985285D01*
X97557200Y-124985285D02*
X97604819Y-124890047D01*
X97604819Y-124890047D02*
X97604819Y-124699571D01*
X96604819Y-125461476D02*
X96604819Y-126080523D01*
X96604819Y-126080523D02*
X96985771Y-125747190D01*
X96985771Y-125747190D02*
X96985771Y-125890047D01*
X96985771Y-125890047D02*
X97033390Y-125985285D01*
X97033390Y-125985285D02*
X97081009Y-126032904D01*
X97081009Y-126032904D02*
X97176247Y-126080523D01*
X97176247Y-126080523D02*
X97414342Y-126080523D01*
X97414342Y-126080523D02*
X97509580Y-126032904D01*
X97509580Y-126032904D02*
X97557200Y-125985285D01*
X97557200Y-125985285D02*
X97604819Y-125890047D01*
X97604819Y-125890047D02*
X97604819Y-125604333D01*
X97604819Y-125604333D02*
X97557200Y-125509095D01*
X97557200Y-125509095D02*
X97509580Y-125461476D01*
X98658819Y-134945095D02*
X99468342Y-134945095D01*
X99468342Y-134945095D02*
X99563580Y-134992714D01*
X99563580Y-134992714D02*
X99611200Y-135040333D01*
X99611200Y-135040333D02*
X99658819Y-135135571D01*
X99658819Y-135135571D02*
X99658819Y-135326047D01*
X99658819Y-135326047D02*
X99611200Y-135421285D01*
X99611200Y-135421285D02*
X99563580Y-135468904D01*
X99563580Y-135468904D02*
X99468342Y-135516523D01*
X99468342Y-135516523D02*
X98658819Y-135516523D01*
X99658819Y-136516523D02*
X99658819Y-135945095D01*
X99658819Y-136230809D02*
X98658819Y-136230809D01*
X98658819Y-136230809D02*
X98801676Y-136135571D01*
X98801676Y-136135571D02*
X98896914Y-136040333D01*
X98896914Y-136040333D02*
X98944533Y-135945095D01*
X99666666Y-128295819D02*
X99999999Y-127819628D01*
X100238094Y-128295819D02*
X100238094Y-127295819D01*
X100238094Y-127295819D02*
X99857142Y-127295819D01*
X99857142Y-127295819D02*
X99761904Y-127343438D01*
X99761904Y-127343438D02*
X99714285Y-127391057D01*
X99714285Y-127391057D02*
X99666666Y-127486295D01*
X99666666Y-127486295D02*
X99666666Y-127629152D01*
X99666666Y-127629152D02*
X99714285Y-127724390D01*
X99714285Y-127724390D02*
X99761904Y-127772009D01*
X99761904Y-127772009D02*
X99857142Y-127819628D01*
X99857142Y-127819628D02*
X100238094Y-127819628D01*
X98761904Y-127295819D02*
X99238094Y-127295819D01*
X99238094Y-127295819D02*
X99285713Y-127772009D01*
X99285713Y-127772009D02*
X99238094Y-127724390D01*
X99238094Y-127724390D02*
X99142856Y-127676771D01*
X99142856Y-127676771D02*
X98904761Y-127676771D01*
X98904761Y-127676771D02*
X98809523Y-127724390D01*
X98809523Y-127724390D02*
X98761904Y-127772009D01*
X98761904Y-127772009D02*
X98714285Y-127867247D01*
X98714285Y-127867247D02*
X98714285Y-128105342D01*
X98714285Y-128105342D02*
X98761904Y-128200580D01*
X98761904Y-128200580D02*
X98809523Y-128248200D01*
X98809523Y-128248200D02*
X98904761Y-128295819D01*
X98904761Y-128295819D02*
X99142856Y-128295819D01*
X99142856Y-128295819D02*
X99238094Y-128248200D01*
X99238094Y-128248200D02*
X99285713Y-128200580D01*
D14*
%TO.C,R14*%
X70254724Y-125522500D02*
X69745276Y-125522500D01*
X70254724Y-124477500D02*
X69745276Y-124477500D01*
%TO.C,D19*%
X125902000Y-103180000D02*
X128762000Y-103180000D01*
X125902000Y-105100000D02*
X125902000Y-103180000D01*
X128762000Y-105100000D02*
X125902000Y-105100000D01*
%TO.C,R11*%
X78254724Y-94522500D02*
X77745276Y-94522500D01*
X78254724Y-93477500D02*
X77745276Y-93477500D01*
%TO.C,R4*%
X89657776Y-135748500D02*
X90167224Y-135748500D01*
X89657776Y-136793500D02*
X90167224Y-136793500D01*
%TO.C,Q5*%
X98340000Y-125946000D02*
X98340000Y-124536000D01*
X99000000Y-124536000D02*
X98340000Y-124536000D01*
X100660000Y-124536000D02*
X100660000Y-127271000D01*
X100670000Y-124536000D02*
X100000000Y-124536000D01*
%TO.C,R3*%
X95328724Y-129793500D02*
X94819276Y-129793500D01*
X95328724Y-128748500D02*
X94819276Y-128748500D01*
%TO.C,D6*%
X79040000Y-90860000D02*
X79040000Y-88000000D01*
X80960000Y-90860000D02*
X79040000Y-90860000D01*
X80960000Y-88000000D02*
X80960000Y-90860000D01*
%TO.C,Q1*%
X90675000Y-128931000D02*
X89265000Y-128931000D01*
X89265000Y-128271000D02*
X89265000Y-128931000D01*
X89265000Y-126611000D02*
X92000000Y-126611000D01*
X89265000Y-126601000D02*
X89265000Y-127271000D01*
%TO.C,Q4*%
X85000000Y-136831000D02*
X85650000Y-136831000D01*
X85000000Y-136831000D02*
X84350000Y-136831000D01*
X85000000Y-133711000D02*
X86675000Y-133711000D01*
X85000000Y-133711000D02*
X84350000Y-133711000D01*
%TO.C,R1*%
X90657776Y-130248500D02*
X91167224Y-130248500D01*
X90657776Y-131293500D02*
X91167224Y-131293500D01*
%TO.C,R24*%
X123952724Y-104662500D02*
X123443276Y-104662500D01*
X123952724Y-103617500D02*
X123443276Y-103617500D01*
%TO.C,D1*%
X90000000Y-135331000D02*
X90650000Y-135331000D01*
X90000000Y-135331000D02*
X89350000Y-135331000D01*
X90000000Y-132211000D02*
X91675000Y-132211000D01*
X90000000Y-132211000D02*
X89350000Y-132211000D01*
%TO.C,R12*%
X90254724Y-58522500D02*
X89745276Y-58522500D01*
X90254724Y-57477500D02*
X89745276Y-57477500D01*
%TO.C,D9*%
X71040000Y-121860000D02*
X71040000Y-119000000D01*
X72960000Y-121860000D02*
X71040000Y-121860000D01*
X72960000Y-119000000D02*
X72960000Y-121860000D01*
%TO.C,J1*%
X109115000Y-140330000D02*
X109115000Y-137670000D01*
X114255000Y-140330000D02*
X109115000Y-140330000D01*
X114255000Y-140330000D02*
X114255000Y-137670000D01*
X115525000Y-140330000D02*
X116855000Y-140330000D01*
X116855000Y-140330000D02*
X116855000Y-139000000D01*
X114255000Y-137670000D02*
X109115000Y-137670000D01*
%TO.C,D7*%
X91040000Y-54835000D02*
X91040000Y-51975000D01*
X92960000Y-54835000D02*
X91040000Y-54835000D01*
X92960000Y-51975000D02*
X92960000Y-54835000D01*
%TO.C,Q2*%
X99840000Y-133446000D02*
X99840000Y-132036000D01*
X100500000Y-132036000D02*
X99840000Y-132036000D01*
X102160000Y-132036000D02*
X102160000Y-134771000D01*
X102170000Y-132036000D02*
X101500000Y-132036000D01*
%TO.C,D8*%
X135808000Y-137216000D02*
X138668000Y-137216000D01*
X135808000Y-139136000D02*
X135808000Y-137216000D01*
X138668000Y-139136000D02*
X135808000Y-139136000D01*
%TO.C,R2*%
X101508724Y-137249500D02*
X100999276Y-137249500D01*
X101508724Y-136204500D02*
X100999276Y-136204500D01*
%TO.C,R13*%
X133858724Y-138698500D02*
X133349276Y-138698500D01*
X133858724Y-137653500D02*
X133349276Y-137653500D01*
%TO.C,R30*%
X108703724Y-74436500D02*
X108194276Y-74436500D01*
X108703724Y-73391500D02*
X108194276Y-73391500D01*
%TO.C,D25*%
X110408000Y-72954000D02*
X113268000Y-72954000D01*
X110408000Y-74874000D02*
X110408000Y-72954000D01*
X113268000Y-74874000D02*
X110408000Y-74874000D01*
%TO.C,Q3*%
X93990000Y-125946000D02*
X93990000Y-124536000D01*
X94650000Y-124536000D02*
X93990000Y-124536000D01*
X96310000Y-124536000D02*
X96310000Y-127271000D01*
X96320000Y-124536000D02*
X95650000Y-124536000D01*
%TO.C,U1*%
X93244000Y-135707000D02*
X93244000Y-137657000D01*
X93244000Y-135707000D02*
X93244000Y-133757000D01*
X98364000Y-135707000D02*
X98364000Y-139157000D01*
X98364000Y-135707000D02*
X98364000Y-133757000D01*
%TO.C,R5*%
X99754724Y-129793500D02*
X99245276Y-129793500D01*
X99754724Y-128748500D02*
X99245276Y-128748500D01*
%TD*%
%LPC*%
D15*
%TO.C,J2*%
X85644000Y-130627000D03*
X106726000Y-130627000D03*
%TD*%
D16*
%TO.C,R14*%
X70912500Y-125000000D03*
X69087500Y-125000000D03*
%TD*%
D17*
%TO.C,D19*%
X126737000Y-104140000D03*
X128787000Y-104140000D03*
%TD*%
D16*
%TO.C,R11*%
X78912500Y-94000000D03*
X77087500Y-94000000D03*
%TD*%
D18*
%TO.C,R4*%
X89000000Y-136271000D03*
X90825000Y-136271000D03*
%TD*%
D19*
%TO.C,Q5*%
X100150000Y-126601000D03*
X98850000Y-126601000D03*
X99500000Y-123941000D03*
%TD*%
D16*
%TO.C,R3*%
X95986500Y-129271000D03*
X94161500Y-129271000D03*
%TD*%
D20*
%TO.C,D6*%
X80000000Y-90025000D03*
X80000000Y-87975000D03*
%TD*%
D21*
%TO.C,Q1*%
X91330000Y-127121000D03*
X91330000Y-128421000D03*
X88670000Y-127771000D03*
%TD*%
D22*
%TO.C,Q4*%
X85937500Y-134321000D03*
X85937500Y-136221000D03*
X84062500Y-135271000D03*
%TD*%
D18*
%TO.C,R1*%
X90000000Y-130771000D03*
X91825000Y-130771000D03*
%TD*%
D16*
%TO.C,R24*%
X124610500Y-104140000D03*
X122785500Y-104140000D03*
%TD*%
D22*
%TO.C,D1*%
X90937500Y-132821000D03*
X90937500Y-134721000D03*
X89062500Y-133771000D03*
%TD*%
D16*
%TO.C,R12*%
X90912500Y-58000000D03*
X89087500Y-58000000D03*
%TD*%
D23*
%TO.C,J5*%
X98400000Y-93974000D03*
X98400000Y-97276000D03*
X98400000Y-100578000D03*
X98400000Y-103626000D03*
%TD*%
D20*
%TO.C,D9*%
X72000000Y-121025000D03*
X72000000Y-118975000D03*
%TD*%
D24*
%TO.C,J1*%
X115525000Y-139000000D03*
D25*
X112985000Y-139000000D03*
X110445000Y-139000000D03*
%TD*%
D20*
%TO.C,D7*%
X92000000Y-54000000D03*
X92000000Y-51950000D03*
%TD*%
D19*
%TO.C,Q2*%
X101650000Y-134101000D03*
X100350000Y-134101000D03*
X101000000Y-131441000D03*
%TD*%
D17*
%TO.C,D8*%
X136643000Y-138176000D03*
X138693000Y-138176000D03*
%TD*%
D16*
%TO.C,R2*%
X102166500Y-136727000D03*
X100341500Y-136727000D03*
%TD*%
%TO.C,R13*%
X134516500Y-138176000D03*
X132691500Y-138176000D03*
%TD*%
%TO.C,R30*%
X109361500Y-73914000D03*
X107536500Y-73914000D03*
%TD*%
D17*
%TO.C,D25*%
X111243000Y-73914000D03*
X113293000Y-73914000D03*
%TD*%
D19*
%TO.C,Q3*%
X95800000Y-126601000D03*
X94500000Y-126601000D03*
X95150000Y-123941000D03*
%TD*%
D26*
%TO.C,U1*%
X97709000Y-138182000D03*
X96439000Y-138182000D03*
X95169000Y-138182000D03*
X93899000Y-138182000D03*
X93899000Y-133232000D03*
X95169000Y-133232000D03*
X96439000Y-133232000D03*
X97709000Y-133232000D03*
%TD*%
D16*
%TO.C,R5*%
X100412500Y-129271000D03*
X98587500Y-129271000D03*
%TD*%
%LPD*%
M02*
