M48
; DRILL file {KiCad 7.0.8} date Sun Mar 10 12:53:17 2024
; FORMAT={-:-/ absolute / metric / decimal}
; #@! TF.CreationDate,2024-03-10T12:53:17+01:00
; #@! TF.GenerationSoftware,Kicad,Pcbnew,7.0.8
; #@! TF.FileFunction,Plated,1,2,PTH
FMAT,2
METRIC
; #@! TA.AperFunction,Plated,PTH,ViaDrill
T1C0.400
; #@! TA.AperFunction,Plated,PTH,ComponentDrill
T2C1.000
; #@! TA.AperFunction,Plated,PTH,ComponentDrill
T3C1.800
%
G90
G05
T1
X60.071Y-138.811
X67.056Y-127.127
X70.358Y-139.446
X72.005Y-104.196
X74.676Y-94.107
X76.962Y-136.652
X82.55Y-102.87
X83.439Y-140.335
X85.344Y-103.632
X85.852Y-74.422
X86.741Y-61.468
X86.868Y-108.458
X87.376Y-134.75
X87.63Y-101.854
X88.646Y-99.06
X88.646Y-123.825
X88.646Y-139.827
X89.916Y-93.98
X90.424Y-90.932
X90.424Y-95.758
X90.678Y-100.572
X92.964Y-106.68
X94.42Y-108.03
X96.012Y-135.763
X96.393Y-125.095
X97.536Y-135.128
X98.298Y-105.918
X98.552Y-121.412
X100.584Y-90.932
X100.838Y-95.758
X101.092Y-98.806
X101.219Y-125.222
X101.346Y-107.95
X102.108Y-94.234
X103.124Y-104.394
X103.378Y-106.68
X103.378Y-119.888
X103.886Y-133.223
X103.886Y-139.7
X104.267Y-61.087
X104.648Y-114.554
X104.775Y-135.382
X104.902Y-99.314
X104.902Y-102.108
X105.41Y-78.74
X105.41Y-119.634
X106.172Y-126.238
X106.426Y-99.822
X107.188Y-117.975
X109.728Y-135.89
X115.443Y-136.017
X119.634Y-139.7
X121.158Y-105.283
X123.952Y-126.492
X130.365Y-138.436
T2
X110.445Y-139.0
X112.985Y-139.0
X115.525Y-139.0
T3
X85.644Y-130.627
X106.726Y-130.627
T0
M30
