%TF.GenerationSoftware,KiCad,Pcbnew,7.0.8*%
%TF.CreationDate,2024-03-10T12:53:15+01:00*%
%TF.ProjectId,PCB_Christmas_Tree,5043425f-4368-4726-9973-746d61735f54,rev?*%
%TF.SameCoordinates,Original*%
%TF.FileFunction,Copper,L2,Bot*%
%TF.FilePolarity,Positive*%
%FSLAX46Y46*%
G04 Gerber Fmt 4.6, Leading zero omitted, Abs format (unit mm)*
G04 Created by KiCad (PCBNEW 7.0.8) date 2024-03-10 12:53:15*
%MOMM*%
%LPD*%
G01*
G04 APERTURE LIST*
G04 Aperture macros list*
%AMRoundRect*
0 Rectangle with rounded corners*
0 $1 Rounding radius*
0 $2 $3 $4 $5 $6 $7 $8 $9 X,Y pos of 4 corners*
0 Add a 4 corners polygon primitive as box body*
4,1,4,$2,$3,$4,$5,$6,$7,$8,$9,$2,$3,0*
0 Add four circle primitives for the rounded corners*
1,1,$1+$1,$2,$3*
1,1,$1+$1,$4,$5*
1,1,$1+$1,$6,$7*
1,1,$1+$1,$8,$9*
0 Add four rect primitives between the rounded corners*
20,1,$1+$1,$2,$3,$4,$5,0*
20,1,$1+$1,$4,$5,$6,$7,0*
20,1,$1+$1,$6,$7,$8,$9,0*
20,1,$1+$1,$8,$9,$2,$3,0*%
G04 Aperture macros list end*
%TA.AperFunction,ComponentPad*%
%ADD10C,3.000000*%
%TD*%
%TA.AperFunction,SMDPad,CuDef*%
%ADD11RoundRect,0.237500X0.250000X0.237500X-0.250000X0.237500X-0.250000X-0.237500X0.250000X-0.237500X0*%
%TD*%
%TA.AperFunction,SMDPad,CuDef*%
%ADD12RoundRect,0.250000X-0.325000X-0.450000X0.325000X-0.450000X0.325000X0.450000X-0.325000X0.450000X0*%
%TD*%
%TA.AperFunction,SMDPad,CuDef*%
%ADD13RoundRect,0.237500X-0.250000X-0.237500X0.250000X-0.237500X0.250000X0.237500X-0.250000X0.237500X0*%
%TD*%
%TA.AperFunction,SMDPad,CuDef*%
%ADD14R,0.450000X1.500000*%
%TD*%
%TA.AperFunction,SMDPad,CuDef*%
%ADD15RoundRect,0.250000X0.450000X-0.325000X0.450000X0.325000X-0.450000X0.325000X-0.450000X-0.325000X0*%
%TD*%
%TA.AperFunction,SMDPad,CuDef*%
%ADD16R,1.500000X0.450000*%
%TD*%
%TA.AperFunction,SMDPad,CuDef*%
%ADD17RoundRect,0.150000X0.587500X0.150000X-0.587500X0.150000X-0.587500X-0.150000X0.587500X-0.150000X0*%
%TD*%
%TA.AperFunction,SMDPad,CuDef*%
%ADD18R,3.000000X2.000000*%
%TD*%
%TA.AperFunction,ComponentPad*%
%ADD19R,1.700000X1.700000*%
%TD*%
%TA.AperFunction,ComponentPad*%
%ADD20O,1.700000X1.700000*%
%TD*%
%TA.AperFunction,SMDPad,CuDef*%
%ADD21RoundRect,0.150000X0.150000X-0.825000X0.150000X0.825000X-0.150000X0.825000X-0.150000X-0.825000X0*%
%TD*%
%TA.AperFunction,ViaPad*%
%ADD22C,0.800000*%
%TD*%
%TA.AperFunction,Conductor*%
%ADD23C,0.250000*%
%TD*%
G04 APERTURE END LIST*
D10*
%TO.P,J2,1,Pin_1*%
%TO.N,+BATT*%
X85644000Y-130627000D03*
X106726000Y-130627000D03*
%TD*%
D11*
%TO.P,R14,1*%
%TO.N,Net-(D9-K)*%
X70912500Y-125000000D03*
%TO.P,R14,2*%
%TO.N,GND*%
X69087500Y-125000000D03*
%TD*%
D12*
%TO.P,D19,1,K*%
%TO.N,Net-(D19-K)*%
X126737000Y-104140000D03*
%TO.P,D19,2,A*%
%TO.N,/LED_Power_2*%
X128787000Y-104140000D03*
%TD*%
D11*
%TO.P,R11,1*%
%TO.N,Net-(D6-K)*%
X78912500Y-94000000D03*
%TO.P,R11,2*%
%TO.N,GND*%
X77087500Y-94000000D03*
%TD*%
D13*
%TO.P,R4,1*%
%TO.N,Net-(Q4-B)*%
X89000000Y-136271000D03*
%TO.P,R4,2*%
%TO.N,/Power_sustain*%
X90825000Y-136271000D03*
%TD*%
D14*
%TO.P,Q5,1,D*%
%TO.N,/LED_Power_2*%
X100150000Y-126601000D03*
%TO.P,Q5,2,G*%
%TO.N,Net-(Q5-G)*%
X98850000Y-126601000D03*
%TO.P,Q5,3,S*%
%TO.N,VDD*%
X99500000Y-123941000D03*
%TD*%
D11*
%TO.P,R3,1*%
%TO.N,/LED_Set_1*%
X95986500Y-129271000D03*
%TO.P,R3,2*%
%TO.N,Net-(Q3-G)*%
X94161500Y-129271000D03*
%TD*%
D15*
%TO.P,D6,1,K*%
%TO.N,Net-(D6-K)*%
X80000000Y-90025000D03*
%TO.P,D6,2,A*%
%TO.N,/LED_Power_1*%
X80000000Y-87975000D03*
%TD*%
D16*
%TO.P,Q1,1,D*%
%TO.N,VDD*%
X91330000Y-127121000D03*
%TO.P,Q1,2,G*%
%TO.N,Net-(Q1-G)*%
X91330000Y-128421000D03*
%TO.P,Q1,3,S*%
%TO.N,+BATT*%
X88670000Y-127771000D03*
%TD*%
D17*
%TO.P,Q4,1,C*%
%TO.N,Net-(Q1-G)*%
X85937500Y-134321000D03*
%TO.P,Q4,2,B*%
%TO.N,Net-(Q4-B)*%
X85937500Y-136221000D03*
%TO.P,Q4,3,E*%
%TO.N,GND*%
X84062500Y-135271000D03*
%TD*%
D13*
%TO.P,R1,1*%
%TO.N,+BATT*%
X90000000Y-130771000D03*
%TO.P,R1,2*%
%TO.N,Net-(Q1-G)*%
X91825000Y-130771000D03*
%TD*%
D11*
%TO.P,R24,1*%
%TO.N,Net-(D19-K)*%
X124610500Y-104140000D03*
%TO.P,R24,2*%
%TO.N,GND*%
X122785500Y-104140000D03*
%TD*%
D17*
%TO.P,D1,1,A*%
%TO.N,Net-(Q1-G)*%
X90937500Y-132821000D03*
%TO.P,D1,2,A*%
%TO.N,/Switch_in*%
X90937500Y-134721000D03*
%TO.P,D1,3,K*%
%TO.N,Net-(D1-K)*%
X89062500Y-133771000D03*
%TD*%
D11*
%TO.P,R12,1*%
%TO.N,Net-(D7-K)*%
X90912500Y-58000000D03*
%TO.P,R12,2*%
%TO.N,GND*%
X89087500Y-58000000D03*
%TD*%
D18*
%TO.P,J5,1,Pin_1*%
%TO.N,/LED_Power_1*%
X98400000Y-93974000D03*
%TO.P,J5,2,Pin_2*%
%TO.N,/LED_Power_2*%
X98400000Y-97276000D03*
%TO.P,J5,3,Pin_3*%
%TO.N,/LED_Power_3*%
X98400000Y-100578000D03*
%TO.P,J5,4,Pin_4*%
%TO.N,GND*%
X98400000Y-103626000D03*
%TD*%
D15*
%TO.P,D9,1,K*%
%TO.N,Net-(D9-K)*%
X72000000Y-121025000D03*
%TO.P,D9,2,A*%
%TO.N,/LED_Power_3*%
X72000000Y-118975000D03*
%TD*%
D19*
%TO.P,J1,1,Pin_1*%
%TO.N,VDD*%
X115525000Y-139000000D03*
D20*
%TO.P,J1,2,Pin_2*%
%TO.N,/UDPI*%
X112985000Y-139000000D03*
%TO.P,J1,3,Pin_3*%
%TO.N,GND*%
X110445000Y-139000000D03*
%TD*%
D15*
%TO.P,D7,1,K*%
%TO.N,Net-(D7-K)*%
X92000000Y-54000000D03*
%TO.P,D7,2,A*%
%TO.N,/LED_Power_3*%
X92000000Y-51950000D03*
%TD*%
D14*
%TO.P,Q2,1,D*%
%TO.N,/LED_Power_3*%
X101650000Y-134101000D03*
%TO.P,Q2,2,G*%
%TO.N,Net-(Q2-G)*%
X100350000Y-134101000D03*
%TO.P,Q2,3,S*%
%TO.N,VDD*%
X101000000Y-131441000D03*
%TD*%
D12*
%TO.P,D8,1,K*%
%TO.N,Net-(D8-K)*%
X136643000Y-138176000D03*
%TO.P,D8,2,A*%
%TO.N,/LED_Power_1*%
X138693000Y-138176000D03*
%TD*%
D11*
%TO.P,R2,1*%
%TO.N,/LED_Set_3*%
X102166500Y-136727000D03*
%TO.P,R2,2*%
%TO.N,Net-(Q2-G)*%
X100341500Y-136727000D03*
%TD*%
%TO.P,R13,1*%
%TO.N,Net-(D8-K)*%
X134516500Y-138176000D03*
%TO.P,R13,2*%
%TO.N,GND*%
X132691500Y-138176000D03*
%TD*%
%TO.P,R30,1*%
%TO.N,Net-(D25-K)*%
X109361500Y-73914000D03*
%TO.P,R30,2*%
%TO.N,GND*%
X107536500Y-73914000D03*
%TD*%
D12*
%TO.P,D25,1,K*%
%TO.N,Net-(D25-K)*%
X111243000Y-73914000D03*
%TO.P,D25,2,A*%
%TO.N,/LED_Power_2*%
X113293000Y-73914000D03*
%TD*%
D14*
%TO.P,Q3,1,D*%
%TO.N,/LED_Power_1*%
X95800000Y-126601000D03*
%TO.P,Q3,2,G*%
%TO.N,Net-(Q3-G)*%
X94500000Y-126601000D03*
%TO.P,Q3,3,S*%
%TO.N,VDD*%
X95150000Y-123941000D03*
%TD*%
D21*
%TO.P,U1,1,VCC*%
%TO.N,VDD*%
X97709000Y-138182000D03*
%TO.P,U1,2,PA6*%
%TO.N,/LED_Set_3*%
X96439000Y-138182000D03*
%TO.P,U1,3,PA7*%
%TO.N,/Switch_in*%
X95169000Y-138182000D03*
%TO.P,U1,4,PA1*%
%TO.N,/Power_sustain*%
X93899000Y-138182000D03*
%TO.P,U1,5,PA2*%
%TO.N,/LED_Set_1*%
X93899000Y-133232000D03*
%TO.P,U1,6,~{RESET}/PA0*%
%TO.N,/UDPI*%
X95169000Y-133232000D03*
%TO.P,U1,7,PA3*%
%TO.N,/LED_Set_2*%
X96439000Y-133232000D03*
%TO.P,U1,8,GND*%
%TO.N,GND*%
X97709000Y-133232000D03*
%TD*%
D11*
%TO.P,R5,1*%
%TO.N,/LED_Set_2*%
X100412500Y-129271000D03*
%TO.P,R5,2*%
%TO.N,Net-(Q5-G)*%
X98587500Y-129271000D03*
%TD*%
D22*
%TO.N,Net-(D1-K)*%
X87376000Y-134750000D03*
%TO.N,/LED_Power_1*%
X89916000Y-93980000D03*
X82550000Y-102870000D03*
X96393000Y-125095000D03*
X107188000Y-117975000D03*
X102108000Y-94234000D03*
%TO.N,/LED_Power_3*%
X105410000Y-119634000D03*
X106426000Y-99822000D03*
X104775000Y-135382000D03*
X104648000Y-114554000D03*
X101346000Y-107950000D03*
X90678000Y-100572000D03*
%TO.N,/LED_Power_2*%
X87630000Y-101854000D03*
X101219000Y-125222000D03*
X105410000Y-78740000D03*
X88646000Y-99060000D03*
X103378000Y-119888000D03*
X103378000Y-106680000D03*
%TO.N,GND*%
X72005000Y-104196000D03*
X85852000Y-74422000D03*
X83439000Y-140335000D03*
X88646000Y-139827000D03*
X98298000Y-105918000D03*
X123952000Y-126492000D03*
X60071000Y-138811000D03*
X90424000Y-90932000D03*
X103886000Y-133223000D03*
X115443000Y-136017000D03*
X100838000Y-95758000D03*
X94420000Y-108030000D03*
X104267000Y-61087000D03*
X92964000Y-106680000D03*
X121158000Y-105283000D03*
X90424000Y-95758000D03*
X109728000Y-135890000D03*
X76962000Y-136652000D03*
X104902000Y-102108000D03*
X86868000Y-108458000D03*
X104902000Y-99314000D03*
X103886000Y-139700000D03*
X70358000Y-139446000D03*
X88646000Y-123825000D03*
X119634000Y-139700000D03*
X98552000Y-121412000D03*
X130365000Y-138436000D03*
X74676000Y-94107000D03*
X100584000Y-90932000D03*
X103124000Y-104394000D03*
X67056000Y-127127000D03*
X97536000Y-135128000D03*
X106172000Y-126238000D03*
X85344000Y-103632000D03*
X101092000Y-98806000D03*
X86741000Y-61468000D03*
%TO.N,/UDPI*%
X96012000Y-135763000D03*
%TD*%
D23*
%TO.N,Net-(Q1-G)*%
X90937500Y-131658500D02*
X91825000Y-130771000D01*
X91825000Y-129671000D02*
X91825000Y-130771000D01*
X85937500Y-134321000D02*
X87437500Y-132821000D01*
X91330000Y-128421000D02*
X91330000Y-129142000D01*
X90937500Y-132821000D02*
X90937500Y-131658500D01*
X91313000Y-129159000D02*
X91825000Y-129671000D01*
X91330000Y-129142000D02*
X91313000Y-129159000D01*
X87437500Y-132821000D02*
X90937500Y-132821000D01*
%TO.N,/Switch_in*%
X95169000Y-137207000D02*
X92683000Y-134721000D01*
X92683000Y-134721000D02*
X90937500Y-134721000D01*
X95169000Y-138182000D02*
X95169000Y-137207000D01*
%TO.N,Net-(D1-K)*%
X87376000Y-134366000D02*
X87376000Y-134750000D01*
X87971000Y-133771000D02*
X87376000Y-134366000D01*
X89062500Y-133771000D02*
X87971000Y-133771000D01*
%TO.N,/LED_Power_1*%
X80000000Y-87975000D02*
X83911000Y-87975000D01*
X138693000Y-137476000D02*
X134059000Y-132842000D01*
X123444000Y-132842000D02*
X108577000Y-117975000D01*
X86106000Y-94234000D02*
X89662000Y-94234000D01*
X82550000Y-97790000D02*
X86106000Y-94234000D01*
X108577000Y-117975000D02*
X107188000Y-117975000D01*
X82550000Y-102870000D02*
X82550000Y-97790000D01*
X101848000Y-93974000D02*
X102108000Y-94234000D01*
X95800000Y-125688000D02*
X96393000Y-125095000D01*
X89662000Y-94234000D02*
X89916000Y-93980000D01*
X83911000Y-87975000D02*
X89916000Y-93980000D01*
X134059000Y-132842000D02*
X123444000Y-132842000D01*
X138693000Y-138176000D02*
X138693000Y-137476000D01*
X98400000Y-93974000D02*
X101848000Y-93974000D01*
X95800000Y-126601000D02*
X95800000Y-125688000D01*
%TO.N,/LED_Power_3*%
X105664000Y-100584000D02*
X105410000Y-100584000D01*
X93980000Y-94222000D02*
X93980000Y-52578000D01*
X72287000Y-118975000D02*
X72000000Y-118975000D01*
X90678000Y-97524000D02*
X93980000Y-94222000D01*
X98044000Y-111252000D02*
X101346000Y-107950000D01*
X105404000Y-100578000D02*
X101346000Y-100578000D01*
X102931000Y-135382000D02*
X104775000Y-135382000D01*
X90678000Y-100572000D02*
X90678000Y-97524000D01*
X106426000Y-99822000D02*
X105664000Y-100584000D01*
X105410000Y-100584000D02*
X105404000Y-100578000D01*
X94234000Y-111252000D02*
X98044000Y-111252000D01*
X88900000Y-105918000D02*
X94234000Y-111252000D01*
X88900000Y-102350000D02*
X88900000Y-105918000D01*
X101346000Y-100578000D02*
X101346000Y-107950000D01*
X90678000Y-100572000D02*
X90678000Y-100584000D01*
X105410000Y-115316000D02*
X104648000Y-114554000D01*
X105410000Y-119634000D02*
X105410000Y-115316000D01*
X101346000Y-100578000D02*
X98400000Y-100578000D01*
X93980000Y-52578000D02*
X93352000Y-51950000D01*
X90678000Y-100584000D02*
X72287000Y-118975000D01*
X90678000Y-100572000D02*
X88900000Y-102350000D01*
X93352000Y-51950000D02*
X92000000Y-51950000D01*
X101650000Y-134101000D02*
X102931000Y-135382000D01*
%TO.N,Net-(D6-K)*%
X80000000Y-90025000D02*
X80000000Y-92912500D01*
X80000000Y-92912500D02*
X78912500Y-94000000D01*
%TO.N,Net-(D7-K)*%
X92000000Y-56912500D02*
X90912500Y-58000000D01*
X92000000Y-54000000D02*
X92000000Y-56912500D01*
%TO.N,Net-(D8-K)*%
X136643000Y-138176000D02*
X134516500Y-138176000D01*
%TO.N,Net-(D9-K)*%
X72009000Y-121539000D02*
X70912500Y-122635500D01*
X72000000Y-121530000D02*
X72009000Y-121539000D01*
X70912500Y-122635500D02*
X70912500Y-125000000D01*
X72000000Y-121025000D02*
X72000000Y-121530000D01*
%TO.N,/LED_Power_2*%
X105410000Y-93980000D02*
X102114000Y-97276000D01*
X100150000Y-126291000D02*
X101219000Y-125222000D01*
X113293000Y-74667000D02*
X111760000Y-76200000D01*
X105410000Y-78740000D02*
X105410000Y-93980000D01*
X121923000Y-97276000D02*
X108712000Y-97276000D01*
X103378000Y-106680000D02*
X108712000Y-101346000D01*
X108712000Y-97276000D02*
X102114000Y-97276000D01*
X100150000Y-126601000D02*
X100150000Y-126291000D01*
X111760000Y-76200000D02*
X107950000Y-76200000D01*
X108712000Y-101346000D02*
X108712000Y-97276000D01*
X128787000Y-104140000D02*
X121923000Y-97276000D01*
X107950000Y-76200000D02*
X105410000Y-78740000D01*
X102114000Y-97276000D02*
X98400000Y-97276000D01*
X88646000Y-99060000D02*
X88646000Y-100838000D01*
X113293000Y-73914000D02*
X113293000Y-74667000D01*
X88646000Y-100838000D02*
X87630000Y-101854000D01*
X103378000Y-119888000D02*
X103378000Y-106680000D01*
%TO.N,VDD*%
X99500000Y-123941000D02*
X101335000Y-123941000D01*
X103505000Y-131572000D02*
X101131000Y-131572000D01*
X102489000Y-125095000D02*
X102489000Y-129286000D01*
X111252000Y-133985000D02*
X105918000Y-133985000D01*
X100334000Y-131441000D02*
X99060000Y-132715000D01*
X101131000Y-131572000D02*
X101000000Y-131441000D01*
X102489000Y-129286000D02*
X101000000Y-130775000D01*
X97709000Y-136606000D02*
X97709000Y-138182000D01*
X99500000Y-123941000D02*
X95150000Y-123941000D01*
X95150000Y-123941000D02*
X91970000Y-127121000D01*
X101335000Y-123941000D02*
X102489000Y-125095000D01*
X101000000Y-130775000D02*
X101000000Y-131441000D01*
X105918000Y-133985000D02*
X103505000Y-131572000D01*
X99060000Y-132715000D02*
X99060000Y-135255000D01*
X115525000Y-139000000D02*
X115525000Y-138258000D01*
X91970000Y-127121000D02*
X91330000Y-127121000D01*
X99060000Y-135255000D02*
X97709000Y-136606000D01*
X115525000Y-138258000D02*
X111252000Y-133985000D01*
X101000000Y-131441000D02*
X100334000Y-131441000D01*
%TO.N,+BATT*%
X90000000Y-130771000D02*
X85788000Y-130771000D01*
X85644000Y-128986000D02*
X85644000Y-130627000D01*
X88670000Y-127771000D02*
X86859000Y-127771000D01*
X85788000Y-130771000D02*
X85644000Y-130627000D01*
X86859000Y-127771000D02*
X85644000Y-128986000D01*
%TO.N,Net-(Q2-G)*%
X100341500Y-134109500D02*
X100350000Y-134101000D01*
X100341500Y-136727000D02*
X100341500Y-134109500D01*
%TO.N,Net-(Q3-G)*%
X94500000Y-128932500D02*
X94161500Y-129271000D01*
X94500000Y-126601000D02*
X94500000Y-128932500D01*
%TO.N,Net-(Q4-B)*%
X85979000Y-136144000D02*
X86106000Y-136271000D01*
X86106000Y-136271000D02*
X89000000Y-136271000D01*
X85937500Y-136221000D02*
X85937500Y-136185500D01*
X85937500Y-136185500D02*
X85979000Y-136144000D01*
%TO.N,Net-(Q5-G)*%
X98850000Y-129008500D02*
X98587500Y-129271000D01*
X98850000Y-126601000D02*
X98850000Y-129008500D01*
%TO.N,/LED_Set_3*%
X96439000Y-139157000D02*
X97363000Y-140081000D01*
X102166500Y-137228500D02*
X102166500Y-136727000D01*
X99314000Y-140081000D02*
X102166500Y-137228500D01*
X97363000Y-140081000D02*
X99314000Y-140081000D01*
X96439000Y-138182000D02*
X96439000Y-139157000D01*
%TO.N,/LED_Set_1*%
X93899000Y-133232000D02*
X93899000Y-131358500D01*
X93899000Y-131358500D02*
X95986500Y-129271000D01*
%TO.N,/Power_sustain*%
X90825000Y-136271000D02*
X93345000Y-136271000D01*
X93899000Y-136825000D02*
X93899000Y-138182000D01*
X93345000Y-136271000D02*
X93899000Y-136825000D01*
%TO.N,/LED_Set_2*%
X96439000Y-131907000D02*
X96774000Y-131572000D01*
X100412500Y-129965500D02*
X100412500Y-129271000D01*
X96439000Y-133232000D02*
X96439000Y-131907000D01*
X98806000Y-131572000D02*
X100412500Y-129965500D01*
X96774000Y-131572000D02*
X98806000Y-131572000D01*
%TO.N,Net-(D19-K)*%
X126737000Y-104140000D02*
X124610500Y-104140000D01*
%TO.N,Net-(D25-K)*%
X111243000Y-73914000D02*
X109361500Y-73914000D01*
%TO.N,/UDPI*%
X96012000Y-135050000D02*
X96012000Y-135763000D01*
X95169000Y-133232000D02*
X95169000Y-134207000D01*
X95169000Y-134207000D02*
X96012000Y-135050000D01*
%TD*%
%TA.AperFunction,Conductor*%
%TO.N,GND*%
G36*
X97902039Y-133001685D02*
G01*
X97947794Y-133054489D01*
X97959000Y-133106000D01*
X97959000Y-134704295D01*
X97959001Y-134704295D01*
X97961486Y-134704100D01*
X98119198Y-134658281D01*
X98247379Y-134582476D01*
X98315103Y-134565293D01*
X98381366Y-134587453D01*
X98425129Y-134641919D01*
X98434500Y-134689208D01*
X98434500Y-134944546D01*
X98414815Y-135011585D01*
X98398181Y-135032227D01*
X97325208Y-136105199D01*
X97312951Y-136115020D01*
X97313134Y-136115241D01*
X97307123Y-136120213D01*
X97259772Y-136170636D01*
X97238889Y-136191519D01*
X97238877Y-136191532D01*
X97234621Y-136197017D01*
X97230837Y-136201447D01*
X97198937Y-136235418D01*
X97198936Y-136235420D01*
X97189284Y-136252976D01*
X97178610Y-136269226D01*
X97166329Y-136285061D01*
X97166324Y-136285068D01*
X97147815Y-136327838D01*
X97145245Y-136333084D01*
X97122803Y-136373906D01*
X97117822Y-136393307D01*
X97111521Y-136411710D01*
X97103562Y-136430102D01*
X97103561Y-136430105D01*
X97096271Y-136476127D01*
X97095087Y-136481846D01*
X97083501Y-136526972D01*
X97083500Y-136526982D01*
X97083500Y-136547016D01*
X97081973Y-136566415D01*
X97078840Y-136586194D01*
X97078840Y-136586195D01*
X97083225Y-136632583D01*
X97083500Y-136638421D01*
X97083500Y-136676308D01*
X97063815Y-136743347D01*
X97011011Y-136789102D01*
X96941853Y-136799046D01*
X96896380Y-136783041D01*
X96863877Y-136763819D01*
X96849398Y-136755256D01*
X96849396Y-136755255D01*
X96849394Y-136755254D01*
X96691573Y-136709402D01*
X96691567Y-136709401D01*
X96654696Y-136706500D01*
X96654694Y-136706500D01*
X96627038Y-136706500D01*
X96559999Y-136686815D01*
X96514244Y-136634011D01*
X96504300Y-136564853D01*
X96533325Y-136501297D01*
X96554153Y-136482182D01*
X96574873Y-136467127D01*
X96617871Y-136435888D01*
X96744533Y-136295216D01*
X96839179Y-136131284D01*
X96897674Y-135951256D01*
X96917460Y-135763000D01*
X96897674Y-135574744D01*
X96839179Y-135394716D01*
X96744533Y-135230784D01*
X96739782Y-135225507D01*
X96670199Y-135148227D01*
X96639969Y-135085235D01*
X96638410Y-135069150D01*
X96637500Y-135040185D01*
X96637500Y-135010654D01*
X96637500Y-135010650D01*
X96636631Y-135003772D01*
X96636172Y-134997943D01*
X96634709Y-134951372D01*
X96629122Y-134932144D01*
X96625174Y-134913084D01*
X96622663Y-134893204D01*
X96612966Y-134868713D01*
X96606589Y-134799135D01*
X96638841Y-134737155D01*
X96693659Y-134703990D01*
X96849398Y-134658744D01*
X96990865Y-134575081D01*
X96990868Y-134575077D01*
X96997026Y-134570301D01*
X96998839Y-134572638D01*
X97047949Y-134545798D01*
X97117643Y-134550756D01*
X97149996Y-134571551D01*
X97151278Y-134569900D01*
X97157447Y-134574685D01*
X97298801Y-134658281D01*
X97456514Y-134704100D01*
X97456511Y-134704100D01*
X97458998Y-134704295D01*
X97459000Y-134704295D01*
X97459000Y-133106000D01*
X97478685Y-133038961D01*
X97531489Y-132993206D01*
X97583000Y-132982000D01*
X97835000Y-132982000D01*
X97902039Y-133001685D01*
G37*
%TD.AperFunction*%
%TA.AperFunction,Conductor*%
G36*
X97055703Y-43502857D02*
G01*
X97076247Y-43525695D01*
X107837179Y-58974999D01*
X120813308Y-77604628D01*
X120835472Y-77670889D01*
X120818294Y-77738614D01*
X120767228Y-77786301D01*
X120711558Y-77799500D01*
X108450952Y-77799500D01*
X108450006Y-77799458D01*
X108449902Y-77799500D01*
X108449901Y-77799500D01*
X108449821Y-77799532D01*
X108449634Y-77799601D01*
X108449633Y-77799601D01*
X108449621Y-77799606D01*
X108449545Y-77799791D01*
X108449453Y-77799987D01*
X108449538Y-77800193D01*
X108449603Y-77800370D01*
X108450298Y-77801065D01*
X123619228Y-94348988D01*
X135519485Y-107331087D01*
X135758390Y-107591710D01*
X135789180Y-107654430D01*
X135781173Y-107723839D01*
X135736911Y-107777901D01*
X135670448Y-107799452D01*
X135666983Y-107799500D01*
X115952648Y-107799500D01*
X115950022Y-107799416D01*
X115949585Y-107799580D01*
X115949407Y-107799973D01*
X115949567Y-107800392D01*
X115951370Y-107802309D01*
X145767090Y-141593459D01*
X145796684Y-141656751D01*
X145787362Y-141725996D01*
X145742084Y-141779209D01*
X145675224Y-141799495D01*
X145674110Y-141799500D01*
X46225889Y-141799500D01*
X46158850Y-141779815D01*
X46113095Y-141727011D01*
X46103151Y-141657853D01*
X46132176Y-141594297D01*
X46132909Y-141593459D01*
X49486738Y-137792452D01*
X51490959Y-135521001D01*
X82827704Y-135521001D01*
X82827899Y-135523486D01*
X82873718Y-135681198D01*
X82957314Y-135822552D01*
X82957321Y-135822561D01*
X83073438Y-135938678D01*
X83073447Y-135938685D01*
X83214803Y-136022282D01*
X83214806Y-136022283D01*
X83372504Y-136068099D01*
X83372510Y-136068100D01*
X83409356Y-136071000D01*
X83812500Y-136071000D01*
X83812500Y-135521000D01*
X82827705Y-135521000D01*
X82827704Y-135521001D01*
X51490959Y-135521001D01*
X51932138Y-135020998D01*
X82827704Y-135020998D01*
X82827705Y-135021000D01*
X83812500Y-135021000D01*
X83812500Y-134471000D01*
X83409356Y-134471000D01*
X83372510Y-134473899D01*
X83372504Y-134473900D01*
X83214806Y-134519716D01*
X83214803Y-134519717D01*
X83073447Y-134603314D01*
X83073438Y-134603321D01*
X82957321Y-134719438D01*
X82957314Y-134719447D01*
X82873718Y-134860801D01*
X82827899Y-135018513D01*
X82827704Y-135020998D01*
X51932138Y-135020998D01*
X55809194Y-130627001D01*
X83638390Y-130627001D01*
X83658804Y-130912433D01*
X83719628Y-131192037D01*
X83719630Y-131192043D01*
X83719631Y-131192046D01*
X83805107Y-131421215D01*
X83819635Y-131460166D01*
X83956770Y-131711309D01*
X83956775Y-131711317D01*
X84128254Y-131940387D01*
X84128270Y-131940405D01*
X84330594Y-132142729D01*
X84330612Y-132142745D01*
X84559682Y-132314224D01*
X84559690Y-132314229D01*
X84810833Y-132451364D01*
X84810832Y-132451364D01*
X84810836Y-132451365D01*
X84810839Y-132451367D01*
X85078954Y-132551369D01*
X85078960Y-132551370D01*
X85078962Y-132551371D01*
X85358566Y-132612195D01*
X85358568Y-132612195D01*
X85358572Y-132612196D01*
X85612220Y-132630337D01*
X85643999Y-132632610D01*
X85644000Y-132632610D01*
X85644001Y-132632610D01*
X85672595Y-132630564D01*
X85929428Y-132612196D01*
X86130609Y-132568432D01*
X86209037Y-132551371D01*
X86209037Y-132551370D01*
X86209046Y-132551369D01*
X86477161Y-132451367D01*
X86701321Y-132328965D01*
X86769592Y-132314114D01*
X86835057Y-132338531D01*
X86876929Y-132394464D01*
X86881913Y-132464155D01*
X86848429Y-132525479D01*
X86848428Y-132525479D01*
X85889728Y-133484181D01*
X85828405Y-133517666D01*
X85802047Y-133520500D01*
X85284304Y-133520500D01*
X85247432Y-133523401D01*
X85247426Y-133523402D01*
X85089606Y-133569254D01*
X85089603Y-133569255D01*
X84948137Y-133652917D01*
X84948129Y-133652923D01*
X84831923Y-133769129D01*
X84831917Y-133769137D01*
X84748255Y-133910603D01*
X84748254Y-133910606D01*
X84702402Y-134068426D01*
X84702401Y-134068432D01*
X84699500Y-134105304D01*
X84699500Y-134347000D01*
X84679815Y-134414039D01*
X84627011Y-134459794D01*
X84575500Y-134471000D01*
X84312500Y-134471000D01*
X84312500Y-135021000D01*
X84968185Y-135021000D01*
X85031306Y-135038268D01*
X85089602Y-135072744D01*
X85131224Y-135084836D01*
X85247426Y-135118597D01*
X85247429Y-135118597D01*
X85247431Y-135118598D01*
X85259722Y-135119565D01*
X85284304Y-135121500D01*
X85284306Y-135121500D01*
X86479086Y-135121500D01*
X86546125Y-135141185D01*
X86586473Y-135183500D01*
X86615918Y-135234500D01*
X86632391Y-135302400D01*
X86609539Y-135368427D01*
X86554617Y-135411618D01*
X86508531Y-135420500D01*
X85284304Y-135420500D01*
X85247432Y-135423401D01*
X85247426Y-135423402D01*
X85089606Y-135469254D01*
X85089603Y-135469255D01*
X85031306Y-135503732D01*
X84968185Y-135521000D01*
X84312500Y-135521000D01*
X84312500Y-136071000D01*
X84575500Y-136071000D01*
X84642539Y-136090685D01*
X84688294Y-136143489D01*
X84699500Y-136195000D01*
X84699500Y-136436696D01*
X84702401Y-136473567D01*
X84702402Y-136473573D01*
X84748254Y-136631393D01*
X84748255Y-136631396D01*
X84748256Y-136631398D01*
X84767241Y-136663500D01*
X84831917Y-136772862D01*
X84831923Y-136772870D01*
X84948129Y-136889076D01*
X84948133Y-136889079D01*
X84948135Y-136889081D01*
X85089602Y-136972744D01*
X85099092Y-136975501D01*
X85247426Y-137018597D01*
X85247429Y-137018597D01*
X85247431Y-137018598D01*
X85259722Y-137019565D01*
X85284304Y-137021500D01*
X85284306Y-137021500D01*
X86590696Y-137021500D01*
X86609131Y-137020049D01*
X86627569Y-137018598D01*
X86627571Y-137018597D01*
X86627573Y-137018597D01*
X86682221Y-137002720D01*
X86785398Y-136972744D01*
X86885121Y-136913767D01*
X86948242Y-136896500D01*
X88053019Y-136896500D01*
X88120058Y-136916185D01*
X88158558Y-136955404D01*
X88167160Y-136969350D01*
X88289150Y-137091340D01*
X88435984Y-137181908D01*
X88599747Y-137236174D01*
X88700823Y-137246500D01*
X89299176Y-137246499D01*
X89299184Y-137246498D01*
X89299187Y-137246498D01*
X89354530Y-137240844D01*
X89400253Y-137236174D01*
X89564016Y-137181908D01*
X89710850Y-137091340D01*
X89824819Y-136977371D01*
X89886142Y-136943886D01*
X89955834Y-136948870D01*
X90000181Y-136977371D01*
X90114150Y-137091340D01*
X90260984Y-137181908D01*
X90424747Y-137236174D01*
X90525823Y-137246500D01*
X91124176Y-137246499D01*
X91124184Y-137246498D01*
X91124187Y-137246498D01*
X91179530Y-137240844D01*
X91225253Y-137236174D01*
X91389016Y-137181908D01*
X91535850Y-137091340D01*
X91657840Y-136969350D01*
X91666442Y-136955404D01*
X91718390Y-136908679D01*
X91771981Y-136896500D01*
X93034548Y-136896500D01*
X93101587Y-136916185D01*
X93122229Y-136932819D01*
X93130807Y-136941397D01*
X93164292Y-137002720D01*
X93159308Y-137072412D01*
X93149865Y-137092187D01*
X93147260Y-137096591D01*
X93147254Y-137096607D01*
X93101402Y-137254426D01*
X93101401Y-137254432D01*
X93098500Y-137291304D01*
X93098500Y-139072696D01*
X93101401Y-139109567D01*
X93101402Y-139109573D01*
X93147254Y-139267393D01*
X93147255Y-139267396D01*
X93230917Y-139408862D01*
X93230923Y-139408870D01*
X93347129Y-139525076D01*
X93347133Y-139525079D01*
X93347135Y-139525081D01*
X93488602Y-139608744D01*
X93521452Y-139618288D01*
X93646426Y-139654597D01*
X93646429Y-139654597D01*
X93646431Y-139654598D01*
X93658722Y-139655565D01*
X93683304Y-139657500D01*
X93683306Y-139657500D01*
X94114696Y-139657500D01*
X94133131Y-139656049D01*
X94151569Y-139654598D01*
X94151571Y-139654597D01*
X94151573Y-139654597D01*
X94220443Y-139634588D01*
X94309398Y-139608744D01*
X94450865Y-139525081D01*
X94450870Y-139525075D01*
X94457031Y-139520298D01*
X94458933Y-139522750D01*
X94507579Y-139496155D01*
X94577274Y-139501104D01*
X94609695Y-139521940D01*
X94610969Y-139520298D01*
X94617132Y-139525078D01*
X94617135Y-139525081D01*
X94758602Y-139608744D01*
X94791452Y-139618288D01*
X94916426Y-139654597D01*
X94916429Y-139654597D01*
X94916431Y-139654598D01*
X94928722Y-139655565D01*
X94953304Y-139657500D01*
X94953306Y-139657500D01*
X95384696Y-139657500D01*
X95403131Y-139656049D01*
X95421569Y-139654598D01*
X95421571Y-139654597D01*
X95421573Y-139654597D01*
X95490443Y-139634588D01*
X95579398Y-139608744D01*
X95720865Y-139525081D01*
X95720870Y-139525075D01*
X95727031Y-139520298D01*
X95728933Y-139522750D01*
X95777579Y-139496155D01*
X95847274Y-139501104D01*
X95879695Y-139521940D01*
X95880969Y-139520298D01*
X95887129Y-139525075D01*
X95887135Y-139525081D01*
X95933882Y-139552727D01*
X95945916Y-139559844D01*
X95972687Y-139584195D01*
X95974066Y-139582901D01*
X95979405Y-139588587D01*
X96015309Y-139618288D01*
X96019621Y-139622211D01*
X96670838Y-140273429D01*
X96862197Y-140464788D01*
X96872022Y-140477051D01*
X96872243Y-140476869D01*
X96877214Y-140482878D01*
X96898043Y-140502437D01*
X96927635Y-140530226D01*
X96948529Y-140551120D01*
X96954011Y-140555373D01*
X96958443Y-140559157D01*
X96992418Y-140591062D01*
X97009976Y-140600714D01*
X97026235Y-140611395D01*
X97042064Y-140623673D01*
X97084838Y-140642182D01*
X97090056Y-140644738D01*
X97130908Y-140667197D01*
X97150316Y-140672180D01*
X97168717Y-140678480D01*
X97187104Y-140686437D01*
X97230488Y-140693308D01*
X97233119Y-140693725D01*
X97238839Y-140694909D01*
X97283981Y-140706500D01*
X97304016Y-140706500D01*
X97323414Y-140708026D01*
X97343194Y-140711159D01*
X97343195Y-140711160D01*
X97343195Y-140711159D01*
X97343196Y-140711160D01*
X97389584Y-140706775D01*
X97395422Y-140706500D01*
X99231257Y-140706500D01*
X99246877Y-140708224D01*
X99246904Y-140707939D01*
X99254660Y-140708671D01*
X99254667Y-140708673D01*
X99323814Y-140706500D01*
X99353350Y-140706500D01*
X99360228Y-140705630D01*
X99366041Y-140705172D01*
X99412627Y-140703709D01*
X99431869Y-140698117D01*
X99450912Y-140694174D01*
X99470792Y-140691664D01*
X99514122Y-140674507D01*
X99519646Y-140672617D01*
X99523396Y-140671527D01*
X99564390Y-140659618D01*
X99581629Y-140649422D01*
X99599103Y-140640862D01*
X99617727Y-140633488D01*
X99617727Y-140633487D01*
X99617732Y-140633486D01*
X99655449Y-140606082D01*
X99660305Y-140602892D01*
X99700420Y-140579170D01*
X99714589Y-140564999D01*
X99729379Y-140552368D01*
X99745587Y-140540594D01*
X99775299Y-140504676D01*
X99779212Y-140500376D01*
X102550288Y-137729301D01*
X102562542Y-137719486D01*
X102562359Y-137719264D01*
X102568368Y-137714291D01*
X102568377Y-137714286D01*
X102577725Y-137704330D01*
X102629111Y-137671509D01*
X102730516Y-137637908D01*
X102877350Y-137547340D01*
X102999340Y-137425350D01*
X103089908Y-137278516D01*
X103144174Y-137114753D01*
X103154500Y-137013677D01*
X103154499Y-136440324D01*
X103154128Y-136436696D01*
X103144174Y-136339247D01*
X103129583Y-136295214D01*
X103089908Y-136175484D01*
X103089905Y-136175480D01*
X103088257Y-136170505D01*
X103085855Y-136100676D01*
X103121586Y-136040634D01*
X103184107Y-136009441D01*
X103205963Y-136007500D01*
X104071252Y-136007500D01*
X104138291Y-136027185D01*
X104163400Y-136048526D01*
X104169126Y-136054885D01*
X104169130Y-136054889D01*
X104322265Y-136166148D01*
X104322270Y-136166151D01*
X104495192Y-136243142D01*
X104495197Y-136243144D01*
X104680354Y-136282500D01*
X104680355Y-136282500D01*
X104869644Y-136282500D01*
X104869646Y-136282500D01*
X105054803Y-136243144D01*
X105227730Y-136166151D01*
X105380871Y-136054888D01*
X105507533Y-135914216D01*
X105602179Y-135750284D01*
X105660674Y-135570256D01*
X105680460Y-135382000D01*
X105660674Y-135193744D01*
X105602179Y-135013716D01*
X105507533Y-134849784D01*
X105380871Y-134709112D01*
X105380870Y-134709111D01*
X105227734Y-134597851D01*
X105227729Y-134597848D01*
X105054807Y-134520857D01*
X105054802Y-134520855D01*
X104909001Y-134489865D01*
X104869646Y-134481500D01*
X104680354Y-134481500D01*
X104647897Y-134488398D01*
X104495197Y-134520855D01*
X104495192Y-134520857D01*
X104322270Y-134597848D01*
X104322265Y-134597851D01*
X104169130Y-134709110D01*
X104169126Y-134709114D01*
X104163400Y-134715474D01*
X104103913Y-134752121D01*
X104071252Y-134756500D01*
X103241452Y-134756500D01*
X103174413Y-134736815D01*
X103153771Y-134720181D01*
X102411818Y-133978227D01*
X102378333Y-133916904D01*
X102375499Y-133890546D01*
X102375499Y-133303129D01*
X102375498Y-133303123D01*
X102374219Y-133291226D01*
X102369091Y-133243517D01*
X102367052Y-133238051D01*
X102318797Y-133108671D01*
X102318793Y-133108664D01*
X102232547Y-132993455D01*
X102232544Y-132993452D01*
X102117335Y-132907206D01*
X102117328Y-132907202D01*
X101982486Y-132856910D01*
X101982485Y-132856909D01*
X101982483Y-132856909D01*
X101922873Y-132850500D01*
X101922864Y-132850500D01*
X101551743Y-132850500D01*
X101484704Y-132830815D01*
X101438949Y-132778011D01*
X101429005Y-132708853D01*
X101458030Y-132645297D01*
X101477424Y-132627240D01*
X101582546Y-132548546D01*
X101668796Y-132433331D01*
X101719091Y-132298483D01*
X101720390Y-132292986D01*
X101754963Y-132232270D01*
X101816873Y-132199883D01*
X101841067Y-132197500D01*
X103194548Y-132197500D01*
X103261587Y-132217185D01*
X103282228Y-132233818D01*
X104351532Y-133303123D01*
X105417197Y-134368788D01*
X105427022Y-134381051D01*
X105427243Y-134380869D01*
X105432214Y-134386878D01*
X105458217Y-134411295D01*
X105482635Y-134434226D01*
X105503529Y-134455120D01*
X105509011Y-134459373D01*
X105513443Y-134463157D01*
X105547418Y-134495062D01*
X105564976Y-134504714D01*
X105581235Y-134515395D01*
X105597064Y-134527673D01*
X105639838Y-134546182D01*
X105645056Y-134548738D01*
X105685908Y-134571197D01*
X105705316Y-134576180D01*
X105723717Y-134582480D01*
X105742104Y-134590437D01*
X105785488Y-134597308D01*
X105788119Y-134597725D01*
X105793839Y-134598909D01*
X105838981Y-134610500D01*
X105859016Y-134610500D01*
X105878414Y-134612026D01*
X105898194Y-134615159D01*
X105898195Y-134615160D01*
X105898195Y-134615159D01*
X105898196Y-134615160D01*
X105944584Y-134610775D01*
X105950422Y-134610500D01*
X110941548Y-134610500D01*
X111008587Y-134630185D01*
X111029229Y-134646819D01*
X114190848Y-137808438D01*
X114224333Y-137869761D01*
X114219349Y-137939452D01*
X114182189Y-138039082D01*
X114140317Y-138095016D01*
X114074853Y-138119433D01*
X114006580Y-138104581D01*
X113978326Y-138083430D01*
X113856402Y-137961506D01*
X113856395Y-137961501D01*
X113662834Y-137825967D01*
X113662830Y-137825965D01*
X113625243Y-137808438D01*
X113448663Y-137726097D01*
X113448659Y-137726096D01*
X113448655Y-137726094D01*
X113220413Y-137664938D01*
X113220403Y-137664936D01*
X112985001Y-137644341D01*
X112984999Y-137644341D01*
X112749596Y-137664936D01*
X112749586Y-137664938D01*
X112521344Y-137726094D01*
X112521335Y-137726098D01*
X112307171Y-137825964D01*
X112307169Y-137825965D01*
X112113597Y-137961505D01*
X111946508Y-138128594D01*
X111816269Y-138314595D01*
X111761692Y-138358219D01*
X111692193Y-138365412D01*
X111629839Y-138333890D01*
X111613119Y-138314594D01*
X111483113Y-138128926D01*
X111483108Y-138128920D01*
X111316082Y-137961894D01*
X111122578Y-137826399D01*
X110908492Y-137726570D01*
X110908486Y-137726567D01*
X110695000Y-137669364D01*
X110695000Y-138564498D01*
X110587315Y-138515320D01*
X110480763Y-138500000D01*
X110409237Y-138500000D01*
X110302685Y-138515320D01*
X110195000Y-138564498D01*
X110195000Y-137669364D01*
X110194999Y-137669364D01*
X109981513Y-137726567D01*
X109981507Y-137726570D01*
X109767422Y-137826399D01*
X109767420Y-137826400D01*
X109573926Y-137961886D01*
X109573920Y-137961891D01*
X109406891Y-138128920D01*
X109406886Y-138128926D01*
X109271400Y-138322420D01*
X109271399Y-138322422D01*
X109171570Y-138536507D01*
X109171567Y-138536513D01*
X109114364Y-138749999D01*
X109114364Y-138750000D01*
X110011314Y-138750000D01*
X109985507Y-138790156D01*
X109945000Y-138928111D01*
X109945000Y-139071889D01*
X109985507Y-139209844D01*
X110011314Y-139250000D01*
X109114364Y-139250000D01*
X109171567Y-139463486D01*
X109171570Y-139463492D01*
X109271399Y-139677578D01*
X109406894Y-139871082D01*
X109573917Y-140038105D01*
X109767421Y-140173600D01*
X109981507Y-140273429D01*
X109981516Y-140273433D01*
X110195000Y-140330634D01*
X110195000Y-139435501D01*
X110302685Y-139484680D01*
X110409237Y-139500000D01*
X110480763Y-139500000D01*
X110587315Y-139484680D01*
X110695000Y-139435501D01*
X110695000Y-140330633D01*
X110908483Y-140273433D01*
X110908492Y-140273429D01*
X111122578Y-140173600D01*
X111316082Y-140038105D01*
X111483105Y-139871082D01*
X111613119Y-139685405D01*
X111667696Y-139641781D01*
X111737195Y-139634588D01*
X111799549Y-139666110D01*
X111816269Y-139685405D01*
X111946505Y-139871401D01*
X112113599Y-140038495D01*
X112210384Y-140106265D01*
X112307165Y-140174032D01*
X112307167Y-140174033D01*
X112307170Y-140174035D01*
X112521337Y-140273903D01*
X112749592Y-140335063D01*
X112926034Y-140350500D01*
X112984999Y-140355659D01*
X112985000Y-140355659D01*
X112985001Y-140355659D01*
X113043966Y-140350500D01*
X113220408Y-140335063D01*
X113448663Y-140273903D01*
X113662830Y-140174035D01*
X113856401Y-140038495D01*
X113978329Y-139916566D01*
X114039648Y-139883084D01*
X114109340Y-139888068D01*
X114165274Y-139929939D01*
X114182189Y-139960917D01*
X114231202Y-140092328D01*
X114231206Y-140092335D01*
X114317452Y-140207544D01*
X114317455Y-140207547D01*
X114432664Y-140293793D01*
X114432671Y-140293797D01*
X114567517Y-140344091D01*
X114567516Y-140344091D01*
X114574444Y-140344835D01*
X114627127Y-140350500D01*
X116422872Y-140350499D01*
X116482483Y-140344091D01*
X116617331Y-140293796D01*
X116732546Y-140207546D01*
X116818796Y-140092331D01*
X116869091Y-139957483D01*
X116875500Y-139897873D01*
X116875499Y-138426000D01*
X131704001Y-138426000D01*
X131704001Y-138462654D01*
X131714319Y-138563652D01*
X131768546Y-138727300D01*
X131768551Y-138727311D01*
X131859052Y-138874034D01*
X131859055Y-138874038D01*
X131980961Y-138995944D01*
X131980965Y-138995947D01*
X132127688Y-139086448D01*
X132127699Y-139086453D01*
X132291347Y-139140680D01*
X132392351Y-139150999D01*
X132441499Y-139150998D01*
X132441500Y-139150998D01*
X132441500Y-138426000D01*
X131704001Y-138426000D01*
X116875499Y-138426000D01*
X116875499Y-138102128D01*
X116869091Y-138042517D01*
X116839019Y-137961891D01*
X116825633Y-137926000D01*
X131704000Y-137926000D01*
X132441500Y-137926000D01*
X132441500Y-137201000D01*
X132441499Y-137200999D01*
X132392361Y-137201000D01*
X132392343Y-137201001D01*
X132291347Y-137211319D01*
X132127699Y-137265546D01*
X132127688Y-137265551D01*
X131980965Y-137356052D01*
X131980961Y-137356055D01*
X131859055Y-137477961D01*
X131859052Y-137477965D01*
X131768551Y-137624688D01*
X131768546Y-137624699D01*
X131714319Y-137788347D01*
X131704000Y-137889345D01*
X131704000Y-137926000D01*
X116825633Y-137926000D01*
X116818797Y-137907671D01*
X116818793Y-137907664D01*
X116732547Y-137792455D01*
X116732544Y-137792452D01*
X116617335Y-137706206D01*
X116617328Y-137706202D01*
X116482482Y-137655908D01*
X116482483Y-137655908D01*
X116422883Y-137649501D01*
X116422881Y-137649500D01*
X116422873Y-137649500D01*
X116422865Y-137649500D01*
X115852452Y-137649500D01*
X115785413Y-137629815D01*
X115764771Y-137613181D01*
X113762734Y-135611144D01*
X111752803Y-133601212D01*
X111742980Y-133588950D01*
X111742759Y-133589134D01*
X111737786Y-133583123D01*
X111687364Y-133535773D01*
X111672091Y-133520500D01*
X111666475Y-133514883D01*
X111660986Y-133510625D01*
X111656561Y-133506847D01*
X111622582Y-133474938D01*
X111622580Y-133474936D01*
X111622577Y-133474935D01*
X111605029Y-133465288D01*
X111588763Y-133454604D01*
X111579525Y-133447438D01*
X111572936Y-133442327D01*
X111572935Y-133442326D01*
X111572933Y-133442325D01*
X111530168Y-133423818D01*
X111524922Y-133421248D01*
X111484093Y-133398803D01*
X111484092Y-133398802D01*
X111464693Y-133393822D01*
X111446281Y-133387518D01*
X111427898Y-133379562D01*
X111427892Y-133379560D01*
X111381874Y-133372272D01*
X111376152Y-133371087D01*
X111331021Y-133359500D01*
X111331019Y-133359500D01*
X111310984Y-133359500D01*
X111291586Y-133357973D01*
X111284162Y-133356797D01*
X111271805Y-133354840D01*
X111271804Y-133354840D01*
X111225416Y-133359225D01*
X111219578Y-133359500D01*
X106228453Y-133359500D01*
X106161414Y-133339815D01*
X106140772Y-133323181D01*
X104005803Y-131188212D01*
X103995980Y-131175950D01*
X103995759Y-131176134D01*
X103990786Y-131170123D01*
X103978676Y-131158751D01*
X103940364Y-131122773D01*
X103929919Y-131112328D01*
X103919475Y-131101883D01*
X103913986Y-131097625D01*
X103909561Y-131093847D01*
X103875582Y-131061938D01*
X103875580Y-131061936D01*
X103875577Y-131061935D01*
X103858029Y-131052288D01*
X103841763Y-131041604D01*
X103825933Y-131029325D01*
X103783168Y-131010818D01*
X103777922Y-131008248D01*
X103737093Y-130985803D01*
X103737092Y-130985802D01*
X103717693Y-130980822D01*
X103699281Y-130974518D01*
X103680898Y-130966562D01*
X103680892Y-130966560D01*
X103634874Y-130959272D01*
X103629152Y-130958087D01*
X103584021Y-130946500D01*
X103584019Y-130946500D01*
X103563984Y-130946500D01*
X103544586Y-130944973D01*
X103536333Y-130943666D01*
X103524805Y-130941840D01*
X103524804Y-130941840D01*
X103478416Y-130946225D01*
X103472578Y-130946500D01*
X102012452Y-130946500D01*
X101945413Y-130926815D01*
X101899658Y-130874011D01*
X101889714Y-130804853D01*
X101918739Y-130741297D01*
X101924771Y-130734819D01*
X102032589Y-130627001D01*
X104720390Y-130627001D01*
X104740804Y-130912433D01*
X104801628Y-131192037D01*
X104801630Y-131192043D01*
X104801631Y-131192046D01*
X104887107Y-131421215D01*
X104901635Y-131460166D01*
X105038770Y-131711309D01*
X105038775Y-131711317D01*
X105210254Y-131940387D01*
X105210270Y-131940405D01*
X105412594Y-132142729D01*
X105412612Y-132142745D01*
X105641682Y-132314224D01*
X105641690Y-132314229D01*
X105892833Y-132451364D01*
X105892832Y-132451364D01*
X105892836Y-132451365D01*
X105892839Y-132451367D01*
X106160954Y-132551369D01*
X106160960Y-132551370D01*
X106160962Y-132551371D01*
X106440566Y-132612195D01*
X106440568Y-132612195D01*
X106440572Y-132612196D01*
X106694220Y-132630337D01*
X106725999Y-132632610D01*
X106726000Y-132632610D01*
X106726001Y-132632610D01*
X106754595Y-132630564D01*
X107011428Y-132612196D01*
X107212609Y-132568432D01*
X107291037Y-132551371D01*
X107291037Y-132551370D01*
X107291046Y-132551369D01*
X107559161Y-132451367D01*
X107810315Y-132314226D01*
X108039395Y-132142739D01*
X108241739Y-131940395D01*
X108413226Y-131711315D01*
X108550367Y-131460161D01*
X108650369Y-131192046D01*
X108653830Y-131176134D01*
X108711195Y-130912433D01*
X108711195Y-130912432D01*
X108711196Y-130912428D01*
X108731610Y-130627000D01*
X108711196Y-130341572D01*
X108690514Y-130246500D01*
X108650371Y-130061962D01*
X108650370Y-130061960D01*
X108650369Y-130061954D01*
X108550367Y-129793839D01*
X108541238Y-129777121D01*
X108413229Y-129542690D01*
X108413224Y-129542682D01*
X108241745Y-129313612D01*
X108241729Y-129313594D01*
X108039405Y-129111270D01*
X108039387Y-129111254D01*
X107810317Y-128939775D01*
X107810309Y-128939770D01*
X107559166Y-128802635D01*
X107559167Y-128802635D01*
X107427385Y-128753483D01*
X107291046Y-128702631D01*
X107291043Y-128702630D01*
X107291037Y-128702628D01*
X107011433Y-128641804D01*
X106726001Y-128621390D01*
X106725999Y-128621390D01*
X106440566Y-128641804D01*
X106160962Y-128702628D01*
X105892833Y-128802635D01*
X105641690Y-128939770D01*
X105641682Y-128939775D01*
X105412612Y-129111254D01*
X105412594Y-129111270D01*
X105210270Y-129313594D01*
X105210254Y-129313612D01*
X105038775Y-129542682D01*
X105038770Y-129542690D01*
X104901635Y-129793833D01*
X104801628Y-130061962D01*
X104740804Y-130341566D01*
X104720390Y-130626998D01*
X104720390Y-130627001D01*
X102032589Y-130627001D01*
X102388738Y-130270852D01*
X102872788Y-129786801D01*
X102885042Y-129776986D01*
X102884859Y-129776764D01*
X102890866Y-129771792D01*
X102890877Y-129771786D01*
X102929805Y-129730332D01*
X102938227Y-129721364D01*
X102948671Y-129710918D01*
X102959120Y-129700471D01*
X102963379Y-129694978D01*
X102967152Y-129690561D01*
X102999062Y-129656582D01*
X103008715Y-129639020D01*
X103019389Y-129622770D01*
X103031673Y-129606936D01*
X103050180Y-129564167D01*
X103052749Y-129558924D01*
X103061674Y-129542690D01*
X103075197Y-129518092D01*
X103080177Y-129498691D01*
X103086478Y-129480288D01*
X103094438Y-129461896D01*
X103101730Y-129415849D01*
X103102911Y-129410152D01*
X103114500Y-129365019D01*
X103114500Y-129344983D01*
X103116027Y-129325582D01*
X103117924Y-129313605D01*
X103119160Y-129305804D01*
X103114775Y-129259415D01*
X103114500Y-129253577D01*
X103114500Y-125177737D01*
X103116224Y-125162123D01*
X103115938Y-125162096D01*
X103116672Y-125154333D01*
X103114500Y-125085202D01*
X103114500Y-125055651D01*
X103114500Y-125055650D01*
X103113629Y-125048759D01*
X103113172Y-125042945D01*
X103112495Y-125021407D01*
X103111709Y-124996372D01*
X103106120Y-124977137D01*
X103102174Y-124958084D01*
X103099664Y-124938208D01*
X103082501Y-124894859D01*
X103080614Y-124889346D01*
X103067617Y-124844610D01*
X103067616Y-124844608D01*
X103057421Y-124827369D01*
X103048860Y-124809893D01*
X103047308Y-124805975D01*
X103041486Y-124791268D01*
X103041486Y-124791267D01*
X103031474Y-124777488D01*
X103014083Y-124753550D01*
X103010900Y-124748705D01*
X102987170Y-124708579D01*
X102987165Y-124708573D01*
X102973005Y-124694413D01*
X102960370Y-124679620D01*
X102948593Y-124663412D01*
X102912693Y-124633713D01*
X102908381Y-124629790D01*
X101835803Y-123557212D01*
X101825980Y-123544950D01*
X101825759Y-123545134D01*
X101820786Y-123539123D01*
X101770364Y-123491773D01*
X101759919Y-123481328D01*
X101749475Y-123470883D01*
X101743986Y-123466625D01*
X101739561Y-123462847D01*
X101705582Y-123430938D01*
X101705580Y-123430936D01*
X101705577Y-123430935D01*
X101688029Y-123421288D01*
X101671763Y-123410604D01*
X101655933Y-123398325D01*
X101613168Y-123379818D01*
X101607922Y-123377248D01*
X101567093Y-123354803D01*
X101567092Y-123354802D01*
X101547693Y-123349822D01*
X101529281Y-123343518D01*
X101510898Y-123335562D01*
X101510892Y-123335560D01*
X101464874Y-123328272D01*
X101459152Y-123327087D01*
X101414021Y-123315500D01*
X101414019Y-123315500D01*
X101393984Y-123315500D01*
X101374586Y-123313973D01*
X101367162Y-123312797D01*
X101354805Y-123310840D01*
X101354804Y-123310840D01*
X101308416Y-123315225D01*
X101302578Y-123315500D01*
X100349499Y-123315500D01*
X100282460Y-123295815D01*
X100236705Y-123243011D01*
X100225499Y-123191500D01*
X100225499Y-123143129D01*
X100225498Y-123143123D01*
X100225497Y-123143116D01*
X100219091Y-123083517D01*
X100168796Y-122948669D01*
X100168795Y-122948668D01*
X100168793Y-122948664D01*
X100082547Y-122833455D01*
X100082544Y-122833452D01*
X99967335Y-122747206D01*
X99967328Y-122747202D01*
X99832486Y-122696910D01*
X99832485Y-122696909D01*
X99832483Y-122696909D01*
X99772873Y-122690500D01*
X99772863Y-122690500D01*
X99227129Y-122690500D01*
X99227123Y-122690501D01*
X99167516Y-122696908D01*
X99032671Y-122747202D01*
X99032664Y-122747206D01*
X98917455Y-122833452D01*
X98917452Y-122833455D01*
X98831206Y-122948664D01*
X98831202Y-122948671D01*
X98780908Y-123083517D01*
X98774501Y-123143116D01*
X98774501Y-123143123D01*
X98774500Y-123143135D01*
X98774500Y-123191500D01*
X98754815Y-123258539D01*
X98702011Y-123304294D01*
X98650500Y-123315500D01*
X95999499Y-123315500D01*
X95932460Y-123295815D01*
X95886705Y-123243011D01*
X95875499Y-123191500D01*
X95875499Y-123143129D01*
X95875498Y-123143123D01*
X95875497Y-123143116D01*
X95869091Y-123083517D01*
X95818796Y-122948669D01*
X95818795Y-122948668D01*
X95818793Y-122948664D01*
X95732547Y-122833455D01*
X95732544Y-122833452D01*
X95617335Y-122747206D01*
X95617328Y-122747202D01*
X95482486Y-122696910D01*
X95482485Y-122696909D01*
X95482483Y-122696909D01*
X95422873Y-122690500D01*
X95422863Y-122690500D01*
X94877129Y-122690500D01*
X94877123Y-122690501D01*
X94817516Y-122696908D01*
X94682671Y-122747202D01*
X94682664Y-122747206D01*
X94567455Y-122833452D01*
X94567452Y-122833455D01*
X94481206Y-122948664D01*
X94481202Y-122948671D01*
X94430908Y-123083517D01*
X94424501Y-123143116D01*
X94424501Y-123143123D01*
X94424500Y-123143135D01*
X94424500Y-123730546D01*
X94404815Y-123797585D01*
X94388181Y-123818227D01*
X91847226Y-126359181D01*
X91785903Y-126392666D01*
X91759545Y-126395500D01*
X90532129Y-126395500D01*
X90532123Y-126395501D01*
X90472516Y-126401908D01*
X90337671Y-126452202D01*
X90337664Y-126452206D01*
X90222455Y-126538452D01*
X90222452Y-126538455D01*
X90136206Y-126653664D01*
X90136202Y-126653671D01*
X90085910Y-126788513D01*
X90085909Y-126788517D01*
X90079500Y-126848127D01*
X90079500Y-126848134D01*
X90079500Y-126848135D01*
X90079500Y-127219256D01*
X90059815Y-127286295D01*
X90007011Y-127332050D01*
X89937853Y-127341994D01*
X89874297Y-127312969D01*
X89856236Y-127293570D01*
X89777546Y-127188454D01*
X89736631Y-127157825D01*
X89662335Y-127102206D01*
X89662328Y-127102202D01*
X89527482Y-127051908D01*
X89527483Y-127051908D01*
X89467883Y-127045501D01*
X89467881Y-127045500D01*
X89467873Y-127045500D01*
X89467864Y-127045500D01*
X87872129Y-127045500D01*
X87872123Y-127045501D01*
X87812516Y-127051908D01*
X87677671Y-127102202D01*
X87677668Y-127102204D01*
X87652872Y-127120767D01*
X87587408Y-127145184D01*
X87578561Y-127145500D01*
X86941737Y-127145500D01*
X86926120Y-127143776D01*
X86926093Y-127144062D01*
X86918331Y-127143327D01*
X86849203Y-127145500D01*
X86819650Y-127145500D01*
X86818929Y-127145590D01*
X86812757Y-127146369D01*
X86806945Y-127146826D01*
X86760372Y-127148290D01*
X86760369Y-127148291D01*
X86741126Y-127153881D01*
X86722083Y-127157825D01*
X86702204Y-127160336D01*
X86702203Y-127160337D01*
X86658878Y-127177490D01*
X86653352Y-127179382D01*
X86608608Y-127192383D01*
X86608604Y-127192385D01*
X86591365Y-127202580D01*
X86573898Y-127211137D01*
X86555269Y-127218512D01*
X86555267Y-127218513D01*
X86517564Y-127245906D01*
X86512682Y-127249112D01*
X86472580Y-127272828D01*
X86458408Y-127287000D01*
X86443623Y-127299628D01*
X86427412Y-127311407D01*
X86397709Y-127347310D01*
X86393777Y-127351631D01*
X85260208Y-128485199D01*
X85247951Y-128495020D01*
X85248134Y-128495241D01*
X85242123Y-128500213D01*
X85194772Y-128550636D01*
X85173889Y-128571519D01*
X85173877Y-128571532D01*
X85169621Y-128577017D01*
X85165837Y-128581447D01*
X85133937Y-128615418D01*
X85133936Y-128615420D01*
X85124284Y-128632976D01*
X85113610Y-128649226D01*
X85096551Y-128671222D01*
X85095493Y-128670401D01*
X85050398Y-128712503D01*
X85038075Y-128717878D01*
X84810833Y-128802635D01*
X84559690Y-128939770D01*
X84559682Y-128939775D01*
X84330612Y-129111254D01*
X84330594Y-129111270D01*
X84128270Y-129313594D01*
X84128254Y-129313612D01*
X83956775Y-129542682D01*
X83956770Y-129542690D01*
X83819635Y-129793833D01*
X83719628Y-130061962D01*
X83658804Y-130341566D01*
X83638390Y-130626998D01*
X83638390Y-130627001D01*
X55809194Y-130627001D01*
X60553607Y-125250000D01*
X68100001Y-125250000D01*
X68100001Y-125286654D01*
X68110319Y-125387652D01*
X68164546Y-125551300D01*
X68164551Y-125551311D01*
X68255052Y-125698034D01*
X68255055Y-125698038D01*
X68376961Y-125819944D01*
X68376965Y-125819947D01*
X68523688Y-125910448D01*
X68523699Y-125910453D01*
X68687347Y-125964680D01*
X68788351Y-125974999D01*
X68837499Y-125974998D01*
X68837500Y-125974998D01*
X68837500Y-125250000D01*
X68100001Y-125250000D01*
X60553607Y-125250000D01*
X60994783Y-124750000D01*
X68100000Y-124750000D01*
X68837500Y-124750000D01*
X68837500Y-124025000D01*
X68837499Y-124024999D01*
X68788361Y-124025000D01*
X68788343Y-124025001D01*
X68687347Y-124035319D01*
X68523699Y-124089546D01*
X68523688Y-124089551D01*
X68376965Y-124180052D01*
X68376961Y-124180055D01*
X68255055Y-124301961D01*
X68255052Y-124301965D01*
X68164551Y-124448688D01*
X68164546Y-124448699D01*
X68110319Y-124612347D01*
X68100000Y-124713345D01*
X68100000Y-124750000D01*
X60994783Y-124750000D01*
X75948664Y-107802268D01*
X75950463Y-107800352D01*
X75950596Y-107799998D01*
X75950594Y-107799908D01*
X75950441Y-107799568D01*
X75950427Y-107799556D01*
X75950059Y-107799417D01*
X75947396Y-107799500D01*
X56233018Y-107799500D01*
X56165979Y-107779815D01*
X56120224Y-107727011D01*
X56110280Y-107657853D01*
X56139305Y-107594297D01*
X56141611Y-107591710D01*
X56377585Y-107334284D01*
X68371511Y-94250000D01*
X76100001Y-94250000D01*
X76100001Y-94286654D01*
X76110319Y-94387652D01*
X76164546Y-94551300D01*
X76164551Y-94551311D01*
X76255052Y-94698034D01*
X76255055Y-94698038D01*
X76376961Y-94819944D01*
X76376965Y-94819947D01*
X76523688Y-94910448D01*
X76523699Y-94910453D01*
X76687347Y-94964680D01*
X76788351Y-94974999D01*
X77337500Y-94974999D01*
X77386640Y-94974999D01*
X77386654Y-94974998D01*
X77487652Y-94964680D01*
X77651300Y-94910453D01*
X77651311Y-94910448D01*
X77798033Y-94819948D01*
X77911964Y-94706017D01*
X77973287Y-94672532D01*
X78042979Y-94677516D01*
X78087327Y-94706017D01*
X78201650Y-94820340D01*
X78348484Y-94910908D01*
X78512247Y-94965174D01*
X78613323Y-94975500D01*
X79211676Y-94975499D01*
X79211684Y-94975498D01*
X79211687Y-94975498D01*
X79267030Y-94969844D01*
X79312753Y-94965174D01*
X79476516Y-94910908D01*
X79623350Y-94820340D01*
X79745340Y-94698350D01*
X79835908Y-94551516D01*
X79890174Y-94387753D01*
X79900500Y-94286677D01*
X79900499Y-93947951D01*
X79920183Y-93880913D01*
X79936813Y-93860276D01*
X80383788Y-93413301D01*
X80396042Y-93403486D01*
X80395859Y-93403264D01*
X80401866Y-93398292D01*
X80401877Y-93398286D01*
X80432775Y-93365382D01*
X80449227Y-93347864D01*
X80459671Y-93337418D01*
X80470120Y-93326971D01*
X80474379Y-93321478D01*
X80478152Y-93317061D01*
X80510062Y-93283082D01*
X80519713Y-93265524D01*
X80530396Y-93249261D01*
X80542673Y-93233436D01*
X80561185Y-93190653D01*
X80563738Y-93185441D01*
X80586197Y-93144592D01*
X80591180Y-93125180D01*
X80597481Y-93106780D01*
X80605437Y-93088396D01*
X80612729Y-93042352D01*
X80613906Y-93036671D01*
X80625500Y-92991519D01*
X80625500Y-92971483D01*
X80627027Y-92952082D01*
X80630160Y-92932304D01*
X80625775Y-92885915D01*
X80625500Y-92880077D01*
X80625500Y-91172016D01*
X80645185Y-91104977D01*
X80697989Y-91059222D01*
X80710488Y-91054313D01*
X80769334Y-91034814D01*
X80918656Y-90942712D01*
X81042712Y-90818656D01*
X81134814Y-90669334D01*
X81189999Y-90502797D01*
X81200500Y-90400009D01*
X81200499Y-89649992D01*
X81189999Y-89547203D01*
X81134814Y-89380666D01*
X81042712Y-89231344D01*
X80918656Y-89107288D01*
X80915819Y-89105538D01*
X80914283Y-89103830D01*
X80912989Y-89102807D01*
X80913163Y-89102585D01*
X80869096Y-89053594D01*
X80857872Y-88984632D01*
X80885713Y-88920549D01*
X80915817Y-88894462D01*
X80918656Y-88892712D01*
X81042712Y-88768656D01*
X81110099Y-88659402D01*
X81162047Y-88612679D01*
X81215638Y-88600500D01*
X83600548Y-88600500D01*
X83667587Y-88620185D01*
X83688229Y-88636819D01*
X88448228Y-93396819D01*
X88481713Y-93458142D01*
X88476729Y-93527834D01*
X88434857Y-93583767D01*
X88369393Y-93608184D01*
X88360547Y-93608500D01*
X86188737Y-93608500D01*
X86173120Y-93606776D01*
X86173093Y-93607062D01*
X86165331Y-93606327D01*
X86096203Y-93608500D01*
X86066650Y-93608500D01*
X86065929Y-93608590D01*
X86059757Y-93609369D01*
X86053945Y-93609826D01*
X86007372Y-93611290D01*
X86007369Y-93611291D01*
X85988126Y-93616881D01*
X85969083Y-93620825D01*
X85949204Y-93623336D01*
X85949203Y-93623337D01*
X85905878Y-93640490D01*
X85900352Y-93642382D01*
X85855608Y-93655383D01*
X85855604Y-93655385D01*
X85838365Y-93665580D01*
X85820898Y-93674137D01*
X85802269Y-93681512D01*
X85802267Y-93681513D01*
X85764564Y-93708906D01*
X85759682Y-93712112D01*
X85719580Y-93735828D01*
X85705408Y-93750000D01*
X85690623Y-93762628D01*
X85674412Y-93774407D01*
X85644709Y-93810310D01*
X85640777Y-93814631D01*
X82166208Y-97289199D01*
X82153951Y-97299020D01*
X82154134Y-97299241D01*
X82148123Y-97304213D01*
X82100772Y-97354636D01*
X82079889Y-97375519D01*
X82079877Y-97375532D01*
X82075621Y-97381017D01*
X82071837Y-97385447D01*
X82039937Y-97419418D01*
X82039936Y-97419420D01*
X82030284Y-97436976D01*
X82019610Y-97453226D01*
X82007329Y-97469061D01*
X82007324Y-97469068D01*
X81988815Y-97511838D01*
X81986245Y-97517084D01*
X81963803Y-97557906D01*
X81958822Y-97577307D01*
X81952521Y-97595710D01*
X81944562Y-97614102D01*
X81944561Y-97614105D01*
X81937271Y-97660127D01*
X81936087Y-97665846D01*
X81924501Y-97710972D01*
X81924500Y-97710982D01*
X81924500Y-97731016D01*
X81922973Y-97750415D01*
X81919840Y-97770194D01*
X81919840Y-97770195D01*
X81924225Y-97816583D01*
X81924500Y-97822421D01*
X81924500Y-102171312D01*
X81904815Y-102238351D01*
X81892650Y-102254284D01*
X81817466Y-102337784D01*
X81722821Y-102501715D01*
X81722818Y-102501722D01*
X81678491Y-102638148D01*
X81664326Y-102681744D01*
X81644540Y-102870000D01*
X81664326Y-103058256D01*
X81664327Y-103058259D01*
X81722818Y-103238277D01*
X81722821Y-103238284D01*
X81817467Y-103402216D01*
X81939010Y-103537203D01*
X81944129Y-103542888D01*
X82097265Y-103654148D01*
X82097270Y-103654151D01*
X82270192Y-103731142D01*
X82270197Y-103731144D01*
X82455354Y-103770500D01*
X82455355Y-103770500D01*
X82644644Y-103770500D01*
X82644646Y-103770500D01*
X82829803Y-103731144D01*
X83002730Y-103654151D01*
X83155871Y-103542888D01*
X83282533Y-103402216D01*
X83377179Y-103238284D01*
X83435674Y-103058256D01*
X83455460Y-102870000D01*
X83435674Y-102681744D01*
X83377179Y-102501716D01*
X83282533Y-102337784D01*
X83207350Y-102254284D01*
X83177120Y-102191292D01*
X83175500Y-102171312D01*
X83175500Y-98100452D01*
X83195185Y-98033413D01*
X83211819Y-98012771D01*
X86328772Y-94895819D01*
X86390095Y-94862334D01*
X86416453Y-94859500D01*
X89579257Y-94859500D01*
X89594877Y-94861224D01*
X89594904Y-94860939D01*
X89602660Y-94861671D01*
X89602667Y-94861673D01*
X89671814Y-94859500D01*
X89701350Y-94859500D01*
X89705248Y-94859500D01*
X89705248Y-94859868D01*
X89734329Y-94862002D01*
X89821354Y-94880500D01*
X90010644Y-94880500D01*
X90010646Y-94880500D01*
X90195803Y-94841144D01*
X90368730Y-94764151D01*
X90521871Y-94652888D01*
X90648533Y-94512216D01*
X90743179Y-94348284D01*
X90801674Y-94168256D01*
X90821460Y-93980000D01*
X90801674Y-93791744D01*
X90743179Y-93611716D01*
X90648533Y-93447784D01*
X90521871Y-93307112D01*
X90514787Y-93301965D01*
X90368734Y-93195851D01*
X90368729Y-93195848D01*
X90195807Y-93118857D01*
X90195802Y-93118855D01*
X90050001Y-93087865D01*
X90010646Y-93079500D01*
X90010645Y-93079500D01*
X89951453Y-93079500D01*
X89884414Y-93059815D01*
X89863772Y-93043181D01*
X84411803Y-87591212D01*
X84401980Y-87578950D01*
X84401759Y-87579134D01*
X84396786Y-87573123D01*
X84346364Y-87525773D01*
X84335919Y-87515328D01*
X84325475Y-87504883D01*
X84319986Y-87500625D01*
X84315561Y-87496847D01*
X84281582Y-87464938D01*
X84281580Y-87464936D01*
X84281577Y-87464935D01*
X84264029Y-87455288D01*
X84247763Y-87444604D01*
X84231933Y-87432325D01*
X84189168Y-87413818D01*
X84183922Y-87411248D01*
X84143093Y-87388803D01*
X84143092Y-87388802D01*
X84123693Y-87383822D01*
X84105281Y-87377518D01*
X84086898Y-87369562D01*
X84086892Y-87369560D01*
X84040874Y-87362272D01*
X84035152Y-87361087D01*
X83990021Y-87349500D01*
X83990019Y-87349500D01*
X83969984Y-87349500D01*
X83950586Y-87347973D01*
X83943162Y-87346797D01*
X83930805Y-87344840D01*
X83930804Y-87344840D01*
X83884416Y-87349225D01*
X83878578Y-87349500D01*
X81215638Y-87349500D01*
X81148599Y-87329815D01*
X81110099Y-87290597D01*
X81042712Y-87181344D01*
X80918656Y-87057288D01*
X80769334Y-86965186D01*
X80602797Y-86910001D01*
X80602795Y-86910000D01*
X80500010Y-86899500D01*
X79499998Y-86899500D01*
X79499980Y-86899501D01*
X79397203Y-86910000D01*
X79397200Y-86910001D01*
X79230668Y-86965185D01*
X79230663Y-86965187D01*
X79081342Y-87057289D01*
X78957289Y-87181342D01*
X78865187Y-87330663D01*
X78865185Y-87330668D01*
X78845921Y-87388803D01*
X78810001Y-87497203D01*
X78810001Y-87497204D01*
X78810000Y-87497204D01*
X78799500Y-87599983D01*
X78799500Y-88350001D01*
X78799501Y-88350019D01*
X78810000Y-88452796D01*
X78810001Y-88452799D01*
X78865185Y-88619331D01*
X78865187Y-88619336D01*
X78957289Y-88768657D01*
X79081346Y-88892714D01*
X79084182Y-88894463D01*
X79085717Y-88896170D01*
X79087011Y-88897193D01*
X79086836Y-88897414D01*
X79130905Y-88946411D01*
X79142126Y-89015374D01*
X79114282Y-89079456D01*
X79084182Y-89105537D01*
X79081346Y-89107285D01*
X78957289Y-89231342D01*
X78865187Y-89380663D01*
X78865186Y-89380666D01*
X78810001Y-89547203D01*
X78810001Y-89547204D01*
X78810000Y-89547204D01*
X78799500Y-89649983D01*
X78799500Y-90400001D01*
X78799501Y-90400019D01*
X78810000Y-90502796D01*
X78810001Y-90502799D01*
X78865185Y-90669331D01*
X78865186Y-90669334D01*
X78957288Y-90818656D01*
X79081344Y-90942712D01*
X79230666Y-91034814D01*
X79230668Y-91034815D01*
X79251110Y-91041588D01*
X79289502Y-91054310D01*
X79346947Y-91094081D01*
X79373772Y-91158596D01*
X79374500Y-91172016D01*
X79374500Y-92602046D01*
X79354815Y-92669085D01*
X79338181Y-92689727D01*
X79039726Y-92988181D01*
X78978403Y-93021666D01*
X78952045Y-93024500D01*
X78613331Y-93024500D01*
X78613312Y-93024501D01*
X78512247Y-93034825D01*
X78348484Y-93089092D01*
X78348481Y-93089093D01*
X78201651Y-93179659D01*
X78087327Y-93293983D01*
X78026004Y-93327467D01*
X77956312Y-93322483D01*
X77911965Y-93293982D01*
X77798038Y-93180055D01*
X77798034Y-93180052D01*
X77651311Y-93089551D01*
X77651300Y-93089546D01*
X77487652Y-93035319D01*
X77386654Y-93025000D01*
X77337500Y-93025000D01*
X77337500Y-94974999D01*
X76788351Y-94974999D01*
X76837499Y-94974998D01*
X76837500Y-94974998D01*
X76837500Y-94250000D01*
X76100001Y-94250000D01*
X68371511Y-94250000D01*
X68829844Y-93750000D01*
X76100000Y-93750000D01*
X76837500Y-93750000D01*
X76837500Y-93025000D01*
X76837499Y-93024999D01*
X76788361Y-93025000D01*
X76788343Y-93025001D01*
X76687347Y-93035319D01*
X76523699Y-93089546D01*
X76523688Y-93089551D01*
X76376965Y-93180052D01*
X76376961Y-93180055D01*
X76255055Y-93301961D01*
X76255052Y-93301965D01*
X76164551Y-93448688D01*
X76164546Y-93448699D01*
X76110319Y-93612347D01*
X76100000Y-93713345D01*
X76100000Y-93750000D01*
X68829844Y-93750000D01*
X83447913Y-77803014D01*
X83450300Y-77800706D01*
X83450543Y-77800080D01*
X83450539Y-77799900D01*
X83450538Y-77799889D01*
X83450444Y-77799675D01*
X83450418Y-77799651D01*
X83450372Y-77799604D01*
X83450194Y-77799539D01*
X83449973Y-77799448D01*
X83447670Y-77799500D01*
X71188443Y-77799500D01*
X71121404Y-77779815D01*
X71075649Y-77727011D01*
X71065705Y-77657853D01*
X71086693Y-77604628D01*
X84170819Y-58819948D01*
X84567806Y-58250000D01*
X88100001Y-58250000D01*
X88100001Y-58286654D01*
X88110319Y-58387652D01*
X88164546Y-58551300D01*
X88164551Y-58551311D01*
X88255052Y-58698034D01*
X88255055Y-58698038D01*
X88376961Y-58819944D01*
X88376965Y-58819947D01*
X88523688Y-58910448D01*
X88523699Y-58910453D01*
X88687347Y-58964680D01*
X88788351Y-58974999D01*
X88837499Y-58974998D01*
X88837500Y-58974998D01*
X88837500Y-58250000D01*
X88100001Y-58250000D01*
X84567806Y-58250000D01*
X84916072Y-57750000D01*
X88100000Y-57750000D01*
X88837500Y-57750000D01*
X88837500Y-57025000D01*
X88837499Y-57024999D01*
X88788361Y-57025000D01*
X88788343Y-57025001D01*
X88687347Y-57035319D01*
X88523699Y-57089546D01*
X88523688Y-57089551D01*
X88376965Y-57180052D01*
X88376961Y-57180055D01*
X88255055Y-57301961D01*
X88255052Y-57301965D01*
X88164551Y-57448688D01*
X88164546Y-57448699D01*
X88110319Y-57612347D01*
X88100000Y-57713345D01*
X88100000Y-57750000D01*
X84916072Y-57750000D01*
X94823751Y-43525695D01*
X94878219Y-43481937D01*
X94947699Y-43474572D01*
X95010131Y-43505941D01*
X95045694Y-43566083D01*
X95049500Y-43596569D01*
X95049500Y-109975467D01*
X95049416Y-109975889D01*
X95049459Y-110000001D01*
X95049500Y-110000099D01*
X95049616Y-110000382D01*
X95049618Y-110000384D01*
X95049808Y-110000462D01*
X95050000Y-110000541D01*
X95050002Y-110000539D01*
X95074616Y-110000524D01*
X95074616Y-110000528D01*
X95074760Y-110000500D01*
X96825240Y-110000500D01*
X96825383Y-110000528D01*
X96825384Y-110000524D01*
X96849997Y-110000539D01*
X96850000Y-110000541D01*
X96850383Y-110000383D01*
X96850500Y-110000099D01*
X96850541Y-110000000D01*
X96850540Y-109999997D01*
X96850583Y-109975889D01*
X96850500Y-109975467D01*
X96850500Y-105250000D01*
X96870185Y-105182961D01*
X96922989Y-105137206D01*
X96974500Y-105126000D01*
X99546447Y-105126000D01*
X99546447Y-105125999D01*
X98134128Y-103713680D01*
X98100643Y-103652357D01*
X98105627Y-103582665D01*
X98134128Y-103538318D01*
X98312318Y-103360128D01*
X98373641Y-103326643D01*
X98443333Y-103331627D01*
X98487680Y-103360128D01*
X100173436Y-105045884D01*
X100257190Y-104983186D01*
X100343350Y-104868093D01*
X100343354Y-104868086D01*
X100393596Y-104733379D01*
X100393598Y-104733372D01*
X100399999Y-104673844D01*
X100400000Y-104673827D01*
X100400000Y-102578172D01*
X100399999Y-102578155D01*
X100393598Y-102518627D01*
X100393596Y-102518620D01*
X100343354Y-102383913D01*
X100343350Y-102383906D01*
X100257190Y-102268813D01*
X100167378Y-102201579D01*
X100125507Y-102145645D01*
X100120523Y-102075953D01*
X100154008Y-102014630D01*
X100167371Y-102003050D01*
X100257546Y-101935546D01*
X100343796Y-101820331D01*
X100394091Y-101685483D01*
X100400500Y-101625873D01*
X100400500Y-101327500D01*
X100420185Y-101260461D01*
X100472989Y-101214706D01*
X100524500Y-101203500D01*
X100596500Y-101203500D01*
X100663539Y-101223185D01*
X100709294Y-101275989D01*
X100720500Y-101327500D01*
X100720500Y-107251312D01*
X100700815Y-107318351D01*
X100688650Y-107334284D01*
X100613466Y-107417784D01*
X100518821Y-107581715D01*
X100518818Y-107581722D01*
X100460327Y-107761740D01*
X100460326Y-107761744D01*
X100456065Y-107802290D01*
X100442679Y-107929649D01*
X100416094Y-107994263D01*
X100407039Y-108004368D01*
X97821228Y-110590181D01*
X97759905Y-110623666D01*
X97733547Y-110626500D01*
X94544453Y-110626500D01*
X94477414Y-110606815D01*
X94456772Y-110590181D01*
X89561819Y-105695228D01*
X89528334Y-105633905D01*
X89525500Y-105607547D01*
X89525500Y-102672452D01*
X89545185Y-102605413D01*
X89561819Y-102584771D01*
X90637771Y-101508819D01*
X90699094Y-101475334D01*
X90725452Y-101472500D01*
X90772644Y-101472500D01*
X90772646Y-101472500D01*
X90957803Y-101433144D01*
X91130730Y-101356151D01*
X91283871Y-101244888D01*
X91410533Y-101104216D01*
X91505179Y-100940284D01*
X91563674Y-100760256D01*
X91583460Y-100572000D01*
X91563674Y-100383744D01*
X91505179Y-100203716D01*
X91410533Y-100039784D01*
X91383946Y-100010256D01*
X91335350Y-99956284D01*
X91305120Y-99893292D01*
X91303500Y-99873312D01*
X91303500Y-97834452D01*
X91323185Y-97767413D01*
X91339819Y-97746771D01*
X92647771Y-96438819D01*
X94363788Y-94722801D01*
X94376042Y-94712986D01*
X94375859Y-94712764D01*
X94381866Y-94707792D01*
X94381877Y-94707786D01*
X94412775Y-94674882D01*
X94429227Y-94657364D01*
X94439671Y-94646918D01*
X94450120Y-94636471D01*
X94454379Y-94630978D01*
X94458152Y-94626561D01*
X94490062Y-94592582D01*
X94499713Y-94575024D01*
X94510396Y-94558761D01*
X94522673Y-94542936D01*
X94541185Y-94500153D01*
X94543738Y-94494941D01*
X94566197Y-94454092D01*
X94571180Y-94434680D01*
X94577481Y-94416280D01*
X94585437Y-94397896D01*
X94592729Y-94351852D01*
X94593906Y-94346171D01*
X94605500Y-94301019D01*
X94605500Y-94280983D01*
X94607027Y-94261582D01*
X94607993Y-94255485D01*
X94610160Y-94241804D01*
X94605775Y-94195415D01*
X94605500Y-94189577D01*
X94605500Y-52660738D01*
X94607224Y-52645124D01*
X94606938Y-52645097D01*
X94607672Y-52637334D01*
X94605500Y-52568203D01*
X94605500Y-52538651D01*
X94605500Y-52538650D01*
X94604629Y-52531759D01*
X94604172Y-52525945D01*
X94602709Y-52479372D01*
X94597122Y-52460144D01*
X94593174Y-52441084D01*
X94591496Y-52427797D01*
X94590664Y-52421208D01*
X94573507Y-52377875D01*
X94571619Y-52372359D01*
X94558619Y-52327612D01*
X94548418Y-52310363D01*
X94539860Y-52292894D01*
X94532486Y-52274268D01*
X94532483Y-52274264D01*
X94532483Y-52274263D01*
X94505098Y-52236571D01*
X94501890Y-52231687D01*
X94478172Y-52191582D01*
X94478163Y-52191571D01*
X94464005Y-52177413D01*
X94451370Y-52162620D01*
X94439593Y-52146412D01*
X94403693Y-52116713D01*
X94399381Y-52112790D01*
X93852803Y-51566212D01*
X93842980Y-51553950D01*
X93842759Y-51554134D01*
X93837786Y-51548123D01*
X93787364Y-51500773D01*
X93776919Y-51490328D01*
X93766475Y-51479883D01*
X93760986Y-51475625D01*
X93756561Y-51471847D01*
X93722582Y-51439938D01*
X93722580Y-51439936D01*
X93722577Y-51439935D01*
X93705029Y-51430288D01*
X93688763Y-51419604D01*
X93672933Y-51407325D01*
X93630168Y-51388818D01*
X93624922Y-51386248D01*
X93584093Y-51363803D01*
X93584092Y-51363802D01*
X93564693Y-51358822D01*
X93546281Y-51352518D01*
X93527898Y-51344562D01*
X93527892Y-51344560D01*
X93481874Y-51337272D01*
X93476152Y-51336087D01*
X93431021Y-51324500D01*
X93431019Y-51324500D01*
X93410984Y-51324500D01*
X93391586Y-51322973D01*
X93384162Y-51321797D01*
X93371805Y-51319840D01*
X93371804Y-51319840D01*
X93325416Y-51324225D01*
X93319578Y-51324500D01*
X93215638Y-51324500D01*
X93148599Y-51304815D01*
X93110099Y-51265597D01*
X93042712Y-51156344D01*
X92918656Y-51032288D01*
X92769334Y-50940186D01*
X92602797Y-50885001D01*
X92602795Y-50885000D01*
X92500010Y-50874500D01*
X91499998Y-50874500D01*
X91499980Y-50874501D01*
X91397203Y-50885000D01*
X91397200Y-50885001D01*
X91230668Y-50940185D01*
X91230663Y-50940187D01*
X91081342Y-51032289D01*
X90957289Y-51156342D01*
X90865187Y-51305663D01*
X90865185Y-51305668D01*
X90845921Y-51363803D01*
X90810001Y-51472203D01*
X90810001Y-51472204D01*
X90810000Y-51472204D01*
X90799500Y-51574983D01*
X90799500Y-52325001D01*
X90799501Y-52325019D01*
X90810000Y-52427796D01*
X90810001Y-52427799D01*
X90842524Y-52525945D01*
X90865186Y-52594334D01*
X90953791Y-52737987D01*
X90957289Y-52743657D01*
X91081346Y-52867714D01*
X91084182Y-52869463D01*
X91085717Y-52871170D01*
X91087011Y-52872193D01*
X91086836Y-52872414D01*
X91130905Y-52921411D01*
X91142126Y-52990374D01*
X91114282Y-53054456D01*
X91084182Y-53080537D01*
X91081346Y-53082285D01*
X90957289Y-53206342D01*
X90865187Y-53355663D01*
X90865186Y-53355666D01*
X90810001Y-53522203D01*
X90810001Y-53522204D01*
X90810000Y-53522204D01*
X90799500Y-53624983D01*
X90799500Y-54375001D01*
X90799501Y-54375019D01*
X90810000Y-54477796D01*
X90810001Y-54477799D01*
X90851277Y-54602360D01*
X90865186Y-54644334D01*
X90957288Y-54793656D01*
X91081344Y-54917712D01*
X91230666Y-55009814D01*
X91230668Y-55009815D01*
X91251110Y-55016588D01*
X91289502Y-55029310D01*
X91346947Y-55069081D01*
X91373772Y-55133596D01*
X91374500Y-55147016D01*
X91374500Y-56602046D01*
X91354815Y-56669085D01*
X91338181Y-56689727D01*
X91039726Y-56988181D01*
X90978403Y-57021666D01*
X90952045Y-57024500D01*
X90613331Y-57024500D01*
X90613312Y-57024501D01*
X90512247Y-57034825D01*
X90348484Y-57089092D01*
X90348481Y-57089093D01*
X90201651Y-57179659D01*
X90087327Y-57293983D01*
X90026004Y-57327467D01*
X89956312Y-57322483D01*
X89911965Y-57293982D01*
X89798038Y-57180055D01*
X89798034Y-57180052D01*
X89651311Y-57089551D01*
X89651300Y-57089546D01*
X89487652Y-57035319D01*
X89386654Y-57025000D01*
X89337500Y-57025000D01*
X89337500Y-58974999D01*
X89386640Y-58974999D01*
X89386654Y-58974998D01*
X89487652Y-58964680D01*
X89651300Y-58910453D01*
X89651311Y-58910448D01*
X89798033Y-58819948D01*
X89911964Y-58706017D01*
X89973287Y-58672532D01*
X90042979Y-58677516D01*
X90087327Y-58706017D01*
X90201650Y-58820340D01*
X90348484Y-58910908D01*
X90512247Y-58965174D01*
X90613323Y-58975500D01*
X91211676Y-58975499D01*
X91211684Y-58975498D01*
X91211687Y-58975498D01*
X91267030Y-58969844D01*
X91312753Y-58965174D01*
X91476516Y-58910908D01*
X91623350Y-58820340D01*
X91745340Y-58698350D01*
X91835908Y-58551516D01*
X91890174Y-58387753D01*
X91900500Y-58286677D01*
X91900499Y-57947951D01*
X91920183Y-57880913D01*
X91936813Y-57860276D01*
X92383788Y-57413301D01*
X92396042Y-57403486D01*
X92395859Y-57403264D01*
X92401866Y-57398292D01*
X92401877Y-57398286D01*
X92432775Y-57365382D01*
X92449227Y-57347864D01*
X92459671Y-57337418D01*
X92470120Y-57326971D01*
X92474379Y-57321478D01*
X92478152Y-57317061D01*
X92510062Y-57283082D01*
X92519713Y-57265524D01*
X92530396Y-57249261D01*
X92542673Y-57233436D01*
X92561185Y-57190653D01*
X92563738Y-57185441D01*
X92586197Y-57144592D01*
X92591180Y-57125180D01*
X92597481Y-57106780D01*
X92605437Y-57088396D01*
X92612729Y-57042352D01*
X92613906Y-57036671D01*
X92625500Y-56991519D01*
X92625500Y-56971483D01*
X92627027Y-56952082D01*
X92630160Y-56932304D01*
X92625775Y-56885915D01*
X92625500Y-56880077D01*
X92625500Y-55147016D01*
X92645185Y-55079977D01*
X92697989Y-55034222D01*
X92710488Y-55029313D01*
X92769334Y-55009814D01*
X92918656Y-54917712D01*
X93042712Y-54793656D01*
X93124961Y-54660307D01*
X93176909Y-54613583D01*
X93245871Y-54602360D01*
X93309953Y-54630203D01*
X93348810Y-54688272D01*
X93354500Y-54725404D01*
X93354500Y-93911546D01*
X93334815Y-93978585D01*
X93318181Y-93999227D01*
X90294208Y-97023199D01*
X90281951Y-97033020D01*
X90282134Y-97033241D01*
X90276123Y-97038213D01*
X90228772Y-97088636D01*
X90207889Y-97109519D01*
X90207877Y-97109532D01*
X90203621Y-97115017D01*
X90199837Y-97119447D01*
X90167937Y-97153418D01*
X90167936Y-97153420D01*
X90158284Y-97170976D01*
X90147610Y-97187226D01*
X90135329Y-97203061D01*
X90135324Y-97203068D01*
X90116815Y-97245838D01*
X90114245Y-97251084D01*
X90091803Y-97291906D01*
X90086822Y-97311307D01*
X90080521Y-97329710D01*
X90072562Y-97348102D01*
X90072561Y-97348105D01*
X90065271Y-97394127D01*
X90064087Y-97399846D01*
X90052501Y-97444972D01*
X90052500Y-97444982D01*
X90052500Y-97465016D01*
X90050973Y-97484415D01*
X90047840Y-97504194D01*
X90047840Y-97504195D01*
X90052225Y-97550583D01*
X90052500Y-97556421D01*
X90052500Y-99873312D01*
X90032815Y-99940351D01*
X90020650Y-99956284D01*
X89945466Y-100039784D01*
X89850821Y-100203715D01*
X89850818Y-100203722D01*
X89801921Y-100354214D01*
X89792326Y-100383744D01*
X89780645Y-100494888D01*
X89774679Y-100551649D01*
X89748094Y-100616263D01*
X89739039Y-100626368D01*
X89483181Y-100882227D01*
X89421858Y-100915712D01*
X89352167Y-100910728D01*
X89296233Y-100868857D01*
X89271816Y-100803392D01*
X89271500Y-100794546D01*
X89271500Y-99758687D01*
X89291185Y-99691648D01*
X89303350Y-99675715D01*
X89321891Y-99655122D01*
X89378533Y-99592216D01*
X89473179Y-99428284D01*
X89531674Y-99248256D01*
X89551460Y-99060000D01*
X89531674Y-98871744D01*
X89473179Y-98691716D01*
X89378533Y-98527784D01*
X89251871Y-98387112D01*
X89246875Y-98383482D01*
X89098734Y-98275851D01*
X89098729Y-98275848D01*
X88925807Y-98198857D01*
X88925802Y-98198855D01*
X88780001Y-98167865D01*
X88740646Y-98159500D01*
X88551354Y-98159500D01*
X88518897Y-98166398D01*
X88366197Y-98198855D01*
X88366192Y-98198857D01*
X88193270Y-98275848D01*
X88193265Y-98275851D01*
X88040129Y-98387111D01*
X87913466Y-98527785D01*
X87818821Y-98691715D01*
X87818818Y-98691722D01*
X87772765Y-98833460D01*
X87760326Y-98871744D01*
X87740540Y-99060000D01*
X87760326Y-99248256D01*
X87760327Y-99248259D01*
X87818818Y-99428277D01*
X87818821Y-99428284D01*
X87913467Y-99592216D01*
X87950856Y-99633740D01*
X87988650Y-99675715D01*
X88018880Y-99738706D01*
X88020500Y-99758687D01*
X88020500Y-100527547D01*
X88000815Y-100594586D01*
X87984181Y-100615228D01*
X87682228Y-100917181D01*
X87620905Y-100950666D01*
X87594547Y-100953500D01*
X87535354Y-100953500D01*
X87502897Y-100960398D01*
X87350197Y-100992855D01*
X87350192Y-100992857D01*
X87177270Y-101069848D01*
X87177265Y-101069851D01*
X87024129Y-101181111D01*
X86897466Y-101321785D01*
X86802821Y-101485715D01*
X86802818Y-101485722D01*
X86744327Y-101665740D01*
X86744326Y-101665744D01*
X86724540Y-101854000D01*
X86744326Y-102042256D01*
X86744327Y-102042259D01*
X86802818Y-102222277D01*
X86802821Y-102222284D01*
X86897467Y-102386216D01*
X87016684Y-102518620D01*
X87024129Y-102526888D01*
X87177265Y-102638148D01*
X87177270Y-102638151D01*
X87350197Y-102715144D01*
X87384173Y-102722365D01*
X87445653Y-102755555D01*
X87479431Y-102816717D01*
X87474780Y-102886432D01*
X87446073Y-102931336D01*
X72514227Y-117863181D01*
X72452904Y-117896666D01*
X72426546Y-117899500D01*
X71499998Y-117899500D01*
X71499980Y-117899501D01*
X71397203Y-117910000D01*
X71397200Y-117910001D01*
X71230668Y-117965185D01*
X71230663Y-117965187D01*
X71081342Y-118057289D01*
X70957289Y-118181342D01*
X70865187Y-118330663D01*
X70865186Y-118330666D01*
X70810001Y-118497203D01*
X70810001Y-118497204D01*
X70810000Y-118497204D01*
X70799500Y-118599983D01*
X70799500Y-119350001D01*
X70799501Y-119350019D01*
X70810000Y-119452796D01*
X70810001Y-119452799D01*
X70865185Y-119619331D01*
X70865186Y-119619334D01*
X70957052Y-119768274D01*
X70957289Y-119768657D01*
X71081346Y-119892714D01*
X71084182Y-119894463D01*
X71085717Y-119896170D01*
X71087011Y-119897193D01*
X71086836Y-119897414D01*
X71130905Y-119946411D01*
X71142126Y-120015374D01*
X71114282Y-120079456D01*
X71084182Y-120105537D01*
X71081346Y-120107285D01*
X70957289Y-120231342D01*
X70865187Y-120380663D01*
X70865185Y-120380668D01*
X70852081Y-120420214D01*
X70810001Y-120547203D01*
X70810001Y-120547204D01*
X70810000Y-120547204D01*
X70799500Y-120649983D01*
X70799500Y-121400001D01*
X70799501Y-121400019D01*
X70810000Y-121502796D01*
X70810001Y-121502799D01*
X70865185Y-121669331D01*
X70868240Y-121675882D01*
X70865982Y-121676934D01*
X70881325Y-121732979D01*
X70860411Y-121799645D01*
X70845027Y-121818380D01*
X70528708Y-122134699D01*
X70516451Y-122144520D01*
X70516634Y-122144741D01*
X70510623Y-122149713D01*
X70463272Y-122200136D01*
X70442389Y-122221019D01*
X70442377Y-122221032D01*
X70438121Y-122226517D01*
X70434337Y-122230947D01*
X70402437Y-122264918D01*
X70402436Y-122264920D01*
X70392784Y-122282476D01*
X70382110Y-122298726D01*
X70369829Y-122314561D01*
X70369824Y-122314568D01*
X70351315Y-122357338D01*
X70348745Y-122362584D01*
X70326303Y-122403406D01*
X70321322Y-122422807D01*
X70315021Y-122441210D01*
X70307062Y-122459602D01*
X70307061Y-122459605D01*
X70299771Y-122505627D01*
X70298587Y-122511346D01*
X70287001Y-122556472D01*
X70287000Y-122556482D01*
X70287000Y-122576516D01*
X70285473Y-122595915D01*
X70282340Y-122615694D01*
X70282340Y-122615695D01*
X70286725Y-122662083D01*
X70287000Y-122667921D01*
X70287000Y-124057808D01*
X70267315Y-124124847D01*
X70228099Y-124163345D01*
X70201653Y-124179657D01*
X70087327Y-124293983D01*
X70026004Y-124327467D01*
X69956312Y-124322483D01*
X69911965Y-124293982D01*
X69798038Y-124180055D01*
X69798034Y-124180052D01*
X69651311Y-124089551D01*
X69651300Y-124089546D01*
X69487652Y-124035319D01*
X69386654Y-124025000D01*
X69337500Y-124025000D01*
X69337500Y-125974999D01*
X69386640Y-125974999D01*
X69386654Y-125974998D01*
X69487652Y-125964680D01*
X69651300Y-125910453D01*
X69651311Y-125910448D01*
X69798033Y-125819948D01*
X69911964Y-125706017D01*
X69973287Y-125672532D01*
X70042979Y-125677516D01*
X70087327Y-125706017D01*
X70201650Y-125820340D01*
X70348484Y-125910908D01*
X70512247Y-125965174D01*
X70613323Y-125975500D01*
X71211676Y-125975499D01*
X71211684Y-125975498D01*
X71211687Y-125975498D01*
X71299018Y-125966577D01*
X71312753Y-125965174D01*
X71476516Y-125910908D01*
X71623350Y-125820340D01*
X71745340Y-125698350D01*
X71835908Y-125551516D01*
X71890174Y-125387753D01*
X71900500Y-125286677D01*
X71900499Y-124713324D01*
X71900014Y-124708579D01*
X71890174Y-124612247D01*
X71881538Y-124586185D01*
X71835908Y-124448484D01*
X71745340Y-124301650D01*
X71623350Y-124179660D01*
X71623347Y-124179657D01*
X71596901Y-124163345D01*
X71550178Y-124111397D01*
X71538000Y-124057808D01*
X71538000Y-122945952D01*
X71557685Y-122878913D01*
X71574319Y-122858271D01*
X72295772Y-122136818D01*
X72357095Y-122103333D01*
X72383453Y-122100499D01*
X72500002Y-122100499D01*
X72500008Y-122100499D01*
X72602797Y-122089999D01*
X72769334Y-122034814D01*
X72918656Y-121942712D01*
X73042712Y-121818656D01*
X73134814Y-121669334D01*
X73189999Y-121502797D01*
X73200500Y-121400009D01*
X73200499Y-120649992D01*
X73189999Y-120547203D01*
X73134814Y-120380666D01*
X73042712Y-120231344D01*
X72918656Y-120107288D01*
X72915819Y-120105538D01*
X72914283Y-120103830D01*
X72912989Y-120102807D01*
X72913163Y-120102585D01*
X72869096Y-120053594D01*
X72857872Y-119984632D01*
X72885713Y-119920549D01*
X72915817Y-119894462D01*
X72918656Y-119892712D01*
X73042712Y-119768656D01*
X73134814Y-119619334D01*
X73189999Y-119452797D01*
X73200500Y-119350009D01*
X73200499Y-118997450D01*
X73220183Y-118930412D01*
X73236813Y-118909775D01*
X88062821Y-104083768D01*
X88124142Y-104050285D01*
X88193834Y-104055269D01*
X88249767Y-104097141D01*
X88274184Y-104162605D01*
X88274500Y-104171451D01*
X88274500Y-105835255D01*
X88272775Y-105850872D01*
X88273061Y-105850899D01*
X88272326Y-105858665D01*
X88274500Y-105927814D01*
X88274500Y-105957343D01*
X88274501Y-105957360D01*
X88275368Y-105964231D01*
X88275826Y-105970050D01*
X88277290Y-106016624D01*
X88277291Y-106016627D01*
X88282880Y-106035867D01*
X88286824Y-106054911D01*
X88289336Y-106074791D01*
X88306490Y-106118119D01*
X88308382Y-106123647D01*
X88321381Y-106168388D01*
X88331580Y-106185634D01*
X88340138Y-106203103D01*
X88347514Y-106221732D01*
X88374898Y-106259423D01*
X88378106Y-106264307D01*
X88401827Y-106304416D01*
X88401833Y-106304424D01*
X88415990Y-106318580D01*
X88428628Y-106333376D01*
X88440405Y-106349586D01*
X88440406Y-106349587D01*
X88476309Y-106379288D01*
X88480620Y-106383210D01*
X92687590Y-110590181D01*
X93733197Y-111635788D01*
X93743022Y-111648051D01*
X93743243Y-111647869D01*
X93748214Y-111653878D01*
X93769043Y-111673437D01*
X93798635Y-111701226D01*
X93819529Y-111722120D01*
X93825011Y-111726373D01*
X93829443Y-111730157D01*
X93863418Y-111762062D01*
X93880976Y-111771714D01*
X93897235Y-111782395D01*
X93913064Y-111794673D01*
X93955838Y-111813182D01*
X93961056Y-111815738D01*
X94001908Y-111838197D01*
X94021316Y-111843180D01*
X94039717Y-111849480D01*
X94058104Y-111857437D01*
X94101488Y-111864308D01*
X94104119Y-111864725D01*
X94109839Y-111865909D01*
X94154981Y-111877500D01*
X94175016Y-111877500D01*
X94194414Y-111879026D01*
X94214194Y-111882159D01*
X94214195Y-111882160D01*
X94214195Y-111882159D01*
X94214196Y-111882160D01*
X94260584Y-111877775D01*
X94266422Y-111877500D01*
X97961257Y-111877500D01*
X97976877Y-111879224D01*
X97976904Y-111878939D01*
X97984660Y-111879671D01*
X97984667Y-111879673D01*
X98053814Y-111877500D01*
X98083350Y-111877500D01*
X98090228Y-111876630D01*
X98096041Y-111876172D01*
X98142627Y-111874709D01*
X98161869Y-111869117D01*
X98180912Y-111865174D01*
X98200792Y-111862664D01*
X98244122Y-111845507D01*
X98249646Y-111843617D01*
X98253396Y-111842527D01*
X98294390Y-111830618D01*
X98311629Y-111820422D01*
X98329103Y-111811862D01*
X98347727Y-111804488D01*
X98347727Y-111804487D01*
X98347732Y-111804486D01*
X98385449Y-111777082D01*
X98390305Y-111773892D01*
X98430420Y-111750170D01*
X98444589Y-111735999D01*
X98459379Y-111723368D01*
X98475587Y-111711594D01*
X98505299Y-111675676D01*
X98509212Y-111671376D01*
X101293772Y-108886819D01*
X101355095Y-108853334D01*
X101381453Y-108850500D01*
X101440644Y-108850500D01*
X101440646Y-108850500D01*
X101625803Y-108811144D01*
X101798730Y-108734151D01*
X101951871Y-108622888D01*
X102078533Y-108482216D01*
X102173179Y-108318284D01*
X102231674Y-108138256D01*
X102251460Y-107950000D01*
X102231674Y-107761744D01*
X102173179Y-107581716D01*
X102078533Y-107417784D01*
X102025339Y-107358706D01*
X102003350Y-107334284D01*
X101973120Y-107271292D01*
X101971500Y-107251312D01*
X101971500Y-101327500D01*
X101991185Y-101260461D01*
X102043989Y-101214706D01*
X102095500Y-101203500D01*
X105291949Y-101203500D01*
X105322786Y-101207395D01*
X105330981Y-101209500D01*
X105351016Y-101209500D01*
X105370414Y-101211026D01*
X105390194Y-101214159D01*
X105390195Y-101214160D01*
X105390195Y-101214159D01*
X105390196Y-101214160D01*
X105436584Y-101209775D01*
X105442422Y-101209500D01*
X105581257Y-101209500D01*
X105596877Y-101211224D01*
X105596904Y-101210939D01*
X105604660Y-101211671D01*
X105604667Y-101211673D01*
X105673814Y-101209500D01*
X105703350Y-101209500D01*
X105710228Y-101208630D01*
X105716041Y-101208172D01*
X105762627Y-101206709D01*
X105781869Y-101201117D01*
X105800912Y-101197174D01*
X105820792Y-101194664D01*
X105864122Y-101177507D01*
X105869646Y-101175617D01*
X105873396Y-101174527D01*
X105914390Y-101162618D01*
X105931629Y-101152422D01*
X105949103Y-101143862D01*
X105967727Y-101136488D01*
X105967727Y-101136487D01*
X105967732Y-101136486D01*
X106005449Y-101109082D01*
X106010305Y-101105892D01*
X106050420Y-101082170D01*
X106064589Y-101067999D01*
X106079379Y-101055368D01*
X106095587Y-101043594D01*
X106125299Y-101007676D01*
X106129212Y-101003376D01*
X106373772Y-100758816D01*
X106435094Y-100725334D01*
X106461452Y-100722500D01*
X106520644Y-100722500D01*
X106520646Y-100722500D01*
X106705803Y-100683144D01*
X106878730Y-100606151D01*
X107031871Y-100494888D01*
X107158533Y-100354216D01*
X107253179Y-100190284D01*
X107311674Y-100010256D01*
X107331460Y-99822000D01*
X107311674Y-99633744D01*
X107253179Y-99453716D01*
X107158533Y-99289784D01*
X107031871Y-99149112D01*
X107011352Y-99134204D01*
X106878734Y-99037851D01*
X106878729Y-99037848D01*
X106705807Y-98960857D01*
X106705802Y-98960855D01*
X106560001Y-98929865D01*
X106520646Y-98921500D01*
X106331354Y-98921500D01*
X106298897Y-98928398D01*
X106146197Y-98960855D01*
X106146192Y-98960857D01*
X105973270Y-99037848D01*
X105973265Y-99037851D01*
X105820129Y-99149111D01*
X105693466Y-99289785D01*
X105598821Y-99453715D01*
X105598818Y-99453722D01*
X105553820Y-99592214D01*
X105540326Y-99633744D01*
X105522679Y-99801649D01*
X105496094Y-99866263D01*
X105487040Y-99876367D01*
X105447228Y-99916180D01*
X105385906Y-99949666D01*
X105359546Y-99952500D01*
X101416847Y-99952500D01*
X101393615Y-99950304D01*
X101385588Y-99948773D01*
X101385586Y-99948773D01*
X101376633Y-99949336D01*
X101328275Y-99952378D01*
X101324403Y-99952500D01*
X100524499Y-99952500D01*
X100457460Y-99932815D01*
X100411705Y-99880011D01*
X100400499Y-99828500D01*
X100400499Y-99530129D01*
X100400498Y-99530123D01*
X100394091Y-99470516D01*
X100343797Y-99335671D01*
X100343793Y-99335664D01*
X100257547Y-99220455D01*
X100257544Y-99220452D01*
X100142335Y-99134206D01*
X100142328Y-99134202D01*
X100007482Y-99083908D01*
X100007483Y-99083908D01*
X99947883Y-99077501D01*
X99947881Y-99077500D01*
X99947873Y-99077500D01*
X99947865Y-99077500D01*
X96974500Y-99077500D01*
X96907461Y-99057815D01*
X96861706Y-99005011D01*
X96850500Y-98953500D01*
X96850500Y-98900499D01*
X96870185Y-98833460D01*
X96922989Y-98787705D01*
X96974495Y-98776499D01*
X99947872Y-98776499D01*
X100007483Y-98770091D01*
X100142331Y-98719796D01*
X100257546Y-98633546D01*
X100343796Y-98518331D01*
X100394091Y-98383483D01*
X100400500Y-98323873D01*
X100400500Y-98025500D01*
X100420185Y-97958461D01*
X100472989Y-97912706D01*
X100524500Y-97901500D01*
X102031257Y-97901500D01*
X102046877Y-97903224D01*
X102046904Y-97902939D01*
X102054660Y-97903671D01*
X102054667Y-97903673D01*
X102123814Y-97901500D01*
X107962500Y-97901500D01*
X108029539Y-97921185D01*
X108075294Y-97973989D01*
X108086500Y-98025500D01*
X108086500Y-101035547D01*
X108066815Y-101102586D01*
X108050181Y-101123228D01*
X103430228Y-105743181D01*
X103368905Y-105776666D01*
X103342547Y-105779500D01*
X103283354Y-105779500D01*
X103250897Y-105786398D01*
X103098197Y-105818855D01*
X103098192Y-105818857D01*
X102925270Y-105895848D01*
X102925265Y-105895851D01*
X102772129Y-106007111D01*
X102645466Y-106147785D01*
X102550821Y-106311715D01*
X102550818Y-106311722D01*
X102527587Y-106383221D01*
X102492326Y-106491744D01*
X102472540Y-106680000D01*
X102492326Y-106868256D01*
X102492327Y-106868259D01*
X102550818Y-107048277D01*
X102550821Y-107048284D01*
X102645467Y-107212216D01*
X102680670Y-107251312D01*
X102720650Y-107295715D01*
X102750880Y-107358706D01*
X102752500Y-107378687D01*
X102752500Y-119189312D01*
X102732815Y-119256351D01*
X102720650Y-119272284D01*
X102645466Y-119355784D01*
X102550821Y-119519715D01*
X102550818Y-119519722D01*
X102492327Y-119699740D01*
X102492326Y-119699744D01*
X102472540Y-119888000D01*
X102492326Y-120076256D01*
X102492327Y-120076259D01*
X102550818Y-120256277D01*
X102550821Y-120256284D01*
X102645467Y-120420216D01*
X102712931Y-120495142D01*
X102772129Y-120560888D01*
X102925265Y-120672148D01*
X102925270Y-120672151D01*
X103098192Y-120749142D01*
X103098197Y-120749144D01*
X103283354Y-120788500D01*
X103283355Y-120788500D01*
X103472644Y-120788500D01*
X103472646Y-120788500D01*
X103657803Y-120749144D01*
X103830730Y-120672151D01*
X103983871Y-120560888D01*
X104110533Y-120420216D01*
X104205179Y-120256284D01*
X104263674Y-120076256D01*
X104283460Y-119888000D01*
X104281397Y-119868374D01*
X104293964Y-119799647D01*
X104320685Y-119771080D01*
X104312320Y-119768274D01*
X104268608Y-119713767D01*
X104265351Y-119704905D01*
X104205181Y-119519722D01*
X104205180Y-119519721D01*
X104205179Y-119519716D01*
X104110533Y-119355784D01*
X104105342Y-119350019D01*
X104035350Y-119272284D01*
X104005120Y-119209292D01*
X104003500Y-119189312D01*
X104003500Y-115442185D01*
X104023185Y-115375146D01*
X104075989Y-115329391D01*
X104145147Y-115319447D01*
X104188373Y-115337087D01*
X104189637Y-115334899D01*
X104195270Y-115338151D01*
X104368192Y-115415142D01*
X104368197Y-115415144D01*
X104553354Y-115454500D01*
X104612548Y-115454500D01*
X104679587Y-115474185D01*
X104700229Y-115490819D01*
X104748181Y-115538771D01*
X104781666Y-115600094D01*
X104784500Y-115626452D01*
X104784500Y-118935312D01*
X104764815Y-119002351D01*
X104752650Y-119018284D01*
X104677466Y-119101784D01*
X104582821Y-119265715D01*
X104582818Y-119265722D01*
X104524327Y-119445740D01*
X104524326Y-119445744D01*
X104516551Y-119519722D01*
X104504540Y-119634000D01*
X104506603Y-119653626D01*
X104494033Y-119722356D01*
X104467314Y-119750917D01*
X104475676Y-119753722D01*
X104519389Y-119808228D01*
X104522648Y-119817093D01*
X104582819Y-120002280D01*
X104582821Y-120002284D01*
X104677467Y-120166216D01*
X104736107Y-120231342D01*
X104804129Y-120306888D01*
X104957265Y-120418148D01*
X104957270Y-120418151D01*
X105130192Y-120495142D01*
X105130197Y-120495144D01*
X105315354Y-120534500D01*
X105315355Y-120534500D01*
X105504644Y-120534500D01*
X105504646Y-120534500D01*
X105689803Y-120495144D01*
X105862730Y-120418151D01*
X106015871Y-120306888D01*
X106142533Y-120166216D01*
X106237179Y-120002284D01*
X106295674Y-119822256D01*
X106315460Y-119634000D01*
X106295674Y-119445744D01*
X106237179Y-119265716D01*
X106142533Y-119101784D01*
X106067350Y-119018284D01*
X106037120Y-118955292D01*
X106035500Y-118935312D01*
X106035500Y-117990631D01*
X106037906Y-117982436D01*
X106037523Y-117981675D01*
X106036833Y-117974062D01*
X106282107Y-117974062D01*
X106282820Y-117977665D01*
X106302326Y-118163256D01*
X106302327Y-118163259D01*
X106360818Y-118343277D01*
X106360821Y-118343284D01*
X106455467Y-118507216D01*
X106557185Y-118620185D01*
X106582129Y-118647888D01*
X106735265Y-118759148D01*
X106735270Y-118759151D01*
X106908192Y-118836142D01*
X106908197Y-118836144D01*
X107093354Y-118875500D01*
X107093355Y-118875500D01*
X107282644Y-118875500D01*
X107282646Y-118875500D01*
X107467803Y-118836144D01*
X107640730Y-118759151D01*
X107793871Y-118647888D01*
X107796788Y-118644647D01*
X107799600Y-118641526D01*
X107859087Y-118604879D01*
X107891748Y-118600500D01*
X108266548Y-118600500D01*
X108333587Y-118620185D01*
X108354229Y-118636819D01*
X122943197Y-133225788D01*
X122953022Y-133238051D01*
X122953243Y-133237869D01*
X122958214Y-133243878D01*
X122984217Y-133268295D01*
X123008635Y-133291226D01*
X123029529Y-133312120D01*
X123035011Y-133316373D01*
X123039443Y-133320157D01*
X123073418Y-133352062D01*
X123090976Y-133361714D01*
X123107233Y-133372393D01*
X123123064Y-133384673D01*
X123138598Y-133391395D01*
X123165833Y-133403182D01*
X123171077Y-133405750D01*
X123211908Y-133428197D01*
X123224523Y-133431435D01*
X123231305Y-133433177D01*
X123249719Y-133439481D01*
X123268104Y-133447438D01*
X123314157Y-133454732D01*
X123319826Y-133455906D01*
X123364981Y-133467500D01*
X123385016Y-133467500D01*
X123404413Y-133469026D01*
X123424196Y-133472160D01*
X123470584Y-133467775D01*
X123476422Y-133467500D01*
X133748548Y-133467500D01*
X133815587Y-133487185D01*
X133836229Y-133503819D01*
X137096229Y-136763819D01*
X137129714Y-136825142D01*
X137124730Y-136894834D01*
X137082858Y-136950767D01*
X137017394Y-136975184D01*
X137008548Y-136975500D01*
X136267998Y-136975500D01*
X136267980Y-136975501D01*
X136165203Y-136986000D01*
X136165200Y-136986001D01*
X135998668Y-137041185D01*
X135998663Y-137041187D01*
X135849342Y-137133289D01*
X135725289Y-137257342D01*
X135633187Y-137406663D01*
X135633186Y-137406666D01*
X135626995Y-137425351D01*
X135613689Y-137465505D01*
X135573916Y-137522949D01*
X135509400Y-137549772D01*
X135495983Y-137550500D01*
X135463481Y-137550500D01*
X135396442Y-137530815D01*
X135357942Y-137491596D01*
X135349534Y-137477965D01*
X135349340Y-137477650D01*
X135227350Y-137355660D01*
X135102275Y-137278513D01*
X135080518Y-137265093D01*
X135080513Y-137265091D01*
X135024403Y-137246498D01*
X134916753Y-137210826D01*
X134916751Y-137210825D01*
X134815678Y-137200500D01*
X134217330Y-137200500D01*
X134217312Y-137200501D01*
X134116247Y-137210825D01*
X133952484Y-137265092D01*
X133952481Y-137265093D01*
X133805651Y-137355659D01*
X133691327Y-137469983D01*
X133630004Y-137503467D01*
X133560312Y-137498483D01*
X133515965Y-137469982D01*
X133402038Y-137356055D01*
X133402034Y-137356052D01*
X133255311Y-137265551D01*
X133255300Y-137265546D01*
X133091652Y-137211319D01*
X132990654Y-137201000D01*
X132941500Y-137201000D01*
X132941500Y-139150999D01*
X132990640Y-139150999D01*
X132990654Y-139150998D01*
X133091652Y-139140680D01*
X133255300Y-139086453D01*
X133255311Y-139086448D01*
X133402033Y-138995948D01*
X133515964Y-138882017D01*
X133577287Y-138848532D01*
X133646979Y-138853516D01*
X133691327Y-138882017D01*
X133805650Y-138996340D01*
X133952484Y-139086908D01*
X134116247Y-139141174D01*
X134217323Y-139151500D01*
X134815676Y-139151499D01*
X134815684Y-139151498D01*
X134815687Y-139151498D01*
X134871030Y-139145844D01*
X134916753Y-139141174D01*
X135080516Y-139086908D01*
X135227350Y-138996340D01*
X135349340Y-138874350D01*
X135357942Y-138860404D01*
X135409890Y-138813679D01*
X135463481Y-138801500D01*
X135495983Y-138801500D01*
X135563022Y-138821185D01*
X135608777Y-138873989D01*
X135613686Y-138886489D01*
X135633186Y-138945334D01*
X135725288Y-139094656D01*
X135849344Y-139218712D01*
X135998666Y-139310814D01*
X136165203Y-139365999D01*
X136267991Y-139376500D01*
X137018008Y-139376499D01*
X137018016Y-139376498D01*
X137018019Y-139376498D01*
X137074302Y-139370748D01*
X137120797Y-139365999D01*
X137287334Y-139310814D01*
X137436656Y-139218712D01*
X137560712Y-139094656D01*
X137562461Y-139091819D01*
X137564169Y-139090283D01*
X137565193Y-139088989D01*
X137565414Y-139089163D01*
X137614406Y-139045096D01*
X137683368Y-139033872D01*
X137747451Y-139061713D01*
X137773537Y-139091817D01*
X137775288Y-139094656D01*
X137899344Y-139218712D01*
X138048666Y-139310814D01*
X138215203Y-139365999D01*
X138317991Y-139376500D01*
X139068008Y-139376499D01*
X139068016Y-139376498D01*
X139068019Y-139376498D01*
X139124302Y-139370748D01*
X139170797Y-139365999D01*
X139337334Y-139310814D01*
X139486656Y-139218712D01*
X139610712Y-139094656D01*
X139702814Y-138945334D01*
X139757999Y-138778797D01*
X139768500Y-138676009D01*
X139768499Y-137675992D01*
X139766447Y-137655908D01*
X139757999Y-137573203D01*
X139757998Y-137573200D01*
X139741346Y-137522949D01*
X139702814Y-137406666D01*
X139610712Y-137257344D01*
X139486656Y-137133288D01*
X139337334Y-137041186D01*
X139254339Y-137013684D01*
X139170798Y-136986001D01*
X139170790Y-136986000D01*
X139122007Y-136981016D01*
X139057315Y-136954619D01*
X139046929Y-136945339D01*
X136810704Y-134709114D01*
X134559803Y-132458212D01*
X134549980Y-132445950D01*
X134549759Y-132446134D01*
X134544786Y-132440123D01*
X134544137Y-132439514D01*
X134494364Y-132392773D01*
X134483919Y-132382328D01*
X134473475Y-132371883D01*
X134467986Y-132367625D01*
X134463561Y-132363847D01*
X134429582Y-132331938D01*
X134429580Y-132331936D01*
X134429577Y-132331935D01*
X134412029Y-132322288D01*
X134395763Y-132311604D01*
X134386516Y-132304431D01*
X134379936Y-132299327D01*
X134379935Y-132299326D01*
X134379933Y-132299325D01*
X134337168Y-132280818D01*
X134331922Y-132278248D01*
X134291093Y-132255803D01*
X134291092Y-132255802D01*
X134271693Y-132250822D01*
X134253281Y-132244518D01*
X134234898Y-132236562D01*
X134234892Y-132236560D01*
X134188874Y-132229272D01*
X134183152Y-132228087D01*
X134138021Y-132216500D01*
X134138019Y-132216500D01*
X134117984Y-132216500D01*
X134098586Y-132214973D01*
X134091162Y-132213797D01*
X134078805Y-132211840D01*
X134078804Y-132211840D01*
X134032416Y-132216225D01*
X134026578Y-132216500D01*
X123754452Y-132216500D01*
X123687413Y-132196815D01*
X123666771Y-132180181D01*
X116381467Y-124894877D01*
X109077803Y-117591212D01*
X109067980Y-117578950D01*
X109067759Y-117579134D01*
X109062786Y-117573123D01*
X109012364Y-117525773D01*
X109001919Y-117515328D01*
X108991475Y-117504883D01*
X108985986Y-117500625D01*
X108981561Y-117496847D01*
X108947582Y-117464938D01*
X108947580Y-117464936D01*
X108947577Y-117464935D01*
X108930029Y-117455288D01*
X108913763Y-117444604D01*
X108897933Y-117432325D01*
X108855168Y-117413818D01*
X108849922Y-117411248D01*
X108809093Y-117388803D01*
X108809092Y-117388802D01*
X108789693Y-117383822D01*
X108771281Y-117377518D01*
X108752898Y-117369562D01*
X108752892Y-117369560D01*
X108706874Y-117362272D01*
X108701152Y-117361087D01*
X108656021Y-117349500D01*
X108656019Y-117349500D01*
X108635984Y-117349500D01*
X108616586Y-117347973D01*
X108609162Y-117346797D01*
X108596805Y-117344840D01*
X108596804Y-117344840D01*
X108550416Y-117349225D01*
X108544578Y-117349500D01*
X107891748Y-117349500D01*
X107824709Y-117329815D01*
X107799600Y-117308474D01*
X107793873Y-117302114D01*
X107793869Y-117302110D01*
X107640734Y-117190851D01*
X107640729Y-117190848D01*
X107467807Y-117113857D01*
X107467802Y-117113855D01*
X107322001Y-117082865D01*
X107282646Y-117074500D01*
X107093354Y-117074500D01*
X107060897Y-117081398D01*
X106908197Y-117113855D01*
X106908192Y-117113857D01*
X106735270Y-117190848D01*
X106735265Y-117190851D01*
X106582129Y-117302111D01*
X106455466Y-117442785D01*
X106360821Y-117606715D01*
X106360818Y-117606722D01*
X106302327Y-117786740D01*
X106302326Y-117786744D01*
X106282821Y-117972329D01*
X106282107Y-117974062D01*
X106036833Y-117974062D01*
X106035500Y-117959368D01*
X106035500Y-115398742D01*
X106037224Y-115383122D01*
X106036939Y-115383095D01*
X106037673Y-115375333D01*
X106035500Y-115306172D01*
X106035500Y-115276656D01*
X106035500Y-115276650D01*
X106034631Y-115269779D01*
X106034173Y-115263952D01*
X106032710Y-115217373D01*
X106027119Y-115198130D01*
X106023173Y-115179078D01*
X106020664Y-115159208D01*
X106003504Y-115115867D01*
X106001624Y-115110379D01*
X105988618Y-115065610D01*
X105978422Y-115048370D01*
X105969861Y-115030894D01*
X105962487Y-115012270D01*
X105962486Y-115012268D01*
X105935079Y-114974545D01*
X105931888Y-114969686D01*
X105908172Y-114929583D01*
X105908165Y-114929574D01*
X105894006Y-114915415D01*
X105881368Y-114900619D01*
X105869594Y-114884413D01*
X105833688Y-114854709D01*
X105829376Y-114850786D01*
X105586960Y-114608369D01*
X105553475Y-114547046D01*
X105551323Y-114533668D01*
X105533674Y-114365744D01*
X105475179Y-114185716D01*
X105380533Y-114021784D01*
X105253871Y-113881112D01*
X105253870Y-113881111D01*
X105100734Y-113769851D01*
X105100729Y-113769848D01*
X104927807Y-113692857D01*
X104927802Y-113692855D01*
X104782001Y-113661865D01*
X104742646Y-113653500D01*
X104553354Y-113653500D01*
X104520897Y-113660398D01*
X104368197Y-113692855D01*
X104368192Y-113692857D01*
X104195270Y-113769848D01*
X104189637Y-113773101D01*
X104188145Y-113770517D01*
X104134483Y-113789617D01*
X104066441Y-113773739D01*
X104017785Y-113723595D01*
X104003500Y-113665814D01*
X104003500Y-107378687D01*
X104023185Y-107311648D01*
X104035350Y-107295715D01*
X104075330Y-107251312D01*
X104110533Y-107212216D01*
X104205179Y-107048284D01*
X104263674Y-106868256D01*
X104281321Y-106700345D01*
X104307905Y-106635732D01*
X104316952Y-106625636D01*
X106552589Y-104390000D01*
X121798001Y-104390000D01*
X121798001Y-104426654D01*
X121808319Y-104527652D01*
X121862546Y-104691300D01*
X121862551Y-104691311D01*
X121953052Y-104838034D01*
X121953055Y-104838038D01*
X122074961Y-104959944D01*
X122074965Y-104959947D01*
X122221688Y-105050448D01*
X122221699Y-105050453D01*
X122385347Y-105104680D01*
X122486351Y-105114999D01*
X122535499Y-105114998D01*
X122535500Y-105114998D01*
X122535500Y-104390000D01*
X121798001Y-104390000D01*
X106552589Y-104390000D01*
X107052589Y-103890000D01*
X121798000Y-103890000D01*
X122535500Y-103890000D01*
X122535500Y-103165000D01*
X122535499Y-103164999D01*
X122486361Y-103165000D01*
X122486343Y-103165001D01*
X122385347Y-103175319D01*
X122221699Y-103229546D01*
X122221688Y-103229551D01*
X122074965Y-103320052D01*
X122074961Y-103320055D01*
X121953055Y-103441961D01*
X121953052Y-103441965D01*
X121862551Y-103588688D01*
X121862546Y-103588699D01*
X121808319Y-103752347D01*
X121798000Y-103853345D01*
X121798000Y-103890000D01*
X107052589Y-103890000D01*
X109095788Y-101846801D01*
X109108042Y-101836986D01*
X109107859Y-101836764D01*
X109113866Y-101831792D01*
X109113877Y-101831786D01*
X109144775Y-101798882D01*
X109161227Y-101781364D01*
X109171671Y-101770918D01*
X109182120Y-101760471D01*
X109186379Y-101754978D01*
X109190152Y-101750561D01*
X109222062Y-101716582D01*
X109231713Y-101699024D01*
X109242396Y-101682761D01*
X109254673Y-101666936D01*
X109273185Y-101624153D01*
X109275738Y-101618941D01*
X109298197Y-101578092D01*
X109303180Y-101558680D01*
X109309481Y-101540280D01*
X109317437Y-101521896D01*
X109324729Y-101475852D01*
X109325906Y-101470171D01*
X109337500Y-101425019D01*
X109337500Y-101404983D01*
X109339027Y-101385582D01*
X109342160Y-101365804D01*
X109337775Y-101319415D01*
X109337500Y-101313577D01*
X109337500Y-98025500D01*
X109357185Y-97958461D01*
X109409989Y-97912706D01*
X109461500Y-97901500D01*
X121612548Y-97901500D01*
X121679587Y-97921185D01*
X121700229Y-97937819D01*
X126490228Y-102727819D01*
X126523713Y-102789142D01*
X126518729Y-102858834D01*
X126476857Y-102914767D01*
X126411393Y-102939184D01*
X126402550Y-102939500D01*
X126362000Y-102939500D01*
X126361980Y-102939501D01*
X126259203Y-102950000D01*
X126259200Y-102950001D01*
X126092668Y-103005185D01*
X126092663Y-103005187D01*
X125943342Y-103097289D01*
X125819289Y-103221342D01*
X125727187Y-103370663D01*
X125727186Y-103370666D01*
X125716732Y-103402216D01*
X125707689Y-103429505D01*
X125667916Y-103486949D01*
X125603400Y-103513772D01*
X125589983Y-103514500D01*
X125557481Y-103514500D01*
X125490442Y-103494815D01*
X125451942Y-103455596D01*
X125443534Y-103441965D01*
X125443340Y-103441650D01*
X125321350Y-103319660D01*
X125189419Y-103238284D01*
X125174518Y-103229093D01*
X125174513Y-103229091D01*
X125151128Y-103221342D01*
X125010753Y-103174826D01*
X125010751Y-103174825D01*
X124909678Y-103164500D01*
X124311330Y-103164500D01*
X124311312Y-103164501D01*
X124210247Y-103174825D01*
X124046484Y-103229092D01*
X124046481Y-103229093D01*
X123899651Y-103319659D01*
X123785327Y-103433983D01*
X123724004Y-103467467D01*
X123654312Y-103462483D01*
X123609965Y-103433982D01*
X123496038Y-103320055D01*
X123496034Y-103320052D01*
X123349311Y-103229551D01*
X123349300Y-103229546D01*
X123185652Y-103175319D01*
X123084654Y-103165000D01*
X123035500Y-103165000D01*
X123035500Y-105114999D01*
X123084640Y-105114999D01*
X123084654Y-105114998D01*
X123185652Y-105104680D01*
X123349300Y-105050453D01*
X123349311Y-105050448D01*
X123496033Y-104959948D01*
X123609964Y-104846017D01*
X123671287Y-104812532D01*
X123740979Y-104817516D01*
X123785327Y-104846017D01*
X123899650Y-104960340D01*
X124046484Y-105050908D01*
X124210247Y-105105174D01*
X124311323Y-105115500D01*
X124909676Y-105115499D01*
X124909684Y-105115498D01*
X124909687Y-105115498D01*
X124965030Y-105109844D01*
X125010753Y-105105174D01*
X125174516Y-105050908D01*
X125321350Y-104960340D01*
X125443340Y-104838350D01*
X125451942Y-104824404D01*
X125503890Y-104777679D01*
X125557481Y-104765500D01*
X125589983Y-104765500D01*
X125657022Y-104785185D01*
X125702777Y-104837989D01*
X125707686Y-104850489D01*
X125727186Y-104909334D01*
X125819288Y-105058656D01*
X125943344Y-105182712D01*
X126092666Y-105274814D01*
X126259203Y-105329999D01*
X126361991Y-105340500D01*
X127112008Y-105340499D01*
X127112016Y-105340498D01*
X127112019Y-105340498D01*
X127168302Y-105334748D01*
X127214797Y-105329999D01*
X127381334Y-105274814D01*
X127530656Y-105182712D01*
X127654712Y-105058656D01*
X127656461Y-105055819D01*
X127658169Y-105054283D01*
X127659193Y-105052989D01*
X127659414Y-105053163D01*
X127708406Y-105009096D01*
X127777368Y-104997872D01*
X127841451Y-105025713D01*
X127867537Y-105055817D01*
X127869288Y-105058656D01*
X127993344Y-105182712D01*
X128142666Y-105274814D01*
X128309203Y-105329999D01*
X128411991Y-105340500D01*
X129162008Y-105340499D01*
X129162016Y-105340498D01*
X129162019Y-105340498D01*
X129218302Y-105334748D01*
X129264797Y-105329999D01*
X129431334Y-105274814D01*
X129580656Y-105182712D01*
X129704712Y-105058656D01*
X129796814Y-104909334D01*
X129851999Y-104742797D01*
X129862500Y-104640009D01*
X129862499Y-103639992D01*
X129857237Y-103588484D01*
X129851999Y-103537203D01*
X129851998Y-103537200D01*
X129835346Y-103486949D01*
X129796814Y-103370666D01*
X129704712Y-103221344D01*
X129580656Y-103097288D01*
X129431334Y-103005186D01*
X129264797Y-102950001D01*
X129264795Y-102950000D01*
X129162016Y-102939500D01*
X129162009Y-102939500D01*
X128522453Y-102939500D01*
X128455414Y-102919815D01*
X128434772Y-102903181D01*
X122423803Y-96892212D01*
X122413980Y-96879950D01*
X122413759Y-96880134D01*
X122408786Y-96874123D01*
X122358364Y-96826773D01*
X122347919Y-96816328D01*
X122337475Y-96805883D01*
X122331986Y-96801625D01*
X122327561Y-96797847D01*
X122293582Y-96765938D01*
X122293580Y-96765936D01*
X122293577Y-96765935D01*
X122276029Y-96756288D01*
X122259763Y-96745604D01*
X122243933Y-96733325D01*
X122201168Y-96714818D01*
X122195922Y-96712248D01*
X122155093Y-96689803D01*
X122155092Y-96689802D01*
X122135693Y-96684822D01*
X122117281Y-96678518D01*
X122098898Y-96670562D01*
X122098892Y-96670560D01*
X122052874Y-96663272D01*
X122047152Y-96662087D01*
X122002021Y-96650500D01*
X122002019Y-96650500D01*
X121981984Y-96650500D01*
X121962586Y-96648973D01*
X121948695Y-96646773D01*
X121942805Y-96645840D01*
X121942804Y-96645840D01*
X121896416Y-96650225D01*
X121890578Y-96650500D01*
X108782847Y-96650500D01*
X108759615Y-96648304D01*
X108751588Y-96646773D01*
X108751586Y-96646773D01*
X108742633Y-96647336D01*
X108694275Y-96650378D01*
X108690403Y-96650500D01*
X103923452Y-96650500D01*
X103856413Y-96630815D01*
X103810658Y-96578011D01*
X103800714Y-96508853D01*
X103829739Y-96445297D01*
X103835771Y-96438819D01*
X104806499Y-95468091D01*
X105793788Y-94480801D01*
X105806042Y-94470986D01*
X105805859Y-94470764D01*
X105811866Y-94465792D01*
X105811877Y-94465786D01*
X105849957Y-94425235D01*
X105859227Y-94415364D01*
X105869671Y-94404918D01*
X105880120Y-94394471D01*
X105884379Y-94388978D01*
X105888152Y-94384561D01*
X105920062Y-94350582D01*
X105929715Y-94333020D01*
X105940389Y-94316770D01*
X105952673Y-94300936D01*
X105971180Y-94258167D01*
X105973749Y-94252924D01*
X105996196Y-94212093D01*
X105996197Y-94212092D01*
X106001177Y-94192691D01*
X106007478Y-94174288D01*
X106015438Y-94155896D01*
X106022730Y-94109849D01*
X106023911Y-94104152D01*
X106035500Y-94059019D01*
X106035500Y-94038983D01*
X106037027Y-94019582D01*
X106040160Y-93999804D01*
X106035775Y-93953415D01*
X106035500Y-93947577D01*
X106035500Y-79438687D01*
X106055185Y-79371648D01*
X106067350Y-79355715D01*
X106085891Y-79335122D01*
X106142533Y-79272216D01*
X106237179Y-79108284D01*
X106295674Y-78928256D01*
X106313321Y-78760344D01*
X106339904Y-78695734D01*
X106348951Y-78685638D01*
X108172772Y-76861819D01*
X108234095Y-76828334D01*
X108260453Y-76825500D01*
X111677257Y-76825500D01*
X111692877Y-76827224D01*
X111692904Y-76826939D01*
X111700660Y-76827671D01*
X111700667Y-76827673D01*
X111769814Y-76825500D01*
X111799350Y-76825500D01*
X111806228Y-76824630D01*
X111812041Y-76824172D01*
X111858627Y-76822709D01*
X111877869Y-76817117D01*
X111896912Y-76813174D01*
X111916792Y-76810664D01*
X111960122Y-76793507D01*
X111965646Y-76791617D01*
X111969396Y-76790527D01*
X112010390Y-76778618D01*
X112027629Y-76768422D01*
X112045103Y-76759862D01*
X112063727Y-76752488D01*
X112063727Y-76752487D01*
X112063732Y-76752486D01*
X112101449Y-76725082D01*
X112106305Y-76721892D01*
X112146420Y-76698170D01*
X112160589Y-76683999D01*
X112175379Y-76671368D01*
X112191587Y-76659594D01*
X112221299Y-76623676D01*
X112225212Y-76619376D01*
X113676787Y-75167802D01*
X113689042Y-75157986D01*
X113688859Y-75157764D01*
X113694868Y-75152791D01*
X113694877Y-75152786D01*
X113706583Y-75140320D01*
X113764435Y-75106327D01*
X113764370Y-75106129D01*
X113765293Y-75105823D01*
X113766820Y-75104926D01*
X113770764Y-75104010D01*
X113780966Y-75100629D01*
X113937334Y-75048814D01*
X114086656Y-74956712D01*
X114210712Y-74832656D01*
X114302814Y-74683334D01*
X114357999Y-74516797D01*
X114368500Y-74414009D01*
X114368499Y-73413992D01*
X114363237Y-73362484D01*
X114357999Y-73311203D01*
X114357998Y-73311200D01*
X114302814Y-73144666D01*
X114210712Y-72995344D01*
X114086656Y-72871288D01*
X113937334Y-72779186D01*
X113770797Y-72724001D01*
X113770795Y-72724000D01*
X113668010Y-72713500D01*
X112917998Y-72713500D01*
X112917980Y-72713501D01*
X112815203Y-72724000D01*
X112815200Y-72724001D01*
X112648668Y-72779185D01*
X112648663Y-72779187D01*
X112499342Y-72871289D01*
X112375285Y-72995346D01*
X112373537Y-72998182D01*
X112371829Y-72999717D01*
X112370807Y-73001011D01*
X112370585Y-73000836D01*
X112321589Y-73044905D01*
X112252626Y-73056126D01*
X112188544Y-73028282D01*
X112162463Y-72998182D01*
X112160714Y-72995346D01*
X112036657Y-72871289D01*
X112036656Y-72871288D01*
X111887334Y-72779186D01*
X111720797Y-72724001D01*
X111720795Y-72724000D01*
X111618010Y-72713500D01*
X110867998Y-72713500D01*
X110867980Y-72713501D01*
X110765203Y-72724000D01*
X110765200Y-72724001D01*
X110598668Y-72779185D01*
X110598663Y-72779187D01*
X110449342Y-72871289D01*
X110325287Y-72995344D01*
X110273613Y-73079121D01*
X110221665Y-73125845D01*
X110152702Y-73137066D01*
X110088620Y-73109223D01*
X110080394Y-73101704D01*
X110072351Y-73093661D01*
X110072350Y-73093660D01*
X109981129Y-73037395D01*
X109925518Y-73003093D01*
X109925513Y-73003091D01*
X109902128Y-72995342D01*
X109761753Y-72948826D01*
X109761751Y-72948825D01*
X109660678Y-72938500D01*
X109062330Y-72938500D01*
X109062312Y-72938501D01*
X108961247Y-72948825D01*
X108797484Y-73003092D01*
X108797481Y-73003093D01*
X108650651Y-73093659D01*
X108536327Y-73207983D01*
X108475004Y-73241467D01*
X108405312Y-73236483D01*
X108360965Y-73207982D01*
X108247038Y-73094055D01*
X108247034Y-73094052D01*
X108100311Y-73003551D01*
X108100300Y-73003546D01*
X107936652Y-72949319D01*
X107835654Y-72939000D01*
X107786500Y-72939000D01*
X107786500Y-74888999D01*
X107835640Y-74888999D01*
X107835654Y-74888998D01*
X107936652Y-74878680D01*
X108100300Y-74824453D01*
X108100311Y-74824448D01*
X108247033Y-74733948D01*
X108360964Y-74620017D01*
X108422287Y-74586532D01*
X108491979Y-74591516D01*
X108536327Y-74620017D01*
X108650650Y-74734340D01*
X108797484Y-74824908D01*
X108961247Y-74879174D01*
X109062323Y-74889500D01*
X109660676Y-74889499D01*
X109660684Y-74889498D01*
X109660687Y-74889498D01*
X109716030Y-74883844D01*
X109761753Y-74879174D01*
X109925516Y-74824908D01*
X110072350Y-74734340D01*
X110080394Y-74726295D01*
X110141712Y-74692811D01*
X110211404Y-74697793D01*
X110267339Y-74739662D01*
X110273613Y-74748879D01*
X110325285Y-74832652D01*
X110325288Y-74832656D01*
X110449344Y-74956712D01*
X110598666Y-75048814D01*
X110765203Y-75103999D01*
X110867991Y-75114500D01*
X111618008Y-75114499D01*
X111653180Y-75110906D01*
X111721873Y-75123675D01*
X111772757Y-75171556D01*
X111789678Y-75239346D01*
X111767262Y-75305522D01*
X111753463Y-75321945D01*
X111537228Y-75538181D01*
X111475905Y-75571666D01*
X111449547Y-75574500D01*
X108032737Y-75574500D01*
X108017120Y-75572776D01*
X108017093Y-75573062D01*
X108009331Y-75572327D01*
X107940203Y-75574500D01*
X107910650Y-75574500D01*
X107909929Y-75574590D01*
X107903757Y-75575369D01*
X107897945Y-75575826D01*
X107851372Y-75577290D01*
X107851369Y-75577291D01*
X107832126Y-75582881D01*
X107813083Y-75586825D01*
X107793204Y-75589336D01*
X107793203Y-75589337D01*
X107749878Y-75606490D01*
X107744352Y-75608382D01*
X107699608Y-75621383D01*
X107699604Y-75621385D01*
X107682365Y-75631580D01*
X107664898Y-75640137D01*
X107646269Y-75647512D01*
X107646267Y-75647513D01*
X107608564Y-75674906D01*
X107603682Y-75678112D01*
X107563580Y-75701828D01*
X107549408Y-75716000D01*
X107534623Y-75728628D01*
X107518412Y-75740407D01*
X107488709Y-75776310D01*
X107484776Y-75780631D01*
X106471899Y-76793510D01*
X105462228Y-77803181D01*
X105400905Y-77836666D01*
X105374547Y-77839500D01*
X105315354Y-77839500D01*
X105282897Y-77846398D01*
X105130197Y-77878855D01*
X105130192Y-77878857D01*
X104957270Y-77955848D01*
X104957265Y-77955851D01*
X104804129Y-78067111D01*
X104677466Y-78207785D01*
X104582821Y-78371715D01*
X104582818Y-78371722D01*
X104524327Y-78551740D01*
X104524326Y-78551744D01*
X104504540Y-78740000D01*
X104524326Y-78928256D01*
X104524327Y-78928259D01*
X104582818Y-79108277D01*
X104582821Y-79108284D01*
X104677467Y-79272216D01*
X104720772Y-79320310D01*
X104752650Y-79355715D01*
X104782880Y-79418706D01*
X104784500Y-79438687D01*
X104784500Y-93669547D01*
X104764815Y-93736586D01*
X104748181Y-93757228D01*
X101891228Y-96614181D01*
X101829905Y-96647666D01*
X101803547Y-96650500D01*
X100524499Y-96650500D01*
X100457460Y-96630815D01*
X100411705Y-96578011D01*
X100400499Y-96526500D01*
X100400499Y-96228129D01*
X100400498Y-96228123D01*
X100394091Y-96168516D01*
X100343797Y-96033671D01*
X100343793Y-96033664D01*
X100257547Y-95918455D01*
X100257544Y-95918452D01*
X100142335Y-95832206D01*
X100142328Y-95832202D01*
X100007482Y-95781908D01*
X100007483Y-95781908D01*
X99947883Y-95775501D01*
X99947881Y-95775500D01*
X99947873Y-95775500D01*
X99947865Y-95775500D01*
X96974500Y-95775500D01*
X96907461Y-95755815D01*
X96861706Y-95703011D01*
X96850500Y-95651500D01*
X96850500Y-95598499D01*
X96870185Y-95531460D01*
X96922989Y-95485705D01*
X96974495Y-95474499D01*
X99947872Y-95474499D01*
X100007483Y-95468091D01*
X100142331Y-95417796D01*
X100257546Y-95331546D01*
X100343796Y-95216331D01*
X100394091Y-95081483D01*
X100400500Y-95021873D01*
X100400500Y-94723500D01*
X100420185Y-94656461D01*
X100472989Y-94610706D01*
X100524500Y-94599500D01*
X101207622Y-94599500D01*
X101274661Y-94619185D01*
X101315009Y-94661500D01*
X101375465Y-94766214D01*
X101502129Y-94906888D01*
X101655265Y-95018148D01*
X101655270Y-95018151D01*
X101828192Y-95095142D01*
X101828197Y-95095144D01*
X102013354Y-95134500D01*
X102013355Y-95134500D01*
X102202644Y-95134500D01*
X102202646Y-95134500D01*
X102387803Y-95095144D01*
X102560730Y-95018151D01*
X102713871Y-94906888D01*
X102840533Y-94766216D01*
X102935179Y-94602284D01*
X102993674Y-94422256D01*
X103013460Y-94234000D01*
X102993674Y-94045744D01*
X102935179Y-93865716D01*
X102840533Y-93701784D01*
X102713871Y-93561112D01*
X102668068Y-93527834D01*
X102560734Y-93449851D01*
X102560729Y-93449848D01*
X102387807Y-93372857D01*
X102387802Y-93372855D01*
X102242001Y-93341865D01*
X102202646Y-93333500D01*
X102013354Y-93333500D01*
X101955531Y-93345790D01*
X101929753Y-93348500D01*
X101906984Y-93348500D01*
X101887586Y-93346973D01*
X101880116Y-93345790D01*
X101867805Y-93343840D01*
X101867804Y-93343840D01*
X101821416Y-93348225D01*
X101815578Y-93348500D01*
X100524499Y-93348500D01*
X100457460Y-93328815D01*
X100411705Y-93276011D01*
X100400499Y-93224500D01*
X100400499Y-92926129D01*
X100400498Y-92926123D01*
X100394091Y-92866516D01*
X100343797Y-92731671D01*
X100343793Y-92731664D01*
X100257547Y-92616455D01*
X100257544Y-92616452D01*
X100142335Y-92530206D01*
X100142328Y-92530202D01*
X100007482Y-92479908D01*
X100007483Y-92479908D01*
X99947883Y-92473501D01*
X99947881Y-92473500D01*
X99947873Y-92473500D01*
X99947865Y-92473500D01*
X96974500Y-92473500D01*
X96907461Y-92453815D01*
X96861706Y-92401011D01*
X96850500Y-92349500D01*
X96850500Y-74164000D01*
X106549001Y-74164000D01*
X106549001Y-74200654D01*
X106559319Y-74301652D01*
X106613546Y-74465300D01*
X106613551Y-74465311D01*
X106704052Y-74612034D01*
X106704055Y-74612038D01*
X106825961Y-74733944D01*
X106825965Y-74733947D01*
X106972688Y-74824448D01*
X106972699Y-74824453D01*
X107136347Y-74878680D01*
X107237351Y-74888999D01*
X107286499Y-74888998D01*
X107286500Y-74888998D01*
X107286500Y-74164000D01*
X106549001Y-74164000D01*
X96850500Y-74164000D01*
X96850500Y-73664000D01*
X106549000Y-73664000D01*
X107286500Y-73664000D01*
X107286500Y-72939000D01*
X107286499Y-72938999D01*
X107237361Y-72939000D01*
X107237343Y-72939001D01*
X107136347Y-72949319D01*
X106972699Y-73003546D01*
X106972688Y-73003551D01*
X106825965Y-73094052D01*
X106825961Y-73094055D01*
X106704055Y-73215961D01*
X106704052Y-73215965D01*
X106613551Y-73362688D01*
X106613546Y-73362699D01*
X106559319Y-73526347D01*
X106549000Y-73627345D01*
X106549000Y-73664000D01*
X96850500Y-73664000D01*
X96850500Y-43596570D01*
X96870185Y-43529531D01*
X96922989Y-43483776D01*
X96992147Y-43473832D01*
X97055703Y-43502857D01*
G37*
%TD.AperFunction*%
%TD*%
M02*
