%TF.GenerationSoftware,KiCad,Pcbnew,7.0.8*%
%TF.CreationDate,2024-03-10T12:53:15+01:00*%
%TF.ProjectId,PCB_Christmas_Tree,5043425f-4368-4726-9973-746d61735f54,rev?*%
%TF.SameCoordinates,Original*%
%TF.FileFunction,Copper,L1,Top*%
%TF.FilePolarity,Positive*%
%FSLAX46Y46*%
G04 Gerber Fmt 4.6, Leading zero omitted, Abs format (unit mm)*
G04 Created by KiCad (PCBNEW 7.0.8) date 2024-03-10 12:53:15*
%MOMM*%
%LPD*%
G01*
G04 APERTURE LIST*
G04 Aperture macros list*
%AMRoundRect*
0 Rectangle with rounded corners*
0 $1 Rounding radius*
0 $2 $3 $4 $5 $6 $7 $8 $9 X,Y pos of 4 corners*
0 Add a 4 corners polygon primitive as box body*
4,1,4,$2,$3,$4,$5,$6,$7,$8,$9,$2,$3,0*
0 Add four circle primitives for the rounded corners*
1,1,$1+$1,$2,$3*
1,1,$1+$1,$4,$5*
1,1,$1+$1,$6,$7*
1,1,$1+$1,$8,$9*
0 Add four rect primitives between the rounded corners*
20,1,$1+$1,$2,$3,$4,$5,0*
20,1,$1+$1,$4,$5,$6,$7,0*
20,1,$1+$1,$6,$7,$8,$9,0*
20,1,$1+$1,$8,$9,$2,$3,0*%
G04 Aperture macros list end*
%TA.AperFunction,SMDPad,CuDef*%
%ADD10R,3.000000X2.000000*%
%TD*%
%TA.AperFunction,SMDPad,CuDef*%
%ADD11RoundRect,0.250000X0.450000X-0.325000X0.450000X0.325000X-0.450000X0.325000X-0.450000X-0.325000X0*%
%TD*%
%TA.AperFunction,SMDPad,CuDef*%
%ADD12RoundRect,0.237500X-0.250000X-0.237500X0.250000X-0.237500X0.250000X0.237500X-0.250000X0.237500X0*%
%TD*%
%TA.AperFunction,SMDPad,CuDef*%
%ADD13RoundRect,0.250000X0.325000X0.450000X-0.325000X0.450000X-0.325000X-0.450000X0.325000X-0.450000X0*%
%TD*%
%TA.AperFunction,ComponentPad*%
%ADD14C,3.000000*%
%TD*%
%TA.AperFunction,SMDPad,CuDef*%
%ADD15R,5.000000X5.000000*%
%TD*%
%TA.AperFunction,SMDPad,CuDef*%
%ADD16R,1.550000X1.300000*%
%TD*%
%TA.AperFunction,ComponentPad*%
%ADD17R,1.700000X1.700000*%
%TD*%
%TA.AperFunction,ComponentPad*%
%ADD18O,1.700000X1.700000*%
%TD*%
%TA.AperFunction,ViaPad*%
%ADD19C,0.800000*%
%TD*%
%TA.AperFunction,Conductor*%
%ADD20C,0.250000*%
%TD*%
G04 APERTURE END LIST*
D10*
%TO.P,J7,1,Pin_1*%
%TO.N,/LED_Power_1*%
X93500000Y-93968000D03*
%TO.P,J7,2,Pin_2*%
%TO.N,/LED_Power_2*%
X93500000Y-97270000D03*
%TO.P,J7,3,Pin_3*%
%TO.N,/LED_Power_3*%
X93500000Y-100572000D03*
%TO.P,J7,4,Pin_4*%
%TO.N,GND*%
X93500000Y-103620000D03*
%TD*%
D11*
%TO.P,D21,1,K*%
%TO.N,Net-(D21-K)*%
X113000000Y-90025000D03*
%TO.P,D21,2,A*%
%TO.N,/LED_Power_3*%
X113000000Y-87975000D03*
%TD*%
D12*
%TO.P,R26,1*%
%TO.N,Net-(D21-K)*%
X114000000Y-94000000D03*
%TO.P,R26,2*%
%TO.N,GND*%
X115825000Y-94000000D03*
%TD*%
%TO.P,R27,1*%
%TO.N,Net-(D22-K)*%
X56745500Y-138430000D03*
%TO.P,R27,2*%
%TO.N,GND*%
X58570500Y-138430000D03*
%TD*%
D13*
%TO.P,D23,1,K*%
%TO.N,Net-(D23-K)*%
X66040000Y-104140000D03*
%TO.P,D23,2,A*%
%TO.N,/LED_Power_3*%
X63990000Y-104140000D03*
%TD*%
%TO.P,D10,1,K*%
%TO.N,Net-(D10-K)*%
X80527000Y-73914000D03*
%TO.P,D10,2,A*%
%TO.N,/LED_Power_2*%
X78477000Y-73914000D03*
%TD*%
D12*
%TO.P,R15,1*%
%TO.N,Net-(D10-K)*%
X82399500Y-73914000D03*
%TO.P,R15,2*%
%TO.N,GND*%
X84224500Y-73914000D03*
%TD*%
D11*
%TO.P,D12,1,K*%
%TO.N,Net-(D12-K)*%
X100000000Y-54025000D03*
%TO.P,D12,2,A*%
%TO.N,/LED_Power_2*%
X100000000Y-51975000D03*
%TD*%
%TO.P,D18,1,K*%
%TO.N,Net-(D18-K)*%
X120000000Y-120025000D03*
%TO.P,D18,2,A*%
%TO.N,/LED_Power_1*%
X120000000Y-117975000D03*
%TD*%
D14*
%TO.P,J2,1,Pin_1*%
%TO.N,+BATT*%
X85644000Y-130627000D03*
X106726000Y-130627000D03*
D15*
%TO.P,J2,2,Pin_2*%
%TO.N,GND*%
X96185000Y-130627000D03*
%TD*%
D12*
%TO.P,R28,1*%
%TO.N,Net-(D23-K)*%
X67902500Y-104140000D03*
%TO.P,R28,2*%
%TO.N,GND*%
X69727500Y-104140000D03*
%TD*%
D13*
%TO.P,D22,1,K*%
%TO.N,Net-(D22-K)*%
X54365000Y-138430000D03*
%TO.P,D22,2,A*%
%TO.N,/LED_Power_1*%
X52315000Y-138430000D03*
%TD*%
D12*
%TO.P,R17,1*%
%TO.N,Net-(D12-K)*%
X101087500Y-58000000D03*
%TO.P,R17,2*%
%TO.N,GND*%
X102912500Y-58000000D03*
%TD*%
D16*
%TO.P,SW1,1,1*%
%TO.N,GND*%
X80937000Y-138013000D03*
X72987000Y-138013000D03*
%TO.P,SW1,2,2*%
%TO.N,Net-(D1-K)*%
X80937000Y-133513000D03*
X72987000Y-133513000D03*
%TD*%
D12*
%TO.P,R23,1*%
%TO.N,Net-(D18-K)*%
X122087500Y-124000000D03*
%TO.P,R23,2*%
%TO.N,GND*%
X123912500Y-124000000D03*
%TD*%
D17*
%TO.P,J1,1,Pin_1*%
%TO.N,VDD*%
X115525000Y-139000000D03*
D18*
%TO.P,J1,2,Pin_2*%
%TO.N,/UDPI*%
X112985000Y-139000000D03*
%TO.P,J1,3,Pin_3*%
%TO.N,GND*%
X110445000Y-139000000D03*
%TD*%
D19*
%TO.N,Net-(D1-K)*%
X87376000Y-134750000D03*
%TO.N,/LED_Power_1*%
X89916000Y-93980000D03*
X82550000Y-102870000D03*
X96393000Y-125095000D03*
X107188000Y-117975000D03*
X102108000Y-94234000D03*
%TO.N,/LED_Power_3*%
X105410000Y-119634000D03*
X106426000Y-99822000D03*
X104775000Y-135382000D03*
X104648000Y-114554000D03*
X101346000Y-107950000D03*
X90678000Y-100572000D03*
%TO.N,/LED_Power_2*%
X87630000Y-101854000D03*
X101219000Y-125222000D03*
X105410000Y-78740000D03*
X88646000Y-99060000D03*
X103378000Y-119888000D03*
X103378000Y-106680000D03*
%TO.N,GND*%
X72005000Y-104196000D03*
X85852000Y-74422000D03*
X83439000Y-140335000D03*
X88646000Y-139827000D03*
X98298000Y-105918000D03*
X123952000Y-126492000D03*
X60071000Y-138811000D03*
X90424000Y-90932000D03*
X103886000Y-133223000D03*
X115443000Y-136017000D03*
X100838000Y-95758000D03*
X94420000Y-108030000D03*
X104267000Y-61087000D03*
X92964000Y-106680000D03*
X121158000Y-105283000D03*
X90424000Y-95758000D03*
X109728000Y-135890000D03*
X76962000Y-136652000D03*
X104902000Y-102108000D03*
X86868000Y-108458000D03*
X104902000Y-99314000D03*
X103886000Y-139700000D03*
X70358000Y-139446000D03*
X88646000Y-123825000D03*
X119634000Y-139700000D03*
X98552000Y-121412000D03*
X130365000Y-138436000D03*
X74676000Y-94107000D03*
X100584000Y-90932000D03*
X103124000Y-104394000D03*
X67056000Y-127127000D03*
X97536000Y-135128000D03*
X106172000Y-126238000D03*
X85344000Y-103632000D03*
X101092000Y-98806000D03*
X86741000Y-61468000D03*
%TO.N,/UDPI*%
X96012000Y-135763000D03*
%TD*%
D20*
%TO.N,Net-(D1-K)*%
X86139000Y-133513000D02*
X87376000Y-134750000D01*
X72987000Y-133513000D02*
X80937000Y-133513000D01*
X80937000Y-133513000D02*
X86139000Y-133513000D01*
%TO.N,/LED_Power_1*%
X52315000Y-138430000D02*
X52315000Y-136915000D01*
X52315000Y-136915000D02*
X53086000Y-136144000D01*
X82550000Y-111760000D02*
X82550000Y-102870000D01*
X103124000Y-101854000D02*
X107188000Y-105918000D01*
X102108000Y-94234000D02*
X103124000Y-95250000D01*
X53086000Y-136144000D02*
X60198000Y-129032000D01*
X82550000Y-120396000D02*
X82550000Y-111760000D01*
X96393000Y-125095000D02*
X96393000Y-118102000D01*
X89916000Y-93980000D02*
X89928000Y-93968000D01*
X96266000Y-117975000D02*
X88765000Y-117975000D01*
X60198000Y-129032000D02*
X73914000Y-129032000D01*
X73914000Y-129032000D02*
X82550000Y-120396000D01*
X103124000Y-95250000D02*
X103124000Y-101854000D01*
X88765000Y-117975000D02*
X82550000Y-111760000D01*
X107188000Y-105918000D02*
X107188000Y-117975000D01*
X120000000Y-117975000D02*
X107188000Y-117975000D01*
X89928000Y-93968000D02*
X93500000Y-93968000D01*
X96393000Y-118102000D02*
X96266000Y-117975000D01*
X107188000Y-117975000D02*
X96266000Y-117975000D01*
%TO.N,/LED_Power_3*%
X101346000Y-111252000D02*
X101346000Y-107950000D01*
X109982000Y-124206000D02*
X109982000Y-132207000D01*
X90678000Y-100572000D02*
X93500000Y-100572000D01*
X108458000Y-89916000D02*
X106426000Y-91948000D01*
X104648000Y-114554000D02*
X101346000Y-111252000D01*
X104775000Y-135382000D02*
X106807000Y-135382000D01*
X90678000Y-100572000D02*
X65798000Y-100572000D01*
X106807000Y-135382000D02*
X109982000Y-132207000D01*
X65798000Y-100572000D02*
X63990000Y-102380000D01*
X109982000Y-124206000D02*
X105410000Y-119634000D01*
X113000000Y-87975000D02*
X110399000Y-87975000D01*
X110399000Y-87975000D02*
X108458000Y-89916000D01*
X106426000Y-91948000D02*
X106426000Y-99822000D01*
X63990000Y-102380000D02*
X63990000Y-104140000D01*
%TO.N,Net-(D10-K)*%
X80527000Y-73914000D02*
X82399500Y-73914000D01*
%TO.N,/LED_Power_2*%
X80763000Y-76200000D02*
X85090000Y-76200000D01*
X89650000Y-97270000D02*
X89650000Y-98056000D01*
X100000000Y-51975000D02*
X99155000Y-51975000D01*
X78477000Y-73914000D02*
X80763000Y-76200000D01*
X98806000Y-110236000D02*
X98806000Y-107442000D01*
X103378000Y-123063000D02*
X103378000Y-119888000D01*
X99155000Y-51975000D02*
X97790000Y-53340000D01*
X86360000Y-77470000D02*
X86360000Y-93980000D01*
X86360000Y-93980000D02*
X89650000Y-97270000D01*
X93218000Y-111252000D02*
X97790000Y-111252000D01*
X98806000Y-107442000D02*
X99822000Y-106426000D01*
X87630000Y-105664000D02*
X93218000Y-111252000D01*
X89650000Y-98056000D02*
X88646000Y-99060000D01*
X101219000Y-125222000D02*
X103378000Y-123063000D01*
X97790000Y-71120000D02*
X105410000Y-78740000D01*
X97790000Y-53340000D02*
X97790000Y-71120000D01*
X87630000Y-101854000D02*
X87630000Y-105664000D01*
X103124000Y-106426000D02*
X103378000Y-106680000D01*
X85090000Y-76200000D02*
X86360000Y-77470000D01*
X99822000Y-106426000D02*
X103124000Y-106426000D01*
X89650000Y-97270000D02*
X93500000Y-97270000D01*
X97790000Y-111252000D02*
X98806000Y-110236000D01*
%TO.N,Net-(D12-K)*%
X100000000Y-56912500D02*
X101087500Y-58000000D01*
X100000000Y-54025000D02*
X100000000Y-56912500D01*
%TO.N,+BATT*%
X104084000Y-130627000D02*
X100076000Y-126619000D01*
X106726000Y-130627000D02*
X104084000Y-130627000D01*
X100076000Y-126619000D02*
X89652000Y-126619000D01*
X89652000Y-126619000D02*
X85644000Y-130627000D01*
%TO.N,Net-(D18-K)*%
X120000000Y-120025000D02*
X120000000Y-121912500D01*
X120000000Y-121912500D02*
X122087500Y-124000000D01*
%TO.N,Net-(D21-K)*%
X113000000Y-93000000D02*
X114000000Y-94000000D01*
X113000000Y-90025000D02*
X113000000Y-93000000D01*
%TO.N,Net-(D22-K)*%
X56745500Y-138430000D02*
X54365000Y-138430000D01*
%TO.N,Net-(D23-K)*%
X66040000Y-104140000D02*
X67902500Y-104140000D01*
%TO.N,/UDPI*%
X96012000Y-135763000D02*
X97536000Y-137287000D01*
X97536000Y-137287000D02*
X111272000Y-137287000D01*
X111272000Y-137287000D02*
X112985000Y-139000000D01*
%TD*%
%TA.AperFunction,Conductor*%
%TO.N,GND*%
G36*
X97055703Y-43502857D02*
G01*
X97076247Y-43525695D01*
X107837179Y-58974999D01*
X120813308Y-77604628D01*
X120835472Y-77670889D01*
X120818294Y-77738614D01*
X120767228Y-77786301D01*
X120711558Y-77799500D01*
X108450952Y-77799500D01*
X108450006Y-77799458D01*
X108449902Y-77799500D01*
X108449901Y-77799500D01*
X108449821Y-77799532D01*
X108449634Y-77799601D01*
X108449633Y-77799601D01*
X108449621Y-77799606D01*
X108449545Y-77799791D01*
X108449453Y-77799987D01*
X108449538Y-77800193D01*
X108449603Y-77800370D01*
X108450298Y-77801065D01*
X123635204Y-94366416D01*
X135645523Y-107468583D01*
X135758390Y-107591710D01*
X135789180Y-107654430D01*
X135781173Y-107723839D01*
X135736911Y-107777901D01*
X135670448Y-107799452D01*
X135666983Y-107799500D01*
X115952648Y-107799500D01*
X115950022Y-107799416D01*
X115949585Y-107799580D01*
X115949407Y-107799973D01*
X115949567Y-107800392D01*
X115951370Y-107802309D01*
X145767090Y-141593459D01*
X145796684Y-141656751D01*
X145787362Y-141725996D01*
X145742084Y-141779209D01*
X145675224Y-141799495D01*
X145674110Y-141799500D01*
X46225889Y-141799500D01*
X46158850Y-141779815D01*
X46113095Y-141727011D01*
X46103151Y-141657853D01*
X46132176Y-141594297D01*
X46132909Y-141593459D01*
X48483019Y-138930001D01*
X51239500Y-138930001D01*
X51239501Y-138930019D01*
X51250000Y-139032796D01*
X51250001Y-139032799D01*
X51305185Y-139199331D01*
X51305187Y-139199336D01*
X51327436Y-139235408D01*
X51397288Y-139348656D01*
X51521344Y-139472712D01*
X51670666Y-139564814D01*
X51837203Y-139619999D01*
X51939991Y-139630500D01*
X52690008Y-139630499D01*
X52690016Y-139630498D01*
X52690019Y-139630498D01*
X52746302Y-139624748D01*
X52792797Y-139619999D01*
X52959334Y-139564814D01*
X53108656Y-139472712D01*
X53232712Y-139348656D01*
X53234461Y-139345819D01*
X53236169Y-139344283D01*
X53237193Y-139342989D01*
X53237414Y-139343163D01*
X53286406Y-139299096D01*
X53355368Y-139287872D01*
X53419451Y-139315713D01*
X53445537Y-139345817D01*
X53447288Y-139348656D01*
X53571344Y-139472712D01*
X53720666Y-139564814D01*
X53887203Y-139619999D01*
X53989991Y-139630500D01*
X54740008Y-139630499D01*
X54740016Y-139630498D01*
X54740019Y-139630498D01*
X54796302Y-139624748D01*
X54842797Y-139619999D01*
X55009334Y-139564814D01*
X55158656Y-139472712D01*
X55282712Y-139348656D01*
X55374814Y-139199334D01*
X55394311Y-139140493D01*
X55434084Y-139083051D01*
X55498600Y-139056228D01*
X55512017Y-139055500D01*
X55798519Y-139055500D01*
X55865558Y-139075185D01*
X55904058Y-139114404D01*
X55912660Y-139128350D01*
X56034650Y-139250340D01*
X56181484Y-139340908D01*
X56345247Y-139395174D01*
X56446323Y-139405500D01*
X57044676Y-139405499D01*
X57044684Y-139405498D01*
X57044687Y-139405498D01*
X57100030Y-139399844D01*
X57145753Y-139395174D01*
X57309516Y-139340908D01*
X57456350Y-139250340D01*
X57570675Y-139136014D01*
X57631994Y-139102532D01*
X57701686Y-139107516D01*
X57746034Y-139136017D01*
X57859961Y-139249944D01*
X57859965Y-139249947D01*
X58006688Y-139340448D01*
X58006699Y-139340453D01*
X58170347Y-139394680D01*
X58271351Y-139404999D01*
X58320499Y-139404998D01*
X58320500Y-139404998D01*
X58320500Y-138680000D01*
X58820500Y-138680000D01*
X58820500Y-139404999D01*
X58869640Y-139404999D01*
X58869654Y-139404998D01*
X58970652Y-139394680D01*
X59134300Y-139340453D01*
X59134311Y-139340448D01*
X59281034Y-139249947D01*
X59281038Y-139249944D01*
X59402944Y-139128038D01*
X59402947Y-139128034D01*
X59493448Y-138981311D01*
X59493453Y-138981300D01*
X59547680Y-138817652D01*
X59557999Y-138716654D01*
X59558000Y-138716641D01*
X59558000Y-138680000D01*
X58820500Y-138680000D01*
X58320500Y-138680000D01*
X58320500Y-138263000D01*
X71712000Y-138263000D01*
X71712000Y-138710844D01*
X71718401Y-138770372D01*
X71718403Y-138770379D01*
X71768645Y-138905086D01*
X71768649Y-138905093D01*
X71854809Y-139020187D01*
X71854812Y-139020190D01*
X71969906Y-139106350D01*
X71969913Y-139106354D01*
X72104620Y-139156596D01*
X72104627Y-139156598D01*
X72164155Y-139162999D01*
X72164172Y-139163000D01*
X72737000Y-139163000D01*
X72737000Y-138263000D01*
X73237000Y-138263000D01*
X73237000Y-139163000D01*
X73809828Y-139163000D01*
X73809844Y-139162999D01*
X73869372Y-139156598D01*
X73869379Y-139156596D01*
X74004086Y-139106354D01*
X74004093Y-139106350D01*
X74119187Y-139020190D01*
X74119190Y-139020187D01*
X74205350Y-138905093D01*
X74205354Y-138905086D01*
X74255596Y-138770379D01*
X74255598Y-138770372D01*
X74261999Y-138710844D01*
X74262000Y-138710827D01*
X74262000Y-138263000D01*
X79662000Y-138263000D01*
X79662000Y-138710844D01*
X79668401Y-138770372D01*
X79668403Y-138770379D01*
X79718645Y-138905086D01*
X79718649Y-138905093D01*
X79804809Y-139020187D01*
X79804812Y-139020190D01*
X79919906Y-139106350D01*
X79919913Y-139106354D01*
X80054620Y-139156596D01*
X80054627Y-139156598D01*
X80114155Y-139162999D01*
X80114172Y-139163000D01*
X80687000Y-139163000D01*
X80687000Y-138263000D01*
X81187000Y-138263000D01*
X81187000Y-139163000D01*
X81759828Y-139163000D01*
X81759844Y-139162999D01*
X81819372Y-139156598D01*
X81819379Y-139156596D01*
X81954086Y-139106354D01*
X81954093Y-139106350D01*
X82069187Y-139020190D01*
X82069190Y-139020187D01*
X82155350Y-138905093D01*
X82155354Y-138905086D01*
X82205596Y-138770379D01*
X82205598Y-138770372D01*
X82211999Y-138710844D01*
X82212000Y-138710827D01*
X82212000Y-138263000D01*
X81187000Y-138263000D01*
X80687000Y-138263000D01*
X79662000Y-138263000D01*
X74262000Y-138263000D01*
X73237000Y-138263000D01*
X72737000Y-138263000D01*
X71712000Y-138263000D01*
X58320500Y-138263000D01*
X58320500Y-137455000D01*
X58820500Y-137455000D01*
X58820500Y-138180000D01*
X59557999Y-138180000D01*
X59557999Y-138143360D01*
X59557998Y-138143345D01*
X59547680Y-138042347D01*
X59493453Y-137878699D01*
X59493448Y-137878688D01*
X59422090Y-137763000D01*
X71712000Y-137763000D01*
X72737000Y-137763000D01*
X72737000Y-136863000D01*
X73237000Y-136863000D01*
X73237000Y-137763000D01*
X74262000Y-137763000D01*
X79662000Y-137763000D01*
X80687000Y-137763000D01*
X80687000Y-136863000D01*
X81187000Y-136863000D01*
X81187000Y-137763000D01*
X82212000Y-137763000D01*
X82212000Y-137315172D01*
X82211999Y-137315155D01*
X82205598Y-137255627D01*
X82205596Y-137255620D01*
X82155354Y-137120913D01*
X82155350Y-137120906D01*
X82069190Y-137005812D01*
X82069187Y-137005809D01*
X81954093Y-136919649D01*
X81954086Y-136919645D01*
X81819379Y-136869403D01*
X81819372Y-136869401D01*
X81759844Y-136863000D01*
X81187000Y-136863000D01*
X80687000Y-136863000D01*
X80114155Y-136863000D01*
X80054627Y-136869401D01*
X80054620Y-136869403D01*
X79919913Y-136919645D01*
X79919906Y-136919649D01*
X79804812Y-137005809D01*
X79804809Y-137005812D01*
X79718649Y-137120906D01*
X79718645Y-137120913D01*
X79668403Y-137255620D01*
X79668401Y-137255627D01*
X79662000Y-137315155D01*
X79662000Y-137763000D01*
X74262000Y-137763000D01*
X74262000Y-137315172D01*
X74261999Y-137315155D01*
X74255598Y-137255627D01*
X74255596Y-137255620D01*
X74205354Y-137120913D01*
X74205350Y-137120906D01*
X74119190Y-137005812D01*
X74119187Y-137005809D01*
X74004093Y-136919649D01*
X74004086Y-136919645D01*
X73869379Y-136869403D01*
X73869372Y-136869401D01*
X73809844Y-136863000D01*
X73237000Y-136863000D01*
X72737000Y-136863000D01*
X72164155Y-136863000D01*
X72104627Y-136869401D01*
X72104620Y-136869403D01*
X71969913Y-136919645D01*
X71969906Y-136919649D01*
X71854812Y-137005809D01*
X71854809Y-137005812D01*
X71768649Y-137120906D01*
X71768645Y-137120913D01*
X71718403Y-137255620D01*
X71718401Y-137255627D01*
X71712000Y-137315155D01*
X71712000Y-137763000D01*
X59422090Y-137763000D01*
X59402947Y-137731965D01*
X59402944Y-137731961D01*
X59281038Y-137610055D01*
X59281034Y-137610052D01*
X59134311Y-137519551D01*
X59134300Y-137519546D01*
X58970652Y-137465319D01*
X58869654Y-137455000D01*
X58820500Y-137455000D01*
X58320500Y-137455000D01*
X58320499Y-137454999D01*
X58271361Y-137455000D01*
X58271343Y-137455001D01*
X58170347Y-137465319D01*
X58006699Y-137519546D01*
X58006688Y-137519551D01*
X57859965Y-137610052D01*
X57746034Y-137723983D01*
X57684711Y-137757467D01*
X57615019Y-137752483D01*
X57570672Y-137723982D01*
X57456351Y-137609661D01*
X57456350Y-137609660D01*
X57365129Y-137553395D01*
X57309518Y-137519093D01*
X57309513Y-137519091D01*
X57286128Y-137511342D01*
X57145753Y-137464826D01*
X57145751Y-137464825D01*
X57044678Y-137454500D01*
X56446330Y-137454500D01*
X56446312Y-137454501D01*
X56345247Y-137464825D01*
X56181484Y-137519092D01*
X56181481Y-137519093D01*
X56034648Y-137609661D01*
X55912660Y-137731649D01*
X55912659Y-137731651D01*
X55904058Y-137745596D01*
X55852110Y-137792321D01*
X55798519Y-137804500D01*
X55512017Y-137804500D01*
X55444978Y-137784815D01*
X55399223Y-137732011D01*
X55394311Y-137719505D01*
X55391289Y-137710385D01*
X55374814Y-137660666D01*
X55282712Y-137511344D01*
X55158656Y-137387288D01*
X55009334Y-137295186D01*
X54842797Y-137240001D01*
X54842795Y-137240000D01*
X54740010Y-137229500D01*
X53989998Y-137229500D01*
X53989980Y-137229501D01*
X53887203Y-137240000D01*
X53887200Y-137240001D01*
X53720668Y-137295185D01*
X53720663Y-137295187D01*
X53571342Y-137387289D01*
X53447285Y-137511346D01*
X53445537Y-137514182D01*
X53443829Y-137515717D01*
X53442807Y-137517011D01*
X53442585Y-137516836D01*
X53393589Y-137560905D01*
X53324626Y-137572126D01*
X53260544Y-137544282D01*
X53234463Y-137514182D01*
X53232714Y-137511346D01*
X53108657Y-137387289D01*
X53108656Y-137387288D01*
X53006262Y-137324131D01*
X52959537Y-137272183D01*
X52948316Y-137203220D01*
X52976159Y-137139138D01*
X52983667Y-137130922D01*
X53556120Y-136558470D01*
X53614679Y-136499911D01*
X53614692Y-136499896D01*
X54351588Y-135763000D01*
X95106540Y-135763000D01*
X95126326Y-135951256D01*
X95126327Y-135951259D01*
X95184818Y-136131277D01*
X95184821Y-136131284D01*
X95279467Y-136295216D01*
X95386600Y-136414199D01*
X95406129Y-136435888D01*
X95559265Y-136547148D01*
X95559270Y-136547151D01*
X95732192Y-136624142D01*
X95732197Y-136624144D01*
X95917354Y-136663500D01*
X95976548Y-136663500D01*
X96043587Y-136683185D01*
X96064228Y-136699818D01*
X96567629Y-137203220D01*
X97035197Y-137670788D01*
X97045022Y-137683051D01*
X97045243Y-137682869D01*
X97050214Y-137688878D01*
X97068663Y-137706202D01*
X97100635Y-137736226D01*
X97121529Y-137757120D01*
X97127011Y-137761373D01*
X97131443Y-137765157D01*
X97165418Y-137797062D01*
X97182976Y-137806714D01*
X97199235Y-137817395D01*
X97215064Y-137829673D01*
X97257838Y-137848182D01*
X97263056Y-137850738D01*
X97303908Y-137873197D01*
X97323316Y-137878180D01*
X97341717Y-137884480D01*
X97360104Y-137892437D01*
X97403488Y-137899308D01*
X97406119Y-137899725D01*
X97411839Y-137900909D01*
X97456981Y-137912500D01*
X97477016Y-137912500D01*
X97496414Y-137914026D01*
X97516194Y-137917159D01*
X97516195Y-137917160D01*
X97516195Y-137917159D01*
X97516196Y-137917160D01*
X97562584Y-137912775D01*
X97568422Y-137912500D01*
X109323950Y-137912500D01*
X109390989Y-137932185D01*
X109436744Y-137984989D01*
X109446688Y-138054147D01*
X109417663Y-138117703D01*
X109411631Y-138124181D01*
X109406891Y-138128920D01*
X109406886Y-138128926D01*
X109271400Y-138322420D01*
X109271399Y-138322422D01*
X109171570Y-138536507D01*
X109171567Y-138536513D01*
X109114364Y-138749999D01*
X109114364Y-138750000D01*
X110011314Y-138750000D01*
X109985507Y-138790156D01*
X109945000Y-138928111D01*
X109945000Y-139071889D01*
X109985507Y-139209844D01*
X110011314Y-139250000D01*
X109114364Y-139250000D01*
X109171567Y-139463486D01*
X109171570Y-139463492D01*
X109271399Y-139677578D01*
X109406894Y-139871082D01*
X109573917Y-140038105D01*
X109767421Y-140173600D01*
X109981507Y-140273429D01*
X109981516Y-140273433D01*
X110195000Y-140330634D01*
X110195000Y-139435501D01*
X110302685Y-139484680D01*
X110409237Y-139500000D01*
X110480763Y-139500000D01*
X110587315Y-139484680D01*
X110695000Y-139435501D01*
X110695000Y-140330633D01*
X110908483Y-140273433D01*
X110908492Y-140273429D01*
X111122578Y-140173600D01*
X111316082Y-140038105D01*
X111483105Y-139871082D01*
X111613119Y-139685405D01*
X111667696Y-139641781D01*
X111737195Y-139634588D01*
X111799549Y-139666110D01*
X111816269Y-139685405D01*
X111946505Y-139871401D01*
X112113599Y-140038495D01*
X112210384Y-140106265D01*
X112307165Y-140174032D01*
X112307167Y-140174033D01*
X112307170Y-140174035D01*
X112521337Y-140273903D01*
X112749592Y-140335063D01*
X112926034Y-140350500D01*
X112984999Y-140355659D01*
X112985000Y-140355659D01*
X112985001Y-140355659D01*
X113043966Y-140350500D01*
X113220408Y-140335063D01*
X113448663Y-140273903D01*
X113662830Y-140174035D01*
X113856401Y-140038495D01*
X113978329Y-139916566D01*
X114039648Y-139883084D01*
X114109340Y-139888068D01*
X114165274Y-139929939D01*
X114182189Y-139960917D01*
X114231202Y-140092328D01*
X114231206Y-140092335D01*
X114317452Y-140207544D01*
X114317455Y-140207547D01*
X114432664Y-140293793D01*
X114432671Y-140293797D01*
X114567517Y-140344091D01*
X114567516Y-140344091D01*
X114574444Y-140344835D01*
X114627127Y-140350500D01*
X116422872Y-140350499D01*
X116482483Y-140344091D01*
X116617331Y-140293796D01*
X116732546Y-140207546D01*
X116818796Y-140092331D01*
X116869091Y-139957483D01*
X116875500Y-139897873D01*
X116875499Y-138102128D01*
X116869091Y-138042517D01*
X116868990Y-138042247D01*
X116818797Y-137907671D01*
X116818793Y-137907664D01*
X116732547Y-137792455D01*
X116732544Y-137792452D01*
X116617335Y-137706206D01*
X116617328Y-137706202D01*
X116482482Y-137655908D01*
X116482483Y-137655908D01*
X116422883Y-137649501D01*
X116422881Y-137649500D01*
X116422873Y-137649500D01*
X116422864Y-137649500D01*
X114627129Y-137649500D01*
X114627123Y-137649501D01*
X114567516Y-137655908D01*
X114432671Y-137706202D01*
X114432664Y-137706206D01*
X114317455Y-137792452D01*
X114317452Y-137792455D01*
X114231206Y-137907664D01*
X114231203Y-137907669D01*
X114182189Y-138039083D01*
X114140317Y-138095016D01*
X114074853Y-138119433D01*
X114006580Y-138104581D01*
X113978326Y-138083430D01*
X113856402Y-137961506D01*
X113856395Y-137961501D01*
X113662834Y-137825967D01*
X113662830Y-137825965D01*
X113600841Y-137797059D01*
X113448663Y-137726097D01*
X113448659Y-137726096D01*
X113448655Y-137726094D01*
X113220413Y-137664938D01*
X113220403Y-137664936D01*
X112985001Y-137644341D01*
X112984999Y-137644341D01*
X112749596Y-137664936D01*
X112749586Y-137664938D01*
X112649126Y-137691856D01*
X112579276Y-137690193D01*
X112529352Y-137659762D01*
X112164777Y-137295187D01*
X111772803Y-136903212D01*
X111762980Y-136890950D01*
X111762759Y-136891134D01*
X111757786Y-136885123D01*
X111741044Y-136869401D01*
X111707364Y-136837773D01*
X111696919Y-136827328D01*
X111686475Y-136816883D01*
X111680986Y-136812625D01*
X111676561Y-136808847D01*
X111642582Y-136776938D01*
X111642580Y-136776936D01*
X111642577Y-136776935D01*
X111625029Y-136767288D01*
X111608763Y-136756604D01*
X111592933Y-136744325D01*
X111550168Y-136725818D01*
X111544922Y-136723248D01*
X111504093Y-136700803D01*
X111504092Y-136700802D01*
X111484693Y-136695822D01*
X111466281Y-136689518D01*
X111447898Y-136681562D01*
X111447892Y-136681560D01*
X111401874Y-136674272D01*
X111396152Y-136673087D01*
X111351021Y-136661500D01*
X111351019Y-136661500D01*
X111330984Y-136661500D01*
X111311586Y-136659973D01*
X111304162Y-136658797D01*
X111291805Y-136656840D01*
X111291804Y-136656840D01*
X111245416Y-136661225D01*
X111239578Y-136661500D01*
X97846453Y-136661500D01*
X97779414Y-136641815D01*
X97758772Y-136625181D01*
X96950960Y-135817369D01*
X96917475Y-135756046D01*
X96915323Y-135742668D01*
X96897674Y-135574744D01*
X96839179Y-135394716D01*
X96744533Y-135230784D01*
X96617871Y-135090112D01*
X96617870Y-135090111D01*
X96464734Y-134978851D01*
X96464729Y-134978848D01*
X96291807Y-134901857D01*
X96291802Y-134901855D01*
X96146001Y-134870865D01*
X96106646Y-134862500D01*
X95917354Y-134862500D01*
X95884897Y-134869398D01*
X95732197Y-134901855D01*
X95732192Y-134901857D01*
X95559270Y-134978848D01*
X95559265Y-134978851D01*
X95406129Y-135090111D01*
X95279466Y-135230785D01*
X95184821Y-135394715D01*
X95184818Y-135394722D01*
X95127784Y-135570256D01*
X95126326Y-135574744D01*
X95106540Y-135763000D01*
X54351588Y-135763000D01*
X55903719Y-134210870D01*
X71711500Y-134210870D01*
X71711501Y-134210876D01*
X71717908Y-134270483D01*
X71768202Y-134405328D01*
X71768206Y-134405335D01*
X71854452Y-134520544D01*
X71854455Y-134520547D01*
X71969664Y-134606793D01*
X71969671Y-134606797D01*
X72104517Y-134657091D01*
X72104516Y-134657091D01*
X72111444Y-134657835D01*
X72164127Y-134663500D01*
X73809872Y-134663499D01*
X73869483Y-134657091D01*
X74004331Y-134606796D01*
X74119546Y-134520546D01*
X74205796Y-134405331D01*
X74256091Y-134270483D01*
X74258375Y-134249243D01*
X74285114Y-134184692D01*
X74342507Y-134144845D01*
X74381664Y-134138500D01*
X79542336Y-134138500D01*
X79609375Y-134158185D01*
X79655130Y-134210989D01*
X79665626Y-134249246D01*
X79667909Y-134270483D01*
X79718202Y-134405328D01*
X79718206Y-134405335D01*
X79804452Y-134520544D01*
X79804455Y-134520547D01*
X79919664Y-134606793D01*
X79919671Y-134606797D01*
X80054517Y-134657091D01*
X80054516Y-134657091D01*
X80061444Y-134657835D01*
X80114127Y-134663500D01*
X81759872Y-134663499D01*
X81819483Y-134657091D01*
X81954331Y-134606796D01*
X82069546Y-134520546D01*
X82155796Y-134405331D01*
X82206091Y-134270483D01*
X82208375Y-134249243D01*
X82235114Y-134184692D01*
X82292507Y-134144845D01*
X82331664Y-134138500D01*
X85828548Y-134138500D01*
X85895587Y-134158185D01*
X85916229Y-134174819D01*
X86437038Y-134695629D01*
X86470523Y-134756952D01*
X86472678Y-134770348D01*
X86480968Y-134849227D01*
X86490326Y-134938256D01*
X86490327Y-134938259D01*
X86548818Y-135118277D01*
X86548821Y-135118284D01*
X86643467Y-135282216D01*
X86733313Y-135382000D01*
X86770129Y-135422888D01*
X86923265Y-135534148D01*
X86923270Y-135534151D01*
X87096192Y-135611142D01*
X87096197Y-135611144D01*
X87281354Y-135650500D01*
X87281355Y-135650500D01*
X87470644Y-135650500D01*
X87470646Y-135650500D01*
X87655803Y-135611144D01*
X87828730Y-135534151D01*
X87981871Y-135422888D01*
X88108533Y-135282216D01*
X88203179Y-135118284D01*
X88261674Y-134938256D01*
X88281460Y-134750000D01*
X88261674Y-134561744D01*
X88203179Y-134381716D01*
X88108533Y-134217784D01*
X87981871Y-134077112D01*
X87981870Y-134077111D01*
X87828734Y-133965851D01*
X87828729Y-133965848D01*
X87655807Y-133888857D01*
X87655802Y-133888855D01*
X87510001Y-133857865D01*
X87470646Y-133849500D01*
X87470645Y-133849500D01*
X87411453Y-133849500D01*
X87344414Y-133829815D01*
X87323772Y-133813181D01*
X86639803Y-133129212D01*
X86629980Y-133116950D01*
X86629759Y-133117134D01*
X86624786Y-133111123D01*
X86574364Y-133063773D01*
X86563919Y-133053328D01*
X86553475Y-133042883D01*
X86547986Y-133038625D01*
X86543561Y-133034847D01*
X86509582Y-133002938D01*
X86509580Y-133002936D01*
X86509577Y-133002935D01*
X86492029Y-132993288D01*
X86475763Y-132982604D01*
X86459933Y-132970325D01*
X86417168Y-132951818D01*
X86411922Y-132949248D01*
X86371093Y-132926803D01*
X86371092Y-132926802D01*
X86351693Y-132921822D01*
X86333281Y-132915518D01*
X86314898Y-132907562D01*
X86314892Y-132907560D01*
X86268874Y-132900272D01*
X86263152Y-132899087D01*
X86218021Y-132887500D01*
X86218019Y-132887500D01*
X86197984Y-132887500D01*
X86178586Y-132885973D01*
X86171162Y-132884797D01*
X86158805Y-132882840D01*
X86158804Y-132882840D01*
X86112416Y-132887225D01*
X86106578Y-132887500D01*
X82331664Y-132887500D01*
X82264625Y-132867815D01*
X82218870Y-132815011D01*
X82208374Y-132776754D01*
X82208170Y-132774857D01*
X82206091Y-132755517D01*
X82155796Y-132620669D01*
X82155795Y-132620668D01*
X82155793Y-132620664D01*
X82069547Y-132505455D01*
X82069544Y-132505452D01*
X81954335Y-132419206D01*
X81954328Y-132419202D01*
X81819482Y-132368908D01*
X81819483Y-132368908D01*
X81759883Y-132362501D01*
X81759881Y-132362500D01*
X81759873Y-132362500D01*
X81759864Y-132362500D01*
X80114129Y-132362500D01*
X80114123Y-132362501D01*
X80054516Y-132368908D01*
X79919671Y-132419202D01*
X79919664Y-132419206D01*
X79804455Y-132505452D01*
X79804452Y-132505455D01*
X79718206Y-132620664D01*
X79718202Y-132620671D01*
X79667908Y-132755516D01*
X79665625Y-132776757D01*
X79638886Y-132841308D01*
X79581493Y-132881155D01*
X79542336Y-132887500D01*
X74381664Y-132887500D01*
X74314625Y-132867815D01*
X74268870Y-132815011D01*
X74258374Y-132776754D01*
X74258170Y-132774857D01*
X74256091Y-132755517D01*
X74205796Y-132620669D01*
X74205795Y-132620668D01*
X74205793Y-132620664D01*
X74119547Y-132505455D01*
X74119544Y-132505452D01*
X74004335Y-132419206D01*
X74004328Y-132419202D01*
X73869482Y-132368908D01*
X73869483Y-132368908D01*
X73809883Y-132362501D01*
X73809881Y-132362500D01*
X73809873Y-132362500D01*
X73809864Y-132362500D01*
X72164129Y-132362500D01*
X72164123Y-132362501D01*
X72104516Y-132368908D01*
X71969671Y-132419202D01*
X71969664Y-132419206D01*
X71854455Y-132505452D01*
X71854452Y-132505455D01*
X71768206Y-132620664D01*
X71768202Y-132620671D01*
X71717908Y-132755517D01*
X71711501Y-132815116D01*
X71711500Y-132815135D01*
X71711500Y-134210870D01*
X55903719Y-134210870D01*
X60420772Y-129693819D01*
X60482095Y-129660334D01*
X60508453Y-129657500D01*
X73831257Y-129657500D01*
X73846877Y-129659224D01*
X73846904Y-129658939D01*
X73854660Y-129659671D01*
X73854667Y-129659673D01*
X73923814Y-129657500D01*
X73953350Y-129657500D01*
X73960228Y-129656630D01*
X73966041Y-129656172D01*
X74012627Y-129654709D01*
X74031869Y-129649117D01*
X74050912Y-129645174D01*
X74070792Y-129642664D01*
X74114122Y-129625507D01*
X74119646Y-129623617D01*
X74123396Y-129622527D01*
X74164390Y-129610618D01*
X74181629Y-129600422D01*
X74199103Y-129591862D01*
X74217727Y-129584488D01*
X74217727Y-129584487D01*
X74217732Y-129584486D01*
X74255449Y-129557082D01*
X74260305Y-129553892D01*
X74300420Y-129530170D01*
X74314589Y-129515999D01*
X74329379Y-129503368D01*
X74345587Y-129491594D01*
X74375299Y-129455676D01*
X74379212Y-129451376D01*
X82933788Y-120896801D01*
X82946042Y-120886986D01*
X82945859Y-120886764D01*
X82951866Y-120881792D01*
X82951877Y-120881786D01*
X82982775Y-120848882D01*
X82999227Y-120831364D01*
X83009671Y-120820918D01*
X83020120Y-120810471D01*
X83024379Y-120804978D01*
X83028152Y-120800561D01*
X83060062Y-120766582D01*
X83069713Y-120749024D01*
X83080396Y-120732761D01*
X83092673Y-120716936D01*
X83111185Y-120674153D01*
X83113738Y-120668941D01*
X83136197Y-120628092D01*
X83141180Y-120608680D01*
X83147481Y-120590280D01*
X83155437Y-120571896D01*
X83162729Y-120525852D01*
X83163906Y-120520171D01*
X83175500Y-120475019D01*
X83175500Y-120454983D01*
X83177027Y-120435582D01*
X83180160Y-120415804D01*
X83175775Y-120369415D01*
X83175500Y-120363577D01*
X83175500Y-113569452D01*
X83195185Y-113502413D01*
X83247989Y-113456658D01*
X83317147Y-113446714D01*
X83380703Y-113475739D01*
X83387181Y-113481771D01*
X88264197Y-118358788D01*
X88274022Y-118371051D01*
X88274243Y-118370869D01*
X88279214Y-118376878D01*
X88305217Y-118401295D01*
X88329635Y-118424226D01*
X88350529Y-118445120D01*
X88356011Y-118449373D01*
X88360443Y-118453157D01*
X88394418Y-118485062D01*
X88411976Y-118494714D01*
X88428235Y-118505395D01*
X88444064Y-118517673D01*
X88486838Y-118536182D01*
X88492056Y-118538738D01*
X88532908Y-118561197D01*
X88552316Y-118566180D01*
X88570717Y-118572480D01*
X88589104Y-118580437D01*
X88632488Y-118587308D01*
X88635119Y-118587725D01*
X88640839Y-118588909D01*
X88685981Y-118600500D01*
X88706016Y-118600500D01*
X88725414Y-118602026D01*
X88745194Y-118605159D01*
X88745195Y-118605160D01*
X88745195Y-118605159D01*
X88745196Y-118605160D01*
X88791584Y-118600775D01*
X88797422Y-118600500D01*
X95643500Y-118600500D01*
X95710539Y-118620185D01*
X95756294Y-118672989D01*
X95767500Y-118724500D01*
X95767500Y-124396312D01*
X95747815Y-124463351D01*
X95735650Y-124479284D01*
X95660466Y-124562784D01*
X95565821Y-124726715D01*
X95565818Y-124726722D01*
X95507327Y-124906740D01*
X95507326Y-124906744D01*
X95487540Y-125095000D01*
X95507326Y-125283256D01*
X95507327Y-125283259D01*
X95565818Y-125463277D01*
X95565821Y-125463284D01*
X95660467Y-125627216D01*
X95773118Y-125752327D01*
X95787128Y-125767887D01*
X95788909Y-125769181D01*
X95789690Y-125770194D01*
X95791958Y-125772236D01*
X95791584Y-125772650D01*
X95831576Y-125824510D01*
X95837556Y-125894124D01*
X95804950Y-125955919D01*
X95744112Y-125990277D01*
X95716025Y-125993500D01*
X89734743Y-125993500D01*
X89719122Y-125991775D01*
X89719096Y-125992061D01*
X89711334Y-125991327D01*
X89711333Y-125991327D01*
X89642186Y-125993500D01*
X89612649Y-125993500D01*
X89605766Y-125994369D01*
X89599949Y-125994826D01*
X89553373Y-125996290D01*
X89534129Y-126001881D01*
X89515079Y-126005825D01*
X89495211Y-126008334D01*
X89451884Y-126025488D01*
X89446358Y-126027379D01*
X89401614Y-126040379D01*
X89401610Y-126040381D01*
X89384366Y-126050579D01*
X89366905Y-126059133D01*
X89348274Y-126066510D01*
X89348262Y-126066517D01*
X89310570Y-126093902D01*
X89305687Y-126097109D01*
X89265580Y-126120829D01*
X89251414Y-126134995D01*
X89236624Y-126147627D01*
X89220414Y-126159404D01*
X89220411Y-126159407D01*
X89190710Y-126195309D01*
X89186777Y-126199631D01*
X86611162Y-128775246D01*
X86549839Y-128808731D01*
X86480148Y-128803747D01*
X86403734Y-128775246D01*
X86209046Y-128702631D01*
X86209042Y-128702630D01*
X86209039Y-128702629D01*
X85929433Y-128641804D01*
X85644001Y-128621390D01*
X85643999Y-128621390D01*
X85358566Y-128641804D01*
X85078962Y-128702628D01*
X84810833Y-128802635D01*
X84559690Y-128939770D01*
X84559682Y-128939775D01*
X84330612Y-129111254D01*
X84330594Y-129111270D01*
X84128270Y-129313594D01*
X84128254Y-129313612D01*
X83956775Y-129542682D01*
X83956770Y-129542690D01*
X83819635Y-129793833D01*
X83719628Y-130061962D01*
X83658804Y-130341566D01*
X83638390Y-130626998D01*
X83638390Y-130627001D01*
X83658804Y-130912433D01*
X83719628Y-131192037D01*
X83719630Y-131192043D01*
X83719631Y-131192046D01*
X83772266Y-131333166D01*
X83819635Y-131460166D01*
X83956770Y-131711309D01*
X83956775Y-131711317D01*
X84128254Y-131940387D01*
X84128270Y-131940405D01*
X84330594Y-132142729D01*
X84330612Y-132142745D01*
X84559682Y-132314224D01*
X84559690Y-132314229D01*
X84810833Y-132451364D01*
X84810832Y-132451364D01*
X84810836Y-132451365D01*
X84810839Y-132451367D01*
X85078954Y-132551369D01*
X85078960Y-132551370D01*
X85078962Y-132551371D01*
X85358566Y-132612195D01*
X85358568Y-132612195D01*
X85358572Y-132612196D01*
X85612220Y-132630337D01*
X85643999Y-132632610D01*
X85644000Y-132632610D01*
X85644001Y-132632610D01*
X85672595Y-132630564D01*
X85929428Y-132612196D01*
X86088547Y-132577582D01*
X86209037Y-132551371D01*
X86209037Y-132551370D01*
X86209046Y-132551369D01*
X86477161Y-132451367D01*
X86728315Y-132314226D01*
X86957395Y-132142739D01*
X87159739Y-131940395D01*
X87331226Y-131711315D01*
X87468367Y-131460161D01*
X87568369Y-131192046D01*
X87568371Y-131192037D01*
X87629195Y-130912433D01*
X87629195Y-130912432D01*
X87629196Y-130912428D01*
X87631730Y-130877000D01*
X93185000Y-130877000D01*
X93185000Y-133174844D01*
X93191401Y-133234372D01*
X93191403Y-133234379D01*
X93241645Y-133369086D01*
X93241649Y-133369093D01*
X93327809Y-133484187D01*
X93327812Y-133484190D01*
X93442906Y-133570350D01*
X93442913Y-133570354D01*
X93577620Y-133620596D01*
X93577627Y-133620598D01*
X93637155Y-133626999D01*
X93637172Y-133627000D01*
X95935000Y-133627000D01*
X95935000Y-130877000D01*
X96435000Y-130877000D01*
X96435000Y-133627000D01*
X98732828Y-133627000D01*
X98732844Y-133626999D01*
X98792372Y-133620598D01*
X98792379Y-133620596D01*
X98927086Y-133570354D01*
X98927093Y-133570350D01*
X99042187Y-133484190D01*
X99042190Y-133484187D01*
X99128350Y-133369093D01*
X99128354Y-133369086D01*
X99178596Y-133234379D01*
X99178598Y-133234372D01*
X99184999Y-133174844D01*
X99185000Y-133174827D01*
X99185000Y-130877000D01*
X96435000Y-130877000D01*
X95935000Y-130877000D01*
X93185000Y-130877000D01*
X87631730Y-130877000D01*
X87649610Y-130627000D01*
X87631730Y-130377000D01*
X93185000Y-130377000D01*
X95935000Y-130377000D01*
X95935000Y-127627000D01*
X96435000Y-127627000D01*
X96435000Y-130377000D01*
X99185000Y-130377000D01*
X99185000Y-128079172D01*
X99184999Y-128079155D01*
X99178598Y-128019627D01*
X99178596Y-128019620D01*
X99128354Y-127884913D01*
X99128350Y-127884906D01*
X99042190Y-127769812D01*
X99042187Y-127769809D01*
X98927093Y-127683649D01*
X98927086Y-127683645D01*
X98792379Y-127633403D01*
X98792372Y-127633401D01*
X98732844Y-127627000D01*
X96435000Y-127627000D01*
X95935000Y-127627000D01*
X93637155Y-127627000D01*
X93577627Y-127633401D01*
X93577620Y-127633403D01*
X93442913Y-127683645D01*
X93442906Y-127683649D01*
X93327812Y-127769809D01*
X93327809Y-127769812D01*
X93241649Y-127884906D01*
X93241645Y-127884913D01*
X93191403Y-128019620D01*
X93191401Y-128019627D01*
X93185000Y-128079155D01*
X93185000Y-130377000D01*
X87631730Y-130377000D01*
X87629196Y-130341572D01*
X87568369Y-130061954D01*
X87468367Y-129793839D01*
X87468364Y-129793833D01*
X87467252Y-129790851D01*
X87462268Y-129721159D01*
X87495753Y-129659836D01*
X89874772Y-127280819D01*
X89936095Y-127247334D01*
X89962453Y-127244500D01*
X99765548Y-127244500D01*
X99832587Y-127264185D01*
X99853229Y-127280819D01*
X103583197Y-131010788D01*
X103593022Y-131023051D01*
X103593243Y-131022869D01*
X103598214Y-131028878D01*
X103624217Y-131053295D01*
X103648635Y-131076226D01*
X103669529Y-131097120D01*
X103675011Y-131101373D01*
X103679443Y-131105157D01*
X103713418Y-131137062D01*
X103730976Y-131146714D01*
X103747233Y-131157393D01*
X103763064Y-131169673D01*
X103782737Y-131178186D01*
X103805833Y-131188182D01*
X103811077Y-131190750D01*
X103851908Y-131213197D01*
X103864523Y-131216435D01*
X103871305Y-131218177D01*
X103889719Y-131224481D01*
X103908104Y-131232438D01*
X103954157Y-131239732D01*
X103959826Y-131240906D01*
X104004981Y-131252500D01*
X104025016Y-131252500D01*
X104044413Y-131254026D01*
X104064196Y-131257160D01*
X104110584Y-131252775D01*
X104116422Y-131252500D01*
X104738084Y-131252500D01*
X104805123Y-131272185D01*
X104850878Y-131324989D01*
X104854266Y-131333166D01*
X104901635Y-131460166D01*
X105038770Y-131711309D01*
X105038775Y-131711317D01*
X105210254Y-131940387D01*
X105210270Y-131940405D01*
X105412594Y-132142729D01*
X105412612Y-132142745D01*
X105641682Y-132314224D01*
X105641690Y-132314229D01*
X105892833Y-132451364D01*
X105892832Y-132451364D01*
X105892836Y-132451365D01*
X105892839Y-132451367D01*
X106160954Y-132551369D01*
X106160960Y-132551370D01*
X106160962Y-132551371D01*
X106440566Y-132612195D01*
X106440568Y-132612195D01*
X106440572Y-132612196D01*
X106694220Y-132630337D01*
X106725999Y-132632610D01*
X106726000Y-132632610D01*
X106726001Y-132632610D01*
X106754595Y-132630564D01*
X107011428Y-132612196D01*
X107170547Y-132577582D01*
X107291037Y-132551371D01*
X107291037Y-132551370D01*
X107291046Y-132551369D01*
X107559161Y-132451367D01*
X107810315Y-132314226D01*
X108039395Y-132142739D01*
X108241739Y-131940395D01*
X108413226Y-131711315D01*
X108550367Y-131460161D01*
X108650369Y-131192046D01*
X108650371Y-131192037D01*
X108711195Y-130912433D01*
X108711195Y-130912432D01*
X108711196Y-130912428D01*
X108731610Y-130627000D01*
X108711196Y-130341572D01*
X108650369Y-130061954D01*
X108550367Y-129793839D01*
X108548735Y-129790851D01*
X108413229Y-129542690D01*
X108413224Y-129542682D01*
X108241745Y-129313612D01*
X108241729Y-129313594D01*
X108039405Y-129111270D01*
X108039387Y-129111254D01*
X107810317Y-128939775D01*
X107810309Y-128939770D01*
X107559166Y-128802635D01*
X107559167Y-128802635D01*
X107451915Y-128762632D01*
X107291046Y-128702631D01*
X107291043Y-128702630D01*
X107291037Y-128702628D01*
X107011433Y-128641804D01*
X106726001Y-128621390D01*
X106725999Y-128621390D01*
X106440566Y-128641804D01*
X106160962Y-128702628D01*
X105892833Y-128802635D01*
X105641690Y-128939770D01*
X105641682Y-128939775D01*
X105412612Y-129111254D01*
X105412594Y-129111270D01*
X105210270Y-129313594D01*
X105210254Y-129313612D01*
X105038775Y-129542682D01*
X105038770Y-129542690D01*
X104901635Y-129793833D01*
X104854266Y-129920834D01*
X104812394Y-129976768D01*
X104746929Y-130001184D01*
X104738084Y-130001500D01*
X104394452Y-130001500D01*
X104327413Y-129981815D01*
X104306771Y-129965181D01*
X100576803Y-126235212D01*
X100566980Y-126222950D01*
X100566759Y-126223134D01*
X100561786Y-126217123D01*
X100543159Y-126199631D01*
X100511364Y-126169773D01*
X100500919Y-126159328D01*
X100490475Y-126148883D01*
X100484986Y-126144625D01*
X100480561Y-126140847D01*
X100446582Y-126108938D01*
X100446580Y-126108936D01*
X100446577Y-126108935D01*
X100429029Y-126099288D01*
X100412763Y-126088604D01*
X100405724Y-126083144D01*
X100396936Y-126076327D01*
X100396935Y-126076326D01*
X100396933Y-126076325D01*
X100354168Y-126057818D01*
X100348922Y-126055248D01*
X100308093Y-126032803D01*
X100308092Y-126032802D01*
X100288693Y-126027822D01*
X100270281Y-126021518D01*
X100251898Y-126013562D01*
X100251892Y-126013560D01*
X100205874Y-126006272D01*
X100200152Y-126005087D01*
X100155021Y-125993500D01*
X100155019Y-125993500D01*
X100134984Y-125993500D01*
X100115586Y-125991973D01*
X100104877Y-125990277D01*
X100095805Y-125988840D01*
X100095804Y-125988840D01*
X100049416Y-125993225D01*
X100043578Y-125993500D01*
X97069975Y-125993500D01*
X97002936Y-125973815D01*
X96957181Y-125921011D01*
X96947237Y-125851853D01*
X96976262Y-125788297D01*
X96997091Y-125769181D01*
X96998871Y-125767888D01*
X97125533Y-125627216D01*
X97220179Y-125463284D01*
X97278674Y-125283256D01*
X97285112Y-125222000D01*
X100313540Y-125222000D01*
X100333326Y-125410256D01*
X100333327Y-125410259D01*
X100391818Y-125590277D01*
X100391821Y-125590284D01*
X100486467Y-125754216D01*
X100574380Y-125851853D01*
X100613129Y-125894888D01*
X100766265Y-126006148D01*
X100766270Y-126006151D01*
X100939192Y-126083142D01*
X100939197Y-126083144D01*
X101124354Y-126122500D01*
X101124355Y-126122500D01*
X101313644Y-126122500D01*
X101313646Y-126122500D01*
X101498803Y-126083144D01*
X101671730Y-126006151D01*
X101824871Y-125894888D01*
X101951533Y-125754216D01*
X102046179Y-125590284D01*
X102104674Y-125410256D01*
X102122321Y-125242344D01*
X102148904Y-125177734D01*
X102157951Y-125167638D01*
X103761788Y-123563801D01*
X103774042Y-123553986D01*
X103773859Y-123553764D01*
X103779866Y-123548792D01*
X103779877Y-123548786D01*
X103810775Y-123515882D01*
X103827227Y-123498364D01*
X103837671Y-123487918D01*
X103848120Y-123477471D01*
X103852379Y-123471978D01*
X103856152Y-123467561D01*
X103888062Y-123433582D01*
X103897713Y-123416024D01*
X103908396Y-123399761D01*
X103920673Y-123383936D01*
X103939185Y-123341153D01*
X103941738Y-123335941D01*
X103964197Y-123295092D01*
X103969180Y-123275680D01*
X103975481Y-123257280D01*
X103983437Y-123238896D01*
X103990729Y-123192852D01*
X103991906Y-123187171D01*
X104003500Y-123142019D01*
X104003500Y-123121983D01*
X104005027Y-123102582D01*
X104007091Y-123089551D01*
X104008160Y-123082804D01*
X104003775Y-123036415D01*
X104003500Y-123030577D01*
X104003500Y-120586687D01*
X104023185Y-120519648D01*
X104035350Y-120503715D01*
X104053891Y-120483122D01*
X104110533Y-120420216D01*
X104205179Y-120256284D01*
X104263674Y-120076256D01*
X104283460Y-119888000D01*
X104281397Y-119868374D01*
X104293964Y-119799647D01*
X104320685Y-119771080D01*
X104312320Y-119768274D01*
X104268608Y-119713767D01*
X104265351Y-119704905D01*
X104205181Y-119519722D01*
X104205180Y-119519721D01*
X104205179Y-119519716D01*
X104110533Y-119355784D01*
X103983871Y-119215112D01*
X103983870Y-119215111D01*
X103830734Y-119103851D01*
X103830729Y-119103848D01*
X103657807Y-119026857D01*
X103657802Y-119026855D01*
X103512001Y-118995865D01*
X103472646Y-118987500D01*
X103283354Y-118987500D01*
X103250897Y-118994398D01*
X103098197Y-119026855D01*
X103098192Y-119026857D01*
X102925270Y-119103848D01*
X102925265Y-119103851D01*
X102772129Y-119215111D01*
X102645466Y-119355785D01*
X102550821Y-119519715D01*
X102550818Y-119519722D01*
X102496022Y-119688369D01*
X102492326Y-119699744D01*
X102472540Y-119888000D01*
X102492326Y-120076256D01*
X102492327Y-120076259D01*
X102550818Y-120256277D01*
X102550821Y-120256284D01*
X102645467Y-120420216D01*
X102676772Y-120454983D01*
X102720650Y-120503715D01*
X102750880Y-120566706D01*
X102752500Y-120586687D01*
X102752500Y-122752547D01*
X102732815Y-122819586D01*
X102716181Y-122840228D01*
X101271228Y-124285181D01*
X101209905Y-124318666D01*
X101183547Y-124321500D01*
X101124354Y-124321500D01*
X101091897Y-124328398D01*
X100939197Y-124360855D01*
X100939192Y-124360857D01*
X100766270Y-124437848D01*
X100766265Y-124437851D01*
X100613129Y-124549111D01*
X100486466Y-124689785D01*
X100391821Y-124853715D01*
X100391818Y-124853722D01*
X100333327Y-125033740D01*
X100333326Y-125033744D01*
X100313540Y-125222000D01*
X97285112Y-125222000D01*
X97298460Y-125095000D01*
X97278674Y-124906744D01*
X97220179Y-124726716D01*
X97125533Y-124562784D01*
X97113222Y-124549111D01*
X97050350Y-124479284D01*
X97020120Y-124416292D01*
X97018500Y-124396312D01*
X97018500Y-118724500D01*
X97038185Y-118657461D01*
X97090989Y-118611706D01*
X97142500Y-118600500D01*
X104933943Y-118600500D01*
X105000982Y-118620185D01*
X105046737Y-118672989D01*
X105056681Y-118742147D01*
X105027656Y-118805703D01*
X104984381Y-118837778D01*
X104971655Y-118843444D01*
X104957267Y-118849850D01*
X104957265Y-118849851D01*
X104804129Y-118961111D01*
X104677466Y-119101785D01*
X104582821Y-119265715D01*
X104582818Y-119265722D01*
X104524327Y-119445740D01*
X104524326Y-119445744D01*
X104504540Y-119634000D01*
X104506221Y-119649998D01*
X104506603Y-119653626D01*
X104494033Y-119722356D01*
X104467314Y-119750917D01*
X104475676Y-119753722D01*
X104519389Y-119808228D01*
X104522648Y-119817093D01*
X104582819Y-120002280D01*
X104582821Y-120002284D01*
X104677467Y-120166216D01*
X104683781Y-120173228D01*
X104804129Y-120306888D01*
X104957265Y-120418148D01*
X104957270Y-120418151D01*
X105130192Y-120495142D01*
X105130197Y-120495144D01*
X105315354Y-120534500D01*
X105374548Y-120534500D01*
X105441587Y-120554185D01*
X105462229Y-120570819D01*
X109320181Y-124428771D01*
X109353666Y-124490094D01*
X109356500Y-124516452D01*
X109356500Y-131896547D01*
X109336815Y-131963586D01*
X109320181Y-131984228D01*
X106584228Y-134720181D01*
X106522905Y-134753666D01*
X106496547Y-134756500D01*
X105478748Y-134756500D01*
X105411709Y-134736815D01*
X105386600Y-134715474D01*
X105380873Y-134709114D01*
X105380869Y-134709110D01*
X105227734Y-134597851D01*
X105227729Y-134597848D01*
X105054807Y-134520857D01*
X105054802Y-134520855D01*
X104909001Y-134489865D01*
X104869646Y-134481500D01*
X104680354Y-134481500D01*
X104647897Y-134488398D01*
X104495197Y-134520855D01*
X104495192Y-134520857D01*
X104322270Y-134597848D01*
X104322265Y-134597851D01*
X104169129Y-134709111D01*
X104042466Y-134849785D01*
X103947821Y-135013715D01*
X103947818Y-135013722D01*
X103889327Y-135193740D01*
X103889326Y-135193744D01*
X103869540Y-135382000D01*
X103889326Y-135570256D01*
X103889327Y-135570259D01*
X103947818Y-135750277D01*
X103947821Y-135750284D01*
X104042467Y-135914216D01*
X104163401Y-136048526D01*
X104169129Y-136054888D01*
X104322265Y-136166148D01*
X104322270Y-136166151D01*
X104495192Y-136243142D01*
X104495197Y-136243144D01*
X104680354Y-136282500D01*
X104680355Y-136282500D01*
X104869644Y-136282500D01*
X104869646Y-136282500D01*
X105054803Y-136243144D01*
X105227730Y-136166151D01*
X105380871Y-136054888D01*
X105383788Y-136051647D01*
X105386600Y-136048526D01*
X105446087Y-136011879D01*
X105478748Y-136007500D01*
X106724257Y-136007500D01*
X106739877Y-136009224D01*
X106739904Y-136008939D01*
X106747660Y-136009671D01*
X106747667Y-136009673D01*
X106816814Y-136007500D01*
X106846350Y-136007500D01*
X106853228Y-136006630D01*
X106859041Y-136006172D01*
X106905627Y-136004709D01*
X106924869Y-135999117D01*
X106943912Y-135995174D01*
X106963792Y-135992664D01*
X107007122Y-135975507D01*
X107012646Y-135973617D01*
X107016396Y-135972527D01*
X107057390Y-135960618D01*
X107074629Y-135950422D01*
X107092103Y-135941862D01*
X107110727Y-135934488D01*
X107110727Y-135934487D01*
X107110732Y-135934486D01*
X107148449Y-135907082D01*
X107153305Y-135903892D01*
X107193420Y-135880170D01*
X107207589Y-135865999D01*
X107222379Y-135853368D01*
X107238587Y-135841594D01*
X107268299Y-135805676D01*
X107272212Y-135801376D01*
X110365788Y-132707801D01*
X110378042Y-132697986D01*
X110377859Y-132697764D01*
X110383866Y-132692792D01*
X110383877Y-132692786D01*
X110414775Y-132659882D01*
X110431227Y-132642364D01*
X110441671Y-132631918D01*
X110452120Y-132621471D01*
X110456379Y-132615978D01*
X110460152Y-132611561D01*
X110492062Y-132577582D01*
X110501715Y-132560020D01*
X110512389Y-132543770D01*
X110524673Y-132527936D01*
X110543180Y-132485167D01*
X110545749Y-132479924D01*
X110547953Y-132475913D01*
X110568197Y-132439092D01*
X110573177Y-132419691D01*
X110579478Y-132401288D01*
X110587438Y-132382896D01*
X110594730Y-132336849D01*
X110595911Y-132331152D01*
X110607500Y-132286019D01*
X110607500Y-132265983D01*
X110609027Y-132246582D01*
X110612160Y-132226804D01*
X110607775Y-132180415D01*
X110607500Y-132174577D01*
X110607500Y-124288737D01*
X110609224Y-124273123D01*
X110608938Y-124273096D01*
X110609672Y-124265333D01*
X110607500Y-124196202D01*
X110607500Y-124166651D01*
X110607500Y-124166650D01*
X110606629Y-124159759D01*
X110606172Y-124153945D01*
X110604709Y-124107374D01*
X110604709Y-124107372D01*
X110599120Y-124088137D01*
X110595174Y-124069084D01*
X110592664Y-124049208D01*
X110575501Y-124005859D01*
X110573614Y-124000346D01*
X110560617Y-123955610D01*
X110560616Y-123955608D01*
X110550421Y-123938369D01*
X110541860Y-123920893D01*
X110534486Y-123902269D01*
X110534486Y-123902267D01*
X110524474Y-123888488D01*
X110507083Y-123864550D01*
X110503900Y-123859705D01*
X110480170Y-123819579D01*
X110480165Y-123819573D01*
X110466005Y-123805413D01*
X110453370Y-123790620D01*
X110441593Y-123774412D01*
X110405693Y-123744713D01*
X110401381Y-123740790D01*
X106348960Y-119688369D01*
X106315475Y-119627046D01*
X106313323Y-119613668D01*
X106295674Y-119445744D01*
X106237179Y-119265716D01*
X106142533Y-119101784D01*
X106015871Y-118961112D01*
X105960041Y-118920549D01*
X105862734Y-118849851D01*
X105862732Y-118849850D01*
X105862730Y-118849849D01*
X105835619Y-118837778D01*
X105782384Y-118792528D01*
X105762063Y-118725679D01*
X105781109Y-118658456D01*
X105833475Y-118612201D01*
X105886057Y-118600500D01*
X106484252Y-118600500D01*
X106551291Y-118620185D01*
X106576400Y-118641526D01*
X106582126Y-118647885D01*
X106582130Y-118647889D01*
X106735265Y-118759148D01*
X106735270Y-118759151D01*
X106908192Y-118836142D01*
X106908197Y-118836144D01*
X107093354Y-118875500D01*
X107093355Y-118875500D01*
X107282644Y-118875500D01*
X107282646Y-118875500D01*
X107467803Y-118836144D01*
X107640730Y-118759151D01*
X107793871Y-118647888D01*
X107796788Y-118644647D01*
X107799600Y-118641526D01*
X107859087Y-118604879D01*
X107891748Y-118600500D01*
X118784362Y-118600500D01*
X118851401Y-118620185D01*
X118889899Y-118659401D01*
X118957288Y-118768656D01*
X118957289Y-118768657D01*
X119081346Y-118892714D01*
X119084182Y-118894463D01*
X119085717Y-118896170D01*
X119087011Y-118897193D01*
X119086836Y-118897414D01*
X119130905Y-118946411D01*
X119142126Y-119015374D01*
X119114282Y-119079456D01*
X119084182Y-119105537D01*
X119081346Y-119107285D01*
X118957289Y-119231342D01*
X118865187Y-119380663D01*
X118865185Y-119380668D01*
X118843621Y-119445744D01*
X118810001Y-119547203D01*
X118810001Y-119547204D01*
X118810000Y-119547204D01*
X118799500Y-119649983D01*
X118799500Y-120400001D01*
X118799501Y-120400019D01*
X118810000Y-120502796D01*
X118810001Y-120502799D01*
X118865185Y-120669331D01*
X118865187Y-120669336D01*
X118868168Y-120674169D01*
X118957288Y-120818656D01*
X119081344Y-120942712D01*
X119230666Y-121034814D01*
X119230668Y-121034815D01*
X119251110Y-121041588D01*
X119289502Y-121054310D01*
X119346947Y-121094081D01*
X119373772Y-121158596D01*
X119374500Y-121172016D01*
X119374500Y-121829755D01*
X119372775Y-121845372D01*
X119373061Y-121845399D01*
X119372326Y-121853165D01*
X119374500Y-121922314D01*
X119374500Y-121951843D01*
X119374501Y-121951860D01*
X119375368Y-121958731D01*
X119375826Y-121964550D01*
X119377290Y-122011124D01*
X119377291Y-122011127D01*
X119382880Y-122030367D01*
X119386824Y-122049411D01*
X119389336Y-122069291D01*
X119406490Y-122112619D01*
X119408382Y-122118147D01*
X119421381Y-122162888D01*
X119431580Y-122180134D01*
X119440138Y-122197603D01*
X119447514Y-122216232D01*
X119474898Y-122253923D01*
X119478106Y-122258807D01*
X119501827Y-122298916D01*
X119501833Y-122298924D01*
X119515990Y-122313080D01*
X119528628Y-122327876D01*
X119540405Y-122344086D01*
X119540406Y-122344087D01*
X119576309Y-122373788D01*
X119580620Y-122377710D01*
X120701273Y-123498364D01*
X121063181Y-123860272D01*
X121096666Y-123921595D01*
X121099500Y-123947953D01*
X121099500Y-124286668D01*
X121099501Y-124286687D01*
X121109825Y-124387752D01*
X121143739Y-124490094D01*
X121164092Y-124551516D01*
X121254660Y-124698350D01*
X121376650Y-124820340D01*
X121523484Y-124910908D01*
X121687247Y-124965174D01*
X121788323Y-124975500D01*
X122386676Y-124975499D01*
X122386684Y-124975498D01*
X122386687Y-124975498D01*
X122442030Y-124969844D01*
X122487753Y-124965174D01*
X122651516Y-124910908D01*
X122798350Y-124820340D01*
X122912675Y-124706014D01*
X122973994Y-124672532D01*
X123043686Y-124677516D01*
X123088034Y-124706017D01*
X123201961Y-124819944D01*
X123201965Y-124819947D01*
X123348688Y-124910448D01*
X123348699Y-124910453D01*
X123512347Y-124964680D01*
X123613351Y-124974999D01*
X123662499Y-124974998D01*
X123662500Y-124974998D01*
X123662500Y-124250000D01*
X124162500Y-124250000D01*
X124162500Y-124974999D01*
X124211640Y-124974999D01*
X124211654Y-124974998D01*
X124312652Y-124964680D01*
X124476300Y-124910453D01*
X124476311Y-124910448D01*
X124623034Y-124819947D01*
X124623038Y-124819944D01*
X124744944Y-124698038D01*
X124744947Y-124698034D01*
X124835448Y-124551311D01*
X124835453Y-124551300D01*
X124889680Y-124387652D01*
X124899999Y-124286654D01*
X124900000Y-124286641D01*
X124900000Y-124250000D01*
X124162500Y-124250000D01*
X123662500Y-124250000D01*
X123662500Y-123025000D01*
X124162500Y-123025000D01*
X124162500Y-123750000D01*
X124899999Y-123750000D01*
X124899999Y-123713360D01*
X124899998Y-123713345D01*
X124889680Y-123612347D01*
X124835453Y-123448699D01*
X124835448Y-123448688D01*
X124744947Y-123301965D01*
X124744944Y-123301961D01*
X124623038Y-123180055D01*
X124623034Y-123180052D01*
X124476311Y-123089551D01*
X124476300Y-123089546D01*
X124312652Y-123035319D01*
X124211654Y-123025000D01*
X124162500Y-123025000D01*
X123662500Y-123025000D01*
X123662499Y-123024999D01*
X123613361Y-123025000D01*
X123613343Y-123025001D01*
X123512347Y-123035319D01*
X123348699Y-123089546D01*
X123348688Y-123089551D01*
X123201965Y-123180052D01*
X123088034Y-123293983D01*
X123026711Y-123327467D01*
X122957019Y-123322483D01*
X122912672Y-123293982D01*
X122798351Y-123179661D01*
X122798350Y-123179660D01*
X122673387Y-123102582D01*
X122651518Y-123089093D01*
X122651513Y-123089091D01*
X122632540Y-123082804D01*
X122487753Y-123034826D01*
X122487751Y-123034825D01*
X122386684Y-123024500D01*
X122386677Y-123024500D01*
X122047952Y-123024500D01*
X121980913Y-123004815D01*
X121960271Y-122988181D01*
X120661819Y-121689728D01*
X120628334Y-121628405D01*
X120625500Y-121602047D01*
X120625500Y-121172016D01*
X120645185Y-121104977D01*
X120697989Y-121059222D01*
X120710488Y-121054313D01*
X120769334Y-121034814D01*
X120918656Y-120942712D01*
X121042712Y-120818656D01*
X121134814Y-120669334D01*
X121189999Y-120502797D01*
X121200500Y-120400009D01*
X121200499Y-119649992D01*
X121198865Y-119634000D01*
X121189999Y-119547203D01*
X121189998Y-119547200D01*
X121180890Y-119519715D01*
X121134814Y-119380666D01*
X121042712Y-119231344D01*
X120918656Y-119107288D01*
X120915819Y-119105538D01*
X120914283Y-119103830D01*
X120912989Y-119102807D01*
X120913163Y-119102585D01*
X120869096Y-119053594D01*
X120857872Y-118984632D01*
X120885713Y-118920549D01*
X120915817Y-118894462D01*
X120918656Y-118892712D01*
X121042712Y-118768656D01*
X121134814Y-118619334D01*
X121189999Y-118452797D01*
X121200500Y-118350009D01*
X121200499Y-117599992D01*
X121189999Y-117497203D01*
X121134814Y-117330666D01*
X121042712Y-117181344D01*
X120918656Y-117057288D01*
X120769334Y-116965186D01*
X120602797Y-116910001D01*
X120602795Y-116910000D01*
X120500010Y-116899500D01*
X119499998Y-116899500D01*
X119499980Y-116899501D01*
X119397203Y-116910000D01*
X119397200Y-116910001D01*
X119230668Y-116965185D01*
X119230663Y-116965187D01*
X119081342Y-117057289D01*
X118957289Y-117181342D01*
X118957288Y-117181344D01*
X118898281Y-117277011D01*
X118889901Y-117290597D01*
X118837953Y-117337321D01*
X118784362Y-117349500D01*
X107937500Y-117349500D01*
X107870461Y-117329815D01*
X107824706Y-117277011D01*
X107813500Y-117225500D01*
X107813500Y-106000742D01*
X107815224Y-105985122D01*
X107814939Y-105985096D01*
X107815671Y-105977340D01*
X107815673Y-105977333D01*
X107813500Y-105908185D01*
X107813500Y-105878650D01*
X107812631Y-105871772D01*
X107812172Y-105865943D01*
X107810709Y-105819372D01*
X107805122Y-105800144D01*
X107801174Y-105781084D01*
X107798843Y-105762627D01*
X107798664Y-105761208D01*
X107798663Y-105761206D01*
X107798663Y-105761204D01*
X107781512Y-105717887D01*
X107779619Y-105712358D01*
X107766618Y-105667609D01*
X107766616Y-105667606D01*
X107756423Y-105650371D01*
X107747861Y-105632894D01*
X107740487Y-105614270D01*
X107733510Y-105604667D01*
X107713079Y-105576545D01*
X107709888Y-105571686D01*
X107686172Y-105531583D01*
X107686165Y-105531574D01*
X107672006Y-105517415D01*
X107659368Y-105502619D01*
X107647594Y-105486413D01*
X107611688Y-105456709D01*
X107607376Y-105452786D01*
X103785819Y-101631228D01*
X103752334Y-101569905D01*
X103749500Y-101543547D01*
X103749500Y-99822000D01*
X105520540Y-99822000D01*
X105540326Y-100010256D01*
X105540327Y-100010259D01*
X105598818Y-100190277D01*
X105598821Y-100190284D01*
X105693467Y-100354216D01*
X105820129Y-100494888D01*
X105973265Y-100606148D01*
X105973270Y-100606151D01*
X106146192Y-100683142D01*
X106146197Y-100683144D01*
X106331354Y-100722500D01*
X106331355Y-100722500D01*
X106520644Y-100722500D01*
X106520646Y-100722500D01*
X106705803Y-100683144D01*
X106878730Y-100606151D01*
X107031871Y-100494888D01*
X107158533Y-100354216D01*
X107253179Y-100190284D01*
X107311674Y-100010256D01*
X107331460Y-99822000D01*
X107311674Y-99633744D01*
X107253179Y-99453716D01*
X107158533Y-99289784D01*
X107121141Y-99248256D01*
X107083350Y-99206284D01*
X107053120Y-99143292D01*
X107051500Y-99123312D01*
X107051500Y-92258452D01*
X107071185Y-92191413D01*
X107087819Y-92170771D01*
X108933484Y-90325107D01*
X108933499Y-90325089D01*
X110621771Y-88636819D01*
X110683094Y-88603334D01*
X110709452Y-88600500D01*
X111784362Y-88600500D01*
X111851401Y-88620185D01*
X111889901Y-88659403D01*
X111957289Y-88768657D01*
X112081346Y-88892714D01*
X112084182Y-88894463D01*
X112085717Y-88896170D01*
X112087011Y-88897193D01*
X112086836Y-88897414D01*
X112130905Y-88946411D01*
X112142126Y-89015374D01*
X112114282Y-89079456D01*
X112084182Y-89105537D01*
X112081346Y-89107285D01*
X111957289Y-89231342D01*
X111865187Y-89380663D01*
X111865186Y-89380666D01*
X111810001Y-89547203D01*
X111810001Y-89547204D01*
X111810000Y-89547204D01*
X111799500Y-89649983D01*
X111799500Y-90400001D01*
X111799501Y-90400019D01*
X111810000Y-90502796D01*
X111810001Y-90502799D01*
X111865185Y-90669331D01*
X111865186Y-90669334D01*
X111957288Y-90818656D01*
X112081344Y-90942712D01*
X112230666Y-91034814D01*
X112230668Y-91034815D01*
X112251110Y-91041588D01*
X112289502Y-91054310D01*
X112346947Y-91094081D01*
X112373772Y-91158596D01*
X112374500Y-91172016D01*
X112374500Y-92917255D01*
X112372775Y-92932872D01*
X112373061Y-92932899D01*
X112372326Y-92940665D01*
X112374500Y-93009814D01*
X112374500Y-93039343D01*
X112374501Y-93039360D01*
X112375368Y-93046231D01*
X112375826Y-93052050D01*
X112377290Y-93098624D01*
X112377291Y-93098627D01*
X112382880Y-93117867D01*
X112386824Y-93136911D01*
X112389336Y-93156791D01*
X112406490Y-93200119D01*
X112408382Y-93205647D01*
X112421381Y-93250388D01*
X112431580Y-93267634D01*
X112440136Y-93285100D01*
X112443654Y-93293983D01*
X112447514Y-93303732D01*
X112474898Y-93341423D01*
X112478106Y-93346307D01*
X112501827Y-93386416D01*
X112501833Y-93386424D01*
X112515990Y-93400580D01*
X112528628Y-93415376D01*
X112540405Y-93431586D01*
X112540406Y-93431587D01*
X112576309Y-93461288D01*
X112580620Y-93465210D01*
X112784957Y-93669547D01*
X112975681Y-93860271D01*
X113009166Y-93921594D01*
X113012000Y-93947952D01*
X113012000Y-94286668D01*
X113012001Y-94286687D01*
X113022325Y-94387752D01*
X113041369Y-94445221D01*
X113076592Y-94551516D01*
X113167160Y-94698350D01*
X113289150Y-94820340D01*
X113435984Y-94910908D01*
X113599747Y-94965174D01*
X113700823Y-94975500D01*
X114299176Y-94975499D01*
X114299184Y-94975498D01*
X114299187Y-94975498D01*
X114354530Y-94969844D01*
X114400253Y-94965174D01*
X114564016Y-94910908D01*
X114710850Y-94820340D01*
X114825175Y-94706014D01*
X114886494Y-94672532D01*
X114956186Y-94677516D01*
X115000534Y-94706017D01*
X115114461Y-94819944D01*
X115114465Y-94819947D01*
X115261188Y-94910448D01*
X115261199Y-94910453D01*
X115424847Y-94964680D01*
X115525851Y-94974999D01*
X115574999Y-94974998D01*
X115575000Y-94974998D01*
X115575000Y-94250000D01*
X116075000Y-94250000D01*
X116075000Y-94974999D01*
X116124140Y-94974999D01*
X116124154Y-94974998D01*
X116225152Y-94964680D01*
X116388800Y-94910453D01*
X116388811Y-94910448D01*
X116535534Y-94819947D01*
X116535538Y-94819944D01*
X116657444Y-94698038D01*
X116657447Y-94698034D01*
X116747948Y-94551311D01*
X116747953Y-94551300D01*
X116802180Y-94387652D01*
X116812499Y-94286654D01*
X116812500Y-94286641D01*
X116812500Y-94250000D01*
X116075000Y-94250000D01*
X115575000Y-94250000D01*
X115575000Y-93025000D01*
X116075000Y-93025000D01*
X116075000Y-93750000D01*
X116812499Y-93750000D01*
X116812499Y-93713360D01*
X116812498Y-93713345D01*
X116802180Y-93612347D01*
X116747953Y-93448699D01*
X116747948Y-93448688D01*
X116657447Y-93301965D01*
X116657444Y-93301961D01*
X116535538Y-93180055D01*
X116535534Y-93180052D01*
X116388811Y-93089551D01*
X116388800Y-93089546D01*
X116225152Y-93035319D01*
X116124154Y-93025000D01*
X116075000Y-93025000D01*
X115575000Y-93025000D01*
X115574999Y-93024999D01*
X115525861Y-93025000D01*
X115525843Y-93025001D01*
X115424847Y-93035319D01*
X115261199Y-93089546D01*
X115261188Y-93089551D01*
X115114465Y-93180052D01*
X115000534Y-93293983D01*
X114939211Y-93327467D01*
X114869519Y-93322483D01*
X114825172Y-93293982D01*
X114710851Y-93179661D01*
X114710850Y-93179660D01*
X114612271Y-93118856D01*
X114564018Y-93089093D01*
X114564013Y-93089091D01*
X114535069Y-93079500D01*
X114400253Y-93034826D01*
X114400251Y-93034825D01*
X114299184Y-93024500D01*
X114299177Y-93024500D01*
X113960453Y-93024500D01*
X113893414Y-93004815D01*
X113872772Y-92988181D01*
X113661819Y-92777228D01*
X113628334Y-92715905D01*
X113625500Y-92689547D01*
X113625500Y-91172016D01*
X113645185Y-91104977D01*
X113697989Y-91059222D01*
X113710488Y-91054313D01*
X113769334Y-91034814D01*
X113918656Y-90942712D01*
X114042712Y-90818656D01*
X114134814Y-90669334D01*
X114189999Y-90502797D01*
X114200500Y-90400009D01*
X114200499Y-89649992D01*
X114189999Y-89547203D01*
X114134814Y-89380666D01*
X114042712Y-89231344D01*
X113918656Y-89107288D01*
X113915819Y-89105538D01*
X113914283Y-89103830D01*
X113912989Y-89102807D01*
X113913163Y-89102585D01*
X113869096Y-89053594D01*
X113857872Y-88984632D01*
X113885713Y-88920549D01*
X113915817Y-88894462D01*
X113918656Y-88892712D01*
X114042712Y-88768656D01*
X114134814Y-88619334D01*
X114189999Y-88452797D01*
X114200500Y-88350009D01*
X114200499Y-87599992D01*
X114195967Y-87555631D01*
X114189999Y-87497203D01*
X114189998Y-87497200D01*
X114183248Y-87476829D01*
X114134814Y-87330666D01*
X114042712Y-87181344D01*
X113918656Y-87057288D01*
X113769334Y-86965186D01*
X113602797Y-86910001D01*
X113602795Y-86910000D01*
X113500010Y-86899500D01*
X112499998Y-86899500D01*
X112499980Y-86899501D01*
X112397203Y-86910000D01*
X112397200Y-86910001D01*
X112230668Y-86965185D01*
X112230663Y-86965187D01*
X112081342Y-87057289D01*
X111957289Y-87181342D01*
X111889901Y-87290597D01*
X111837953Y-87337321D01*
X111784362Y-87349500D01*
X110481743Y-87349500D01*
X110466122Y-87347775D01*
X110466095Y-87348061D01*
X110458333Y-87347326D01*
X110389172Y-87349500D01*
X110359649Y-87349500D01*
X110352778Y-87350367D01*
X110346959Y-87350825D01*
X110300374Y-87352289D01*
X110300368Y-87352290D01*
X110281126Y-87357880D01*
X110262087Y-87361823D01*
X110242217Y-87364334D01*
X110242203Y-87364337D01*
X110198883Y-87381488D01*
X110193358Y-87383380D01*
X110148613Y-87396380D01*
X110148610Y-87396381D01*
X110131366Y-87406579D01*
X110113905Y-87415133D01*
X110095274Y-87422510D01*
X110095262Y-87422517D01*
X110057570Y-87449902D01*
X110052687Y-87453109D01*
X110012580Y-87476829D01*
X109998414Y-87490995D01*
X109983624Y-87503627D01*
X109967414Y-87515404D01*
X109967411Y-87515407D01*
X109937710Y-87551309D01*
X109933777Y-87555631D01*
X107987880Y-89501529D01*
X107987876Y-89501533D01*
X106042208Y-91447199D01*
X106029951Y-91457020D01*
X106030134Y-91457241D01*
X106024123Y-91462213D01*
X105976772Y-91512636D01*
X105955889Y-91533519D01*
X105955877Y-91533532D01*
X105951621Y-91539017D01*
X105947837Y-91543447D01*
X105915937Y-91577418D01*
X105915936Y-91577420D01*
X105906284Y-91594976D01*
X105895610Y-91611226D01*
X105883329Y-91627061D01*
X105883324Y-91627068D01*
X105864815Y-91669838D01*
X105862245Y-91675084D01*
X105839803Y-91715906D01*
X105834822Y-91735307D01*
X105828521Y-91753710D01*
X105820562Y-91772102D01*
X105820561Y-91772105D01*
X105813271Y-91818127D01*
X105812087Y-91823846D01*
X105800501Y-91868972D01*
X105800500Y-91868982D01*
X105800500Y-91889016D01*
X105798973Y-91908415D01*
X105795840Y-91928194D01*
X105795840Y-91928195D01*
X105800225Y-91974583D01*
X105800500Y-91980421D01*
X105800500Y-99123312D01*
X105780815Y-99190351D01*
X105768650Y-99206284D01*
X105693466Y-99289784D01*
X105598821Y-99453715D01*
X105598818Y-99453722D01*
X105575940Y-99524135D01*
X105540326Y-99633744D01*
X105520540Y-99822000D01*
X103749500Y-99822000D01*
X103749500Y-95332742D01*
X103751224Y-95317122D01*
X103750939Y-95317096D01*
X103751671Y-95309340D01*
X103751673Y-95309333D01*
X103749500Y-95240185D01*
X103749500Y-95210650D01*
X103748631Y-95203772D01*
X103748172Y-95197943D01*
X103746709Y-95151372D01*
X103741122Y-95132144D01*
X103737174Y-95113084D01*
X103734664Y-95093208D01*
X103734663Y-95093206D01*
X103734663Y-95093204D01*
X103717512Y-95049887D01*
X103715619Y-95044358D01*
X103702618Y-94999609D01*
X103702616Y-94999606D01*
X103692423Y-94982371D01*
X103683861Y-94964894D01*
X103676487Y-94946270D01*
X103676486Y-94946268D01*
X103649079Y-94908545D01*
X103645888Y-94903686D01*
X103622172Y-94863583D01*
X103622165Y-94863574D01*
X103608006Y-94849415D01*
X103595368Y-94834619D01*
X103584994Y-94820340D01*
X103583594Y-94818413D01*
X103547688Y-94788709D01*
X103543376Y-94784786D01*
X103046960Y-94288369D01*
X103013475Y-94227046D01*
X103011323Y-94213668D01*
X102993674Y-94045744D01*
X102935179Y-93865716D01*
X102840533Y-93701784D01*
X102713871Y-93561112D01*
X102713870Y-93561111D01*
X102560734Y-93449851D01*
X102560729Y-93449848D01*
X102387807Y-93372857D01*
X102387802Y-93372855D01*
X102239921Y-93341423D01*
X102202646Y-93333500D01*
X102013354Y-93333500D01*
X101980897Y-93340398D01*
X101828197Y-93372855D01*
X101828192Y-93372857D01*
X101655270Y-93449848D01*
X101655265Y-93449851D01*
X101502129Y-93561111D01*
X101375466Y-93701785D01*
X101280821Y-93865715D01*
X101280818Y-93865722D01*
X101228666Y-94026231D01*
X101222326Y-94045744D01*
X101202540Y-94234000D01*
X101222326Y-94422256D01*
X101222327Y-94422259D01*
X101280818Y-94602277D01*
X101280821Y-94602284D01*
X101375467Y-94766216D01*
X101423847Y-94819947D01*
X101502129Y-94906888D01*
X101655265Y-95018148D01*
X101655270Y-95018151D01*
X101828192Y-95095142D01*
X101828197Y-95095144D01*
X102013354Y-95134500D01*
X102072548Y-95134500D01*
X102139587Y-95154185D01*
X102160229Y-95170819D01*
X102462181Y-95472771D01*
X102495666Y-95534094D01*
X102498500Y-95560452D01*
X102498500Y-101771255D01*
X102496775Y-101786872D01*
X102497061Y-101786899D01*
X102496326Y-101794665D01*
X102498500Y-101863814D01*
X102498500Y-101893343D01*
X102498501Y-101893360D01*
X102499368Y-101900231D01*
X102499826Y-101906050D01*
X102501290Y-101952624D01*
X102501291Y-101952627D01*
X102506880Y-101971867D01*
X102510824Y-101990911D01*
X102513336Y-102010792D01*
X102526177Y-102043226D01*
X102530490Y-102054119D01*
X102532382Y-102059647D01*
X102544640Y-102101838D01*
X102545382Y-102104390D01*
X102545455Y-102104514D01*
X102555580Y-102121634D01*
X102564138Y-102139103D01*
X102571514Y-102157732D01*
X102598898Y-102195423D01*
X102602106Y-102200307D01*
X102625827Y-102240416D01*
X102625833Y-102240424D01*
X102639990Y-102254580D01*
X102652627Y-102269375D01*
X102664406Y-102285587D01*
X102683003Y-102300972D01*
X102700309Y-102315288D01*
X102704620Y-102319210D01*
X104775410Y-104390000D01*
X106526181Y-106140771D01*
X106559666Y-106202094D01*
X106562500Y-106228452D01*
X106562500Y-117225500D01*
X106542815Y-117292539D01*
X106490011Y-117338294D01*
X106438500Y-117349500D01*
X96324984Y-117349500D01*
X96305586Y-117347973D01*
X96298162Y-117346797D01*
X96285805Y-117344840D01*
X96285804Y-117344840D01*
X96239416Y-117349225D01*
X96233578Y-117349500D01*
X89075453Y-117349500D01*
X89008414Y-117329815D01*
X88987772Y-117313181D01*
X83211819Y-111537228D01*
X83178334Y-111475905D01*
X83175500Y-111449547D01*
X83175500Y-103568687D01*
X83195185Y-103501648D01*
X83207350Y-103485715D01*
X83246742Y-103441965D01*
X83282533Y-103402216D01*
X83377179Y-103238284D01*
X83435674Y-103058256D01*
X83455460Y-102870000D01*
X83435674Y-102681744D01*
X83377179Y-102501716D01*
X83282533Y-102337784D01*
X83155871Y-102197112D01*
X83153760Y-102195578D01*
X83002734Y-102085851D01*
X83002729Y-102085848D01*
X82829807Y-102008857D01*
X82829802Y-102008855D01*
X82684001Y-101977865D01*
X82644646Y-101969500D01*
X82455354Y-101969500D01*
X82437387Y-101973319D01*
X82270197Y-102008855D01*
X82270192Y-102008857D01*
X82097270Y-102085848D01*
X82097265Y-102085851D01*
X81944129Y-102197111D01*
X81817466Y-102337785D01*
X81722821Y-102501715D01*
X81722818Y-102501722D01*
X81678185Y-102639090D01*
X81664326Y-102681744D01*
X81644540Y-102870000D01*
X81664326Y-103058256D01*
X81664327Y-103058259D01*
X81722818Y-103238277D01*
X81722821Y-103238284D01*
X81817467Y-103402216D01*
X81850488Y-103438889D01*
X81892650Y-103485715D01*
X81922880Y-103548706D01*
X81924500Y-103568687D01*
X81924500Y-111677255D01*
X81922775Y-111692872D01*
X81923061Y-111692899D01*
X81922326Y-111700665D01*
X81924500Y-111769814D01*
X81924500Y-120085547D01*
X81904815Y-120152586D01*
X81888181Y-120173228D01*
X73691228Y-128370181D01*
X73629905Y-128403666D01*
X73603547Y-128406500D01*
X60280743Y-128406500D01*
X60265122Y-128404775D01*
X60265096Y-128405061D01*
X60257334Y-128404327D01*
X60257333Y-128404327D01*
X60188186Y-128406500D01*
X60158649Y-128406500D01*
X60151766Y-128407369D01*
X60145949Y-128407826D01*
X60099373Y-128409290D01*
X60080129Y-128414881D01*
X60061079Y-128418825D01*
X60041211Y-128421334D01*
X59997884Y-128438488D01*
X59992358Y-128440379D01*
X59947614Y-128453379D01*
X59947610Y-128453381D01*
X59930366Y-128463579D01*
X59912905Y-128472133D01*
X59894274Y-128479510D01*
X59894262Y-128479517D01*
X59856570Y-128506902D01*
X59851687Y-128510109D01*
X59811580Y-128533829D01*
X59797414Y-128547995D01*
X59782624Y-128560627D01*
X59766414Y-128572404D01*
X59766411Y-128572407D01*
X59736710Y-128608309D01*
X59732777Y-128612631D01*
X52615880Y-135729529D01*
X52615876Y-135729533D01*
X51931208Y-136414199D01*
X51918951Y-136424020D01*
X51919134Y-136424241D01*
X51913123Y-136429213D01*
X51865772Y-136479636D01*
X51844889Y-136500519D01*
X51844877Y-136500532D01*
X51840621Y-136506017D01*
X51836837Y-136510447D01*
X51804937Y-136544418D01*
X51804936Y-136544420D01*
X51795284Y-136561976D01*
X51784610Y-136578226D01*
X51772329Y-136594061D01*
X51772324Y-136594068D01*
X51753815Y-136636838D01*
X51751245Y-136642084D01*
X51728803Y-136682906D01*
X51723822Y-136702307D01*
X51717521Y-136720710D01*
X51709562Y-136739102D01*
X51709561Y-136739105D01*
X51702271Y-136785127D01*
X51701087Y-136790846D01*
X51689501Y-136835972D01*
X51689500Y-136835982D01*
X51689500Y-136856016D01*
X51687973Y-136875415D01*
X51684840Y-136895194D01*
X51684840Y-136895195D01*
X51689225Y-136941583D01*
X51689500Y-136947421D01*
X51689500Y-137214362D01*
X51669815Y-137281401D01*
X51630598Y-137319899D01*
X51562288Y-137362033D01*
X51521342Y-137387289D01*
X51397289Y-137511342D01*
X51305187Y-137660663D01*
X51305185Y-137660668D01*
X51281664Y-137731650D01*
X51250001Y-137827203D01*
X51250001Y-137827204D01*
X51250000Y-137827204D01*
X51239500Y-137929983D01*
X51239500Y-138930001D01*
X48483019Y-138930001D01*
X49512582Y-137763163D01*
X75948664Y-107802268D01*
X75950463Y-107800352D01*
X75950596Y-107799998D01*
X75950594Y-107799908D01*
X75950441Y-107799568D01*
X75950427Y-107799556D01*
X75950059Y-107799417D01*
X75947396Y-107799500D01*
X56233018Y-107799500D01*
X56165979Y-107779815D01*
X56120224Y-107727011D01*
X56110280Y-107657853D01*
X56139305Y-107594297D01*
X56141611Y-107591710D01*
X56251811Y-107471492D01*
X83447913Y-77803014D01*
X83450300Y-77800706D01*
X83450543Y-77800080D01*
X83450539Y-77799900D01*
X83450538Y-77799889D01*
X83450444Y-77799675D01*
X83450418Y-77799651D01*
X83450372Y-77799604D01*
X83450194Y-77799539D01*
X83449973Y-77799448D01*
X83447670Y-77799500D01*
X71188443Y-77799500D01*
X71121404Y-77779815D01*
X71075649Y-77727011D01*
X71065705Y-77657853D01*
X71086693Y-77604628D01*
X84170547Y-58820338D01*
X94823751Y-43525695D01*
X94878219Y-43481937D01*
X94947699Y-43474572D01*
X95010131Y-43505941D01*
X95045694Y-43566083D01*
X95049500Y-43596569D01*
X95049500Y-92343500D01*
X95029815Y-92410539D01*
X94977011Y-92456294D01*
X94925500Y-92467500D01*
X91952129Y-92467500D01*
X91952123Y-92467501D01*
X91892516Y-92473908D01*
X91757671Y-92524202D01*
X91757664Y-92524206D01*
X91642455Y-92610452D01*
X91642452Y-92610455D01*
X91556206Y-92725664D01*
X91556202Y-92725671D01*
X91505908Y-92860517D01*
X91499501Y-92920116D01*
X91499500Y-92920135D01*
X91499500Y-93218500D01*
X91479815Y-93285539D01*
X91427011Y-93331294D01*
X91375500Y-93342500D01*
X90608772Y-93342500D01*
X90541733Y-93322815D01*
X90525798Y-93310648D01*
X90521874Y-93307115D01*
X90521871Y-93307112D01*
X90399907Y-93218500D01*
X90368734Y-93195851D01*
X90368729Y-93195848D01*
X90195807Y-93118857D01*
X90195802Y-93118855D01*
X90050001Y-93087865D01*
X90010646Y-93079500D01*
X89821354Y-93079500D01*
X89788897Y-93086398D01*
X89636197Y-93118855D01*
X89636192Y-93118857D01*
X89463270Y-93195848D01*
X89463265Y-93195851D01*
X89310129Y-93307111D01*
X89183466Y-93447785D01*
X89088821Y-93611715D01*
X89088818Y-93611722D01*
X89041541Y-93757228D01*
X89030326Y-93791744D01*
X89010540Y-93980000D01*
X89030326Y-94168256D01*
X89030327Y-94168259D01*
X89088818Y-94348277D01*
X89088821Y-94348284D01*
X89183467Y-94512216D01*
X89310129Y-94652888D01*
X89463265Y-94764148D01*
X89463270Y-94764151D01*
X89636192Y-94841142D01*
X89636197Y-94841144D01*
X89821354Y-94880500D01*
X89821355Y-94880500D01*
X90010644Y-94880500D01*
X90010646Y-94880500D01*
X90195803Y-94841144D01*
X90368730Y-94764151D01*
X90521871Y-94652888D01*
X90538402Y-94634528D01*
X90597887Y-94597880D01*
X90630552Y-94593500D01*
X91375501Y-94593500D01*
X91442540Y-94613185D01*
X91488295Y-94665989D01*
X91499501Y-94717500D01*
X91499501Y-95015876D01*
X91505908Y-95075483D01*
X91556202Y-95210328D01*
X91556206Y-95210335D01*
X91642452Y-95325544D01*
X91642455Y-95325547D01*
X91757664Y-95411793D01*
X91757671Y-95411797D01*
X91892517Y-95462091D01*
X91892516Y-95462091D01*
X91899444Y-95462835D01*
X91952127Y-95468500D01*
X94925500Y-95468499D01*
X94992539Y-95488184D01*
X95038294Y-95540988D01*
X95049500Y-95592499D01*
X95049500Y-95645500D01*
X95029815Y-95712539D01*
X94977011Y-95758294D01*
X94925500Y-95769500D01*
X91952129Y-95769500D01*
X91952123Y-95769501D01*
X91892516Y-95775908D01*
X91757671Y-95826202D01*
X91757664Y-95826206D01*
X91642455Y-95912452D01*
X91642452Y-95912455D01*
X91556206Y-96027664D01*
X91556202Y-96027671D01*
X91505908Y-96162517D01*
X91499501Y-96222116D01*
X91499500Y-96222135D01*
X91499500Y-96520500D01*
X91479815Y-96587539D01*
X91427011Y-96633294D01*
X91375500Y-96644500D01*
X89960452Y-96644500D01*
X89893413Y-96624815D01*
X89872771Y-96608181D01*
X87021819Y-93757228D01*
X86988334Y-93695905D01*
X86985500Y-93669547D01*
X86985500Y-77552737D01*
X86987224Y-77537123D01*
X86986938Y-77537096D01*
X86987672Y-77529333D01*
X86985500Y-77460203D01*
X86985500Y-77430651D01*
X86985500Y-77430650D01*
X86984629Y-77423759D01*
X86984172Y-77417945D01*
X86982709Y-77371372D01*
X86977122Y-77352144D01*
X86973174Y-77333084D01*
X86970664Y-77313208D01*
X86953507Y-77269875D01*
X86951619Y-77264359D01*
X86938619Y-77219612D01*
X86928418Y-77202363D01*
X86919860Y-77184894D01*
X86912486Y-77166268D01*
X86912483Y-77166264D01*
X86912483Y-77166263D01*
X86885098Y-77128571D01*
X86881890Y-77123687D01*
X86858172Y-77083582D01*
X86858163Y-77083571D01*
X86844005Y-77069413D01*
X86831370Y-77054620D01*
X86819593Y-77038412D01*
X86783693Y-77008713D01*
X86779381Y-77004790D01*
X85590803Y-75816212D01*
X85580980Y-75803950D01*
X85580759Y-75804134D01*
X85575786Y-75798123D01*
X85525364Y-75750773D01*
X85514919Y-75740328D01*
X85504475Y-75729883D01*
X85498986Y-75725625D01*
X85494561Y-75721847D01*
X85460582Y-75689938D01*
X85460580Y-75689936D01*
X85460577Y-75689935D01*
X85443029Y-75680288D01*
X85426763Y-75669604D01*
X85410933Y-75657325D01*
X85368168Y-75638818D01*
X85362922Y-75636248D01*
X85322093Y-75613803D01*
X85322092Y-75613802D01*
X85302693Y-75608822D01*
X85284281Y-75602518D01*
X85265898Y-75594562D01*
X85265892Y-75594560D01*
X85219874Y-75587272D01*
X85214152Y-75586087D01*
X85169021Y-75574500D01*
X85169019Y-75574500D01*
X85148984Y-75574500D01*
X85129586Y-75572973D01*
X85122162Y-75571797D01*
X85109805Y-75569840D01*
X85109804Y-75569840D01*
X85063416Y-75574225D01*
X85057578Y-75574500D01*
X81073453Y-75574500D01*
X81006414Y-75554815D01*
X80985772Y-75538181D01*
X80773771Y-75326180D01*
X80740286Y-75264857D01*
X80745270Y-75195165D01*
X80787142Y-75139232D01*
X80852606Y-75114815D01*
X80861452Y-75114499D01*
X80902002Y-75114499D01*
X80902008Y-75114499D01*
X81004797Y-75103999D01*
X81171334Y-75048814D01*
X81320656Y-74956712D01*
X81444712Y-74832656D01*
X81492951Y-74754446D01*
X81544898Y-74707721D01*
X81613860Y-74696498D01*
X81677943Y-74724341D01*
X81686171Y-74731861D01*
X81688650Y-74734340D01*
X81835484Y-74824908D01*
X81999247Y-74879174D01*
X82100323Y-74889500D01*
X82698676Y-74889499D01*
X82698684Y-74889498D01*
X82698687Y-74889498D01*
X82754030Y-74883844D01*
X82799753Y-74879174D01*
X82963516Y-74824908D01*
X83110350Y-74734340D01*
X83224675Y-74620014D01*
X83285994Y-74586532D01*
X83355686Y-74591516D01*
X83400034Y-74620017D01*
X83513961Y-74733944D01*
X83513965Y-74733947D01*
X83660688Y-74824448D01*
X83660699Y-74824453D01*
X83824347Y-74878680D01*
X83925351Y-74888999D01*
X83974499Y-74888998D01*
X83974500Y-74888998D01*
X83974500Y-74164000D01*
X84474500Y-74164000D01*
X84474500Y-74888999D01*
X84523640Y-74888999D01*
X84523654Y-74888998D01*
X84624652Y-74878680D01*
X84788300Y-74824453D01*
X84788311Y-74824448D01*
X84935034Y-74733947D01*
X84935038Y-74733944D01*
X85056944Y-74612038D01*
X85056947Y-74612034D01*
X85147448Y-74465311D01*
X85147453Y-74465300D01*
X85201680Y-74301652D01*
X85211999Y-74200654D01*
X85212000Y-74200641D01*
X85212000Y-74164000D01*
X84474500Y-74164000D01*
X83974500Y-74164000D01*
X83974500Y-72939000D01*
X84474500Y-72939000D01*
X84474500Y-73664000D01*
X85211999Y-73664000D01*
X85211999Y-73627360D01*
X85211998Y-73627345D01*
X85201680Y-73526347D01*
X85147453Y-73362699D01*
X85147448Y-73362688D01*
X85056947Y-73215965D01*
X85056944Y-73215961D01*
X84935038Y-73094055D01*
X84935034Y-73094052D01*
X84788311Y-73003551D01*
X84788300Y-73003546D01*
X84624652Y-72949319D01*
X84523654Y-72939000D01*
X84474500Y-72939000D01*
X83974500Y-72939000D01*
X83974499Y-72938999D01*
X83925361Y-72939000D01*
X83925343Y-72939001D01*
X83824347Y-72949319D01*
X83660699Y-73003546D01*
X83660688Y-73003551D01*
X83513965Y-73094052D01*
X83400034Y-73207983D01*
X83338711Y-73241467D01*
X83269019Y-73236483D01*
X83224672Y-73207982D01*
X83110351Y-73093661D01*
X83110350Y-73093660D01*
X83019129Y-73037395D01*
X82963518Y-73003093D01*
X82963513Y-73003091D01*
X82940128Y-72995342D01*
X82799753Y-72948826D01*
X82799751Y-72948825D01*
X82698678Y-72938500D01*
X82100330Y-72938500D01*
X82100312Y-72938501D01*
X81999247Y-72948825D01*
X81835484Y-73003092D01*
X81835481Y-73003093D01*
X81688647Y-73093661D01*
X81688646Y-73093662D01*
X81686165Y-73096144D01*
X81684044Y-73097301D01*
X81682987Y-73098138D01*
X81682843Y-73097957D01*
X81624840Y-73129625D01*
X81555149Y-73124636D01*
X81499218Y-73082761D01*
X81492951Y-73073553D01*
X81444712Y-72995344D01*
X81320657Y-72871289D01*
X81320656Y-72871288D01*
X81171334Y-72779186D01*
X81004797Y-72724001D01*
X81004795Y-72724000D01*
X80902010Y-72713500D01*
X80151998Y-72713500D01*
X80151980Y-72713501D01*
X80049203Y-72724000D01*
X80049200Y-72724001D01*
X79882668Y-72779185D01*
X79882663Y-72779187D01*
X79733342Y-72871289D01*
X79609285Y-72995346D01*
X79607537Y-72998182D01*
X79605829Y-72999717D01*
X79604807Y-73001011D01*
X79604585Y-73000836D01*
X79555589Y-73044905D01*
X79486626Y-73056126D01*
X79422544Y-73028282D01*
X79396463Y-72998182D01*
X79394714Y-72995346D01*
X79270657Y-72871289D01*
X79270656Y-72871288D01*
X79121334Y-72779186D01*
X78954797Y-72724001D01*
X78954795Y-72724000D01*
X78852010Y-72713500D01*
X78101998Y-72713500D01*
X78101980Y-72713501D01*
X77999203Y-72724000D01*
X77999200Y-72724001D01*
X77832668Y-72779185D01*
X77832663Y-72779187D01*
X77683342Y-72871289D01*
X77559289Y-72995342D01*
X77467187Y-73144663D01*
X77467186Y-73144666D01*
X77412001Y-73311203D01*
X77412001Y-73311204D01*
X77412000Y-73311204D01*
X77401500Y-73413983D01*
X77401500Y-74414001D01*
X77401501Y-74414019D01*
X77412000Y-74516796D01*
X77412001Y-74516799D01*
X77467185Y-74683331D01*
X77467187Y-74683336D01*
X77498402Y-74733944D01*
X77559288Y-74832656D01*
X77683344Y-74956712D01*
X77832666Y-75048814D01*
X77999203Y-75103999D01*
X78101991Y-75114500D01*
X78741546Y-75114499D01*
X78808585Y-75134183D01*
X78829227Y-75150818D01*
X80262197Y-76583788D01*
X80272022Y-76596051D01*
X80272243Y-76595869D01*
X80277214Y-76601878D01*
X80303217Y-76626295D01*
X80327635Y-76649226D01*
X80348529Y-76670120D01*
X80354011Y-76674373D01*
X80358443Y-76678157D01*
X80392418Y-76710062D01*
X80409976Y-76719714D01*
X80426235Y-76730395D01*
X80442064Y-76742673D01*
X80484838Y-76761182D01*
X80490056Y-76763738D01*
X80530908Y-76786197D01*
X80550316Y-76791180D01*
X80568717Y-76797480D01*
X80587104Y-76805437D01*
X80630488Y-76812308D01*
X80633119Y-76812725D01*
X80638839Y-76813909D01*
X80683981Y-76825500D01*
X80704016Y-76825500D01*
X80723414Y-76827026D01*
X80743194Y-76830159D01*
X80743195Y-76830160D01*
X80743195Y-76830159D01*
X80743196Y-76830160D01*
X80789584Y-76825775D01*
X80795422Y-76825500D01*
X84779548Y-76825500D01*
X84846587Y-76845185D01*
X84867229Y-76861819D01*
X85698181Y-77692771D01*
X85731666Y-77754094D01*
X85734500Y-77780452D01*
X85734500Y-93897255D01*
X85732775Y-93912872D01*
X85733061Y-93912899D01*
X85732326Y-93920665D01*
X85734500Y-93989814D01*
X85734500Y-94019343D01*
X85734501Y-94019360D01*
X85735368Y-94026231D01*
X85735826Y-94032050D01*
X85737290Y-94078624D01*
X85737291Y-94078627D01*
X85742880Y-94097867D01*
X85746824Y-94116911D01*
X85749336Y-94136792D01*
X85766490Y-94180119D01*
X85768382Y-94185647D01*
X85781381Y-94230388D01*
X85791580Y-94247634D01*
X85800136Y-94265100D01*
X85807514Y-94283732D01*
X85809627Y-94286641D01*
X85834898Y-94321423D01*
X85838106Y-94326307D01*
X85861827Y-94366416D01*
X85861833Y-94366424D01*
X85875990Y-94380580D01*
X85888628Y-94395376D01*
X85900405Y-94411586D01*
X85900406Y-94411587D01*
X85936309Y-94441288D01*
X85940620Y-94445210D01*
X87523074Y-96027664D01*
X88988181Y-97492771D01*
X89021666Y-97554094D01*
X89024500Y-97580452D01*
X89024500Y-97745547D01*
X89004815Y-97812586D01*
X88988181Y-97833228D01*
X88698228Y-98123181D01*
X88636905Y-98156666D01*
X88610547Y-98159500D01*
X88551354Y-98159500D01*
X88518897Y-98166398D01*
X88366197Y-98198855D01*
X88366192Y-98198857D01*
X88193270Y-98275848D01*
X88193265Y-98275851D01*
X88040129Y-98387111D01*
X87913466Y-98527785D01*
X87818821Y-98691715D01*
X87818818Y-98691722D01*
X87769669Y-98842988D01*
X87760326Y-98871744D01*
X87740540Y-99060000D01*
X87760326Y-99248256D01*
X87760327Y-99248259D01*
X87818818Y-99428277D01*
X87818821Y-99428284D01*
X87913467Y-99592216D01*
X88020291Y-99710856D01*
X88044478Y-99737718D01*
X88042788Y-99739239D01*
X88073960Y-99789843D01*
X88072627Y-99859700D01*
X88033737Y-99917746D01*
X87969639Y-99945552D01*
X87954338Y-99946500D01*
X65880738Y-99946500D01*
X65865121Y-99944776D01*
X65865094Y-99945062D01*
X65857332Y-99944327D01*
X65788204Y-99946500D01*
X65758650Y-99946500D01*
X65757929Y-99946590D01*
X65751757Y-99947369D01*
X65745945Y-99947826D01*
X65699373Y-99949290D01*
X65699372Y-99949290D01*
X65680129Y-99954881D01*
X65661079Y-99958825D01*
X65641211Y-99961334D01*
X65641209Y-99961335D01*
X65597884Y-99978488D01*
X65592357Y-99980380D01*
X65547610Y-99993381D01*
X65547609Y-99993382D01*
X65530367Y-100003579D01*
X65512899Y-100012137D01*
X65494269Y-100019513D01*
X65494267Y-100019514D01*
X65456576Y-100046898D01*
X65451694Y-100050105D01*
X65411579Y-100073830D01*
X65397408Y-100088000D01*
X65382623Y-100100628D01*
X65366412Y-100112407D01*
X65336709Y-100148310D01*
X65332777Y-100152631D01*
X63606208Y-101879199D01*
X63593951Y-101889020D01*
X63594134Y-101889241D01*
X63588123Y-101894213D01*
X63540772Y-101944636D01*
X63519889Y-101965519D01*
X63519877Y-101965532D01*
X63515621Y-101971017D01*
X63511837Y-101975447D01*
X63479937Y-102009418D01*
X63479936Y-102009420D01*
X63470284Y-102026976D01*
X63459610Y-102043226D01*
X63447329Y-102059061D01*
X63447324Y-102059068D01*
X63428815Y-102101838D01*
X63426245Y-102107084D01*
X63403803Y-102147906D01*
X63398822Y-102167307D01*
X63392521Y-102185710D01*
X63384562Y-102204102D01*
X63384561Y-102204105D01*
X63377271Y-102250127D01*
X63376087Y-102255846D01*
X63364501Y-102300972D01*
X63364500Y-102300982D01*
X63364500Y-102321016D01*
X63362973Y-102340415D01*
X63359840Y-102360194D01*
X63359840Y-102360195D01*
X63364225Y-102406583D01*
X63364500Y-102412421D01*
X63364500Y-102924362D01*
X63344815Y-102991401D01*
X63305598Y-103029899D01*
X63237288Y-103072033D01*
X63196342Y-103097289D01*
X63072289Y-103221342D01*
X62980187Y-103370663D01*
X62980186Y-103370666D01*
X62925001Y-103537203D01*
X62925001Y-103537204D01*
X62925000Y-103537204D01*
X62914500Y-103639983D01*
X62914500Y-104640001D01*
X62914501Y-104640019D01*
X62925000Y-104742796D01*
X62925001Y-104742799D01*
X62980185Y-104909331D01*
X62980187Y-104909336D01*
X63008962Y-104955987D01*
X63072288Y-105058656D01*
X63196344Y-105182712D01*
X63345666Y-105274814D01*
X63512203Y-105329999D01*
X63614991Y-105340500D01*
X64365008Y-105340499D01*
X64365016Y-105340498D01*
X64365019Y-105340498D01*
X64421302Y-105334748D01*
X64467797Y-105329999D01*
X64634334Y-105274814D01*
X64783656Y-105182712D01*
X64907712Y-105058656D01*
X64909461Y-105055819D01*
X64911169Y-105054283D01*
X64912193Y-105052989D01*
X64912414Y-105053163D01*
X64961406Y-105009096D01*
X65030368Y-104997872D01*
X65094451Y-105025713D01*
X65120537Y-105055817D01*
X65122288Y-105058656D01*
X65246344Y-105182712D01*
X65395666Y-105274814D01*
X65562203Y-105329999D01*
X65664991Y-105340500D01*
X66415008Y-105340499D01*
X66415016Y-105340498D01*
X66415019Y-105340498D01*
X66471302Y-105334748D01*
X66517797Y-105329999D01*
X66684334Y-105274814D01*
X66833656Y-105182712D01*
X66957712Y-105058656D01*
X67002138Y-104986628D01*
X67054083Y-104939906D01*
X67123045Y-104928683D01*
X67185887Y-104955987D01*
X67185987Y-104955862D01*
X67186459Y-104956235D01*
X67187128Y-104956526D01*
X67189061Y-104958292D01*
X67191647Y-104960338D01*
X67191649Y-104960339D01*
X67191650Y-104960340D01*
X67338484Y-105050908D01*
X67502247Y-105105174D01*
X67603323Y-105115500D01*
X68201676Y-105115499D01*
X68201684Y-105115498D01*
X68201687Y-105115498D01*
X68257030Y-105109844D01*
X68302753Y-105105174D01*
X68466516Y-105050908D01*
X68613350Y-104960340D01*
X68727675Y-104846014D01*
X68788994Y-104812532D01*
X68858686Y-104817516D01*
X68903034Y-104846017D01*
X69016961Y-104959944D01*
X69016965Y-104959947D01*
X69163688Y-105050448D01*
X69163699Y-105050453D01*
X69327347Y-105104680D01*
X69428351Y-105114999D01*
X69477499Y-105114998D01*
X69477500Y-105114998D01*
X69477500Y-104390000D01*
X69977500Y-104390000D01*
X69977500Y-105114999D01*
X70026640Y-105114999D01*
X70026654Y-105114998D01*
X70127652Y-105104680D01*
X70291300Y-105050453D01*
X70291311Y-105050448D01*
X70438034Y-104959947D01*
X70438038Y-104959944D01*
X70559944Y-104838038D01*
X70559947Y-104838034D01*
X70650448Y-104691311D01*
X70650453Y-104691300D01*
X70704680Y-104527652D01*
X70714999Y-104426654D01*
X70715000Y-104426641D01*
X70715000Y-104390000D01*
X69977500Y-104390000D01*
X69477500Y-104390000D01*
X69477500Y-103165000D01*
X69977500Y-103165000D01*
X69977500Y-103890000D01*
X70714999Y-103890000D01*
X70714999Y-103853360D01*
X70714998Y-103853345D01*
X70704680Y-103752347D01*
X70650453Y-103588699D01*
X70650448Y-103588688D01*
X70559947Y-103441965D01*
X70559944Y-103441961D01*
X70438038Y-103320055D01*
X70438034Y-103320052D01*
X70291311Y-103229551D01*
X70291300Y-103229546D01*
X70127652Y-103175319D01*
X70026654Y-103165000D01*
X69977500Y-103165000D01*
X69477500Y-103165000D01*
X69477499Y-103164999D01*
X69428361Y-103165000D01*
X69428343Y-103165001D01*
X69327347Y-103175319D01*
X69163699Y-103229546D01*
X69163688Y-103229551D01*
X69016965Y-103320052D01*
X68903034Y-103433983D01*
X68841711Y-103467467D01*
X68772019Y-103462483D01*
X68727672Y-103433982D01*
X68613351Y-103319661D01*
X68613350Y-103319660D01*
X68522129Y-103263395D01*
X68466518Y-103229093D01*
X68466513Y-103229091D01*
X68443128Y-103221342D01*
X68302753Y-103174826D01*
X68302751Y-103174825D01*
X68201678Y-103164500D01*
X67603330Y-103164500D01*
X67603312Y-103164501D01*
X67502247Y-103174825D01*
X67338484Y-103229092D01*
X67338481Y-103229093D01*
X67191647Y-103319661D01*
X67185987Y-103324138D01*
X67184297Y-103322001D01*
X67133990Y-103349448D01*
X67064300Y-103344438D01*
X67008381Y-103302547D01*
X67002136Y-103293368D01*
X66968160Y-103238284D01*
X66957712Y-103221344D01*
X66833656Y-103097288D01*
X66684334Y-103005186D01*
X66517797Y-102950001D01*
X66517795Y-102950000D01*
X66415010Y-102939500D01*
X65664998Y-102939500D01*
X65664980Y-102939501D01*
X65562203Y-102950000D01*
X65562200Y-102950001D01*
X65395668Y-103005185D01*
X65395663Y-103005187D01*
X65246342Y-103097289D01*
X65122285Y-103221346D01*
X65120537Y-103224182D01*
X65118829Y-103225717D01*
X65117807Y-103227011D01*
X65117585Y-103226836D01*
X65068589Y-103270905D01*
X64999626Y-103282126D01*
X64935544Y-103254282D01*
X64909463Y-103224182D01*
X64907714Y-103221346D01*
X64783657Y-103097289D01*
X64783656Y-103097288D01*
X64674402Y-103029900D01*
X64627679Y-102977953D01*
X64615500Y-102924362D01*
X64615500Y-102690452D01*
X64635185Y-102623413D01*
X64651819Y-102602771D01*
X66020772Y-101233819D01*
X66082095Y-101200334D01*
X66108453Y-101197500D01*
X86754448Y-101197500D01*
X86821487Y-101217185D01*
X86867242Y-101269989D01*
X86877186Y-101339147D01*
X86861835Y-101383499D01*
X86802823Y-101485710D01*
X86802818Y-101485722D01*
X86755541Y-101631228D01*
X86744326Y-101665744D01*
X86724540Y-101854000D01*
X86744326Y-102042256D01*
X86744327Y-102042259D01*
X86802818Y-102222277D01*
X86802821Y-102222284D01*
X86897467Y-102386216D01*
X86940772Y-102434310D01*
X86972650Y-102469715D01*
X87002880Y-102532706D01*
X87004500Y-102552687D01*
X87004500Y-105581255D01*
X87002775Y-105596872D01*
X87003061Y-105596899D01*
X87002326Y-105604665D01*
X87004500Y-105673814D01*
X87004500Y-105703343D01*
X87004501Y-105703360D01*
X87005368Y-105710231D01*
X87005826Y-105716050D01*
X87007290Y-105762624D01*
X87007291Y-105762627D01*
X87012880Y-105781867D01*
X87016824Y-105800911D01*
X87019336Y-105820792D01*
X87033901Y-105857579D01*
X87036490Y-105864119D01*
X87038382Y-105869647D01*
X87045995Y-105895851D01*
X87051382Y-105914390D01*
X87059329Y-105927829D01*
X87061580Y-105931634D01*
X87070136Y-105949100D01*
X87077514Y-105967732D01*
X87102635Y-106002309D01*
X87104898Y-106005423D01*
X87108106Y-106010307D01*
X87131827Y-106050416D01*
X87131833Y-106050424D01*
X87145990Y-106064580D01*
X87158628Y-106079376D01*
X87170405Y-106095586D01*
X87170406Y-106095587D01*
X87206309Y-106125288D01*
X87210620Y-106129210D01*
X91356991Y-110275582D01*
X92717197Y-111635788D01*
X92727022Y-111648051D01*
X92727243Y-111647869D01*
X92732214Y-111653878D01*
X92753043Y-111673437D01*
X92782635Y-111701226D01*
X92803529Y-111722120D01*
X92809011Y-111726373D01*
X92813443Y-111730157D01*
X92847418Y-111762062D01*
X92864976Y-111771714D01*
X92881235Y-111782395D01*
X92897064Y-111794673D01*
X92939838Y-111813182D01*
X92945056Y-111815738D01*
X92985908Y-111838197D01*
X93005316Y-111843180D01*
X93023717Y-111849480D01*
X93042104Y-111857437D01*
X93085488Y-111864308D01*
X93088119Y-111864725D01*
X93093839Y-111865909D01*
X93138981Y-111877500D01*
X93159016Y-111877500D01*
X93178414Y-111879026D01*
X93198194Y-111882159D01*
X93198195Y-111882160D01*
X93198195Y-111882159D01*
X93198196Y-111882160D01*
X93244584Y-111877775D01*
X93250422Y-111877500D01*
X97707257Y-111877500D01*
X97722877Y-111879224D01*
X97722904Y-111878939D01*
X97730660Y-111879671D01*
X97730667Y-111879673D01*
X97799814Y-111877500D01*
X97829350Y-111877500D01*
X97836228Y-111876630D01*
X97842041Y-111876172D01*
X97888627Y-111874709D01*
X97907869Y-111869117D01*
X97926912Y-111865174D01*
X97946792Y-111862664D01*
X97990122Y-111845507D01*
X97995646Y-111843617D01*
X97999396Y-111842527D01*
X98040390Y-111830618D01*
X98057629Y-111820422D01*
X98075103Y-111811862D01*
X98093727Y-111804488D01*
X98093727Y-111804487D01*
X98093732Y-111804486D01*
X98131449Y-111777082D01*
X98136305Y-111773892D01*
X98176420Y-111750170D01*
X98190589Y-111735999D01*
X98205379Y-111723368D01*
X98221587Y-111711594D01*
X98251299Y-111675676D01*
X98255212Y-111671376D01*
X99189787Y-110736802D01*
X99202042Y-110726986D01*
X99201859Y-110726764D01*
X99207866Y-110721792D01*
X99207877Y-110721786D01*
X99238775Y-110688882D01*
X99255227Y-110671364D01*
X99265671Y-110660918D01*
X99276120Y-110650471D01*
X99280379Y-110644978D01*
X99284152Y-110640561D01*
X99316062Y-110606582D01*
X99325715Y-110589020D01*
X99336389Y-110572770D01*
X99348673Y-110556936D01*
X99367180Y-110514167D01*
X99369749Y-110508924D01*
X99392196Y-110468093D01*
X99392197Y-110468092D01*
X99397177Y-110448691D01*
X99403478Y-110430288D01*
X99411438Y-110411896D01*
X99418730Y-110365849D01*
X99419911Y-110360152D01*
X99431500Y-110315019D01*
X99431500Y-110294983D01*
X99433027Y-110275582D01*
X99436160Y-110255804D01*
X99431775Y-110209415D01*
X99431500Y-110203577D01*
X99431500Y-107752452D01*
X99451185Y-107685413D01*
X99467819Y-107664771D01*
X100044772Y-107087819D01*
X100106095Y-107054334D01*
X100132453Y-107051500D01*
X100669025Y-107051500D01*
X100736064Y-107071185D01*
X100781819Y-107123989D01*
X100791763Y-107193147D01*
X100762738Y-107256703D01*
X100741909Y-107275819D01*
X100740128Y-107277112D01*
X100613466Y-107417785D01*
X100518821Y-107581715D01*
X100518818Y-107581722D01*
X100463345Y-107752452D01*
X100460326Y-107761744D01*
X100440540Y-107950000D01*
X100460326Y-108138256D01*
X100460327Y-108138259D01*
X100518818Y-108318277D01*
X100518821Y-108318284D01*
X100613467Y-108482216D01*
X100656772Y-108530310D01*
X100688650Y-108565715D01*
X100718880Y-108628706D01*
X100720500Y-108648687D01*
X100720500Y-111169255D01*
X100718775Y-111184872D01*
X100719061Y-111184899D01*
X100718326Y-111192665D01*
X100720500Y-111261814D01*
X100720500Y-111291343D01*
X100720501Y-111291360D01*
X100721368Y-111298231D01*
X100721826Y-111304050D01*
X100723290Y-111350624D01*
X100723291Y-111350627D01*
X100728880Y-111369867D01*
X100732824Y-111388911D01*
X100735336Y-111408791D01*
X100752490Y-111452119D01*
X100754382Y-111457647D01*
X100767381Y-111502388D01*
X100777580Y-111519634D01*
X100786138Y-111537103D01*
X100793514Y-111555732D01*
X100820898Y-111593423D01*
X100824106Y-111598307D01*
X100847827Y-111638416D01*
X100847833Y-111638424D01*
X100861990Y-111652580D01*
X100874628Y-111667376D01*
X100884512Y-111680981D01*
X100886406Y-111683587D01*
X100907052Y-111700667D01*
X100922309Y-111713288D01*
X100926620Y-111717210D01*
X103090520Y-113881111D01*
X103709038Y-114499629D01*
X103742523Y-114560952D01*
X103744678Y-114574348D01*
X103752968Y-114653227D01*
X103762326Y-114742256D01*
X103762327Y-114742259D01*
X103820818Y-114922277D01*
X103820821Y-114922284D01*
X103915467Y-115086216D01*
X104042129Y-115226888D01*
X104195265Y-115338148D01*
X104195270Y-115338151D01*
X104368192Y-115415142D01*
X104368197Y-115415144D01*
X104553354Y-115454500D01*
X104553355Y-115454500D01*
X104742644Y-115454500D01*
X104742646Y-115454500D01*
X104927803Y-115415144D01*
X105100730Y-115338151D01*
X105253871Y-115226888D01*
X105380533Y-115086216D01*
X105475179Y-114922284D01*
X105533674Y-114742256D01*
X105553460Y-114554000D01*
X105533674Y-114365744D01*
X105475179Y-114185716D01*
X105380533Y-114021784D01*
X105253871Y-113881112D01*
X105253870Y-113881111D01*
X105100734Y-113769851D01*
X105100729Y-113769848D01*
X104927807Y-113692857D01*
X104927802Y-113692855D01*
X104782001Y-113661865D01*
X104742646Y-113653500D01*
X104742645Y-113653500D01*
X104683453Y-113653500D01*
X104616414Y-113633815D01*
X104595772Y-113617181D01*
X102007819Y-111029228D01*
X101974334Y-110967905D01*
X101971500Y-110941547D01*
X101971500Y-108648687D01*
X101991185Y-108581648D01*
X102003350Y-108565715D01*
X102021891Y-108545122D01*
X102078533Y-108482216D01*
X102173179Y-108318284D01*
X102231674Y-108138256D01*
X102251460Y-107950000D01*
X102231674Y-107761744D01*
X102173179Y-107581716D01*
X102078533Y-107417784D01*
X101951871Y-107277112D01*
X101950090Y-107275818D01*
X101949309Y-107274805D01*
X101947042Y-107272764D01*
X101947415Y-107272349D01*
X101907424Y-107220490D01*
X101901444Y-107150876D01*
X101934050Y-107089081D01*
X101994888Y-107054723D01*
X102022975Y-107051500D01*
X102481086Y-107051500D01*
X102548125Y-107071185D01*
X102588473Y-107113500D01*
X102645465Y-107212214D01*
X102772129Y-107352888D01*
X102925265Y-107464148D01*
X102925270Y-107464151D01*
X103098192Y-107541142D01*
X103098197Y-107541144D01*
X103283354Y-107580500D01*
X103283355Y-107580500D01*
X103472644Y-107580500D01*
X103472646Y-107580500D01*
X103657803Y-107541144D01*
X103830730Y-107464151D01*
X103983871Y-107352888D01*
X104110533Y-107212216D01*
X104205179Y-107048284D01*
X104263674Y-106868256D01*
X104283460Y-106680000D01*
X104263674Y-106491744D01*
X104205179Y-106311716D01*
X104110533Y-106147784D01*
X103983871Y-106007112D01*
X103983209Y-106006631D01*
X103830734Y-105895851D01*
X103830729Y-105895848D01*
X103657807Y-105818857D01*
X103657802Y-105818855D01*
X103512001Y-105787865D01*
X103472646Y-105779500D01*
X103283354Y-105779500D01*
X103239087Y-105788909D01*
X103202196Y-105796750D01*
X103157022Y-105797933D01*
X103143805Y-105795840D01*
X103143804Y-105795840D01*
X103097416Y-105800225D01*
X103091578Y-105800500D01*
X99904743Y-105800500D01*
X99889122Y-105798775D01*
X99889096Y-105799061D01*
X99881334Y-105798327D01*
X99881333Y-105798327D01*
X99812186Y-105800500D01*
X99782649Y-105800500D01*
X99775766Y-105801369D01*
X99769949Y-105801826D01*
X99723373Y-105803290D01*
X99704129Y-105808881D01*
X99685079Y-105812825D01*
X99665211Y-105815334D01*
X99621884Y-105832488D01*
X99616358Y-105834379D01*
X99571614Y-105847379D01*
X99571610Y-105847381D01*
X99554366Y-105857579D01*
X99536905Y-105866133D01*
X99518274Y-105873510D01*
X99518262Y-105873517D01*
X99480570Y-105900902D01*
X99475687Y-105904109D01*
X99435580Y-105927829D01*
X99421414Y-105941995D01*
X99406624Y-105954627D01*
X99390414Y-105966404D01*
X99390411Y-105966407D01*
X99360710Y-106002309D01*
X99356777Y-106006631D01*
X98422208Y-106941199D01*
X98409951Y-106951020D01*
X98410134Y-106951241D01*
X98404123Y-106956213D01*
X98356772Y-107006636D01*
X98335889Y-107027519D01*
X98335877Y-107027532D01*
X98331621Y-107033017D01*
X98327837Y-107037447D01*
X98295937Y-107071418D01*
X98295936Y-107071420D01*
X98286284Y-107088976D01*
X98275610Y-107105226D01*
X98263329Y-107121061D01*
X98263324Y-107121068D01*
X98244815Y-107163838D01*
X98242245Y-107169084D01*
X98219803Y-107209906D01*
X98214822Y-107229307D01*
X98208521Y-107247710D01*
X98200562Y-107266102D01*
X98200561Y-107266105D01*
X98193271Y-107312127D01*
X98192087Y-107317846D01*
X98180501Y-107362972D01*
X98180500Y-107362982D01*
X98180500Y-107383016D01*
X98178973Y-107402415D01*
X98175840Y-107422194D01*
X98175840Y-107422195D01*
X98180225Y-107468583D01*
X98180500Y-107474421D01*
X98180500Y-109925547D01*
X98160815Y-109992586D01*
X98144181Y-110013228D01*
X97567228Y-110590181D01*
X97505905Y-110623666D01*
X97479547Y-110626500D01*
X93528453Y-110626500D01*
X93461414Y-110606815D01*
X93440772Y-110590181D01*
X88291819Y-105441228D01*
X88258334Y-105379905D01*
X88255500Y-105353547D01*
X88255500Y-102552687D01*
X88275185Y-102485648D01*
X88287350Y-102469715D01*
X88305891Y-102449122D01*
X88362533Y-102386216D01*
X88457179Y-102222284D01*
X88515674Y-102042256D01*
X88535460Y-101854000D01*
X88515674Y-101665744D01*
X88457179Y-101485716D01*
X88426827Y-101433144D01*
X88398165Y-101383499D01*
X88381692Y-101315599D01*
X88404545Y-101249572D01*
X88459466Y-101206382D01*
X88505552Y-101197500D01*
X89974252Y-101197500D01*
X90041291Y-101217185D01*
X90066400Y-101238526D01*
X90072126Y-101244885D01*
X90072130Y-101244889D01*
X90225265Y-101356148D01*
X90225270Y-101356151D01*
X90398192Y-101433142D01*
X90398197Y-101433144D01*
X90583354Y-101472500D01*
X90583355Y-101472500D01*
X90772644Y-101472500D01*
X90772646Y-101472500D01*
X90957803Y-101433144D01*
X91130730Y-101356151D01*
X91283871Y-101244888D01*
X91283874Y-101244883D01*
X91288701Y-101240539D01*
X91289646Y-101241588D01*
X91342830Y-101208819D01*
X91412687Y-101210144D01*
X91470738Y-101249027D01*
X91498552Y-101313122D01*
X91499501Y-101328437D01*
X91499501Y-101619876D01*
X91505908Y-101679483D01*
X91556202Y-101814328D01*
X91556206Y-101814335D01*
X91642452Y-101929544D01*
X91642455Y-101929547D01*
X91732621Y-101997046D01*
X91774492Y-102052980D01*
X91779476Y-102122671D01*
X91745990Y-102183994D01*
X91732622Y-102195578D01*
X91642809Y-102262812D01*
X91556649Y-102377906D01*
X91556645Y-102377913D01*
X91506403Y-102512620D01*
X91506401Y-102512627D01*
X91500000Y-102572155D01*
X91500000Y-104667844D01*
X91506401Y-104727372D01*
X91506403Y-104727379D01*
X91556645Y-104862086D01*
X91556649Y-104862093D01*
X91642808Y-104977185D01*
X91642817Y-104977194D01*
X91726560Y-105039885D01*
X91726562Y-105039884D01*
X93412319Y-103354128D01*
X93473642Y-103320643D01*
X93543334Y-103325627D01*
X93587681Y-103354128D01*
X93765871Y-103532318D01*
X93799356Y-103593641D01*
X93794372Y-103663333D01*
X93765871Y-103707680D01*
X92353552Y-105119999D01*
X92353553Y-105120000D01*
X94925500Y-105120000D01*
X94992539Y-105139685D01*
X95038294Y-105192489D01*
X95049500Y-105244000D01*
X95049500Y-109975467D01*
X95049416Y-109975889D01*
X95049459Y-110000001D01*
X95049500Y-110000099D01*
X95049616Y-110000382D01*
X95049618Y-110000384D01*
X95049808Y-110000462D01*
X95050000Y-110000541D01*
X95050002Y-110000539D01*
X95074616Y-110000524D01*
X95074616Y-110000528D01*
X95074760Y-110000500D01*
X96825240Y-110000500D01*
X96825383Y-110000528D01*
X96825384Y-110000524D01*
X96849997Y-110000539D01*
X96850000Y-110000541D01*
X96850383Y-110000383D01*
X96850500Y-110000099D01*
X96850541Y-110000000D01*
X96850540Y-109999997D01*
X96850583Y-109975889D01*
X96850500Y-109975467D01*
X96850500Y-53320195D01*
X97159840Y-53320195D01*
X97164225Y-53366583D01*
X97164500Y-53372421D01*
X97164500Y-71037255D01*
X97162775Y-71052872D01*
X97163061Y-71052899D01*
X97162326Y-71060665D01*
X97164500Y-71129814D01*
X97164500Y-71159343D01*
X97164501Y-71159360D01*
X97165368Y-71166231D01*
X97165826Y-71172050D01*
X97167290Y-71218624D01*
X97167291Y-71218627D01*
X97172880Y-71237867D01*
X97176824Y-71256911D01*
X97179336Y-71276791D01*
X97196490Y-71320119D01*
X97198382Y-71325647D01*
X97211381Y-71370388D01*
X97221580Y-71387634D01*
X97230138Y-71405103D01*
X97237514Y-71423732D01*
X97264898Y-71461423D01*
X97268106Y-71466307D01*
X97291827Y-71506416D01*
X97291833Y-71506424D01*
X97305990Y-71520580D01*
X97318628Y-71535376D01*
X97330405Y-71551586D01*
X97330406Y-71551587D01*
X97366309Y-71581288D01*
X97370620Y-71585210D01*
X102790189Y-77004780D01*
X104471038Y-78685629D01*
X104504523Y-78746952D01*
X104506678Y-78760348D01*
X104514968Y-78839227D01*
X104524326Y-78928256D01*
X104524327Y-78928259D01*
X104582818Y-79108277D01*
X104582821Y-79108284D01*
X104677467Y-79272216D01*
X104804129Y-79412888D01*
X104957265Y-79524148D01*
X104957270Y-79524151D01*
X105130192Y-79601142D01*
X105130197Y-79601144D01*
X105315354Y-79640500D01*
X105315355Y-79640500D01*
X105504644Y-79640500D01*
X105504646Y-79640500D01*
X105689803Y-79601144D01*
X105862730Y-79524151D01*
X106015871Y-79412888D01*
X106142533Y-79272216D01*
X106237179Y-79108284D01*
X106295674Y-78928256D01*
X106315460Y-78740000D01*
X106295674Y-78551744D01*
X106237179Y-78371716D01*
X106142533Y-78207784D01*
X106015871Y-78067112D01*
X106015870Y-78067111D01*
X105862734Y-77955851D01*
X105862729Y-77955848D01*
X105689807Y-77878857D01*
X105689802Y-77878855D01*
X105544001Y-77847865D01*
X105504646Y-77839500D01*
X105504645Y-77839500D01*
X105445453Y-77839500D01*
X105378414Y-77819815D01*
X105357772Y-77803181D01*
X98451819Y-70897228D01*
X98418334Y-70835905D01*
X98415500Y-70809547D01*
X98415500Y-53650451D01*
X98435185Y-53583412D01*
X98451815Y-53562774D01*
X98609840Y-53404749D01*
X98671162Y-53371265D01*
X98740854Y-53376249D01*
X98796787Y-53418121D01*
X98821204Y-53483585D01*
X98815227Y-53531433D01*
X98810000Y-53547205D01*
X98799500Y-53649983D01*
X98799500Y-54400001D01*
X98799501Y-54400019D01*
X98810000Y-54502796D01*
X98810001Y-54502799D01*
X98865185Y-54669331D01*
X98865186Y-54669334D01*
X98957288Y-54818656D01*
X99081344Y-54942712D01*
X99230666Y-55034814D01*
X99230668Y-55034815D01*
X99251110Y-55041588D01*
X99289502Y-55054310D01*
X99346947Y-55094081D01*
X99373772Y-55158596D01*
X99374500Y-55172016D01*
X99374500Y-56829755D01*
X99372775Y-56845372D01*
X99373061Y-56845399D01*
X99372326Y-56853165D01*
X99374500Y-56922314D01*
X99374500Y-56951843D01*
X99374501Y-56951860D01*
X99375368Y-56958731D01*
X99375826Y-56964550D01*
X99377290Y-57011124D01*
X99377291Y-57011127D01*
X99382880Y-57030367D01*
X99386824Y-57049411D01*
X99389336Y-57069291D01*
X99406490Y-57112619D01*
X99408382Y-57118147D01*
X99421382Y-57162890D01*
X99431531Y-57180052D01*
X99431580Y-57180134D01*
X99440138Y-57197603D01*
X99447514Y-57216232D01*
X99474898Y-57253923D01*
X99478106Y-57258807D01*
X99501827Y-57298916D01*
X99501833Y-57298924D01*
X99515990Y-57313080D01*
X99528628Y-57327876D01*
X99540405Y-57344086D01*
X99540406Y-57344087D01*
X99576309Y-57373788D01*
X99580620Y-57377710D01*
X99916234Y-57713324D01*
X100063181Y-57860271D01*
X100096666Y-57921594D01*
X100099500Y-57947952D01*
X100099500Y-58286668D01*
X100099501Y-58286687D01*
X100109825Y-58387752D01*
X100146109Y-58497249D01*
X100164092Y-58551516D01*
X100254660Y-58698350D01*
X100376650Y-58820340D01*
X100523484Y-58910908D01*
X100687247Y-58965174D01*
X100788323Y-58975500D01*
X101386676Y-58975499D01*
X101386684Y-58975498D01*
X101386687Y-58975498D01*
X101442030Y-58969844D01*
X101487753Y-58965174D01*
X101651516Y-58910908D01*
X101798350Y-58820340D01*
X101912675Y-58706014D01*
X101973994Y-58672532D01*
X102043686Y-58677516D01*
X102088034Y-58706017D01*
X102201961Y-58819944D01*
X102201965Y-58819947D01*
X102348688Y-58910448D01*
X102348699Y-58910453D01*
X102512347Y-58964680D01*
X102613351Y-58974999D01*
X102662499Y-58974998D01*
X102662500Y-58974998D01*
X102662500Y-58250000D01*
X103162500Y-58250000D01*
X103162500Y-58974999D01*
X103211640Y-58974999D01*
X103211654Y-58974998D01*
X103312652Y-58964680D01*
X103476300Y-58910453D01*
X103476311Y-58910448D01*
X103623034Y-58819947D01*
X103623038Y-58819944D01*
X103744944Y-58698038D01*
X103744947Y-58698034D01*
X103835448Y-58551311D01*
X103835453Y-58551300D01*
X103889680Y-58387652D01*
X103899999Y-58286654D01*
X103900000Y-58286641D01*
X103900000Y-58250000D01*
X103162500Y-58250000D01*
X102662500Y-58250000D01*
X102662500Y-57025000D01*
X103162500Y-57025000D01*
X103162500Y-57750000D01*
X103899999Y-57750000D01*
X103899999Y-57713360D01*
X103899998Y-57713345D01*
X103889680Y-57612347D01*
X103835453Y-57448699D01*
X103835448Y-57448688D01*
X103744947Y-57301965D01*
X103744944Y-57301961D01*
X103623038Y-57180055D01*
X103623034Y-57180052D01*
X103476311Y-57089551D01*
X103476300Y-57089546D01*
X103312652Y-57035319D01*
X103211654Y-57025000D01*
X103162500Y-57025000D01*
X102662500Y-57025000D01*
X102662499Y-57024999D01*
X102613361Y-57025000D01*
X102613343Y-57025001D01*
X102512347Y-57035319D01*
X102348699Y-57089546D01*
X102348688Y-57089551D01*
X102201965Y-57180052D01*
X102088034Y-57293983D01*
X102026711Y-57327467D01*
X101957019Y-57322483D01*
X101912672Y-57293982D01*
X101798351Y-57179661D01*
X101798350Y-57179660D01*
X101689659Y-57112619D01*
X101651518Y-57089093D01*
X101651513Y-57089091D01*
X101650069Y-57088612D01*
X101487753Y-57034826D01*
X101487751Y-57034825D01*
X101386684Y-57024500D01*
X101386677Y-57024500D01*
X101047953Y-57024500D01*
X100980914Y-57004815D01*
X100960272Y-56988181D01*
X100661819Y-56689728D01*
X100628334Y-56628405D01*
X100625500Y-56602047D01*
X100625500Y-55172016D01*
X100645185Y-55104977D01*
X100697989Y-55059222D01*
X100710488Y-55054313D01*
X100769334Y-55034814D01*
X100918656Y-54942712D01*
X101042712Y-54818656D01*
X101134814Y-54669334D01*
X101189999Y-54502797D01*
X101200500Y-54400009D01*
X101200499Y-53649992D01*
X101189999Y-53547203D01*
X101134814Y-53380666D01*
X101042712Y-53231344D01*
X100918656Y-53107288D01*
X100915819Y-53105538D01*
X100914283Y-53103830D01*
X100912989Y-53102807D01*
X100913163Y-53102585D01*
X100869096Y-53053594D01*
X100857872Y-52984632D01*
X100885713Y-52920549D01*
X100915817Y-52894462D01*
X100918656Y-52892712D01*
X101042712Y-52768656D01*
X101134814Y-52619334D01*
X101189999Y-52452797D01*
X101200500Y-52350009D01*
X101200499Y-51599992D01*
X101195967Y-51555631D01*
X101189999Y-51497203D01*
X101189998Y-51497200D01*
X101134814Y-51330666D01*
X101042712Y-51181344D01*
X100918656Y-51057288D01*
X100769334Y-50965186D01*
X100602797Y-50910001D01*
X100602795Y-50910000D01*
X100500010Y-50899500D01*
X99499998Y-50899500D01*
X99499980Y-50899501D01*
X99397203Y-50910000D01*
X99397200Y-50910001D01*
X99230668Y-50965185D01*
X99230663Y-50965187D01*
X99081342Y-51057289D01*
X98957289Y-51181342D01*
X98865184Y-51330668D01*
X98843100Y-51397312D01*
X98803327Y-51454756D01*
X98788519Y-51465036D01*
X98768581Y-51476827D01*
X98754408Y-51491000D01*
X98739623Y-51503628D01*
X98723412Y-51515407D01*
X98693709Y-51551310D01*
X98689777Y-51555631D01*
X97406208Y-52839199D01*
X97393951Y-52849020D01*
X97394134Y-52849241D01*
X97388123Y-52854213D01*
X97340772Y-52904636D01*
X97319889Y-52925519D01*
X97319877Y-52925532D01*
X97315621Y-52931017D01*
X97311837Y-52935447D01*
X97279937Y-52969418D01*
X97279936Y-52969420D01*
X97270284Y-52986976D01*
X97259610Y-53003226D01*
X97247329Y-53019061D01*
X97247324Y-53019068D01*
X97228815Y-53061838D01*
X97226245Y-53067084D01*
X97203803Y-53107906D01*
X97198822Y-53127307D01*
X97192521Y-53145710D01*
X97184562Y-53164102D01*
X97184561Y-53164105D01*
X97177271Y-53210127D01*
X97176087Y-53215846D01*
X97164501Y-53260972D01*
X97164500Y-53260982D01*
X97164500Y-53281016D01*
X97162973Y-53300415D01*
X97159840Y-53320194D01*
X97159840Y-53320195D01*
X96850500Y-53320195D01*
X96850500Y-43596570D01*
X96870185Y-43529531D01*
X96922989Y-43483776D01*
X96992147Y-43473832D01*
X97055703Y-43502857D01*
G37*
%TD.AperFunction*%
%TD*%
M02*
