%TF.GenerationSoftware,KiCad,Pcbnew,7.0.8*%
%TF.CreationDate,2024-10-11T08:24:34+02:00*%
%TF.ProjectId,PCB_Christmas_Tree,5043425f-4368-4726-9973-746d61735f54,rev?*%
%TF.SameCoordinates,Original*%
%TF.FileFunction,Drillmap*%
%TF.FilePolarity,Positive*%
%FSLAX45Y45*%
G04 Gerber Fmt 4.5, Leading zero omitted, Abs format (unit mm)*
G04 Created by KiCad (PCBNEW 7.0.8) date 2024-10-11 08:24:34*
%MOMM*%
%LPD*%
G01*
G04 APERTURE LIST*
%ADD10C,0.100000*%
%ADD11C,0.200000*%
G04 APERTURE END LIST*
D10*
X16958000Y-10340000D02*
X19958000Y-13740000D01*
X14868000Y-3880000D02*
X12458000Y-7340000D01*
X12458000Y-7340000D02*
X13708000Y-7340000D01*
X12958000Y-10340000D02*
X9958000Y-13740000D01*
X12958000Y-10340000D02*
X10958000Y-10340000D01*
X19958000Y-13740000D02*
X9958000Y-13740000D01*
X13708000Y-7340000D02*
X10958000Y-10340000D01*
X15048000Y-3880000D02*
X15048000Y-10560000D01*
X16208000Y-7340000D02*
X18958000Y-10340000D01*
X15048000Y-10560000D02*
X14868000Y-10560000D01*
X15048000Y-3880000D02*
X17458000Y-7340000D01*
X14868000Y-10560000D02*
X14868000Y-3880000D01*
X18958000Y-10340000D02*
X16958000Y-10340000D01*
X16208000Y-7340000D02*
X17458000Y-7340000D01*
D11*
X10213777Y-14056484D02*
X10213777Y-13856484D01*
X10213777Y-13856484D02*
X10261396Y-13856484D01*
X10261396Y-13856484D02*
X10289967Y-13866008D01*
X10289967Y-13866008D02*
X10309015Y-13885055D01*
X10309015Y-13885055D02*
X10318539Y-13904103D01*
X10318539Y-13904103D02*
X10328063Y-13942198D01*
X10328063Y-13942198D02*
X10328063Y-13970769D01*
X10328063Y-13970769D02*
X10318539Y-14008865D01*
X10318539Y-14008865D02*
X10309015Y-14027912D01*
X10309015Y-14027912D02*
X10289967Y-14046960D01*
X10289967Y-14046960D02*
X10261396Y-14056484D01*
X10261396Y-14056484D02*
X10213777Y-14056484D01*
X10413777Y-14056484D02*
X10413777Y-13923150D01*
X10413777Y-13961246D02*
X10423301Y-13942198D01*
X10423301Y-13942198D02*
X10432824Y-13932674D01*
X10432824Y-13932674D02*
X10451872Y-13923150D01*
X10451872Y-13923150D02*
X10470920Y-13923150D01*
X10537586Y-14056484D02*
X10537586Y-13923150D01*
X10537586Y-13856484D02*
X10528063Y-13866008D01*
X10528063Y-13866008D02*
X10537586Y-13875531D01*
X10537586Y-13875531D02*
X10547110Y-13866008D01*
X10547110Y-13866008D02*
X10537586Y-13856484D01*
X10537586Y-13856484D02*
X10537586Y-13875531D01*
X10661396Y-14056484D02*
X10642348Y-14046960D01*
X10642348Y-14046960D02*
X10632824Y-14027912D01*
X10632824Y-14027912D02*
X10632824Y-13856484D01*
X10766158Y-14056484D02*
X10747110Y-14046960D01*
X10747110Y-14046960D02*
X10737586Y-14027912D01*
X10737586Y-14027912D02*
X10737586Y-13856484D01*
X10994729Y-14056484D02*
X10994729Y-13856484D01*
X10994729Y-13856484D02*
X11061396Y-13999341D01*
X11061396Y-13999341D02*
X11128063Y-13856484D01*
X11128063Y-13856484D02*
X11128063Y-14056484D01*
X11309015Y-14056484D02*
X11309015Y-13951722D01*
X11309015Y-13951722D02*
X11299491Y-13932674D01*
X11299491Y-13932674D02*
X11280443Y-13923150D01*
X11280443Y-13923150D02*
X11242348Y-13923150D01*
X11242348Y-13923150D02*
X11223301Y-13932674D01*
X11309015Y-14046960D02*
X11289967Y-14056484D01*
X11289967Y-14056484D02*
X11242348Y-14056484D01*
X11242348Y-14056484D02*
X11223301Y-14046960D01*
X11223301Y-14046960D02*
X11213777Y-14027912D01*
X11213777Y-14027912D02*
X11213777Y-14008865D01*
X11213777Y-14008865D02*
X11223301Y-13989817D01*
X11223301Y-13989817D02*
X11242348Y-13980293D01*
X11242348Y-13980293D02*
X11289967Y-13980293D01*
X11289967Y-13980293D02*
X11309015Y-13970769D01*
X11404253Y-13923150D02*
X11404253Y-14123150D01*
X11404253Y-13932674D02*
X11423301Y-13923150D01*
X11423301Y-13923150D02*
X11461396Y-13923150D01*
X11461396Y-13923150D02*
X11480443Y-13932674D01*
X11480443Y-13932674D02*
X11489967Y-13942198D01*
X11489967Y-13942198D02*
X11499491Y-13961246D01*
X11499491Y-13961246D02*
X11499491Y-14018388D01*
X11499491Y-14018388D02*
X11489967Y-14037436D01*
X11489967Y-14037436D02*
X11480443Y-14046960D01*
X11480443Y-14046960D02*
X11461396Y-14056484D01*
X11461396Y-14056484D02*
X11423301Y-14056484D01*
X11423301Y-14056484D02*
X11404253Y-14046960D01*
X11585205Y-14037436D02*
X11594729Y-14046960D01*
X11594729Y-14046960D02*
X11585205Y-14056484D01*
X11585205Y-14056484D02*
X11575682Y-14046960D01*
X11575682Y-14046960D02*
X11585205Y-14037436D01*
X11585205Y-14037436D02*
X11585205Y-14056484D01*
X11585205Y-13932674D02*
X11594729Y-13942198D01*
X11594729Y-13942198D02*
X11585205Y-13951722D01*
X11585205Y-13951722D02*
X11575682Y-13942198D01*
X11575682Y-13942198D02*
X11585205Y-13932674D01*
X11585205Y-13932674D02*
X11585205Y-13951722D01*
M02*
