G04 #@! TF.GenerationSoftware,KiCad,Pcbnew,7.0.8*
G04 #@! TF.CreationDate,2024-10-11T08:24:21+02:00*
G04 #@! TF.ProjectId,PCB_Christmas_Tree,5043425f-4368-4726-9973-746d61735f54,rev?*
G04 #@! TF.SameCoordinates,Original*
G04 #@! TF.FileFunction,Copper,L2,Bot*
G04 #@! TF.FilePolarity,Positive*
%FSLAX46Y46*%
G04 Gerber Fmt 4.6, Leading zero omitted, Abs format (unit mm)*
G04 Created by KiCad (PCBNEW 7.0.8) date 2024-10-11 08:24:21*
%MOMM*%
%LPD*%
G01*
G04 APERTURE LIST*
G04 Aperture macros list*
%AMRoundRect*
0 Rectangle with rounded corners*
0 $1 Rounding radius*
0 $2 $3 $4 $5 $6 $7 $8 $9 X,Y pos of 4 corners*
0 Add a 4 corners polygon primitive as box body*
4,1,4,$2,$3,$4,$5,$6,$7,$8,$9,$2,$3,0*
0 Add four circle primitives for the rounded corners*
1,1,$1+$1,$2,$3*
1,1,$1+$1,$4,$5*
1,1,$1+$1,$6,$7*
1,1,$1+$1,$8,$9*
0 Add four rect primitives between the rounded corners*
20,1,$1+$1,$2,$3,$4,$5,0*
20,1,$1+$1,$4,$5,$6,$7,0*
20,1,$1+$1,$6,$7,$8,$9,0*
20,1,$1+$1,$8,$9,$2,$3,0*%
G04 Aperture macros list end*
G04 #@! TA.AperFunction,SMDPad,CuDef*
%ADD10RoundRect,0.250000X0.250000X0.750000X-0.250000X0.750000X-0.250000X-0.750000X0.250000X-0.750000X0*%
G04 #@! TD*
G04 #@! TA.AperFunction,SMDPad,CuDef*
%ADD11RoundRect,0.250000X0.350000X0.450000X-0.350000X0.450000X-0.350000X-0.450000X0.350000X-0.450000X0*%
G04 #@! TD*
G04 #@! TA.AperFunction,SMDPad,CuDef*
%ADD12RoundRect,0.250000X-0.325000X-0.450000X0.325000X-0.450000X0.325000X0.450000X-0.325000X0.450000X0*%
G04 #@! TD*
G04 #@! TA.AperFunction,SMDPad,CuDef*
%ADD13RoundRect,0.250000X-0.350000X-0.450000X0.350000X-0.450000X0.350000X0.450000X-0.350000X0.450000X0*%
G04 #@! TD*
G04 #@! TA.AperFunction,SMDPad,CuDef*
%ADD14RoundRect,0.150000X-0.825000X-0.150000X0.825000X-0.150000X0.825000X0.150000X-0.825000X0.150000X0*%
G04 #@! TD*
G04 #@! TA.AperFunction,SMDPad,CuDef*
%ADD15R,0.450000X1.500000*%
G04 #@! TD*
G04 #@! TA.AperFunction,SMDPad,CuDef*
%ADD16RoundRect,0.250000X-0.450000X0.350000X-0.450000X-0.350000X0.450000X-0.350000X0.450000X0.350000X0*%
G04 #@! TD*
G04 #@! TA.AperFunction,SMDPad,CuDef*
%ADD17R,3.000000X2.000000*%
G04 #@! TD*
G04 #@! TA.AperFunction,SMDPad,CuDef*
%ADD18RoundRect,0.250000X0.450000X-0.325000X0.450000X0.325000X-0.450000X0.325000X-0.450000X-0.325000X0*%
G04 #@! TD*
G04 #@! TA.AperFunction,SMDPad,CuDef*
%ADD19RoundRect,0.150000X0.850000X0.150000X-0.850000X0.150000X-0.850000X-0.150000X0.850000X-0.150000X0*%
G04 #@! TD*
G04 #@! TA.AperFunction,ComponentPad*
%ADD20R,1.700000X1.700000*%
G04 #@! TD*
G04 #@! TA.AperFunction,ComponentPad*
%ADD21O,1.700000X1.700000*%
G04 #@! TD*
G04 #@! TA.AperFunction,SMDPad,CuDef*
%ADD22RoundRect,0.250000X0.450000X-0.350000X0.450000X0.350000X-0.450000X0.350000X-0.450000X-0.350000X0*%
G04 #@! TD*
G04 #@! TA.AperFunction,ComponentPad*
%ADD23C,3.000000*%
G04 #@! TD*
G04 #@! TA.AperFunction,ViaPad*
%ADD24C,0.800000*%
G04 #@! TD*
G04 #@! TA.AperFunction,Conductor*
%ADD25C,0.450000*%
G04 #@! TD*
G04 #@! TA.AperFunction,Conductor*
%ADD26C,0.250000*%
G04 #@! TD*
G04 #@! TA.AperFunction,Conductor*
%ADD27C,0.600000*%
G04 #@! TD*
G04 APERTURE END LIST*
D10*
X148118000Y-44241000D03*
D11*
X163079000Y-69514000D03*
X161079000Y-69514000D03*
X188234000Y-133776000D03*
X186234000Y-133776000D03*
D12*
X164873000Y-69514000D03*
X166923000Y-69514000D03*
D13*
X147118000Y-128950000D03*
X149118000Y-128950000D03*
D14*
X147399000Y-135139000D03*
X147399000Y-133869000D03*
X147399000Y-132599000D03*
X147399000Y-131329000D03*
X152349000Y-131329000D03*
X152349000Y-132599000D03*
X152349000Y-133869000D03*
X152349000Y-135139000D03*
D10*
X151039000Y-44241000D03*
D15*
X148326000Y-126294500D03*
X147026000Y-126294500D03*
X147676000Y-123634500D03*
D16*
X136434000Y-128966000D03*
X136434000Y-130966000D03*
D15*
X152622000Y-126216000D03*
X151322000Y-126216000D03*
X151972000Y-123556000D03*
X156962000Y-126802500D03*
X155662000Y-126802500D03*
X156312000Y-124142500D03*
D17*
X152030000Y-89574000D03*
X152030000Y-92876000D03*
X152030000Y-96178000D03*
X152030000Y-99226000D03*
D13*
X141276000Y-134792000D03*
X143276000Y-134792000D03*
D18*
X133630000Y-85625000D03*
X133630000Y-83575000D03*
D13*
X151793500Y-128950000D03*
X153793500Y-128950000D03*
D19*
X143419000Y-130794000D03*
X143419000Y-132694000D03*
X141006000Y-131744000D03*
D12*
X190273000Y-133776000D03*
X192323000Y-133776000D03*
D18*
X145630000Y-49600000D03*
X145630000Y-47550000D03*
D20*
X169155000Y-134600000D03*
D21*
X166615000Y-134600000D03*
X164075000Y-134600000D03*
D11*
X144630000Y-53600000D03*
X142630000Y-53600000D03*
X178328000Y-99740000D03*
X176328000Y-99740000D03*
D22*
X156246000Y-133633000D03*
X156246000Y-131633000D03*
D18*
X125630000Y-116625000D03*
X125630000Y-114575000D03*
D23*
X139274000Y-126227000D03*
X160356000Y-126227000D03*
D19*
X138163500Y-133014000D03*
X138163500Y-134914000D03*
X135750500Y-133964000D03*
D15*
X144450000Y-128502000D03*
X143150000Y-128502000D03*
X143800000Y-125842000D03*
D11*
X132630000Y-89600000D03*
X130630000Y-89600000D03*
D12*
X180367000Y-99740000D03*
X182417000Y-99740000D03*
D11*
X124630000Y-120600000D03*
X122630000Y-120600000D03*
D24*
X183995000Y-134036000D03*
X147610000Y-99740000D03*
X134757600Y-127121200D03*
X146340000Y-73070000D03*
X132268400Y-133623600D03*
X154330000Y-94533000D03*
X153604400Y-124276400D03*
X146340000Y-67990000D03*
X158074800Y-124581200D03*
X151724800Y-84855600D03*
X139730000Y-136100000D03*
X152690000Y-62910000D03*
X122718000Y-122600000D03*
X145628800Y-124124000D03*
X112253200Y-136011200D03*
X151420000Y-87243200D03*
X136484800Y-126562400D03*
X158074800Y-122752400D03*
X160564000Y-129407200D03*
X142682400Y-55442400D03*
X128306000Y-89707000D03*
X134605200Y-131337600D03*
X145476400Y-119755200D03*
X154468000Y-135173000D03*
X159497200Y-69514000D03*
X158659000Y-134665000D03*
X154671200Y-87649600D03*
X146340000Y-55290000D03*
X123734000Y-133522000D03*
X157770000Y-121126800D03*
X151674000Y-98724000D03*
X146340000Y-70530000D03*
X146340000Y-80690000D03*
X162138800Y-130931200D03*
X158633600Y-130931200D03*
X154010800Y-119298000D03*
X146340000Y-60370000D03*
X126477200Y-135858800D03*
X152690000Y-73070000D03*
X123327600Y-97809600D03*
X143292000Y-121584000D03*
X120686000Y-120568000D03*
X176413600Y-101975200D03*
X156550800Y-55442400D03*
X146340000Y-65450000D03*
X147559200Y-103448400D03*
X126629600Y-131337600D03*
X146340000Y-83230000D03*
X134554400Y-135808000D03*
X146289200Y-101721200D03*
X150861200Y-119602800D03*
X154330000Y-91358000D03*
X146340000Y-57830000D03*
X146340000Y-75610000D03*
X186268800Y-136011200D03*
X161199000Y-134665000D03*
X145578000Y-128188000D03*
X152690000Y-78150000D03*
X174483200Y-99689200D03*
X176464400Y-97657200D03*
X123378400Y-101772000D03*
X145019200Y-135452400D03*
X151674000Y-99740000D03*
X149337200Y-119602800D03*
X146340000Y-99740000D03*
X130998400Y-131388400D03*
X122667200Y-118637600D03*
X147711600Y-101670400D03*
X152690000Y-57830000D03*
X152690000Y-55290000D03*
X146340000Y-62910000D03*
X152690000Y-65450000D03*
X129779200Y-133522000D03*
X177582000Y-122092000D03*
X152690000Y-70530000D03*
X114082000Y-134030000D03*
X152690000Y-80690000D03*
X180071200Y-119704400D03*
X142225200Y-124428800D03*
X151521600Y-103397600D03*
X154061600Y-126816400D03*
X146340000Y-78150000D03*
X152944000Y-99740000D03*
X177632800Y-117266000D03*
X139634400Y-69412400D03*
X152690000Y-75610000D03*
X151420000Y-101670400D03*
X146340000Y-98724000D03*
X152944000Y-98724000D03*
X152690000Y-67990000D03*
X152690000Y-60370000D03*
X125308800Y-99740000D03*
X147610000Y-98724000D03*
X152842400Y-101670400D03*
X147508400Y-87141600D03*
X146340000Y-96692000D03*
X156296800Y-96178000D03*
X147610000Y-95676000D03*
X152944000Y-96692000D03*
X155293500Y-100946500D03*
X152944000Y-92374000D03*
X151674000Y-92374000D03*
X147610000Y-122092000D03*
X147610000Y-119806000D03*
X146340000Y-95676000D03*
X156195200Y-92876000D03*
X146340000Y-92374000D03*
X143596800Y-101822800D03*
X144714400Y-96172000D03*
X151674000Y-96692000D03*
X152944000Y-95676000D03*
X151674000Y-95676000D03*
X152944000Y-93390000D03*
X143596800Y-92870000D03*
X151674000Y-93390000D03*
X146340000Y-93390000D03*
X147610000Y-93390000D03*
X147610000Y-92374000D03*
X147610000Y-96692000D03*
X146340000Y-90088000D03*
X152436000Y-122219000D03*
X147610000Y-89072000D03*
X152944000Y-90088000D03*
X146340000Y-89072000D03*
X147610000Y-90088000D03*
X151674000Y-90088000D03*
X144206400Y-89568000D03*
X154722000Y-89574000D03*
X139355000Y-131617000D03*
X152944000Y-89072000D03*
X151674000Y-89072000D03*
X156373000Y-113575000D03*
X142580800Y-102889600D03*
X148130000Y-44300000D03*
X151030000Y-44300000D03*
D25*
X164075000Y-134600000D02*
X162108000Y-132633000D01*
D26*
X164873000Y-69514000D02*
X162991500Y-69514000D01*
D25*
X162108000Y-132633000D02*
X161580000Y-132633000D01*
X152349000Y-132599000D02*
X152383000Y-132633000D01*
X152383000Y-132633000D02*
X161580000Y-132633000D01*
X147399000Y-130474000D02*
X147399000Y-131329000D01*
X156962000Y-126802500D02*
X156962000Y-128869000D01*
D27*
X139585500Y-133014000D02*
X141363500Y-134792000D01*
D25*
X142079250Y-130794000D02*
X141779250Y-130494000D01*
D27*
X136447500Y-129053500D02*
X139274000Y-126227000D01*
X135750500Y-133964000D02*
X135730000Y-133943500D01*
D25*
X137704000Y-130878500D02*
X136434000Y-130878500D01*
D26*
X136434000Y-129053500D02*
X136447500Y-129053500D01*
D27*
X137958000Y-133014000D02*
X139585500Y-133014000D01*
D25*
X144450000Y-130459000D02*
X144115000Y-130794000D01*
X154849000Y-125140000D02*
X154849000Y-122219000D01*
X153706000Y-121076000D02*
X153452000Y-121076000D01*
D27*
X150404000Y-128188000D02*
X150404000Y-121330000D01*
D25*
X144450000Y-128502000D02*
X144450000Y-130459000D01*
X143150000Y-128502000D02*
X143150000Y-127538000D01*
X147205500Y-128950000D02*
X147205500Y-130280500D01*
D27*
X135730000Y-133943500D02*
X135730000Y-132829000D01*
D25*
X153706000Y-128315000D02*
X153706000Y-128950000D01*
D27*
X149515000Y-121076000D02*
X151420000Y-121076000D01*
D26*
X136083000Y-133964000D02*
X135750500Y-133964000D01*
D25*
X156246000Y-129585000D02*
X156246000Y-131720500D01*
X138088500Y-130494000D02*
X137704000Y-130878500D01*
X143800000Y-123743000D02*
X146467000Y-121076000D01*
X152622000Y-127231000D02*
X153706000Y-128315000D01*
X143150000Y-127538000D02*
X141839000Y-126227000D01*
D26*
X160356000Y-125553604D02*
X160356000Y-126227000D01*
D27*
X151881000Y-128950000D02*
X152309000Y-129378000D01*
D25*
X154629000Y-133869000D02*
X154976000Y-133522000D01*
X144115000Y-130794000D02*
X143213500Y-130794000D01*
D27*
X149007000Y-135139000D02*
X149024000Y-135156000D01*
X136434000Y-132125000D02*
X136434000Y-130878500D01*
D25*
X143213500Y-130794000D02*
X142079250Y-130794000D01*
X155662000Y-125953000D02*
X154849000Y-125140000D01*
X154849000Y-122219000D02*
X153706000Y-121076000D01*
X154976000Y-133522000D02*
X156222500Y-133522000D01*
X141839000Y-126227000D02*
X139274000Y-126227000D01*
X141779250Y-130494000D02*
X138088500Y-130494000D01*
D27*
X150404000Y-136536000D02*
X168670000Y-136536000D01*
D25*
X151322000Y-127270000D02*
X150404000Y-128188000D01*
X151322000Y-126216000D02*
X151322000Y-127270000D01*
D26*
X180367000Y-99740000D02*
X178240500Y-99740000D01*
D27*
X150658000Y-121076000D02*
X151420000Y-121076000D01*
X135730000Y-132829000D02*
X136434000Y-132125000D01*
X156222500Y-133522000D02*
X156246000Y-133545500D01*
D25*
X152622000Y-126216000D02*
X152622000Y-127231000D01*
X156962000Y-128869000D02*
X156246000Y-129585000D01*
D27*
X144111500Y-133869000D02*
X147399000Y-133869000D01*
D25*
X152349000Y-133869000D02*
X154629000Y-133869000D01*
D27*
X152309000Y-129378000D02*
X152309000Y-131289000D01*
X143188500Y-134792000D02*
X144111500Y-133869000D01*
D26*
X152309000Y-131289000D02*
X152349000Y-131329000D01*
D25*
X147205500Y-130280500D02*
X147399000Y-130474000D01*
D26*
X156195200Y-75660800D02*
X160056000Y-71800000D01*
D27*
X151420000Y-121076000D02*
X153452000Y-121076000D01*
X124542500Y-118997500D02*
X124542500Y-120600000D01*
D25*
X147026000Y-126294500D02*
X145970500Y-126294500D01*
X145518000Y-125842000D02*
X143800000Y-125842000D01*
D26*
X156195200Y-92876000D02*
X155744000Y-92876000D01*
X155293500Y-100946500D02*
X157770000Y-98470000D01*
X166025000Y-71800000D02*
X166923000Y-70902000D01*
X152430000Y-92876000D02*
X152030000Y-92876000D01*
D27*
X150404000Y-121330000D02*
X150658000Y-121076000D01*
X149515000Y-121076000D02*
X146467000Y-121076000D01*
D26*
X177169600Y-92876000D02*
X162342000Y-92876000D01*
X143800000Y-125394000D02*
X143800000Y-126234500D01*
X156195200Y-92876000D02*
X156195200Y-75660800D01*
D27*
X150404000Y-133776000D02*
X149024000Y-135156000D01*
X145630000Y-49600000D02*
X145630000Y-51174000D01*
X168670000Y-136536000D02*
X169155000Y-136051000D01*
X147399000Y-135139000D02*
X149007000Y-135139000D01*
D25*
X143800000Y-125842000D02*
X143800000Y-123743000D01*
D26*
X160056000Y-71800000D02*
X166025000Y-71800000D01*
X182417000Y-98123400D02*
X177169600Y-92876000D01*
D25*
X145970500Y-126294500D02*
X145518000Y-125842000D01*
D26*
X156312000Y-120697500D02*
X156312000Y-124535000D01*
D27*
X150404000Y-128188000D02*
X150404000Y-133776000D01*
X144542500Y-52261500D02*
X144542500Y-53600000D01*
X149024000Y-135156000D02*
X150404000Y-136536000D01*
D26*
X155357000Y-101010000D02*
X155357000Y-119742500D01*
X190273000Y-133776000D02*
X188146500Y-133776000D01*
X157770000Y-92876000D02*
X162342000Y-92876000D01*
X155744000Y-92876000D02*
X153458000Y-92876000D01*
D27*
X125630000Y-117910000D02*
X124542500Y-118997500D01*
X169155000Y-136051000D02*
X169155000Y-134600000D01*
D26*
X157770000Y-98470000D02*
X157770000Y-92876000D01*
D27*
X150404000Y-121330000D02*
X150150000Y-121076000D01*
D26*
X182417000Y-99740000D02*
X182417000Y-98123400D01*
X152944000Y-93390000D02*
X152430000Y-92876000D01*
X153458000Y-92876000D02*
X152944000Y-93390000D01*
D25*
X155662000Y-126802500D02*
X155662000Y-125953000D01*
D26*
X155293500Y-100946500D02*
X155357000Y-101010000D01*
D27*
X125630000Y-116625000D02*
X125630000Y-117910000D01*
X150150000Y-121076000D02*
X149515000Y-121076000D01*
X145630000Y-51174000D02*
X144542500Y-52261500D01*
D26*
X166923000Y-70902000D02*
X166923000Y-69514000D01*
X162342000Y-92876000D02*
X155744000Y-92876000D01*
X145070000Y-87548000D02*
X147737000Y-84881000D01*
X144701700Y-102521300D02*
X148473600Y-106293200D01*
X147737000Y-48686000D02*
X146601000Y-47550000D01*
D27*
X132542500Y-88264500D02*
X132542500Y-89600000D01*
D26*
X155357000Y-119742500D02*
X156312000Y-120697500D01*
X143596800Y-92870000D02*
X143596800Y-101822800D01*
X154341000Y-96178000D02*
X154976000Y-96178000D01*
X147610000Y-119806000D02*
X147610000Y-107156800D01*
X144714400Y-96172000D02*
X144714400Y-102508600D01*
X153446000Y-96178000D02*
X152944000Y-95676000D01*
D27*
X133630000Y-85625000D02*
X133630000Y-87177000D01*
X133630000Y-87177000D02*
X132542500Y-88264500D01*
D26*
X147610000Y-107156800D02*
X148473600Y-106293200D01*
X146601000Y-47550000D02*
X145630000Y-47550000D01*
X154341000Y-102559400D02*
X154341000Y-96178000D01*
X148473600Y-106293200D02*
X150607200Y-106293200D01*
X144714400Y-102508600D02*
X144308000Y-102915000D01*
X154976000Y-96178000D02*
X153446000Y-96178000D01*
X145070000Y-95816400D02*
X145070000Y-87548000D01*
D25*
X151972000Y-122683000D02*
X151972000Y-123948500D01*
D26*
X144714400Y-96172000D02*
X145070000Y-95816400D01*
X144308000Y-102915000D02*
X144701700Y-102521300D01*
X154722000Y-89574000D02*
X153446000Y-89574000D01*
X144167600Y-89568000D02*
X144206400Y-89568000D01*
D27*
X147676000Y-122158000D02*
X147610000Y-122092000D01*
D26*
X147737000Y-84881000D02*
X147737000Y-48686000D01*
X142580800Y-102889600D02*
X142580800Y-91154800D01*
X132648000Y-114575000D02*
X125630000Y-114575000D01*
X152442000Y-96178000D02*
X152030000Y-96178000D01*
X150607200Y-106293200D02*
X154341000Y-102559400D01*
X142580800Y-91154800D02*
X144167600Y-89568000D01*
X156296800Y-96178000D02*
X154976000Y-96178000D01*
D25*
X147676000Y-124027000D02*
X147676000Y-122158000D01*
D26*
X152944000Y-95676000D02*
X152442000Y-96178000D01*
X152442000Y-89574000D02*
X152030000Y-89574000D01*
X192323000Y-132515000D02*
X192323000Y-133776000D01*
X191171000Y-131363000D02*
X192323000Y-132515000D01*
X156373000Y-117647000D02*
X170089000Y-131363000D01*
X144308000Y-102915000D02*
X132648000Y-114575000D01*
X152944000Y-89072000D02*
X152442000Y-89574000D01*
X153446000Y-89574000D02*
X152944000Y-89072000D01*
D27*
X139355000Y-131617000D02*
X139482000Y-131744000D01*
X145070000Y-132599000D02*
X144975000Y-132694000D01*
D26*
X144194400Y-89568000D02*
X138201400Y-83575000D01*
D25*
X152436000Y-122219000D02*
X151972000Y-122683000D01*
D26*
X170089000Y-131363000D02*
X191171000Y-131363000D01*
X156373000Y-113575000D02*
X156373000Y-117647000D01*
D25*
X148326000Y-128245500D02*
X149030500Y-128950000D01*
D26*
X138201400Y-83575000D02*
X133630000Y-83575000D01*
D27*
X144975000Y-132694000D02*
X143213500Y-132694000D01*
X139482000Y-131744000D02*
X141338500Y-131744000D01*
D25*
X148326000Y-126294500D02*
X148326000Y-128245500D01*
D27*
X147399000Y-132599000D02*
X145070000Y-132599000D01*
D26*
X144206400Y-89568000D02*
X144194400Y-89568000D01*
G04 #@! TA.AperFunction,Conductor*
G36*
X148640131Y-39105941D02*
G01*
X148675694Y-39166083D01*
X148679500Y-39196569D01*
X148679500Y-42631870D01*
X148659815Y-42698909D01*
X148607011Y-42744664D01*
X148537853Y-42754608D01*
X148527468Y-42752161D01*
X148527414Y-42752418D01*
X148520795Y-42751000D01*
X148418010Y-42740500D01*
X147817998Y-42740500D01*
X147817980Y-42740501D01*
X147715203Y-42751000D01*
X147715200Y-42751001D01*
X147548668Y-42806185D01*
X147548663Y-42806187D01*
X147399342Y-42898289D01*
X147275289Y-43022342D01*
X147183187Y-43171663D01*
X147183186Y-43171666D01*
X147128001Y-43338203D01*
X147128001Y-43338204D01*
X147128000Y-43338204D01*
X147117500Y-43440983D01*
X147117500Y-45041001D01*
X147117501Y-45041018D01*
X147128000Y-45143796D01*
X147128001Y-45143799D01*
X147183185Y-45310331D01*
X147183186Y-45310334D01*
X147275288Y-45459656D01*
X147399344Y-45583712D01*
X147548666Y-45675814D01*
X147715203Y-45730999D01*
X147817991Y-45741500D01*
X148418008Y-45741499D01*
X148418016Y-45741498D01*
X148418019Y-45741498D01*
X148450039Y-45738227D01*
X148520797Y-45730999D01*
X148520804Y-45730996D01*
X148527414Y-45729582D01*
X148527939Y-45732037D01*
X148586281Y-45730010D01*
X148646336Y-45765720D01*
X148677551Y-45828230D01*
X148679500Y-45850129D01*
X148679500Y-88666597D01*
X148659815Y-88733636D01*
X148607011Y-88779391D01*
X148537853Y-88789335D01*
X148474297Y-88760310D01*
X148440511Y-88709353D01*
X148439825Y-88709659D01*
X148438007Y-88705577D01*
X148437569Y-88704916D01*
X148437180Y-88703719D01*
X148437179Y-88703718D01*
X148437179Y-88703716D01*
X148342533Y-88539784D01*
X148215871Y-88399112D01*
X148204432Y-88390801D01*
X148062734Y-88287851D01*
X148062729Y-88287848D01*
X147889807Y-88210857D01*
X147889802Y-88210855D01*
X147717847Y-88174306D01*
X147704646Y-88171500D01*
X147515354Y-88171500D01*
X147502153Y-88174306D01*
X147330197Y-88210855D01*
X147330192Y-88210857D01*
X147157270Y-88287848D01*
X147157265Y-88287851D01*
X147047885Y-88367321D01*
X146982079Y-88390801D01*
X146914025Y-88374975D01*
X146902115Y-88367321D01*
X146792734Y-88287851D01*
X146792729Y-88287848D01*
X146619807Y-88210857D01*
X146619802Y-88210855D01*
X146447847Y-88174306D01*
X146434646Y-88171500D01*
X146245354Y-88171500D01*
X146232153Y-88174306D01*
X146060197Y-88210855D01*
X146060192Y-88210857D01*
X145887270Y-88287848D01*
X145881637Y-88291101D01*
X145880145Y-88288517D01*
X145826483Y-88307617D01*
X145758441Y-88291739D01*
X145709785Y-88241595D01*
X145695500Y-88183814D01*
X145695500Y-87858451D01*
X145715185Y-87791412D01*
X145731814Y-87770775D01*
X148120786Y-85381802D01*
X148133048Y-85371980D01*
X148132865Y-85371759D01*
X148138867Y-85366792D01*
X148138877Y-85366786D01*
X148186241Y-85316348D01*
X148207120Y-85295470D01*
X148211373Y-85289986D01*
X148215150Y-85285563D01*
X148247062Y-85251582D01*
X148256714Y-85234023D01*
X148267389Y-85217772D01*
X148279674Y-85201936D01*
X148298186Y-85159152D01*
X148300742Y-85153935D01*
X148323197Y-85113092D01*
X148328180Y-85093680D01*
X148334477Y-85075291D01*
X148342438Y-85056895D01*
X148349729Y-85010853D01*
X148350908Y-85005162D01*
X148362500Y-84960019D01*
X148362500Y-84939983D01*
X148364027Y-84920582D01*
X148367160Y-84900804D01*
X148362775Y-84854415D01*
X148362500Y-84848577D01*
X148362500Y-48768742D01*
X148364224Y-48753122D01*
X148363939Y-48753095D01*
X148364673Y-48745333D01*
X148362500Y-48676172D01*
X148362500Y-48646656D01*
X148362500Y-48646650D01*
X148361631Y-48639779D01*
X148361173Y-48633952D01*
X148359710Y-48587373D01*
X148354119Y-48568130D01*
X148350173Y-48549078D01*
X148347664Y-48529208D01*
X148330504Y-48485867D01*
X148328624Y-48480379D01*
X148315618Y-48435610D01*
X148305422Y-48418370D01*
X148296861Y-48400894D01*
X148289487Y-48382270D01*
X148289486Y-48382268D01*
X148262079Y-48344545D01*
X148258888Y-48339686D01*
X148235172Y-48299583D01*
X148235165Y-48299574D01*
X148221006Y-48285415D01*
X148208368Y-48270619D01*
X148196594Y-48254413D01*
X148160688Y-48224709D01*
X148156376Y-48220786D01*
X147101803Y-47166212D01*
X147091980Y-47153950D01*
X147091759Y-47154134D01*
X147086786Y-47148123D01*
X147036364Y-47100773D01*
X147025919Y-47090328D01*
X147015475Y-47079883D01*
X147009986Y-47075625D01*
X147005561Y-47071847D01*
X146971582Y-47039938D01*
X146971580Y-47039936D01*
X146971577Y-47039935D01*
X146954029Y-47030288D01*
X146937763Y-47019604D01*
X146921933Y-47007325D01*
X146879168Y-46988818D01*
X146873922Y-46986248D01*
X146833093Y-46963803D01*
X146828478Y-46961976D01*
X146773392Y-46918996D01*
X146768584Y-46911779D01*
X146672712Y-46756344D01*
X146548657Y-46632289D01*
X146548656Y-46632288D01*
X146399334Y-46540186D01*
X146232797Y-46485001D01*
X146232795Y-46485000D01*
X146130010Y-46474500D01*
X145129998Y-46474500D01*
X145129980Y-46474501D01*
X145027203Y-46485000D01*
X145027200Y-46485001D01*
X144860668Y-46540185D01*
X144860663Y-46540187D01*
X144711342Y-46632289D01*
X144587289Y-46756342D01*
X144495187Y-46905663D01*
X144495186Y-46905666D01*
X144440001Y-47072203D01*
X144440001Y-47072204D01*
X144440000Y-47072204D01*
X144429500Y-47174983D01*
X144429500Y-47925001D01*
X144429501Y-47925019D01*
X144440000Y-48027796D01*
X144440001Y-48027799D01*
X144495185Y-48194331D01*
X144495186Y-48194334D01*
X144584839Y-48339686D01*
X144587289Y-48343657D01*
X144711346Y-48467714D01*
X144714182Y-48469463D01*
X144715717Y-48471170D01*
X144717011Y-48472193D01*
X144716836Y-48472414D01*
X144760905Y-48521411D01*
X144772126Y-48590374D01*
X144744282Y-48654456D01*
X144714182Y-48680537D01*
X144711346Y-48682285D01*
X144587289Y-48806342D01*
X144495187Y-48955663D01*
X144495186Y-48955666D01*
X144440001Y-49122203D01*
X144440001Y-49122204D01*
X144440000Y-49122204D01*
X144429500Y-49224983D01*
X144429500Y-49975001D01*
X144429501Y-49975019D01*
X144440000Y-50077796D01*
X144440001Y-50077799D01*
X144495185Y-50244331D01*
X144495186Y-50244334D01*
X144587288Y-50393656D01*
X144711344Y-50517712D01*
X144770596Y-50554258D01*
X144817321Y-50606204D01*
X144829500Y-50659797D01*
X144829500Y-50791060D01*
X144809815Y-50858099D01*
X144793181Y-50878741D01*
X143912686Y-51759235D01*
X143912683Y-51759239D01*
X143890466Y-51794596D01*
X143886441Y-51800269D01*
X143860410Y-51832910D01*
X143842291Y-51870533D01*
X143838927Y-51876620D01*
X143816712Y-51911976D01*
X143816708Y-51911983D01*
X143802916Y-51951395D01*
X143800255Y-51957820D01*
X143782139Y-51995439D01*
X143772844Y-52036159D01*
X143770919Y-52042841D01*
X143757132Y-52082244D01*
X143752455Y-52123735D01*
X143751291Y-52130589D01*
X143742000Y-52171306D01*
X143742000Y-52551977D01*
X143722315Y-52619016D01*
X143669511Y-52664771D01*
X143600353Y-52674715D01*
X143536797Y-52645690D01*
X143530319Y-52639658D01*
X143448345Y-52557684D01*
X143299124Y-52465643D01*
X143299119Y-52465641D01*
X143132697Y-52410494D01*
X143132690Y-52410493D01*
X143029986Y-52400000D01*
X142880000Y-52400000D01*
X142880000Y-54799999D01*
X143029972Y-54799999D01*
X143029986Y-54799998D01*
X143132697Y-54789505D01*
X143299119Y-54734358D01*
X143299124Y-54734356D01*
X143448342Y-54642317D01*
X143541964Y-54548695D01*
X143603287Y-54515210D01*
X143672979Y-54520194D01*
X143717327Y-54548695D01*
X143811344Y-54642712D01*
X143960666Y-54734814D01*
X144127203Y-54789999D01*
X144229991Y-54800500D01*
X145030008Y-54800499D01*
X145030016Y-54800498D01*
X145030019Y-54800498D01*
X145086302Y-54794748D01*
X145132797Y-54789999D01*
X145299334Y-54734814D01*
X145448656Y-54642712D01*
X145572712Y-54518656D01*
X145664814Y-54369334D01*
X145719999Y-54202797D01*
X145730500Y-54100009D01*
X145730499Y-53099992D01*
X145719999Y-52997203D01*
X145664814Y-52830666D01*
X145572712Y-52681344D01*
X145501403Y-52610035D01*
X145467918Y-52548712D01*
X145472902Y-52479020D01*
X145501400Y-52434676D01*
X146227826Y-51708252D01*
X146259816Y-51676262D01*
X146282037Y-51640895D01*
X146286052Y-51635236D01*
X146312091Y-51602587D01*
X146330209Y-51564961D01*
X146333565Y-51558889D01*
X146355789Y-51523522D01*
X146369580Y-51484105D01*
X146372236Y-51477693D01*
X146390360Y-51440061D01*
X146399658Y-51399321D01*
X146401571Y-51392680D01*
X146415368Y-51353255D01*
X146420043Y-51311760D01*
X146421208Y-51304905D01*
X146422726Y-51298249D01*
X146430500Y-51264194D01*
X146430500Y-51083806D01*
X146430500Y-50659797D01*
X146450185Y-50592758D01*
X146489403Y-50554258D01*
X146548656Y-50517712D01*
X146672712Y-50393656D01*
X146764814Y-50244334D01*
X146819999Y-50077797D01*
X146830500Y-49975009D01*
X146830499Y-49224992D01*
X146819999Y-49122203D01*
X146764814Y-48955666D01*
X146746681Y-48926268D01*
X146728242Y-48858877D01*
X146749165Y-48792214D01*
X146802807Y-48747444D01*
X146872138Y-48738783D01*
X146935145Y-48768980D01*
X146939902Y-48773492D01*
X147075181Y-48908771D01*
X147108666Y-48970094D01*
X147111500Y-48996452D01*
X147111500Y-84570546D01*
X147091815Y-84637585D01*
X147075181Y-84658227D01*
X144686208Y-87047199D01*
X144673951Y-87057020D01*
X144674134Y-87057241D01*
X144668123Y-87062213D01*
X144620772Y-87112636D01*
X144599889Y-87133519D01*
X144599877Y-87133532D01*
X144595621Y-87139017D01*
X144591837Y-87143447D01*
X144559937Y-87177418D01*
X144559936Y-87177420D01*
X144550284Y-87194976D01*
X144539610Y-87211226D01*
X144527329Y-87227061D01*
X144527324Y-87227068D01*
X144508815Y-87269838D01*
X144506245Y-87275084D01*
X144483803Y-87315906D01*
X144478822Y-87335307D01*
X144472521Y-87353710D01*
X144464562Y-87372102D01*
X144464561Y-87372105D01*
X144457271Y-87418127D01*
X144456087Y-87423846D01*
X144444501Y-87468972D01*
X144444500Y-87468982D01*
X144444500Y-87489016D01*
X144442973Y-87508415D01*
X144439840Y-87528194D01*
X144439840Y-87528195D01*
X144444225Y-87574583D01*
X144444500Y-87580421D01*
X144444500Y-88544864D01*
X144424815Y-88611903D01*
X144372011Y-88657658D01*
X144307647Y-88666912D01*
X144307514Y-88668179D01*
X144301051Y-88667500D01*
X144301046Y-88667500D01*
X144229852Y-88667500D01*
X144162813Y-88647815D01*
X144142171Y-88631181D01*
X138702203Y-83191212D01*
X138692380Y-83178950D01*
X138692159Y-83179134D01*
X138687186Y-83173123D01*
X138636764Y-83125773D01*
X138626319Y-83115328D01*
X138615875Y-83104883D01*
X138610386Y-83100625D01*
X138605961Y-83096847D01*
X138571982Y-83064938D01*
X138571980Y-83064936D01*
X138571977Y-83064935D01*
X138554429Y-83055288D01*
X138538163Y-83044604D01*
X138522333Y-83032325D01*
X138479568Y-83013818D01*
X138474322Y-83011248D01*
X138433493Y-82988803D01*
X138433492Y-82988802D01*
X138414093Y-82983822D01*
X138395681Y-82977518D01*
X138377298Y-82969562D01*
X138377292Y-82969560D01*
X138331274Y-82962272D01*
X138325552Y-82961087D01*
X138280421Y-82949500D01*
X138280419Y-82949500D01*
X138260384Y-82949500D01*
X138240986Y-82947973D01*
X138233562Y-82946797D01*
X138221205Y-82944840D01*
X138221204Y-82944840D01*
X138174816Y-82949225D01*
X138168978Y-82949500D01*
X134845638Y-82949500D01*
X134778599Y-82929815D01*
X134740099Y-82890597D01*
X134672712Y-82781344D01*
X134548656Y-82657288D01*
X134399334Y-82565186D01*
X134232797Y-82510001D01*
X134232795Y-82510000D01*
X134130010Y-82499500D01*
X133129998Y-82499500D01*
X133129980Y-82499501D01*
X133027203Y-82510000D01*
X133027200Y-82510001D01*
X132860668Y-82565185D01*
X132860663Y-82565187D01*
X132711342Y-82657289D01*
X132587289Y-82781342D01*
X132495187Y-82930663D01*
X132495185Y-82930668D01*
X132475921Y-82988803D01*
X132440001Y-83097203D01*
X132440001Y-83097204D01*
X132440000Y-83097204D01*
X132429500Y-83199983D01*
X132429500Y-83950001D01*
X132429501Y-83950019D01*
X132440000Y-84052796D01*
X132440001Y-84052799D01*
X132495185Y-84219331D01*
X132495187Y-84219336D01*
X132587289Y-84368657D01*
X132711346Y-84492714D01*
X132714182Y-84494463D01*
X132715717Y-84496170D01*
X132717011Y-84497193D01*
X132716836Y-84497414D01*
X132760905Y-84546411D01*
X132772126Y-84615374D01*
X132744282Y-84679456D01*
X132714182Y-84705537D01*
X132711346Y-84707285D01*
X132587289Y-84831342D01*
X132495187Y-84980663D01*
X132495186Y-84980666D01*
X132440001Y-85147203D01*
X132440001Y-85147204D01*
X132440000Y-85147204D01*
X132429500Y-85249983D01*
X132429500Y-86000001D01*
X132429501Y-86000019D01*
X132440000Y-86102796D01*
X132440001Y-86102799D01*
X132495185Y-86269331D01*
X132495186Y-86269334D01*
X132587288Y-86418656D01*
X132711344Y-86542712D01*
X132770596Y-86579258D01*
X132817321Y-86631204D01*
X132829500Y-86684797D01*
X132829500Y-86794060D01*
X132809815Y-86861099D01*
X132793181Y-86881741D01*
X131912686Y-87762235D01*
X131912683Y-87762239D01*
X131890466Y-87797596D01*
X131886441Y-87803269D01*
X131860410Y-87835910D01*
X131842291Y-87873533D01*
X131838927Y-87879620D01*
X131816712Y-87914976D01*
X131816708Y-87914983D01*
X131802916Y-87954395D01*
X131800255Y-87960820D01*
X131782139Y-87998439D01*
X131772844Y-88039159D01*
X131770919Y-88045841D01*
X131757132Y-88085244D01*
X131752455Y-88126735D01*
X131751291Y-88133589D01*
X131742000Y-88174306D01*
X131742000Y-88551977D01*
X131722315Y-88619016D01*
X131669511Y-88664771D01*
X131600353Y-88674715D01*
X131536797Y-88645690D01*
X131530319Y-88639658D01*
X131448345Y-88557684D01*
X131299124Y-88465643D01*
X131299119Y-88465641D01*
X131132697Y-88410494D01*
X131132690Y-88410493D01*
X131029986Y-88400000D01*
X130880000Y-88400000D01*
X130880000Y-90799999D01*
X131029972Y-90799999D01*
X131029986Y-90799998D01*
X131132697Y-90789505D01*
X131299119Y-90734358D01*
X131299124Y-90734356D01*
X131448342Y-90642317D01*
X131541964Y-90548695D01*
X131603287Y-90515210D01*
X131672979Y-90520194D01*
X131717327Y-90548695D01*
X131811344Y-90642712D01*
X131960666Y-90734814D01*
X132127203Y-90789999D01*
X132229991Y-90800500D01*
X133030008Y-90800499D01*
X133030016Y-90800498D01*
X133030019Y-90800498D01*
X133106571Y-90792678D01*
X133132797Y-90789999D01*
X133299334Y-90734814D01*
X133448656Y-90642712D01*
X133572712Y-90518656D01*
X133664814Y-90369334D01*
X133719999Y-90202797D01*
X133730500Y-90100009D01*
X133730499Y-89099992D01*
X133719999Y-88997203D01*
X133664814Y-88830666D01*
X133572712Y-88681344D01*
X133502903Y-88611535D01*
X133469418Y-88550212D01*
X133474402Y-88480520D01*
X133502900Y-88436176D01*
X134227826Y-87711252D01*
X134259816Y-87679262D01*
X134282037Y-87643895D01*
X134286052Y-87638236D01*
X134312091Y-87605587D01*
X134330209Y-87567961D01*
X134333565Y-87561889D01*
X134355789Y-87526522D01*
X134369580Y-87487105D01*
X134372236Y-87480693D01*
X134390360Y-87443061D01*
X134399658Y-87402321D01*
X134401571Y-87395680D01*
X134415368Y-87356255D01*
X134420043Y-87314760D01*
X134421208Y-87307905D01*
X134428699Y-87275084D01*
X134430500Y-87267194D01*
X134430500Y-87086806D01*
X134430500Y-86684797D01*
X134450185Y-86617758D01*
X134489403Y-86579258D01*
X134548656Y-86542712D01*
X134672712Y-86418656D01*
X134764814Y-86269334D01*
X134819999Y-86102797D01*
X134830500Y-86000009D01*
X134830499Y-85249992D01*
X134819999Y-85147203D01*
X134764814Y-84980666D01*
X134672712Y-84831344D01*
X134548656Y-84707288D01*
X134545819Y-84705538D01*
X134544283Y-84703830D01*
X134542989Y-84702807D01*
X134543163Y-84702585D01*
X134499096Y-84653594D01*
X134487872Y-84584632D01*
X134515713Y-84520549D01*
X134545817Y-84494462D01*
X134548656Y-84492712D01*
X134672712Y-84368656D01*
X134740099Y-84259402D01*
X134792047Y-84212679D01*
X134845638Y-84200500D01*
X137890948Y-84200500D01*
X137957987Y-84220185D01*
X137978629Y-84236819D01*
X143208727Y-89466918D01*
X143242212Y-89528241D01*
X143237228Y-89597933D01*
X143208727Y-89642280D01*
X142197008Y-90653999D01*
X142184751Y-90663820D01*
X142184934Y-90664041D01*
X142178923Y-90669013D01*
X142131572Y-90719436D01*
X142110689Y-90740319D01*
X142110677Y-90740332D01*
X142106421Y-90745817D01*
X142102637Y-90750247D01*
X142070737Y-90784218D01*
X142070736Y-90784220D01*
X142061084Y-90801776D01*
X142050410Y-90818026D01*
X142038129Y-90833861D01*
X142038124Y-90833868D01*
X142019615Y-90876638D01*
X142017045Y-90881884D01*
X141994603Y-90922706D01*
X141989622Y-90942107D01*
X141983321Y-90960510D01*
X141975362Y-90978902D01*
X141975361Y-90978905D01*
X141968071Y-91024927D01*
X141966887Y-91030646D01*
X141955301Y-91075772D01*
X141955300Y-91075782D01*
X141955300Y-91095816D01*
X141953773Y-91115215D01*
X141950640Y-91134994D01*
X141950640Y-91134995D01*
X141955025Y-91181383D01*
X141955300Y-91187221D01*
X141955300Y-102190912D01*
X141935615Y-102257951D01*
X141923450Y-102273884D01*
X141848266Y-102357384D01*
X141753621Y-102521315D01*
X141753618Y-102521322D01*
X141695127Y-102701340D01*
X141695126Y-102701344D01*
X141675340Y-102889600D01*
X141695126Y-103077856D01*
X141695127Y-103077859D01*
X141753618Y-103257877D01*
X141753621Y-103257884D01*
X141848267Y-103421816D01*
X141912876Y-103493571D01*
X141974929Y-103562488D01*
X142128065Y-103673748D01*
X142128070Y-103673751D01*
X142300991Y-103750742D01*
X142300993Y-103750742D01*
X142300997Y-103750744D01*
X142314025Y-103753513D01*
X142375505Y-103786705D01*
X142409282Y-103847867D01*
X142404630Y-103917582D01*
X142375924Y-103962484D01*
X132425228Y-113913181D01*
X132363905Y-113946666D01*
X132337547Y-113949500D01*
X126845638Y-113949500D01*
X126778599Y-113929815D01*
X126740099Y-113890597D01*
X126672712Y-113781344D01*
X126548656Y-113657288D01*
X126399334Y-113565186D01*
X126232797Y-113510001D01*
X126232795Y-113510000D01*
X126130010Y-113499500D01*
X125129998Y-113499500D01*
X125129980Y-113499501D01*
X125027203Y-113510000D01*
X125027200Y-113510001D01*
X124860668Y-113565185D01*
X124860663Y-113565187D01*
X124711342Y-113657289D01*
X124587289Y-113781342D01*
X124495187Y-113930663D01*
X124495186Y-113930666D01*
X124440001Y-114097203D01*
X124440001Y-114097204D01*
X124440000Y-114097204D01*
X124429500Y-114199983D01*
X124429500Y-114950001D01*
X124429501Y-114950019D01*
X124440000Y-115052796D01*
X124440001Y-115052799D01*
X124495185Y-115219331D01*
X124495187Y-115219336D01*
X124587289Y-115368657D01*
X124711346Y-115492714D01*
X124714182Y-115494463D01*
X124715717Y-115496170D01*
X124717011Y-115497193D01*
X124716836Y-115497414D01*
X124760905Y-115546411D01*
X124772126Y-115615374D01*
X124744282Y-115679456D01*
X124714182Y-115705537D01*
X124711346Y-115707285D01*
X124587289Y-115831342D01*
X124495187Y-115980663D01*
X124495186Y-115980666D01*
X124440001Y-116147203D01*
X124440001Y-116147204D01*
X124440000Y-116147204D01*
X124429500Y-116249983D01*
X124429500Y-117000001D01*
X124429501Y-117000019D01*
X124440000Y-117102796D01*
X124440001Y-117102799D01*
X124495185Y-117269331D01*
X124495187Y-117269336D01*
X124587289Y-117418657D01*
X124700595Y-117531963D01*
X124734080Y-117593286D01*
X124729096Y-117662978D01*
X124700595Y-117707325D01*
X124040238Y-118367684D01*
X123912686Y-118495235D01*
X123912683Y-118495239D01*
X123890466Y-118530596D01*
X123886441Y-118536269D01*
X123860410Y-118568910D01*
X123842291Y-118606533D01*
X123838927Y-118612620D01*
X123816712Y-118647976D01*
X123816708Y-118647983D01*
X123802916Y-118687395D01*
X123800255Y-118693820D01*
X123782139Y-118731439D01*
X123772844Y-118772159D01*
X123770919Y-118778841D01*
X123757132Y-118818244D01*
X123752455Y-118859735D01*
X123751291Y-118866589D01*
X123742000Y-118907306D01*
X123742000Y-119551977D01*
X123722315Y-119619016D01*
X123669511Y-119664771D01*
X123600353Y-119674715D01*
X123536797Y-119645690D01*
X123530319Y-119639658D01*
X123448345Y-119557684D01*
X123299124Y-119465643D01*
X123299119Y-119465641D01*
X123132697Y-119410494D01*
X123132690Y-119410493D01*
X123029986Y-119400000D01*
X122880000Y-119400000D01*
X122880000Y-121799999D01*
X123029972Y-121799999D01*
X123029986Y-121799998D01*
X123132697Y-121789505D01*
X123299119Y-121734358D01*
X123299124Y-121734356D01*
X123448342Y-121642317D01*
X123541964Y-121548695D01*
X123603287Y-121515210D01*
X123672979Y-121520194D01*
X123717327Y-121548695D01*
X123811344Y-121642712D01*
X123960666Y-121734814D01*
X124127203Y-121789999D01*
X124229991Y-121800500D01*
X125030008Y-121800499D01*
X125030016Y-121800498D01*
X125030019Y-121800498D01*
X125086302Y-121794748D01*
X125132797Y-121789999D01*
X125299334Y-121734814D01*
X125448656Y-121642712D01*
X125572712Y-121518656D01*
X125664814Y-121369334D01*
X125719999Y-121202797D01*
X125730500Y-121100009D01*
X125730499Y-120099992D01*
X125729356Y-120088807D01*
X125719999Y-119997203D01*
X125719998Y-119997200D01*
X125702812Y-119945337D01*
X125664814Y-119830666D01*
X125572712Y-119681344D01*
X125448656Y-119557288D01*
X125448655Y-119557287D01*
X125401902Y-119528449D01*
X125355178Y-119476500D01*
X125343000Y-119422911D01*
X125343000Y-119380440D01*
X125362685Y-119313401D01*
X125379319Y-119292759D01*
X125764772Y-118907306D01*
X126227826Y-118444252D01*
X126259816Y-118412262D01*
X126282037Y-118376895D01*
X126286052Y-118371236D01*
X126312091Y-118338587D01*
X126330209Y-118300961D01*
X126333565Y-118294889D01*
X126355789Y-118259522D01*
X126369580Y-118220105D01*
X126372236Y-118213693D01*
X126390360Y-118176061D01*
X126399658Y-118135321D01*
X126401571Y-118128680D01*
X126415368Y-118089255D01*
X126420043Y-118047760D01*
X126421208Y-118040905D01*
X126422726Y-118034249D01*
X126430500Y-118000194D01*
X126430500Y-117819806D01*
X126430500Y-117684797D01*
X126450185Y-117617758D01*
X126489403Y-117579258D01*
X126548656Y-117542712D01*
X126672712Y-117418656D01*
X126764814Y-117269334D01*
X126819999Y-117102797D01*
X126830500Y-117000009D01*
X126830499Y-116249992D01*
X126819999Y-116147203D01*
X126764814Y-115980666D01*
X126672712Y-115831344D01*
X126548656Y-115707288D01*
X126545819Y-115705538D01*
X126544283Y-115703830D01*
X126542989Y-115702807D01*
X126543163Y-115702585D01*
X126499096Y-115653594D01*
X126487872Y-115584632D01*
X126515713Y-115520549D01*
X126545817Y-115494462D01*
X126548656Y-115492712D01*
X126672712Y-115368656D01*
X126740099Y-115259402D01*
X126792047Y-115212679D01*
X126845638Y-115200500D01*
X132565257Y-115200500D01*
X132580877Y-115202224D01*
X132580904Y-115201939D01*
X132588660Y-115202671D01*
X132588667Y-115202673D01*
X132657814Y-115200500D01*
X132687350Y-115200500D01*
X132694228Y-115199630D01*
X132700041Y-115199172D01*
X132746627Y-115197709D01*
X132765869Y-115192117D01*
X132784912Y-115188174D01*
X132804792Y-115185664D01*
X132848122Y-115168507D01*
X132853646Y-115166617D01*
X132857396Y-115165527D01*
X132898390Y-115153618D01*
X132915629Y-115143422D01*
X132933103Y-115134862D01*
X132951727Y-115127488D01*
X132951727Y-115127487D01*
X132951732Y-115127486D01*
X132989449Y-115100082D01*
X132994305Y-115096892D01*
X133034420Y-115073170D01*
X133048589Y-115058999D01*
X133063379Y-115046368D01*
X133079587Y-115034594D01*
X133109299Y-114998676D01*
X133113212Y-114994376D01*
X144614020Y-103493569D01*
X144675341Y-103460086D01*
X144745033Y-103465070D01*
X144789380Y-103493571D01*
X147501327Y-106205518D01*
X147534812Y-106266841D01*
X147529828Y-106336533D01*
X147501327Y-106380880D01*
X147226208Y-106655999D01*
X147213951Y-106665820D01*
X147214134Y-106666041D01*
X147208123Y-106671013D01*
X147160772Y-106721436D01*
X147139889Y-106742319D01*
X147139877Y-106742332D01*
X147135621Y-106747817D01*
X147131837Y-106752247D01*
X147099937Y-106786218D01*
X147099936Y-106786220D01*
X147090284Y-106803776D01*
X147079610Y-106820026D01*
X147067329Y-106835861D01*
X147067324Y-106835868D01*
X147048815Y-106878638D01*
X147046245Y-106883884D01*
X147023803Y-106924706D01*
X147018822Y-106944107D01*
X147012521Y-106962510D01*
X147004562Y-106980902D01*
X147004561Y-106980905D01*
X146997271Y-107026927D01*
X146996087Y-107032646D01*
X146984501Y-107077772D01*
X146984500Y-107077782D01*
X146984500Y-107097816D01*
X146982973Y-107117215D01*
X146979840Y-107136994D01*
X146979840Y-107136995D01*
X146984225Y-107183383D01*
X146984500Y-107189221D01*
X146984500Y-119107312D01*
X146964815Y-119174351D01*
X146952650Y-119190284D01*
X146877466Y-119273784D01*
X146782821Y-119437715D01*
X146782818Y-119437722D01*
X146724327Y-119617740D01*
X146724326Y-119617744D01*
X146704540Y-119806000D01*
X146724326Y-119994256D01*
X146724327Y-119994259D01*
X146762967Y-120113182D01*
X146764962Y-120183023D01*
X146728881Y-120242856D01*
X146666180Y-120273684D01*
X146645036Y-120275500D01*
X146422039Y-120275500D01*
X146287750Y-120290630D01*
X146287745Y-120290631D01*
X146117476Y-120350211D01*
X145964737Y-120446184D01*
X145837184Y-120573737D01*
X145741212Y-120726474D01*
X145724022Y-120775600D01*
X145694662Y-120822324D01*
X143330760Y-123186227D01*
X143317133Y-123198005D01*
X143298738Y-123211700D01*
X143298737Y-123211701D01*
X143266328Y-123250325D01*
X143262680Y-123254307D01*
X143257116Y-123259872D01*
X143237467Y-123284721D01*
X143189726Y-123341617D01*
X143185760Y-123347648D01*
X143185681Y-123347596D01*
X143182016Y-123353348D01*
X143182098Y-123353398D01*
X143178306Y-123359544D01*
X143146938Y-123426816D01*
X143113610Y-123493177D01*
X143111142Y-123499960D01*
X143111052Y-123499927D01*
X143108816Y-123506362D01*
X143108907Y-123506393D01*
X143106637Y-123513243D01*
X143091623Y-123585950D01*
X143074499Y-123658205D01*
X143073661Y-123665376D01*
X143073564Y-123665364D01*
X143072872Y-123672135D01*
X143072969Y-123672144D01*
X143072339Y-123679333D01*
X143074500Y-123753567D01*
X143074500Y-125819090D01*
X143074395Y-125822695D01*
X143070797Y-125884468D01*
X143070797Y-125884480D01*
X143072616Y-125894793D01*
X143074500Y-125916324D01*
X143074500Y-126137127D01*
X143054815Y-126204166D01*
X143002011Y-126249921D01*
X142932853Y-126259865D01*
X142869297Y-126230840D01*
X142862819Y-126224808D01*
X142395771Y-125757760D01*
X142383989Y-125744126D01*
X142370308Y-125725750D01*
X142370307Y-125725749D01*
X142370302Y-125725742D01*
X142331665Y-125693321D01*
X142327679Y-125689668D01*
X142322128Y-125684116D01*
X142322123Y-125684112D01*
X142297277Y-125664467D01*
X142292511Y-125660468D01*
X142240383Y-125616727D01*
X142240380Y-125616725D01*
X142234348Y-125612758D01*
X142234401Y-125612676D01*
X142228656Y-125609017D01*
X142228605Y-125609100D01*
X142222458Y-125605308D01*
X142155183Y-125573938D01*
X142088821Y-125540610D01*
X142082035Y-125538140D01*
X142082067Y-125538050D01*
X142075641Y-125535816D01*
X142075611Y-125535908D01*
X142068755Y-125533636D01*
X141996050Y-125518623D01*
X141923792Y-125501498D01*
X141916624Y-125500661D01*
X141916635Y-125500564D01*
X141909867Y-125499872D01*
X141909859Y-125499969D01*
X141902668Y-125499339D01*
X141828432Y-125501500D01*
X141224617Y-125501500D01*
X141157578Y-125481815D01*
X141111823Y-125429011D01*
X141108435Y-125420833D01*
X141107426Y-125418129D01*
X141098367Y-125393839D01*
X141097908Y-125392999D01*
X140961229Y-125142690D01*
X140961224Y-125142682D01*
X140789745Y-124913612D01*
X140789729Y-124913594D01*
X140587405Y-124711270D01*
X140587387Y-124711254D01*
X140358317Y-124539775D01*
X140358309Y-124539770D01*
X140107166Y-124402635D01*
X140107167Y-124402635D01*
X139999915Y-124362632D01*
X139839046Y-124302631D01*
X139839043Y-124302630D01*
X139839037Y-124302628D01*
X139559433Y-124241804D01*
X139274001Y-124221390D01*
X139273999Y-124221390D01*
X138988566Y-124241804D01*
X138708962Y-124302628D01*
X138440833Y-124402635D01*
X138189690Y-124539770D01*
X138189682Y-124539775D01*
X137960612Y-124711254D01*
X137960594Y-124711270D01*
X137758270Y-124913594D01*
X137758254Y-124913612D01*
X137586775Y-125142682D01*
X137586770Y-125142690D01*
X137449635Y-125393833D01*
X137349628Y-125661962D01*
X137288804Y-125941566D01*
X137268390Y-126226998D01*
X137268390Y-126227001D01*
X137288804Y-126512433D01*
X137349631Y-126792047D01*
X137383514Y-126882893D01*
X137388498Y-126952585D01*
X137355013Y-127013907D01*
X136539739Y-127829181D01*
X136478416Y-127862666D01*
X136452058Y-127865500D01*
X135933998Y-127865500D01*
X135933980Y-127865501D01*
X135831203Y-127876000D01*
X135831200Y-127876001D01*
X135664668Y-127931185D01*
X135664663Y-127931187D01*
X135515342Y-128023289D01*
X135391289Y-128147342D01*
X135299187Y-128296663D01*
X135299186Y-128296666D01*
X135244001Y-128463203D01*
X135244001Y-128463204D01*
X135244000Y-128463204D01*
X135233500Y-128565983D01*
X135233500Y-129366001D01*
X135233501Y-129366019D01*
X135244000Y-129468796D01*
X135244001Y-129468799D01*
X135299185Y-129635331D01*
X135299186Y-129635334D01*
X135390421Y-129783251D01*
X135391289Y-129784657D01*
X135484951Y-129878319D01*
X135518436Y-129939642D01*
X135513452Y-130009334D01*
X135484951Y-130053681D01*
X135391289Y-130147342D01*
X135299187Y-130296663D01*
X135299185Y-130296668D01*
X135280109Y-130354235D01*
X135244001Y-130463203D01*
X135244001Y-130463204D01*
X135244000Y-130463204D01*
X135233500Y-130565983D01*
X135233500Y-131366001D01*
X135233501Y-131366019D01*
X135244000Y-131468796D01*
X135244001Y-131468799D01*
X135288803Y-131604000D01*
X135299186Y-131635334D01*
X135391287Y-131784655D01*
X135391289Y-131784657D01*
X135429095Y-131822463D01*
X135462580Y-131883786D01*
X135457596Y-131953478D01*
X135429096Y-131997825D01*
X135227738Y-132199184D01*
X135100186Y-132326735D01*
X135100183Y-132326739D01*
X135077966Y-132362096D01*
X135073941Y-132367769D01*
X135047910Y-132400410D01*
X135029791Y-132438033D01*
X135026427Y-132444120D01*
X135004212Y-132479476D01*
X135004208Y-132479483D01*
X134990416Y-132518895D01*
X134987755Y-132525320D01*
X134969639Y-132562939D01*
X134960344Y-132603659D01*
X134958419Y-132610341D01*
X134944632Y-132649744D01*
X134939955Y-132691235D01*
X134938791Y-132698089D01*
X134929500Y-132738806D01*
X134929500Y-133041422D01*
X134909815Y-133108461D01*
X134857011Y-133154216D01*
X134815232Y-133165040D01*
X134797931Y-133166401D01*
X134797926Y-133166402D01*
X134640106Y-133212254D01*
X134640103Y-133212255D01*
X134498637Y-133295917D01*
X134498629Y-133295923D01*
X134382423Y-133412129D01*
X134382417Y-133412137D01*
X134298755Y-133553603D01*
X134298754Y-133553606D01*
X134252902Y-133711426D01*
X134252901Y-133711432D01*
X134250000Y-133748304D01*
X134250000Y-134179696D01*
X134252901Y-134216567D01*
X134252902Y-134216573D01*
X134298754Y-134374393D01*
X134298755Y-134374396D01*
X134298756Y-134374398D01*
X134317337Y-134405817D01*
X134382417Y-134515862D01*
X134382423Y-134515870D01*
X134498629Y-134632076D01*
X134498633Y-134632079D01*
X134498635Y-134632081D01*
X134640102Y-134715744D01*
X134658854Y-134721192D01*
X134797926Y-134761597D01*
X134797929Y-134761597D01*
X134797931Y-134761598D01*
X134810222Y-134762565D01*
X134834804Y-134764500D01*
X134834806Y-134764500D01*
X136666196Y-134764500D01*
X136684631Y-134763049D01*
X136703069Y-134761598D01*
X136703071Y-134761597D01*
X136703073Y-134761597D01*
X136770563Y-134741989D01*
X136860898Y-134715744D01*
X136919194Y-134681268D01*
X136982315Y-134664000D01*
X137913500Y-134664000D01*
X137913500Y-134114000D01*
X137375000Y-134114000D01*
X137307961Y-134094315D01*
X137262206Y-134041511D01*
X137251000Y-133990000D01*
X137251000Y-133938500D01*
X137270685Y-133871461D01*
X137323489Y-133825706D01*
X137375000Y-133814500D01*
X137913046Y-133814500D01*
X139202560Y-133814500D01*
X139269599Y-133834185D01*
X139290241Y-133850819D01*
X139395140Y-133955718D01*
X139428625Y-134017041D01*
X139423641Y-134086733D01*
X139381769Y-134142666D01*
X139316305Y-134167083D01*
X139272864Y-134162475D01*
X139115995Y-134116900D01*
X139115989Y-134116899D01*
X139079144Y-134114000D01*
X138413500Y-134114000D01*
X138413500Y-134664000D01*
X139660795Y-134664000D01*
X139660795Y-134663998D01*
X139660600Y-134661511D01*
X139660599Y-134661505D01*
X139615024Y-134504634D01*
X139615223Y-134434764D01*
X139653165Y-134376094D01*
X139716804Y-134347251D01*
X139785934Y-134357392D01*
X139821781Y-134382358D01*
X140139181Y-134699758D01*
X140172666Y-134761081D01*
X140175500Y-134787439D01*
X140175500Y-135292001D01*
X140175501Y-135292019D01*
X140186000Y-135394796D01*
X140186001Y-135394799D01*
X140241185Y-135561331D01*
X140241187Y-135561336D01*
X140255871Y-135585142D01*
X140333288Y-135710656D01*
X140457344Y-135834712D01*
X140606666Y-135926814D01*
X140773203Y-135981999D01*
X140875991Y-135992500D01*
X141676008Y-135992499D01*
X141676016Y-135992498D01*
X141676019Y-135992498D01*
X141732302Y-135986748D01*
X141778797Y-135981999D01*
X141945334Y-135926814D01*
X142094656Y-135834712D01*
X142188319Y-135741049D01*
X142249642Y-135707564D01*
X142319334Y-135712548D01*
X142363681Y-135741049D01*
X142457344Y-135834712D01*
X142606666Y-135926814D01*
X142773203Y-135981999D01*
X142875991Y-135992500D01*
X143676008Y-135992499D01*
X143676016Y-135992498D01*
X143676019Y-135992498D01*
X143732302Y-135986748D01*
X143778797Y-135981999D01*
X143945334Y-135926814D01*
X144094656Y-135834712D01*
X144218712Y-135710656D01*
X144310814Y-135561334D01*
X144365999Y-135394797D01*
X144376500Y-135292009D01*
X144376499Y-134793499D01*
X144396183Y-134726461D01*
X144448987Y-134680706D01*
X144500499Y-134669500D01*
X145824274Y-134669500D01*
X145891313Y-134689185D01*
X145937068Y-134741989D01*
X145947012Y-134811147D01*
X145943350Y-134828095D01*
X145926402Y-134886426D01*
X145926401Y-134886432D01*
X145923500Y-134923304D01*
X145923500Y-135354696D01*
X145926401Y-135391567D01*
X145926402Y-135391573D01*
X145972254Y-135549393D01*
X145972255Y-135549396D01*
X145972256Y-135549398D01*
X145979313Y-135561331D01*
X146055917Y-135690862D01*
X146055923Y-135690870D01*
X146172129Y-135807076D01*
X146172133Y-135807079D01*
X146172135Y-135807081D01*
X146313602Y-135890744D01*
X146355224Y-135902836D01*
X146471426Y-135936597D01*
X146471429Y-135936597D01*
X146471431Y-135936598D01*
X146483722Y-135937565D01*
X146508304Y-135939500D01*
X146508306Y-135939500D01*
X147354046Y-135939500D01*
X148624060Y-135939500D01*
X148691099Y-135959185D01*
X148711741Y-135975819D01*
X149771841Y-137035918D01*
X149771851Y-137035929D01*
X149774183Y-137038261D01*
X149774184Y-137038262D01*
X149901738Y-137165816D01*
X149909199Y-137170504D01*
X149909204Y-137170507D01*
X149955494Y-137222843D01*
X149966141Y-137291897D01*
X149937765Y-137355744D01*
X149879374Y-137394115D01*
X149843230Y-137399500D01*
X99855889Y-137399500D01*
X99788850Y-137379815D01*
X99743095Y-137327011D01*
X99733151Y-137257853D01*
X99762176Y-137194297D01*
X99762909Y-137193459D01*
X101553607Y-135164001D01*
X136666204Y-135164001D01*
X136666399Y-135166486D01*
X136712218Y-135324198D01*
X136795814Y-135465552D01*
X136795821Y-135465561D01*
X136911938Y-135581678D01*
X136911947Y-135581685D01*
X137053303Y-135665282D01*
X137053306Y-135665283D01*
X137211004Y-135711099D01*
X137211010Y-135711100D01*
X137247856Y-135714000D01*
X137913500Y-135714000D01*
X137913500Y-135164000D01*
X138413500Y-135164000D01*
X138413500Y-135714000D01*
X139079144Y-135714000D01*
X139115989Y-135711100D01*
X139115995Y-135711099D01*
X139273693Y-135665283D01*
X139273696Y-135665282D01*
X139415052Y-135581685D01*
X139415061Y-135581678D01*
X139531178Y-135465561D01*
X139531185Y-135465552D01*
X139614781Y-135324198D01*
X139660600Y-135166486D01*
X139660795Y-135164001D01*
X139660795Y-135164000D01*
X138413500Y-135164000D01*
X137913500Y-135164000D01*
X136666205Y-135164000D01*
X136666204Y-135164001D01*
X101553607Y-135164001D01*
X103136808Y-133369706D01*
X114183607Y-120850000D01*
X121530001Y-120850000D01*
X121530001Y-121099986D01*
X121540494Y-121202697D01*
X121595641Y-121369119D01*
X121595643Y-121369124D01*
X121687684Y-121518345D01*
X121811654Y-121642315D01*
X121960875Y-121734356D01*
X121960880Y-121734358D01*
X122127302Y-121789505D01*
X122127309Y-121789506D01*
X122230019Y-121799999D01*
X122379999Y-121799999D01*
X122380000Y-121799998D01*
X122380000Y-120850000D01*
X121530001Y-120850000D01*
X114183607Y-120850000D01*
X114624783Y-120350000D01*
X121530000Y-120350000D01*
X122380000Y-120350000D01*
X122380000Y-119400000D01*
X122230027Y-119400000D01*
X122230012Y-119400001D01*
X122127302Y-119410494D01*
X121960880Y-119465641D01*
X121960875Y-119465643D01*
X121811654Y-119557684D01*
X121687684Y-119681654D01*
X121595643Y-119830875D01*
X121595641Y-119830880D01*
X121540494Y-119997302D01*
X121540493Y-119997309D01*
X121530000Y-120100013D01*
X121530000Y-120350000D01*
X114624783Y-120350000D01*
X129578664Y-103402268D01*
X129580463Y-103400352D01*
X129580596Y-103399998D01*
X129580594Y-103399908D01*
X129580441Y-103399568D01*
X129580427Y-103399556D01*
X129580059Y-103399417D01*
X129577396Y-103399500D01*
X109863018Y-103399500D01*
X109795979Y-103379815D01*
X109750224Y-103327011D01*
X109740280Y-103257853D01*
X109769305Y-103194297D01*
X109771611Y-103191710D01*
X122001511Y-89850000D01*
X129530001Y-89850000D01*
X129530001Y-90099986D01*
X129540494Y-90202697D01*
X129595641Y-90369119D01*
X129595643Y-90369124D01*
X129687684Y-90518345D01*
X129811654Y-90642315D01*
X129960875Y-90734356D01*
X129960880Y-90734358D01*
X130127302Y-90789505D01*
X130127309Y-90789506D01*
X130230019Y-90799999D01*
X130379999Y-90799999D01*
X130380000Y-90799998D01*
X130380000Y-89850000D01*
X129530001Y-89850000D01*
X122001511Y-89850000D01*
X122459844Y-89350000D01*
X129530000Y-89350000D01*
X130380000Y-89350000D01*
X130380000Y-88400000D01*
X130230027Y-88400000D01*
X130230012Y-88400001D01*
X130127302Y-88410494D01*
X129960880Y-88465641D01*
X129960875Y-88465643D01*
X129811654Y-88557684D01*
X129687684Y-88681654D01*
X129595643Y-88830875D01*
X129595641Y-88830880D01*
X129540494Y-88997302D01*
X129540493Y-88997309D01*
X129530000Y-89100013D01*
X129530000Y-89350000D01*
X122459844Y-89350000D01*
X137077913Y-73403014D01*
X137080300Y-73400706D01*
X137080543Y-73400080D01*
X137080539Y-73399900D01*
X137080538Y-73399889D01*
X137080444Y-73399675D01*
X137080418Y-73399651D01*
X137080372Y-73399604D01*
X137080194Y-73399539D01*
X137079973Y-73399448D01*
X137077670Y-73399500D01*
X124818443Y-73399500D01*
X124751404Y-73379815D01*
X124705649Y-73327011D01*
X124695705Y-73257853D01*
X124716693Y-73204628D01*
X137645933Y-54642315D01*
X138197805Y-53850000D01*
X141530001Y-53850000D01*
X141530001Y-54099986D01*
X141540494Y-54202697D01*
X141595641Y-54369119D01*
X141595643Y-54369124D01*
X141687684Y-54518345D01*
X141811654Y-54642315D01*
X141960875Y-54734356D01*
X141960880Y-54734358D01*
X142127302Y-54789505D01*
X142127309Y-54789506D01*
X142230019Y-54799999D01*
X142379999Y-54799999D01*
X142380000Y-54799998D01*
X142380000Y-53850000D01*
X141530001Y-53850000D01*
X138197805Y-53850000D01*
X138546071Y-53350000D01*
X141530000Y-53350000D01*
X142380000Y-53350000D01*
X142380000Y-52400000D01*
X142230027Y-52400000D01*
X142230012Y-52400001D01*
X142127302Y-52410494D01*
X141960880Y-52465641D01*
X141960875Y-52465643D01*
X141811654Y-52557684D01*
X141687684Y-52681654D01*
X141595643Y-52830875D01*
X141595641Y-52830880D01*
X141540494Y-52997302D01*
X141540493Y-52997309D01*
X141530000Y-53100013D01*
X141530000Y-53350000D01*
X138546071Y-53350000D01*
X148453751Y-39125695D01*
X148508219Y-39081937D01*
X148577699Y-39074572D01*
X148640131Y-39105941D01*
G37*
G04 #@! TD.AperFunction*
G04 #@! TA.AperFunction,Conductor*
G36*
X150685703Y-39102857D02*
G01*
X150706247Y-39125695D01*
X161623898Y-54799998D01*
X174443308Y-73204628D01*
X174465472Y-73270889D01*
X174448294Y-73338614D01*
X174397228Y-73386301D01*
X174341558Y-73399500D01*
X162080952Y-73399500D01*
X162080006Y-73399458D01*
X162079902Y-73399500D01*
X162079901Y-73399500D01*
X162079821Y-73399532D01*
X162079634Y-73399601D01*
X162079633Y-73399601D01*
X162079621Y-73399606D01*
X162079545Y-73399791D01*
X162079453Y-73399987D01*
X162079538Y-73400193D01*
X162079603Y-73400370D01*
X162080298Y-73401065D01*
X177376656Y-90088000D01*
X189284026Y-103077859D01*
X189388390Y-103191710D01*
X189419180Y-103254430D01*
X189411173Y-103323839D01*
X189366911Y-103377901D01*
X189300448Y-103399452D01*
X189296983Y-103399500D01*
X169582648Y-103399500D01*
X169580022Y-103399416D01*
X169579585Y-103399580D01*
X169579407Y-103399973D01*
X169579567Y-103400392D01*
X169581370Y-103402309D01*
X199397090Y-137193459D01*
X199426684Y-137256751D01*
X199417362Y-137325996D01*
X199372084Y-137379209D01*
X199305224Y-137399495D01*
X199304110Y-137399500D01*
X169230769Y-137399500D01*
X169163730Y-137379815D01*
X169117975Y-137327011D01*
X169108031Y-137257853D01*
X169137056Y-137194297D01*
X169164801Y-137170504D01*
X169165955Y-137169778D01*
X169172262Y-137165816D01*
X169299816Y-137038262D01*
X169752827Y-136585251D01*
X169784816Y-136553262D01*
X169807036Y-136517896D01*
X169811054Y-136512234D01*
X169837092Y-136479586D01*
X169855211Y-136441961D01*
X169858570Y-136435881D01*
X169880789Y-136400522D01*
X169894581Y-136361107D01*
X169897244Y-136354679D01*
X169915360Y-136317061D01*
X169924658Y-136276321D01*
X169926571Y-136269680D01*
X169940368Y-136230255D01*
X169945043Y-136188760D01*
X169946208Y-136181905D01*
X169947726Y-136175249D01*
X169955500Y-136141194D01*
X169955500Y-136072351D01*
X169975185Y-136005312D01*
X170027989Y-135959557D01*
X170066247Y-135949061D01*
X170112483Y-135944091D01*
X170247331Y-135893796D01*
X170362546Y-135807546D01*
X170448796Y-135692331D01*
X170499091Y-135557483D01*
X170505500Y-135497873D01*
X170505499Y-134026000D01*
X185134001Y-134026000D01*
X185134001Y-134275986D01*
X185144494Y-134378697D01*
X185199641Y-134545119D01*
X185199643Y-134545124D01*
X185291684Y-134694345D01*
X185415654Y-134818315D01*
X185564875Y-134910356D01*
X185564880Y-134910358D01*
X185731302Y-134965505D01*
X185731309Y-134965506D01*
X185834019Y-134975999D01*
X185983999Y-134975999D01*
X185984000Y-134975998D01*
X185984000Y-134026000D01*
X185134001Y-134026000D01*
X170505499Y-134026000D01*
X170505499Y-133702128D01*
X170499091Y-133642517D01*
X170498002Y-133639598D01*
X170455633Y-133526000D01*
X185134000Y-133526000D01*
X185984000Y-133526000D01*
X185984000Y-132576000D01*
X185834027Y-132576000D01*
X185834012Y-132576001D01*
X185731302Y-132586494D01*
X185564880Y-132641641D01*
X185564875Y-132641643D01*
X185415654Y-132733684D01*
X185291684Y-132857654D01*
X185199643Y-133006875D01*
X185199641Y-133006880D01*
X185144494Y-133173302D01*
X185144493Y-133173309D01*
X185134000Y-133276013D01*
X185134000Y-133526000D01*
X170455633Y-133526000D01*
X170448797Y-133507671D01*
X170448793Y-133507664D01*
X170362547Y-133392455D01*
X170362544Y-133392452D01*
X170247335Y-133306206D01*
X170247328Y-133306202D01*
X170112482Y-133255908D01*
X170112483Y-133255908D01*
X170052883Y-133249501D01*
X170052881Y-133249500D01*
X170052873Y-133249500D01*
X170052864Y-133249500D01*
X168257129Y-133249500D01*
X168257123Y-133249501D01*
X168197516Y-133255908D01*
X168062671Y-133306202D01*
X168062664Y-133306206D01*
X167947455Y-133392452D01*
X167947452Y-133392455D01*
X167861206Y-133507664D01*
X167861202Y-133507671D01*
X167811997Y-133639598D01*
X167770126Y-133695532D01*
X167704661Y-133719949D01*
X167636388Y-133705097D01*
X167608134Y-133683946D01*
X167486082Y-133561894D01*
X167292578Y-133426399D01*
X167078492Y-133326570D01*
X167078486Y-133326567D01*
X166865000Y-133269364D01*
X166865000Y-134164498D01*
X166757315Y-134115320D01*
X166650763Y-134100000D01*
X166579237Y-134100000D01*
X166472685Y-134115320D01*
X166365000Y-134164498D01*
X166365000Y-133269364D01*
X166364999Y-133269364D01*
X166151513Y-133326567D01*
X166151507Y-133326570D01*
X165937422Y-133426399D01*
X165937420Y-133426400D01*
X165743926Y-133561886D01*
X165743920Y-133561891D01*
X165576891Y-133728920D01*
X165576890Y-133728922D01*
X165446880Y-133914595D01*
X165392303Y-133958219D01*
X165322804Y-133965412D01*
X165260450Y-133933890D01*
X165243730Y-133914594D01*
X165113494Y-133728597D01*
X164946402Y-133561506D01*
X164946395Y-133561501D01*
X164752834Y-133425967D01*
X164752830Y-133425965D01*
X164723176Y-133412137D01*
X164538663Y-133326097D01*
X164538659Y-133326096D01*
X164538655Y-133326094D01*
X164310413Y-133264938D01*
X164310403Y-133264936D01*
X164075001Y-133244341D01*
X164074999Y-133244341D01*
X164016034Y-133249500D01*
X163839592Y-133264937D01*
X163839590Y-133264937D01*
X163834200Y-133265409D01*
X163834081Y-133264051D01*
X163771087Y-133257009D01*
X163731343Y-133230331D01*
X162664770Y-132163758D01*
X162652988Y-132150124D01*
X162639308Y-132131749D01*
X162639305Y-132131745D01*
X162639302Y-132131743D01*
X162639302Y-132131742D01*
X162600665Y-132099321D01*
X162596679Y-132095668D01*
X162591128Y-132090116D01*
X162591123Y-132090112D01*
X162566277Y-132070467D01*
X162509383Y-132022727D01*
X162509380Y-132022725D01*
X162503348Y-132018758D01*
X162503401Y-132018676D01*
X162497656Y-132015017D01*
X162497605Y-132015100D01*
X162491458Y-132011308D01*
X162424183Y-131979938D01*
X162357821Y-131946610D01*
X162351035Y-131944140D01*
X162351067Y-131944050D01*
X162344641Y-131941816D01*
X162344611Y-131941908D01*
X162337755Y-131939636D01*
X162265050Y-131924623D01*
X162192792Y-131907498D01*
X162185624Y-131906661D01*
X162185635Y-131906564D01*
X162178867Y-131905872D01*
X162178859Y-131905969D01*
X162171668Y-131905339D01*
X162097432Y-131907500D01*
X157570500Y-131907500D01*
X157503461Y-131887815D01*
X157457706Y-131835011D01*
X157446500Y-131783500D01*
X157446499Y-131232998D01*
X157446498Y-131232980D01*
X157435999Y-131130203D01*
X157435998Y-131130200D01*
X157418181Y-131076432D01*
X157380814Y-130963666D01*
X157288712Y-130814344D01*
X157164656Y-130690288D01*
X157030402Y-130607480D01*
X156983679Y-130555533D01*
X156971500Y-130501942D01*
X156971500Y-129936873D01*
X156991185Y-129869834D01*
X157007815Y-129849196D01*
X157431246Y-129425764D01*
X157444872Y-129413988D01*
X157463258Y-129400302D01*
X157495673Y-129361669D01*
X157499315Y-129357696D01*
X157504886Y-129352126D01*
X157524545Y-129327262D01*
X157572273Y-129270383D01*
X157572277Y-129270374D01*
X157576248Y-129264340D01*
X157576330Y-129264394D01*
X157579977Y-129258670D01*
X157579893Y-129258618D01*
X157583687Y-129252465D01*
X157583689Y-129252463D01*
X157615067Y-129185171D01*
X157648388Y-129118825D01*
X157648390Y-129118812D01*
X157650857Y-129112039D01*
X157650950Y-129112072D01*
X157653186Y-129105640D01*
X157653093Y-129105610D01*
X157655362Y-129098760D01*
X157655361Y-129098760D01*
X157655364Y-129098756D01*
X157670380Y-129026030D01*
X157687500Y-128953799D01*
X157687500Y-128953797D01*
X157687501Y-128953793D01*
X157688339Y-128946626D01*
X157688435Y-128946637D01*
X157689127Y-128939867D01*
X157689031Y-128939859D01*
X157689660Y-128932668D01*
X157687500Y-128858432D01*
X157687500Y-126756942D01*
X157687499Y-126756920D01*
X157687499Y-126227001D01*
X158350390Y-126227001D01*
X158370804Y-126512433D01*
X158431628Y-126792037D01*
X158431630Y-126792043D01*
X158431631Y-126792046D01*
X158521565Y-127033167D01*
X158531635Y-127060166D01*
X158668770Y-127311309D01*
X158668775Y-127311317D01*
X158840254Y-127540387D01*
X158840270Y-127540405D01*
X159042594Y-127742729D01*
X159042612Y-127742745D01*
X159271682Y-127914224D01*
X159271690Y-127914229D01*
X159522833Y-128051364D01*
X159522832Y-128051364D01*
X159522836Y-128051365D01*
X159522839Y-128051367D01*
X159790954Y-128151369D01*
X159790960Y-128151370D01*
X159790962Y-128151371D01*
X160070566Y-128212195D01*
X160070568Y-128212195D01*
X160070572Y-128212196D01*
X160324220Y-128230337D01*
X160355999Y-128232610D01*
X160356000Y-128232610D01*
X160356001Y-128232610D01*
X160384595Y-128230564D01*
X160641428Y-128212196D01*
X160786361Y-128180668D01*
X160921037Y-128151371D01*
X160921037Y-128151370D01*
X160921046Y-128151369D01*
X161189161Y-128051367D01*
X161440315Y-127914226D01*
X161669395Y-127742739D01*
X161871739Y-127540395D01*
X162043226Y-127311315D01*
X162180367Y-127060161D01*
X162280369Y-126792046D01*
X162280371Y-126792037D01*
X162341195Y-126512433D01*
X162341195Y-126512432D01*
X162341196Y-126512428D01*
X162361610Y-126227000D01*
X162341196Y-125941572D01*
X162328776Y-125884480D01*
X162280371Y-125661962D01*
X162280370Y-125661960D01*
X162280369Y-125661954D01*
X162180367Y-125393839D01*
X162179908Y-125392999D01*
X162043229Y-125142690D01*
X162043224Y-125142682D01*
X161871745Y-124913612D01*
X161871729Y-124913594D01*
X161669405Y-124711270D01*
X161669387Y-124711254D01*
X161440317Y-124539775D01*
X161440309Y-124539770D01*
X161189166Y-124402635D01*
X161189167Y-124402635D01*
X161081915Y-124362632D01*
X160921046Y-124302631D01*
X160921043Y-124302630D01*
X160921037Y-124302628D01*
X160641433Y-124241804D01*
X160356001Y-124221390D01*
X160355999Y-124221390D01*
X160070566Y-124241804D01*
X159790962Y-124302628D01*
X159522833Y-124402635D01*
X159271690Y-124539770D01*
X159271682Y-124539775D01*
X159042612Y-124711254D01*
X159042594Y-124711270D01*
X158840270Y-124913594D01*
X158840254Y-124913612D01*
X158668775Y-125142682D01*
X158668770Y-125142690D01*
X158531635Y-125393833D01*
X158431628Y-125661962D01*
X158370804Y-125941566D01*
X158350390Y-126226998D01*
X158350390Y-126227001D01*
X157687499Y-126227001D01*
X157687499Y-126004629D01*
X157687498Y-126004623D01*
X157681091Y-125945016D01*
X157630797Y-125810171D01*
X157630793Y-125810164D01*
X157544547Y-125694955D01*
X157544544Y-125694952D01*
X157429335Y-125608706D01*
X157429328Y-125608702D01*
X157294486Y-125558410D01*
X157294485Y-125558409D01*
X157294483Y-125558409D01*
X157234873Y-125552000D01*
X157234864Y-125552000D01*
X156863743Y-125552000D01*
X156796704Y-125532315D01*
X156750949Y-125479511D01*
X156741005Y-125410353D01*
X156770030Y-125346797D01*
X156789424Y-125328740D01*
X156894546Y-125250046D01*
X156980796Y-125134831D01*
X157031091Y-124999983D01*
X157037500Y-124940373D01*
X157037499Y-123344628D01*
X157031091Y-123285017D01*
X157021713Y-123259874D01*
X156980797Y-123150171D01*
X156980795Y-123150168D01*
X156962233Y-123125372D01*
X156937816Y-123059908D01*
X156937500Y-123051061D01*
X156937500Y-120780242D01*
X156939224Y-120764622D01*
X156938939Y-120764596D01*
X156939671Y-120756840D01*
X156939673Y-120756833D01*
X156937500Y-120687685D01*
X156937500Y-120658150D01*
X156936631Y-120651272D01*
X156936172Y-120645443D01*
X156934709Y-120598872D01*
X156929122Y-120579644D01*
X156925174Y-120560584D01*
X156922664Y-120540708D01*
X156922663Y-120540706D01*
X156922663Y-120540704D01*
X156905512Y-120497387D01*
X156903619Y-120491858D01*
X156890618Y-120447109D01*
X156890616Y-120447106D01*
X156880423Y-120429871D01*
X156871861Y-120412394D01*
X156864487Y-120393770D01*
X156861466Y-120389612D01*
X156837079Y-120356045D01*
X156833888Y-120351186D01*
X156833311Y-120350211D01*
X156810170Y-120311080D01*
X156810168Y-120311078D01*
X156810165Y-120311074D01*
X156796006Y-120296915D01*
X156783368Y-120282119D01*
X156777240Y-120273684D01*
X156771594Y-120265913D01*
X156735688Y-120236209D01*
X156731376Y-120232286D01*
X156018819Y-119519728D01*
X155985334Y-119458405D01*
X155982500Y-119432047D01*
X155982500Y-118440452D01*
X156002185Y-118373413D01*
X156054989Y-118327658D01*
X156124147Y-118317714D01*
X156187703Y-118346739D01*
X156194180Y-118352770D01*
X162891817Y-125050408D01*
X169588197Y-131746788D01*
X169598022Y-131759051D01*
X169598243Y-131758869D01*
X169603214Y-131764878D01*
X169623045Y-131783500D01*
X169653635Y-131812226D01*
X169674529Y-131833120D01*
X169680011Y-131837373D01*
X169684443Y-131841157D01*
X169718418Y-131873062D01*
X169735976Y-131882714D01*
X169752235Y-131893395D01*
X169768064Y-131905673D01*
X169810838Y-131924182D01*
X169816056Y-131926738D01*
X169856908Y-131949197D01*
X169876316Y-131954180D01*
X169894717Y-131960480D01*
X169913104Y-131968437D01*
X169956488Y-131975308D01*
X169959119Y-131975725D01*
X169964839Y-131976909D01*
X170009981Y-131988500D01*
X170030016Y-131988500D01*
X170049414Y-131990026D01*
X170069194Y-131993159D01*
X170069195Y-131993160D01*
X170069195Y-131993159D01*
X170069196Y-131993160D01*
X170115584Y-131988775D01*
X170121422Y-131988500D01*
X190860548Y-131988500D01*
X190927587Y-132008185D01*
X190948229Y-132024819D01*
X191505339Y-132581930D01*
X191538824Y-132643253D01*
X191533840Y-132712945D01*
X191505340Y-132757292D01*
X191405285Y-132857347D01*
X191403537Y-132860182D01*
X191401829Y-132861717D01*
X191400807Y-132863011D01*
X191400585Y-132862836D01*
X191351589Y-132906905D01*
X191282626Y-132918126D01*
X191218544Y-132890282D01*
X191192463Y-132860182D01*
X191190714Y-132857346D01*
X191066657Y-132733289D01*
X191066656Y-132733288D01*
X190959234Y-132667030D01*
X190917336Y-132641187D01*
X190917331Y-132641185D01*
X190898500Y-132634945D01*
X190750797Y-132586001D01*
X190750795Y-132586000D01*
X190648010Y-132575500D01*
X189897998Y-132575500D01*
X189897980Y-132575501D01*
X189795203Y-132586000D01*
X189795200Y-132586001D01*
X189628668Y-132641185D01*
X189628663Y-132641187D01*
X189479342Y-132733289D01*
X189353681Y-132858951D01*
X189292358Y-132892436D01*
X189222666Y-132887452D01*
X189178319Y-132858951D01*
X189052657Y-132733289D01*
X189052656Y-132733288D01*
X188945234Y-132667030D01*
X188903336Y-132641187D01*
X188903331Y-132641185D01*
X188884500Y-132634945D01*
X188736797Y-132586001D01*
X188736795Y-132586000D01*
X188634010Y-132575500D01*
X187833998Y-132575500D01*
X187833980Y-132575501D01*
X187731203Y-132586000D01*
X187731200Y-132586001D01*
X187564668Y-132641185D01*
X187564663Y-132641187D01*
X187415345Y-132733287D01*
X187321327Y-132827305D01*
X187260003Y-132860789D01*
X187190312Y-132855805D01*
X187145965Y-132827304D01*
X187052345Y-132733684D01*
X186903124Y-132641643D01*
X186903119Y-132641641D01*
X186736697Y-132586494D01*
X186736690Y-132586493D01*
X186633986Y-132576000D01*
X186484000Y-132576000D01*
X186484000Y-134975999D01*
X186633972Y-134975999D01*
X186633986Y-134975998D01*
X186736697Y-134965505D01*
X186903119Y-134910358D01*
X186903124Y-134910356D01*
X187052342Y-134818317D01*
X187145964Y-134724695D01*
X187207287Y-134691210D01*
X187276979Y-134696194D01*
X187321327Y-134724695D01*
X187415344Y-134818712D01*
X187564666Y-134910814D01*
X187731203Y-134965999D01*
X187833991Y-134976500D01*
X188634008Y-134976499D01*
X188634016Y-134976498D01*
X188634019Y-134976498D01*
X188690302Y-134970748D01*
X188736797Y-134965999D01*
X188903334Y-134910814D01*
X189052656Y-134818712D01*
X189176712Y-134694656D01*
X189176712Y-134694655D01*
X189178319Y-134693049D01*
X189239642Y-134659564D01*
X189309334Y-134664548D01*
X189353681Y-134693049D01*
X189355288Y-134694656D01*
X189479344Y-134818712D01*
X189628666Y-134910814D01*
X189795203Y-134965999D01*
X189897991Y-134976500D01*
X190648008Y-134976499D01*
X190648016Y-134976498D01*
X190648019Y-134976498D01*
X190704302Y-134970748D01*
X190750797Y-134965999D01*
X190917334Y-134910814D01*
X191066656Y-134818712D01*
X191190712Y-134694656D01*
X191192461Y-134691819D01*
X191194169Y-134690283D01*
X191195193Y-134688989D01*
X191195414Y-134689163D01*
X191244406Y-134645096D01*
X191313368Y-134633872D01*
X191377451Y-134661713D01*
X191403537Y-134691817D01*
X191405288Y-134694656D01*
X191529344Y-134818712D01*
X191678666Y-134910814D01*
X191845203Y-134965999D01*
X191947991Y-134976500D01*
X192698008Y-134976499D01*
X192698016Y-134976498D01*
X192698019Y-134976498D01*
X192754302Y-134970748D01*
X192800797Y-134965999D01*
X192967334Y-134910814D01*
X193116656Y-134818712D01*
X193240712Y-134694656D01*
X193332814Y-134545334D01*
X193387999Y-134378797D01*
X193398500Y-134276009D01*
X193398499Y-133275992D01*
X193396908Y-133260421D01*
X193387999Y-133173203D01*
X193387998Y-133173200D01*
X193380596Y-133150862D01*
X193332814Y-133006666D01*
X193240712Y-132857344D01*
X193116656Y-132733288D01*
X193116655Y-132733287D01*
X193009234Y-132667030D01*
X192962509Y-132615082D01*
X192950391Y-132565387D01*
X192948500Y-132505185D01*
X192948500Y-132475650D01*
X192947631Y-132468772D01*
X192947172Y-132462943D01*
X192945709Y-132416372D01*
X192940122Y-132397144D01*
X192936174Y-132378084D01*
X192933663Y-132358204D01*
X192916512Y-132314887D01*
X192914619Y-132309358D01*
X192901618Y-132264609D01*
X192901616Y-132264606D01*
X192891423Y-132247371D01*
X192882861Y-132229894D01*
X192875487Y-132211270D01*
X192875486Y-132211268D01*
X192848079Y-132173545D01*
X192844888Y-132168686D01*
X192840595Y-132161427D01*
X192821170Y-132128580D01*
X192821168Y-132128578D01*
X192821165Y-132128574D01*
X192807006Y-132114415D01*
X192794368Y-132099619D01*
X192794157Y-132099328D01*
X192782594Y-132083413D01*
X192746688Y-132053709D01*
X192742376Y-132049786D01*
X191671803Y-130979212D01*
X191661980Y-130966950D01*
X191661759Y-130967134D01*
X191656786Y-130961123D01*
X191646729Y-130951679D01*
X191606364Y-130913773D01*
X191595919Y-130903328D01*
X191585475Y-130892883D01*
X191579986Y-130888625D01*
X191575561Y-130884847D01*
X191543853Y-130855070D01*
X191541580Y-130852936D01*
X191541577Y-130852935D01*
X191524029Y-130843288D01*
X191507763Y-130832604D01*
X191491933Y-130820325D01*
X191449168Y-130801818D01*
X191443922Y-130799248D01*
X191403093Y-130776803D01*
X191403092Y-130776802D01*
X191383693Y-130771822D01*
X191365281Y-130765518D01*
X191346898Y-130757562D01*
X191346892Y-130757560D01*
X191300874Y-130750272D01*
X191295152Y-130749087D01*
X191250021Y-130737500D01*
X191250019Y-130737500D01*
X191229984Y-130737500D01*
X191210586Y-130735973D01*
X191203162Y-130734797D01*
X191190805Y-130732840D01*
X191190804Y-130732840D01*
X191144416Y-130737225D01*
X191138578Y-130737500D01*
X170399453Y-130737500D01*
X170332414Y-130717815D01*
X170311772Y-130701181D01*
X157034819Y-117424228D01*
X157001334Y-117362905D01*
X156998500Y-117336547D01*
X156998500Y-114273687D01*
X157018185Y-114206648D01*
X157030350Y-114190715D01*
X157048891Y-114170122D01*
X157105533Y-114107216D01*
X157200179Y-113943284D01*
X157258674Y-113763256D01*
X157278460Y-113575000D01*
X157258674Y-113386744D01*
X157200179Y-113206716D01*
X157105533Y-113042784D01*
X156978871Y-112902112D01*
X156978870Y-112902111D01*
X156825734Y-112790851D01*
X156825729Y-112790848D01*
X156652807Y-112713857D01*
X156652802Y-112713855D01*
X156507001Y-112682865D01*
X156467646Y-112674500D01*
X156278354Y-112674500D01*
X156278352Y-112674500D01*
X156132280Y-112705548D01*
X156062613Y-112700232D01*
X156006880Y-112658094D01*
X155982775Y-112592514D01*
X155982500Y-112584258D01*
X155982500Y-101574663D01*
X156002185Y-101507624D01*
X156014351Y-101491690D01*
X156026033Y-101478716D01*
X156120679Y-101314784D01*
X156179174Y-101134756D01*
X156196821Y-100966844D01*
X156223404Y-100902234D01*
X156232451Y-100892138D01*
X157134589Y-99990000D01*
X175228001Y-99990000D01*
X175228001Y-100239986D01*
X175238494Y-100342697D01*
X175293641Y-100509119D01*
X175293643Y-100509124D01*
X175385684Y-100658345D01*
X175509654Y-100782315D01*
X175658875Y-100874356D01*
X175658880Y-100874358D01*
X175825302Y-100929505D01*
X175825309Y-100929506D01*
X175928019Y-100939999D01*
X176077999Y-100939999D01*
X176078000Y-100939998D01*
X176078000Y-99990000D01*
X175228001Y-99990000D01*
X157134589Y-99990000D01*
X157634589Y-99490000D01*
X175228000Y-99490000D01*
X176078000Y-99490000D01*
X176078000Y-98540000D01*
X175928027Y-98540000D01*
X175928012Y-98540001D01*
X175825302Y-98550494D01*
X175658880Y-98605641D01*
X175658875Y-98605643D01*
X175509654Y-98697684D01*
X175385684Y-98821654D01*
X175293643Y-98970875D01*
X175293641Y-98970880D01*
X175238494Y-99137302D01*
X175238493Y-99137309D01*
X175228000Y-99240013D01*
X175228000Y-99490000D01*
X157634589Y-99490000D01*
X158153788Y-98970801D01*
X158166042Y-98960986D01*
X158165859Y-98960764D01*
X158171866Y-98955792D01*
X158171877Y-98955786D01*
X158202775Y-98922882D01*
X158219227Y-98905364D01*
X158229671Y-98894918D01*
X158240120Y-98884471D01*
X158244379Y-98878978D01*
X158248152Y-98874561D01*
X158280062Y-98840582D01*
X158289715Y-98823020D01*
X158300389Y-98806770D01*
X158312673Y-98790936D01*
X158331180Y-98748167D01*
X158333749Y-98742924D01*
X158356196Y-98702093D01*
X158356197Y-98702092D01*
X158361177Y-98682691D01*
X158367478Y-98664288D01*
X158375438Y-98645896D01*
X158382730Y-98599849D01*
X158383911Y-98594152D01*
X158395500Y-98549019D01*
X158395500Y-98528983D01*
X158397027Y-98509582D01*
X158400160Y-98489804D01*
X158395775Y-98443415D01*
X158395500Y-98437577D01*
X158395500Y-93625500D01*
X158415185Y-93558461D01*
X158467989Y-93512706D01*
X158519500Y-93501500D01*
X162262981Y-93501500D01*
X176859148Y-93501500D01*
X176926187Y-93521185D01*
X176946829Y-93537819D01*
X181755181Y-98346171D01*
X181788666Y-98407494D01*
X181791500Y-98433852D01*
X181791500Y-98524362D01*
X181771815Y-98591401D01*
X181732598Y-98629899D01*
X181676859Y-98664280D01*
X181623342Y-98697289D01*
X181499285Y-98821346D01*
X181497537Y-98824182D01*
X181495829Y-98825717D01*
X181494807Y-98827011D01*
X181494585Y-98826836D01*
X181445589Y-98870905D01*
X181376626Y-98882126D01*
X181312544Y-98854282D01*
X181286463Y-98824182D01*
X181284714Y-98821346D01*
X181160657Y-98697289D01*
X181160656Y-98697288D01*
X181011334Y-98605186D01*
X180844797Y-98550001D01*
X180844795Y-98550000D01*
X180742010Y-98539500D01*
X179991998Y-98539500D01*
X179991980Y-98539501D01*
X179889203Y-98550000D01*
X179889200Y-98550001D01*
X179722668Y-98605185D01*
X179722663Y-98605187D01*
X179573342Y-98697289D01*
X179447681Y-98822951D01*
X179386358Y-98856436D01*
X179316666Y-98851452D01*
X179272319Y-98822951D01*
X179146657Y-98697289D01*
X179146656Y-98697288D01*
X178997334Y-98605186D01*
X178830797Y-98550001D01*
X178830795Y-98550000D01*
X178728010Y-98539500D01*
X177927998Y-98539500D01*
X177927980Y-98539501D01*
X177825203Y-98550000D01*
X177825200Y-98550001D01*
X177658668Y-98605185D01*
X177658663Y-98605187D01*
X177509345Y-98697287D01*
X177415327Y-98791305D01*
X177354003Y-98824789D01*
X177284312Y-98819805D01*
X177239965Y-98791304D01*
X177146345Y-98697684D01*
X176997124Y-98605643D01*
X176997119Y-98605641D01*
X176830697Y-98550494D01*
X176830690Y-98550493D01*
X176727986Y-98540000D01*
X176578000Y-98540000D01*
X176578000Y-100939999D01*
X176727972Y-100939999D01*
X176727986Y-100939998D01*
X176830697Y-100929505D01*
X176997119Y-100874358D01*
X176997124Y-100874356D01*
X177146342Y-100782317D01*
X177239964Y-100688695D01*
X177301287Y-100655210D01*
X177370979Y-100660194D01*
X177415327Y-100688695D01*
X177509344Y-100782712D01*
X177658666Y-100874814D01*
X177825203Y-100929999D01*
X177927991Y-100940500D01*
X178728008Y-100940499D01*
X178728016Y-100940498D01*
X178728019Y-100940498D01*
X178784302Y-100934748D01*
X178830797Y-100929999D01*
X178997334Y-100874814D01*
X179146656Y-100782712D01*
X179270712Y-100658656D01*
X179270712Y-100658655D01*
X179272319Y-100657049D01*
X179333642Y-100623564D01*
X179403334Y-100628548D01*
X179447681Y-100657049D01*
X179449288Y-100658656D01*
X179573344Y-100782712D01*
X179722666Y-100874814D01*
X179889203Y-100929999D01*
X179991991Y-100940500D01*
X180742008Y-100940499D01*
X180742016Y-100940498D01*
X180742019Y-100940498D01*
X180798302Y-100934748D01*
X180844797Y-100929999D01*
X181011334Y-100874814D01*
X181160656Y-100782712D01*
X181284712Y-100658656D01*
X181286461Y-100655819D01*
X181288169Y-100654283D01*
X181289193Y-100652989D01*
X181289414Y-100653163D01*
X181338406Y-100609096D01*
X181407368Y-100597872D01*
X181471451Y-100625713D01*
X181497537Y-100655817D01*
X181499288Y-100658656D01*
X181623344Y-100782712D01*
X181772666Y-100874814D01*
X181939203Y-100929999D01*
X182041991Y-100940500D01*
X182792008Y-100940499D01*
X182792016Y-100940498D01*
X182792019Y-100940498D01*
X182848302Y-100934748D01*
X182894797Y-100929999D01*
X183061334Y-100874814D01*
X183210656Y-100782712D01*
X183334712Y-100658656D01*
X183426814Y-100509334D01*
X183481999Y-100342797D01*
X183492500Y-100240009D01*
X183492499Y-99239992D01*
X183481999Y-99137203D01*
X183426814Y-98970666D01*
X183334712Y-98821344D01*
X183210656Y-98697288D01*
X183101402Y-98629900D01*
X183054679Y-98577953D01*
X183042500Y-98524362D01*
X183042500Y-98206137D01*
X183044224Y-98190523D01*
X183043938Y-98190496D01*
X183044672Y-98182733D01*
X183042500Y-98113603D01*
X183042500Y-98084051D01*
X183042500Y-98084050D01*
X183041629Y-98077159D01*
X183041172Y-98071345D01*
X183039709Y-98024772D01*
X183034122Y-98005544D01*
X183030174Y-97986484D01*
X183027664Y-97966608D01*
X183010507Y-97923275D01*
X183008619Y-97917759D01*
X182995619Y-97873012D01*
X182985418Y-97855763D01*
X182976860Y-97838294D01*
X182969486Y-97819668D01*
X182969483Y-97819664D01*
X182969483Y-97819663D01*
X182942098Y-97781971D01*
X182938890Y-97777087D01*
X182915172Y-97736982D01*
X182915163Y-97736971D01*
X182901005Y-97722813D01*
X182888370Y-97708020D01*
X182876593Y-97691812D01*
X182840693Y-97662113D01*
X182836381Y-97658190D01*
X177670403Y-92492212D01*
X177660580Y-92479950D01*
X177660359Y-92480134D01*
X177655386Y-92474123D01*
X177604964Y-92426773D01*
X177594519Y-92416328D01*
X177584075Y-92405883D01*
X177578586Y-92401625D01*
X177574161Y-92397847D01*
X177540182Y-92365938D01*
X177540180Y-92365936D01*
X177540177Y-92365935D01*
X177522629Y-92356288D01*
X177506363Y-92345604D01*
X177490533Y-92333325D01*
X177447768Y-92314818D01*
X177442522Y-92312248D01*
X177401693Y-92289803D01*
X177401692Y-92289802D01*
X177382293Y-92284822D01*
X177363881Y-92278518D01*
X177345498Y-92270562D01*
X177345492Y-92270560D01*
X177299474Y-92263272D01*
X177293752Y-92262087D01*
X177248621Y-92250500D01*
X177248619Y-92250500D01*
X177228584Y-92250500D01*
X177209186Y-92248973D01*
X177195295Y-92246773D01*
X177189405Y-92245840D01*
X177189404Y-92245840D01*
X177143016Y-92250225D01*
X177137178Y-92250500D01*
X157840847Y-92250500D01*
X157817615Y-92248304D01*
X157809588Y-92246773D01*
X157809586Y-92246773D01*
X157800633Y-92247336D01*
X157752275Y-92250378D01*
X157748403Y-92250500D01*
X156944700Y-92250500D01*
X156877661Y-92230815D01*
X156831906Y-92178011D01*
X156820700Y-92126500D01*
X156820700Y-75971252D01*
X156840385Y-75904213D01*
X156857019Y-75883571D01*
X160278771Y-72461819D01*
X160340094Y-72428334D01*
X160366452Y-72425500D01*
X165942257Y-72425500D01*
X165957877Y-72427224D01*
X165957904Y-72426939D01*
X165965660Y-72427671D01*
X165965667Y-72427673D01*
X166034814Y-72425500D01*
X166064350Y-72425500D01*
X166071228Y-72424630D01*
X166077041Y-72424172D01*
X166123627Y-72422709D01*
X166142869Y-72417117D01*
X166161912Y-72413174D01*
X166181792Y-72410664D01*
X166225122Y-72393507D01*
X166230646Y-72391617D01*
X166234396Y-72390527D01*
X166275390Y-72378618D01*
X166292629Y-72368422D01*
X166310103Y-72359862D01*
X166328727Y-72352488D01*
X166328727Y-72352487D01*
X166328732Y-72352486D01*
X166366449Y-72325082D01*
X166371305Y-72321892D01*
X166411420Y-72298170D01*
X166425589Y-72283999D01*
X166440379Y-72271368D01*
X166456587Y-72259594D01*
X166486299Y-72223676D01*
X166490212Y-72219376D01*
X167306786Y-71402802D01*
X167319048Y-71392980D01*
X167318865Y-71392759D01*
X167324867Y-71387792D01*
X167324877Y-71387786D01*
X167372241Y-71337348D01*
X167393120Y-71316470D01*
X167397370Y-71310989D01*
X167401151Y-71306561D01*
X167433062Y-71272582D01*
X167442713Y-71255024D01*
X167453396Y-71238761D01*
X167465673Y-71222936D01*
X167484183Y-71180158D01*
X167486743Y-71174932D01*
X167509197Y-71134092D01*
X167514178Y-71114687D01*
X167520482Y-71096279D01*
X167528438Y-71077895D01*
X167535729Y-71031853D01*
X167536908Y-71026162D01*
X167548500Y-70981019D01*
X167548500Y-70960983D01*
X167550027Y-70941582D01*
X167553160Y-70921804D01*
X167548775Y-70875415D01*
X167548500Y-70869577D01*
X167548500Y-70729638D01*
X167568185Y-70662599D01*
X167607401Y-70624100D01*
X167716656Y-70556712D01*
X167840712Y-70432656D01*
X167932814Y-70283334D01*
X167987999Y-70116797D01*
X167998500Y-70014009D01*
X167998499Y-69013992D01*
X167987999Y-68911203D01*
X167932814Y-68744666D01*
X167840712Y-68595344D01*
X167716656Y-68471288D01*
X167567334Y-68379186D01*
X167400797Y-68324001D01*
X167400795Y-68324000D01*
X167298010Y-68313500D01*
X166547998Y-68313500D01*
X166547980Y-68313501D01*
X166445203Y-68324000D01*
X166445200Y-68324001D01*
X166278668Y-68379185D01*
X166278663Y-68379187D01*
X166129342Y-68471289D01*
X166005285Y-68595346D01*
X166003537Y-68598182D01*
X166001829Y-68599717D01*
X166000807Y-68601011D01*
X166000585Y-68600836D01*
X165951589Y-68644905D01*
X165882626Y-68656126D01*
X165818544Y-68628282D01*
X165792463Y-68598182D01*
X165790714Y-68595346D01*
X165666657Y-68471289D01*
X165666656Y-68471288D01*
X165517334Y-68379186D01*
X165350797Y-68324001D01*
X165350795Y-68324000D01*
X165248010Y-68313500D01*
X164497998Y-68313500D01*
X164497980Y-68313501D01*
X164395203Y-68324000D01*
X164395200Y-68324001D01*
X164228668Y-68379185D01*
X164228663Y-68379187D01*
X164079342Y-68471289D01*
X164076181Y-68474451D01*
X164014858Y-68507936D01*
X163945166Y-68502952D01*
X163900819Y-68474451D01*
X163897657Y-68471289D01*
X163897656Y-68471288D01*
X163748334Y-68379186D01*
X163581797Y-68324001D01*
X163581795Y-68324000D01*
X163479010Y-68313500D01*
X162678998Y-68313500D01*
X162678980Y-68313501D01*
X162576203Y-68324000D01*
X162576200Y-68324001D01*
X162409668Y-68379185D01*
X162409663Y-68379187D01*
X162260345Y-68471287D01*
X162166327Y-68565305D01*
X162105003Y-68598789D01*
X162035312Y-68593805D01*
X161990965Y-68565304D01*
X161897345Y-68471684D01*
X161748124Y-68379643D01*
X161748119Y-68379641D01*
X161581697Y-68324494D01*
X161581690Y-68324493D01*
X161478986Y-68314000D01*
X161329000Y-68314000D01*
X161329000Y-70713999D01*
X161478972Y-70713999D01*
X161478986Y-70713998D01*
X161581697Y-70703505D01*
X161748119Y-70648358D01*
X161748124Y-70648356D01*
X161897342Y-70556317D01*
X161990964Y-70462695D01*
X162052287Y-70429210D01*
X162121979Y-70434194D01*
X162166327Y-70462695D01*
X162260344Y-70556712D01*
X162409666Y-70648814D01*
X162576203Y-70703999D01*
X162678991Y-70714500D01*
X163479008Y-70714499D01*
X163479016Y-70714498D01*
X163479019Y-70714498D01*
X163535302Y-70708748D01*
X163581797Y-70703999D01*
X163748334Y-70648814D01*
X163897656Y-70556712D01*
X163900819Y-70553549D01*
X163962142Y-70520064D01*
X164031834Y-70525048D01*
X164076181Y-70553549D01*
X164079344Y-70556712D01*
X164228666Y-70648814D01*
X164395203Y-70703999D01*
X164497991Y-70714500D01*
X165248008Y-70714499D01*
X165248016Y-70714498D01*
X165248019Y-70714498D01*
X165304302Y-70708748D01*
X165350797Y-70703999D01*
X165517334Y-70648814D01*
X165666656Y-70556712D01*
X165790712Y-70432656D01*
X165792461Y-70429819D01*
X165794169Y-70428283D01*
X165795193Y-70426989D01*
X165795414Y-70427163D01*
X165844406Y-70383096D01*
X165913368Y-70371872D01*
X165977451Y-70399713D01*
X166003537Y-70429817D01*
X166005288Y-70432656D01*
X166129344Y-70556712D01*
X166153185Y-70571417D01*
X166199910Y-70623363D01*
X166211134Y-70692325D01*
X166183292Y-70756408D01*
X166175771Y-70764637D01*
X165802228Y-71138181D01*
X165740905Y-71171666D01*
X165714547Y-71174500D01*
X160138743Y-71174500D01*
X160123122Y-71172775D01*
X160123095Y-71173061D01*
X160115333Y-71172326D01*
X160046172Y-71174500D01*
X160016649Y-71174500D01*
X160009778Y-71175367D01*
X160003959Y-71175825D01*
X159957374Y-71177289D01*
X159957368Y-71177290D01*
X159938126Y-71182880D01*
X159919087Y-71186823D01*
X159899217Y-71189334D01*
X159899203Y-71189337D01*
X159855883Y-71206488D01*
X159850358Y-71208380D01*
X159805613Y-71221380D01*
X159805610Y-71221381D01*
X159788366Y-71231579D01*
X159770905Y-71240133D01*
X159752274Y-71247510D01*
X159752262Y-71247517D01*
X159714570Y-71274902D01*
X159709687Y-71278109D01*
X159669580Y-71301829D01*
X159655414Y-71315995D01*
X159640624Y-71328627D01*
X159624414Y-71340404D01*
X159624411Y-71340407D01*
X159594710Y-71376309D01*
X159590777Y-71380631D01*
X155811408Y-75159999D01*
X155799151Y-75169820D01*
X155799334Y-75170041D01*
X155793323Y-75175013D01*
X155745972Y-75225436D01*
X155725089Y-75246319D01*
X155725077Y-75246332D01*
X155720821Y-75251817D01*
X155717037Y-75256247D01*
X155685137Y-75290218D01*
X155685136Y-75290220D01*
X155675484Y-75307776D01*
X155664810Y-75324026D01*
X155652529Y-75339861D01*
X155652524Y-75339868D01*
X155634015Y-75382638D01*
X155631445Y-75387884D01*
X155609003Y-75428706D01*
X155604022Y-75448107D01*
X155597721Y-75466510D01*
X155589762Y-75484902D01*
X155589761Y-75484905D01*
X155582471Y-75530927D01*
X155581287Y-75536646D01*
X155569701Y-75581772D01*
X155569700Y-75581782D01*
X155569700Y-75601816D01*
X155568173Y-75621215D01*
X155565040Y-75640994D01*
X155565040Y-75640995D01*
X155569425Y-75687383D01*
X155569700Y-75693221D01*
X155569700Y-88846659D01*
X155550015Y-88913698D01*
X155497211Y-88959453D01*
X155428053Y-88969397D01*
X155364497Y-88940372D01*
X155353551Y-88929632D01*
X155327871Y-88901112D01*
X155327870Y-88901111D01*
X155174734Y-88789851D01*
X155174729Y-88789848D01*
X155001807Y-88712857D01*
X155001802Y-88712855D01*
X154853540Y-88681342D01*
X154816646Y-88673500D01*
X154627354Y-88673500D01*
X154594897Y-88680398D01*
X154442197Y-88712855D01*
X154442192Y-88712857D01*
X154269271Y-88789848D01*
X154227384Y-88820281D01*
X154161577Y-88843760D01*
X154093524Y-88827934D01*
X154044829Y-88777828D01*
X154030499Y-88719962D01*
X154030499Y-88526129D01*
X154030498Y-88526123D01*
X154024091Y-88466516D01*
X153973797Y-88331671D01*
X153973793Y-88331664D01*
X153887547Y-88216455D01*
X153887544Y-88216452D01*
X153772335Y-88130206D01*
X153772328Y-88130202D01*
X153637482Y-88079908D01*
X153637483Y-88079908D01*
X153577883Y-88073501D01*
X153577881Y-88073500D01*
X153577873Y-88073500D01*
X153577865Y-88073500D01*
X150604500Y-88073500D01*
X150537461Y-88053815D01*
X150491706Y-88001011D01*
X150480500Y-87949500D01*
X150480500Y-69764000D01*
X159979001Y-69764000D01*
X159979001Y-70013986D01*
X159989494Y-70116697D01*
X160044641Y-70283119D01*
X160044643Y-70283124D01*
X160136684Y-70432345D01*
X160260654Y-70556315D01*
X160409875Y-70648356D01*
X160409880Y-70648358D01*
X160576302Y-70703505D01*
X160576309Y-70703506D01*
X160679019Y-70713999D01*
X160828999Y-70713999D01*
X160829000Y-70713998D01*
X160829000Y-69764000D01*
X159979001Y-69764000D01*
X150480500Y-69764000D01*
X150480500Y-69264000D01*
X159979000Y-69264000D01*
X160829000Y-69264000D01*
X160829000Y-68314000D01*
X160679027Y-68314000D01*
X160679012Y-68314001D01*
X160576302Y-68324494D01*
X160409880Y-68379641D01*
X160409875Y-68379643D01*
X160260654Y-68471684D01*
X160136684Y-68595654D01*
X160044643Y-68744875D01*
X160044641Y-68744880D01*
X159989494Y-68911302D01*
X159989493Y-68911309D01*
X159979000Y-69014013D01*
X159979000Y-69264000D01*
X150480500Y-69264000D01*
X150480500Y-45851021D01*
X150500185Y-45783982D01*
X150552989Y-45738227D01*
X150622147Y-45728283D01*
X150630464Y-45729770D01*
X150636203Y-45730999D01*
X150738991Y-45741500D01*
X151339008Y-45741499D01*
X151339016Y-45741498D01*
X151339019Y-45741498D01*
X151395302Y-45735748D01*
X151441797Y-45730999D01*
X151608334Y-45675814D01*
X151757656Y-45583712D01*
X151881712Y-45459656D01*
X151973814Y-45310334D01*
X152028999Y-45143797D01*
X152039500Y-45041009D01*
X152039499Y-43440992D01*
X152028999Y-43338203D01*
X151973814Y-43171666D01*
X151881712Y-43022344D01*
X151757656Y-42898288D01*
X151608334Y-42806186D01*
X151441797Y-42751001D01*
X151441795Y-42751000D01*
X151339010Y-42740500D01*
X150738998Y-42740500D01*
X150738980Y-42740501D01*
X150636199Y-42751001D01*
X150630443Y-42752233D01*
X150560769Y-42747010D01*
X150504979Y-42704947D01*
X150480786Y-42639400D01*
X150480500Y-42630977D01*
X150480500Y-39196570D01*
X150500185Y-39129531D01*
X150552989Y-39083776D01*
X150622147Y-39073832D01*
X150685703Y-39102857D01*
G37*
G04 #@! TD.AperFunction*
G04 #@! TA.AperFunction,Conductor*
G36*
X161823165Y-133378185D02*
G01*
X161843807Y-133394819D01*
X162705331Y-134256343D01*
X162738816Y-134317666D01*
X162739644Y-134359133D01*
X162740409Y-134359200D01*
X162739937Y-134364590D01*
X162739937Y-134364592D01*
X162732320Y-134451656D01*
X162719341Y-134599999D01*
X162719341Y-134600000D01*
X162739936Y-134835403D01*
X162739938Y-134835413D01*
X162801094Y-135063655D01*
X162801096Y-135063659D01*
X162801097Y-135063663D01*
X162884155Y-135241781D01*
X162900965Y-135277830D01*
X162900967Y-135277834D01*
X163009281Y-135432521D01*
X163036501Y-135471396D01*
X163036506Y-135471402D01*
X163088923Y-135523819D01*
X163122408Y-135585142D01*
X163117424Y-135654834D01*
X163075552Y-135710767D01*
X163010088Y-135735184D01*
X163001242Y-135735500D01*
X153882498Y-135735500D01*
X153815459Y-135715815D01*
X153769704Y-135663011D01*
X153759760Y-135593853D01*
X153772856Y-135556644D01*
X153772185Y-135556354D01*
X153775280Y-135549200D01*
X153821100Y-135391486D01*
X153821295Y-135389001D01*
X153821295Y-135389000D01*
X150876705Y-135389000D01*
X150876704Y-135389001D01*
X150876899Y-135391486D01*
X150922719Y-135549200D01*
X150925815Y-135556354D01*
X150924411Y-135556961D01*
X150939417Y-135616101D01*
X150917258Y-135682364D01*
X150862793Y-135726128D01*
X150815502Y-135735500D01*
X150786939Y-135735500D01*
X150719900Y-135715815D01*
X150699258Y-135699181D01*
X150243757Y-135243680D01*
X150210272Y-135182357D01*
X150215256Y-135112665D01*
X150243753Y-135068323D01*
X150722024Y-134590051D01*
X150783347Y-134556567D01*
X150853039Y-134561551D01*
X150908972Y-134603423D01*
X150933389Y-134668887D01*
X150924490Y-134721192D01*
X150924895Y-134721310D01*
X150923871Y-134724833D01*
X150923506Y-134726981D01*
X150922719Y-134728798D01*
X150876899Y-134886513D01*
X150876704Y-134888998D01*
X150876705Y-134889000D01*
X153821295Y-134889000D01*
X153821295Y-134888998D01*
X153821100Y-134886511D01*
X153821099Y-134886505D01*
X153782340Y-134753095D01*
X153782539Y-134683225D01*
X153820481Y-134624555D01*
X153884120Y-134595712D01*
X153901416Y-134594500D01*
X154567113Y-134594500D01*
X154585082Y-134595809D01*
X154588810Y-134596354D01*
X154607756Y-134599130D01*
X154657984Y-134594735D01*
X154663385Y-134594500D01*
X154671251Y-134594500D01*
X154671256Y-134594500D01*
X154693880Y-134591855D01*
X154702736Y-134590820D01*
X154721228Y-134589202D01*
X154776708Y-134584349D01*
X154776712Y-134584347D01*
X154783784Y-134582888D01*
X154783803Y-134582984D01*
X154790441Y-134581512D01*
X154790419Y-134581416D01*
X154797440Y-134579751D01*
X154797451Y-134579750D01*
X154867202Y-134554362D01*
X154937697Y-134531003D01*
X154937706Y-134530997D01*
X154944245Y-134527949D01*
X154944286Y-134528038D01*
X154950409Y-134525074D01*
X154950365Y-134524986D01*
X154956812Y-134521746D01*
X154956820Y-134521744D01*
X155018841Y-134480952D01*
X155067593Y-134450882D01*
X155134985Y-134432441D01*
X155201649Y-134453363D01*
X155220371Y-134468739D01*
X155327344Y-134575712D01*
X155476666Y-134667814D01*
X155643203Y-134722999D01*
X155745991Y-134733500D01*
X156746008Y-134733499D01*
X156746016Y-134733498D01*
X156746019Y-134733498D01*
X156830843Y-134724833D01*
X156848797Y-134722999D01*
X157015334Y-134667814D01*
X157164656Y-134575712D01*
X157288712Y-134451656D01*
X157380814Y-134302334D01*
X157435999Y-134135797D01*
X157446500Y-134033009D01*
X157446499Y-133482499D01*
X157466183Y-133415461D01*
X157518987Y-133369706D01*
X157570499Y-133358500D01*
X161495201Y-133358500D01*
X161756126Y-133358500D01*
X161823165Y-133378185D01*
G37*
G04 #@! TD.AperFunction*
G04 #@! TA.AperFunction,Conductor*
G36*
X153515790Y-121914514D02*
G01*
X153532509Y-121928521D01*
X154087181Y-122483193D01*
X154120666Y-122544516D01*
X154123500Y-122570874D01*
X154123500Y-125078111D01*
X154122191Y-125096083D01*
X154118870Y-125118755D01*
X154118869Y-125118758D01*
X154123264Y-125168977D01*
X154123500Y-125174384D01*
X154123500Y-125182256D01*
X154127179Y-125213735D01*
X154133650Y-125287707D01*
X154135110Y-125294774D01*
X154135016Y-125294793D01*
X154136493Y-125301452D01*
X154136586Y-125301431D01*
X154138249Y-125308451D01*
X154163636Y-125378202D01*
X154186995Y-125448692D01*
X154190050Y-125455244D01*
X154189962Y-125455284D01*
X154192929Y-125461411D01*
X154193015Y-125461368D01*
X154196256Y-125467821D01*
X154237046Y-125529840D01*
X154276032Y-125593044D01*
X154280514Y-125598713D01*
X154280436Y-125598773D01*
X154284733Y-125604048D01*
X154284809Y-125603985D01*
X154289450Y-125609516D01*
X154343456Y-125660468D01*
X154900181Y-126217193D01*
X154933666Y-126278516D01*
X154936500Y-126304874D01*
X154936500Y-127600370D01*
X154936501Y-127600376D01*
X154942908Y-127659983D01*
X154993202Y-127794828D01*
X154993206Y-127794835D01*
X155079452Y-127910044D01*
X155079455Y-127910047D01*
X155194664Y-127996293D01*
X155194671Y-127996297D01*
X155239618Y-128013061D01*
X155329517Y-128046591D01*
X155389127Y-128053000D01*
X155934872Y-128052999D01*
X155994483Y-128046591D01*
X155994488Y-128046589D01*
X156069167Y-128018736D01*
X156138859Y-128013752D01*
X156200182Y-128047237D01*
X156233666Y-128108561D01*
X156236500Y-128134918D01*
X156236500Y-128517126D01*
X156216815Y-128584165D01*
X156200181Y-128604807D01*
X155776758Y-129028229D01*
X155763127Y-129040010D01*
X155744739Y-129053699D01*
X155712328Y-129092325D01*
X155708680Y-129096307D01*
X155703116Y-129101872D01*
X155683467Y-129126721D01*
X155635726Y-129183617D01*
X155631760Y-129189648D01*
X155631681Y-129189596D01*
X155628016Y-129195348D01*
X155628098Y-129195398D01*
X155624306Y-129201544D01*
X155592938Y-129268816D01*
X155559610Y-129335177D01*
X155557142Y-129341960D01*
X155557052Y-129341927D01*
X155554816Y-129348362D01*
X155554907Y-129348393D01*
X155552637Y-129355243D01*
X155537623Y-129427950D01*
X155520499Y-129500205D01*
X155519661Y-129507376D01*
X155519564Y-129507364D01*
X155518872Y-129514135D01*
X155518969Y-129514144D01*
X155518339Y-129521333D01*
X155520500Y-129595567D01*
X155520500Y-130501942D01*
X155500815Y-130568981D01*
X155461598Y-130607479D01*
X155375209Y-130660764D01*
X155327342Y-130690289D01*
X155203289Y-130814342D01*
X155111187Y-130963663D01*
X155111185Y-130963668D01*
X155083728Y-131046530D01*
X155056001Y-131130203D01*
X155056001Y-131130204D01*
X155056000Y-131130204D01*
X155045500Y-131232983D01*
X155045500Y-131232991D01*
X155045500Y-131563862D01*
X155045501Y-131783500D01*
X155025817Y-131850539D01*
X154973013Y-131896294D01*
X154921501Y-131907500D01*
X153891772Y-131907500D01*
X153824733Y-131887815D01*
X153778978Y-131835011D01*
X153769034Y-131765853D01*
X153774333Y-131747112D01*
X153773568Y-131746890D01*
X153821597Y-131581573D01*
X153821598Y-131581567D01*
X153824500Y-131544696D01*
X153824500Y-131113304D01*
X153821598Y-131076432D01*
X153821597Y-131076426D01*
X153775745Y-130918606D01*
X153775744Y-130918603D01*
X153775744Y-130918602D01*
X153692081Y-130777135D01*
X153692079Y-130777133D01*
X153692076Y-130777129D01*
X153575870Y-130660923D01*
X153575862Y-130660917D01*
X153469789Y-130598186D01*
X153434398Y-130577256D01*
X153434397Y-130577255D01*
X153434396Y-130577255D01*
X153434393Y-130577254D01*
X153276573Y-130531402D01*
X153276567Y-130531401D01*
X153239696Y-130528500D01*
X153239694Y-130528500D01*
X153233500Y-130528500D01*
X153166461Y-130508815D01*
X153120706Y-130456011D01*
X153109500Y-130404500D01*
X153109500Y-130251674D01*
X153129185Y-130184635D01*
X153181989Y-130138880D01*
X153251147Y-130128936D01*
X153272499Y-130133966D01*
X153290703Y-130139999D01*
X153393491Y-130150500D01*
X154193508Y-130150499D01*
X154193516Y-130150498D01*
X154193519Y-130150498D01*
X154249802Y-130144748D01*
X154296297Y-130139999D01*
X154462834Y-130084814D01*
X154612156Y-129992712D01*
X154736212Y-129868656D01*
X154828314Y-129719334D01*
X154883499Y-129552797D01*
X154894000Y-129450009D01*
X154893999Y-128449992D01*
X154883499Y-128347203D01*
X154828314Y-128180666D01*
X154736212Y-128031344D01*
X154612156Y-127907288D01*
X154462834Y-127815186D01*
X154296297Y-127760001D01*
X154296294Y-127760000D01*
X154207323Y-127750911D01*
X154142632Y-127724515D01*
X154132245Y-127715234D01*
X153383819Y-126966807D01*
X153350334Y-126905484D01*
X153347500Y-126879126D01*
X153347500Y-126170442D01*
X153347499Y-126170420D01*
X153347499Y-125418129D01*
X153347498Y-125418123D01*
X153344797Y-125392999D01*
X153341935Y-125366370D01*
X153341091Y-125358516D01*
X153290797Y-125223671D01*
X153290793Y-125223664D01*
X153204547Y-125108455D01*
X153204544Y-125108452D01*
X153089335Y-125022206D01*
X153089328Y-125022202D01*
X152954486Y-124971910D01*
X152954485Y-124971909D01*
X152954483Y-124971909D01*
X152894873Y-124965500D01*
X152894864Y-124965500D01*
X152523743Y-124965500D01*
X152456704Y-124945815D01*
X152410949Y-124893011D01*
X152401005Y-124823853D01*
X152430030Y-124760297D01*
X152449424Y-124742240D01*
X152554546Y-124663546D01*
X152640796Y-124548331D01*
X152691091Y-124413483D01*
X152697500Y-124353873D01*
X152697500Y-123574549D01*
X152697500Y-123168819D01*
X152717185Y-123101780D01*
X152769989Y-123056025D01*
X152771064Y-123055540D01*
X152789456Y-123047350D01*
X152888730Y-123003151D01*
X153041871Y-122891888D01*
X153168533Y-122751216D01*
X153263179Y-122587284D01*
X153321674Y-122407256D01*
X153341460Y-122219000D01*
X153321674Y-122030744D01*
X153321672Y-122030739D01*
X153321507Y-122029164D01*
X153334076Y-121960434D01*
X153381808Y-121909410D01*
X153449549Y-121892292D01*
X153515790Y-121914514D01*
G37*
G04 #@! TD.AperFunction*
G04 #@! TA.AperFunction,Conductor*
G36*
X145233165Y-126587185D02*
G01*
X145253807Y-126603819D01*
X145413731Y-126763743D01*
X145425507Y-126777368D01*
X145439198Y-126795758D01*
X145455937Y-126809804D01*
X145477825Y-126828171D01*
X145481813Y-126831826D01*
X145487368Y-126837381D01*
X145487376Y-126837388D01*
X145496695Y-126844756D01*
X145512237Y-126857045D01*
X145569117Y-126904773D01*
X145569118Y-126904773D01*
X145569120Y-126904775D01*
X145575153Y-126908743D01*
X145575099Y-126908824D01*
X145580833Y-126912478D01*
X145580885Y-126912395D01*
X145587037Y-126916189D01*
X145654328Y-126947567D01*
X145720675Y-126980888D01*
X145720677Y-126980888D01*
X145727464Y-126983359D01*
X145727430Y-126983451D01*
X145733859Y-126985685D01*
X145733890Y-126985593D01*
X145740739Y-126987862D01*
X145740740Y-126987862D01*
X145740744Y-126987864D01*
X145813469Y-127002880D01*
X145859994Y-127013907D01*
X145885696Y-127019999D01*
X145885697Y-127019999D01*
X145885701Y-127020000D01*
X145885705Y-127020000D01*
X145892874Y-127020838D01*
X145892862Y-127020935D01*
X145899635Y-127021627D01*
X145899644Y-127021531D01*
X145906833Y-127022160D01*
X145906837Y-127022159D01*
X145906838Y-127022160D01*
X145981068Y-127020000D01*
X146181336Y-127020000D01*
X146248375Y-127039685D01*
X146294130Y-127092489D01*
X146304626Y-127130746D01*
X146306909Y-127151983D01*
X146357202Y-127286828D01*
X146357206Y-127286835D01*
X146443452Y-127402044D01*
X146443455Y-127402047D01*
X146558664Y-127488293D01*
X146558673Y-127488298D01*
X146645127Y-127520543D01*
X146701061Y-127562414D01*
X146725479Y-127627878D01*
X146710628Y-127696151D01*
X146661223Y-127745557D01*
X146621657Y-127757831D01*
X146621819Y-127758585D01*
X146615200Y-127760001D01*
X146448668Y-127815185D01*
X146448663Y-127815187D01*
X146299342Y-127907289D01*
X146175289Y-128031342D01*
X146083187Y-128180663D01*
X146083186Y-128180666D01*
X146028001Y-128347203D01*
X146028001Y-128347204D01*
X146028000Y-128347204D01*
X146017500Y-128449983D01*
X146017500Y-129450001D01*
X146017501Y-129450019D01*
X146028000Y-129552796D01*
X146028001Y-129552799D01*
X146083185Y-129719331D01*
X146083187Y-129719336D01*
X146101351Y-129748784D01*
X146175288Y-129868656D01*
X146299344Y-129992712D01*
X146421097Y-130067809D01*
X146467821Y-130119755D01*
X146480000Y-130173347D01*
X146480000Y-130218611D01*
X146478691Y-130236583D01*
X146475370Y-130259255D01*
X146475369Y-130259258D01*
X146479764Y-130309477D01*
X146480000Y-130314884D01*
X146480000Y-130322756D01*
X146483679Y-130354236D01*
X146489613Y-130422074D01*
X146475846Y-130490574D01*
X146427230Y-130540756D01*
X146400681Y-130551956D01*
X146313604Y-130577254D01*
X146313603Y-130577255D01*
X146172137Y-130660917D01*
X146172129Y-130660923D01*
X146055923Y-130777129D01*
X146055917Y-130777137D01*
X145972255Y-130918603D01*
X145972254Y-130918606D01*
X145926402Y-131076426D01*
X145926401Y-131076432D01*
X145923500Y-131113304D01*
X145923500Y-131544696D01*
X145926401Y-131581567D01*
X145926402Y-131581573D01*
X145943350Y-131639905D01*
X145943151Y-131709774D01*
X145905209Y-131768444D01*
X145841571Y-131797288D01*
X145824274Y-131798500D01*
X145160194Y-131798500D01*
X144979805Y-131798500D01*
X144979803Y-131798500D01*
X144979797Y-131798501D01*
X144939098Y-131807790D01*
X144932242Y-131808955D01*
X144890743Y-131813632D01*
X144851328Y-131827423D01*
X144844646Y-131829348D01*
X144803939Y-131838640D01*
X144766325Y-131856753D01*
X144759901Y-131859415D01*
X144720475Y-131873211D01*
X144718438Y-131874492D01*
X144716890Y-131874937D01*
X144714201Y-131876233D01*
X144713980Y-131875776D01*
X144652464Y-131893500D01*
X142630500Y-131893500D01*
X142563461Y-131873815D01*
X142517706Y-131821011D01*
X142506500Y-131769500D01*
X142506500Y-131718500D01*
X142526185Y-131651461D01*
X142578989Y-131605706D01*
X142630500Y-131594500D01*
X144334696Y-131594500D01*
X144353131Y-131593049D01*
X144371569Y-131591598D01*
X144371571Y-131591597D01*
X144371573Y-131591597D01*
X144413191Y-131579505D01*
X144529398Y-131545744D01*
X144670865Y-131462081D01*
X144787081Y-131345865D01*
X144870744Y-131204398D01*
X144916598Y-131046569D01*
X144916598Y-131046562D01*
X144916608Y-131046530D01*
X144947263Y-130996381D01*
X144946614Y-130995837D01*
X144950233Y-130991523D01*
X144950601Y-130990922D01*
X144951253Y-130990305D01*
X144951258Y-130990302D01*
X144983673Y-130951669D01*
X144987315Y-130947696D01*
X144992886Y-130942126D01*
X145012545Y-130917262D01*
X145060273Y-130860383D01*
X145060277Y-130860374D01*
X145064248Y-130854340D01*
X145064330Y-130854394D01*
X145067977Y-130848670D01*
X145067893Y-130848618D01*
X145071687Y-130842465D01*
X145071689Y-130842463D01*
X145103067Y-130775171D01*
X145136388Y-130708825D01*
X145136390Y-130708812D01*
X145138857Y-130702039D01*
X145138950Y-130702072D01*
X145141186Y-130695640D01*
X145141093Y-130695610D01*
X145143362Y-130688760D01*
X145143361Y-130688760D01*
X145143364Y-130688756D01*
X145158380Y-130616030D01*
X145175500Y-130543799D01*
X145175500Y-130543797D01*
X145175501Y-130543793D01*
X145176339Y-130536626D01*
X145176435Y-130536637D01*
X145177127Y-130529867D01*
X145177031Y-130529859D01*
X145177660Y-130522668D01*
X145177297Y-130510207D01*
X145175500Y-130448432D01*
X145175500Y-128459744D01*
X145175500Y-128456442D01*
X145175499Y-128456420D01*
X145175499Y-127704129D01*
X145175498Y-127704123D01*
X145175110Y-127700517D01*
X145169091Y-127644517D01*
X145160260Y-127620841D01*
X145118797Y-127509671D01*
X145118793Y-127509664D01*
X145032547Y-127394455D01*
X145032544Y-127394452D01*
X144917335Y-127308206D01*
X144917328Y-127308202D01*
X144782486Y-127257910D01*
X144782485Y-127257909D01*
X144782483Y-127257909D01*
X144722873Y-127251500D01*
X144722864Y-127251500D01*
X144351743Y-127251500D01*
X144284704Y-127231815D01*
X144238949Y-127179011D01*
X144229005Y-127109853D01*
X144258030Y-127046297D01*
X144277424Y-127028240D01*
X144382546Y-126949546D01*
X144468796Y-126834331D01*
X144519091Y-126699483D01*
X144521375Y-126678243D01*
X144548114Y-126613692D01*
X144605507Y-126573845D01*
X144644664Y-126567500D01*
X145166126Y-126567500D01*
X145233165Y-126587185D01*
G37*
G04 #@! TD.AperFunction*
G04 #@! TA.AperFunction,Conductor*
G36*
X146630087Y-122041438D02*
G01*
X146686020Y-122083310D01*
X146710074Y-122144658D01*
X146710814Y-122151698D01*
X146724326Y-122280256D01*
X146724327Y-122280259D01*
X146782818Y-122460277D01*
X146782820Y-122460281D01*
X146782821Y-122460284D01*
X146877467Y-122624216D01*
X146918650Y-122669954D01*
X146948880Y-122732945D01*
X146950500Y-122752926D01*
X146950500Y-124432369D01*
X146950501Y-124432376D01*
X146956908Y-124491983D01*
X147007202Y-124626828D01*
X147007206Y-124626835D01*
X147093452Y-124742044D01*
X147093453Y-124742044D01*
X147093454Y-124742046D01*
X147154589Y-124787812D01*
X147198567Y-124820734D01*
X147240437Y-124876668D01*
X147245421Y-124946359D01*
X147211935Y-125007682D01*
X147150612Y-125041166D01*
X147124255Y-125044000D01*
X146753130Y-125044000D01*
X146753123Y-125044001D01*
X146693516Y-125050408D01*
X146558671Y-125100702D01*
X146558664Y-125100706D01*
X146443455Y-125186952D01*
X146443452Y-125186955D01*
X146357206Y-125302164D01*
X146357203Y-125302170D01*
X146328730Y-125378509D01*
X146286858Y-125434443D01*
X146221393Y-125458859D01*
X146153120Y-125444007D01*
X146124867Y-125422856D01*
X146074771Y-125372760D01*
X146062989Y-125359126D01*
X146049308Y-125340750D01*
X146049307Y-125340749D01*
X146049302Y-125340742D01*
X146010665Y-125308321D01*
X146006679Y-125304668D01*
X146001128Y-125299116D01*
X146001123Y-125299112D01*
X145976277Y-125279467D01*
X145973408Y-125277060D01*
X145919383Y-125231727D01*
X145919380Y-125231725D01*
X145913348Y-125227758D01*
X145913401Y-125227676D01*
X145907656Y-125224017D01*
X145907605Y-125224100D01*
X145901458Y-125220308D01*
X145834183Y-125188938D01*
X145767821Y-125155610D01*
X145761035Y-125153140D01*
X145761067Y-125153050D01*
X145754641Y-125150816D01*
X145754611Y-125150908D01*
X145747755Y-125148636D01*
X145675050Y-125133623D01*
X145602792Y-125116498D01*
X145595624Y-125115661D01*
X145595635Y-125115564D01*
X145588867Y-125114872D01*
X145588859Y-125114969D01*
X145581668Y-125114339D01*
X145507432Y-125116500D01*
X144649500Y-125116500D01*
X144582461Y-125096815D01*
X144536706Y-125044011D01*
X144525500Y-124992500D01*
X144525500Y-124094874D01*
X144545185Y-124027835D01*
X144561819Y-124007193D01*
X145517951Y-123051061D01*
X146499074Y-122069937D01*
X146560395Y-122036454D01*
X146630087Y-122041438D01*
G37*
G04 #@! TD.AperFunction*
G04 #@! TA.AperFunction,Conductor*
G36*
X154650834Y-103236669D02*
G01*
X154706767Y-103278541D01*
X154731184Y-103344005D01*
X154731500Y-103352851D01*
X154731500Y-119659755D01*
X154729775Y-119675372D01*
X154730061Y-119675399D01*
X154729326Y-119683165D01*
X154731500Y-119752314D01*
X154731500Y-119781843D01*
X154731501Y-119781860D01*
X154732368Y-119788731D01*
X154732826Y-119794550D01*
X154734290Y-119841124D01*
X154734291Y-119841127D01*
X154739880Y-119860367D01*
X154743824Y-119879411D01*
X154746336Y-119899291D01*
X154763490Y-119942619D01*
X154765382Y-119948147D01*
X154778382Y-119992890D01*
X154780995Y-119997309D01*
X154788580Y-120010134D01*
X154797138Y-120027603D01*
X154804514Y-120046232D01*
X154831898Y-120083923D01*
X154835106Y-120088807D01*
X154858827Y-120128916D01*
X154858833Y-120128924D01*
X154872990Y-120143080D01*
X154885628Y-120157876D01*
X154897405Y-120174086D01*
X154897406Y-120174087D01*
X154933309Y-120203788D01*
X154937620Y-120207710D01*
X155300176Y-120570266D01*
X155650181Y-120920271D01*
X155683666Y-120981594D01*
X155686500Y-121007952D01*
X155686500Y-121757591D01*
X155666815Y-121824630D01*
X155614011Y-121870385D01*
X155544853Y-121880329D01*
X155481297Y-121851304D01*
X155456962Y-121822689D01*
X155421968Y-121765956D01*
X155417490Y-121760293D01*
X155417566Y-121760232D01*
X155413267Y-121754954D01*
X155413193Y-121755017D01*
X155408553Y-121749488D01*
X155408551Y-121749486D01*
X155408549Y-121749483D01*
X155378803Y-121721419D01*
X155354542Y-121698529D01*
X154262771Y-120606760D01*
X154250989Y-120593126D01*
X154237308Y-120574750D01*
X154237307Y-120574749D01*
X154237302Y-120574742D01*
X154198665Y-120542321D01*
X154194679Y-120538668D01*
X154189128Y-120533116D01*
X154189123Y-120533112D01*
X154164277Y-120513467D01*
X154107383Y-120465727D01*
X154107380Y-120465725D01*
X154101348Y-120461758D01*
X154101401Y-120461676D01*
X154095656Y-120458017D01*
X154095605Y-120458100D01*
X154089458Y-120454308D01*
X154022183Y-120422938D01*
X153955821Y-120389610D01*
X153949035Y-120387140D01*
X153949067Y-120387050D01*
X153942641Y-120384816D01*
X153942611Y-120384908D01*
X153935755Y-120382636D01*
X153863049Y-120367623D01*
X153826177Y-120358884D01*
X153808106Y-120352475D01*
X153808094Y-120352510D01*
X153631262Y-120290633D01*
X153631249Y-120290630D01*
X153496960Y-120275500D01*
X153496954Y-120275500D01*
X151464954Y-120275500D01*
X150194954Y-120275500D01*
X149559954Y-120275500D01*
X148574964Y-120275500D01*
X148507925Y-120255815D01*
X148462170Y-120203011D01*
X148452226Y-120133853D01*
X148457033Y-120113182D01*
X148478786Y-120046232D01*
X148495674Y-119994256D01*
X148515460Y-119806000D01*
X148495674Y-119617744D01*
X148437179Y-119437716D01*
X148342533Y-119273784D01*
X148267350Y-119190284D01*
X148237120Y-119127292D01*
X148235500Y-119107312D01*
X148235500Y-107467252D01*
X148255185Y-107400213D01*
X148271819Y-107379571D01*
X148696372Y-106955019D01*
X148757695Y-106921534D01*
X148784053Y-106918700D01*
X150524457Y-106918700D01*
X150540077Y-106920424D01*
X150540104Y-106920139D01*
X150547860Y-106920871D01*
X150547867Y-106920873D01*
X150617014Y-106918700D01*
X150646550Y-106918700D01*
X150653428Y-106917830D01*
X150659241Y-106917372D01*
X150705827Y-106915909D01*
X150725069Y-106910317D01*
X150744112Y-106906374D01*
X150763992Y-106903864D01*
X150807322Y-106886707D01*
X150812846Y-106884817D01*
X150816596Y-106883727D01*
X150857590Y-106871818D01*
X150874829Y-106861622D01*
X150892303Y-106853062D01*
X150910927Y-106845688D01*
X150910927Y-106845687D01*
X150910932Y-106845686D01*
X150948649Y-106818282D01*
X150953505Y-106815092D01*
X150993620Y-106791370D01*
X151007789Y-106777199D01*
X151022579Y-106764568D01*
X151038787Y-106752794D01*
X151068499Y-106716876D01*
X151072412Y-106712576D01*
X154519821Y-103265168D01*
X154581142Y-103231685D01*
X154650834Y-103236669D01*
G37*
G04 #@! TD.AperFunction*
G04 #@! TA.AperFunction,Conductor*
G36*
X148610208Y-96986123D02*
G01*
X148661685Y-97033366D01*
X148679500Y-97097402D01*
X148679500Y-105315147D01*
X148659815Y-105382186D01*
X148607011Y-105427941D01*
X148537853Y-105437885D01*
X148474297Y-105408860D01*
X148467819Y-105402828D01*
X145376219Y-102311228D01*
X145342734Y-102249905D01*
X145339900Y-102223547D01*
X145339900Y-97223550D01*
X145359585Y-97156511D01*
X145412389Y-97110756D01*
X145481547Y-97100812D01*
X145545103Y-97129837D01*
X145571286Y-97161548D01*
X145607082Y-97223550D01*
X145607467Y-97224216D01*
X145734129Y-97364888D01*
X145887265Y-97476148D01*
X145887270Y-97476151D01*
X146060192Y-97553142D01*
X146060197Y-97553144D01*
X146245354Y-97592500D01*
X146245355Y-97592500D01*
X146434644Y-97592500D01*
X146434646Y-97592500D01*
X146619803Y-97553144D01*
X146792730Y-97476151D01*
X146902117Y-97396676D01*
X146967920Y-97373198D01*
X147035974Y-97389023D01*
X147047871Y-97396668D01*
X147157266Y-97476148D01*
X147157270Y-97476151D01*
X147330192Y-97553142D01*
X147330197Y-97553144D01*
X147515354Y-97592500D01*
X147515355Y-97592500D01*
X147704644Y-97592500D01*
X147704646Y-97592500D01*
X147889803Y-97553144D01*
X148062730Y-97476151D01*
X148215871Y-97364888D01*
X148342533Y-97224216D01*
X148437179Y-97060284D01*
X148437568Y-97059087D01*
X148437979Y-97058484D01*
X148439825Y-97054341D01*
X148440582Y-97054678D01*
X148477004Y-97001411D01*
X148541362Y-96974211D01*
X148610208Y-96986123D01*
G37*
G04 #@! TD.AperFunction*
G04 #@! TA.AperFunction,Conductor*
G36*
X152073334Y-98931627D02*
G01*
X152117681Y-98960128D01*
X153679181Y-100521628D01*
X153712666Y-100582951D01*
X153715500Y-100609309D01*
X153715500Y-102248947D01*
X153695815Y-102315986D01*
X153679181Y-102336628D01*
X150692181Y-105323628D01*
X150630858Y-105357113D01*
X150561166Y-105352129D01*
X150505233Y-105310257D01*
X150480816Y-105244793D01*
X150480500Y-105235947D01*
X150480500Y-100850000D01*
X150500185Y-100782961D01*
X150552989Y-100737206D01*
X150604500Y-100726000D01*
X153176447Y-100726000D01*
X153176447Y-100725999D01*
X151764128Y-99313680D01*
X151730643Y-99252357D01*
X151735627Y-99182665D01*
X151764128Y-99138318D01*
X151942319Y-98960128D01*
X152003642Y-98926643D01*
X152073334Y-98931627D01*
G37*
G04 #@! TD.AperFunction*
G04 #@! TA.AperFunction,Conductor*
G36*
X155558491Y-93521185D02*
G01*
X155583600Y-93542526D01*
X155589326Y-93548885D01*
X155589330Y-93548889D01*
X155742465Y-93660148D01*
X155742470Y-93660151D01*
X155915392Y-93737142D01*
X155915397Y-93737144D01*
X156100554Y-93776500D01*
X156100555Y-93776500D01*
X156289844Y-93776500D01*
X156289846Y-93776500D01*
X156475003Y-93737144D01*
X156647930Y-93660151D01*
X156801071Y-93548888D01*
X156803988Y-93545647D01*
X156806800Y-93542526D01*
X156866287Y-93505879D01*
X156898948Y-93501500D01*
X157020500Y-93501500D01*
X157087539Y-93521185D01*
X157133294Y-93573989D01*
X157144500Y-93625500D01*
X157144500Y-95450659D01*
X157124815Y-95517698D01*
X157072011Y-95563453D01*
X157002853Y-95573397D01*
X156939297Y-95544372D01*
X156928351Y-95533632D01*
X156902671Y-95505112D01*
X156902670Y-95505111D01*
X156749534Y-95393851D01*
X156749529Y-95393848D01*
X156576607Y-95316857D01*
X156576602Y-95316855D01*
X156430801Y-95285865D01*
X156391446Y-95277500D01*
X156202154Y-95277500D01*
X156169697Y-95284398D01*
X156016997Y-95316855D01*
X156016992Y-95316857D01*
X155844070Y-95393848D01*
X155844065Y-95393851D01*
X155690930Y-95505110D01*
X155690926Y-95505114D01*
X155685200Y-95511474D01*
X155625713Y-95548121D01*
X155593052Y-95552500D01*
X154411847Y-95552500D01*
X154388615Y-95550304D01*
X154380588Y-95548773D01*
X154380586Y-95548773D01*
X154371633Y-95549336D01*
X154323275Y-95552378D01*
X154319403Y-95552500D01*
X154154499Y-95552500D01*
X154087460Y-95532815D01*
X154041705Y-95480011D01*
X154030499Y-95428500D01*
X154030499Y-95130129D01*
X154030498Y-95130123D01*
X154024091Y-95070516D01*
X153973797Y-94935671D01*
X153973793Y-94935664D01*
X153887547Y-94820455D01*
X153887544Y-94820452D01*
X153772335Y-94734206D01*
X153772328Y-94734202D01*
X153637482Y-94683908D01*
X153637483Y-94683908D01*
X153577883Y-94677501D01*
X153577881Y-94677500D01*
X153577873Y-94677500D01*
X153577865Y-94677500D01*
X150604500Y-94677500D01*
X150537461Y-94657815D01*
X150491706Y-94605011D01*
X150480500Y-94553500D01*
X150480500Y-94500499D01*
X150500185Y-94433460D01*
X150552989Y-94387705D01*
X150604495Y-94376499D01*
X153577872Y-94376499D01*
X153637483Y-94370091D01*
X153772331Y-94319796D01*
X153887546Y-94233546D01*
X153973796Y-94118331D01*
X154024091Y-93983483D01*
X154030500Y-93923873D01*
X154030500Y-93625500D01*
X154050185Y-93558461D01*
X154102989Y-93512706D01*
X154154500Y-93501500D01*
X155491452Y-93501500D01*
X155558491Y-93521185D01*
G37*
G04 #@! TD.AperFunction*
G04 #@! TA.AperFunction,Conductor*
G36*
X155482893Y-90183049D02*
G01*
X155540941Y-90221935D01*
X155568751Y-90286032D01*
X155569700Y-90301340D01*
X155569700Y-92126500D01*
X155550015Y-92193539D01*
X155497211Y-92239294D01*
X155445700Y-92250500D01*
X154154499Y-92250500D01*
X154087460Y-92230815D01*
X154041705Y-92178011D01*
X154030499Y-92126500D01*
X154030499Y-91828129D01*
X154030498Y-91828123D01*
X154024091Y-91768516D01*
X153973797Y-91633671D01*
X153973793Y-91633664D01*
X153887547Y-91518455D01*
X153887544Y-91518452D01*
X153772335Y-91432206D01*
X153772328Y-91432202D01*
X153637482Y-91381908D01*
X153637483Y-91381908D01*
X153577883Y-91375501D01*
X153577881Y-91375500D01*
X153577873Y-91375500D01*
X153577865Y-91375500D01*
X150604500Y-91375500D01*
X150537461Y-91355815D01*
X150491706Y-91303011D01*
X150480500Y-91251500D01*
X150480500Y-91198499D01*
X150500185Y-91131460D01*
X150552989Y-91085705D01*
X150604495Y-91074499D01*
X153577872Y-91074499D01*
X153637483Y-91068091D01*
X153772331Y-91017796D01*
X153887546Y-90931546D01*
X153973796Y-90816331D01*
X154024091Y-90681483D01*
X154030500Y-90621873D01*
X154030500Y-90428038D01*
X154050185Y-90360999D01*
X154102989Y-90315244D01*
X154172147Y-90305300D01*
X154227384Y-90327719D01*
X154269266Y-90358148D01*
X154269270Y-90358151D01*
X154442192Y-90435142D01*
X154442197Y-90435144D01*
X154627354Y-90474500D01*
X154627355Y-90474500D01*
X154816644Y-90474500D01*
X154816646Y-90474500D01*
X155001803Y-90435144D01*
X155174730Y-90358151D01*
X155327871Y-90246888D01*
X155353550Y-90218368D01*
X155413036Y-90181720D01*
X155482893Y-90183049D01*
G37*
G04 #@! TD.AperFunction*
M02*
