G04 #@! TF.GenerationSoftware,KiCad,Pcbnew,7.0.8*
G04 #@! TF.CreationDate,2024-11-08T22:29:11+01:00*
G04 #@! TF.ProjectId,PCB_Christmas_Tree.kicad_pcb_bez_logo_AGH,5043425f-4368-4726-9973-746d61735f54,rev?*
G04 #@! TF.SameCoordinates,Original*
G04 #@! TF.FileFunction,Legend,Bot*
G04 #@! TF.FilePolarity,Positive*
%FSLAX46Y46*%
G04 Gerber Fmt 4.6, Leading zero omitted, Abs format (unit mm)*
G04 Created by KiCad (PCBNEW 7.0.8) date 2024-11-08 22:29:11*
%MOMM*%
%LPD*%
G01*
G04 APERTURE LIST*
G04 Aperture macros list*
%AMRoundRect*
0 Rectangle with rounded corners*
0 $1 Rounding radius*
0 $2 $3 $4 $5 $6 $7 $8 $9 X,Y pos of 4 corners*
0 Add a 4 corners polygon primitive as box body*
4,1,4,$2,$3,$4,$5,$6,$7,$8,$9,$2,$3,0*
0 Add four circle primitives for the rounded corners*
1,1,$1+$1,$2,$3*
1,1,$1+$1,$4,$5*
1,1,$1+$1,$6,$7*
1,1,$1+$1,$8,$9*
0 Add four rect primitives between the rounded corners*
20,1,$1+$1,$2,$3,$4,$5,0*
20,1,$1+$1,$4,$5,$6,$7,0*
20,1,$1+$1,$6,$7,$8,$9,0*
20,1,$1+$1,$8,$9,$2,$3,0*%
G04 Aperture macros list end*
%ADD10C,0.400000*%
%ADD11C,2.000000*%
%ADD12C,0.150000*%
%ADD13C,0.120000*%
%ADD14RoundRect,0.250000X-0.325000X-0.450000X0.325000X-0.450000X0.325000X0.450000X-0.325000X0.450000X0*%
%ADD15RoundRect,0.250000X0.450000X-0.325000X0.450000X0.325000X-0.450000X0.325000X-0.450000X-0.325000X0*%
%ADD16RoundRect,0.250000X0.350000X0.450000X-0.350000X0.450000X-0.350000X-0.450000X0.350000X-0.450000X0*%
%ADD17RoundRect,0.250000X0.250000X0.750000X-0.250000X0.750000X-0.250000X-0.750000X0.250000X-0.750000X0*%
%ADD18R,3.000000X2.000000*%
G04 APERTURE END LIST*
D10*
X85195000Y-117695000D02*
X84735000Y-118955000D01*
X85165000Y-120515000D02*
X86635000Y-121595000D01*
X86015000Y-119855000D02*
X86635000Y-121595000D01*
X85195000Y-117695000D02*
X85645000Y-118955000D01*
X83085000Y-118975000D02*
X84735000Y-118955000D01*
X87215000Y-118965000D02*
X85645000Y-118955000D01*
X86015000Y-119855000D02*
X87215000Y-118965000D01*
X84335000Y-119865000D02*
X83655000Y-121645000D01*
X85165000Y-120515000D02*
X83655000Y-121645000D01*
X83085000Y-118975000D02*
X84335000Y-119865000D01*
X69955000Y-132935000D02*
X69495000Y-134195000D01*
X69925000Y-135755000D02*
X71395000Y-136835000D01*
X70775000Y-135095000D02*
X71395000Y-136835000D01*
X69955000Y-132935000D02*
X70405000Y-134195000D01*
X67845000Y-134215000D02*
X69495000Y-134195000D01*
X71975000Y-134205000D02*
X70405000Y-134195000D01*
X70775000Y-135095000D02*
X71975000Y-134205000D01*
X69095000Y-135105000D02*
X68415000Y-136885000D01*
X69925000Y-135755000D02*
X68415000Y-136885000D01*
X67845000Y-134215000D02*
X69095000Y-135105000D01*
X112043000Y-131908000D02*
X112493000Y-133168000D01*
X112863000Y-134068000D02*
X113483000Y-135808000D01*
X101993000Y-61318000D02*
X100483000Y-62448000D01*
X109663000Y-88658000D02*
X108983000Y-90438000D01*
X81943000Y-70128000D02*
X83593000Y-70108000D01*
X84053000Y-68848000D02*
X83593000Y-70108000D01*
X102843000Y-60658000D02*
X104043000Y-59768000D01*
X108413000Y-87768000D02*
X110063000Y-87748000D01*
X111343000Y-88648000D02*
X112543000Y-87758000D01*
X69523000Y-103138000D02*
X70143000Y-104878000D01*
X112013000Y-134728000D02*
X113483000Y-135808000D01*
X121523000Y-121018000D02*
X121063000Y-122278000D01*
X107583000Y-103158000D02*
X108033000Y-104418000D01*
X84873000Y-71008000D02*
X86073000Y-70118000D01*
X101993000Y-61318000D02*
X103463000Y-62398000D01*
X70723000Y-102248000D02*
X69153000Y-102238000D01*
X107553000Y-105978000D02*
X109023000Y-107058000D01*
X93913000Y-83618000D02*
X92343000Y-83608000D01*
X110523000Y-86488000D02*
X110063000Y-87748000D01*
X112043000Y-131908000D02*
X111583000Y-133168000D01*
X69523000Y-103138000D02*
X70723000Y-102248000D01*
X110493000Y-89308000D02*
X108983000Y-90438000D01*
X55153000Y-136668000D02*
X56403000Y-137558000D01*
X91033000Y-84518000D02*
X90353000Y-86298000D01*
D11*
X109203000Y-77888000D02*
X136703000Y-107888000D01*
D10*
X84023000Y-71668000D02*
X85493000Y-72748000D01*
X58083000Y-137548000D02*
X58703000Y-139288000D01*
D11*
X96595000Y-42455000D02*
X72495000Y-77055000D01*
D10*
X104043000Y-59768000D02*
X102473000Y-59758000D01*
X84023000Y-71668000D02*
X82513000Y-72798000D01*
D11*
X136703000Y-107888000D02*
X116703000Y-107888000D01*
D10*
X114063000Y-133178000D02*
X112493000Y-133168000D01*
X99913000Y-59778000D02*
X101563000Y-59758000D01*
X92713000Y-84508000D02*
X93333000Y-86248000D01*
X107583000Y-103158000D02*
X107123000Y-104418000D01*
X83193000Y-71018000D02*
X82513000Y-72798000D01*
X110523000Y-86488000D02*
X110973000Y-87748000D01*
X102843000Y-60658000D02*
X103463000Y-62398000D01*
X107553000Y-105978000D02*
X106043000Y-107108000D01*
X57233000Y-138208000D02*
X55723000Y-139338000D01*
X120663000Y-123188000D02*
X119983000Y-124968000D01*
X101163000Y-60668000D02*
X100483000Y-62448000D01*
X89783000Y-83628000D02*
X91433000Y-83608000D01*
X119413000Y-122298000D02*
X121063000Y-122278000D01*
X102023000Y-58498000D02*
X101563000Y-59758000D01*
X66593000Y-102258000D02*
X67843000Y-103148000D01*
D11*
X76703000Y-107888000D02*
X46703000Y-141888000D01*
D10*
X119413000Y-122298000D02*
X120663000Y-123188000D01*
D11*
X71703000Y-77888000D02*
X84203000Y-77888000D01*
D10*
X102023000Y-58498000D02*
X102473000Y-59758000D01*
X108403000Y-105318000D02*
X109023000Y-107058000D01*
X121523000Y-121018000D02*
X121973000Y-122278000D01*
X105473000Y-104438000D02*
X106723000Y-105328000D01*
D11*
X116703000Y-107888000D02*
X146703000Y-141888000D01*
D10*
X57263000Y-135388000D02*
X56803000Y-136648000D01*
D11*
X76703000Y-107888000D02*
X56703000Y-107888000D01*
X84203000Y-77888000D02*
X56703000Y-107888000D01*
D10*
X112543000Y-87758000D02*
X110973000Y-87748000D01*
X121493000Y-123838000D02*
X119983000Y-124968000D01*
X68703000Y-100978000D02*
X68243000Y-102238000D01*
X91893000Y-82348000D02*
X91433000Y-83608000D01*
X105473000Y-104438000D02*
X107123000Y-104418000D01*
X68673000Y-103798000D02*
X67163000Y-104928000D01*
X89783000Y-83628000D02*
X91033000Y-84518000D01*
D11*
X146703000Y-141888000D02*
X46703000Y-141888000D01*
D10*
X81943000Y-70128000D02*
X83193000Y-71018000D01*
X109933000Y-133188000D02*
X111583000Y-133168000D01*
X112863000Y-134068000D02*
X114063000Y-133178000D01*
X58083000Y-137548000D02*
X59283000Y-136658000D01*
D11*
X109203000Y-77888000D02*
X121703000Y-77888000D01*
D10*
X91893000Y-82348000D02*
X92343000Y-83608000D01*
X68703000Y-100978000D02*
X69153000Y-102238000D01*
X108403000Y-105318000D02*
X109603000Y-104428000D01*
X66593000Y-102258000D02*
X68243000Y-102238000D01*
X106723000Y-105328000D02*
X106043000Y-107108000D01*
X56403000Y-137558000D02*
X55723000Y-139338000D01*
X122343000Y-123178000D02*
X122963000Y-124918000D01*
X109933000Y-133188000D02*
X111183000Y-134078000D01*
X99913000Y-59778000D02*
X101163000Y-60668000D01*
X57263000Y-135388000D02*
X57713000Y-136648000D01*
X92713000Y-84508000D02*
X93913000Y-83618000D01*
X67843000Y-103148000D02*
X67163000Y-104928000D01*
X108413000Y-87768000D02*
X109663000Y-88658000D01*
X110493000Y-89308000D02*
X111963000Y-90388000D01*
X84053000Y-68848000D02*
X84503000Y-70108000D01*
X121493000Y-123838000D02*
X122963000Y-124918000D01*
D11*
X96595000Y-42455000D02*
X121703000Y-77888000D01*
D10*
X111343000Y-88648000D02*
X111963000Y-90388000D01*
X112013000Y-134728000D02*
X110503000Y-135858000D01*
X84873000Y-71008000D02*
X85493000Y-72748000D01*
X86073000Y-70118000D02*
X84503000Y-70108000D01*
X91863000Y-85168000D02*
X90353000Y-86298000D01*
X55153000Y-136668000D02*
X56803000Y-136648000D01*
X57233000Y-138208000D02*
X58703000Y-139288000D01*
X122343000Y-123178000D02*
X123543000Y-122288000D01*
X123543000Y-122288000D02*
X121973000Y-122278000D01*
X109603000Y-104428000D02*
X108033000Y-104418000D01*
X68673000Y-103798000D02*
X70143000Y-104878000D01*
X111183000Y-134078000D02*
X110503000Y-135858000D01*
X91863000Y-85168000D02*
X93333000Y-86248000D01*
X59283000Y-136658000D02*
X57713000Y-136648000D01*
D12*
X112837285Y-71926819D02*
X112837285Y-70926819D01*
X112837285Y-70926819D02*
X112599190Y-70926819D01*
X112599190Y-70926819D02*
X112456333Y-70974438D01*
X112456333Y-70974438D02*
X112361095Y-71069676D01*
X112361095Y-71069676D02*
X112313476Y-71164914D01*
X112313476Y-71164914D02*
X112265857Y-71355390D01*
X112265857Y-71355390D02*
X112265857Y-71498247D01*
X112265857Y-71498247D02*
X112313476Y-71688723D01*
X112313476Y-71688723D02*
X112361095Y-71783961D01*
X112361095Y-71783961D02*
X112456333Y-71879200D01*
X112456333Y-71879200D02*
X112599190Y-71926819D01*
X112599190Y-71926819D02*
X112837285Y-71926819D01*
X111313476Y-71926819D02*
X111884904Y-71926819D01*
X111599190Y-71926819D02*
X111599190Y-70926819D01*
X111599190Y-70926819D02*
X111694428Y-71069676D01*
X111694428Y-71069676D02*
X111789666Y-71164914D01*
X111789666Y-71164914D02*
X111884904Y-71212533D01*
X110837285Y-71926819D02*
X110646809Y-71926819D01*
X110646809Y-71926819D02*
X110551571Y-71879200D01*
X110551571Y-71879200D02*
X110503952Y-71831580D01*
X110503952Y-71831580D02*
X110408714Y-71688723D01*
X110408714Y-71688723D02*
X110361095Y-71498247D01*
X110361095Y-71498247D02*
X110361095Y-71117295D01*
X110361095Y-71117295D02*
X110408714Y-71022057D01*
X110408714Y-71022057D02*
X110456333Y-70974438D01*
X110456333Y-70974438D02*
X110551571Y-70926819D01*
X110551571Y-70926819D02*
X110742047Y-70926819D01*
X110742047Y-70926819D02*
X110837285Y-70974438D01*
X110837285Y-70974438D02*
X110884904Y-71022057D01*
X110884904Y-71022057D02*
X110932523Y-71117295D01*
X110932523Y-71117295D02*
X110932523Y-71355390D01*
X110932523Y-71355390D02*
X110884904Y-71450628D01*
X110884904Y-71450628D02*
X110837285Y-71498247D01*
X110837285Y-71498247D02*
X110742047Y-71545866D01*
X110742047Y-71545866D02*
X110551571Y-71545866D01*
X110551571Y-71545866D02*
X110456333Y-71498247D01*
X110456333Y-71498247D02*
X110408714Y-71450628D01*
X110408714Y-71450628D02*
X110361095Y-71355390D01*
X126939285Y-102914819D02*
X126939285Y-101914819D01*
X126939285Y-101914819D02*
X126701190Y-101914819D01*
X126701190Y-101914819D02*
X126558333Y-101962438D01*
X126558333Y-101962438D02*
X126463095Y-102057676D01*
X126463095Y-102057676D02*
X126415476Y-102152914D01*
X126415476Y-102152914D02*
X126367857Y-102343390D01*
X126367857Y-102343390D02*
X126367857Y-102486247D01*
X126367857Y-102486247D02*
X126415476Y-102676723D01*
X126415476Y-102676723D02*
X126463095Y-102771961D01*
X126463095Y-102771961D02*
X126558333Y-102867200D01*
X126558333Y-102867200D02*
X126701190Y-102914819D01*
X126701190Y-102914819D02*
X126939285Y-102914819D01*
X125986904Y-102010057D02*
X125939285Y-101962438D01*
X125939285Y-101962438D02*
X125844047Y-101914819D01*
X125844047Y-101914819D02*
X125605952Y-101914819D01*
X125605952Y-101914819D02*
X125510714Y-101962438D01*
X125510714Y-101962438D02*
X125463095Y-102010057D01*
X125463095Y-102010057D02*
X125415476Y-102105295D01*
X125415476Y-102105295D02*
X125415476Y-102200533D01*
X125415476Y-102200533D02*
X125463095Y-102343390D01*
X125463095Y-102343390D02*
X126034523Y-102914819D01*
X126034523Y-102914819D02*
X125415476Y-102914819D01*
X124510714Y-101914819D02*
X124986904Y-101914819D01*
X124986904Y-101914819D02*
X125034523Y-102391009D01*
X125034523Y-102391009D02*
X124986904Y-102343390D01*
X124986904Y-102343390D02*
X124891666Y-102295771D01*
X124891666Y-102295771D02*
X124653571Y-102295771D01*
X124653571Y-102295771D02*
X124558333Y-102343390D01*
X124558333Y-102343390D02*
X124510714Y-102391009D01*
X124510714Y-102391009D02*
X124463095Y-102486247D01*
X124463095Y-102486247D02*
X124463095Y-102724342D01*
X124463095Y-102724342D02*
X124510714Y-102819580D01*
X124510714Y-102819580D02*
X124558333Y-102867200D01*
X124558333Y-102867200D02*
X124653571Y-102914819D01*
X124653571Y-102914819D02*
X124891666Y-102914819D01*
X124891666Y-102914819D02*
X124986904Y-102867200D01*
X124986904Y-102867200D02*
X125034523Y-102819580D01*
X94737285Y-57852819D02*
X94737285Y-56852819D01*
X94737285Y-56852819D02*
X94499190Y-56852819D01*
X94499190Y-56852819D02*
X94356333Y-56900438D01*
X94356333Y-56900438D02*
X94261095Y-56995676D01*
X94261095Y-56995676D02*
X94213476Y-57090914D01*
X94213476Y-57090914D02*
X94165857Y-57281390D01*
X94165857Y-57281390D02*
X94165857Y-57424247D01*
X94165857Y-57424247D02*
X94213476Y-57614723D01*
X94213476Y-57614723D02*
X94261095Y-57709961D01*
X94261095Y-57709961D02*
X94356333Y-57805200D01*
X94356333Y-57805200D02*
X94499190Y-57852819D01*
X94499190Y-57852819D02*
X94737285Y-57852819D01*
X93784904Y-56948057D02*
X93737285Y-56900438D01*
X93737285Y-56900438D02*
X93642047Y-56852819D01*
X93642047Y-56852819D02*
X93403952Y-56852819D01*
X93403952Y-56852819D02*
X93308714Y-56900438D01*
X93308714Y-56900438D02*
X93261095Y-56948057D01*
X93261095Y-56948057D02*
X93213476Y-57043295D01*
X93213476Y-57043295D02*
X93213476Y-57138533D01*
X93213476Y-57138533D02*
X93261095Y-57281390D01*
X93261095Y-57281390D02*
X93832523Y-57852819D01*
X93832523Y-57852819D02*
X93213476Y-57852819D01*
X92880142Y-56852819D02*
X92261095Y-56852819D01*
X92261095Y-56852819D02*
X92594428Y-57233771D01*
X92594428Y-57233771D02*
X92451571Y-57233771D01*
X92451571Y-57233771D02*
X92356333Y-57281390D01*
X92356333Y-57281390D02*
X92308714Y-57329009D01*
X92308714Y-57329009D02*
X92261095Y-57424247D01*
X92261095Y-57424247D02*
X92261095Y-57662342D01*
X92261095Y-57662342D02*
X92308714Y-57757580D01*
X92308714Y-57757580D02*
X92356333Y-57805200D01*
X92356333Y-57805200D02*
X92451571Y-57852819D01*
X92451571Y-57852819D02*
X92737285Y-57852819D01*
X92737285Y-57852819D02*
X92832523Y-57805200D01*
X92832523Y-57805200D02*
X92880142Y-57757580D01*
X106265857Y-72752819D02*
X106599190Y-72276628D01*
X106837285Y-72752819D02*
X106837285Y-71752819D01*
X106837285Y-71752819D02*
X106456333Y-71752819D01*
X106456333Y-71752819D02*
X106361095Y-71800438D01*
X106361095Y-71800438D02*
X106313476Y-71848057D01*
X106313476Y-71848057D02*
X106265857Y-71943295D01*
X106265857Y-71943295D02*
X106265857Y-72086152D01*
X106265857Y-72086152D02*
X106313476Y-72181390D01*
X106313476Y-72181390D02*
X106361095Y-72229009D01*
X106361095Y-72229009D02*
X106456333Y-72276628D01*
X106456333Y-72276628D02*
X106837285Y-72276628D01*
X105884904Y-71848057D02*
X105837285Y-71800438D01*
X105837285Y-71800438D02*
X105742047Y-71752819D01*
X105742047Y-71752819D02*
X105503952Y-71752819D01*
X105503952Y-71752819D02*
X105408714Y-71800438D01*
X105408714Y-71800438D02*
X105361095Y-71848057D01*
X105361095Y-71848057D02*
X105313476Y-71943295D01*
X105313476Y-71943295D02*
X105313476Y-72038533D01*
X105313476Y-72038533D02*
X105361095Y-72181390D01*
X105361095Y-72181390D02*
X105932523Y-72752819D01*
X105932523Y-72752819D02*
X105313476Y-72752819D01*
X104980142Y-71752819D02*
X104361095Y-71752819D01*
X104361095Y-71752819D02*
X104694428Y-72133771D01*
X104694428Y-72133771D02*
X104551571Y-72133771D01*
X104551571Y-72133771D02*
X104456333Y-72181390D01*
X104456333Y-72181390D02*
X104408714Y-72229009D01*
X104408714Y-72229009D02*
X104361095Y-72324247D01*
X104361095Y-72324247D02*
X104361095Y-72562342D01*
X104361095Y-72562342D02*
X104408714Y-72657580D01*
X104408714Y-72657580D02*
X104456333Y-72705200D01*
X104456333Y-72705200D02*
X104551571Y-72752819D01*
X104551571Y-72752819D02*
X104837285Y-72752819D01*
X104837285Y-72752819D02*
X104932523Y-72705200D01*
X104932523Y-72705200D02*
X104980142Y-72657580D01*
X119765857Y-103804819D02*
X120099190Y-103328628D01*
X120337285Y-103804819D02*
X120337285Y-102804819D01*
X120337285Y-102804819D02*
X119956333Y-102804819D01*
X119956333Y-102804819D02*
X119861095Y-102852438D01*
X119861095Y-102852438D02*
X119813476Y-102900057D01*
X119813476Y-102900057D02*
X119765857Y-102995295D01*
X119765857Y-102995295D02*
X119765857Y-103138152D01*
X119765857Y-103138152D02*
X119813476Y-103233390D01*
X119813476Y-103233390D02*
X119861095Y-103281009D01*
X119861095Y-103281009D02*
X119956333Y-103328628D01*
X119956333Y-103328628D02*
X120337285Y-103328628D01*
X119384904Y-102900057D02*
X119337285Y-102852438D01*
X119337285Y-102852438D02*
X119242047Y-102804819D01*
X119242047Y-102804819D02*
X119003952Y-102804819D01*
X119003952Y-102804819D02*
X118908714Y-102852438D01*
X118908714Y-102852438D02*
X118861095Y-102900057D01*
X118861095Y-102900057D02*
X118813476Y-102995295D01*
X118813476Y-102995295D02*
X118813476Y-103090533D01*
X118813476Y-103090533D02*
X118861095Y-103233390D01*
X118861095Y-103233390D02*
X119432523Y-103804819D01*
X119432523Y-103804819D02*
X118813476Y-103804819D01*
X118337285Y-103804819D02*
X118146809Y-103804819D01*
X118146809Y-103804819D02*
X118051571Y-103757200D01*
X118051571Y-103757200D02*
X118003952Y-103709580D01*
X118003952Y-103709580D02*
X117908714Y-103566723D01*
X117908714Y-103566723D02*
X117861095Y-103376247D01*
X117861095Y-103376247D02*
X117861095Y-102995295D01*
X117861095Y-102995295D02*
X117908714Y-102900057D01*
X117908714Y-102900057D02*
X117956333Y-102852438D01*
X117956333Y-102852438D02*
X118051571Y-102804819D01*
X118051571Y-102804819D02*
X118242047Y-102804819D01*
X118242047Y-102804819D02*
X118337285Y-102852438D01*
X118337285Y-102852438D02*
X118384904Y-102900057D01*
X118384904Y-102900057D02*
X118432523Y-102995295D01*
X118432523Y-102995295D02*
X118432523Y-103233390D01*
X118432523Y-103233390D02*
X118384904Y-103328628D01*
X118384904Y-103328628D02*
X118337285Y-103376247D01*
X118337285Y-103376247D02*
X118242047Y-103423866D01*
X118242047Y-103423866D02*
X118051571Y-103423866D01*
X118051571Y-103423866D02*
X117956333Y-103376247D01*
X117956333Y-103376247D02*
X117908714Y-103328628D01*
X117908714Y-103328628D02*
X117861095Y-103233390D01*
X83465857Y-92952819D02*
X83799190Y-92476628D01*
X84037285Y-92952819D02*
X84037285Y-91952819D01*
X84037285Y-91952819D02*
X83656333Y-91952819D01*
X83656333Y-91952819D02*
X83561095Y-92000438D01*
X83561095Y-92000438D02*
X83513476Y-92048057D01*
X83513476Y-92048057D02*
X83465857Y-92143295D01*
X83465857Y-92143295D02*
X83465857Y-92286152D01*
X83465857Y-92286152D02*
X83513476Y-92381390D01*
X83513476Y-92381390D02*
X83561095Y-92429009D01*
X83561095Y-92429009D02*
X83656333Y-92476628D01*
X83656333Y-92476628D02*
X84037285Y-92476628D01*
X83084904Y-92048057D02*
X83037285Y-92000438D01*
X83037285Y-92000438D02*
X82942047Y-91952819D01*
X82942047Y-91952819D02*
X82703952Y-91952819D01*
X82703952Y-91952819D02*
X82608714Y-92000438D01*
X82608714Y-92000438D02*
X82561095Y-92048057D01*
X82561095Y-92048057D02*
X82513476Y-92143295D01*
X82513476Y-92143295D02*
X82513476Y-92238533D01*
X82513476Y-92238533D02*
X82561095Y-92381390D01*
X82561095Y-92381390D02*
X83132523Y-92952819D01*
X83132523Y-92952819D02*
X82513476Y-92952819D01*
X81561095Y-92952819D02*
X82132523Y-92952819D01*
X81846809Y-92952819D02*
X81846809Y-91952819D01*
X81846809Y-91952819D02*
X81942047Y-92095676D01*
X81942047Y-92095676D02*
X82037285Y-92190914D01*
X82037285Y-92190914D02*
X82132523Y-92238533D01*
X136845285Y-136442819D02*
X136845285Y-135442819D01*
X136845285Y-135442819D02*
X136607190Y-135442819D01*
X136607190Y-135442819D02*
X136464333Y-135490438D01*
X136464333Y-135490438D02*
X136369095Y-135585676D01*
X136369095Y-135585676D02*
X136321476Y-135680914D01*
X136321476Y-135680914D02*
X136273857Y-135871390D01*
X136273857Y-135871390D02*
X136273857Y-136014247D01*
X136273857Y-136014247D02*
X136321476Y-136204723D01*
X136321476Y-136204723D02*
X136369095Y-136299961D01*
X136369095Y-136299961D02*
X136464333Y-136395200D01*
X136464333Y-136395200D02*
X136607190Y-136442819D01*
X136607190Y-136442819D02*
X136845285Y-136442819D01*
X135321476Y-136442819D02*
X135892904Y-136442819D01*
X135607190Y-136442819D02*
X135607190Y-135442819D01*
X135607190Y-135442819D02*
X135702428Y-135585676D01*
X135702428Y-135585676D02*
X135797666Y-135680914D01*
X135797666Y-135680914D02*
X135892904Y-135728533D01*
X134416714Y-135442819D02*
X134892904Y-135442819D01*
X134892904Y-135442819D02*
X134940523Y-135919009D01*
X134940523Y-135919009D02*
X134892904Y-135871390D01*
X134892904Y-135871390D02*
X134797666Y-135823771D01*
X134797666Y-135823771D02*
X134559571Y-135823771D01*
X134559571Y-135823771D02*
X134464333Y-135871390D01*
X134464333Y-135871390D02*
X134416714Y-135919009D01*
X134416714Y-135919009D02*
X134369095Y-136014247D01*
X134369095Y-136014247D02*
X134369095Y-136252342D01*
X134369095Y-136252342D02*
X134416714Y-136347580D01*
X134416714Y-136347580D02*
X134464333Y-136395200D01*
X134464333Y-136395200D02*
X134559571Y-136442819D01*
X134559571Y-136442819D02*
X134797666Y-136442819D01*
X134797666Y-136442819D02*
X134892904Y-136395200D01*
X134892904Y-136395200D02*
X134940523Y-136347580D01*
X129765857Y-137152819D02*
X130099190Y-136676628D01*
X130337285Y-137152819D02*
X130337285Y-136152819D01*
X130337285Y-136152819D02*
X129956333Y-136152819D01*
X129956333Y-136152819D02*
X129861095Y-136200438D01*
X129861095Y-136200438D02*
X129813476Y-136248057D01*
X129813476Y-136248057D02*
X129765857Y-136343295D01*
X129765857Y-136343295D02*
X129765857Y-136486152D01*
X129765857Y-136486152D02*
X129813476Y-136581390D01*
X129813476Y-136581390D02*
X129861095Y-136629009D01*
X129861095Y-136629009D02*
X129956333Y-136676628D01*
X129956333Y-136676628D02*
X130337285Y-136676628D01*
X128813476Y-137152819D02*
X129384904Y-137152819D01*
X129099190Y-137152819D02*
X129099190Y-136152819D01*
X129099190Y-136152819D02*
X129194428Y-136295676D01*
X129194428Y-136295676D02*
X129289666Y-136390914D01*
X129289666Y-136390914D02*
X129384904Y-136438533D01*
X128337285Y-137152819D02*
X128146809Y-137152819D01*
X128146809Y-137152819D02*
X128051571Y-137105200D01*
X128051571Y-137105200D02*
X128003952Y-137057580D01*
X128003952Y-137057580D02*
X127908714Y-136914723D01*
X127908714Y-136914723D02*
X127861095Y-136724247D01*
X127861095Y-136724247D02*
X127861095Y-136343295D01*
X127861095Y-136343295D02*
X127908714Y-136248057D01*
X127908714Y-136248057D02*
X127956333Y-136200438D01*
X127956333Y-136200438D02*
X128051571Y-136152819D01*
X128051571Y-136152819D02*
X128242047Y-136152819D01*
X128242047Y-136152819D02*
X128337285Y-136200438D01*
X128337285Y-136200438D02*
X128384904Y-136248057D01*
X128384904Y-136248057D02*
X128432523Y-136343295D01*
X128432523Y-136343295D02*
X128432523Y-136581390D01*
X128432523Y-136581390D02*
X128384904Y-136676628D01*
X128384904Y-136676628D02*
X128337285Y-136724247D01*
X128337285Y-136724247D02*
X128242047Y-136771866D01*
X128242047Y-136771866D02*
X128051571Y-136771866D01*
X128051571Y-136771866D02*
X127956333Y-136724247D01*
X127956333Y-136724247D02*
X127908714Y-136676628D01*
X127908714Y-136676628D02*
X127861095Y-136581390D01*
X91765857Y-61152819D02*
X92099190Y-60676628D01*
X92337285Y-61152819D02*
X92337285Y-60152819D01*
X92337285Y-60152819D02*
X91956333Y-60152819D01*
X91956333Y-60152819D02*
X91861095Y-60200438D01*
X91861095Y-60200438D02*
X91813476Y-60248057D01*
X91813476Y-60248057D02*
X91765857Y-60343295D01*
X91765857Y-60343295D02*
X91765857Y-60486152D01*
X91765857Y-60486152D02*
X91813476Y-60581390D01*
X91813476Y-60581390D02*
X91861095Y-60629009D01*
X91861095Y-60629009D02*
X91956333Y-60676628D01*
X91956333Y-60676628D02*
X92337285Y-60676628D01*
X91384904Y-60248057D02*
X91337285Y-60200438D01*
X91337285Y-60200438D02*
X91242047Y-60152819D01*
X91242047Y-60152819D02*
X91003952Y-60152819D01*
X91003952Y-60152819D02*
X90908714Y-60200438D01*
X90908714Y-60200438D02*
X90861095Y-60248057D01*
X90861095Y-60248057D02*
X90813476Y-60343295D01*
X90813476Y-60343295D02*
X90813476Y-60438533D01*
X90813476Y-60438533D02*
X90861095Y-60581390D01*
X90861095Y-60581390D02*
X91432523Y-61152819D01*
X91432523Y-61152819D02*
X90813476Y-61152819D01*
X90480142Y-60152819D02*
X89813476Y-60152819D01*
X89813476Y-60152819D02*
X90242047Y-61152819D01*
X74565857Y-124552819D02*
X74899190Y-124076628D01*
X75137285Y-124552819D02*
X75137285Y-123552819D01*
X75137285Y-123552819D02*
X74756333Y-123552819D01*
X74756333Y-123552819D02*
X74661095Y-123600438D01*
X74661095Y-123600438D02*
X74613476Y-123648057D01*
X74613476Y-123648057D02*
X74565857Y-123743295D01*
X74565857Y-123743295D02*
X74565857Y-123886152D01*
X74565857Y-123886152D02*
X74613476Y-123981390D01*
X74613476Y-123981390D02*
X74661095Y-124029009D01*
X74661095Y-124029009D02*
X74756333Y-124076628D01*
X74756333Y-124076628D02*
X75137285Y-124076628D01*
X74184904Y-123648057D02*
X74137285Y-123600438D01*
X74137285Y-123600438D02*
X74042047Y-123552819D01*
X74042047Y-123552819D02*
X73803952Y-123552819D01*
X73803952Y-123552819D02*
X73708714Y-123600438D01*
X73708714Y-123600438D02*
X73661095Y-123648057D01*
X73661095Y-123648057D02*
X73613476Y-123743295D01*
X73613476Y-123743295D02*
X73613476Y-123838533D01*
X73613476Y-123838533D02*
X73661095Y-123981390D01*
X73661095Y-123981390D02*
X74232523Y-124552819D01*
X74232523Y-124552819D02*
X73613476Y-124552819D01*
X72708714Y-123552819D02*
X73184904Y-123552819D01*
X73184904Y-123552819D02*
X73232523Y-124029009D01*
X73232523Y-124029009D02*
X73184904Y-123981390D01*
X73184904Y-123981390D02*
X73089666Y-123933771D01*
X73089666Y-123933771D02*
X72851571Y-123933771D01*
X72851571Y-123933771D02*
X72756333Y-123981390D01*
X72756333Y-123981390D02*
X72708714Y-124029009D01*
X72708714Y-124029009D02*
X72661095Y-124124247D01*
X72661095Y-124124247D02*
X72661095Y-124362342D01*
X72661095Y-124362342D02*
X72708714Y-124457580D01*
X72708714Y-124457580D02*
X72756333Y-124505200D01*
X72756333Y-124505200D02*
X72851571Y-124552819D01*
X72851571Y-124552819D02*
X73089666Y-124552819D01*
X73089666Y-124552819D02*
X73184904Y-124505200D01*
X73184904Y-124505200D02*
X73232523Y-124457580D01*
X75687285Y-117392819D02*
X75687285Y-116392819D01*
X75687285Y-116392819D02*
X75449190Y-116392819D01*
X75449190Y-116392819D02*
X75306333Y-116440438D01*
X75306333Y-116440438D02*
X75211095Y-116535676D01*
X75211095Y-116535676D02*
X75163476Y-116630914D01*
X75163476Y-116630914D02*
X75115857Y-116821390D01*
X75115857Y-116821390D02*
X75115857Y-116964247D01*
X75115857Y-116964247D02*
X75163476Y-117154723D01*
X75163476Y-117154723D02*
X75211095Y-117249961D01*
X75211095Y-117249961D02*
X75306333Y-117345200D01*
X75306333Y-117345200D02*
X75449190Y-117392819D01*
X75449190Y-117392819D02*
X75687285Y-117392819D01*
X74734904Y-116488057D02*
X74687285Y-116440438D01*
X74687285Y-116440438D02*
X74592047Y-116392819D01*
X74592047Y-116392819D02*
X74353952Y-116392819D01*
X74353952Y-116392819D02*
X74258714Y-116440438D01*
X74258714Y-116440438D02*
X74211095Y-116488057D01*
X74211095Y-116488057D02*
X74163476Y-116583295D01*
X74163476Y-116583295D02*
X74163476Y-116678533D01*
X74163476Y-116678533D02*
X74211095Y-116821390D01*
X74211095Y-116821390D02*
X74782523Y-117392819D01*
X74782523Y-117392819D02*
X74163476Y-117392819D01*
X73211095Y-117392819D02*
X73782523Y-117392819D01*
X73496809Y-117392819D02*
X73496809Y-116392819D01*
X73496809Y-116392819D02*
X73592047Y-116535676D01*
X73592047Y-116535676D02*
X73687285Y-116630914D01*
X73687285Y-116630914D02*
X73782523Y-116678533D01*
X85283285Y-88436819D02*
X85283285Y-87436819D01*
X85283285Y-87436819D02*
X85045190Y-87436819D01*
X85045190Y-87436819D02*
X84902333Y-87484438D01*
X84902333Y-87484438D02*
X84807095Y-87579676D01*
X84807095Y-87579676D02*
X84759476Y-87674914D01*
X84759476Y-87674914D02*
X84711857Y-87865390D01*
X84711857Y-87865390D02*
X84711857Y-88008247D01*
X84711857Y-88008247D02*
X84759476Y-88198723D01*
X84759476Y-88198723D02*
X84807095Y-88293961D01*
X84807095Y-88293961D02*
X84902333Y-88389200D01*
X84902333Y-88389200D02*
X85045190Y-88436819D01*
X85045190Y-88436819D02*
X85283285Y-88436819D01*
X83759476Y-88436819D02*
X84330904Y-88436819D01*
X84045190Y-88436819D02*
X84045190Y-87436819D01*
X84045190Y-87436819D02*
X84140428Y-87579676D01*
X84140428Y-87579676D02*
X84235666Y-87674914D01*
X84235666Y-87674914D02*
X84330904Y-87722533D01*
X83426142Y-87436819D02*
X82759476Y-87436819D01*
X82759476Y-87436819D02*
X83188047Y-88436819D01*
D13*
X111673000Y-72798000D02*
X114533000Y-72798000D01*
X111673000Y-74718000D02*
X111673000Y-72798000D01*
X114533000Y-74718000D02*
X111673000Y-74718000D01*
X126151000Y-104040000D02*
X129011000Y-104040000D01*
X126151000Y-105960000D02*
X126151000Y-104040000D01*
X129011000Y-105960000D02*
X126151000Y-105960000D01*
X90863000Y-55933000D02*
X90863000Y-53073000D01*
X92783000Y-55933000D02*
X90863000Y-55933000D01*
X92783000Y-53073000D02*
X92783000Y-55933000D01*
X109696064Y-74493000D02*
X109241936Y-74493000D01*
X109696064Y-73023000D02*
X109241936Y-73023000D01*
X123238064Y-105735000D02*
X122783936Y-105735000D01*
X123238064Y-104265000D02*
X122783936Y-104265000D01*
X79050064Y-92808000D02*
X78595936Y-92808000D01*
X79050064Y-91338000D02*
X78595936Y-91338000D01*
X136311000Y-137568000D02*
X139171000Y-137568000D01*
X136311000Y-139488000D02*
X136311000Y-137568000D01*
X139171000Y-139488000D02*
X136311000Y-139488000D01*
X133398064Y-139263000D02*
X132943936Y-139263000D01*
X133398064Y-137793000D02*
X132943936Y-137793000D01*
X90050064Y-58833000D02*
X89595936Y-58833000D01*
X90050064Y-57363000D02*
X89595936Y-57363000D01*
X70137564Y-125833000D02*
X69683436Y-125833000D01*
X70137564Y-124363000D02*
X69683436Y-124363000D01*
X71863000Y-121933000D02*
X71863000Y-119073000D01*
X73783000Y-121933000D02*
X71863000Y-121933000D01*
X73783000Y-119073000D02*
X73783000Y-121933000D01*
X79863000Y-89958000D02*
X79863000Y-87098000D01*
X81783000Y-89958000D02*
X79863000Y-89958000D01*
X81783000Y-87098000D02*
X81783000Y-89958000D01*
%LPC*%
D14*
X112508000Y-73758000D03*
X114558000Y-73758000D03*
X126986000Y-105000000D03*
X129036000Y-105000000D03*
D15*
X91823000Y-55098000D03*
X91823000Y-53048000D03*
D16*
X110469000Y-73758000D03*
X108469000Y-73758000D03*
D17*
X98293000Y-49247000D03*
D16*
X124011000Y-105000000D03*
X122011000Y-105000000D03*
X79823000Y-92073000D03*
X77823000Y-92073000D03*
D17*
X95372000Y-49247000D03*
D14*
X137146000Y-138528000D03*
X139196000Y-138528000D03*
D16*
X134171000Y-138528000D03*
X132171000Y-138528000D03*
X90823000Y-58098000D03*
X88823000Y-58098000D03*
D18*
X94823000Y-94208000D03*
X94823000Y-97510000D03*
X94823000Y-100812000D03*
X94823000Y-103860000D03*
D16*
X70910500Y-125098000D03*
X68910500Y-125098000D03*
D15*
X72823000Y-121098000D03*
X72823000Y-119048000D03*
X80823000Y-89123000D03*
X80823000Y-87073000D03*
%LPD*%
M02*
