G04 #@! TF.GenerationSoftware,KiCad,Pcbnew,7.0.8*
G04 #@! TF.CreationDate,2024-10-12T14:27:05+02:00*
G04 #@! TF.ProjectId,PCB_Christmas_Tree,5043425f-4368-4726-9973-746d61735f54,rev?*
G04 #@! TF.SameCoordinates,Original*
G04 #@! TF.FileFunction,Copper,L2,Bot*
G04 #@! TF.FilePolarity,Positive*
%FSLAX46Y46*%
G04 Gerber Fmt 4.6, Leading zero omitted, Abs format (unit mm)*
G04 Created by KiCad (PCBNEW 7.0.8) date 2024-10-12 14:27:05*
%MOMM*%
%LPD*%
G01*
G04 APERTURE LIST*
G04 Aperture macros list*
%AMRoundRect*
0 Rectangle with rounded corners*
0 $1 Rounding radius*
0 $2 $3 $4 $5 $6 $7 $8 $9 X,Y pos of 4 corners*
0 Add a 4 corners polygon primitive as box body*
4,1,4,$2,$3,$4,$5,$6,$7,$8,$9,$2,$3,0*
0 Add four circle primitives for the rounded corners*
1,1,$1+$1,$2,$3*
1,1,$1+$1,$4,$5*
1,1,$1+$1,$6,$7*
1,1,$1+$1,$8,$9*
0 Add four rect primitives between the rounded corners*
20,1,$1+$1,$2,$3,$4,$5,0*
20,1,$1+$1,$4,$5,$6,$7,0*
20,1,$1+$1,$6,$7,$8,$9,0*
20,1,$1+$1,$8,$9,$2,$3,0*%
G04 Aperture macros list end*
G04 #@! TA.AperFunction,SMDPad,CuDef*
%ADD10RoundRect,0.250000X-0.325000X-0.450000X0.325000X-0.450000X0.325000X0.450000X-0.325000X0.450000X0*%
G04 #@! TD*
G04 #@! TA.AperFunction,SMDPad,CuDef*
%ADD11RoundRect,0.250000X0.450000X-0.325000X0.450000X0.325000X-0.450000X0.325000X-0.450000X-0.325000X0*%
G04 #@! TD*
G04 #@! TA.AperFunction,SMDPad,CuDef*
%ADD12RoundRect,0.250000X0.350000X0.450000X-0.350000X0.450000X-0.350000X-0.450000X0.350000X-0.450000X0*%
G04 #@! TD*
G04 #@! TA.AperFunction,SMDPad,CuDef*
%ADD13RoundRect,0.250000X0.250000X0.750000X-0.250000X0.750000X-0.250000X-0.750000X0.250000X-0.750000X0*%
G04 #@! TD*
G04 #@! TA.AperFunction,SMDPad,CuDef*
%ADD14R,3.000000X2.000000*%
G04 #@! TD*
G04 #@! TA.AperFunction,ViaPad*
%ADD15C,0.800000*%
G04 #@! TD*
G04 #@! TA.AperFunction,Conductor*
%ADD16C,0.600000*%
G04 #@! TD*
G04 #@! TA.AperFunction,Conductor*
%ADD17C,0.250000*%
G04 #@! TD*
G04 #@! TA.AperFunction,Conductor*
%ADD18C,1.000000*%
G04 #@! TD*
G04 APERTURE END LIST*
D10*
X112508000Y-73758000D03*
X114558000Y-73758000D03*
X126986000Y-105000000D03*
X129036000Y-105000000D03*
D11*
X91823000Y-55098000D03*
X91823000Y-53048000D03*
D12*
X110469000Y-73758000D03*
X108469000Y-73758000D03*
D13*
X98293000Y-49247000D03*
D12*
X124011000Y-105000000D03*
X122011000Y-105000000D03*
X79823000Y-92073000D03*
X77823000Y-92073000D03*
D13*
X95372000Y-49247000D03*
D10*
X137146000Y-138528000D03*
X139196000Y-138528000D03*
D12*
X134171000Y-138528000D03*
X132171000Y-138528000D03*
X90823000Y-58098000D03*
X88823000Y-58098000D03*
D14*
X94823000Y-94208000D03*
X94823000Y-97510000D03*
X94823000Y-100812000D03*
X94823000Y-103860000D03*
D12*
X70910500Y-125098000D03*
X68910500Y-125098000D03*
D11*
X72823000Y-121098000D03*
X72823000Y-119048000D03*
X80823000Y-89123000D03*
X80823000Y-87073000D03*
D15*
X95423000Y-49298000D03*
X98323000Y-49298000D03*
X94102000Y-93697000D03*
X95626000Y-94713000D03*
X94102000Y-94713000D03*
X99563000Y-94713000D03*
X99563000Y-93697000D03*
X98039000Y-94713000D03*
X95626000Y-93697000D03*
X92197000Y-94208000D03*
X98039000Y-93697000D03*
X111501000Y-99158000D03*
X98039000Y-101317000D03*
X99563000Y-101317000D03*
X106675000Y-99158000D03*
X95626000Y-100301000D03*
X90673000Y-100682000D03*
X95626000Y-101317000D03*
X91689000Y-90776000D03*
X94102000Y-100301000D03*
X98039000Y-100301000D03*
X94102000Y-101317000D03*
X99563000Y-100301000D03*
X95626000Y-98015000D03*
X98039000Y-96999000D03*
X98039000Y-98015000D03*
X101645800Y-82038400D03*
X99563000Y-98015000D03*
X94102000Y-96999000D03*
X95626000Y-96999000D03*
X99563000Y-96999000D03*
X94102000Y-98015000D03*
X101645800Y-93112800D03*
X97023000Y-86458000D03*
X122118200Y-102917200D03*
X91943000Y-122018000D03*
X61310600Y-135937200D03*
X91943000Y-124558000D03*
X103823000Y-119478000D03*
X95753000Y-75028000D03*
X91943000Y-111858000D03*
X94737000Y-106778000D03*
X103823000Y-134718000D03*
X91943000Y-137258000D03*
X68981400Y-126996400D03*
X99004200Y-106778000D03*
X93975000Y-104365000D03*
X118816200Y-91893600D03*
X103823000Y-122018000D03*
X95753000Y-88998000D03*
X93975000Y-103349000D03*
X88844200Y-60092800D03*
X75890200Y-92147600D03*
X95753000Y-59788000D03*
X95753000Y-54708000D03*
X97023000Y-67408000D03*
X91943000Y-119478000D03*
X97023000Y-62328000D03*
X95753000Y-78838000D03*
X63190200Y-138020000D03*
X91943000Y-127098000D03*
X91943000Y-116938000D03*
X99563000Y-103349000D03*
X103823000Y-132178000D03*
X104744600Y-60092800D03*
X77769800Y-94179600D03*
X70657800Y-102714000D03*
X103823000Y-139798000D03*
X103823000Y-114398000D03*
X97023000Y-72488000D03*
X101722000Y-103857000D03*
X77922200Y-89760000D03*
X91943000Y-139798000D03*
X103823000Y-111858000D03*
X103823000Y-137258000D03*
X116835000Y-89861600D03*
X130398600Y-138477200D03*
X103823000Y-109318000D03*
X103823000Y-129638000D03*
X103823000Y-124558000D03*
X126639400Y-123999200D03*
X91943000Y-134718000D03*
X132227400Y-136445200D03*
X102103000Y-106778000D03*
X91943000Y-129638000D03*
X91943000Y-109318000D03*
X120086200Y-104949200D03*
X92095400Y-104034800D03*
X84119800Y-71726000D03*
X98039000Y-104365000D03*
X94483000Y-91538000D03*
X91943000Y-114398000D03*
X95499000Y-104365000D03*
X91943000Y-132178000D03*
X116733400Y-94230400D03*
X97023000Y-57248000D03*
X86344000Y-73561000D03*
X95753000Y-69948000D03*
X103823000Y-127098000D03*
X103823000Y-116938000D03*
X106623000Y-73704000D03*
X72588200Y-104746000D03*
X124759800Y-122018000D03*
X97023000Y-81378000D03*
X98039000Y-103349000D03*
X108503800Y-71675200D03*
X99563000Y-104365000D03*
X95753000Y-64868000D03*
X95753000Y-83918000D03*
X95499000Y-103349000D03*
D16*
X112508000Y-73758000D02*
X110381500Y-73758000D01*
X91823000Y-55894800D02*
X90735500Y-56982300D01*
X91823000Y-55098000D02*
X91823000Y-55894800D01*
X70823000Y-124088000D02*
X70823000Y-125098000D01*
X72823000Y-122088000D02*
X70823000Y-124088000D01*
X90735500Y-56982300D02*
X90735500Y-58098000D01*
X126986000Y-105000000D02*
X123923500Y-105000000D01*
X72823000Y-121098000D02*
X72823000Y-122088000D01*
D17*
X106297000Y-94208000D02*
X100068000Y-94208000D01*
X84176000Y-87073000D02*
X80823000Y-87073000D01*
X100068000Y-94208000D02*
X99563000Y-94713000D01*
X124963000Y-128368000D02*
X108453000Y-111858000D01*
X139196000Y-138528000D02*
X139196000Y-134981000D01*
X139196000Y-134981000D02*
X132583000Y-128368000D01*
X92197000Y-94208000D02*
X94823000Y-94208000D01*
X108453000Y-96364000D02*
X106297000Y-94208000D01*
X92197000Y-94208000D02*
X91311000Y-94208000D01*
X108453000Y-111858000D02*
X108453000Y-96364000D01*
X132583000Y-128368000D02*
X124963000Y-128368000D01*
X91311000Y-94208000D02*
X84176000Y-87073000D01*
X98039000Y-93697000D02*
X95626000Y-93697000D01*
X123194000Y-99158000D02*
X111501000Y-99158000D01*
X102763400Y-100783600D02*
X100096400Y-100783600D01*
X106675000Y-99158000D02*
X104389000Y-99158000D01*
X96108600Y-100834400D02*
X95626000Y-101317000D01*
X104389000Y-99158000D02*
X102763400Y-100783600D01*
X91823000Y-53048000D02*
X93839000Y-53048000D01*
X100096400Y-100783600D02*
X99563000Y-101317000D01*
X90673000Y-100682000D02*
X90803000Y-100812000D01*
X129036000Y-105000000D02*
X123194000Y-99158000D01*
D18*
X97556400Y-100834400D02*
X96108600Y-100834400D01*
D17*
X90803000Y-100812000D02*
X94823000Y-100812000D01*
X98039000Y-101317000D02*
X97556400Y-100834400D01*
X94229000Y-88236000D02*
X91689000Y-90776000D01*
X93839000Y-53048000D02*
X94229000Y-53438000D01*
X94229000Y-53438000D02*
X94229000Y-88236000D01*
X101645800Y-82038400D02*
X101645800Y-93112800D01*
X72823000Y-115992000D02*
X72823000Y-119048000D01*
X107386200Y-76298000D02*
X113533000Y-76298000D01*
X114558000Y-75273000D02*
X114558000Y-73758000D01*
X92095400Y-97510000D02*
X91305000Y-97510000D01*
X101645800Y-82038400D02*
X107386200Y-76298000D01*
D18*
X96210200Y-97583200D02*
X97454800Y-97583200D01*
D17*
X113533000Y-76298000D02*
X114558000Y-75273000D01*
X92095400Y-97510000D02*
X94823000Y-97510000D01*
X91305000Y-97510000D02*
X72823000Y-115992000D01*
X95626000Y-96999000D02*
X96210200Y-97583200D01*
X97454800Y-97583200D02*
X98039000Y-96999000D01*
D16*
X137146000Y-138528000D02*
X134083500Y-138528000D01*
X80823000Y-89123000D02*
X80823000Y-90059600D01*
X79735500Y-91147100D02*
X79735500Y-92073000D01*
X80823000Y-90059600D02*
X79735500Y-91147100D01*
G04 #@! TA.AperFunction,Conductor*
G36*
X97725032Y-43518185D02*
G01*
X97759743Y-43551628D01*
X121686308Y-77902628D01*
X121708472Y-77968889D01*
X121691294Y-78036614D01*
X121640228Y-78084301D01*
X121584558Y-78097500D01*
X109323952Y-78097500D01*
X109323006Y-78097458D01*
X109322902Y-78097500D01*
X109322901Y-78097500D01*
X109322821Y-78097532D01*
X109322634Y-78097601D01*
X109322633Y-78097601D01*
X109322621Y-78097606D01*
X109322545Y-78097791D01*
X109322453Y-78097987D01*
X109322538Y-78098193D01*
X109322603Y-78098370D01*
X109323298Y-78099065D01*
X124205053Y-94333706D01*
X135082946Y-106200499D01*
X136631390Y-107889710D01*
X136662180Y-107952430D01*
X136654173Y-108021839D01*
X136609911Y-108075901D01*
X136543448Y-108097452D01*
X136539983Y-108097500D01*
X116825648Y-108097500D01*
X116823022Y-108097416D01*
X116822585Y-108097580D01*
X116822407Y-108097973D01*
X116822567Y-108098392D01*
X116824370Y-108100309D01*
X146640090Y-141891459D01*
X146669684Y-141954751D01*
X146660362Y-142023996D01*
X146615084Y-142077209D01*
X146548224Y-142097495D01*
X146547110Y-142097500D01*
X102947500Y-142097500D01*
X102880461Y-142077815D01*
X102834706Y-142025011D01*
X102823500Y-141973500D01*
X102823500Y-138778000D01*
X131071001Y-138778000D01*
X131071001Y-139027986D01*
X131081494Y-139130697D01*
X131136641Y-139297119D01*
X131136643Y-139297124D01*
X131228684Y-139446345D01*
X131352654Y-139570315D01*
X131501875Y-139662356D01*
X131501880Y-139662358D01*
X131668302Y-139717505D01*
X131668309Y-139717506D01*
X131771019Y-139727999D01*
X131920999Y-139727999D01*
X131921000Y-139727998D01*
X131921000Y-138778000D01*
X131071001Y-138778000D01*
X102823500Y-138778000D01*
X102823500Y-138278000D01*
X131071000Y-138278000D01*
X131921000Y-138278000D01*
X131921000Y-137328000D01*
X131771027Y-137328000D01*
X131771012Y-137328001D01*
X131668302Y-137338494D01*
X131501880Y-137393641D01*
X131501875Y-137393643D01*
X131352654Y-137485684D01*
X131228684Y-137609654D01*
X131136643Y-137758875D01*
X131136641Y-137758880D01*
X131081494Y-137925302D01*
X131081493Y-137925309D01*
X131071000Y-138028013D01*
X131071000Y-138278000D01*
X102823500Y-138278000D01*
X102823500Y-110122759D01*
X102823528Y-110122616D01*
X102823524Y-110122616D01*
X102823539Y-110098002D01*
X102823541Y-110098000D01*
X102823462Y-110097808D01*
X102823384Y-110097618D01*
X102823382Y-110097616D01*
X102823099Y-110097500D01*
X102823000Y-110097459D01*
X102798446Y-110097459D01*
X102798240Y-110097500D01*
X93491760Y-110097500D01*
X93491554Y-110097459D01*
X93467000Y-110097459D01*
X93466901Y-110097500D01*
X93466617Y-110097616D01*
X93466615Y-110097618D01*
X93466459Y-110097999D01*
X93466476Y-110122616D01*
X93466471Y-110122616D01*
X93466500Y-110122759D01*
X93466500Y-141959537D01*
X93446815Y-142026576D01*
X93394011Y-142072331D01*
X93342537Y-142083537D01*
X47098997Y-142097416D01*
X47031952Y-142077752D01*
X46986181Y-142024961D01*
X46976217Y-141955806D01*
X47005223Y-141892241D01*
X47005907Y-141891459D01*
X61603077Y-125348000D01*
X67810501Y-125348000D01*
X67810501Y-125597986D01*
X67820994Y-125700697D01*
X67876141Y-125867119D01*
X67876143Y-125867124D01*
X67968184Y-126016345D01*
X68092154Y-126140315D01*
X68241375Y-126232356D01*
X68241380Y-126232358D01*
X68407802Y-126287505D01*
X68407809Y-126287506D01*
X68510519Y-126297999D01*
X68660499Y-126297999D01*
X69160500Y-126297999D01*
X69310472Y-126297999D01*
X69310486Y-126297998D01*
X69413197Y-126287505D01*
X69579619Y-126232358D01*
X69579624Y-126232356D01*
X69728842Y-126140317D01*
X69822464Y-126046695D01*
X69883787Y-126013210D01*
X69953479Y-126018194D01*
X69997827Y-126046695D01*
X70091844Y-126140712D01*
X70241166Y-126232814D01*
X70407703Y-126287999D01*
X70510491Y-126298500D01*
X71310508Y-126298499D01*
X71310516Y-126298498D01*
X71310519Y-126298498D01*
X71366802Y-126292748D01*
X71413297Y-126287999D01*
X71579834Y-126232814D01*
X71729156Y-126140712D01*
X71853212Y-126016656D01*
X71945314Y-125867334D01*
X72000499Y-125700797D01*
X72011000Y-125598009D01*
X72010999Y-124597992D01*
X72000499Y-124495203D01*
X71945314Y-124328666D01*
X71945310Y-124328660D01*
X71945309Y-124328657D01*
X71908697Y-124269300D01*
X71890256Y-124201908D01*
X71911178Y-124135244D01*
X71926549Y-124116527D01*
X73420826Y-122622252D01*
X73452816Y-122590262D01*
X73475037Y-122554895D01*
X73479052Y-122549236D01*
X73505091Y-122516587D01*
X73523209Y-122478961D01*
X73526565Y-122472889D01*
X73548789Y-122437522D01*
X73562580Y-122398105D01*
X73565236Y-122391693D01*
X73583360Y-122354061D01*
X73592658Y-122313321D01*
X73594571Y-122306680D01*
X73608368Y-122267255D01*
X73613043Y-122225760D01*
X73614208Y-122218905D01*
X73615726Y-122212249D01*
X73623500Y-122178194D01*
X73623500Y-122157797D01*
X73643185Y-122090758D01*
X73682403Y-122052258D01*
X73741656Y-122015712D01*
X73865712Y-121891656D01*
X73957814Y-121742334D01*
X74012999Y-121575797D01*
X74023500Y-121473009D01*
X74023499Y-120722992D01*
X74012999Y-120620203D01*
X73957814Y-120453666D01*
X73865712Y-120304344D01*
X73741656Y-120180288D01*
X73738819Y-120178538D01*
X73737283Y-120176830D01*
X73735989Y-120175807D01*
X73736163Y-120175585D01*
X73692096Y-120126594D01*
X73680872Y-120057632D01*
X73708713Y-119993549D01*
X73738817Y-119967462D01*
X73741656Y-119965712D01*
X73865712Y-119841656D01*
X73957814Y-119692334D01*
X74012999Y-119525797D01*
X74023500Y-119423009D01*
X74023499Y-118672992D01*
X74012999Y-118570203D01*
X73957814Y-118403666D01*
X73865712Y-118254344D01*
X73741656Y-118130288D01*
X73592334Y-118038186D01*
X73533493Y-118018688D01*
X73476051Y-117978916D01*
X73449228Y-117914400D01*
X73448500Y-117900983D01*
X73448500Y-116302452D01*
X73468185Y-116235413D01*
X73484819Y-116214771D01*
X84339592Y-105359999D01*
X93676552Y-105359999D01*
X93676553Y-105360000D01*
X95969447Y-105360000D01*
X95969447Y-105359999D01*
X94823000Y-104213553D01*
X93676552Y-105359999D01*
X84339592Y-105359999D01*
X89017591Y-100682000D01*
X89767540Y-100682000D01*
X89787326Y-100870256D01*
X89787327Y-100870259D01*
X89845818Y-101050277D01*
X89845821Y-101050284D01*
X89940467Y-101214216D01*
X90001293Y-101281770D01*
X90067129Y-101354888D01*
X90220265Y-101466148D01*
X90220270Y-101466151D01*
X90393192Y-101543142D01*
X90393197Y-101543144D01*
X90578354Y-101582500D01*
X90578355Y-101582500D01*
X90767644Y-101582500D01*
X90767646Y-101582500D01*
X90952803Y-101543144D01*
X91125730Y-101466151D01*
X91126787Y-101465383D01*
X91132570Y-101461182D01*
X91198376Y-101437702D01*
X91205455Y-101437500D01*
X92698501Y-101437500D01*
X92765540Y-101457185D01*
X92811295Y-101509989D01*
X92822501Y-101561500D01*
X92822501Y-101859876D01*
X92828908Y-101919483D01*
X92879202Y-102054328D01*
X92879206Y-102054335D01*
X92965452Y-102169544D01*
X92965455Y-102169547D01*
X93055621Y-102237046D01*
X93097492Y-102292980D01*
X93102476Y-102362671D01*
X93068990Y-102423994D01*
X93055622Y-102435578D01*
X92965809Y-102502812D01*
X92879649Y-102617906D01*
X92879645Y-102617913D01*
X92829403Y-102752620D01*
X92829401Y-102752627D01*
X92823000Y-102812155D01*
X92823000Y-104907844D01*
X92829401Y-104967372D01*
X92829403Y-104967379D01*
X92879645Y-105102086D01*
X92879649Y-105102093D01*
X92965808Y-105217185D01*
X92965817Y-105217194D01*
X93049560Y-105279885D01*
X93049562Y-105279884D01*
X94735318Y-103594128D01*
X94796641Y-103560643D01*
X94866333Y-103565627D01*
X94910680Y-103594128D01*
X96596436Y-105279884D01*
X96680190Y-105217186D01*
X96766350Y-105102093D01*
X96766354Y-105102086D01*
X96816596Y-104967379D01*
X96816598Y-104967372D01*
X96822999Y-104907844D01*
X96823000Y-104907827D01*
X96823000Y-102812172D01*
X96822999Y-102812155D01*
X96816598Y-102752627D01*
X96816596Y-102752620D01*
X96766354Y-102617913D01*
X96766350Y-102617906D01*
X96680190Y-102502813D01*
X96590378Y-102435579D01*
X96548507Y-102379645D01*
X96543523Y-102309953D01*
X96577008Y-102248630D01*
X96590371Y-102237050D01*
X96680546Y-102169546D01*
X96766796Y-102054331D01*
X96817091Y-101919483D01*
X96818552Y-101915567D01*
X96860423Y-101859633D01*
X96925887Y-101835216D01*
X96934734Y-101834900D01*
X97238368Y-101834900D01*
X97305407Y-101854585D01*
X97330516Y-101875926D01*
X97433129Y-101989888D01*
X97433132Y-101989890D01*
X97586265Y-102101148D01*
X97586270Y-102101151D01*
X97759192Y-102178142D01*
X97759197Y-102178144D01*
X97944354Y-102217500D01*
X97944355Y-102217500D01*
X98133644Y-102217500D01*
X98133646Y-102217500D01*
X98318803Y-102178144D01*
X98491730Y-102101151D01*
X98644871Y-101989888D01*
X98708850Y-101918831D01*
X98768337Y-101882183D01*
X98838194Y-101883514D01*
X98893150Y-101918832D01*
X98957129Y-101989888D01*
X99110265Y-102101148D01*
X99110270Y-102101151D01*
X99283192Y-102178142D01*
X99283197Y-102178144D01*
X99468354Y-102217500D01*
X99468355Y-102217500D01*
X99657644Y-102217500D01*
X99657646Y-102217500D01*
X99842803Y-102178144D01*
X100015730Y-102101151D01*
X100168871Y-101989888D01*
X100295533Y-101849216D01*
X100390179Y-101685284D01*
X100448674Y-101505256D01*
X100448674Y-101505255D01*
X100450682Y-101499076D01*
X100452384Y-101499629D01*
X100481434Y-101445832D01*
X100542599Y-101412059D01*
X100569526Y-101409100D01*
X102680657Y-101409100D01*
X102696277Y-101410824D01*
X102696304Y-101410539D01*
X102704060Y-101411271D01*
X102704067Y-101411273D01*
X102773214Y-101409100D01*
X102802750Y-101409100D01*
X102809628Y-101408230D01*
X102815441Y-101407772D01*
X102862027Y-101406309D01*
X102881269Y-101400717D01*
X102900312Y-101396774D01*
X102920192Y-101394264D01*
X102963522Y-101377107D01*
X102969046Y-101375217D01*
X102972796Y-101374127D01*
X103013790Y-101362218D01*
X103031029Y-101352022D01*
X103048503Y-101343462D01*
X103067127Y-101336088D01*
X103067127Y-101336087D01*
X103067132Y-101336086D01*
X103104849Y-101308682D01*
X103109705Y-101305492D01*
X103149820Y-101281770D01*
X103163989Y-101267599D01*
X103178779Y-101254968D01*
X103194987Y-101243194D01*
X103224699Y-101207276D01*
X103228612Y-101202976D01*
X104611771Y-99819819D01*
X104673094Y-99786334D01*
X104699452Y-99783500D01*
X105971252Y-99783500D01*
X106038291Y-99803185D01*
X106063400Y-99824526D01*
X106069126Y-99830885D01*
X106069130Y-99830889D01*
X106222265Y-99942148D01*
X106222270Y-99942151D01*
X106395192Y-100019142D01*
X106395197Y-100019144D01*
X106580354Y-100058500D01*
X106580355Y-100058500D01*
X106769644Y-100058500D01*
X106769646Y-100058500D01*
X106954803Y-100019144D01*
X107127730Y-99942151D01*
X107280871Y-99830888D01*
X107407533Y-99690216D01*
X107502179Y-99526284D01*
X107560674Y-99346256D01*
X107580179Y-99160668D01*
X107580892Y-99158936D01*
X107580179Y-99155329D01*
X107578817Y-99142368D01*
X107560674Y-98969744D01*
X107502179Y-98789716D01*
X107407533Y-98625784D01*
X107280871Y-98485112D01*
X107280870Y-98485111D01*
X107127734Y-98373851D01*
X107127729Y-98373848D01*
X106954807Y-98296857D01*
X106954802Y-98296855D01*
X106779055Y-98259500D01*
X106769646Y-98257500D01*
X106580354Y-98257500D01*
X106570945Y-98259500D01*
X106395197Y-98296855D01*
X106395192Y-98296857D01*
X106222270Y-98373848D01*
X106222265Y-98373851D01*
X106069130Y-98485110D01*
X106069126Y-98485114D01*
X106063400Y-98491474D01*
X106003913Y-98528121D01*
X105971252Y-98532500D01*
X104471743Y-98532500D01*
X104456122Y-98530775D01*
X104456095Y-98531061D01*
X104448333Y-98530326D01*
X104379172Y-98532500D01*
X104349649Y-98532500D01*
X104342778Y-98533367D01*
X104336959Y-98533825D01*
X104290374Y-98535289D01*
X104290368Y-98535290D01*
X104271126Y-98540880D01*
X104252087Y-98544823D01*
X104232217Y-98547334D01*
X104232203Y-98547337D01*
X104188883Y-98564488D01*
X104183358Y-98566380D01*
X104138613Y-98579380D01*
X104138610Y-98579381D01*
X104121366Y-98589579D01*
X104103905Y-98598133D01*
X104085274Y-98605510D01*
X104085262Y-98605517D01*
X104047570Y-98632902D01*
X104042687Y-98636109D01*
X104002580Y-98659829D01*
X103988414Y-98673995D01*
X103973624Y-98686627D01*
X103957414Y-98698404D01*
X103957411Y-98698407D01*
X103927710Y-98734309D01*
X103923777Y-98738631D01*
X102540628Y-100121781D01*
X102479305Y-100155266D01*
X102452947Y-100158100D01*
X100553502Y-100158100D01*
X100486463Y-100138415D01*
X100440708Y-100085611D01*
X100435571Y-100072418D01*
X100432348Y-100062500D01*
X100390179Y-99932716D01*
X100295533Y-99768784D01*
X100168871Y-99628112D01*
X100088434Y-99569671D01*
X100015734Y-99516851D01*
X100015729Y-99516848D01*
X99842807Y-99439857D01*
X99842802Y-99439855D01*
X99697001Y-99408865D01*
X99657646Y-99400500D01*
X99468354Y-99400500D01*
X99435897Y-99407398D01*
X99283197Y-99439855D01*
X99283192Y-99439857D01*
X99110270Y-99516848D01*
X99110265Y-99516851D01*
X98957129Y-99628111D01*
X98957128Y-99628112D01*
X98893149Y-99699168D01*
X98833663Y-99735816D01*
X98763806Y-99734485D01*
X98708851Y-99699168D01*
X98644871Y-99628112D01*
X98644870Y-99628111D01*
X98491734Y-99516851D01*
X98491729Y-99516848D01*
X98318807Y-99439857D01*
X98318802Y-99439855D01*
X98173001Y-99408865D01*
X98133646Y-99400500D01*
X97944354Y-99400500D01*
X97911897Y-99407398D01*
X97759197Y-99439855D01*
X97759192Y-99439857D01*
X97586270Y-99516848D01*
X97586265Y-99516851D01*
X97433129Y-99628111D01*
X97306467Y-99768783D01*
X97304670Y-99771897D01*
X97303156Y-99773340D01*
X97302645Y-99774044D01*
X97302516Y-99773950D01*
X97254104Y-99820114D01*
X97197281Y-99833900D01*
X96942384Y-99833900D01*
X96875345Y-99814215D01*
X96829590Y-99761411D01*
X96819094Y-99723151D01*
X96817091Y-99704516D01*
X96766797Y-99569671D01*
X96766793Y-99569664D01*
X96680547Y-99454455D01*
X96680544Y-99454452D01*
X96565335Y-99368206D01*
X96565328Y-99368202D01*
X96430482Y-99317908D01*
X96430483Y-99317908D01*
X96370883Y-99311501D01*
X96370881Y-99311500D01*
X96370873Y-99311500D01*
X96370864Y-99311500D01*
X93275129Y-99311500D01*
X93275123Y-99311501D01*
X93215516Y-99317908D01*
X93080671Y-99368202D01*
X93080664Y-99368206D01*
X92965455Y-99454452D01*
X92965452Y-99454455D01*
X92879206Y-99569664D01*
X92879202Y-99569671D01*
X92828908Y-99704517D01*
X92822501Y-99764116D01*
X92822500Y-99764135D01*
X92822500Y-100062500D01*
X92802815Y-100129539D01*
X92750011Y-100175294D01*
X92698500Y-100186500D01*
X91493800Y-100186500D01*
X91426761Y-100166815D01*
X91401650Y-100145472D01*
X91278870Y-100009111D01*
X91125734Y-99897851D01*
X91125729Y-99897848D01*
X90952807Y-99820857D01*
X90952802Y-99820855D01*
X90777055Y-99783500D01*
X90767646Y-99781500D01*
X90578354Y-99781500D01*
X90568945Y-99783500D01*
X90393197Y-99820855D01*
X90393192Y-99820857D01*
X90220270Y-99897848D01*
X90220265Y-99897851D01*
X90067129Y-100009111D01*
X89940466Y-100149785D01*
X89845821Y-100313715D01*
X89845818Y-100313722D01*
X89787327Y-100493740D01*
X89787326Y-100493744D01*
X89767540Y-100682000D01*
X89017591Y-100682000D01*
X91527772Y-98171819D01*
X91589095Y-98138334D01*
X91615453Y-98135500D01*
X92016381Y-98135500D01*
X92698501Y-98135500D01*
X92765540Y-98155185D01*
X92811295Y-98207989D01*
X92822501Y-98259500D01*
X92822501Y-98557876D01*
X92828908Y-98617483D01*
X92879202Y-98752328D01*
X92879206Y-98752335D01*
X92965452Y-98867544D01*
X92965455Y-98867547D01*
X93080664Y-98953793D01*
X93080671Y-98953797D01*
X93215517Y-99004091D01*
X93215516Y-99004091D01*
X93222444Y-99004835D01*
X93275127Y-99010500D01*
X96370872Y-99010499D01*
X96430483Y-99004091D01*
X96565331Y-98953796D01*
X96680546Y-98867546D01*
X96766796Y-98752331D01*
X96783042Y-98708773D01*
X96799605Y-98664367D01*
X96841476Y-98608433D01*
X96906941Y-98584016D01*
X96915787Y-98583700D01*
X97284108Y-98583700D01*
X97351147Y-98603385D01*
X97376257Y-98624727D01*
X97433128Y-98687887D01*
X97433135Y-98687893D01*
X97586265Y-98799148D01*
X97586270Y-98799151D01*
X97759192Y-98876142D01*
X97759197Y-98876144D01*
X97944354Y-98915500D01*
X97944355Y-98915500D01*
X98133644Y-98915500D01*
X98133646Y-98915500D01*
X98318803Y-98876144D01*
X98491730Y-98799151D01*
X98644871Y-98687888D01*
X98708850Y-98616831D01*
X98768337Y-98580183D01*
X98838194Y-98581514D01*
X98893149Y-98616831D01*
X98935951Y-98664367D01*
X98957129Y-98687888D01*
X99110265Y-98799148D01*
X99110270Y-98799151D01*
X99283192Y-98876142D01*
X99283197Y-98876144D01*
X99468354Y-98915500D01*
X99468355Y-98915500D01*
X99657644Y-98915500D01*
X99657646Y-98915500D01*
X99842803Y-98876144D01*
X100015730Y-98799151D01*
X100168871Y-98687888D01*
X100295533Y-98547216D01*
X100390179Y-98383284D01*
X100448674Y-98203256D01*
X100468460Y-98015000D01*
X100448674Y-97826744D01*
X100390179Y-97646716D01*
X100345308Y-97568997D01*
X100328836Y-97501100D01*
X100345308Y-97445002D01*
X100390179Y-97367284D01*
X100448674Y-97187256D01*
X100468460Y-96999000D01*
X100448674Y-96810744D01*
X100390179Y-96630716D01*
X100295533Y-96466784D01*
X100168871Y-96326112D01*
X100166859Y-96324650D01*
X100015734Y-96214851D01*
X100015729Y-96214848D01*
X99842807Y-96137857D01*
X99842802Y-96137855D01*
X99697001Y-96106865D01*
X99657646Y-96098500D01*
X99468354Y-96098500D01*
X99435897Y-96105398D01*
X99283197Y-96137855D01*
X99283192Y-96137857D01*
X99110270Y-96214848D01*
X99110265Y-96214851D01*
X98957129Y-96326111D01*
X98957128Y-96326112D01*
X98893149Y-96397168D01*
X98833663Y-96433816D01*
X98763806Y-96432485D01*
X98708851Y-96397168D01*
X98644871Y-96326112D01*
X98644870Y-96326111D01*
X98491734Y-96214851D01*
X98491729Y-96214848D01*
X98318807Y-96137857D01*
X98318802Y-96137855D01*
X98173001Y-96106865D01*
X98133646Y-96098500D01*
X97944354Y-96098500D01*
X97911897Y-96105398D01*
X97759197Y-96137855D01*
X97759192Y-96137857D01*
X97586270Y-96214848D01*
X97586265Y-96214851D01*
X97433129Y-96326111D01*
X97306465Y-96466785D01*
X97275338Y-96520700D01*
X97224771Y-96568916D01*
X97167951Y-96582700D01*
X96947493Y-96582700D01*
X96880454Y-96563015D01*
X96834699Y-96510211D01*
X96823670Y-96465324D01*
X96823499Y-96462135D01*
X96823499Y-96462128D01*
X96817091Y-96402517D01*
X96788593Y-96326111D01*
X96766797Y-96267671D01*
X96766793Y-96267664D01*
X96680547Y-96152455D01*
X96680544Y-96152452D01*
X96565335Y-96066206D01*
X96565328Y-96066202D01*
X96430482Y-96015908D01*
X96430483Y-96015908D01*
X96370883Y-96009501D01*
X96370881Y-96009500D01*
X96370873Y-96009500D01*
X96370864Y-96009500D01*
X93275129Y-96009500D01*
X93275123Y-96009501D01*
X93215516Y-96015908D01*
X93080671Y-96066202D01*
X93080664Y-96066206D01*
X92965455Y-96152452D01*
X92965452Y-96152455D01*
X92879206Y-96267664D01*
X92879202Y-96267671D01*
X92828908Y-96402517D01*
X92822501Y-96462116D01*
X92822501Y-96462125D01*
X92822500Y-96462135D01*
X92822500Y-96760500D01*
X92802815Y-96827539D01*
X92750011Y-96873294D01*
X92698500Y-96884500D01*
X91387738Y-96884500D01*
X91372121Y-96882776D01*
X91372094Y-96883062D01*
X91364332Y-96882327D01*
X91295204Y-96884500D01*
X91265650Y-96884500D01*
X91264929Y-96884590D01*
X91258757Y-96885369D01*
X91252945Y-96885826D01*
X91206373Y-96887290D01*
X91206372Y-96887290D01*
X91187129Y-96892881D01*
X91168079Y-96896825D01*
X91148211Y-96899334D01*
X91104884Y-96916488D01*
X91099358Y-96918379D01*
X91054614Y-96931379D01*
X91054610Y-96931381D01*
X91037366Y-96941579D01*
X91019905Y-96950133D01*
X91001274Y-96957510D01*
X91001262Y-96957517D01*
X90963570Y-96984902D01*
X90958687Y-96988109D01*
X90918580Y-97011829D01*
X90904414Y-97025995D01*
X90889624Y-97038627D01*
X90873414Y-97050404D01*
X90873411Y-97050407D01*
X90843710Y-97086309D01*
X90839777Y-97090631D01*
X72439208Y-115491199D01*
X72426951Y-115501020D01*
X72427134Y-115501241D01*
X72421123Y-115506213D01*
X72373772Y-115556636D01*
X72352889Y-115577519D01*
X72352877Y-115577532D01*
X72348621Y-115583017D01*
X72344837Y-115587447D01*
X72312937Y-115621418D01*
X72312936Y-115621420D01*
X72303284Y-115638976D01*
X72292610Y-115655226D01*
X72280329Y-115671061D01*
X72280324Y-115671068D01*
X72261815Y-115713838D01*
X72259245Y-115719084D01*
X72236803Y-115759906D01*
X72231822Y-115779307D01*
X72225521Y-115797710D01*
X72217562Y-115816102D01*
X72217561Y-115816105D01*
X72210271Y-115862127D01*
X72209087Y-115867846D01*
X72197501Y-115912972D01*
X72197500Y-115912982D01*
X72197500Y-115933016D01*
X72195973Y-115952415D01*
X72192840Y-115972194D01*
X72192840Y-115972195D01*
X72197225Y-116018583D01*
X72197500Y-116024421D01*
X72197500Y-117900983D01*
X72177815Y-117968022D01*
X72125011Y-118013777D01*
X72112510Y-118018686D01*
X72053666Y-118038186D01*
X72053663Y-118038187D01*
X71904342Y-118130289D01*
X71780289Y-118254342D01*
X71688187Y-118403663D01*
X71688186Y-118403666D01*
X71633001Y-118570203D01*
X71633001Y-118570204D01*
X71633000Y-118570204D01*
X71622500Y-118672983D01*
X71622500Y-119423001D01*
X71622501Y-119423019D01*
X71633000Y-119525796D01*
X71633001Y-119525799D01*
X71688185Y-119692331D01*
X71688187Y-119692336D01*
X71780289Y-119841657D01*
X71904346Y-119965714D01*
X71907182Y-119967463D01*
X71908717Y-119969170D01*
X71910011Y-119970193D01*
X71909836Y-119970414D01*
X71953905Y-120019411D01*
X71965126Y-120088374D01*
X71937282Y-120152456D01*
X71907182Y-120178537D01*
X71904346Y-120180285D01*
X71780289Y-120304342D01*
X71688187Y-120453663D01*
X71688186Y-120453666D01*
X71633001Y-120620203D01*
X71633001Y-120620204D01*
X71633000Y-120620204D01*
X71622500Y-120722983D01*
X71622500Y-121473001D01*
X71622501Y-121473019D01*
X71633000Y-121575796D01*
X71633001Y-121575799D01*
X71688185Y-121742331D01*
X71688189Y-121742340D01*
X71769628Y-121874374D01*
X71788068Y-121941766D01*
X71767145Y-122008430D01*
X71751770Y-122027151D01*
X70320738Y-123458184D01*
X70193186Y-123585735D01*
X70193183Y-123585739D01*
X70170966Y-123621096D01*
X70166941Y-123626769D01*
X70140910Y-123659410D01*
X70122791Y-123697033D01*
X70119427Y-123703120D01*
X70097212Y-123738476D01*
X70097208Y-123738483D01*
X70083416Y-123777895D01*
X70080755Y-123784320D01*
X70062639Y-123821939D01*
X70053344Y-123862659D01*
X70051419Y-123869341D01*
X70037632Y-123908744D01*
X70032955Y-123950235D01*
X70031791Y-123957089D01*
X70022500Y-123997806D01*
X70022500Y-124049977D01*
X70002815Y-124117016D01*
X69950011Y-124162771D01*
X69880853Y-124172715D01*
X69817297Y-124143690D01*
X69810819Y-124137658D01*
X69728845Y-124055684D01*
X69579624Y-123963643D01*
X69579619Y-123963641D01*
X69413197Y-123908494D01*
X69413190Y-123908493D01*
X69310486Y-123898000D01*
X69160500Y-123898000D01*
X69160500Y-126297999D01*
X68660499Y-126297999D01*
X68660500Y-126297998D01*
X68660500Y-125348000D01*
X67810501Y-125348000D01*
X61603077Y-125348000D01*
X62044253Y-124848000D01*
X67810500Y-124848000D01*
X68660500Y-124848000D01*
X68660500Y-123898000D01*
X68510527Y-123898000D01*
X68510512Y-123898001D01*
X68407802Y-123908494D01*
X68241380Y-123963641D01*
X68241375Y-123963643D01*
X68092154Y-124055684D01*
X67968184Y-124179654D01*
X67876143Y-124328875D01*
X67876141Y-124328880D01*
X67820994Y-124495302D01*
X67820993Y-124495309D01*
X67810500Y-124598013D01*
X67810500Y-124848000D01*
X62044253Y-124848000D01*
X76821664Y-108100268D01*
X76823463Y-108098352D01*
X76823596Y-108097998D01*
X76823594Y-108097908D01*
X76823441Y-108097568D01*
X76823427Y-108097556D01*
X76823059Y-108097417D01*
X76820396Y-108097500D01*
X57106018Y-108097500D01*
X57038979Y-108077815D01*
X56993224Y-108025011D01*
X56983280Y-107955853D01*
X57012305Y-107892297D01*
X57014611Y-107889710D01*
X71284094Y-92323000D01*
X76723001Y-92323000D01*
X76723001Y-92572986D01*
X76733494Y-92675697D01*
X76788641Y-92842119D01*
X76788643Y-92842124D01*
X76880684Y-92991345D01*
X77004654Y-93115315D01*
X77153875Y-93207356D01*
X77153880Y-93207358D01*
X77320302Y-93262505D01*
X77320309Y-93262506D01*
X77423019Y-93272999D01*
X77572999Y-93272999D01*
X78073000Y-93272999D01*
X78222972Y-93272999D01*
X78222986Y-93272998D01*
X78325697Y-93262505D01*
X78492119Y-93207358D01*
X78492124Y-93207356D01*
X78641342Y-93115317D01*
X78734964Y-93021695D01*
X78796287Y-92988210D01*
X78865979Y-92993194D01*
X78910327Y-93021695D01*
X79004344Y-93115712D01*
X79153666Y-93207814D01*
X79320203Y-93262999D01*
X79422991Y-93273500D01*
X80223008Y-93273499D01*
X80223016Y-93273498D01*
X80223019Y-93273498D01*
X80279302Y-93267748D01*
X80325797Y-93262999D01*
X80492334Y-93207814D01*
X80641656Y-93115712D01*
X80765712Y-92991656D01*
X80857814Y-92842334D01*
X80912999Y-92675797D01*
X80923500Y-92573009D01*
X80923499Y-91572992D01*
X80912999Y-91470203D01*
X80857814Y-91303666D01*
X80853279Y-91296314D01*
X80834840Y-91228923D01*
X80855763Y-91162260D01*
X80871132Y-91143544D01*
X81420826Y-90593852D01*
X81452816Y-90561862D01*
X81475037Y-90526495D01*
X81479052Y-90520836D01*
X81505091Y-90488187D01*
X81523209Y-90450561D01*
X81526565Y-90444489D01*
X81548789Y-90409122D01*
X81562580Y-90369705D01*
X81565236Y-90363293D01*
X81583360Y-90325661D01*
X81592658Y-90284921D01*
X81594571Y-90278280D01*
X81608368Y-90238855D01*
X81613043Y-90197360D01*
X81614207Y-90190507D01*
X81621553Y-90158324D01*
X81655661Y-90097345D01*
X81677341Y-90080380D01*
X81741656Y-90040712D01*
X81865712Y-89916656D01*
X81957814Y-89767334D01*
X82012999Y-89600797D01*
X82023500Y-89498009D01*
X82023499Y-88747992D01*
X82022356Y-88736806D01*
X82012999Y-88645203D01*
X82012998Y-88645200D01*
X82011456Y-88640548D01*
X81957814Y-88478666D01*
X81865712Y-88329344D01*
X81741656Y-88205288D01*
X81738819Y-88203538D01*
X81737283Y-88201830D01*
X81735989Y-88200807D01*
X81736163Y-88200585D01*
X81692096Y-88151594D01*
X81680872Y-88082632D01*
X81708713Y-88018549D01*
X81738817Y-87992462D01*
X81741656Y-87990712D01*
X81865712Y-87866656D01*
X81933099Y-87757402D01*
X81985047Y-87710679D01*
X82038638Y-87698500D01*
X83865548Y-87698500D01*
X83932587Y-87718185D01*
X83953229Y-87734819D01*
X90810194Y-94591784D01*
X90820019Y-94604048D01*
X90820240Y-94603866D01*
X90825210Y-94609873D01*
X90825213Y-94609876D01*
X90825214Y-94609877D01*
X90875651Y-94657241D01*
X90896530Y-94678120D01*
X90902004Y-94682366D01*
X90906442Y-94686156D01*
X90940418Y-94718062D01*
X90940422Y-94718064D01*
X90957973Y-94727713D01*
X90974231Y-94738392D01*
X90990064Y-94750674D01*
X91012015Y-94760172D01*
X91032837Y-94769183D01*
X91038081Y-94771752D01*
X91078908Y-94794197D01*
X91098312Y-94799179D01*
X91116710Y-94805478D01*
X91135105Y-94813438D01*
X91181129Y-94820726D01*
X91186832Y-94821907D01*
X91231981Y-94833500D01*
X91252016Y-94833500D01*
X91271413Y-94835026D01*
X91291196Y-94838160D01*
X91337584Y-94833775D01*
X91343422Y-94833500D01*
X91493252Y-94833500D01*
X91560291Y-94853185D01*
X91585400Y-94874526D01*
X91591126Y-94880885D01*
X91591130Y-94880889D01*
X91744265Y-94992148D01*
X91744270Y-94992151D01*
X91917192Y-95069142D01*
X91917197Y-95069144D01*
X92102354Y-95108500D01*
X92102355Y-95108500D01*
X92291644Y-95108500D01*
X92291646Y-95108500D01*
X92476803Y-95069144D01*
X92648066Y-94992891D01*
X92717313Y-94983606D01*
X92780590Y-95013234D01*
X92817804Y-95072369D01*
X92822500Y-95106170D01*
X92822500Y-95255869D01*
X92822501Y-95255876D01*
X92828908Y-95315483D01*
X92879202Y-95450328D01*
X92879206Y-95450335D01*
X92965452Y-95565544D01*
X92965455Y-95565547D01*
X93080664Y-95651793D01*
X93080671Y-95651797D01*
X93215517Y-95702091D01*
X93215516Y-95702091D01*
X93222444Y-95702835D01*
X93275127Y-95708500D01*
X96370872Y-95708499D01*
X96430483Y-95702091D01*
X96565331Y-95651796D01*
X96680546Y-95565546D01*
X96766796Y-95450331D01*
X96817091Y-95315483D01*
X96823500Y-95255873D01*
X96823500Y-94446500D01*
X96843185Y-94379461D01*
X96895989Y-94333706D01*
X96947500Y-94322500D01*
X97048368Y-94322500D01*
X97115407Y-94342185D01*
X97161162Y-94394989D01*
X97171106Y-94464147D01*
X97166300Y-94484813D01*
X97160645Y-94502217D01*
X97153326Y-94524742D01*
X97153326Y-94524744D01*
X97133540Y-94713000D01*
X97153326Y-94901256D01*
X97153327Y-94901259D01*
X97211818Y-95081277D01*
X97211821Y-95081284D01*
X97306467Y-95245216D01*
X97369150Y-95314832D01*
X97433129Y-95385888D01*
X97586265Y-95497148D01*
X97586270Y-95497151D01*
X97759192Y-95574142D01*
X97759197Y-95574144D01*
X97944354Y-95613500D01*
X97944355Y-95613500D01*
X98133644Y-95613500D01*
X98133646Y-95613500D01*
X98318803Y-95574144D01*
X98491730Y-95497151D01*
X98644871Y-95385888D01*
X98708850Y-95314831D01*
X98768337Y-95278183D01*
X98838194Y-95279514D01*
X98893150Y-95314832D01*
X98957129Y-95385888D01*
X99110265Y-95497148D01*
X99110270Y-95497151D01*
X99283192Y-95574142D01*
X99283197Y-95574144D01*
X99468354Y-95613500D01*
X99468355Y-95613500D01*
X99657644Y-95613500D01*
X99657646Y-95613500D01*
X99842803Y-95574144D01*
X100015730Y-95497151D01*
X100168871Y-95385888D01*
X100295533Y-95245216D01*
X100390179Y-95081284D01*
X100442849Y-94919180D01*
X100482286Y-94861507D01*
X100546645Y-94834308D01*
X100560780Y-94833500D01*
X105986548Y-94833500D01*
X106053587Y-94853185D01*
X106074229Y-94869819D01*
X107791181Y-96586771D01*
X107824666Y-96648094D01*
X107827500Y-96674452D01*
X107827500Y-99142368D01*
X107825093Y-99150562D01*
X107825477Y-99151324D01*
X107827500Y-99173631D01*
X107827500Y-111775255D01*
X107825775Y-111790872D01*
X107826061Y-111790899D01*
X107825326Y-111798665D01*
X107827500Y-111867814D01*
X107827500Y-111897343D01*
X107827501Y-111897360D01*
X107828368Y-111904231D01*
X107828826Y-111910050D01*
X107830290Y-111956624D01*
X107830291Y-111956627D01*
X107835880Y-111975867D01*
X107839824Y-111994911D01*
X107842336Y-112014791D01*
X107859490Y-112058119D01*
X107861382Y-112063647D01*
X107874381Y-112108388D01*
X107884580Y-112125634D01*
X107893138Y-112143103D01*
X107900514Y-112161732D01*
X107927898Y-112199423D01*
X107931106Y-112204307D01*
X107954827Y-112244416D01*
X107954833Y-112244424D01*
X107968990Y-112258580D01*
X107981628Y-112273376D01*
X107993405Y-112289586D01*
X107993406Y-112289587D01*
X108029309Y-112319288D01*
X108033620Y-112323210D01*
X120558409Y-124848000D01*
X124462197Y-128751788D01*
X124472022Y-128764051D01*
X124472243Y-128763869D01*
X124477214Y-128769878D01*
X124503217Y-128794295D01*
X124527635Y-128817226D01*
X124548529Y-128838120D01*
X124554011Y-128842373D01*
X124558443Y-128846157D01*
X124592418Y-128878062D01*
X124609976Y-128887714D01*
X124626233Y-128898393D01*
X124642064Y-128910673D01*
X124661737Y-128919186D01*
X124684833Y-128929182D01*
X124690077Y-128931750D01*
X124730908Y-128954197D01*
X124743523Y-128957435D01*
X124750305Y-128959177D01*
X124768719Y-128965481D01*
X124787104Y-128973438D01*
X124833157Y-128980732D01*
X124838826Y-128981906D01*
X124883981Y-128993500D01*
X124904016Y-128993500D01*
X124923413Y-128995026D01*
X124943196Y-128998160D01*
X124989584Y-128993775D01*
X124995422Y-128993500D01*
X132272548Y-128993500D01*
X132339587Y-129013185D01*
X132360229Y-129029819D01*
X138534181Y-135203771D01*
X138567666Y-135265094D01*
X138570500Y-135291452D01*
X138570500Y-137312362D01*
X138550815Y-137379401D01*
X138511598Y-137417899D01*
X138443288Y-137460033D01*
X138402342Y-137485289D01*
X138278285Y-137609346D01*
X138276537Y-137612182D01*
X138274829Y-137613717D01*
X138273807Y-137615011D01*
X138273585Y-137614836D01*
X138224589Y-137658905D01*
X138155626Y-137670126D01*
X138091544Y-137642282D01*
X138065463Y-137612182D01*
X138063714Y-137609346D01*
X137939657Y-137485289D01*
X137939656Y-137485288D01*
X137790334Y-137393186D01*
X137623797Y-137338001D01*
X137623795Y-137338000D01*
X137521010Y-137327500D01*
X136770998Y-137327500D01*
X136770980Y-137327501D01*
X136668203Y-137338000D01*
X136668200Y-137338001D01*
X136501668Y-137393185D01*
X136501663Y-137393187D01*
X136352342Y-137485289D01*
X136228289Y-137609342D01*
X136191741Y-137668597D01*
X136139793Y-137715321D01*
X136086202Y-137727500D01*
X135255798Y-137727500D01*
X135188759Y-137707815D01*
X135150259Y-137668597D01*
X135116409Y-137613717D01*
X135113712Y-137609344D01*
X134989656Y-137485288D01*
X134840334Y-137393186D01*
X134673797Y-137338001D01*
X134673795Y-137338000D01*
X134571010Y-137327500D01*
X133770998Y-137327500D01*
X133770980Y-137327501D01*
X133668203Y-137338000D01*
X133668200Y-137338001D01*
X133501668Y-137393185D01*
X133501663Y-137393187D01*
X133352345Y-137485287D01*
X133258327Y-137579305D01*
X133197003Y-137612789D01*
X133127312Y-137607805D01*
X133082965Y-137579304D01*
X132989345Y-137485684D01*
X132840124Y-137393643D01*
X132840119Y-137393641D01*
X132673697Y-137338494D01*
X132673690Y-137338493D01*
X132570986Y-137328000D01*
X132421000Y-137328000D01*
X132421000Y-139727999D01*
X132570972Y-139727999D01*
X132570986Y-139727998D01*
X132673697Y-139717505D01*
X132840119Y-139662358D01*
X132840124Y-139662356D01*
X132989342Y-139570317D01*
X133082964Y-139476695D01*
X133144287Y-139443210D01*
X133213979Y-139448194D01*
X133258327Y-139476695D01*
X133352344Y-139570712D01*
X133501666Y-139662814D01*
X133668203Y-139717999D01*
X133770991Y-139728500D01*
X134571008Y-139728499D01*
X134571016Y-139728498D01*
X134571019Y-139728498D01*
X134627302Y-139722748D01*
X134673797Y-139717999D01*
X134840334Y-139662814D01*
X134989656Y-139570712D01*
X135113712Y-139446656D01*
X135150259Y-139387402D01*
X135202207Y-139340679D01*
X135255798Y-139328500D01*
X136086202Y-139328500D01*
X136153241Y-139348185D01*
X136191739Y-139387401D01*
X136228288Y-139446656D01*
X136352344Y-139570712D01*
X136501666Y-139662814D01*
X136668203Y-139717999D01*
X136770991Y-139728500D01*
X137521008Y-139728499D01*
X137521016Y-139728498D01*
X137521019Y-139728498D01*
X137577302Y-139722748D01*
X137623797Y-139717999D01*
X137790334Y-139662814D01*
X137939656Y-139570712D01*
X138063712Y-139446656D01*
X138065461Y-139443819D01*
X138067169Y-139442283D01*
X138068193Y-139440989D01*
X138068414Y-139441163D01*
X138117406Y-139397096D01*
X138186368Y-139385872D01*
X138250451Y-139413713D01*
X138276537Y-139443817D01*
X138278288Y-139446656D01*
X138402344Y-139570712D01*
X138551666Y-139662814D01*
X138718203Y-139717999D01*
X138820991Y-139728500D01*
X139571008Y-139728499D01*
X139571016Y-139728498D01*
X139571019Y-139728498D01*
X139627302Y-139722748D01*
X139673797Y-139717999D01*
X139840334Y-139662814D01*
X139989656Y-139570712D01*
X140113712Y-139446656D01*
X140205814Y-139297334D01*
X140260999Y-139130797D01*
X140271500Y-139028009D01*
X140271499Y-138027992D01*
X140260999Y-137925203D01*
X140205814Y-137758666D01*
X140113712Y-137609344D01*
X139989656Y-137485288D01*
X139880402Y-137417900D01*
X139833679Y-137365953D01*
X139821500Y-137312362D01*
X139821500Y-135063737D01*
X139823224Y-135048123D01*
X139822938Y-135048096D01*
X139823672Y-135040333D01*
X139821500Y-134971203D01*
X139821500Y-134941651D01*
X139821500Y-134941650D01*
X139820629Y-134934759D01*
X139820172Y-134928945D01*
X139818709Y-134882373D01*
X139813121Y-134863139D01*
X139809174Y-134844081D01*
X139806664Y-134824208D01*
X139789507Y-134780875D01*
X139787614Y-134775346D01*
X139774618Y-134730614D01*
X139774617Y-134730610D01*
X139764420Y-134713368D01*
X139755863Y-134695902D01*
X139748486Y-134677268D01*
X139721083Y-134639550D01*
X139717900Y-134634705D01*
X139694170Y-134594579D01*
X139694165Y-134594573D01*
X139680005Y-134580413D01*
X139667370Y-134565620D01*
X139655593Y-134549412D01*
X139619693Y-134519713D01*
X139615381Y-134515790D01*
X133083803Y-127984212D01*
X133073980Y-127971950D01*
X133073759Y-127972134D01*
X133068786Y-127966123D01*
X133018364Y-127918773D01*
X133007919Y-127908328D01*
X132997475Y-127897883D01*
X132991986Y-127893625D01*
X132987561Y-127889847D01*
X132953582Y-127857938D01*
X132953580Y-127857936D01*
X132953577Y-127857935D01*
X132936029Y-127848288D01*
X132919763Y-127837604D01*
X132903933Y-127825325D01*
X132861168Y-127806818D01*
X132855922Y-127804248D01*
X132815093Y-127781803D01*
X132815092Y-127781802D01*
X132795693Y-127776822D01*
X132777281Y-127770518D01*
X132758898Y-127762562D01*
X132758892Y-127762560D01*
X132712874Y-127755272D01*
X132707152Y-127754087D01*
X132662021Y-127742500D01*
X132662019Y-127742500D01*
X132641984Y-127742500D01*
X132622586Y-127740973D01*
X132615162Y-127739797D01*
X132602805Y-127737840D01*
X132602804Y-127737840D01*
X132556416Y-127742225D01*
X132550578Y-127742500D01*
X125273452Y-127742500D01*
X125206413Y-127722815D01*
X125185771Y-127706181D01*
X109114819Y-111635228D01*
X109081334Y-111573905D01*
X109078500Y-111547547D01*
X109078500Y-105250000D01*
X120911001Y-105250000D01*
X120911001Y-105499986D01*
X120921494Y-105602697D01*
X120976641Y-105769119D01*
X120976643Y-105769124D01*
X121068684Y-105918345D01*
X121192654Y-106042315D01*
X121341875Y-106134356D01*
X121341880Y-106134358D01*
X121508302Y-106189505D01*
X121508309Y-106189506D01*
X121611019Y-106199999D01*
X121760999Y-106199999D01*
X121761000Y-106199998D01*
X121761000Y-105250000D01*
X120911001Y-105250000D01*
X109078500Y-105250000D01*
X109078500Y-104750000D01*
X120911000Y-104750000D01*
X121761000Y-104750000D01*
X121761000Y-103800000D01*
X121611027Y-103800000D01*
X121611012Y-103800001D01*
X121508302Y-103810494D01*
X121341880Y-103865641D01*
X121341875Y-103865643D01*
X121192654Y-103957684D01*
X121068684Y-104081654D01*
X120976643Y-104230875D01*
X120976641Y-104230880D01*
X120921494Y-104397302D01*
X120921493Y-104397309D01*
X120911000Y-104500013D01*
X120911000Y-104750000D01*
X109078500Y-104750000D01*
X109078500Y-99158000D01*
X110595540Y-99158000D01*
X110615326Y-99346256D01*
X110615327Y-99346259D01*
X110673818Y-99526277D01*
X110673821Y-99526284D01*
X110768467Y-99690216D01*
X110870185Y-99803185D01*
X110895129Y-99830888D01*
X111048265Y-99942148D01*
X111048270Y-99942151D01*
X111221192Y-100019142D01*
X111221197Y-100019144D01*
X111406354Y-100058500D01*
X111406355Y-100058500D01*
X111595644Y-100058500D01*
X111595646Y-100058500D01*
X111780803Y-100019144D01*
X111953730Y-99942151D01*
X112106871Y-99830888D01*
X112109788Y-99827647D01*
X112112600Y-99824526D01*
X112172087Y-99787879D01*
X112204748Y-99783500D01*
X122883548Y-99783500D01*
X122950587Y-99803185D01*
X122971229Y-99819819D01*
X126739229Y-103587819D01*
X126772714Y-103649142D01*
X126767730Y-103718834D01*
X126725858Y-103774767D01*
X126660394Y-103799184D01*
X126651551Y-103799500D01*
X126611000Y-103799500D01*
X126610980Y-103799501D01*
X126508203Y-103810000D01*
X126508200Y-103810001D01*
X126341668Y-103865185D01*
X126341663Y-103865187D01*
X126192342Y-103957289D01*
X126068289Y-104081342D01*
X126031741Y-104140597D01*
X125979793Y-104187321D01*
X125926202Y-104199500D01*
X125095798Y-104199500D01*
X125028759Y-104179815D01*
X124990259Y-104140597D01*
X124953712Y-104081344D01*
X124829656Y-103957288D01*
X124680334Y-103865186D01*
X124513797Y-103810001D01*
X124513795Y-103810000D01*
X124411010Y-103799500D01*
X123610998Y-103799500D01*
X123610980Y-103799501D01*
X123508203Y-103810000D01*
X123508200Y-103810001D01*
X123341668Y-103865185D01*
X123341663Y-103865187D01*
X123192345Y-103957287D01*
X123098327Y-104051305D01*
X123037003Y-104084789D01*
X122967312Y-104079805D01*
X122922965Y-104051304D01*
X122829345Y-103957684D01*
X122680124Y-103865643D01*
X122680119Y-103865641D01*
X122513697Y-103810494D01*
X122513690Y-103810493D01*
X122410986Y-103800000D01*
X122261000Y-103800000D01*
X122261000Y-106199999D01*
X122410972Y-106199999D01*
X122410986Y-106199998D01*
X122513697Y-106189505D01*
X122680119Y-106134358D01*
X122680124Y-106134356D01*
X122829342Y-106042317D01*
X122922964Y-105948695D01*
X122984287Y-105915210D01*
X123053979Y-105920194D01*
X123098327Y-105948695D01*
X123192344Y-106042712D01*
X123341666Y-106134814D01*
X123508203Y-106189999D01*
X123610991Y-106200500D01*
X124411008Y-106200499D01*
X124411016Y-106200498D01*
X124411019Y-106200498D01*
X124467302Y-106194748D01*
X124513797Y-106189999D01*
X124680334Y-106134814D01*
X124829656Y-106042712D01*
X124953712Y-105918656D01*
X124990259Y-105859402D01*
X125042207Y-105812679D01*
X125095798Y-105800500D01*
X125926202Y-105800500D01*
X125993241Y-105820185D01*
X126031739Y-105859401D01*
X126068288Y-105918656D01*
X126192344Y-106042712D01*
X126341666Y-106134814D01*
X126508203Y-106189999D01*
X126610991Y-106200500D01*
X127361008Y-106200499D01*
X127361016Y-106200498D01*
X127361019Y-106200498D01*
X127417302Y-106194748D01*
X127463797Y-106189999D01*
X127630334Y-106134814D01*
X127779656Y-106042712D01*
X127903712Y-105918656D01*
X127905461Y-105915819D01*
X127907169Y-105914283D01*
X127908193Y-105912989D01*
X127908414Y-105913163D01*
X127957406Y-105869096D01*
X128026368Y-105857872D01*
X128090451Y-105885713D01*
X128116537Y-105915817D01*
X128118288Y-105918656D01*
X128242344Y-106042712D01*
X128391666Y-106134814D01*
X128558203Y-106189999D01*
X128660991Y-106200500D01*
X129411008Y-106200499D01*
X129411016Y-106200498D01*
X129411019Y-106200498D01*
X129467302Y-106194748D01*
X129513797Y-106189999D01*
X129680334Y-106134814D01*
X129829656Y-106042712D01*
X129953712Y-105918656D01*
X130045814Y-105769334D01*
X130100999Y-105602797D01*
X130111500Y-105500009D01*
X130111499Y-104499992D01*
X130100999Y-104397203D01*
X130045814Y-104230666D01*
X129953712Y-104081344D01*
X129829656Y-103957288D01*
X129680334Y-103865186D01*
X129513797Y-103810001D01*
X129513795Y-103810000D01*
X129411016Y-103799500D01*
X129411009Y-103799500D01*
X128771453Y-103799500D01*
X128704414Y-103779815D01*
X128683772Y-103763181D01*
X123694803Y-98774212D01*
X123684980Y-98761950D01*
X123684759Y-98762134D01*
X123679786Y-98756123D01*
X123661159Y-98738631D01*
X123629364Y-98708773D01*
X123618919Y-98698328D01*
X123608475Y-98687883D01*
X123602986Y-98683625D01*
X123598561Y-98679847D01*
X123564582Y-98647938D01*
X123564580Y-98647936D01*
X123564577Y-98647935D01*
X123547029Y-98638288D01*
X123530763Y-98627604D01*
X123514933Y-98615325D01*
X123472168Y-98596818D01*
X123466922Y-98594248D01*
X123426093Y-98571803D01*
X123426092Y-98571802D01*
X123406693Y-98566822D01*
X123388281Y-98560518D01*
X123369898Y-98552562D01*
X123369892Y-98552560D01*
X123323874Y-98545272D01*
X123318152Y-98544087D01*
X123273021Y-98532500D01*
X123273019Y-98532500D01*
X123252984Y-98532500D01*
X123233586Y-98530973D01*
X123226162Y-98529797D01*
X123213805Y-98527840D01*
X123213804Y-98527840D01*
X123167416Y-98532225D01*
X123161578Y-98532500D01*
X112204748Y-98532500D01*
X112137709Y-98512815D01*
X112112600Y-98491474D01*
X112106873Y-98485114D01*
X112106869Y-98485110D01*
X111953734Y-98373851D01*
X111953729Y-98373848D01*
X111780807Y-98296857D01*
X111780802Y-98296855D01*
X111605055Y-98259500D01*
X111595646Y-98257500D01*
X111406354Y-98257500D01*
X111396945Y-98259500D01*
X111221197Y-98296855D01*
X111221192Y-98296857D01*
X111048270Y-98373848D01*
X111048265Y-98373851D01*
X110895129Y-98485111D01*
X110768466Y-98625785D01*
X110673821Y-98789715D01*
X110673818Y-98789722D01*
X110615327Y-98969740D01*
X110615326Y-98969744D01*
X110595540Y-99158000D01*
X109078500Y-99158000D01*
X109078500Y-96446737D01*
X109080224Y-96431123D01*
X109079938Y-96431096D01*
X109080672Y-96423333D01*
X109078500Y-96354202D01*
X109078500Y-96324651D01*
X109078500Y-96324650D01*
X109077629Y-96317759D01*
X109077172Y-96311945D01*
X109075709Y-96265374D01*
X109075709Y-96265372D01*
X109070120Y-96246137D01*
X109066174Y-96227084D01*
X109063664Y-96207208D01*
X109046501Y-96163859D01*
X109044614Y-96158346D01*
X109038661Y-96137857D01*
X109031617Y-96113610D01*
X109021421Y-96096369D01*
X109012860Y-96078893D01*
X109005486Y-96060269D01*
X109005486Y-96060267D01*
X108995474Y-96046488D01*
X108978083Y-96022550D01*
X108974900Y-96017705D01*
X108951170Y-95977579D01*
X108951165Y-95977573D01*
X108937005Y-95963413D01*
X108924370Y-95948620D01*
X108912593Y-95932412D01*
X108876693Y-95902713D01*
X108872381Y-95898790D01*
X106797803Y-93824212D01*
X106787980Y-93811950D01*
X106787759Y-93812134D01*
X106782786Y-93806123D01*
X106732364Y-93758773D01*
X106721919Y-93748328D01*
X106711475Y-93737883D01*
X106705986Y-93733625D01*
X106701561Y-93729847D01*
X106667582Y-93697938D01*
X106667580Y-93697936D01*
X106667577Y-93697935D01*
X106650029Y-93688288D01*
X106633763Y-93677604D01*
X106617933Y-93665325D01*
X106575168Y-93646818D01*
X106569922Y-93644248D01*
X106529093Y-93621803D01*
X106529092Y-93621802D01*
X106509693Y-93616822D01*
X106491281Y-93610518D01*
X106472898Y-93602562D01*
X106472892Y-93602560D01*
X106426874Y-93595272D01*
X106421152Y-93594087D01*
X106376021Y-93582500D01*
X106376019Y-93582500D01*
X106355984Y-93582500D01*
X106336586Y-93580973D01*
X106329162Y-93579797D01*
X106316805Y-93577840D01*
X106316804Y-93577840D01*
X106270416Y-93582225D01*
X106264578Y-93582500D01*
X102610699Y-93582500D01*
X102543660Y-93562815D01*
X102497905Y-93510011D01*
X102487961Y-93440853D01*
X102492768Y-93420182D01*
X102516592Y-93346857D01*
X102531474Y-93301056D01*
X102551260Y-93112800D01*
X102531474Y-92924544D01*
X102472979Y-92744516D01*
X102378333Y-92580584D01*
X102371519Y-92573016D01*
X102303150Y-92497084D01*
X102272920Y-92434092D01*
X102271300Y-92414112D01*
X102271300Y-82737087D01*
X102290985Y-82670048D01*
X102303150Y-82654115D01*
X102321691Y-82633522D01*
X102378333Y-82570616D01*
X102472979Y-82406684D01*
X102531474Y-82226656D01*
X102549121Y-82058745D01*
X102575705Y-81994132D01*
X102584752Y-81984036D01*
X107608971Y-76959819D01*
X107670294Y-76926334D01*
X107696652Y-76923500D01*
X113450257Y-76923500D01*
X113465877Y-76925224D01*
X113465904Y-76924939D01*
X113473660Y-76925671D01*
X113473667Y-76925673D01*
X113542814Y-76923500D01*
X113572350Y-76923500D01*
X113579228Y-76922630D01*
X113585041Y-76922172D01*
X113631627Y-76920709D01*
X113650869Y-76915117D01*
X113669912Y-76911174D01*
X113689792Y-76908664D01*
X113733122Y-76891507D01*
X113738646Y-76889617D01*
X113742396Y-76888527D01*
X113783390Y-76876618D01*
X113800629Y-76866422D01*
X113818103Y-76857862D01*
X113836727Y-76850488D01*
X113836727Y-76850487D01*
X113836732Y-76850486D01*
X113874449Y-76823082D01*
X113879305Y-76819892D01*
X113919420Y-76796170D01*
X113933589Y-76781999D01*
X113948379Y-76769368D01*
X113964587Y-76757594D01*
X113994299Y-76721676D01*
X113998212Y-76717376D01*
X114941787Y-75773802D01*
X114954042Y-75763986D01*
X114953859Y-75763764D01*
X114959866Y-75758792D01*
X114959877Y-75758786D01*
X114990775Y-75725882D01*
X115007227Y-75708364D01*
X115017671Y-75697918D01*
X115028120Y-75687471D01*
X115032379Y-75681978D01*
X115036152Y-75677561D01*
X115068062Y-75643582D01*
X115077715Y-75626020D01*
X115088389Y-75609770D01*
X115100673Y-75593936D01*
X115119180Y-75551167D01*
X115121749Y-75545924D01*
X115144196Y-75505093D01*
X115144197Y-75505092D01*
X115149177Y-75485691D01*
X115155478Y-75467288D01*
X115163438Y-75448896D01*
X115170730Y-75402849D01*
X115171911Y-75397152D01*
X115183500Y-75352019D01*
X115183500Y-75331983D01*
X115185027Y-75312582D01*
X115188160Y-75292804D01*
X115183775Y-75246415D01*
X115183500Y-75240577D01*
X115183500Y-74973638D01*
X115203185Y-74906599D01*
X115242401Y-74868100D01*
X115351656Y-74800712D01*
X115475712Y-74676656D01*
X115567814Y-74527334D01*
X115622999Y-74360797D01*
X115633500Y-74258009D01*
X115633499Y-73257992D01*
X115622999Y-73155203D01*
X115567814Y-72988666D01*
X115475712Y-72839344D01*
X115351656Y-72715288D01*
X115202334Y-72623186D01*
X115035797Y-72568001D01*
X115035795Y-72568000D01*
X114933010Y-72557500D01*
X114182998Y-72557500D01*
X114182980Y-72557501D01*
X114080203Y-72568000D01*
X114080200Y-72568001D01*
X113913668Y-72623185D01*
X113913663Y-72623187D01*
X113764342Y-72715289D01*
X113640285Y-72839346D01*
X113638537Y-72842182D01*
X113636829Y-72843717D01*
X113635807Y-72845011D01*
X113635585Y-72844836D01*
X113586589Y-72888905D01*
X113517626Y-72900126D01*
X113453544Y-72872282D01*
X113427463Y-72842182D01*
X113425714Y-72839346D01*
X113301657Y-72715289D01*
X113301656Y-72715288D01*
X113152334Y-72623186D01*
X112985797Y-72568001D01*
X112985795Y-72568000D01*
X112883010Y-72557500D01*
X112132998Y-72557500D01*
X112132980Y-72557501D01*
X112030203Y-72568000D01*
X112030200Y-72568001D01*
X111863668Y-72623185D01*
X111863663Y-72623187D01*
X111714342Y-72715289D01*
X111588681Y-72840951D01*
X111527358Y-72874436D01*
X111457666Y-72869452D01*
X111413319Y-72840951D01*
X111287657Y-72715289D01*
X111287656Y-72715288D01*
X111138334Y-72623186D01*
X110971797Y-72568001D01*
X110971795Y-72568000D01*
X110869010Y-72557500D01*
X110068998Y-72557500D01*
X110068980Y-72557501D01*
X109966203Y-72568000D01*
X109966200Y-72568001D01*
X109799668Y-72623185D01*
X109799663Y-72623187D01*
X109650345Y-72715287D01*
X109556327Y-72809305D01*
X109495003Y-72842789D01*
X109425312Y-72837805D01*
X109380965Y-72809304D01*
X109287345Y-72715684D01*
X109138124Y-72623643D01*
X109138119Y-72623641D01*
X108971697Y-72568494D01*
X108971690Y-72568493D01*
X108868986Y-72558000D01*
X108719000Y-72558000D01*
X108719000Y-74957999D01*
X108868972Y-74957999D01*
X108868986Y-74957998D01*
X108971697Y-74947505D01*
X109138119Y-74892358D01*
X109138124Y-74892356D01*
X109287342Y-74800317D01*
X109380964Y-74706695D01*
X109442287Y-74673210D01*
X109511979Y-74678194D01*
X109556327Y-74706695D01*
X109650344Y-74800712D01*
X109799666Y-74892814D01*
X109966203Y-74947999D01*
X110068991Y-74958500D01*
X110869008Y-74958499D01*
X110869016Y-74958498D01*
X110869019Y-74958498D01*
X110925302Y-74952748D01*
X110971797Y-74947999D01*
X111138334Y-74892814D01*
X111287656Y-74800712D01*
X111411712Y-74676656D01*
X111411712Y-74676655D01*
X111413319Y-74675049D01*
X111474642Y-74641564D01*
X111544334Y-74646548D01*
X111588681Y-74675049D01*
X111590288Y-74676656D01*
X111714344Y-74800712D01*
X111863666Y-74892814D01*
X112030203Y-74947999D01*
X112132991Y-74958500D01*
X112883008Y-74958499D01*
X112883016Y-74958498D01*
X112883019Y-74958498D01*
X112939302Y-74952748D01*
X112985797Y-74947999D01*
X113152334Y-74892814D01*
X113301656Y-74800712D01*
X113425712Y-74676656D01*
X113427461Y-74673819D01*
X113429169Y-74672283D01*
X113430193Y-74670989D01*
X113430414Y-74671163D01*
X113479406Y-74627096D01*
X113548368Y-74615872D01*
X113612451Y-74643713D01*
X113638537Y-74673817D01*
X113640288Y-74676656D01*
X113764344Y-74800712D01*
X113866737Y-74863868D01*
X113913461Y-74915814D01*
X113924684Y-74984777D01*
X113896841Y-75048859D01*
X113889321Y-75057087D01*
X113310228Y-75636181D01*
X113248905Y-75669666D01*
X113222547Y-75672500D01*
X107468943Y-75672500D01*
X107453322Y-75670775D01*
X107453295Y-75671061D01*
X107445533Y-75670326D01*
X107376372Y-75672500D01*
X107346849Y-75672500D01*
X107339978Y-75673367D01*
X107334159Y-75673825D01*
X107287574Y-75675289D01*
X107287568Y-75675290D01*
X107268326Y-75680880D01*
X107249287Y-75684823D01*
X107229417Y-75687334D01*
X107229403Y-75687337D01*
X107186083Y-75704488D01*
X107180558Y-75706380D01*
X107135813Y-75719380D01*
X107135810Y-75719381D01*
X107118566Y-75729579D01*
X107101105Y-75738133D01*
X107082474Y-75745510D01*
X107082462Y-75745517D01*
X107044770Y-75772902D01*
X107039887Y-75776109D01*
X106999780Y-75799829D01*
X106985614Y-75813995D01*
X106970824Y-75826627D01*
X106954614Y-75838404D01*
X106954611Y-75838407D01*
X106924910Y-75874309D01*
X106920977Y-75878631D01*
X101698028Y-81101581D01*
X101636705Y-81135066D01*
X101610347Y-81137900D01*
X101551154Y-81137900D01*
X101518697Y-81144798D01*
X101365997Y-81177255D01*
X101365992Y-81177257D01*
X101193070Y-81254248D01*
X101193065Y-81254251D01*
X101039929Y-81365511D01*
X100913266Y-81506185D01*
X100818621Y-81670115D01*
X100818618Y-81670122D01*
X100760127Y-81850140D01*
X100760126Y-81850144D01*
X100740340Y-82038400D01*
X100760126Y-82226656D01*
X100760127Y-82226659D01*
X100818618Y-82406677D01*
X100818621Y-82406684D01*
X100913267Y-82570616D01*
X100956572Y-82618710D01*
X100988450Y-82654115D01*
X101018680Y-82717106D01*
X101020300Y-82737087D01*
X101020300Y-92414112D01*
X101000615Y-92481151D01*
X100988450Y-92497084D01*
X100913266Y-92580584D01*
X100818621Y-92744515D01*
X100818618Y-92744522D01*
X100784199Y-92850454D01*
X100760126Y-92924544D01*
X100740340Y-93112800D01*
X100760126Y-93301056D01*
X100760127Y-93301059D01*
X100798832Y-93420182D01*
X100800827Y-93490023D01*
X100764746Y-93549856D01*
X100702045Y-93580684D01*
X100680901Y-93582500D01*
X100562730Y-93582500D01*
X100495691Y-93562815D01*
X100449936Y-93510011D01*
X100444799Y-93496818D01*
X100390181Y-93328722D01*
X100390180Y-93328721D01*
X100390179Y-93328716D01*
X100295533Y-93164784D01*
X100168871Y-93024112D01*
X100168870Y-93024111D01*
X100015734Y-92912851D01*
X100015729Y-92912848D01*
X99842807Y-92835857D01*
X99842802Y-92835855D01*
X99697001Y-92804865D01*
X99657646Y-92796500D01*
X99468354Y-92796500D01*
X99435897Y-92803398D01*
X99283197Y-92835855D01*
X99283192Y-92835857D01*
X99110270Y-92912848D01*
X99110265Y-92912851D01*
X98957129Y-93024111D01*
X98957128Y-93024112D01*
X98893149Y-93095168D01*
X98833663Y-93131816D01*
X98763806Y-93130485D01*
X98708851Y-93095168D01*
X98644871Y-93024112D01*
X98644870Y-93024111D01*
X98491734Y-92912851D01*
X98491729Y-92912848D01*
X98318807Y-92835857D01*
X98318802Y-92835855D01*
X98173001Y-92804865D01*
X98133646Y-92796500D01*
X97944354Y-92796500D01*
X97911897Y-92803398D01*
X97759197Y-92835855D01*
X97759192Y-92835857D01*
X97586270Y-92912848D01*
X97586265Y-92912851D01*
X97433130Y-93024110D01*
X97433126Y-93024114D01*
X97427400Y-93030474D01*
X97367913Y-93067121D01*
X97335252Y-93071500D01*
X96892364Y-93071500D01*
X96825325Y-93051815D01*
X96779570Y-92999011D01*
X96776182Y-92990833D01*
X96766797Y-92965671D01*
X96766793Y-92965664D01*
X96680547Y-92850455D01*
X96680544Y-92850452D01*
X96565335Y-92764206D01*
X96565328Y-92764202D01*
X96430482Y-92713908D01*
X96430483Y-92713908D01*
X96370883Y-92707501D01*
X96370881Y-92707500D01*
X96370873Y-92707500D01*
X96370864Y-92707500D01*
X93275129Y-92707500D01*
X93275123Y-92707501D01*
X93215516Y-92713908D01*
X93080671Y-92764202D01*
X93080664Y-92764206D01*
X92965455Y-92850452D01*
X92965452Y-92850455D01*
X92879206Y-92965664D01*
X92879202Y-92965671D01*
X92828908Y-93100517D01*
X92822501Y-93160116D01*
X92822500Y-93160135D01*
X92822500Y-93309828D01*
X92802815Y-93376867D01*
X92750011Y-93422622D01*
X92680853Y-93432566D01*
X92648064Y-93423107D01*
X92476807Y-93346857D01*
X92476802Y-93346855D01*
X92302598Y-93309828D01*
X92291646Y-93307500D01*
X92102354Y-93307500D01*
X92091402Y-93309828D01*
X91917197Y-93346855D01*
X91917192Y-93346857D01*
X91744270Y-93423848D01*
X91744266Y-93423850D01*
X91637174Y-93501657D01*
X91571368Y-93525136D01*
X91503314Y-93509310D01*
X91476609Y-93489019D01*
X88101180Y-90113590D01*
X84676803Y-86689212D01*
X84666980Y-86676950D01*
X84666759Y-86677134D01*
X84661786Y-86671123D01*
X84611364Y-86623773D01*
X84600919Y-86613328D01*
X84590475Y-86602883D01*
X84584986Y-86598625D01*
X84580561Y-86594847D01*
X84546582Y-86562938D01*
X84546580Y-86562936D01*
X84546577Y-86562935D01*
X84529029Y-86553288D01*
X84512763Y-86542604D01*
X84496933Y-86530325D01*
X84454168Y-86511818D01*
X84448922Y-86509248D01*
X84408093Y-86486803D01*
X84408092Y-86486802D01*
X84388693Y-86481822D01*
X84370281Y-86475518D01*
X84351898Y-86467562D01*
X84351892Y-86467560D01*
X84305874Y-86460272D01*
X84300152Y-86459087D01*
X84255021Y-86447500D01*
X84255019Y-86447500D01*
X84234984Y-86447500D01*
X84215586Y-86445973D01*
X84208162Y-86444797D01*
X84195805Y-86442840D01*
X84195804Y-86442840D01*
X84149416Y-86447225D01*
X84143578Y-86447500D01*
X82038638Y-86447500D01*
X81971599Y-86427815D01*
X81933099Y-86388597D01*
X81865712Y-86279344D01*
X81741656Y-86155288D01*
X81592334Y-86063186D01*
X81425797Y-86008001D01*
X81425795Y-86008000D01*
X81323010Y-85997500D01*
X80322998Y-85997500D01*
X80322980Y-85997501D01*
X80220203Y-86008000D01*
X80220200Y-86008001D01*
X80053668Y-86063185D01*
X80053663Y-86063187D01*
X79904342Y-86155289D01*
X79780289Y-86279342D01*
X79688187Y-86428663D01*
X79688185Y-86428668D01*
X79668921Y-86486803D01*
X79633001Y-86595203D01*
X79633001Y-86595204D01*
X79633000Y-86595204D01*
X79622500Y-86697983D01*
X79622500Y-87448001D01*
X79622501Y-87448019D01*
X79633000Y-87550796D01*
X79633001Y-87550799D01*
X79688185Y-87717331D01*
X79688187Y-87717336D01*
X79780289Y-87866657D01*
X79904346Y-87990714D01*
X79907182Y-87992463D01*
X79908717Y-87994170D01*
X79910011Y-87995193D01*
X79909836Y-87995414D01*
X79953905Y-88044411D01*
X79965126Y-88113374D01*
X79937282Y-88177456D01*
X79907182Y-88203537D01*
X79904346Y-88205285D01*
X79780289Y-88329342D01*
X79688187Y-88478663D01*
X79688185Y-88478668D01*
X79660349Y-88562670D01*
X79633001Y-88645203D01*
X79633001Y-88645204D01*
X79633000Y-88645204D01*
X79622500Y-88747983D01*
X79622500Y-89498001D01*
X79622501Y-89498019D01*
X79633000Y-89600796D01*
X79633001Y-89600799D01*
X79688185Y-89767331D01*
X79688189Y-89767340D01*
X79749256Y-89866346D01*
X79767696Y-89933738D01*
X79746773Y-90000402D01*
X79731398Y-90019123D01*
X79233238Y-90517284D01*
X79105686Y-90644835D01*
X79105683Y-90644839D01*
X79083466Y-90680196D01*
X79079441Y-90685869D01*
X79053410Y-90718510D01*
X79035291Y-90756133D01*
X79031927Y-90762220D01*
X79009712Y-90797576D01*
X79009708Y-90797583D01*
X78995916Y-90836995D01*
X78993255Y-90843420D01*
X78975139Y-90881039D01*
X78965844Y-90921759D01*
X78963919Y-90928441D01*
X78950132Y-90967843D01*
X78945455Y-91009336D01*
X78944290Y-91016192D01*
X78935228Y-91055902D01*
X78901121Y-91116882D01*
X78839460Y-91149741D01*
X78769823Y-91144048D01*
X78726655Y-91115994D01*
X78641345Y-91030684D01*
X78492124Y-90938643D01*
X78492119Y-90938641D01*
X78325697Y-90883494D01*
X78325690Y-90883493D01*
X78222986Y-90873000D01*
X78073000Y-90873000D01*
X78073000Y-93272999D01*
X77572999Y-93272999D01*
X77573000Y-93272998D01*
X77573000Y-92323000D01*
X76723001Y-92323000D01*
X71284094Y-92323000D01*
X71742427Y-91823000D01*
X76723000Y-91823000D01*
X77573000Y-91823000D01*
X77573000Y-90873000D01*
X77423027Y-90873000D01*
X77423012Y-90873001D01*
X77320302Y-90883494D01*
X77153880Y-90938641D01*
X77153875Y-90938643D01*
X77004654Y-91030684D01*
X76880684Y-91154654D01*
X76788643Y-91303875D01*
X76788641Y-91303880D01*
X76733494Y-91470302D01*
X76733493Y-91470309D01*
X76723000Y-91573013D01*
X76723000Y-91823000D01*
X71742427Y-91823000D01*
X84320913Y-78101014D01*
X84323300Y-78098706D01*
X84323543Y-78098080D01*
X84323539Y-78097900D01*
X84323538Y-78097889D01*
X84323444Y-78097675D01*
X84323418Y-78097651D01*
X84323372Y-78097604D01*
X84323194Y-78097539D01*
X84322973Y-78097448D01*
X84320670Y-78097500D01*
X72061443Y-78097500D01*
X71994404Y-78077815D01*
X71948649Y-78025011D01*
X71938705Y-77955853D01*
X71959693Y-77902628D01*
X85580113Y-58348000D01*
X87723001Y-58348000D01*
X87723001Y-58597986D01*
X87733494Y-58700697D01*
X87788641Y-58867119D01*
X87788643Y-58867124D01*
X87880684Y-59016345D01*
X88004654Y-59140315D01*
X88153875Y-59232356D01*
X88153880Y-59232358D01*
X88320302Y-59287505D01*
X88320309Y-59287506D01*
X88423019Y-59297999D01*
X88572999Y-59297999D01*
X89073000Y-59297999D01*
X89222972Y-59297999D01*
X89222986Y-59297998D01*
X89325697Y-59287505D01*
X89492119Y-59232358D01*
X89492124Y-59232356D01*
X89641342Y-59140317D01*
X89734964Y-59046695D01*
X89796287Y-59013210D01*
X89865979Y-59018194D01*
X89910327Y-59046695D01*
X90004344Y-59140712D01*
X90153666Y-59232814D01*
X90320203Y-59287999D01*
X90422991Y-59298500D01*
X91223008Y-59298499D01*
X91223016Y-59298498D01*
X91223019Y-59298498D01*
X91279302Y-59292748D01*
X91325797Y-59287999D01*
X91492334Y-59232814D01*
X91641656Y-59140712D01*
X91765712Y-59016656D01*
X91857814Y-58867334D01*
X91912999Y-58700797D01*
X91923500Y-58598009D01*
X91923499Y-57597992D01*
X91912999Y-57495203D01*
X91857814Y-57328666D01*
X91857810Y-57328659D01*
X91780873Y-57203923D01*
X91762433Y-57136531D01*
X91783356Y-57069867D01*
X91798726Y-57051151D01*
X92420826Y-56429052D01*
X92452816Y-56397062D01*
X92475037Y-56361695D01*
X92479052Y-56356036D01*
X92505091Y-56323387D01*
X92523209Y-56285761D01*
X92526565Y-56279689D01*
X92548789Y-56244322D01*
X92562580Y-56204905D01*
X92565236Y-56198493D01*
X92583360Y-56160861D01*
X92584415Y-56156234D01*
X92618520Y-56095256D01*
X92640212Y-56078282D01*
X92741654Y-56015713D01*
X92741653Y-56015713D01*
X92741656Y-56015712D01*
X92865712Y-55891656D01*
X92957814Y-55742334D01*
X93012999Y-55575797D01*
X93023500Y-55473009D01*
X93023499Y-54722992D01*
X93012999Y-54620203D01*
X92957814Y-54453666D01*
X92865712Y-54304344D01*
X92741656Y-54180288D01*
X92738819Y-54178538D01*
X92737283Y-54176830D01*
X92735989Y-54175807D01*
X92736163Y-54175585D01*
X92692096Y-54126594D01*
X92680872Y-54057632D01*
X92708713Y-53993549D01*
X92738817Y-53967462D01*
X92741656Y-53965712D01*
X92865712Y-53841656D01*
X92933099Y-53732402D01*
X92985047Y-53685679D01*
X93038638Y-53673500D01*
X93479500Y-53673500D01*
X93546539Y-53693185D01*
X93592294Y-53745989D01*
X93603500Y-53797500D01*
X93603500Y-87925547D01*
X93583815Y-87992586D01*
X93567181Y-88013228D01*
X91741228Y-89839181D01*
X91679905Y-89872666D01*
X91653547Y-89875500D01*
X91594354Y-89875500D01*
X91561897Y-89882398D01*
X91409197Y-89914855D01*
X91409192Y-89914857D01*
X91236270Y-89991848D01*
X91236265Y-89991851D01*
X91083129Y-90103111D01*
X90956466Y-90243785D01*
X90861821Y-90407715D01*
X90861818Y-90407722D01*
X90811735Y-90561863D01*
X90803326Y-90587744D01*
X90783540Y-90776000D01*
X90803326Y-90964256D01*
X90804492Y-90967845D01*
X90861818Y-91144277D01*
X90861821Y-91144284D01*
X90956467Y-91308216D01*
X91083129Y-91448888D01*
X91236265Y-91560148D01*
X91236270Y-91560151D01*
X91409192Y-91637142D01*
X91409197Y-91637144D01*
X91594354Y-91676500D01*
X91594355Y-91676500D01*
X91783644Y-91676500D01*
X91783646Y-91676500D01*
X91968803Y-91637144D01*
X92141730Y-91560151D01*
X92294871Y-91448888D01*
X92421533Y-91308216D01*
X92516179Y-91144284D01*
X92574674Y-90964256D01*
X92592321Y-90796344D01*
X92618904Y-90731734D01*
X92627951Y-90721638D01*
X94612788Y-88736801D01*
X94625042Y-88726986D01*
X94624859Y-88726764D01*
X94630866Y-88721792D01*
X94630877Y-88721786D01*
X94661775Y-88688882D01*
X94678227Y-88671364D01*
X94688671Y-88660918D01*
X94699120Y-88650471D01*
X94703379Y-88644978D01*
X94707152Y-88640561D01*
X94739062Y-88606582D01*
X94748713Y-88589024D01*
X94759396Y-88572761D01*
X94771673Y-88556936D01*
X94790185Y-88514153D01*
X94792738Y-88508941D01*
X94815197Y-88468092D01*
X94820180Y-88448680D01*
X94826481Y-88430280D01*
X94834437Y-88411896D01*
X94841729Y-88365852D01*
X94842906Y-88360171D01*
X94854500Y-88315019D01*
X94854500Y-88294983D01*
X94856027Y-88275582D01*
X94859160Y-88255804D01*
X94854775Y-88209415D01*
X94854500Y-88203577D01*
X94854500Y-74008000D01*
X107369001Y-74008000D01*
X107369001Y-74257986D01*
X107379494Y-74360697D01*
X107434641Y-74527119D01*
X107434643Y-74527124D01*
X107526684Y-74676345D01*
X107650654Y-74800315D01*
X107799875Y-74892356D01*
X107799880Y-74892358D01*
X107966302Y-74947505D01*
X107966309Y-74947506D01*
X108069019Y-74957999D01*
X108218999Y-74957999D01*
X108219000Y-74957998D01*
X108219000Y-74008000D01*
X107369001Y-74008000D01*
X94854500Y-74008000D01*
X94854500Y-73508000D01*
X107369000Y-73508000D01*
X108219000Y-73508000D01*
X108219000Y-72558000D01*
X108069027Y-72558000D01*
X108069012Y-72558001D01*
X107966302Y-72568494D01*
X107799880Y-72623641D01*
X107799875Y-72623643D01*
X107650654Y-72715684D01*
X107526684Y-72839654D01*
X107434643Y-72988875D01*
X107434641Y-72988880D01*
X107379494Y-73155302D01*
X107379493Y-73155309D01*
X107369000Y-73258013D01*
X107369000Y-73508000D01*
X94854500Y-73508000D01*
X94854500Y-53520737D01*
X94856224Y-53505123D01*
X94855938Y-53505096D01*
X94856672Y-53497333D01*
X94854500Y-53428203D01*
X94854500Y-53398651D01*
X94854500Y-53398650D01*
X94853629Y-53391759D01*
X94853172Y-53385945D01*
X94851709Y-53339373D01*
X94846121Y-53320139D01*
X94842174Y-53301081D01*
X94839664Y-53281208D01*
X94822507Y-53237875D01*
X94820614Y-53232346D01*
X94807618Y-53187614D01*
X94807617Y-53187610D01*
X94797420Y-53170368D01*
X94788863Y-53152902D01*
X94781486Y-53134268D01*
X94754083Y-53096550D01*
X94750900Y-53091705D01*
X94727170Y-53051579D01*
X94727165Y-53051573D01*
X94713005Y-53037413D01*
X94700370Y-53022620D01*
X94688593Y-53006412D01*
X94652693Y-52976713D01*
X94648381Y-52972790D01*
X94339803Y-52664212D01*
X94329980Y-52651950D01*
X94329759Y-52652134D01*
X94324786Y-52646123D01*
X94274364Y-52598773D01*
X94263919Y-52588328D01*
X94253475Y-52577883D01*
X94247986Y-52573625D01*
X94243561Y-52569847D01*
X94209582Y-52537938D01*
X94209580Y-52537936D01*
X94209577Y-52537935D01*
X94192029Y-52528288D01*
X94175763Y-52517604D01*
X94159933Y-52505325D01*
X94117168Y-52486818D01*
X94111922Y-52484248D01*
X94071093Y-52461803D01*
X94071092Y-52461802D01*
X94051693Y-52456822D01*
X94033281Y-52450518D01*
X94014898Y-52442562D01*
X94014892Y-52442560D01*
X93968874Y-52435272D01*
X93963152Y-52434087D01*
X93918021Y-52422500D01*
X93918019Y-52422500D01*
X93897984Y-52422500D01*
X93878586Y-52420973D01*
X93871162Y-52419797D01*
X93858805Y-52417840D01*
X93858804Y-52417840D01*
X93812416Y-52422225D01*
X93806578Y-52422500D01*
X93038638Y-52422500D01*
X92971599Y-52402815D01*
X92933099Y-52363597D01*
X92865712Y-52254344D01*
X92741656Y-52130288D01*
X92592334Y-52038186D01*
X92425797Y-51983001D01*
X92425795Y-51983000D01*
X92323010Y-51972500D01*
X91322998Y-51972500D01*
X91322980Y-51972501D01*
X91220203Y-51983000D01*
X91220200Y-51983001D01*
X91053668Y-52038185D01*
X91053663Y-52038187D01*
X90904342Y-52130289D01*
X90780289Y-52254342D01*
X90688187Y-52403663D01*
X90688185Y-52403668D01*
X90668921Y-52461803D01*
X90633001Y-52570203D01*
X90633001Y-52570204D01*
X90633000Y-52570204D01*
X90622500Y-52672983D01*
X90622500Y-53423001D01*
X90622501Y-53423019D01*
X90633000Y-53525796D01*
X90633001Y-53525799D01*
X90688185Y-53692331D01*
X90688187Y-53692336D01*
X90780289Y-53841657D01*
X90904346Y-53965714D01*
X90907182Y-53967463D01*
X90908717Y-53969170D01*
X90910011Y-53970193D01*
X90909836Y-53970414D01*
X90953905Y-54019411D01*
X90965126Y-54088374D01*
X90937282Y-54152456D01*
X90907182Y-54178537D01*
X90904346Y-54180285D01*
X90780289Y-54304342D01*
X90688187Y-54453663D01*
X90688186Y-54453666D01*
X90633001Y-54620203D01*
X90633001Y-54620204D01*
X90633000Y-54620204D01*
X90622500Y-54722983D01*
X90622500Y-55473001D01*
X90622501Y-55473019D01*
X90633000Y-55575796D01*
X90633001Y-55575799D01*
X90688186Y-55742333D01*
X90688187Y-55742336D01*
X90695924Y-55754880D01*
X90714363Y-55822273D01*
X90693439Y-55888936D01*
X90678065Y-55907655D01*
X90233238Y-56352484D01*
X90105686Y-56480035D01*
X90105683Y-56480039D01*
X90083466Y-56515396D01*
X90079441Y-56521069D01*
X90053410Y-56553710D01*
X90035291Y-56591333D01*
X90031927Y-56597420D01*
X90009712Y-56632776D01*
X90009708Y-56632783D01*
X89995916Y-56672195D01*
X89993255Y-56678620D01*
X89975139Y-56716239D01*
X89965844Y-56756959D01*
X89963919Y-56763641D01*
X89950132Y-56803044D01*
X89945455Y-56844535D01*
X89944291Y-56851389D01*
X89935000Y-56892106D01*
X89935000Y-57049977D01*
X89915315Y-57117016D01*
X89862511Y-57162771D01*
X89793353Y-57172715D01*
X89729797Y-57143690D01*
X89723319Y-57137658D01*
X89641345Y-57055684D01*
X89492124Y-56963643D01*
X89492119Y-56963641D01*
X89325697Y-56908494D01*
X89325690Y-56908493D01*
X89222986Y-56898000D01*
X89073000Y-56898000D01*
X89073000Y-59297999D01*
X88572999Y-59297999D01*
X88573000Y-59297998D01*
X88573000Y-58348000D01*
X87723001Y-58348000D01*
X85580113Y-58348000D01*
X85928379Y-57848000D01*
X87723000Y-57848000D01*
X88573000Y-57848000D01*
X88573000Y-56898000D01*
X88423027Y-56898000D01*
X88423012Y-56898001D01*
X88320302Y-56908494D01*
X88153880Y-56963641D01*
X88153875Y-56963643D01*
X88004654Y-57055684D01*
X87880684Y-57179654D01*
X87788643Y-57328875D01*
X87788641Y-57328880D01*
X87733494Y-57495302D01*
X87733493Y-57495309D01*
X87723000Y-57598013D01*
X87723000Y-57848000D01*
X85928379Y-57848000D01*
X91362022Y-50047001D01*
X94371500Y-50047001D01*
X94371501Y-50047018D01*
X94382000Y-50149796D01*
X94382001Y-50149799D01*
X94437185Y-50316331D01*
X94437186Y-50316334D01*
X94529288Y-50465656D01*
X94653344Y-50589712D01*
X94802666Y-50681814D01*
X94969203Y-50736999D01*
X95071991Y-50747500D01*
X95672008Y-50747499D01*
X95672016Y-50747498D01*
X95672019Y-50747498D01*
X95728302Y-50741748D01*
X95774797Y-50736999D01*
X95941334Y-50681814D01*
X96090656Y-50589712D01*
X96214712Y-50465656D01*
X96306814Y-50316334D01*
X96361999Y-50149797D01*
X96372500Y-50047009D01*
X96372500Y-50047001D01*
X97292500Y-50047001D01*
X97292501Y-50047018D01*
X97303000Y-50149796D01*
X97303001Y-50149799D01*
X97358185Y-50316331D01*
X97358186Y-50316334D01*
X97450288Y-50465656D01*
X97574344Y-50589712D01*
X97723666Y-50681814D01*
X97890203Y-50736999D01*
X97992991Y-50747500D01*
X98593008Y-50747499D01*
X98593016Y-50747498D01*
X98593019Y-50747498D01*
X98649302Y-50741748D01*
X98695797Y-50736999D01*
X98862334Y-50681814D01*
X99011656Y-50589712D01*
X99135712Y-50465656D01*
X99227814Y-50316334D01*
X99282999Y-50149797D01*
X99293500Y-50047009D01*
X99293499Y-48446992D01*
X99282999Y-48344203D01*
X99227814Y-48177666D01*
X99135712Y-48028344D01*
X99011656Y-47904288D01*
X98862334Y-47812186D01*
X98695797Y-47757001D01*
X98695795Y-47757000D01*
X98593010Y-47746500D01*
X97992998Y-47746500D01*
X97992980Y-47746501D01*
X97890203Y-47757000D01*
X97890200Y-47757001D01*
X97723668Y-47812185D01*
X97723663Y-47812187D01*
X97574342Y-47904289D01*
X97450289Y-48028342D01*
X97358187Y-48177663D01*
X97358186Y-48177666D01*
X97303001Y-48344203D01*
X97303001Y-48344204D01*
X97303000Y-48344204D01*
X97292500Y-48446983D01*
X97292500Y-50047001D01*
X96372500Y-50047001D01*
X96372499Y-48446992D01*
X96361999Y-48344203D01*
X96306814Y-48177666D01*
X96214712Y-48028344D01*
X96090656Y-47904288D01*
X95941334Y-47812186D01*
X95774797Y-47757001D01*
X95774795Y-47757000D01*
X95672010Y-47746500D01*
X95071998Y-47746500D01*
X95071980Y-47746501D01*
X94969203Y-47757000D01*
X94969200Y-47757001D01*
X94802668Y-47812185D01*
X94802663Y-47812187D01*
X94653342Y-47904289D01*
X94529289Y-48028342D01*
X94437187Y-48177663D01*
X94437186Y-48177666D01*
X94382001Y-48344203D01*
X94382001Y-48344204D01*
X94382000Y-48344204D01*
X94371500Y-48446983D01*
X94371500Y-50047001D01*
X91362022Y-50047001D01*
X95886256Y-43551628D01*
X95940725Y-43507868D01*
X95988006Y-43498500D01*
X97657993Y-43498500D01*
X97725032Y-43518185D01*
G37*
G04 #@! TD.AperFunction*
M02*
