G04 #@! TF.GenerationSoftware,KiCad,Pcbnew,9.0.0*
G04 #@! TF.CreationDate,2026-03-16T00:04:51+01:00*
G04 #@! TF.ProjectId,manufacturing_slave,6d616e75-6661-4637-9475-72696e675f73,rev?*
G04 #@! TF.SameCoordinates,Original*
G04 #@! TF.FileFunction,Copper,L2,Bot*
G04 #@! TF.FilePolarity,Positive*
%FSLAX46Y46*%
G04 Gerber Fmt 4.6, Leading zero omitted, Abs format (unit mm)*
G04 Created by KiCad (PCBNEW 9.0.0) date 2026-03-16 00:04:51*
%MOMM*%
%LPD*%
G01*
G04 APERTURE LIST*
G04 Aperture macros list*
%AMRoundRect*
0 Rectangle with rounded corners*
0 $1 Rounding radius*
0 $2 $3 $4 $5 $6 $7 $8 $9 X,Y pos of 4 corners*
0 Add a 4 corners polygon primitive as box body*
4,1,4,$2,$3,$4,$5,$6,$7,$8,$9,$2,$3,0*
0 Add four circle primitives for the rounded corners*
1,1,$1+$1,$2,$3*
1,1,$1+$1,$4,$5*
1,1,$1+$1,$6,$7*
1,1,$1+$1,$8,$9*
0 Add four rect primitives between the rounded corners*
20,1,$1+$1,$2,$3,$4,$5,0*
20,1,$1+$1,$4,$5,$6,$7,0*
20,1,$1+$1,$6,$7,$8,$9,0*
20,1,$1+$1,$8,$9,$2,$3,0*%
G04 Aperture macros list end*
G04 #@! TA.AperFunction,SMDPad,CuDef*
%ADD10RoundRect,0.250000X-0.350000X-0.450000X0.350000X-0.450000X0.350000X0.450000X-0.350000X0.450000X0*%
G04 #@! TD*
G04 #@! TA.AperFunction,SMDPad,CuDef*
%ADD11RoundRect,0.250000X-0.450000X0.350000X-0.450000X-0.350000X0.450000X-0.350000X0.450000X0.350000X0*%
G04 #@! TD*
G04 #@! TA.AperFunction,SMDPad,CuDef*
%ADD12RoundRect,0.250000X-0.250000X-0.750000X0.250000X-0.750000X0.250000X0.750000X-0.250000X0.750000X0*%
G04 #@! TD*
G04 #@! TA.AperFunction,SMDPad,CuDef*
%ADD13RoundRect,0.250000X-0.325000X-0.450000X0.325000X-0.450000X0.325000X0.450000X-0.325000X0.450000X0*%
G04 #@! TD*
G04 #@! TA.AperFunction,SMDPad,CuDef*
%ADD14R,3.000000X2.000000*%
G04 #@! TD*
G04 #@! TA.AperFunction,SMDPad,CuDef*
%ADD15RoundRect,0.250000X0.325000X0.450000X-0.325000X0.450000X-0.325000X-0.450000X0.325000X-0.450000X0*%
G04 #@! TD*
G04 #@! TA.AperFunction,SMDPad,CuDef*
%ADD16RoundRect,0.250000X0.350000X0.450000X-0.350000X0.450000X-0.350000X-0.450000X0.350000X-0.450000X0*%
G04 #@! TD*
G04 #@! TA.AperFunction,ViaPad*
%ADD17C,0.800000*%
G04 #@! TD*
G04 #@! TA.AperFunction,Conductor*
%ADD18C,0.450000*%
G04 #@! TD*
G04 #@! TA.AperFunction,Conductor*
%ADD19C,0.250000*%
G04 #@! TD*
G04 APERTURE END LIST*
D10*
G04 #@! TO.P,R10,1*
G04 #@! TO.N,Net-(D6-K)*
X129692000Y-59428000D03*
G04 #@! TO.P,R10,2*
G04 #@! TO.N,GND*
X131692000Y-59428000D03*
G04 #@! TD*
D11*
G04 #@! TO.P,R29,1*
G04 #@! TO.N,Net-(D25-K)*
X152536000Y-46244000D03*
G04 #@! TO.P,R29,2*
G04 #@! TO.N,GND*
X152536000Y-48244000D03*
G04 #@! TD*
D12*
G04 #@! TO.P,,1*
G04 #@! TO.N,N/C*
X149742000Y-44704000D03*
G04 #@! TD*
D13*
G04 #@! TO.P,D23,1,K*
G04 #@! TO.N,Net-(D23-K)*
X178435000Y-118872000D03*
G04 #@! TO.P,D23,2,A*
G04 #@! TO.N,/LED_Power_3*
X180485000Y-118872000D03*
G04 #@! TD*
D14*
G04 #@! TO.P,J4,1,Pin_1*
G04 #@! TO.N,/LED_Power_1*
X146186000Y-99314000D03*
G04 #@! TO.P,J4,2,Pin_2*
G04 #@! TO.N,/LED_Power_2*
X146186000Y-102616000D03*
G04 #@! TO.P,J4,3,Pin_3*
G04 #@! TO.N,/LED_Power_3*
X146186000Y-105918000D03*
G04 #@! TO.P,J4,4,Pin_4*
G04 #@! TO.N,GND*
X146186000Y-108966000D03*
G04 #@! TD*
D10*
G04 #@! TO.P,R26,1*
G04 #@! TO.N,Net-(D22-K)*
X119525000Y-98993250D03*
G04 #@! TO.P,R26,2*
G04 #@! TO.N,GND*
X121525000Y-98993250D03*
G04 #@! TD*
D15*
G04 #@! TO.P,D6,1,K*
G04 #@! TO.N,Net-(D6-K)*
X127653000Y-59436000D03*
G04 #@! TO.P,D6,2,A*
G04 #@! TO.N,/LED_Power_1*
X125603000Y-59436000D03*
G04 #@! TD*
D13*
G04 #@! TO.P,D25,1,K*
G04 #@! TO.N,Net-(D25-K)*
X154559000Y-46455250D03*
G04 #@! TO.P,D25,2,A*
G04 #@! TO.N,/LED_Power_3*
X156609000Y-46455250D03*
G04 #@! TD*
D15*
G04 #@! TO.P,D7,1,K*
G04 #@! TO.N,Net-(D7-K)*
X130710000Y-137668000D03*
G04 #@! TO.P,D7,2,A*
G04 #@! TO.N,/LED_Power_3*
X128660000Y-137668000D03*
G04 #@! TD*
D13*
G04 #@! TO.P,D24,1,K*
G04 #@! TO.N,Net-(D24-K)*
X175895000Y-78740000D03*
G04 #@! TO.P,D24,2,A*
G04 #@! TO.N,/LED_Power_2*
X177945000Y-78740000D03*
G04 #@! TD*
D12*
G04 #@! TO.P,,1*
G04 #@! TO.N,N/C*
X146694000Y-44704000D03*
G04 #@! TD*
D10*
G04 #@! TO.P,R11,1*
G04 #@! TO.N,Net-(D7-K)*
X132749000Y-137758000D03*
G04 #@! TO.P,R11,2*
G04 #@! TO.N,GND*
X134749000Y-137758000D03*
G04 #@! TD*
D16*
G04 #@! TO.P,R27,1*
G04 #@! TO.N,Net-(D23-K)*
X176412000Y-118840750D03*
G04 #@! TO.P,R27,2*
G04 #@! TO.N,GND*
X174412000Y-118840750D03*
G04 #@! TD*
D15*
G04 #@! TO.P,D22,1,K*
G04 #@! TO.N,Net-(D22-K)*
X117248000Y-99060000D03*
G04 #@! TO.P,D22,2,A*
G04 #@! TO.N,/LED_Power_2*
X115198000Y-99060000D03*
G04 #@! TD*
D16*
G04 #@! TO.P,R28,1*
G04 #@! TO.N,Net-(D24-K)*
X173872000Y-78864750D03*
G04 #@! TO.P,R28,2*
G04 #@! TO.N,GND*
X171872000Y-78864750D03*
G04 #@! TD*
D17*
G04 #@! TO.N,GND*
X151520000Y-109474000D03*
X155838000Y-104775000D03*
X145424000Y-109474000D03*
X146948000Y-109474000D03*
X150631000Y-48387000D03*
X127009000Y-78613000D03*
X150504000Y-96139000D03*
X170443000Y-78867000D03*
X145424000Y-108458000D03*
X149996000Y-109474000D03*
X173618000Y-98806000D03*
X145424000Y-48387000D03*
X146948000Y-108458000D03*
X149996000Y-108458000D03*
X136407000Y-137668000D03*
X159394000Y-138430000D03*
X155838000Y-98806000D03*
X151520000Y-108458000D03*
X123326000Y-99060000D03*
X172729000Y-118999000D03*
X123961000Y-118364000D03*
X142249000Y-102235000D03*
X141995000Y-106553000D03*
X162950000Y-58674000D03*
G04 #@! TO.N,/LED_Power_2*
X149996000Y-102108000D03*
G04 #@! TO.N,GND*
X145805000Y-96139000D03*
X131835000Y-61087000D03*
G04 #@! TO.N,/LED_Power_2*
X151520000Y-102108000D03*
X146948000Y-102108000D03*
X145424000Y-103124000D03*
X146948000Y-103124000D03*
X177174000Y-75438000D03*
X151520000Y-103124000D03*
G04 #@! TO.N,/LED_Power_3*
X156028500Y-108013500D03*
G04 #@! TO.N,/LED_Power_2*
X149996000Y-103124000D03*
X145424000Y-102108000D03*
X129676000Y-104648000D03*
G04 #@! TO.N,/LED_Power_1*
X151520000Y-98806000D03*
G04 #@! TO.N,/LED_Power_3*
X153933000Y-99187000D03*
X151520000Y-106426000D03*
X153933000Y-50165000D03*
G04 #@! TO.N,/LED_Power_1*
X146948000Y-99822000D03*
G04 #@! TO.N,/LED_Power_3*
X145424000Y-105410000D03*
X149996000Y-106426000D03*
G04 #@! TO.N,/LED_Power_1*
X145424000Y-98806000D03*
G04 #@! TO.N,/LED_Power_3*
X146948000Y-105410000D03*
X145424000Y-106426000D03*
X146948000Y-106426000D03*
G04 #@! TO.N,/LED_Power_1*
X149996000Y-99822000D03*
G04 #@! TO.N,/LED_Power_3*
X149996000Y-105410000D03*
X151520000Y-105410000D03*
G04 #@! TO.N,/LED_Power_1*
X151520000Y-99822000D03*
X146948000Y-98806000D03*
X149996000Y-98806000D03*
X125675500Y-86804500D03*
G04 #@! TO.N,*
X146694000Y-44704000D03*
X149742000Y-44704000D03*
G04 #@! TO.N,/LED_Power_1*
X145424000Y-99822000D03*
G04 #@! TD*
D18*
G04 #@! TO.N,Net-(D23-K)*
X178403750Y-118840750D02*
X178435000Y-118872000D01*
G04 #@! TO.N,Net-(D22-K)*
X119458250Y-99060000D02*
X119525000Y-98993250D01*
X117248000Y-99060000D02*
X119458250Y-99060000D01*
G04 #@! TO.N,Net-(D25-K)*
X152536000Y-46244000D02*
X154347750Y-46244000D01*
X154347750Y-46244000D02*
X154559000Y-46455250D01*
G04 #@! TO.N,Net-(D23-K)*
X176412000Y-118840750D02*
X178403750Y-118840750D01*
G04 #@! TO.N,Net-(D24-K)*
X173872000Y-78864750D02*
X175770250Y-78864750D01*
X175770250Y-78864750D02*
X175895000Y-78740000D01*
D19*
G04 #@! TO.N,/LED_Power_2*
X145551000Y-102616000D02*
X146186000Y-102616000D01*
D18*
X177936000Y-78740000D02*
X154060000Y-102616000D01*
X129676000Y-104648000D02*
X143519000Y-104648000D01*
D19*
X120659000Y-104648000D02*
X115198000Y-99187000D01*
X177945000Y-78740000D02*
X177936000Y-78740000D01*
X129676000Y-104648000D02*
X120659000Y-104648000D01*
X152028000Y-102616000D02*
X151520000Y-102108000D01*
X115198000Y-99187000D02*
X115198000Y-99060000D01*
G04 #@! TO.N,/LED_Power_3*
X143011000Y-108585000D02*
X145678000Y-105918000D01*
D18*
G04 #@! TO.N,Net-(D6-K)*
X127653000Y-59436000D02*
X129684000Y-59436000D01*
D19*
G04 #@! TO.N,/LED_Power_3*
X178707000Y-117094000D02*
X180485000Y-118872000D01*
D18*
G04 #@! TO.N,/LED_Power_2*
X154060000Y-102616000D02*
X152028000Y-102616000D01*
D19*
G04 #@! TO.N,/LED_Power_3*
X156609000Y-47489000D02*
X153933000Y-50165000D01*
D18*
G04 #@! TO.N,Net-(D7-K)*
X130800000Y-137758000D02*
X130710000Y-137668000D01*
D19*
G04 #@! TO.N,/LED_Power_3*
X165109000Y-117094000D02*
X178707000Y-117094000D01*
X145678000Y-105918000D02*
X146186000Y-105918000D01*
G04 #@! TO.N,/LED_Power_2*
X177945000Y-76209000D02*
X177945000Y-78740000D01*
G04 #@! TO.N,/LED_Power_3*
X153933000Y-99187000D02*
X153933000Y-50165000D01*
G04 #@! TO.N,/LED_Power_2*
X177174000Y-75438000D02*
X177945000Y-76209000D01*
D18*
G04 #@! TO.N,Net-(D7-K)*
X132749000Y-137758000D02*
X130800000Y-137758000D01*
D19*
G04 #@! TO.N,/LED_Power_3*
X156609000Y-46455250D02*
X156609000Y-47489000D01*
X143011000Y-123317000D02*
X143011000Y-108585000D01*
D18*
G04 #@! TO.N,Net-(D6-K)*
X129684000Y-59436000D02*
X129692000Y-59428000D01*
D19*
G04 #@! TO.N,/LED_Power_3*
X128660000Y-137668000D02*
X143011000Y-123317000D01*
X156028500Y-108013500D02*
X165109000Y-117094000D01*
D18*
G04 #@! TO.N,/LED_Power_2*
X143519000Y-104648000D02*
X145551000Y-102616000D01*
D19*
G04 #@! TO.N,/LED_Power_1*
X125603000Y-86732000D02*
X125603000Y-59436000D01*
X125675500Y-86804500D02*
X125603000Y-86732000D01*
G04 #@! TD*
G04 #@! TA.AperFunction,Conductor*
G04 #@! TO.N,GND*
G36*
X148945099Y-43710185D02*
G01*
X148990854Y-43762989D01*
X149000798Y-43832147D01*
X148998736Y-43843017D01*
X148997908Y-43846518D01*
X148994136Y-43881608D01*
X148991501Y-43906123D01*
X148991500Y-43906135D01*
X148991500Y-45501870D01*
X148991501Y-45501876D01*
X148997908Y-45561483D01*
X149048202Y-45696328D01*
X149048206Y-45696335D01*
X149134452Y-45811544D01*
X149134455Y-45811547D01*
X149249664Y-45897793D01*
X149249671Y-45897797D01*
X149294618Y-45914561D01*
X149384517Y-45948091D01*
X149444127Y-45954500D01*
X150039872Y-45954499D01*
X150099483Y-45948091D01*
X150234331Y-45897796D01*
X150349546Y-45811546D01*
X150435796Y-45696331D01*
X150486091Y-45561483D01*
X150492500Y-45501873D01*
X150492499Y-43948646D01*
X150512184Y-43881608D01*
X150564987Y-43835853D01*
X150634146Y-43825909D01*
X150635491Y-43826110D01*
X151341661Y-43936208D01*
X151346641Y-43937089D01*
X152207805Y-44107584D01*
X152212566Y-44108625D01*
X153080628Y-44316425D01*
X153108654Y-44323134D01*
X153113286Y-44324338D01*
X154030949Y-44581849D01*
X154035417Y-44583195D01*
X154965707Y-44882790D01*
X154970098Y-44884295D01*
X155906731Y-45225177D01*
X155910932Y-45226795D01*
X156108008Y-45306915D01*
X156162697Y-45350397D01*
X156185196Y-45416545D01*
X156168362Y-45484356D01*
X156117538Y-45532301D01*
X156104641Y-45537965D01*
X156041675Y-45561450D01*
X156041664Y-45561456D01*
X155926455Y-45647702D01*
X155926452Y-45647705D01*
X155840206Y-45762914D01*
X155840202Y-45762921D01*
X155789908Y-45897767D01*
X155783809Y-45954499D01*
X155783501Y-45957373D01*
X155783500Y-45957385D01*
X155783500Y-46953120D01*
X155783501Y-46953126D01*
X155789908Y-47012733D01*
X155840202Y-47147578D01*
X155840206Y-47147585D01*
X155886293Y-47209148D01*
X155926454Y-47262796D01*
X156027904Y-47338741D01*
X156069774Y-47394674D01*
X156074758Y-47464366D01*
X156041273Y-47525688D01*
X154088781Y-49478181D01*
X154027458Y-49511666D01*
X154001100Y-49514500D01*
X153868929Y-49514500D01*
X153743261Y-49539497D01*
X153743255Y-49539499D01*
X153624875Y-49588533D01*
X153624866Y-49588538D01*
X153518331Y-49659723D01*
X153518327Y-49659726D01*
X153427726Y-49750327D01*
X153427723Y-49750331D01*
X153356538Y-49856866D01*
X153356533Y-49856875D01*
X153307499Y-49975255D01*
X153307497Y-49975261D01*
X153282500Y-50100928D01*
X153282500Y-50100931D01*
X153282500Y-50229069D01*
X153282500Y-50229071D01*
X153282499Y-50229071D01*
X153307497Y-50354738D01*
X153307499Y-50354744D01*
X153356533Y-50473124D01*
X153356538Y-50473133D01*
X153427722Y-50579667D01*
X153427723Y-50579668D01*
X153427724Y-50579669D01*
X153518331Y-50670276D01*
X153518333Y-50670277D01*
X153521181Y-50673125D01*
X153554666Y-50734448D01*
X153557500Y-50760807D01*
X153557500Y-98591192D01*
X153537815Y-98658231D01*
X153521181Y-98678873D01*
X153427726Y-98772327D01*
X153427723Y-98772331D01*
X153356538Y-98878866D01*
X153356533Y-98878875D01*
X153307499Y-98997255D01*
X153307497Y-98997261D01*
X153282500Y-99122928D01*
X153282500Y-99122931D01*
X153282500Y-99251069D01*
X153282500Y-99251071D01*
X153282499Y-99251071D01*
X153307497Y-99376738D01*
X153307499Y-99376744D01*
X153356533Y-99495124D01*
X153356538Y-99495133D01*
X153427723Y-99601668D01*
X153427726Y-99601672D01*
X153518327Y-99692273D01*
X153518331Y-99692276D01*
X153624866Y-99763461D01*
X153624872Y-99763464D01*
X153624873Y-99763465D01*
X153743256Y-99812501D01*
X153743260Y-99812501D01*
X153743261Y-99812502D01*
X153868928Y-99837500D01*
X153868931Y-99837500D01*
X153997071Y-99837500D01*
X154081615Y-99820682D01*
X154122744Y-99812501D01*
X154241127Y-99763465D01*
X154347669Y-99692276D01*
X154438276Y-99601669D01*
X154509465Y-99495127D01*
X154558501Y-99376744D01*
X154583500Y-99251069D01*
X154583500Y-99122931D01*
X154583500Y-99122928D01*
X154558502Y-98997261D01*
X154558501Y-98997260D01*
X154558501Y-98997256D01*
X154509465Y-98878873D01*
X154509464Y-98878872D01*
X154509461Y-98878866D01*
X154438276Y-98772331D01*
X154438273Y-98772327D01*
X154344819Y-98678873D01*
X154311334Y-98617550D01*
X154308500Y-98591192D01*
X154308500Y-79364736D01*
X170772001Y-79364736D01*
X170782494Y-79467447D01*
X170837641Y-79633869D01*
X170837643Y-79633874D01*
X170929684Y-79783095D01*
X171053654Y-79907065D01*
X171202875Y-79999106D01*
X171202880Y-79999108D01*
X171369302Y-80054255D01*
X171369309Y-80054256D01*
X171472019Y-80064749D01*
X171621999Y-80064749D01*
X171622000Y-80064748D01*
X171622000Y-79114750D01*
X170772001Y-79114750D01*
X170772001Y-79364736D01*
X154308500Y-79364736D01*
X154308500Y-78364763D01*
X170772000Y-78364763D01*
X170772000Y-78614750D01*
X171622000Y-78614750D01*
X171622000Y-77664750D01*
X171472027Y-77664750D01*
X171472012Y-77664751D01*
X171369302Y-77675244D01*
X171202880Y-77730391D01*
X171202875Y-77730393D01*
X171053654Y-77822434D01*
X170929684Y-77946404D01*
X170837643Y-78095625D01*
X170837641Y-78095630D01*
X170782494Y-78262052D01*
X170782493Y-78262059D01*
X170772000Y-78364763D01*
X154308500Y-78364763D01*
X154308500Y-50760807D01*
X154328185Y-50693768D01*
X154344819Y-50673125D01*
X154347665Y-50670278D01*
X154347669Y-50670276D01*
X154438276Y-50579669D01*
X154509465Y-50473127D01*
X154558501Y-50354744D01*
X154583500Y-50229069D01*
X154583500Y-50100931D01*
X154583500Y-50096898D01*
X154603185Y-50029859D01*
X154619819Y-50009217D01*
X156909474Y-47719563D01*
X156909475Y-47719562D01*
X156958910Y-47633938D01*
X156984500Y-47538435D01*
X156984500Y-47506689D01*
X157004185Y-47439650D01*
X157056989Y-47393895D01*
X157065168Y-47390507D01*
X157176326Y-47349048D01*
X157176326Y-47349047D01*
X157176331Y-47349046D01*
X157291546Y-47262796D01*
X157377796Y-47147581D01*
X157428091Y-47012733D01*
X157434500Y-46953123D01*
X157434499Y-46063341D01*
X157444263Y-46030085D01*
X157453816Y-45996878D01*
X157454082Y-45996644D01*
X157454183Y-45996303D01*
X157480337Y-45973640D01*
X157506367Y-45950833D01*
X157506718Y-45950780D01*
X157506987Y-45950548D01*
X157541230Y-45945624D01*
X157575469Y-45940509D01*
X157575914Y-45940637D01*
X157576146Y-45940604D01*
X157609386Y-45950265D01*
X157789874Y-46031493D01*
X157793894Y-46033390D01*
X158725928Y-46494402D01*
X158729902Y-46496458D01*
X159571900Y-46951543D01*
X159655330Y-46996635D01*
X159659193Y-46998813D01*
X160576475Y-47537970D01*
X160580172Y-47540233D01*
X161487985Y-48118234D01*
X161491590Y-48120619D01*
X162388895Y-48737454D01*
X162392361Y-48739927D01*
X162827953Y-49062345D01*
X163278184Y-49395599D01*
X163281588Y-49398211D01*
X164155237Y-50092908D01*
X164158485Y-50095583D01*
X164462435Y-50354738D01*
X165019290Y-50829525D01*
X165022435Y-50832300D01*
X165869849Y-51605817D01*
X165872848Y-51608648D01*
X166026891Y-51758991D01*
X166706358Y-52422139D01*
X166709235Y-52425040D01*
X167528372Y-53278981D01*
X167531112Y-53281932D01*
X168335377Y-54176807D01*
X168337980Y-54179799D01*
X169126961Y-55116247D01*
X169129428Y-55119269D01*
X169902680Y-56097942D01*
X169904999Y-56100973D01*
X170195083Y-56492418D01*
X170662025Y-57122519D01*
X170664221Y-57125578D01*
X171404617Y-58190837D01*
X171406680Y-58193902D01*
X172129884Y-59303568D01*
X172131817Y-59306631D01*
X172837387Y-60461631D01*
X172839193Y-60464685D01*
X173527658Y-61667757D01*
X173528929Y-61670033D01*
X173863991Y-62285201D01*
X173864802Y-62286716D01*
X174197302Y-62917839D01*
X174198084Y-62919347D01*
X174524692Y-63560431D01*
X174525444Y-63561932D01*
X174848181Y-64217211D01*
X174848905Y-64218706D01*
X175165671Y-64884202D01*
X175166366Y-64885689D01*
X175478997Y-65565543D01*
X175479665Y-65567021D01*
X175786312Y-66257515D01*
X175786953Y-66258984D01*
X176089193Y-66963988D01*
X176089808Y-66965448D01*
X176385959Y-67681364D01*
X176386548Y-67682813D01*
X176678033Y-68413413D01*
X176678597Y-68414852D01*
X176963951Y-69156824D01*
X176964490Y-69158252D01*
X177244877Y-69914985D01*
X177245392Y-69916402D01*
X177519565Y-70684914D01*
X177520057Y-70686319D01*
X177789009Y-71469791D01*
X177789478Y-71471184D01*
X178052096Y-72266782D01*
X178052543Y-72268162D01*
X178309698Y-73078963D01*
X178310123Y-73080331D01*
X178493120Y-73681320D01*
X178560774Y-73903503D01*
X178561178Y-73904858D01*
X178806154Y-74743591D01*
X178806537Y-74744932D01*
X179044842Y-75596310D01*
X179045206Y-75597638D01*
X179277564Y-76464753D01*
X179277909Y-76466068D01*
X179503502Y-77346411D01*
X179503828Y-77347712D01*
X179723164Y-78243828D01*
X179723471Y-78245114D01*
X179935859Y-79154757D01*
X179936149Y-79156030D01*
X180142050Y-80081800D01*
X180142323Y-80083058D01*
X180341105Y-81022756D01*
X180341362Y-81024001D01*
X180533370Y-81979949D01*
X180533610Y-81981178D01*
X180718328Y-82951507D01*
X180718554Y-82952723D01*
X180896246Y-83939604D01*
X180896456Y-83940805D01*
X181066645Y-84942386D01*
X181066840Y-84943572D01*
X181229692Y-85961645D01*
X181229874Y-85962817D01*
X181385084Y-86996408D01*
X181385252Y-86997565D01*
X181532842Y-88047778D01*
X181532998Y-88048922D01*
X181672719Y-89115025D01*
X181672861Y-89116153D01*
X181804680Y-90198968D01*
X181804811Y-90200082D01*
X181928540Y-91299247D01*
X181928659Y-91300348D01*
X182044262Y-92416881D01*
X182044369Y-92417966D01*
X182151587Y-93550724D01*
X182151684Y-93551796D01*
X182250517Y-94702277D01*
X182250603Y-94703334D01*
X182340813Y-95870479D01*
X182340889Y-95871523D01*
X182422427Y-97056498D01*
X182422494Y-97057527D01*
X182495189Y-98260002D01*
X182495246Y-98261018D01*
X182558961Y-99481054D01*
X182559010Y-99482056D01*
X182613636Y-100720339D01*
X182613675Y-100721327D01*
X182659053Y-101977474D01*
X182659085Y-101978449D01*
X182695090Y-103252970D01*
X182695113Y-103253932D01*
X182721599Y-104546782D01*
X182721615Y-104547731D01*
X182738448Y-105859186D01*
X182738456Y-105860121D01*
X182745488Y-107189174D01*
X182745488Y-107190535D01*
X182740553Y-108058207D01*
X182740537Y-108059637D01*
X182725845Y-108912756D01*
X182725811Y-108914209D01*
X182701538Y-109752623D01*
X182701486Y-109754101D01*
X182667789Y-110578269D01*
X182667719Y-110579769D01*
X182624763Y-111389862D01*
X182624673Y-111391386D01*
X182572615Y-112187588D01*
X182572504Y-112189136D01*
X182511506Y-112971586D01*
X182511373Y-112973157D01*
X182441603Y-113741857D01*
X182441448Y-113743451D01*
X182363024Y-114498955D01*
X182362846Y-114500572D01*
X182275953Y-115242695D01*
X182275757Y-115244274D01*
X182180479Y-115973691D01*
X182180266Y-115975243D01*
X182076859Y-116691284D01*
X182076604Y-116692969D01*
X181965063Y-117396795D01*
X181964780Y-117398502D01*
X181845421Y-118089166D01*
X181845109Y-118090896D01*
X181717859Y-118769751D01*
X181717518Y-118771501D01*
X181582725Y-119437567D01*
X181582353Y-119439337D01*
X181439896Y-120093990D01*
X181439493Y-120095781D01*
X181289756Y-120737975D01*
X181289319Y-120739785D01*
X181132133Y-121370920D01*
X181131663Y-121372749D01*
X180967532Y-121991436D01*
X180967027Y-121993282D01*
X180795575Y-122601521D01*
X180795034Y-122603385D01*
X180616885Y-123199494D01*
X180616307Y-123201374D01*
X180430991Y-123787426D01*
X180430375Y-123789320D01*
X180238706Y-124363226D01*
X180238051Y-124365134D01*
X180039323Y-124929446D01*
X180038629Y-124931367D01*
X179833773Y-125483858D01*
X179833038Y-125485792D01*
X179621213Y-126029104D01*
X179620437Y-126031046D01*
X179402776Y-126562649D01*
X179401957Y-126564601D01*
X179177344Y-127087538D01*
X179176482Y-127089498D01*
X178947486Y-127598237D01*
X178946114Y-127601182D01*
X178465570Y-128598124D01*
X178463581Y-128602068D01*
X177960103Y-129557963D01*
X177957933Y-129561908D01*
X177430806Y-130480212D01*
X177428452Y-130484144D01*
X176878016Y-131365910D01*
X176875476Y-131369812D01*
X176302173Y-132215758D01*
X176299450Y-132219617D01*
X175703433Y-133030758D01*
X175700527Y-133034556D01*
X175082042Y-133811604D01*
X175078959Y-133815326D01*
X174438205Y-134558925D01*
X174434950Y-134562556D01*
X173771986Y-135273380D01*
X173768565Y-135276905D01*
X173083504Y-135955436D01*
X173079928Y-135958840D01*
X172372808Y-136605530D01*
X172369086Y-136608800D01*
X171639936Y-137223989D01*
X171636079Y-137227113D01*
X170885020Y-137810981D01*
X170881042Y-137813948D01*
X170108114Y-138366655D01*
X170104026Y-138369456D01*
X169309398Y-138890995D01*
X169305215Y-138893623D01*
X168489075Y-139383921D01*
X168484810Y-139386369D01*
X167647650Y-139845137D01*
X167643317Y-139847402D01*
X166785623Y-140274348D01*
X166781232Y-140276427D01*
X165903884Y-140671066D01*
X165899450Y-140672958D01*
X165003653Y-141034714D01*
X164999182Y-141036420D01*
X164086639Y-141364593D01*
X164082143Y-141366114D01*
X163155238Y-141659904D01*
X163150720Y-141661242D01*
X162212783Y-141919752D01*
X162208245Y-141920910D01*
X161264143Y-142143131D01*
X161259585Y-142144114D01*
X160316042Y-142329060D01*
X160311453Y-142329871D01*
X159378582Y-142476573D01*
X159373949Y-142477212D01*
X158467595Y-142584900D01*
X158462893Y-142585368D01*
X157609589Y-142653909D01*
X157604819Y-142654200D01*
X156854886Y-142685420D01*
X156850939Y-142685521D01*
X156444141Y-142689494D01*
X156442930Y-142689500D01*
X154970500Y-142689500D01*
X154903461Y-142669815D01*
X154857706Y-142617011D01*
X154846500Y-142565500D01*
X154846500Y-119340736D01*
X173312001Y-119340736D01*
X173322494Y-119443447D01*
X173377641Y-119609869D01*
X173377643Y-119609874D01*
X173469684Y-119759095D01*
X173593654Y-119883065D01*
X173742875Y-119975106D01*
X173742880Y-119975108D01*
X173909302Y-120030255D01*
X173909309Y-120030256D01*
X174012019Y-120040749D01*
X174161999Y-120040749D01*
X174162000Y-120040748D01*
X174162000Y-119090750D01*
X173312001Y-119090750D01*
X173312001Y-119340736D01*
X154846500Y-119340736D01*
X154846500Y-111082683D01*
X154846500Y-111082682D01*
X154825062Y-110933584D01*
X154815955Y-110870235D01*
X154815952Y-110870225D01*
X154797538Y-110807511D01*
X154755484Y-110664290D01*
X154755483Y-110664288D01*
X154755482Y-110664284D01*
X154666327Y-110469061D01*
X154666320Y-110469048D01*
X154633211Y-110417531D01*
X154550281Y-110288487D01*
X154454227Y-110177635D01*
X154409724Y-110126275D01*
X154247514Y-109985720D01*
X154247513Y-109985719D01*
X154182991Y-109944253D01*
X154066951Y-109869679D01*
X154066938Y-109869672D01*
X153871715Y-109780517D01*
X153665774Y-109720047D01*
X153665764Y-109720044D01*
X153474754Y-109692582D01*
X153453318Y-109689500D01*
X153411892Y-109689500D01*
X148310000Y-109689500D01*
X148242961Y-109669815D01*
X148197206Y-109617011D01*
X148186000Y-109565500D01*
X148186000Y-108077571D01*
X155377999Y-108077571D01*
X155402997Y-108203238D01*
X155402999Y-108203244D01*
X155452033Y-108321624D01*
X155452038Y-108321633D01*
X155523223Y-108428168D01*
X155523226Y-108428172D01*
X155613827Y-108518773D01*
X155613831Y-108518776D01*
X155720366Y-108589961D01*
X155720372Y-108589964D01*
X155720373Y-108589965D01*
X155838756Y-108639001D01*
X155838760Y-108639001D01*
X155838761Y-108639002D01*
X155964428Y-108664000D01*
X156096601Y-108664000D01*
X156163640Y-108683685D01*
X156184282Y-108700319D01*
X164808525Y-117324562D01*
X164878438Y-117394475D01*
X164964062Y-117443910D01*
X165011811Y-117456705D01*
X165011812Y-117456705D01*
X165021903Y-117459408D01*
X165059564Y-117469500D01*
X165059565Y-117469500D01*
X173691567Y-117469500D01*
X173758606Y-117489185D01*
X173804361Y-117541989D01*
X173814305Y-117611147D01*
X173785280Y-117674703D01*
X173748800Y-117702237D01*
X173749025Y-117702601D01*
X173745158Y-117704985D01*
X173743970Y-117705883D01*
X173742880Y-117706391D01*
X173593654Y-117798434D01*
X173469684Y-117922404D01*
X173377643Y-118071625D01*
X173377641Y-118071630D01*
X173322494Y-118238052D01*
X173322493Y-118238059D01*
X173312000Y-118340763D01*
X173312000Y-118590750D01*
X174288000Y-118590750D01*
X174355039Y-118610435D01*
X174400794Y-118663239D01*
X174412000Y-118714750D01*
X174412000Y-118840750D01*
X174538000Y-118840750D01*
X174605039Y-118860435D01*
X174650794Y-118913239D01*
X174662000Y-118964750D01*
X174662000Y-120040749D01*
X174811972Y-120040749D01*
X174811986Y-120040748D01*
X174914697Y-120030255D01*
X175081119Y-119975108D01*
X175081124Y-119975106D01*
X175230345Y-119883065D01*
X175354315Y-119759095D01*
X175446354Y-119609876D01*
X175446842Y-119608831D01*
X175447368Y-119608232D01*
X175450149Y-119603725D01*
X175450918Y-119604199D01*
X175493007Y-119556385D01*
X175560198Y-119537223D01*
X175627082Y-119557429D01*
X175658498Y-119586907D01*
X175704455Y-119648297D01*
X175819664Y-119734543D01*
X175819671Y-119734547D01*
X175954517Y-119784841D01*
X175954516Y-119784841D01*
X175961444Y-119785585D01*
X176014127Y-119791250D01*
X176809872Y-119791249D01*
X176869483Y-119784841D01*
X177004331Y-119734546D01*
X177119546Y-119648296D01*
X177205796Y-119533081D01*
X177256091Y-119398233D01*
X177256090Y-119398233D01*
X177256582Y-119396917D01*
X177269851Y-119379190D01*
X177279051Y-119359047D01*
X177290381Y-119351765D01*
X177298453Y-119340983D01*
X177319201Y-119333244D01*
X177337829Y-119321273D01*
X177359745Y-119318121D01*
X177363917Y-119316566D01*
X177372764Y-119316250D01*
X177492352Y-119316250D01*
X177559391Y-119335935D01*
X177605146Y-119388739D01*
X177615642Y-119427001D01*
X177615908Y-119429482D01*
X177666202Y-119564328D01*
X177666206Y-119564335D01*
X177752452Y-119679544D01*
X177752455Y-119679547D01*
X177867664Y-119765793D01*
X177867671Y-119765797D01*
X177912618Y-119782561D01*
X178002517Y-119816091D01*
X178062127Y-119822500D01*
X178807872Y-119822499D01*
X178867483Y-119816091D01*
X179002331Y-119765796D01*
X179117546Y-119679546D01*
X179203796Y-119564331D01*
X179254091Y-119429483D01*
X179260500Y-119369873D01*
X179260499Y-118477897D01*
X179266737Y-118456651D01*
X179268317Y-118434564D01*
X179276388Y-118423781D01*
X179280183Y-118410859D01*
X179296919Y-118396357D01*
X179310189Y-118378631D01*
X179322807Y-118373924D01*
X179332987Y-118365104D01*
X179354905Y-118361952D01*
X179375653Y-118354214D01*
X179388813Y-118357076D01*
X179402146Y-118355160D01*
X179422289Y-118364359D01*
X179443926Y-118369066D01*
X179461651Y-118382334D01*
X179465702Y-118384185D01*
X179472180Y-118390217D01*
X179623181Y-118541218D01*
X179656666Y-118602541D01*
X179659500Y-118628899D01*
X179659500Y-119369870D01*
X179659501Y-119369876D01*
X179665908Y-119429483D01*
X179716202Y-119564328D01*
X179716206Y-119564335D01*
X179802452Y-119679544D01*
X179802455Y-119679547D01*
X179917664Y-119765793D01*
X179917671Y-119765797D01*
X179962618Y-119782561D01*
X180052517Y-119816091D01*
X180112127Y-119822500D01*
X180857872Y-119822499D01*
X180917483Y-119816091D01*
X181052331Y-119765796D01*
X181167546Y-119679546D01*
X181253796Y-119564331D01*
X181304091Y-119429483D01*
X181310500Y-119369873D01*
X181310499Y-118374128D01*
X181304091Y-118314517D01*
X181292926Y-118284583D01*
X181253797Y-118179671D01*
X181253793Y-118179664D01*
X181167547Y-118064455D01*
X181167544Y-118064452D01*
X181052335Y-117978206D01*
X181052328Y-117978202D01*
X180917486Y-117927910D01*
X180917485Y-117927909D01*
X180917483Y-117927909D01*
X180857873Y-117921500D01*
X180857864Y-117921500D01*
X180116899Y-117921500D01*
X180049860Y-117901815D01*
X180029218Y-117885181D01*
X178937563Y-116793526D01*
X178937562Y-116793525D01*
X178851938Y-116744090D01*
X178804186Y-116731295D01*
X178804184Y-116731294D01*
X178804182Y-116731293D01*
X178756436Y-116718500D01*
X178756435Y-116718500D01*
X165315899Y-116718500D01*
X165248860Y-116698815D01*
X165228218Y-116682181D01*
X156715319Y-108169282D01*
X156681834Y-108107959D01*
X156679000Y-108081601D01*
X156679000Y-107949428D01*
X156654002Y-107823761D01*
X156654001Y-107823760D01*
X156654001Y-107823756D01*
X156604965Y-107705373D01*
X156604964Y-107705372D01*
X156604961Y-107705366D01*
X156533776Y-107598831D01*
X156533773Y-107598827D01*
X156443172Y-107508226D01*
X156443168Y-107508223D01*
X156336633Y-107437038D01*
X156336624Y-107437033D01*
X156218244Y-107387999D01*
X156218238Y-107387997D01*
X156092571Y-107363000D01*
X156092569Y-107363000D01*
X155964431Y-107363000D01*
X155964429Y-107363000D01*
X155838761Y-107387997D01*
X155838755Y-107387999D01*
X155720375Y-107437033D01*
X155720366Y-107437038D01*
X155613831Y-107508223D01*
X155613827Y-107508226D01*
X155523226Y-107598827D01*
X155523223Y-107598831D01*
X155452038Y-107705366D01*
X155452033Y-107705375D01*
X155402999Y-107823755D01*
X155402997Y-107823761D01*
X155378000Y-107949428D01*
X155378000Y-107949431D01*
X155378000Y-108077569D01*
X155378000Y-108077571D01*
X155377999Y-108077571D01*
X148186000Y-108077571D01*
X148186000Y-107918172D01*
X148185999Y-107918155D01*
X148179598Y-107858627D01*
X148179596Y-107858620D01*
X148129354Y-107723913D01*
X148129350Y-107723906D01*
X148064899Y-107637811D01*
X148040481Y-107572347D01*
X148055332Y-107504074D01*
X148104737Y-107454668D01*
X148164165Y-107439500D01*
X152157990Y-107439500D01*
X152158000Y-107439500D01*
X152265456Y-107427947D01*
X152316967Y-107416741D01*
X152351197Y-107405347D01*
X152419497Y-107382616D01*
X152419501Y-107382613D01*
X152419504Y-107382613D01*
X152540543Y-107304825D01*
X152593347Y-107259070D01*
X152687567Y-107150336D01*
X152747338Y-107019459D01*
X152767023Y-106952420D01*
X152767024Y-106952416D01*
X152787500Y-106810000D01*
X152787500Y-105026000D01*
X152775947Y-104918544D01*
X152764741Y-104867033D01*
X152760839Y-104855309D01*
X152730616Y-104764502D01*
X152730613Y-104764496D01*
X152652828Y-104643462D01*
X152652825Y-104643457D01*
X152652820Y-104643451D01*
X152607076Y-104590659D01*
X152607072Y-104590656D01*
X152607070Y-104590653D01*
X152498336Y-104496433D01*
X152498333Y-104496431D01*
X152498331Y-104496430D01*
X152367465Y-104436664D01*
X152367460Y-104436662D01*
X152367459Y-104436662D01*
X152300420Y-104416977D01*
X152300422Y-104416977D01*
X152300417Y-104416976D01*
X152238354Y-104408053D01*
X152158000Y-104396500D01*
X144786000Y-104396500D01*
X144751111Y-104400251D01*
X144723007Y-104395179D01*
X144694524Y-104393143D01*
X144689063Y-104389055D01*
X144682351Y-104387844D01*
X144661450Y-104368383D01*
X144638591Y-104351271D01*
X144636207Y-104344880D01*
X144631215Y-104340232D01*
X144624152Y-104312561D01*
X144614174Y-104285807D01*
X144615623Y-104279142D01*
X144613937Y-104272533D01*
X144622956Y-104245436D01*
X144629026Y-104217534D01*
X144634819Y-104209795D01*
X144636003Y-104206239D01*
X144650171Y-104189286D01*
X144668634Y-104170823D01*
X144729955Y-104137340D01*
X144773962Y-104135769D01*
X144786000Y-104137500D01*
X144786001Y-104137500D01*
X152157990Y-104137500D01*
X152158000Y-104137500D01*
X152265456Y-104125947D01*
X152316967Y-104114741D01*
X152351197Y-104103347D01*
X152419497Y-104080616D01*
X152419501Y-104080613D01*
X152419504Y-104080613D01*
X152540543Y-104002825D01*
X152593347Y-103957070D01*
X152687567Y-103848336D01*
X152747338Y-103717459D01*
X152767023Y-103650420D01*
X152767024Y-103650416D01*
X152787500Y-103508000D01*
X152787500Y-103215500D01*
X152807185Y-103148461D01*
X152859989Y-103102706D01*
X152911500Y-103091500D01*
X154122599Y-103091500D01*
X154122601Y-103091500D01*
X154243536Y-103059095D01*
X154351964Y-102996495D01*
X177621640Y-79726817D01*
X177682963Y-79693333D01*
X177709321Y-79690499D01*
X178317871Y-79690499D01*
X178317872Y-79690499D01*
X178377483Y-79684091D01*
X178512331Y-79633796D01*
X178627546Y-79547546D01*
X178713796Y-79432331D01*
X178764091Y-79297483D01*
X178770500Y-79237873D01*
X178770499Y-78242128D01*
X178764091Y-78182517D01*
X178760325Y-78172421D01*
X178713797Y-78047671D01*
X178713793Y-78047664D01*
X178627547Y-77932455D01*
X178627544Y-77932452D01*
X178512335Y-77846206D01*
X178512329Y-77846203D01*
X178401166Y-77804741D01*
X178345233Y-77762869D01*
X178320816Y-77697405D01*
X178320500Y-77688559D01*
X178320500Y-76159566D01*
X178320500Y-76159565D01*
X178320500Y-76159564D01*
X178294911Y-76064063D01*
X178245475Y-75978437D01*
X177860819Y-75593781D01*
X177827334Y-75532458D01*
X177824500Y-75506100D01*
X177824500Y-75373928D01*
X177799502Y-75248261D01*
X177799501Y-75248260D01*
X177799501Y-75248256D01*
X177750465Y-75129873D01*
X177750464Y-75129872D01*
X177750461Y-75129866D01*
X177679276Y-75023331D01*
X177679273Y-75023327D01*
X177588672Y-74932726D01*
X177588668Y-74932723D01*
X177482133Y-74861538D01*
X177482124Y-74861533D01*
X177363744Y-74812499D01*
X177363738Y-74812497D01*
X177238071Y-74787500D01*
X177238069Y-74787500D01*
X177109931Y-74787500D01*
X177109929Y-74787500D01*
X176984261Y-74812497D01*
X176984255Y-74812499D01*
X176865875Y-74861533D01*
X176865866Y-74861538D01*
X176759331Y-74932723D01*
X176759327Y-74932726D01*
X176668726Y-75023327D01*
X176668723Y-75023331D01*
X176597538Y-75129866D01*
X176597533Y-75129875D01*
X176548499Y-75248255D01*
X176548497Y-75248261D01*
X176523500Y-75373928D01*
X176523500Y-75373931D01*
X176523500Y-75502069D01*
X176523500Y-75502071D01*
X176523499Y-75502071D01*
X176548497Y-75627738D01*
X176548499Y-75627744D01*
X176597533Y-75746124D01*
X176597538Y-75746133D01*
X176668723Y-75852668D01*
X176668726Y-75852672D01*
X176759327Y-75943273D01*
X176759331Y-75943276D01*
X176865866Y-76014461D01*
X176865872Y-76014464D01*
X176865873Y-76014465D01*
X176984256Y-76063501D01*
X176984260Y-76063501D01*
X176984261Y-76063502D01*
X177109928Y-76088500D01*
X177242100Y-76088500D01*
X177309139Y-76108185D01*
X177329781Y-76124819D01*
X177533181Y-76328218D01*
X177566666Y-76389541D01*
X177569500Y-76415899D01*
X177569500Y-77688560D01*
X177549815Y-77755599D01*
X177497011Y-77801354D01*
X177488833Y-77804742D01*
X177377671Y-77846202D01*
X177377664Y-77846206D01*
X177262455Y-77932452D01*
X177262452Y-77932455D01*
X177176206Y-78047664D01*
X177176202Y-78047671D01*
X177125908Y-78182517D01*
X177119501Y-78242116D01*
X177119501Y-78242123D01*
X177119500Y-78242135D01*
X177119500Y-78832678D01*
X177110855Y-78862118D01*
X177104332Y-78892105D01*
X177100577Y-78897120D01*
X177099815Y-78899717D01*
X177083185Y-78920354D01*
X177006296Y-78997244D01*
X176932180Y-79071360D01*
X176870857Y-79104844D01*
X176801165Y-79099860D01*
X176745232Y-79057988D01*
X176720815Y-78992524D01*
X176720499Y-78983698D01*
X176720499Y-78242128D01*
X176714091Y-78182517D01*
X176710325Y-78172421D01*
X176663797Y-78047671D01*
X176663793Y-78047664D01*
X176577547Y-77932455D01*
X176577544Y-77932452D01*
X176462335Y-77846206D01*
X176462328Y-77846202D01*
X176327486Y-77795910D01*
X176327485Y-77795909D01*
X176327483Y-77795909D01*
X176267873Y-77789500D01*
X176267863Y-77789500D01*
X175522129Y-77789500D01*
X175522123Y-77789501D01*
X175462516Y-77795908D01*
X175327671Y-77846202D01*
X175327664Y-77846206D01*
X175212455Y-77932452D01*
X175212452Y-77932455D01*
X175126206Y-78047664D01*
X175126202Y-78047671D01*
X175075908Y-78182517D01*
X175069501Y-78242116D01*
X175069501Y-78242123D01*
X175069500Y-78242135D01*
X175069500Y-78265250D01*
X175066949Y-78273935D01*
X175068238Y-78282897D01*
X175057259Y-78306937D01*
X175049815Y-78332289D01*
X175042974Y-78338216D01*
X175039213Y-78346453D01*
X175016978Y-78360742D01*
X174997011Y-78378044D01*
X174986496Y-78380331D01*
X174980435Y-78384227D01*
X174945500Y-78389250D01*
X174832764Y-78389250D01*
X174765725Y-78369565D01*
X174719970Y-78316761D01*
X174716582Y-78308583D01*
X174665797Y-78172421D01*
X174665793Y-78172414D01*
X174579547Y-78057205D01*
X174579544Y-78057202D01*
X174464335Y-77970956D01*
X174464328Y-77970952D01*
X174329482Y-77920658D01*
X174329483Y-77920658D01*
X174269883Y-77914251D01*
X174269881Y-77914250D01*
X174269873Y-77914250D01*
X174269864Y-77914250D01*
X173474129Y-77914250D01*
X173474123Y-77914251D01*
X173414516Y-77920658D01*
X173279671Y-77970952D01*
X173279664Y-77970956D01*
X173164455Y-78057202D01*
X173118498Y-78118592D01*
X173062563Y-78160463D01*
X172992872Y-78165446D01*
X172931549Y-78131960D01*
X172910335Y-78101659D01*
X172910149Y-78101775D01*
X172908170Y-78098566D01*
X172906845Y-78096674D01*
X172906356Y-78095627D01*
X172814315Y-77946404D01*
X172690345Y-77822434D01*
X172541124Y-77730393D01*
X172541119Y-77730391D01*
X172374697Y-77675244D01*
X172374690Y-77675243D01*
X172271986Y-77664750D01*
X172122000Y-77664750D01*
X172122000Y-80064749D01*
X172271972Y-80064749D01*
X172271986Y-80064748D01*
X172374697Y-80054255D01*
X172541119Y-79999108D01*
X172541124Y-79999106D01*
X172690345Y-79907065D01*
X172814315Y-79783095D01*
X172906354Y-79633876D01*
X172906842Y-79632831D01*
X172907368Y-79632232D01*
X172910149Y-79627725D01*
X172910918Y-79628199D01*
X172953007Y-79580385D01*
X173020198Y-79561223D01*
X173087082Y-79581429D01*
X173118498Y-79610907D01*
X173164455Y-79672297D01*
X173279664Y-79758543D01*
X173279671Y-79758547D01*
X173414517Y-79808841D01*
X173414516Y-79808841D01*
X173421444Y-79809585D01*
X173474127Y-79815250D01*
X174269872Y-79815249D01*
X174329483Y-79808841D01*
X174464331Y-79758546D01*
X174579546Y-79672296D01*
X174665796Y-79557081D01*
X174716091Y-79422233D01*
X174716090Y-79422233D01*
X174716582Y-79420917D01*
X174729851Y-79403190D01*
X174739051Y-79383047D01*
X174750381Y-79375765D01*
X174758453Y-79364983D01*
X174779201Y-79357244D01*
X174797829Y-79345273D01*
X174819745Y-79342121D01*
X174823917Y-79340566D01*
X174832764Y-79340250D01*
X175005765Y-79340250D01*
X175072804Y-79359935D01*
X175118559Y-79412739D01*
X175121948Y-79420920D01*
X175126202Y-79432328D01*
X175126206Y-79432335D01*
X175212452Y-79547544D01*
X175212455Y-79547547D01*
X175327664Y-79633793D01*
X175327671Y-79633797D01*
X175327883Y-79633876D01*
X175462517Y-79684091D01*
X175522127Y-79690500D01*
X176013679Y-79690499D01*
X176080717Y-79710183D01*
X176126472Y-79762987D01*
X176136416Y-79832146D01*
X176107391Y-79895702D01*
X176101359Y-79902180D01*
X153899360Y-102104181D01*
X153838037Y-102137666D01*
X153811679Y-102140500D01*
X152911500Y-102140500D01*
X152844461Y-102120815D01*
X152798706Y-102068011D01*
X152787500Y-102016500D01*
X152787500Y-101724010D01*
X152787500Y-101724000D01*
X152775947Y-101616544D01*
X152764741Y-101565033D01*
X152764637Y-101564722D01*
X152730616Y-101462502D01*
X152730613Y-101462496D01*
X152652828Y-101341462D01*
X152652825Y-101341457D01*
X152652820Y-101341451D01*
X152607076Y-101288659D01*
X152607072Y-101288656D01*
X152607070Y-101288653D01*
X152498336Y-101194433D01*
X152498333Y-101194431D01*
X152498331Y-101194430D01*
X152367465Y-101134664D01*
X152367460Y-101134662D01*
X152367459Y-101134662D01*
X152300420Y-101114977D01*
X152300422Y-101114977D01*
X152300417Y-101114976D01*
X152238347Y-101106052D01*
X152158000Y-101094500D01*
X144786000Y-101094500D01*
X144785991Y-101094500D01*
X144785990Y-101094501D01*
X144678549Y-101106052D01*
X144678537Y-101106054D01*
X144627027Y-101117260D01*
X144524502Y-101151383D01*
X144524496Y-101151386D01*
X144403462Y-101229171D01*
X144403451Y-101229179D01*
X144350659Y-101274923D01*
X144256433Y-101383664D01*
X144256430Y-101383668D01*
X144196664Y-101514534D01*
X144176976Y-101581582D01*
X144171949Y-101616549D01*
X144156502Y-101723990D01*
X144156500Y-101724001D01*
X144156500Y-103286679D01*
X144136815Y-103353718D01*
X144120181Y-103374360D01*
X143358360Y-104136181D01*
X143297037Y-104169666D01*
X143270679Y-104172500D01*
X130171320Y-104172500D01*
X130104281Y-104152815D01*
X130092659Y-104144356D01*
X130090673Y-104142726D01*
X129984133Y-104071538D01*
X129984124Y-104071533D01*
X129865744Y-104022499D01*
X129865738Y-104022497D01*
X129740071Y-103997500D01*
X129740069Y-103997500D01*
X129611931Y-103997500D01*
X129611929Y-103997500D01*
X129486261Y-104022497D01*
X129486255Y-104022499D01*
X129367875Y-104071533D01*
X129367866Y-104071538D01*
X129261331Y-104142723D01*
X129261327Y-104142726D01*
X129167873Y-104236181D01*
X129106550Y-104269666D01*
X129080192Y-104272500D01*
X120865899Y-104272500D01*
X120798860Y-104252815D01*
X120778218Y-104236181D01*
X116762219Y-100220182D01*
X116728734Y-100158859D01*
X116733718Y-100089167D01*
X116775590Y-100033234D01*
X116841054Y-100008817D01*
X116863144Y-100009211D01*
X116875127Y-100010500D01*
X117620872Y-100010499D01*
X117680483Y-100004091D01*
X117815331Y-99953796D01*
X117930546Y-99867546D01*
X118016796Y-99752331D01*
X118059213Y-99638605D01*
X118067582Y-99616167D01*
X118109453Y-99560233D01*
X118174917Y-99535816D01*
X118183764Y-99535500D01*
X118589132Y-99535500D01*
X118656171Y-99555185D01*
X118701926Y-99607989D01*
X118705314Y-99616167D01*
X118731202Y-99685578D01*
X118731206Y-99685585D01*
X118817452Y-99800794D01*
X118817455Y-99800797D01*
X118932664Y-99887043D01*
X118932671Y-99887047D01*
X119067517Y-99937341D01*
X119067516Y-99937341D01*
X119074444Y-99938085D01*
X119127127Y-99943750D01*
X119922872Y-99943749D01*
X119982483Y-99937341D01*
X120117331Y-99887046D01*
X120232546Y-99800796D01*
X120278502Y-99739406D01*
X120334434Y-99697537D01*
X120404125Y-99692553D01*
X120465448Y-99726038D01*
X120486665Y-99756339D01*
X120486851Y-99756225D01*
X120488819Y-99759416D01*
X120490151Y-99761318D01*
X120490642Y-99762371D01*
X120582684Y-99911595D01*
X120706654Y-100035565D01*
X120855875Y-100127606D01*
X120855880Y-100127608D01*
X121022302Y-100182755D01*
X121022309Y-100182756D01*
X121125019Y-100193249D01*
X121274999Y-100193249D01*
X121775000Y-100193249D01*
X121924972Y-100193249D01*
X121924986Y-100193248D01*
X122027697Y-100182755D01*
X122194119Y-100127608D01*
X122194124Y-100127606D01*
X122343345Y-100035565D01*
X122467315Y-99911595D01*
X122559356Y-99762374D01*
X122559358Y-99762369D01*
X122614505Y-99595947D01*
X122614506Y-99595940D01*
X122624999Y-99493236D01*
X122625000Y-99493223D01*
X122625000Y-99243250D01*
X121775000Y-99243250D01*
X121775000Y-100193249D01*
X121274999Y-100193249D01*
X121275000Y-100193248D01*
X121275000Y-98743250D01*
X121775000Y-98743250D01*
X122624999Y-98743250D01*
X122624999Y-98493278D01*
X122624998Y-98493263D01*
X122618553Y-98430173D01*
X122618553Y-98430172D01*
X122617718Y-98422000D01*
X144156500Y-98422000D01*
X144156500Y-100206000D01*
X144156501Y-100206009D01*
X144168052Y-100313450D01*
X144168054Y-100313462D01*
X144179260Y-100364972D01*
X144213383Y-100467497D01*
X144213386Y-100467503D01*
X144291171Y-100588537D01*
X144291179Y-100588548D01*
X144336923Y-100641340D01*
X144336926Y-100641343D01*
X144336930Y-100641347D01*
X144445664Y-100735567D01*
X144445667Y-100735568D01*
X144445668Y-100735569D01*
X144539925Y-100778616D01*
X144576541Y-100795338D01*
X144643580Y-100815023D01*
X144643584Y-100815024D01*
X144786000Y-100835500D01*
X144786003Y-100835500D01*
X152157990Y-100835500D01*
X152158000Y-100835500D01*
X152265456Y-100823947D01*
X152316967Y-100812741D01*
X152351197Y-100801347D01*
X152419497Y-100778616D01*
X152419501Y-100778613D01*
X152419504Y-100778613D01*
X152540543Y-100700825D01*
X152593347Y-100655070D01*
X152687567Y-100546336D01*
X152747338Y-100415459D01*
X152767023Y-100348420D01*
X152767024Y-100348416D01*
X152787500Y-100206000D01*
X152787500Y-98422000D01*
X152775947Y-98314544D01*
X152764741Y-98263033D01*
X152753838Y-98230275D01*
X152730616Y-98160502D01*
X152730613Y-98160496D01*
X152659060Y-98049159D01*
X152652825Y-98039457D01*
X152652820Y-98039451D01*
X152607076Y-97986659D01*
X152607072Y-97986656D01*
X152607070Y-97986653D01*
X152498336Y-97892433D01*
X152498333Y-97892431D01*
X152498331Y-97892430D01*
X152367465Y-97832664D01*
X152367460Y-97832662D01*
X152367459Y-97832662D01*
X152300420Y-97812977D01*
X152300422Y-97812977D01*
X152300417Y-97812976D01*
X152236198Y-97803743D01*
X152158000Y-97792500D01*
X144786000Y-97792500D01*
X144785991Y-97792500D01*
X144785990Y-97792501D01*
X144678549Y-97804052D01*
X144678537Y-97804054D01*
X144627027Y-97815260D01*
X144524502Y-97849383D01*
X144524496Y-97849386D01*
X144403462Y-97927171D01*
X144403451Y-97927179D01*
X144350659Y-97972923D01*
X144256433Y-98081664D01*
X144256430Y-98081668D01*
X144196664Y-98212534D01*
X144176976Y-98279582D01*
X144171949Y-98314549D01*
X144156500Y-98422000D01*
X122617718Y-98422000D01*
X122614505Y-98390553D01*
X122559358Y-98224130D01*
X122559356Y-98224125D01*
X122467315Y-98074904D01*
X122343345Y-97950934D01*
X122194124Y-97858893D01*
X122194119Y-97858891D01*
X122027697Y-97803744D01*
X122027690Y-97803743D01*
X121924986Y-97793250D01*
X121775000Y-97793250D01*
X121775000Y-98743250D01*
X121275000Y-98743250D01*
X121275000Y-97793250D01*
X121125027Y-97793250D01*
X121125012Y-97793251D01*
X121022302Y-97803744D01*
X120855880Y-97858891D01*
X120855875Y-97858893D01*
X120706654Y-97950934D01*
X120582684Y-98074904D01*
X120490637Y-98224135D01*
X120490148Y-98225186D01*
X120489620Y-98225785D01*
X120486851Y-98230275D01*
X120486083Y-98229801D01*
X120443975Y-98277625D01*
X120376782Y-98296776D01*
X120309901Y-98276559D01*
X120278501Y-98247091D01*
X120232547Y-98185705D01*
X120232544Y-98185702D01*
X120117335Y-98099456D01*
X120117328Y-98099452D01*
X119982482Y-98049158D01*
X119982483Y-98049158D01*
X119922883Y-98042751D01*
X119922881Y-98042750D01*
X119922873Y-98042750D01*
X119922864Y-98042750D01*
X119127129Y-98042750D01*
X119127123Y-98042751D01*
X119067516Y-98049158D01*
X118932671Y-98099452D01*
X118932664Y-98099456D01*
X118817455Y-98185702D01*
X118817452Y-98185705D01*
X118731206Y-98300914D01*
X118731202Y-98300921D01*
X118682995Y-98430173D01*
X118680909Y-98435767D01*
X118676824Y-98473757D01*
X118650088Y-98538305D01*
X118592696Y-98578154D01*
X118553536Y-98584500D01*
X118183764Y-98584500D01*
X118116725Y-98564815D01*
X118070970Y-98512011D01*
X118067582Y-98503833D01*
X118016797Y-98367671D01*
X118016793Y-98367664D01*
X117930547Y-98252455D01*
X117930544Y-98252452D01*
X117815335Y-98166206D01*
X117815328Y-98166202D01*
X117680486Y-98115910D01*
X117680485Y-98115909D01*
X117680483Y-98115909D01*
X117620873Y-98109500D01*
X117620863Y-98109500D01*
X116875129Y-98109500D01*
X116875123Y-98109501D01*
X116815516Y-98115908D01*
X116680671Y-98166202D01*
X116680664Y-98166206D01*
X116565455Y-98252452D01*
X116565452Y-98252455D01*
X116479206Y-98367664D01*
X116479202Y-98367671D01*
X116428908Y-98502517D01*
X116425061Y-98538305D01*
X116422501Y-98562123D01*
X116422500Y-98562135D01*
X116422500Y-99557870D01*
X116422501Y-99557876D01*
X116423788Y-99569846D01*
X116418717Y-99597949D01*
X116416680Y-99626433D01*
X116412591Y-99631893D01*
X116411381Y-99638605D01*
X116391921Y-99659505D01*
X116374808Y-99682366D01*
X116368418Y-99684749D01*
X116363770Y-99689742D01*
X116336097Y-99696804D01*
X116309344Y-99706783D01*
X116302679Y-99705333D01*
X116296070Y-99707020D01*
X116268973Y-99698000D01*
X116241071Y-99691931D01*
X116233332Y-99686137D01*
X116229776Y-99684954D01*
X116212817Y-99670780D01*
X116059818Y-99517781D01*
X116026333Y-99456458D01*
X116023499Y-99430100D01*
X116023499Y-98562129D01*
X116023498Y-98562123D01*
X116023497Y-98562116D01*
X116018112Y-98512011D01*
X116017091Y-98502516D01*
X115966797Y-98367671D01*
X115966793Y-98367664D01*
X115880547Y-98252455D01*
X115880544Y-98252452D01*
X115765335Y-98166206D01*
X115765328Y-98166202D01*
X115630486Y-98115910D01*
X115630485Y-98115909D01*
X115630483Y-98115909D01*
X115570873Y-98109500D01*
X115570863Y-98109500D01*
X114825129Y-98109500D01*
X114825123Y-98109501D01*
X114765516Y-98115908D01*
X114630671Y-98166202D01*
X114630664Y-98166206D01*
X114515455Y-98252452D01*
X114515452Y-98252455D01*
X114429206Y-98367664D01*
X114429202Y-98367671D01*
X114378908Y-98502517D01*
X114375061Y-98538305D01*
X114372501Y-98562123D01*
X114372500Y-98562135D01*
X114372500Y-99557870D01*
X114372501Y-99557876D01*
X114378908Y-99617483D01*
X114429202Y-99752328D01*
X114429206Y-99752335D01*
X114515452Y-99867544D01*
X114515455Y-99867547D01*
X114630664Y-99953793D01*
X114630671Y-99953797D01*
X114675618Y-99970561D01*
X114765517Y-100004091D01*
X114825127Y-100010500D01*
X115439100Y-100010499D01*
X115506139Y-100030183D01*
X115526781Y-100046818D01*
X120358525Y-104878562D01*
X120428438Y-104948475D01*
X120507498Y-104994120D01*
X120514062Y-104997910D01*
X120553541Y-105008489D01*
X120553542Y-105008489D01*
X120565380Y-105011661D01*
X120609564Y-105023500D01*
X120609565Y-105023500D01*
X129080192Y-105023500D01*
X129147231Y-105043185D01*
X129167873Y-105059819D01*
X129261327Y-105153273D01*
X129261331Y-105153276D01*
X129367866Y-105224461D01*
X129367872Y-105224464D01*
X129367873Y-105224465D01*
X129486256Y-105273501D01*
X129486260Y-105273501D01*
X129486261Y-105273502D01*
X129611928Y-105298500D01*
X129611931Y-105298500D01*
X129740071Y-105298500D01*
X129824615Y-105281682D01*
X129865744Y-105273501D01*
X129984127Y-105224465D01*
X130090669Y-105153276D01*
X130090669Y-105153275D01*
X130090673Y-105153273D01*
X130092659Y-105151644D01*
X130093901Y-105151116D01*
X130095734Y-105149892D01*
X130095966Y-105150239D01*
X130156970Y-105124333D01*
X130171320Y-105123500D01*
X143581599Y-105123500D01*
X143581601Y-105123500D01*
X143702536Y-105091095D01*
X143810964Y-105028495D01*
X143950667Y-104888791D01*
X144011986Y-104855309D01*
X144081678Y-104860293D01*
X144137612Y-104902164D01*
X144162029Y-104967629D01*
X144161083Y-104994120D01*
X144156500Y-105025996D01*
X144156500Y-106810005D01*
X144159716Y-106839920D01*
X144147309Y-106908679D01*
X144124107Y-106940854D01*
X142780438Y-108284525D01*
X142710526Y-108354436D01*
X142661091Y-108440059D01*
X142661089Y-108440064D01*
X142654675Y-108464000D01*
X142654676Y-108464001D01*
X142636045Y-108533532D01*
X142636040Y-108533550D01*
X142635500Y-108535564D01*
X142635500Y-123110100D01*
X142615815Y-123177139D01*
X142599181Y-123197781D01*
X129115780Y-136681181D01*
X129054457Y-136714666D01*
X129028099Y-136717500D01*
X128287129Y-136717500D01*
X128287123Y-136717501D01*
X128227516Y-136723908D01*
X128092671Y-136774202D01*
X128092664Y-136774206D01*
X127977455Y-136860452D01*
X127977452Y-136860455D01*
X127891206Y-136975664D01*
X127891202Y-136975671D01*
X127840908Y-137110517D01*
X127834501Y-137170116D01*
X127834500Y-137170135D01*
X127834500Y-138165870D01*
X127834501Y-138165876D01*
X127840908Y-138225483D01*
X127891202Y-138360328D01*
X127891206Y-138360335D01*
X127977452Y-138475544D01*
X127977455Y-138475547D01*
X128092664Y-138561793D01*
X128092671Y-138561797D01*
X128127360Y-138574735D01*
X128227517Y-138612091D01*
X128287127Y-138618500D01*
X129032872Y-138618499D01*
X129092483Y-138612091D01*
X129227331Y-138561796D01*
X129342546Y-138475546D01*
X129428796Y-138360331D01*
X129479091Y-138225483D01*
X129485500Y-138165873D01*
X129485499Y-137424897D01*
X129494145Y-137395451D01*
X129500667Y-137365471D01*
X129504419Y-137360457D01*
X129505183Y-137357859D01*
X129521813Y-137337222D01*
X129672821Y-137186214D01*
X129734142Y-137152731D01*
X129803834Y-137157715D01*
X129859767Y-137199587D01*
X129884184Y-137265051D01*
X129884500Y-137273897D01*
X129884500Y-138165870D01*
X129884501Y-138165876D01*
X129890908Y-138225483D01*
X129941202Y-138360328D01*
X129941206Y-138360335D01*
X130027452Y-138475544D01*
X130027455Y-138475547D01*
X130142664Y-138561793D01*
X130142671Y-138561797D01*
X130177360Y-138574735D01*
X130277517Y-138612091D01*
X130337127Y-138618500D01*
X131082872Y-138618499D01*
X131142483Y-138612091D01*
X131277331Y-138561796D01*
X131392546Y-138475546D01*
X131478796Y-138360331D01*
X131478798Y-138360326D01*
X131496014Y-138314168D01*
X131509283Y-138296441D01*
X131518483Y-138276297D01*
X131529813Y-138269015D01*
X131537884Y-138258234D01*
X131558632Y-138250495D01*
X131577261Y-138238523D01*
X131599176Y-138235371D01*
X131603348Y-138233816D01*
X131612196Y-138233500D01*
X131788236Y-138233500D01*
X131855275Y-138253185D01*
X131901030Y-138305989D01*
X131904418Y-138314167D01*
X131955202Y-138450328D01*
X131955206Y-138450335D01*
X132041452Y-138565544D01*
X132041455Y-138565547D01*
X132156664Y-138651793D01*
X132156671Y-138651797D01*
X132291517Y-138702091D01*
X132291516Y-138702091D01*
X132298444Y-138702835D01*
X132351127Y-138708500D01*
X133146872Y-138708499D01*
X133206483Y-138702091D01*
X133341331Y-138651796D01*
X133456546Y-138565546D01*
X133502502Y-138504156D01*
X133558434Y-138462287D01*
X133628125Y-138457303D01*
X133689448Y-138490788D01*
X133710665Y-138521089D01*
X133710851Y-138520975D01*
X133712819Y-138524166D01*
X133714151Y-138526068D01*
X133714642Y-138527121D01*
X133806684Y-138676345D01*
X133930654Y-138800315D01*
X134079875Y-138892356D01*
X134079880Y-138892358D01*
X134246302Y-138947505D01*
X134246309Y-138947506D01*
X134349019Y-138957999D01*
X134498999Y-138957999D01*
X134999000Y-138957999D01*
X135148972Y-138957999D01*
X135148986Y-138957998D01*
X135251697Y-138947505D01*
X135418119Y-138892358D01*
X135418124Y-138892356D01*
X135567345Y-138800315D01*
X135691315Y-138676345D01*
X135783356Y-138527124D01*
X135783358Y-138527119D01*
X135838505Y-138360697D01*
X135838506Y-138360690D01*
X135848999Y-138257986D01*
X135849000Y-138257973D01*
X135849000Y-138008000D01*
X134999000Y-138008000D01*
X134999000Y-138957999D01*
X134498999Y-138957999D01*
X134499000Y-138957998D01*
X134499000Y-137508000D01*
X134999000Y-137508000D01*
X135848999Y-137508000D01*
X135848999Y-137258028D01*
X135848998Y-137258013D01*
X135838505Y-137155302D01*
X135783358Y-136988880D01*
X135783356Y-136988875D01*
X135691315Y-136839654D01*
X135567345Y-136715684D01*
X135418124Y-136623643D01*
X135418119Y-136623641D01*
X135251697Y-136568494D01*
X135251690Y-136568493D01*
X135148986Y-136558000D01*
X134999000Y-136558000D01*
X134999000Y-137508000D01*
X134499000Y-137508000D01*
X134499000Y-136558000D01*
X134349027Y-136558000D01*
X134349012Y-136558001D01*
X134246302Y-136568494D01*
X134079880Y-136623641D01*
X134079875Y-136623643D01*
X133930654Y-136715684D01*
X133806684Y-136839654D01*
X133714637Y-136988885D01*
X133714148Y-136989936D01*
X133713620Y-136990535D01*
X133710851Y-136995025D01*
X133710083Y-136994551D01*
X133667975Y-137042375D01*
X133600782Y-137061526D01*
X133533901Y-137041309D01*
X133502501Y-137011841D01*
X133456547Y-136950455D01*
X133456544Y-136950452D01*
X133341335Y-136864206D01*
X133341328Y-136864202D01*
X133206482Y-136813908D01*
X133206483Y-136813908D01*
X133146883Y-136807501D01*
X133146881Y-136807500D01*
X133146873Y-136807500D01*
X133146864Y-136807500D01*
X132351129Y-136807500D01*
X132351123Y-136807501D01*
X132291516Y-136813908D01*
X132156671Y-136864202D01*
X132156664Y-136864206D01*
X132041455Y-136950452D01*
X132041452Y-136950455D01*
X131955206Y-137065664D01*
X131955202Y-137065671D01*
X131904418Y-137201833D01*
X131891148Y-137219559D01*
X131881949Y-137239703D01*
X131870618Y-137246984D01*
X131862547Y-137257767D01*
X131841798Y-137265505D01*
X131823171Y-137277477D01*
X131801254Y-137280628D01*
X131797083Y-137282184D01*
X131788236Y-137282500D01*
X131658964Y-137282500D01*
X131591925Y-137262815D01*
X131546170Y-137210011D01*
X131535674Y-137171754D01*
X131529963Y-137118633D01*
X131529091Y-137110517D01*
X131483725Y-136988885D01*
X131478797Y-136975671D01*
X131478793Y-136975664D01*
X131392547Y-136860455D01*
X131392544Y-136860452D01*
X131277335Y-136774206D01*
X131277328Y-136774202D01*
X131142486Y-136723910D01*
X131142485Y-136723909D01*
X131142483Y-136723909D01*
X131082873Y-136717500D01*
X131082864Y-136717500D01*
X130440897Y-136717500D01*
X130373858Y-136697815D01*
X130328103Y-136645011D01*
X130318159Y-136575853D01*
X130347184Y-136512297D01*
X130353200Y-136505835D01*
X143311475Y-123547563D01*
X143358662Y-123465831D01*
X143360910Y-123461938D01*
X143386500Y-123366435D01*
X143386500Y-108791898D01*
X143406185Y-108724859D01*
X143422814Y-108704222D01*
X143974320Y-108152716D01*
X144035642Y-108119232D01*
X144105334Y-108124216D01*
X144161267Y-108166088D01*
X144185684Y-108231552D01*
X144186000Y-108240398D01*
X144186000Y-110013844D01*
X144192401Y-110073372D01*
X144192403Y-110073379D01*
X144242645Y-110208086D01*
X144242649Y-110208093D01*
X144304007Y-110290056D01*
X144328425Y-110355520D01*
X144315226Y-110420662D01*
X144248104Y-110552393D01*
X144248103Y-110552396D01*
X144179985Y-110762047D01*
X144145500Y-110979778D01*
X144145500Y-142565500D01*
X144125815Y-142632539D01*
X144073011Y-142678294D01*
X144021500Y-142689500D01*
X141500085Y-142689500D01*
X141488552Y-142686978D01*
X141434365Y-142689500D01*
X141380108Y-142689500D01*
X141380106Y-142689500D01*
X141372825Y-142690458D01*
X141355318Y-142693178D01*
X140943832Y-142712330D01*
X140940059Y-142712448D01*
X140058074Y-142726621D01*
X140053560Y-142726611D01*
X139101763Y-142707245D01*
X139097316Y-142707075D01*
X138109431Y-142651470D01*
X138105013Y-142651142D01*
X137101586Y-142558603D01*
X137097169Y-142558116D01*
X136091014Y-142428823D01*
X136086584Y-142428172D01*
X135086250Y-142262720D01*
X135081801Y-142261900D01*
X134093122Y-142061074D01*
X134088651Y-142060080D01*
X133115659Y-141824719D01*
X133111170Y-141823544D01*
X132156685Y-141554483D01*
X132152182Y-141553121D01*
X131218246Y-141251176D01*
X131213739Y-141249622D01*
X131092695Y-141205280D01*
X130301690Y-140915510D01*
X130297210Y-140913770D01*
X129711534Y-140672958D01*
X129407932Y-140548126D01*
X129403449Y-140546178D01*
X128537591Y-140149577D01*
X128533139Y-140147430D01*
X127690956Y-139720280D01*
X127686551Y-139717933D01*
X126868217Y-139260578D01*
X126863875Y-139258034D01*
X126812443Y-139226485D01*
X126267743Y-138892356D01*
X126069410Y-138770695D01*
X126065147Y-138767959D01*
X125294394Y-138250686D01*
X125290270Y-138247794D01*
X124543108Y-137700572D01*
X124539073Y-137697487D01*
X123815378Y-137120213D01*
X123811449Y-137116943D01*
X123520098Y-136864206D01*
X123111110Y-136509422D01*
X123107358Y-136506031D01*
X122430057Y-135867772D01*
X122426430Y-135864210D01*
X121852640Y-135277197D01*
X121772198Y-135194901D01*
X121768738Y-135191213D01*
X121765962Y-135188131D01*
X121137420Y-134490231D01*
X121134131Y-134486427D01*
X120525686Y-133753114D01*
X120522582Y-133749217D01*
X119937041Y-132982829D01*
X119934129Y-132978856D01*
X119371590Y-132178581D01*
X119368873Y-132174550D01*
X119235652Y-131968292D01*
X118829483Y-131339447D01*
X118826998Y-131335431D01*
X118504328Y-130790821D01*
X118311043Y-130464591D01*
X118308721Y-130460497D01*
X117815116Y-129550300D01*
X117813506Y-129547229D01*
X117772620Y-129466530D01*
X117578117Y-129082628D01*
X117577121Y-129080617D01*
X117562708Y-129050820D01*
X117345731Y-128602235D01*
X117344769Y-128600197D01*
X117120261Y-128113591D01*
X117119342Y-128111551D01*
X116900402Y-127613587D01*
X116899530Y-127611553D01*
X116687438Y-127104805D01*
X116686674Y-127102935D01*
X116480422Y-126584663D01*
X116479656Y-126582687D01*
X116472457Y-126563638D01*
X116280315Y-126055213D01*
X116279634Y-126053361D01*
X116086487Y-125514407D01*
X116085797Y-125512428D01*
X116005711Y-125276406D01*
X115899622Y-124963747D01*
X115898970Y-124961772D01*
X115719222Y-124401317D01*
X115718612Y-124399358D01*
X115708257Y-124365134D01*
X115545953Y-123828702D01*
X115545427Y-123826914D01*
X115379454Y-123244206D01*
X115378924Y-123242285D01*
X115357303Y-123161462D01*
X115220229Y-122649050D01*
X115219742Y-122647169D01*
X115106893Y-122196812D01*
X115068055Y-122041816D01*
X115067600Y-122039938D01*
X115056682Y-121993282D01*
X114923283Y-121423240D01*
X114922875Y-121421433D01*
X114912077Y-121371858D01*
X114785896Y-120792571D01*
X114785542Y-120790887D01*
X114656106Y-120150023D01*
X114655780Y-120148342D01*
X114533988Y-119495157D01*
X114533700Y-119493548D01*
X114419714Y-118827986D01*
X114419434Y-118826269D01*
X114313394Y-118148185D01*
X114313164Y-118146647D01*
X114215178Y-117455624D01*
X114214966Y-117454049D01*
X114125212Y-116750142D01*
X114125029Y-116748624D01*
X114043642Y-116031510D01*
X114043470Y-116029895D01*
X113970614Y-115299515D01*
X113970483Y-115298105D01*
X113906289Y-114553976D01*
X113906177Y-114552582D01*
X113850840Y-113794927D01*
X113850749Y-113793553D01*
X113804406Y-113021845D01*
X113804323Y-113020288D01*
X113767169Y-112234946D01*
X113767107Y-112233427D01*
X113765512Y-112187588D01*
X113739269Y-111433272D01*
X113739231Y-111431953D01*
X113720912Y-110617551D01*
X113720891Y-110616267D01*
X113712252Y-109787011D01*
X113712246Y-109785541D01*
X113713471Y-108941884D01*
X113713482Y-108940438D01*
X113713845Y-108912756D01*
X113724753Y-108081064D01*
X113724774Y-108079925D01*
X113744850Y-107263267D01*
X113746144Y-107258539D01*
X113746467Y-107197489D01*
X113747968Y-107136428D01*
X113747967Y-107136422D01*
X113747580Y-107132792D01*
X113746882Y-107118979D01*
X113753542Y-105860061D01*
X113753550Y-105859187D01*
X113753660Y-105850594D01*
X113770383Y-104547673D01*
X113770399Y-104546783D01*
X113770732Y-104530534D01*
X113796891Y-103253638D01*
X113796902Y-103253199D01*
X113832916Y-101978353D01*
X113832945Y-101977476D01*
X113832946Y-101977474D01*
X113878326Y-100721232D01*
X113878362Y-100720334D01*
X113932997Y-99481865D01*
X113933023Y-99481329D01*
X113996765Y-98260772D01*
X113996796Y-98260223D01*
X114069510Y-97057422D01*
X114069571Y-97056499D01*
X114151126Y-95871285D01*
X114151169Y-95870690D01*
X114241414Y-94703091D01*
X114241464Y-94702477D01*
X114340317Y-93551752D01*
X114340411Y-93550722D01*
X114348875Y-93461305D01*
X114447633Y-92417923D01*
X114447735Y-92416891D01*
X114447736Y-92416881D01*
X114563350Y-91300243D01*
X114563458Y-91299246D01*
X114568120Y-91257838D01*
X114687193Y-90200018D01*
X114687316Y-90198980D01*
X114819165Y-89115918D01*
X114819257Y-89115189D01*
X114959002Y-88048906D01*
X114959156Y-88047777D01*
X114987159Y-87848513D01*
X115106751Y-86997528D01*
X115106912Y-86996423D01*
X115118658Y-86918207D01*
X115262130Y-85962776D01*
X115262306Y-85961645D01*
X115296777Y-85746147D01*
X115425163Y-84943537D01*
X115425350Y-84942402D01*
X115452936Y-84780054D01*
X115595553Y-83940737D01*
X115595752Y-83939603D01*
X115615037Y-83832498D01*
X115773456Y-82952655D01*
X115773670Y-82951507D01*
X115958415Y-81981037D01*
X115958603Y-81980073D01*
X116150654Y-81023912D01*
X116150872Y-81022853D01*
X116349714Y-80082875D01*
X116349907Y-80081986D01*
X116555894Y-79155826D01*
X116556103Y-79154912D01*
X116768543Y-78245045D01*
X116768834Y-78243829D01*
X116988207Y-77347563D01*
X116988457Y-77346564D01*
X117214118Y-76465955D01*
X117214389Y-76464921D01*
X117446831Y-75597490D01*
X117447113Y-75596462D01*
X117685496Y-74744807D01*
X117685812Y-74743701D01*
X117930870Y-73904687D01*
X117931161Y-73903712D01*
X118181917Y-73080190D01*
X118182258Y-73079094D01*
X118439502Y-72268013D01*
X118439849Y-72266940D01*
X118702525Y-71471167D01*
X118702981Y-71469814D01*
X118702989Y-71469791D01*
X118971966Y-70686245D01*
X118972405Y-70684991D01*
X119246621Y-69916360D01*
X119247121Y-69914985D01*
X119350625Y-69635640D01*
X119527548Y-69158145D01*
X119528007Y-69156929D01*
X119813434Y-68414765D01*
X119813929Y-68413504D01*
X120105515Y-67682653D01*
X120106000Y-67681459D01*
X120402249Y-66965306D01*
X120402742Y-66964137D01*
X120705055Y-66258959D01*
X120705686Y-66257515D01*
X120856288Y-65918396D01*
X121012356Y-65566969D01*
X121013003Y-65565538D01*
X121174550Y-65214235D01*
X121325654Y-64885639D01*
X121326255Y-64884353D01*
X121643142Y-64218604D01*
X121643764Y-64217320D01*
X121966632Y-63561775D01*
X121967252Y-63560536D01*
X122293969Y-62919240D01*
X122294633Y-62917958D01*
X122627268Y-62286579D01*
X122627964Y-62285281D01*
X122963072Y-61670027D01*
X122964340Y-61667757D01*
X123652836Y-60464632D01*
X123654579Y-60461684D01*
X124360191Y-59306614D01*
X124362113Y-59303569D01*
X124362114Y-59303568D01*
X124549616Y-59015869D01*
X124602711Y-58970455D01*
X124671931Y-58960953D01*
X124735300Y-58990384D01*
X124772698Y-59049403D01*
X124777500Y-59083576D01*
X124777500Y-59933870D01*
X124777501Y-59933876D01*
X124783908Y-59993483D01*
X124834202Y-60128328D01*
X124834206Y-60128335D01*
X124920452Y-60243544D01*
X124920455Y-60243547D01*
X125035664Y-60329793D01*
X125035673Y-60329798D01*
X125146832Y-60371257D01*
X125202766Y-60413127D01*
X125227184Y-60478592D01*
X125227500Y-60487439D01*
X125227500Y-86281192D01*
X125207815Y-86348231D01*
X125191181Y-86368873D01*
X125170226Y-86389827D01*
X125170223Y-86389831D01*
X125099038Y-86496366D01*
X125099033Y-86496375D01*
X125049999Y-86614755D01*
X125049997Y-86614761D01*
X125025000Y-86740428D01*
X125025000Y-86740431D01*
X125025000Y-86868569D01*
X125025000Y-86868571D01*
X125024999Y-86868571D01*
X125049997Y-86994238D01*
X125049999Y-86994244D01*
X125099033Y-87112624D01*
X125099038Y-87112633D01*
X125170223Y-87219168D01*
X125170226Y-87219172D01*
X125260827Y-87309773D01*
X125260831Y-87309776D01*
X125367366Y-87380961D01*
X125367372Y-87380964D01*
X125367373Y-87380965D01*
X125485756Y-87430001D01*
X125485760Y-87430001D01*
X125485761Y-87430002D01*
X125611428Y-87455000D01*
X125611431Y-87455000D01*
X125739571Y-87455000D01*
X125824115Y-87438182D01*
X125865244Y-87430001D01*
X125983627Y-87380965D01*
X126090169Y-87309776D01*
X126180776Y-87219169D01*
X126251965Y-87112627D01*
X126301001Y-86994244D01*
X126316126Y-86918207D01*
X126326000Y-86868571D01*
X126326000Y-86740428D01*
X126301002Y-86614761D01*
X126301001Y-86614760D01*
X126301001Y-86614756D01*
X126251965Y-86496373D01*
X126251964Y-86496372D01*
X126251961Y-86496366D01*
X126180776Y-86389831D01*
X126180773Y-86389827D01*
X126090172Y-86299226D01*
X126090168Y-86299223D01*
X126033609Y-86261431D01*
X125988804Y-86207818D01*
X125978500Y-86158329D01*
X125978500Y-60487439D01*
X125998185Y-60420400D01*
X126050989Y-60374645D01*
X126059168Y-60371257D01*
X126170326Y-60329798D01*
X126170326Y-60329797D01*
X126170331Y-60329796D01*
X126285546Y-60243546D01*
X126371796Y-60128331D01*
X126422091Y-59993483D01*
X126428500Y-59933873D01*
X126428499Y-58938135D01*
X126827500Y-58938135D01*
X126827500Y-59933870D01*
X126827501Y-59933876D01*
X126833908Y-59993483D01*
X126884202Y-60128328D01*
X126884206Y-60128335D01*
X126970452Y-60243544D01*
X126970455Y-60243547D01*
X127085664Y-60329793D01*
X127085671Y-60329797D01*
X127085674Y-60329798D01*
X127220517Y-60380091D01*
X127280127Y-60386500D01*
X128025872Y-60386499D01*
X128085483Y-60380091D01*
X128220331Y-60329796D01*
X128335546Y-60243546D01*
X128421796Y-60128331D01*
X128472091Y-59993483D01*
X128472090Y-59993483D01*
X128472582Y-59992167D01*
X128485851Y-59974440D01*
X128495051Y-59954297D01*
X128506381Y-59947015D01*
X128514453Y-59936233D01*
X128535201Y-59928494D01*
X128553829Y-59916523D01*
X128575745Y-59913371D01*
X128579917Y-59911816D01*
X128588764Y-59911500D01*
X128734220Y-59911500D01*
X128801259Y-59931185D01*
X128847014Y-59983989D01*
X128850402Y-59992167D01*
X128898202Y-60120328D01*
X128898206Y-60120335D01*
X128984452Y-60235544D01*
X128984455Y-60235547D01*
X129099664Y-60321793D01*
X129099671Y-60321797D01*
X129234517Y-60372091D01*
X129234516Y-60372091D01*
X129241444Y-60372835D01*
X129294127Y-60378500D01*
X130089872Y-60378499D01*
X130149483Y-60372091D01*
X130284331Y-60321796D01*
X130399546Y-60235546D01*
X130445502Y-60174156D01*
X130501434Y-60132287D01*
X130571125Y-60127303D01*
X130632448Y-60160788D01*
X130653665Y-60191089D01*
X130653851Y-60190975D01*
X130655819Y-60194166D01*
X130657151Y-60196068D01*
X130657642Y-60197121D01*
X130749684Y-60346345D01*
X130873654Y-60470315D01*
X131022875Y-60562356D01*
X131022880Y-60562358D01*
X131189302Y-60617505D01*
X131189309Y-60617506D01*
X131292019Y-60627999D01*
X131441999Y-60627999D01*
X131942000Y-60627999D01*
X132091972Y-60627999D01*
X132091986Y-60627998D01*
X132194697Y-60617505D01*
X132361119Y-60562358D01*
X132361124Y-60562356D01*
X132510345Y-60470315D01*
X132634315Y-60346345D01*
X132726356Y-60197124D01*
X132726358Y-60197119D01*
X132781505Y-60030697D01*
X132781506Y-60030690D01*
X132791999Y-59927986D01*
X132792000Y-59927973D01*
X132792000Y-59678000D01*
X131942000Y-59678000D01*
X131942000Y-60627999D01*
X131441999Y-60627999D01*
X131442000Y-60627998D01*
X131442000Y-59178000D01*
X131942000Y-59178000D01*
X132791999Y-59178000D01*
X132791999Y-58928028D01*
X132791998Y-58928013D01*
X132781505Y-58825302D01*
X132726358Y-58658880D01*
X132726356Y-58658875D01*
X132634315Y-58509654D01*
X132510345Y-58385684D01*
X132361124Y-58293643D01*
X132361119Y-58293641D01*
X132194697Y-58238494D01*
X132194690Y-58238493D01*
X132091986Y-58228000D01*
X131942000Y-58228000D01*
X131942000Y-59178000D01*
X131442000Y-59178000D01*
X131442000Y-58228000D01*
X131292027Y-58228000D01*
X131292012Y-58228001D01*
X131189302Y-58238494D01*
X131022880Y-58293641D01*
X131022875Y-58293643D01*
X130873654Y-58385684D01*
X130749684Y-58509654D01*
X130657637Y-58658885D01*
X130657148Y-58659936D01*
X130656620Y-58660535D01*
X130653851Y-58665025D01*
X130653083Y-58664551D01*
X130610975Y-58712375D01*
X130543782Y-58731526D01*
X130476901Y-58711309D01*
X130445501Y-58681841D01*
X130399547Y-58620455D01*
X130399544Y-58620452D01*
X130284335Y-58534206D01*
X130284328Y-58534202D01*
X130149482Y-58483908D01*
X130149483Y-58483908D01*
X130089883Y-58477501D01*
X130089881Y-58477500D01*
X130089873Y-58477500D01*
X130089864Y-58477500D01*
X129294129Y-58477500D01*
X129294123Y-58477501D01*
X129234516Y-58483908D01*
X129099671Y-58534202D01*
X129099664Y-58534206D01*
X128984455Y-58620452D01*
X128984452Y-58620455D01*
X128898206Y-58735664D01*
X128898202Y-58735671D01*
X128845198Y-58877785D01*
X128842509Y-58876782D01*
X128834551Y-58890756D01*
X128822245Y-58917703D01*
X128817450Y-58920783D01*
X128814632Y-58925734D01*
X128788386Y-58939462D01*
X128763467Y-58955477D01*
X128755610Y-58956606D01*
X128752721Y-58958118D01*
X128728532Y-58960500D01*
X128588764Y-58960500D01*
X128521725Y-58940815D01*
X128475970Y-58888011D01*
X128472582Y-58879833D01*
X128421797Y-58743671D01*
X128421793Y-58743664D01*
X128335547Y-58628455D01*
X128335544Y-58628452D01*
X128220335Y-58542206D01*
X128220328Y-58542202D01*
X128085486Y-58491910D01*
X128085485Y-58491909D01*
X128085483Y-58491909D01*
X128025873Y-58485500D01*
X128025863Y-58485500D01*
X127280129Y-58485500D01*
X127280123Y-58485501D01*
X127220516Y-58491908D01*
X127085671Y-58542202D01*
X127085664Y-58542206D01*
X126970455Y-58628452D01*
X126970452Y-58628455D01*
X126884206Y-58743664D01*
X126884202Y-58743671D01*
X126833908Y-58878517D01*
X126827501Y-58938116D01*
X126827500Y-58938135D01*
X126428499Y-58938135D01*
X126428499Y-58938128D01*
X126423112Y-58888011D01*
X126422091Y-58878516D01*
X126371797Y-58743671D01*
X126371793Y-58743664D01*
X126285547Y-58628455D01*
X126285544Y-58628452D01*
X126170335Y-58542206D01*
X126170328Y-58542202D01*
X126035486Y-58491910D01*
X126035485Y-58491909D01*
X126035483Y-58491909D01*
X125975873Y-58485500D01*
X125975863Y-58485500D01*
X125230129Y-58485500D01*
X125230123Y-58485501D01*
X125170513Y-58491909D01*
X125154190Y-58497997D01*
X125123208Y-58500211D01*
X125092429Y-58504436D01*
X125088652Y-58502682D01*
X125084498Y-58502979D01*
X125057234Y-58488090D01*
X125029061Y-58475006D01*
X125026831Y-58471487D01*
X125023177Y-58469492D01*
X125008290Y-58442227D01*
X124991663Y-58415987D01*
X124991689Y-58411823D01*
X124989694Y-58408168D01*
X124991911Y-58377182D01*
X124992110Y-58346119D01*
X124994502Y-58340966D01*
X124994681Y-58338476D01*
X125006971Y-58314117D01*
X125085356Y-58193846D01*
X125087382Y-58190837D01*
X125827777Y-57125578D01*
X125829927Y-57122582D01*
X126587029Y-56100932D01*
X126589276Y-56097996D01*
X127362608Y-55119222D01*
X127365029Y-55116256D01*
X128154017Y-54179799D01*
X128156561Y-54176875D01*
X128960926Y-53281889D01*
X128963627Y-53278981D01*
X129782777Y-52425025D01*
X129785640Y-52422139D01*
X130619180Y-51608619D01*
X130622106Y-51605857D01*
X131469579Y-50832285D01*
X131472691Y-50829539D01*
X132333542Y-50095558D01*
X132336733Y-50092930D01*
X133210420Y-49398202D01*
X133213775Y-49395627D01*
X134099668Y-48739904D01*
X134103084Y-48737467D01*
X134239070Y-48643986D01*
X151336001Y-48643986D01*
X151346494Y-48746697D01*
X151401641Y-48913119D01*
X151401643Y-48913124D01*
X151493684Y-49062345D01*
X151617654Y-49186315D01*
X151766875Y-49278356D01*
X151766880Y-49278358D01*
X151933302Y-49333505D01*
X151933309Y-49333506D01*
X152036019Y-49343999D01*
X152285999Y-49343999D01*
X152786000Y-49343999D01*
X153035972Y-49343999D01*
X153035986Y-49343998D01*
X153138697Y-49333505D01*
X153305119Y-49278358D01*
X153305124Y-49278356D01*
X153454345Y-49186315D01*
X153578315Y-49062345D01*
X153670356Y-48913124D01*
X153670358Y-48913119D01*
X153725505Y-48746697D01*
X153725506Y-48746690D01*
X153735999Y-48643986D01*
X153736000Y-48643973D01*
X153736000Y-48494000D01*
X152786000Y-48494000D01*
X152786000Y-49343999D01*
X152285999Y-49343999D01*
X152286000Y-49343998D01*
X152286000Y-48494000D01*
X151336001Y-48494000D01*
X151336001Y-48643986D01*
X134239070Y-48643986D01*
X135000405Y-48120620D01*
X135003971Y-48118260D01*
X135434706Y-47844013D01*
X151336000Y-47844013D01*
X151336000Y-47994000D01*
X153735999Y-47994000D01*
X153735999Y-47844028D01*
X153735998Y-47844013D01*
X153725505Y-47741302D01*
X153670358Y-47574880D01*
X153670356Y-47574875D01*
X153578315Y-47425654D01*
X153454345Y-47301684D01*
X153305121Y-47209642D01*
X153304068Y-47209151D01*
X153303466Y-47208621D01*
X153298975Y-47205851D01*
X153299448Y-47205083D01*
X153251627Y-47162981D01*
X153232473Y-47095788D01*
X153252686Y-47028906D01*
X153282154Y-46997503D01*
X153343546Y-46951546D01*
X153429796Y-46836331D01*
X153443285Y-46800166D01*
X153456555Y-46782439D01*
X153465754Y-46762297D01*
X153477085Y-46755014D01*
X153485157Y-46744233D01*
X153505902Y-46736495D01*
X153524532Y-46724523D01*
X153546450Y-46721371D01*
X153550621Y-46719816D01*
X153559467Y-46719500D01*
X153609501Y-46719500D01*
X153676540Y-46739185D01*
X153722295Y-46791989D01*
X153733501Y-46843500D01*
X153733501Y-46953126D01*
X153739908Y-47012733D01*
X153790202Y-47147578D01*
X153790206Y-47147585D01*
X153876452Y-47262794D01*
X153876455Y-47262797D01*
X153991664Y-47349043D01*
X153991671Y-47349047D01*
X153991674Y-47349048D01*
X154126517Y-47399341D01*
X154186127Y-47405750D01*
X154931872Y-47405749D01*
X154991483Y-47399341D01*
X155126331Y-47349046D01*
X155241546Y-47262796D01*
X155327796Y-47147581D01*
X155378091Y-47012733D01*
X155384500Y-46953123D01*
X155384499Y-45957378D01*
X155378091Y-45897767D01*
X155365051Y-45862806D01*
X155327797Y-45762921D01*
X155327793Y-45762914D01*
X155241547Y-45647705D01*
X155241544Y-45647702D01*
X155126335Y-45561456D01*
X155126328Y-45561452D01*
X154991486Y-45511160D01*
X154991485Y-45511159D01*
X154991483Y-45511159D01*
X154931873Y-45504750D01*
X154931863Y-45504750D01*
X154186129Y-45504750D01*
X154186123Y-45504751D01*
X154126516Y-45511158D01*
X153991671Y-45561452D01*
X153991664Y-45561456D01*
X153876456Y-45647702D01*
X153876455Y-45647703D01*
X153876454Y-45647704D01*
X153823222Y-45718812D01*
X153819567Y-45721548D01*
X153817670Y-45725703D01*
X153791855Y-45742293D01*
X153767290Y-45760682D01*
X153761660Y-45761697D01*
X153758892Y-45763477D01*
X153723957Y-45768500D01*
X153559467Y-45768500D01*
X153492428Y-45748815D01*
X153446673Y-45696011D01*
X153443285Y-45687834D01*
X153429796Y-45651669D01*
X153429793Y-45651664D01*
X153343547Y-45536455D01*
X153343544Y-45536452D01*
X153228335Y-45450206D01*
X153228328Y-45450202D01*
X153093482Y-45399908D01*
X153093483Y-45399908D01*
X153033883Y-45393501D01*
X153033881Y-45393500D01*
X153033873Y-45393500D01*
X153033864Y-45393500D01*
X152038129Y-45393500D01*
X152038123Y-45393501D01*
X151978516Y-45399908D01*
X151843671Y-45450202D01*
X151843664Y-45450206D01*
X151728455Y-45536452D01*
X151728452Y-45536455D01*
X151642206Y-45651664D01*
X151642202Y-45651671D01*
X151591908Y-45786517D01*
X151585501Y-45846116D01*
X151585500Y-45846135D01*
X151585500Y-46641870D01*
X151585501Y-46641876D01*
X151591908Y-46701483D01*
X151642202Y-46836328D01*
X151642206Y-46836335D01*
X151728452Y-46951544D01*
X151728455Y-46951547D01*
X151789841Y-46997501D01*
X151831712Y-47053435D01*
X151836696Y-47123126D01*
X151803210Y-47184449D01*
X151772910Y-47205664D01*
X151773025Y-47205851D01*
X151769831Y-47207820D01*
X151767936Y-47209148D01*
X151766885Y-47209637D01*
X151617654Y-47301684D01*
X151493684Y-47425654D01*
X151401643Y-47574875D01*
X151401641Y-47574880D01*
X151346494Y-47741302D01*
X151346493Y-47741309D01*
X151336000Y-47844013D01*
X135434706Y-47844013D01*
X135911850Y-47540217D01*
X135915497Y-47537985D01*
X136832837Y-46998794D01*
X136836668Y-46996635D01*
X137762119Y-46496446D01*
X137766040Y-46494417D01*
X138698124Y-46033380D01*
X138702102Y-46031503D01*
X139638574Y-45610048D01*
X139642718Y-45608273D01*
X140581055Y-45226799D01*
X140585219Y-45225195D01*
X141521917Y-44884289D01*
X141526270Y-44882797D01*
X142456597Y-44583190D01*
X142461035Y-44581853D01*
X143378719Y-44324337D01*
X143383323Y-44323139D01*
X144279442Y-44108622D01*
X144284182Y-44107586D01*
X145145364Y-43937087D01*
X145150327Y-43936209D01*
X145800398Y-43834859D01*
X145869670Y-43843982D01*
X145923013Y-43889107D01*
X145943491Y-43955908D01*
X145943500Y-43957379D01*
X145943500Y-45501870D01*
X145943501Y-45501876D01*
X145949908Y-45561483D01*
X146000202Y-45696328D01*
X146000206Y-45696335D01*
X146086452Y-45811544D01*
X146086455Y-45811547D01*
X146201664Y-45897793D01*
X146201671Y-45897797D01*
X146246618Y-45914561D01*
X146336517Y-45948091D01*
X146396127Y-45954500D01*
X146991872Y-45954499D01*
X147051483Y-45948091D01*
X147186331Y-45897796D01*
X147301546Y-45811546D01*
X147387796Y-45696331D01*
X147438091Y-45561483D01*
X147444500Y-45501873D01*
X147444499Y-43906128D01*
X147438091Y-43846517D01*
X147438090Y-43846516D01*
X147438090Y-43846509D01*
X147437264Y-43843012D01*
X147437413Y-43840217D01*
X147437262Y-43838804D01*
X147437491Y-43838779D01*
X147441006Y-43773243D01*
X147481874Y-43716572D01*
X147546893Y-43690993D01*
X147557941Y-43690500D01*
X148878060Y-43690500D01*
X148945099Y-43710185D01*
G37*
G04 #@! TD.AperFunction*
G04 #@! TD*
G04 #@! TA.AperFunction,Conductor*
G04 #@! TO.N,/LED_Power_1*
G36*
X152225039Y-98317685D02*
G01*
X152270794Y-98370489D01*
X152282000Y-98422000D01*
X152282000Y-100206000D01*
X152262315Y-100273039D01*
X152209511Y-100318794D01*
X152158000Y-100330000D01*
X144786000Y-100330000D01*
X144718961Y-100310315D01*
X144673206Y-100257511D01*
X144662000Y-100206000D01*
X144662000Y-98422000D01*
X144681685Y-98354961D01*
X144734489Y-98309206D01*
X144786000Y-98298000D01*
X152158000Y-98298000D01*
X152225039Y-98317685D01*
G37*
G04 #@! TD.AperFunction*
G04 #@! TD*
G04 #@! TA.AperFunction,Conductor*
G04 #@! TO.N,/LED_Power_3*
G36*
X152225039Y-104921685D02*
G01*
X152270794Y-104974489D01*
X152282000Y-105026000D01*
X152282000Y-106810000D01*
X152262315Y-106877039D01*
X152209511Y-106922794D01*
X152158000Y-106934000D01*
X144786000Y-106934000D01*
X144718961Y-106914315D01*
X144673206Y-106861511D01*
X144662000Y-106810000D01*
X144662000Y-105026000D01*
X144681685Y-104958961D01*
X144734489Y-104913206D01*
X144786000Y-104902000D01*
X152158000Y-104902000D01*
X152225039Y-104921685D01*
G37*
G04 #@! TD.AperFunction*
G04 #@! TD*
G04 #@! TA.AperFunction,Conductor*
G04 #@! TO.N,/LED_Power_2*
G36*
X152225039Y-101619685D02*
G01*
X152270794Y-101672489D01*
X152282000Y-101724000D01*
X152282000Y-103508000D01*
X152262315Y-103575039D01*
X152209511Y-103620794D01*
X152158000Y-103632000D01*
X144786000Y-103632000D01*
X144718961Y-103612315D01*
X144673206Y-103559511D01*
X144662000Y-103508000D01*
X144662000Y-101724000D01*
X144681685Y-101656961D01*
X144734489Y-101611206D01*
X144786000Y-101600000D01*
X152158000Y-101600000D01*
X152225039Y-101619685D01*
G37*
G04 #@! TD.AperFunction*
G04 #@! TD*
M02*
