G04 #@! TF.GenerationSoftware,KiCad,Pcbnew,9.0.0*
G04 #@! TF.CreationDate,2026-03-16T00:04:51+01:00*
G04 #@! TF.ProjectId,manufacturing_slave,6d616e75-6661-4637-9475-72696e675f73,rev?*
G04 #@! TF.SameCoordinates,Original*
G04 #@! TF.FileFunction,Copper,L1,Top*
G04 #@! TF.FilePolarity,Positive*
%FSLAX46Y46*%
G04 Gerber Fmt 4.6, Leading zero omitted, Abs format (unit mm)*
G04 Created by KiCad (PCBNEW 9.0.0) date 2026-03-16 00:04:51*
%MOMM*%
%LPD*%
G01*
G04 APERTURE LIST*
G04 Aperture macros list*
%AMRoundRect*
0 Rectangle with rounded corners*
0 $1 Rounding radius*
0 $2 $3 $4 $5 $6 $7 $8 $9 X,Y pos of 4 corners*
0 Add a 4 corners polygon primitive as box body*
4,1,4,$2,$3,$4,$5,$6,$7,$8,$9,$2,$3,0*
0 Add four circle primitives for the rounded corners*
1,1,$1+$1,$2,$3*
1,1,$1+$1,$4,$5*
1,1,$1+$1,$6,$7*
1,1,$1+$1,$8,$9*
0 Add four rect primitives between the rounded corners*
20,1,$1+$1,$2,$3,$4,$5,0*
20,1,$1+$1,$4,$5,$6,$7,0*
20,1,$1+$1,$6,$7,$8,$9,0*
20,1,$1+$1,$8,$9,$2,$3,0*%
G04 Aperture macros list end*
G04 #@! TA.AperFunction,SMDPad,CuDef*
%ADD10RoundRect,0.250000X0.325000X0.450000X-0.325000X0.450000X-0.325000X-0.450000X0.325000X-0.450000X0*%
G04 #@! TD*
G04 #@! TA.AperFunction,SMDPad,CuDef*
%ADD11RoundRect,0.250000X-0.250000X-0.750000X0.250000X-0.750000X0.250000X0.750000X-0.250000X0.750000X0*%
G04 #@! TD*
G04 #@! TA.AperFunction,SMDPad,CuDef*
%ADD12RoundRect,0.250000X-0.350000X-0.450000X0.350000X-0.450000X0.350000X0.450000X-0.350000X0.450000X0*%
G04 #@! TD*
G04 #@! TA.AperFunction,SMDPad,CuDef*
%ADD13RoundRect,0.250000X-0.450000X0.350000X-0.450000X-0.350000X0.450000X-0.350000X0.450000X0.350000X0*%
G04 #@! TD*
G04 #@! TA.AperFunction,SMDPad,CuDef*
%ADD14R,3.000000X2.000000*%
G04 #@! TD*
G04 #@! TA.AperFunction,SMDPad,CuDef*
%ADD15RoundRect,0.250000X0.350000X0.450000X-0.350000X0.450000X-0.350000X-0.450000X0.350000X-0.450000X0*%
G04 #@! TD*
G04 #@! TA.AperFunction,SMDPad,CuDef*
%ADD16RoundRect,0.250000X-0.325000X-0.450000X0.325000X-0.450000X0.325000X0.450000X-0.325000X0.450000X0*%
G04 #@! TD*
G04 #@! TA.AperFunction,ViaPad*
%ADD17C,0.800000*%
G04 #@! TD*
G04 #@! TA.AperFunction,Conductor*
%ADD18C,0.450000*%
G04 #@! TD*
G04 #@! TA.AperFunction,Conductor*
%ADD19C,0.250000*%
G04 #@! TD*
G04 APERTURE END LIST*
D10*
G04 #@! TO.P,D20,1,K*
G04 #@! TO.N,Net-(D20-K)*
X118033000Y-118453250D03*
G04 #@! TO.P,D20,2,A*
G04 #@! TO.N,/LED_Power_2*
X115983000Y-118453250D03*
G04 #@! TD*
G04 #@! TO.P,D5,1,K*
G04 #@! TO.N,Net-(D5-K)*
X119770000Y-78740000D03*
G04 #@! TO.P,D5,2,A*
G04 #@! TO.N,/LED_Power_1*
X117720000Y-78740000D03*
G04 #@! TD*
G04 #@! TO.P,D4,1,K*
G04 #@! TO.N,Net-(D4-K)*
X141623000Y-46608000D03*
G04 #@! TO.P,D4,2,A*
G04 #@! TO.N,/LED_Power_3*
X139573000Y-46608000D03*
G04 #@! TD*
D11*
G04 #@! TO.P,,1*
G04 #@! TO.N,N/C*
X149742000Y-44704000D03*
G04 #@! TD*
D12*
G04 #@! TO.P,R9,1*
G04 #@! TO.N,Net-(D5-K)*
X121809000Y-78592000D03*
G04 #@! TO.P,R9,2*
G04 #@! TO.N,GND*
X123809000Y-78592000D03*
G04 #@! TD*
D13*
G04 #@! TO.P,R8,1*
G04 #@! TO.N,Net-(D4-K)*
X143655000Y-46386000D03*
G04 #@! TO.P,R8,2*
G04 #@! TO.N,GND*
X143655000Y-48386000D03*
G04 #@! TD*
D14*
G04 #@! TO.P,J5,1,Pin_1*
G04 #@! TO.N,/LED_Power_1*
X150758000Y-99314000D03*
G04 #@! TO.P,J5,2,Pin_2*
G04 #@! TO.N,/LED_Power_2*
X150758000Y-102616000D03*
G04 #@! TO.P,J5,3,Pin_3*
G04 #@! TO.N,/LED_Power_3*
X150758000Y-105918000D03*
G04 #@! TO.P,J5,4,Pin_4*
G04 #@! TO.N,GND*
X150758000Y-108966000D03*
G04 #@! TD*
D11*
G04 #@! TO.P,,1*
G04 #@! TO.N,N/C*
X146694000Y-44704000D03*
G04 #@! TD*
D15*
G04 #@! TO.P,R25,1*
G04 #@! TO.N,Net-(D21-K)*
X166506000Y-59436000D03*
G04 #@! TO.P,R25,2*
G04 #@! TO.N,GND*
X164506000Y-59436000D03*
G04 #@! TD*
D16*
G04 #@! TO.P,D21,1,K*
G04 #@! TO.N,Net-(D21-K)*
X168545000Y-59420000D03*
G04 #@! TO.P,D21,2,A*
G04 #@! TO.N,/LED_Power_2*
X170595000Y-59420000D03*
G04 #@! TD*
G04 #@! TO.P,D2,1,K*
G04 #@! TO.N,Net-(D2-K)*
X165472000Y-138684000D03*
G04 #@! TO.P,D2,2,A*
G04 #@! TO.N,/LED_Power_3*
X167522000Y-138684000D03*
G04 #@! TD*
G04 #@! TO.P,D3,1,K*
G04 #@! TO.N,Net-(D3-K)*
X179442000Y-98806000D03*
G04 #@! TO.P,D3,2,A*
G04 #@! TO.N,/LED_Power_1*
X181492000Y-98806000D03*
G04 #@! TD*
D12*
G04 #@! TO.P,R24,1*
G04 #@! TO.N,Net-(D20-K)*
X120278000Y-118364000D03*
G04 #@! TO.P,R24,2*
G04 #@! TO.N,GND*
X122278000Y-118364000D03*
G04 #@! TD*
D15*
G04 #@! TO.P,R7,1*
G04 #@! TO.N,Net-(D3-K)*
X177387000Y-98798000D03*
G04 #@! TO.P,R7,2*
G04 #@! TO.N,GND*
X175387000Y-98798000D03*
G04 #@! TD*
G04 #@! TO.P,R6,1*
G04 #@! TO.N,Net-(D2-K)*
X163433000Y-138676000D03*
G04 #@! TO.P,R6,2*
G04 #@! TO.N,GND*
X161433000Y-138676000D03*
G04 #@! TD*
D17*
G04 #@! TO.N,GND*
X151520000Y-109474000D03*
X155838000Y-104775000D03*
X145424000Y-109474000D03*
X146948000Y-109474000D03*
X150631000Y-48387000D03*
X127009000Y-78613000D03*
X150504000Y-96139000D03*
X170443000Y-78867000D03*
X145424000Y-108458000D03*
X149996000Y-109474000D03*
X173618000Y-98806000D03*
X145424000Y-48387000D03*
X146948000Y-108458000D03*
X149996000Y-108458000D03*
X136407000Y-137668000D03*
X159394000Y-138430000D03*
X155838000Y-98806000D03*
X151520000Y-108458000D03*
X123326000Y-99060000D03*
X172729000Y-118999000D03*
X123961000Y-118364000D03*
X142249000Y-102235000D03*
X141995000Y-106553000D03*
X162950000Y-58674000D03*
G04 #@! TO.N,/LED_Power_2*
X149996000Y-102108000D03*
G04 #@! TO.N,GND*
X145805000Y-96139000D03*
X131835000Y-61087000D03*
G04 #@! TO.N,/LED_Power_2*
X151520000Y-102108000D03*
X146948000Y-102108000D03*
X145424000Y-103124000D03*
X146948000Y-103124000D03*
X177174000Y-75438000D03*
X151520000Y-103124000D03*
G04 #@! TO.N,/LED_Power_3*
X156028500Y-108013500D03*
G04 #@! TO.N,/LED_Power_2*
X149996000Y-103124000D03*
X145424000Y-102108000D03*
X129676000Y-104648000D03*
G04 #@! TO.N,/LED_Power_1*
X151520000Y-98806000D03*
G04 #@! TO.N,/LED_Power_3*
X153933000Y-99187000D03*
X151520000Y-106426000D03*
X153933000Y-50165000D03*
G04 #@! TO.N,/LED_Power_1*
X146948000Y-99822000D03*
G04 #@! TO.N,/LED_Power_3*
X145424000Y-105410000D03*
X149996000Y-106426000D03*
G04 #@! TO.N,/LED_Power_1*
X145424000Y-98806000D03*
G04 #@! TO.N,/LED_Power_3*
X146948000Y-105410000D03*
X145424000Y-106426000D03*
X146948000Y-106426000D03*
G04 #@! TO.N,/LED_Power_1*
X149996000Y-99822000D03*
G04 #@! TO.N,/LED_Power_3*
X149996000Y-105410000D03*
X151520000Y-105410000D03*
G04 #@! TO.N,/LED_Power_1*
X151520000Y-99822000D03*
X146948000Y-98806000D03*
X149996000Y-98806000D03*
X125675500Y-86804500D03*
G04 #@! TO.N,*
X146694000Y-44704000D03*
X149742000Y-44704000D03*
G04 #@! TO.N,/LED_Power_1*
X145424000Y-99822000D03*
G04 #@! TD*
D18*
G04 #@! TO.N,Net-(D2-K)*
X163441000Y-138684000D02*
X163433000Y-138676000D01*
D19*
G04 #@! TO.N,/LED_Power_1*
X125675500Y-86804500D02*
X138185000Y-99314000D01*
X181492000Y-98552000D02*
X180095000Y-97155000D01*
D18*
G04 #@! TO.N,Net-(D2-K)*
X165472000Y-138684000D02*
X163441000Y-138684000D01*
G04 #@! TO.N,Net-(D20-K)*
X120278000Y-118364000D02*
X118122250Y-118364000D01*
X118122250Y-118364000D02*
X118033000Y-118453250D01*
G04 #@! TO.N,Net-(D21-K)*
X166506000Y-59436000D02*
X168529000Y-59436000D01*
X168529000Y-59436000D02*
X168545000Y-59420000D01*
D19*
G04 #@! TO.N,/LED_Power_2*
X129676000Y-104648000D02*
X115983000Y-118341000D01*
X115983000Y-118341000D02*
X115983000Y-118453250D01*
D18*
G04 #@! TO.N,/LED_Power_3*
X153933000Y-105918000D02*
X150758000Y-105918000D01*
G04 #@! TO.N,Net-(D4-K)*
X143655000Y-46386000D02*
X141845000Y-46386000D01*
X141845000Y-46386000D02*
X141623000Y-46608000D01*
D19*
G04 #@! TO.N,/LED_Power_2*
X170595000Y-68859000D02*
X177174000Y-75438000D01*
D18*
G04 #@! TO.N,Net-(D5-K)*
X119918000Y-78592000D02*
X119770000Y-78740000D01*
D19*
G04 #@! TO.N,/LED_Power_3*
X167522000Y-138557000D02*
X167522000Y-138684000D01*
G04 #@! TO.N,/LED_Power_2*
X170595000Y-59420000D02*
X170595000Y-68859000D01*
D18*
G04 #@! TO.N,Net-(D5-K)*
X121809000Y-78592000D02*
X119918000Y-78592000D01*
D19*
G04 #@! TO.N,/LED_Power_1*
X181492000Y-98806000D02*
X181492000Y-98552000D01*
G04 #@! TO.N,/LED_Power_3*
X153933000Y-50165000D02*
X142884000Y-50165000D01*
D18*
G04 #@! TO.N,Net-(D3-K)*
X179434000Y-98798000D02*
X179442000Y-98806000D01*
D19*
G04 #@! TO.N,/LED_Power_3*
X142884000Y-50165000D02*
X139573000Y-46854000D01*
D18*
G04 #@! TO.N,Net-(D3-K)*
X177387000Y-98798000D02*
X179434000Y-98798000D01*
D19*
G04 #@! TO.N,/LED_Power_1*
X180095000Y-97155000D02*
X153425000Y-97155000D01*
X153425000Y-97155000D02*
X151266000Y-99314000D01*
D18*
G04 #@! TO.N,/LED_Power_3*
X153933000Y-99187000D02*
X153933000Y-105918000D01*
X156028500Y-108013500D02*
X153933000Y-105918000D01*
D19*
X139573000Y-46854000D02*
X139573000Y-46608000D01*
X156028500Y-108013500D02*
X155965000Y-108077000D01*
G04 #@! TO.N,/LED_Power_1*
X125675500Y-86804500D02*
X117720000Y-78849000D01*
X138185000Y-99314000D02*
X144916000Y-99314000D01*
X117720000Y-78849000D02*
X117720000Y-78740000D01*
G04 #@! TO.N,/LED_Power_3*
X155965000Y-108077000D02*
X155965000Y-127000000D01*
X155965000Y-127000000D02*
X167522000Y-138557000D01*
G04 #@! TO.N,/LED_Power_1*
X144916000Y-99314000D02*
X145424000Y-99822000D01*
X151266000Y-99314000D02*
X150758000Y-99314000D01*
G04 #@! TD*
G04 #@! TA.AperFunction,Conductor*
G04 #@! TO.N,GND*
G36*
X116815592Y-78666518D02*
G01*
X116870883Y-78709234D01*
X116894304Y-78775061D01*
X116894500Y-78782029D01*
X116894500Y-79237870D01*
X116894501Y-79237876D01*
X116900908Y-79297483D01*
X116951202Y-79432328D01*
X116951206Y-79432335D01*
X117037452Y-79547544D01*
X117037455Y-79547547D01*
X117152664Y-79633793D01*
X117152671Y-79633797D01*
X117197618Y-79650561D01*
X117287517Y-79684091D01*
X117347127Y-79690500D01*
X117979100Y-79690499D01*
X118046139Y-79710183D01*
X118066781Y-79726818D01*
X124988681Y-86648718D01*
X125022166Y-86710041D01*
X125025000Y-86736399D01*
X125025000Y-86740431D01*
X125025000Y-86868569D01*
X125025000Y-86868571D01*
X125024999Y-86868571D01*
X125049997Y-86994238D01*
X125049999Y-86994244D01*
X125099033Y-87112624D01*
X125099038Y-87112633D01*
X125170223Y-87219168D01*
X125170226Y-87219172D01*
X125260827Y-87309773D01*
X125260831Y-87309776D01*
X125367366Y-87380961D01*
X125367372Y-87380964D01*
X125367373Y-87380965D01*
X125485756Y-87430001D01*
X125485760Y-87430001D01*
X125485761Y-87430002D01*
X125611428Y-87455000D01*
X125743601Y-87455000D01*
X125810640Y-87474685D01*
X125831282Y-87491319D01*
X137954438Y-99614475D01*
X138040063Y-99663911D01*
X138135564Y-99689500D01*
X138135565Y-99689500D01*
X144032500Y-99689500D01*
X144099539Y-99709185D01*
X144145294Y-99761989D01*
X144156500Y-99813500D01*
X144156500Y-100206000D01*
X144156501Y-100206009D01*
X144168052Y-100313450D01*
X144168054Y-100313462D01*
X144179260Y-100364972D01*
X144213383Y-100467497D01*
X144213386Y-100467503D01*
X144291171Y-100588537D01*
X144291179Y-100588548D01*
X144336923Y-100641340D01*
X144336926Y-100641343D01*
X144336930Y-100641347D01*
X144445664Y-100735567D01*
X144445667Y-100735568D01*
X144445668Y-100735569D01*
X144539925Y-100778616D01*
X144576541Y-100795338D01*
X144643580Y-100815023D01*
X144643584Y-100815024D01*
X144786000Y-100835500D01*
X144786003Y-100835500D01*
X152157990Y-100835500D01*
X152158000Y-100835500D01*
X152265456Y-100823947D01*
X152316967Y-100812741D01*
X152351197Y-100801347D01*
X152419497Y-100778616D01*
X152419501Y-100778613D01*
X152419504Y-100778613D01*
X152540543Y-100700825D01*
X152593347Y-100655070D01*
X152687567Y-100546336D01*
X152747338Y-100415459D01*
X152767023Y-100348420D01*
X152767024Y-100348416D01*
X152787500Y-100206000D01*
X152787500Y-98422000D01*
X152784283Y-98392080D01*
X152796687Y-98323322D01*
X152819888Y-98291147D01*
X153544218Y-97566819D01*
X153605541Y-97533334D01*
X153631899Y-97530500D01*
X174496699Y-97530500D01*
X174563738Y-97550185D01*
X174609493Y-97602989D01*
X174619437Y-97672147D01*
X174590412Y-97735703D01*
X174573609Y-97751767D01*
X174568654Y-97755684D01*
X174444684Y-97879654D01*
X174352643Y-98028875D01*
X174352641Y-98028880D01*
X174297494Y-98195302D01*
X174297493Y-98195309D01*
X174287000Y-98298013D01*
X174287000Y-98548000D01*
X175263000Y-98548000D01*
X175330039Y-98567685D01*
X175375794Y-98620489D01*
X175387000Y-98672000D01*
X175387000Y-98798000D01*
X175513000Y-98798000D01*
X175580039Y-98817685D01*
X175625794Y-98870489D01*
X175637000Y-98922000D01*
X175637000Y-99997999D01*
X175786972Y-99997999D01*
X175786986Y-99997998D01*
X175889697Y-99987505D01*
X176056119Y-99932358D01*
X176056124Y-99932356D01*
X176205345Y-99840315D01*
X176329315Y-99716345D01*
X176421354Y-99567126D01*
X176421842Y-99566081D01*
X176422368Y-99565482D01*
X176425149Y-99560975D01*
X176425918Y-99561449D01*
X176468007Y-99513635D01*
X176535198Y-99494473D01*
X176602082Y-99514679D01*
X176633498Y-99544157D01*
X176678035Y-99603651D01*
X176679455Y-99605547D01*
X176794664Y-99691793D01*
X176794671Y-99691797D01*
X176929517Y-99742091D01*
X176929516Y-99742091D01*
X176936444Y-99742835D01*
X176989127Y-99748500D01*
X177784872Y-99748499D01*
X177844483Y-99742091D01*
X177979331Y-99691796D01*
X178094546Y-99605546D01*
X178180796Y-99490331D01*
X178223161Y-99376744D01*
X178231582Y-99354167D01*
X178244851Y-99336440D01*
X178254051Y-99316297D01*
X178265381Y-99309015D01*
X178273453Y-99298233D01*
X178294201Y-99290494D01*
X178312829Y-99278523D01*
X178334745Y-99275371D01*
X178338917Y-99273816D01*
X178347764Y-99273500D01*
X178503532Y-99273500D01*
X178570571Y-99293185D01*
X178616326Y-99345989D01*
X178619873Y-99356336D01*
X178620198Y-99356215D01*
X178673202Y-99498328D01*
X178673206Y-99498335D01*
X178759452Y-99613544D01*
X178759455Y-99613547D01*
X178874664Y-99699793D01*
X178874671Y-99699797D01*
X178899842Y-99709185D01*
X179009517Y-99750091D01*
X179069127Y-99756500D01*
X179814872Y-99756499D01*
X179874483Y-99750091D01*
X180009331Y-99699796D01*
X180124546Y-99613546D01*
X180210796Y-99498331D01*
X180261091Y-99363483D01*
X180267500Y-99303873D01*
X180267499Y-98308128D01*
X180261091Y-98248517D01*
X180258107Y-98240517D01*
X180224502Y-98150416D01*
X180219518Y-98080724D01*
X180253003Y-98019401D01*
X180314327Y-97985917D01*
X180384018Y-97990901D01*
X180428365Y-98019402D01*
X180630181Y-98221218D01*
X180663666Y-98282541D01*
X180666500Y-98308899D01*
X180666500Y-99303870D01*
X180666501Y-99303876D01*
X180672908Y-99363483D01*
X180723202Y-99498328D01*
X180723206Y-99498335D01*
X180809452Y-99613544D01*
X180809455Y-99613547D01*
X180924664Y-99699793D01*
X180924671Y-99699797D01*
X180949842Y-99709185D01*
X181059517Y-99750091D01*
X181119127Y-99756500D01*
X181864872Y-99756499D01*
X181924483Y-99750091D01*
X182059331Y-99699796D01*
X182174546Y-99613546D01*
X182260796Y-99498331D01*
X182306147Y-99376738D01*
X182313802Y-99356215D01*
X182316538Y-99357235D01*
X182318614Y-99353583D01*
X182322765Y-99336128D01*
X182335528Y-99323845D01*
X182344286Y-99308448D01*
X182360180Y-99300122D01*
X182373110Y-99287681D01*
X182390487Y-99284249D01*
X182406180Y-99276030D01*
X182424053Y-99277620D01*
X182441656Y-99274144D01*
X182458131Y-99280652D01*
X182475775Y-99282222D01*
X182489949Y-99293221D01*
X182506639Y-99299814D01*
X182516980Y-99314196D01*
X182530975Y-99325056D01*
X182536953Y-99341974D01*
X182547428Y-99356542D01*
X182554176Y-99390713D01*
X182554254Y-99390933D01*
X182554266Y-99391167D01*
X182558961Y-99481053D01*
X182559010Y-99482056D01*
X182613636Y-100720339D01*
X182613675Y-100721327D01*
X182659053Y-101977474D01*
X182659085Y-101978449D01*
X182695090Y-103252970D01*
X182695113Y-103253932D01*
X182721599Y-104546782D01*
X182721615Y-104547731D01*
X182738448Y-105859186D01*
X182738456Y-105860121D01*
X182745488Y-107189174D01*
X182745488Y-107190535D01*
X182740553Y-108058207D01*
X182740537Y-108059637D01*
X182725845Y-108912756D01*
X182725811Y-108914209D01*
X182701538Y-109752623D01*
X182701486Y-109754101D01*
X182667789Y-110578269D01*
X182667719Y-110579769D01*
X182624763Y-111389862D01*
X182624673Y-111391386D01*
X182572615Y-112187588D01*
X182572504Y-112189136D01*
X182511506Y-112971586D01*
X182511373Y-112973157D01*
X182441603Y-113741857D01*
X182441448Y-113743451D01*
X182363024Y-114498955D01*
X182362846Y-114500572D01*
X182275953Y-115242695D01*
X182275757Y-115244274D01*
X182180479Y-115973691D01*
X182180266Y-115975243D01*
X182076859Y-116691284D01*
X182076604Y-116692969D01*
X181965063Y-117396795D01*
X181964780Y-117398502D01*
X181845421Y-118089166D01*
X181845109Y-118090896D01*
X181717859Y-118769751D01*
X181717518Y-118771501D01*
X181582725Y-119437567D01*
X181582353Y-119439337D01*
X181439896Y-120093990D01*
X181439493Y-120095781D01*
X181289756Y-120737975D01*
X181289319Y-120739785D01*
X181132133Y-121370920D01*
X181131663Y-121372749D01*
X180967532Y-121991436D01*
X180967027Y-121993282D01*
X180795575Y-122601521D01*
X180795034Y-122603385D01*
X180616885Y-123199494D01*
X180616307Y-123201374D01*
X180430991Y-123787426D01*
X180430375Y-123789320D01*
X180238706Y-124363226D01*
X180238051Y-124365134D01*
X180039323Y-124929446D01*
X180038629Y-124931367D01*
X179833773Y-125483858D01*
X179833038Y-125485792D01*
X179621213Y-126029104D01*
X179620437Y-126031046D01*
X179402776Y-126562649D01*
X179401957Y-126564601D01*
X179177344Y-127087538D01*
X179176482Y-127089498D01*
X178947486Y-127598237D01*
X178946114Y-127601182D01*
X178465570Y-128598124D01*
X178463581Y-128602068D01*
X177960103Y-129557963D01*
X177957933Y-129561908D01*
X177430806Y-130480212D01*
X177428452Y-130484144D01*
X176878016Y-131365910D01*
X176875476Y-131369812D01*
X176302173Y-132215758D01*
X176299450Y-132219617D01*
X175703433Y-133030758D01*
X175700527Y-133034556D01*
X175082042Y-133811604D01*
X175078959Y-133815326D01*
X174438205Y-134558925D01*
X174434950Y-134562556D01*
X173771986Y-135273380D01*
X173768565Y-135276905D01*
X173083504Y-135955436D01*
X173079928Y-135958840D01*
X172372808Y-136605530D01*
X172369086Y-136608800D01*
X171639936Y-137223989D01*
X171636079Y-137227113D01*
X170885020Y-137810981D01*
X170881042Y-137813948D01*
X170108114Y-138366655D01*
X170104026Y-138369456D01*
X169309398Y-138890995D01*
X169305215Y-138893623D01*
X168528309Y-139360351D01*
X168460706Y-139378000D01*
X168394292Y-139356299D01*
X168350153Y-139302136D01*
X168341164Y-139240801D01*
X168342112Y-139231989D01*
X168347500Y-139181873D01*
X168347499Y-138186128D01*
X168342112Y-138136011D01*
X168341091Y-138126516D01*
X168290797Y-137991671D01*
X168290793Y-137991664D01*
X168204547Y-137876455D01*
X168204544Y-137876452D01*
X168089335Y-137790206D01*
X168089328Y-137790202D01*
X167954482Y-137739908D01*
X167954483Y-137739908D01*
X167894883Y-137733501D01*
X167894881Y-137733500D01*
X167894873Y-137733500D01*
X167894865Y-137733500D01*
X167280899Y-137733500D01*
X167213860Y-137713815D01*
X167193218Y-137697181D01*
X156376819Y-126880782D01*
X156343334Y-126819459D01*
X156340500Y-126793101D01*
X156340500Y-108653656D01*
X156360185Y-108586617D01*
X156395611Y-108550553D01*
X156402714Y-108545807D01*
X156443169Y-108518776D01*
X156533776Y-108428169D01*
X156604965Y-108321627D01*
X156654001Y-108203244D01*
X156669659Y-108124530D01*
X156679000Y-108077571D01*
X156679000Y-107949428D01*
X156654002Y-107823761D01*
X156654001Y-107823760D01*
X156654001Y-107823756D01*
X156604965Y-107705373D01*
X156604964Y-107705372D01*
X156604961Y-107705366D01*
X156533776Y-107598831D01*
X156533773Y-107598827D01*
X156443172Y-107508226D01*
X156443168Y-107508223D01*
X156336633Y-107437038D01*
X156336624Y-107437033D01*
X156218244Y-107387999D01*
X156218238Y-107387997D01*
X156092571Y-107363000D01*
X156090012Y-107362748D01*
X156088757Y-107362241D01*
X156086594Y-107361811D01*
X156086675Y-107361400D01*
X156025225Y-107336588D01*
X156014484Y-107327026D01*
X154444819Y-105757360D01*
X154411334Y-105696037D01*
X154408500Y-105669679D01*
X154408500Y-99682319D01*
X154428185Y-99615280D01*
X154436649Y-99603651D01*
X154438269Y-99601675D01*
X154438276Y-99601669D01*
X154509465Y-99495127D01*
X154558501Y-99376744D01*
X154572086Y-99308448D01*
X154574167Y-99297986D01*
X174287001Y-99297986D01*
X174297494Y-99400697D01*
X174352641Y-99567119D01*
X174352643Y-99567124D01*
X174444684Y-99716345D01*
X174568654Y-99840315D01*
X174717875Y-99932356D01*
X174717880Y-99932358D01*
X174884302Y-99987505D01*
X174884309Y-99987506D01*
X174987019Y-99997999D01*
X175136999Y-99997999D01*
X175137000Y-99997998D01*
X175137000Y-99048000D01*
X174287001Y-99048000D01*
X174287001Y-99297986D01*
X154574167Y-99297986D01*
X154583500Y-99251071D01*
X154583500Y-99122928D01*
X154563191Y-99020830D01*
X154558502Y-98997260D01*
X154558501Y-98997258D01*
X154558501Y-98997256D01*
X154509465Y-98878873D01*
X154509464Y-98878872D01*
X154509461Y-98878866D01*
X154438276Y-98772331D01*
X154438273Y-98772327D01*
X154347672Y-98681726D01*
X154347668Y-98681723D01*
X154241133Y-98610538D01*
X154241124Y-98610533D01*
X154122744Y-98561499D01*
X154122738Y-98561497D01*
X153997071Y-98536500D01*
X153997069Y-98536500D01*
X153868931Y-98536500D01*
X153868929Y-98536500D01*
X153743261Y-98561497D01*
X153743255Y-98561499D01*
X153624875Y-98610533D01*
X153624866Y-98610538D01*
X153518331Y-98681723D01*
X153518327Y-98681726D01*
X153427726Y-98772327D01*
X153427723Y-98772331D01*
X153356538Y-98878866D01*
X153356533Y-98878875D01*
X153307499Y-98997255D01*
X153307497Y-98997261D01*
X153282500Y-99122928D01*
X153282500Y-99122931D01*
X153282500Y-99251069D01*
X153282500Y-99251071D01*
X153282499Y-99251071D01*
X153307497Y-99376738D01*
X153307499Y-99376744D01*
X153356533Y-99495124D01*
X153356538Y-99495133D01*
X153427720Y-99601664D01*
X153429351Y-99603651D01*
X153429879Y-99604895D01*
X153431108Y-99606734D01*
X153430759Y-99606966D01*
X153456666Y-99667960D01*
X153457500Y-99682319D01*
X153457500Y-105318500D01*
X153437815Y-105385539D01*
X153385011Y-105431294D01*
X153333500Y-105442500D01*
X152911500Y-105442500D01*
X152844461Y-105422815D01*
X152798706Y-105370011D01*
X152787500Y-105318500D01*
X152787500Y-105026010D01*
X152787500Y-105026000D01*
X152775947Y-104918544D01*
X152764741Y-104867033D01*
X152754991Y-104837738D01*
X152730616Y-104764502D01*
X152730613Y-104764496D01*
X152652828Y-104643462D01*
X152652825Y-104643457D01*
X152652820Y-104643451D01*
X152607076Y-104590659D01*
X152607072Y-104590656D01*
X152607070Y-104590653D01*
X152498336Y-104496433D01*
X152498333Y-104496431D01*
X152498331Y-104496430D01*
X152367465Y-104436664D01*
X152367460Y-104436662D01*
X152367459Y-104436662D01*
X152300420Y-104416977D01*
X152300422Y-104416977D01*
X152300417Y-104416976D01*
X152238347Y-104408052D01*
X152158000Y-104396500D01*
X144786000Y-104396500D01*
X144785991Y-104396500D01*
X144785990Y-104396501D01*
X144678549Y-104408052D01*
X144678537Y-104408054D01*
X144627027Y-104419260D01*
X144524502Y-104453383D01*
X144524496Y-104453386D01*
X144403462Y-104531171D01*
X144403451Y-104531179D01*
X144350659Y-104576923D01*
X144256433Y-104685664D01*
X144256430Y-104685668D01*
X144196664Y-104816534D01*
X144176976Y-104883582D01*
X144171949Y-104918549D01*
X144156500Y-105026000D01*
X144156500Y-106810000D01*
X144156501Y-106810009D01*
X144168052Y-106917450D01*
X144168054Y-106917462D01*
X144179260Y-106968972D01*
X144213383Y-107071497D01*
X144213386Y-107071503D01*
X144291171Y-107192537D01*
X144291179Y-107192548D01*
X144336923Y-107245340D01*
X144336926Y-107245343D01*
X144336930Y-107245347D01*
X144445664Y-107339567D01*
X144445667Y-107339568D01*
X144445668Y-107339569D01*
X144551712Y-107387999D01*
X144576541Y-107399338D01*
X144643580Y-107419023D01*
X144643584Y-107419024D01*
X144786000Y-107439500D01*
X144786003Y-107439500D01*
X148779835Y-107439500D01*
X148846874Y-107459185D01*
X148892629Y-107511989D01*
X148902573Y-107581147D01*
X148879101Y-107637811D01*
X148814649Y-107723906D01*
X148814645Y-107723913D01*
X148764403Y-107858620D01*
X148764401Y-107858627D01*
X148758000Y-107918155D01*
X148758000Y-109565500D01*
X148738315Y-109632539D01*
X148685511Y-109678294D01*
X148634000Y-109689500D01*
X145611892Y-109689500D01*
X145546000Y-109689500D01*
X145435778Y-109689500D01*
X145363201Y-109700995D01*
X145218047Y-109723985D01*
X145008396Y-109792103D01*
X145008393Y-109792104D01*
X144811974Y-109892187D01*
X144633641Y-110021752D01*
X144633636Y-110021756D01*
X144477756Y-110177636D01*
X144477752Y-110177641D01*
X144348187Y-110355974D01*
X144248104Y-110552393D01*
X144248103Y-110552396D01*
X144179985Y-110762047D01*
X144145500Y-110979778D01*
X144145500Y-142565500D01*
X144125815Y-142632539D01*
X144073011Y-142678294D01*
X144021500Y-142689500D01*
X141500085Y-142689500D01*
X141488552Y-142686978D01*
X141434365Y-142689500D01*
X141380108Y-142689500D01*
X141380106Y-142689500D01*
X141372825Y-142690458D01*
X141355318Y-142693178D01*
X140943832Y-142712330D01*
X140940059Y-142712448D01*
X140058074Y-142726621D01*
X140053560Y-142726611D01*
X139101763Y-142707245D01*
X139097316Y-142707075D01*
X138109431Y-142651470D01*
X138105013Y-142651142D01*
X137101586Y-142558603D01*
X137097169Y-142558116D01*
X136091014Y-142428823D01*
X136086584Y-142428172D01*
X135086250Y-142262720D01*
X135081801Y-142261900D01*
X134093122Y-142061074D01*
X134088651Y-142060080D01*
X133115659Y-141824719D01*
X133111170Y-141823544D01*
X132156685Y-141554483D01*
X132152182Y-141553121D01*
X131218246Y-141251176D01*
X131213739Y-141249622D01*
X131092695Y-141205280D01*
X130301690Y-140915510D01*
X130297210Y-140913770D01*
X129711534Y-140672958D01*
X129407932Y-140548126D01*
X129403449Y-140546178D01*
X128537591Y-140149577D01*
X128533139Y-140147430D01*
X127690956Y-139720280D01*
X127686551Y-139717933D01*
X127188266Y-139439449D01*
X126868215Y-139260577D01*
X126863875Y-139258034D01*
X126812443Y-139226485D01*
X126492353Y-139030136D01*
X126069410Y-138770695D01*
X126065147Y-138767959D01*
X125294394Y-138250686D01*
X125290270Y-138247794D01*
X124543108Y-137700572D01*
X124539073Y-137697487D01*
X123815378Y-137120213D01*
X123811449Y-137116943D01*
X123661587Y-136986943D01*
X123111110Y-136509422D01*
X123107358Y-136506031D01*
X122430057Y-135867772D01*
X122426430Y-135864210D01*
X121852640Y-135277197D01*
X121772198Y-135194901D01*
X121768738Y-135191213D01*
X121765962Y-135188131D01*
X121137420Y-134490231D01*
X121134131Y-134486427D01*
X120525686Y-133753114D01*
X120522582Y-133749217D01*
X119937041Y-132982829D01*
X119934129Y-132978856D01*
X119371590Y-132178581D01*
X119368873Y-132174550D01*
X119235652Y-131968292D01*
X118829483Y-131339447D01*
X118826998Y-131335431D01*
X118504328Y-130790821D01*
X118311043Y-130464591D01*
X118308721Y-130460497D01*
X117815116Y-129550300D01*
X117813506Y-129547229D01*
X117772620Y-129466530D01*
X117578117Y-129082628D01*
X117577121Y-129080617D01*
X117562708Y-129050820D01*
X117345731Y-128602235D01*
X117344769Y-128600197D01*
X117120261Y-128113591D01*
X117119342Y-128111551D01*
X116900402Y-127613587D01*
X116899530Y-127611553D01*
X116687438Y-127104805D01*
X116686674Y-127102935D01*
X116480422Y-126584663D01*
X116479656Y-126582687D01*
X116472457Y-126563638D01*
X116280315Y-126055213D01*
X116279634Y-126053361D01*
X116086487Y-125514407D01*
X116085797Y-125512428D01*
X116005711Y-125276406D01*
X115899622Y-124963747D01*
X115898970Y-124961772D01*
X115719222Y-124401317D01*
X115718612Y-124399358D01*
X115708257Y-124365134D01*
X115545953Y-123828702D01*
X115545427Y-123826914D01*
X115379454Y-123244206D01*
X115378924Y-123242285D01*
X115304138Y-122962721D01*
X115220229Y-122649050D01*
X115219742Y-122647169D01*
X115106893Y-122196812D01*
X115068055Y-122041816D01*
X115067600Y-122039938D01*
X115056682Y-121993282D01*
X114923283Y-121423240D01*
X114922875Y-121421433D01*
X114912077Y-121371858D01*
X114785896Y-120792571D01*
X114785542Y-120790887D01*
X114656106Y-120150023D01*
X114655780Y-120148342D01*
X114533988Y-119495157D01*
X114533700Y-119493548D01*
X114419714Y-118827986D01*
X114419434Y-118826269D01*
X114313394Y-118148185D01*
X114313164Y-118146647D01*
X114286043Y-117955385D01*
X115157500Y-117955385D01*
X115157500Y-118951120D01*
X115157501Y-118951126D01*
X115163908Y-119010733D01*
X115214202Y-119145578D01*
X115214206Y-119145585D01*
X115300452Y-119260794D01*
X115300455Y-119260797D01*
X115415664Y-119347043D01*
X115415671Y-119347047D01*
X115460618Y-119363811D01*
X115550517Y-119397341D01*
X115610127Y-119403750D01*
X116355872Y-119403749D01*
X116415483Y-119397341D01*
X116550331Y-119347046D01*
X116665546Y-119260796D01*
X116751796Y-119145581D01*
X116802091Y-119010733D01*
X116808500Y-118951123D01*
X116808499Y-118097897D01*
X116817145Y-118068451D01*
X116823667Y-118038471D01*
X116827419Y-118033457D01*
X116828183Y-118030859D01*
X116844813Y-118010222D01*
X116996113Y-117858922D01*
X117057434Y-117825439D01*
X117127126Y-117830423D01*
X117183059Y-117872295D01*
X117207476Y-117937759D01*
X117207614Y-117953238D01*
X117207500Y-117955366D01*
X117207500Y-118951120D01*
X117207501Y-118951126D01*
X117213908Y-119010733D01*
X117264202Y-119145578D01*
X117264206Y-119145585D01*
X117350452Y-119260794D01*
X117350455Y-119260797D01*
X117465664Y-119347043D01*
X117465671Y-119347047D01*
X117510618Y-119363811D01*
X117600517Y-119397341D01*
X117660127Y-119403750D01*
X118405872Y-119403749D01*
X118465483Y-119397341D01*
X118600331Y-119347046D01*
X118715546Y-119260796D01*
X118801796Y-119145581D01*
X118852091Y-119010733D01*
X118858500Y-118951123D01*
X118858500Y-118951110D01*
X118858593Y-118950246D01*
X118885331Y-118885694D01*
X118942723Y-118845846D01*
X118981883Y-118839500D01*
X119317236Y-118839500D01*
X119384275Y-118859185D01*
X119430030Y-118911989D01*
X119433418Y-118920167D01*
X119484202Y-119056328D01*
X119484206Y-119056335D01*
X119570452Y-119171544D01*
X119570455Y-119171547D01*
X119685664Y-119257793D01*
X119685671Y-119257797D01*
X119820517Y-119308091D01*
X119820516Y-119308091D01*
X119827444Y-119308835D01*
X119880127Y-119314500D01*
X120675872Y-119314499D01*
X120735483Y-119308091D01*
X120870331Y-119257796D01*
X120985546Y-119171546D01*
X121031502Y-119110156D01*
X121087434Y-119068287D01*
X121157125Y-119063303D01*
X121218448Y-119096788D01*
X121239665Y-119127089D01*
X121239851Y-119126975D01*
X121241819Y-119130166D01*
X121243151Y-119132068D01*
X121243642Y-119133121D01*
X121335684Y-119282345D01*
X121459654Y-119406315D01*
X121608875Y-119498356D01*
X121608880Y-119498358D01*
X121775302Y-119553505D01*
X121775309Y-119553506D01*
X121878019Y-119563999D01*
X122027999Y-119563999D01*
X122528000Y-119563999D01*
X122677972Y-119563999D01*
X122677986Y-119563998D01*
X122780697Y-119553505D01*
X122947119Y-119498358D01*
X122947124Y-119498356D01*
X123096345Y-119406315D01*
X123220315Y-119282345D01*
X123312356Y-119133124D01*
X123312358Y-119133119D01*
X123367505Y-118966697D01*
X123367506Y-118966690D01*
X123377999Y-118863986D01*
X123378000Y-118863973D01*
X123378000Y-118614000D01*
X122528000Y-118614000D01*
X122528000Y-119563999D01*
X122027999Y-119563999D01*
X122028000Y-119563998D01*
X122028000Y-118114000D01*
X122528000Y-118114000D01*
X123377999Y-118114000D01*
X123377999Y-117864028D01*
X123377998Y-117864013D01*
X123367505Y-117761302D01*
X123312358Y-117594880D01*
X123312356Y-117594875D01*
X123220315Y-117445654D01*
X123096345Y-117321684D01*
X122947124Y-117229643D01*
X122947119Y-117229641D01*
X122780697Y-117174494D01*
X122780690Y-117174493D01*
X122677986Y-117164000D01*
X122528000Y-117164000D01*
X122528000Y-118114000D01*
X122028000Y-118114000D01*
X122028000Y-117164000D01*
X121878027Y-117164000D01*
X121878012Y-117164001D01*
X121775302Y-117174494D01*
X121608880Y-117229641D01*
X121608875Y-117229643D01*
X121459654Y-117321684D01*
X121335684Y-117445654D01*
X121243637Y-117594885D01*
X121243148Y-117595936D01*
X121242620Y-117596535D01*
X121239851Y-117601025D01*
X121239083Y-117600551D01*
X121196975Y-117648375D01*
X121129782Y-117667526D01*
X121062901Y-117647309D01*
X121031501Y-117617841D01*
X120985547Y-117556455D01*
X120985544Y-117556452D01*
X120870335Y-117470206D01*
X120870328Y-117470202D01*
X120735482Y-117419908D01*
X120735483Y-117419908D01*
X120675883Y-117413501D01*
X120675881Y-117413500D01*
X120675873Y-117413500D01*
X120675864Y-117413500D01*
X119880129Y-117413500D01*
X119880123Y-117413501D01*
X119820516Y-117419908D01*
X119685671Y-117470202D01*
X119685664Y-117470206D01*
X119570455Y-117556452D01*
X119570452Y-117556455D01*
X119484206Y-117671664D01*
X119484202Y-117671671D01*
X119433418Y-117807833D01*
X119391547Y-117863767D01*
X119326083Y-117888184D01*
X119317236Y-117888500D01*
X118935476Y-117888500D01*
X118868437Y-117868815D01*
X118822682Y-117816011D01*
X118819295Y-117807835D01*
X118814529Y-117795059D01*
X118801796Y-117760919D01*
X118801794Y-117760916D01*
X118801794Y-117760915D01*
X118715547Y-117645705D01*
X118715544Y-117645702D01*
X118600335Y-117559456D01*
X118600328Y-117559452D01*
X118465486Y-117509160D01*
X118465485Y-117509159D01*
X118465483Y-117509159D01*
X118405873Y-117502750D01*
X118405863Y-117502750D01*
X117660118Y-117502750D01*
X117657964Y-117502866D01*
X117657477Y-117502750D01*
X117656807Y-117502751D01*
X117656807Y-117502592D01*
X117589971Y-117486782D01*
X117541466Y-117436492D01*
X117527851Y-117367962D01*
X117553447Y-117302950D01*
X117563666Y-117291369D01*
X129520217Y-105334819D01*
X129581540Y-105301334D01*
X129607898Y-105298500D01*
X129740071Y-105298500D01*
X129824615Y-105281682D01*
X129865744Y-105273501D01*
X129984127Y-105224465D01*
X130090669Y-105153276D01*
X130181276Y-105062669D01*
X130252465Y-104956127D01*
X130301501Y-104837744D01*
X130316071Y-104764496D01*
X130326500Y-104712071D01*
X130326500Y-104583928D01*
X130301502Y-104458261D01*
X130301501Y-104458260D01*
X130301501Y-104458256D01*
X130252465Y-104339873D01*
X130252464Y-104339872D01*
X130252461Y-104339866D01*
X130181276Y-104233331D01*
X130181273Y-104233327D01*
X130090672Y-104142726D01*
X130090668Y-104142723D01*
X129984133Y-104071538D01*
X129984124Y-104071533D01*
X129865744Y-104022499D01*
X129865738Y-104022497D01*
X129740071Y-103997500D01*
X129740069Y-103997500D01*
X129611931Y-103997500D01*
X129611929Y-103997500D01*
X129486261Y-104022497D01*
X129486255Y-104022499D01*
X129367875Y-104071533D01*
X129367866Y-104071538D01*
X129261331Y-104142723D01*
X129261327Y-104142726D01*
X129170726Y-104233327D01*
X129170723Y-104233331D01*
X129099538Y-104339866D01*
X129099533Y-104339875D01*
X129050499Y-104458255D01*
X129050497Y-104458261D01*
X129025500Y-104583928D01*
X129025500Y-104716100D01*
X129005815Y-104783139D01*
X128989181Y-104803781D01*
X116326530Y-117466431D01*
X116265207Y-117499916D01*
X116238849Y-117502750D01*
X115610129Y-117502750D01*
X115610123Y-117502751D01*
X115550516Y-117509158D01*
X115415671Y-117559452D01*
X115415664Y-117559456D01*
X115300455Y-117645702D01*
X115300452Y-117645705D01*
X115214206Y-117760914D01*
X115214202Y-117760921D01*
X115163908Y-117895767D01*
X115157501Y-117955366D01*
X115157500Y-117955385D01*
X114286043Y-117955385D01*
X114215178Y-117455624D01*
X114214966Y-117454049D01*
X114125212Y-116750142D01*
X114125029Y-116748624D01*
X114043642Y-116031510D01*
X114043470Y-116029895D01*
X113970614Y-115299515D01*
X113970483Y-115298105D01*
X113906289Y-114553976D01*
X113906177Y-114552582D01*
X113850840Y-113794927D01*
X113850749Y-113793553D01*
X113804406Y-113021845D01*
X113804323Y-113020288D01*
X113767169Y-112234946D01*
X113767107Y-112233427D01*
X113765512Y-112187588D01*
X113739269Y-111433272D01*
X113739231Y-111431953D01*
X113720912Y-110617551D01*
X113720891Y-110616267D01*
X113712252Y-109787011D01*
X113712246Y-109785541D01*
X113713471Y-108941884D01*
X113713482Y-108940438D01*
X113713845Y-108912756D01*
X113724753Y-108081064D01*
X113724774Y-108079925D01*
X113744850Y-107263267D01*
X113746144Y-107258539D01*
X113746467Y-107197489D01*
X113747968Y-107136428D01*
X113747967Y-107136422D01*
X113747580Y-107132792D01*
X113746882Y-107118979D01*
X113747133Y-107071497D01*
X113753542Y-105860061D01*
X113753550Y-105859187D01*
X113753660Y-105850594D01*
X113770383Y-104547673D01*
X113770399Y-104546783D01*
X113770732Y-104530534D01*
X113796891Y-103253638D01*
X113796902Y-103253199D01*
X113832916Y-101978354D01*
X113832945Y-101977477D01*
X113842102Y-101724000D01*
X144156500Y-101724000D01*
X144156500Y-103508000D01*
X144156501Y-103508009D01*
X144168052Y-103615450D01*
X144168054Y-103615462D01*
X144179260Y-103666972D01*
X144213383Y-103769497D01*
X144213386Y-103769503D01*
X144291171Y-103890537D01*
X144291179Y-103890548D01*
X144336923Y-103943340D01*
X144336926Y-103943343D01*
X144336930Y-103943347D01*
X144445664Y-104037567D01*
X144445667Y-104037568D01*
X144445668Y-104037569D01*
X144539925Y-104080616D01*
X144576541Y-104097338D01*
X144643580Y-104117023D01*
X144643584Y-104117024D01*
X144786000Y-104137500D01*
X144786003Y-104137500D01*
X152157990Y-104137500D01*
X152158000Y-104137500D01*
X152265456Y-104125947D01*
X152316967Y-104114741D01*
X152351197Y-104103347D01*
X152419497Y-104080616D01*
X152419501Y-104080613D01*
X152419504Y-104080613D01*
X152540543Y-104002825D01*
X152593347Y-103957070D01*
X152687567Y-103848336D01*
X152747338Y-103717459D01*
X152767023Y-103650420D01*
X152767024Y-103650416D01*
X152787500Y-103508000D01*
X152787500Y-101724000D01*
X152775947Y-101616544D01*
X152764741Y-101565033D01*
X152764637Y-101564722D01*
X152730616Y-101462502D01*
X152730613Y-101462496D01*
X152652828Y-101341462D01*
X152652825Y-101341457D01*
X152652820Y-101341451D01*
X152607076Y-101288659D01*
X152607072Y-101288656D01*
X152607070Y-101288653D01*
X152498336Y-101194433D01*
X152498333Y-101194431D01*
X152498331Y-101194430D01*
X152367465Y-101134664D01*
X152367460Y-101134662D01*
X152367459Y-101134662D01*
X152300420Y-101114977D01*
X152300422Y-101114977D01*
X152300417Y-101114976D01*
X152238347Y-101106052D01*
X152158000Y-101094500D01*
X144786000Y-101094500D01*
X144785991Y-101094500D01*
X144785990Y-101094501D01*
X144678549Y-101106052D01*
X144678537Y-101106054D01*
X144627027Y-101117260D01*
X144524502Y-101151383D01*
X144524496Y-101151386D01*
X144403462Y-101229171D01*
X144403451Y-101229179D01*
X144350659Y-101274923D01*
X144256433Y-101383664D01*
X144256430Y-101383668D01*
X144196664Y-101514534D01*
X144176976Y-101581582D01*
X144171949Y-101616549D01*
X144156500Y-101724000D01*
X113842102Y-101724000D01*
X113878326Y-100721232D01*
X113878362Y-100720334D01*
X113932997Y-99481865D01*
X113933023Y-99481329D01*
X113996765Y-98260772D01*
X113996796Y-98260223D01*
X114069510Y-97057422D01*
X114069571Y-97056499D01*
X114151126Y-95871285D01*
X114151169Y-95870690D01*
X114241414Y-94703091D01*
X114241464Y-94702477D01*
X114340317Y-93551752D01*
X114340411Y-93550722D01*
X114348875Y-93461305D01*
X114447633Y-92417923D01*
X114447735Y-92416891D01*
X114447736Y-92416881D01*
X114563350Y-91300243D01*
X114563458Y-91299246D01*
X114568120Y-91257838D01*
X114687193Y-90200018D01*
X114687316Y-90198980D01*
X114819165Y-89115918D01*
X114819257Y-89115189D01*
X114959002Y-88048906D01*
X114959156Y-88047777D01*
X114987159Y-87848513D01*
X115106751Y-86997528D01*
X115106912Y-86996423D01*
X115118658Y-86918207D01*
X115262130Y-85962776D01*
X115262306Y-85961645D01*
X115296777Y-85746147D01*
X115425163Y-84943537D01*
X115425350Y-84942402D01*
X115452936Y-84780054D01*
X115595553Y-83940737D01*
X115595752Y-83939603D01*
X115615037Y-83832498D01*
X115773456Y-82952655D01*
X115773670Y-82951507D01*
X115958415Y-81981037D01*
X115958603Y-81980073D01*
X116150654Y-81023912D01*
X116150872Y-81022853D01*
X116349714Y-80082875D01*
X116349907Y-80081986D01*
X116555894Y-79155826D01*
X116556103Y-79154912D01*
X116649749Y-78753832D01*
X116684160Y-78693027D01*
X116745984Y-78660477D01*
X116815592Y-78666518D01*
G37*
G04 #@! TD.AperFunction*
G04 #@! TA.AperFunction,Conductor*
G36*
X153751718Y-106413185D02*
G01*
X153772360Y-106429819D01*
X155342026Y-107999484D01*
X155375511Y-108060807D01*
X155377748Y-108075012D01*
X155378000Y-108077571D01*
X155402997Y-108203238D01*
X155402999Y-108203244D01*
X155452033Y-108321624D01*
X155452038Y-108321633D01*
X155523222Y-108428167D01*
X155523223Y-108428168D01*
X155523224Y-108428169D01*
X155553181Y-108458126D01*
X155586666Y-108519447D01*
X155589500Y-108545807D01*
X155589500Y-127049436D01*
X155599709Y-127087538D01*
X155602295Y-127097186D01*
X155615090Y-127144938D01*
X155652446Y-127209640D01*
X155664526Y-127230563D01*
X155664528Y-127230565D01*
X165957780Y-137523817D01*
X165991265Y-137585140D01*
X165986281Y-137654832D01*
X165944409Y-137710765D01*
X165878945Y-137735182D01*
X165856854Y-137734788D01*
X165844873Y-137733500D01*
X165844863Y-137733500D01*
X165099129Y-137733500D01*
X165099123Y-137733501D01*
X165039516Y-137739908D01*
X164904671Y-137790202D01*
X164904664Y-137790206D01*
X164789455Y-137876452D01*
X164789452Y-137876455D01*
X164703206Y-137991664D01*
X164703202Y-137991671D01*
X164652418Y-138127833D01*
X164639148Y-138145559D01*
X164629949Y-138165703D01*
X164618618Y-138172984D01*
X164610547Y-138183767D01*
X164589798Y-138191505D01*
X164571171Y-138203477D01*
X164549254Y-138206628D01*
X164545083Y-138208184D01*
X164536236Y-138208500D01*
X164396468Y-138208500D01*
X164329429Y-138188815D01*
X164283674Y-138136011D01*
X164280126Y-138125663D01*
X164279802Y-138125785D01*
X164226797Y-137983671D01*
X164226793Y-137983664D01*
X164140547Y-137868455D01*
X164140544Y-137868452D01*
X164025335Y-137782206D01*
X164025328Y-137782202D01*
X163890482Y-137731908D01*
X163890483Y-137731908D01*
X163830883Y-137725501D01*
X163830881Y-137725500D01*
X163830873Y-137725500D01*
X163830864Y-137725500D01*
X163035129Y-137725500D01*
X163035123Y-137725501D01*
X162975516Y-137731908D01*
X162840671Y-137782202D01*
X162840664Y-137782206D01*
X162725455Y-137868452D01*
X162679498Y-137929842D01*
X162623563Y-137971713D01*
X162553872Y-137976696D01*
X162492549Y-137943210D01*
X162471335Y-137912909D01*
X162471149Y-137913025D01*
X162469170Y-137909816D01*
X162467845Y-137907924D01*
X162467356Y-137906877D01*
X162375315Y-137757654D01*
X162251345Y-137633684D01*
X162102124Y-137541643D01*
X162102119Y-137541641D01*
X161935697Y-137486494D01*
X161935690Y-137486493D01*
X161832986Y-137476000D01*
X161683000Y-137476000D01*
X161683000Y-139875999D01*
X161832972Y-139875999D01*
X161832986Y-139875998D01*
X161935697Y-139865505D01*
X162102119Y-139810358D01*
X162102124Y-139810356D01*
X162251345Y-139718315D01*
X162375315Y-139594345D01*
X162467354Y-139445126D01*
X162467842Y-139444081D01*
X162468368Y-139443482D01*
X162471149Y-139438975D01*
X162471918Y-139439449D01*
X162514007Y-139391635D01*
X162581198Y-139372473D01*
X162648082Y-139392679D01*
X162679498Y-139422157D01*
X162725455Y-139483547D01*
X162840664Y-139569793D01*
X162840671Y-139569797D01*
X162975517Y-139620091D01*
X162975516Y-139620091D01*
X162982444Y-139620835D01*
X163035127Y-139626500D01*
X163830872Y-139626499D01*
X163890483Y-139620091D01*
X164025331Y-139569796D01*
X164140546Y-139483546D01*
X164226796Y-139368331D01*
X164274598Y-139240166D01*
X164287867Y-139222440D01*
X164297067Y-139202297D01*
X164308397Y-139195015D01*
X164316469Y-139184233D01*
X164337217Y-139176494D01*
X164355845Y-139164523D01*
X164377761Y-139161371D01*
X164381933Y-139159816D01*
X164390780Y-139159500D01*
X164536236Y-139159500D01*
X164603275Y-139179185D01*
X164649030Y-139231989D01*
X164652418Y-139240167D01*
X164703202Y-139376328D01*
X164703206Y-139376335D01*
X164789452Y-139491544D01*
X164789455Y-139491547D01*
X164904664Y-139577793D01*
X164904671Y-139577797D01*
X164918136Y-139582819D01*
X165039517Y-139628091D01*
X165099127Y-139634500D01*
X165844872Y-139634499D01*
X165904483Y-139628091D01*
X166039331Y-139577796D01*
X166154546Y-139491546D01*
X166240796Y-139376331D01*
X166291091Y-139241483D01*
X166297500Y-139181873D01*
X166297499Y-138186128D01*
X166296212Y-138174158D01*
X166301281Y-138146054D01*
X166303319Y-138117566D01*
X166307405Y-138112107D01*
X166308615Y-138105400D01*
X166328075Y-138084496D01*
X166345191Y-138061633D01*
X166351577Y-138059250D01*
X166356223Y-138054261D01*
X166383895Y-138047196D01*
X166410655Y-138037216D01*
X166417316Y-138038665D01*
X166423922Y-138036979D01*
X166451021Y-138045997D01*
X166478928Y-138052068D01*
X166486662Y-138057858D01*
X166490217Y-138059041D01*
X166507182Y-138073219D01*
X166660181Y-138226218D01*
X166693666Y-138287541D01*
X166696500Y-138313899D01*
X166696500Y-139181870D01*
X166696501Y-139181876D01*
X166702908Y-139241483D01*
X166753202Y-139376328D01*
X166753206Y-139376335D01*
X166839452Y-139491544D01*
X166839455Y-139491547D01*
X166954664Y-139577793D01*
X166954671Y-139577797D01*
X166968136Y-139582819D01*
X167089517Y-139628091D01*
X167149127Y-139634500D01*
X167543655Y-139634499D01*
X167610693Y-139654183D01*
X167656448Y-139706987D01*
X167666392Y-139776146D01*
X167637367Y-139839701D01*
X167598912Y-139869506D01*
X166785623Y-140274348D01*
X166781232Y-140276427D01*
X165903884Y-140671066D01*
X165899450Y-140672958D01*
X165003653Y-141034714D01*
X164999182Y-141036420D01*
X164086639Y-141364593D01*
X164082143Y-141366114D01*
X163155238Y-141659904D01*
X163150720Y-141661242D01*
X162212783Y-141919752D01*
X162208245Y-141920910D01*
X161264143Y-142143131D01*
X161259585Y-142144114D01*
X160316042Y-142329060D01*
X160311453Y-142329871D01*
X159378582Y-142476573D01*
X159373949Y-142477212D01*
X158467595Y-142584900D01*
X158462893Y-142585368D01*
X157609589Y-142653909D01*
X157604819Y-142654200D01*
X156854886Y-142685420D01*
X156850939Y-142685521D01*
X156444141Y-142689494D01*
X156442930Y-142689500D01*
X154970500Y-142689500D01*
X154903461Y-142669815D01*
X154857706Y-142617011D01*
X154846500Y-142565500D01*
X154846500Y-139175986D01*
X160333001Y-139175986D01*
X160343494Y-139278697D01*
X160398641Y-139445119D01*
X160398643Y-139445124D01*
X160490684Y-139594345D01*
X160614654Y-139718315D01*
X160763875Y-139810356D01*
X160763880Y-139810358D01*
X160930302Y-139865505D01*
X160930309Y-139865506D01*
X161033019Y-139875999D01*
X161182999Y-139875999D01*
X161183000Y-139875998D01*
X161183000Y-138926000D01*
X160333001Y-138926000D01*
X160333001Y-139175986D01*
X154846500Y-139175986D01*
X154846500Y-138176013D01*
X160333000Y-138176013D01*
X160333000Y-138426000D01*
X161183000Y-138426000D01*
X161183000Y-137476000D01*
X161033027Y-137476000D01*
X161033012Y-137476001D01*
X160930302Y-137486494D01*
X160763880Y-137541641D01*
X160763875Y-137541643D01*
X160614654Y-137633684D01*
X160490684Y-137757654D01*
X160398643Y-137906875D01*
X160398641Y-137906880D01*
X160343494Y-138073302D01*
X160343493Y-138073309D01*
X160333000Y-138176013D01*
X154846500Y-138176013D01*
X154846500Y-111082683D01*
X154846500Y-111082682D01*
X154825062Y-110933584D01*
X154815955Y-110870235D01*
X154815952Y-110870225D01*
X154797538Y-110807511D01*
X154755484Y-110664290D01*
X154755483Y-110664288D01*
X154755482Y-110664284D01*
X154666327Y-110469061D01*
X154666320Y-110469048D01*
X154633211Y-110417531D01*
X154550281Y-110288487D01*
X154517172Y-110250277D01*
X154409724Y-110126275D01*
X154247514Y-109985720D01*
X154247513Y-109985719D01*
X154182991Y-109944253D01*
X154066951Y-109869679D01*
X154066938Y-109869672D01*
X153871715Y-109780517D01*
X153665774Y-109720047D01*
X153665764Y-109720044D01*
X153474754Y-109692582D01*
X153453318Y-109689500D01*
X153411892Y-109689500D01*
X152882000Y-109689500D01*
X152814961Y-109669815D01*
X152769206Y-109617011D01*
X152758000Y-109565500D01*
X152758000Y-107918172D01*
X152757999Y-107918155D01*
X152751598Y-107858627D01*
X152751596Y-107858620D01*
X152701354Y-107723913D01*
X152701350Y-107723906D01*
X152615190Y-107608812D01*
X152505181Y-107526458D01*
X152463311Y-107470524D01*
X152458327Y-107400832D01*
X152491813Y-107339510D01*
X152512452Y-107322878D01*
X152540543Y-107304825D01*
X152593347Y-107259070D01*
X152687567Y-107150336D01*
X152747338Y-107019459D01*
X152767023Y-106952420D01*
X152767024Y-106952416D01*
X152787500Y-106810000D01*
X152787500Y-106517500D01*
X152807185Y-106450461D01*
X152859989Y-106404706D01*
X152911500Y-106393500D01*
X153684679Y-106393500D01*
X153751718Y-106413185D01*
G37*
G04 #@! TD.AperFunction*
G04 #@! TA.AperFunction,Conductor*
G36*
X148945099Y-43710185D02*
G01*
X148990854Y-43762989D01*
X149000798Y-43832147D01*
X148998736Y-43843017D01*
X148997908Y-43846518D01*
X148994136Y-43881608D01*
X148991501Y-43906123D01*
X148991500Y-43906135D01*
X148991500Y-45501870D01*
X148991501Y-45501876D01*
X148997908Y-45561483D01*
X149048202Y-45696328D01*
X149048206Y-45696335D01*
X149134452Y-45811544D01*
X149134455Y-45811547D01*
X149249664Y-45897793D01*
X149249671Y-45897797D01*
X149278711Y-45908628D01*
X149384517Y-45948091D01*
X149444127Y-45954500D01*
X150039872Y-45954499D01*
X150099483Y-45948091D01*
X150234331Y-45897796D01*
X150349546Y-45811546D01*
X150435796Y-45696331D01*
X150486091Y-45561483D01*
X150492500Y-45501873D01*
X150492499Y-43948646D01*
X150512184Y-43881608D01*
X150564987Y-43835853D01*
X150634146Y-43825909D01*
X150635491Y-43826110D01*
X151341661Y-43936208D01*
X151346641Y-43937089D01*
X152207805Y-44107584D01*
X152212566Y-44108625D01*
X153080628Y-44316425D01*
X153108654Y-44323134D01*
X153113286Y-44324338D01*
X154030949Y-44581849D01*
X154035417Y-44583195D01*
X154965707Y-44882790D01*
X154970098Y-44884295D01*
X155906731Y-45225177D01*
X155910932Y-45226795D01*
X156844122Y-45606177D01*
X156849258Y-45608265D01*
X156853445Y-45610058D01*
X157789874Y-46031493D01*
X157793894Y-46033390D01*
X158725928Y-46494402D01*
X158729902Y-46496458D01*
X159557596Y-46943812D01*
X159655330Y-46996635D01*
X159659193Y-46998813D01*
X160576475Y-47537970D01*
X160580172Y-47540233D01*
X161487985Y-48118234D01*
X161491590Y-48120619D01*
X162388895Y-48737454D01*
X162392361Y-48739927D01*
X163019797Y-49204345D01*
X163278184Y-49395599D01*
X163281588Y-49398211D01*
X163309440Y-49420358D01*
X164155237Y-50092908D01*
X164158485Y-50095583D01*
X164462435Y-50354738D01*
X165019290Y-50829525D01*
X165022435Y-50832300D01*
X165869849Y-51605817D01*
X165872848Y-51608648D01*
X166026891Y-51758991D01*
X166706358Y-52422139D01*
X166709235Y-52425040D01*
X167528372Y-53278981D01*
X167531112Y-53281932D01*
X168335377Y-54176807D01*
X168337980Y-54179799D01*
X169126961Y-55116247D01*
X169129428Y-55119269D01*
X169902680Y-56097942D01*
X169904999Y-56100973D01*
X170195083Y-56492418D01*
X170662025Y-57122519D01*
X170664221Y-57125578D01*
X171404617Y-58190837D01*
X171406680Y-58193902D01*
X172129884Y-59303568D01*
X172131817Y-59306631D01*
X172837387Y-60461631D01*
X172839193Y-60464685D01*
X173527658Y-61667757D01*
X173528929Y-61670033D01*
X173863991Y-62285201D01*
X173864802Y-62286716D01*
X174197302Y-62917839D01*
X174198084Y-62919347D01*
X174524692Y-63560431D01*
X174525444Y-63561932D01*
X174848181Y-64217211D01*
X174848905Y-64218706D01*
X175165671Y-64884202D01*
X175166366Y-64885689D01*
X175478997Y-65565543D01*
X175479665Y-65567021D01*
X175786312Y-66257515D01*
X175786953Y-66258984D01*
X176089193Y-66963988D01*
X176089808Y-66965448D01*
X176385959Y-67681364D01*
X176386548Y-67682813D01*
X176678033Y-68413413D01*
X176678597Y-68414852D01*
X176963951Y-69156824D01*
X176964490Y-69158252D01*
X177244877Y-69914985D01*
X177245392Y-69916402D01*
X177519565Y-70684914D01*
X177520057Y-70686319D01*
X177789009Y-71469791D01*
X177789478Y-71471184D01*
X178052096Y-72266782D01*
X178052543Y-72268162D01*
X178309698Y-73078963D01*
X178310123Y-73080331D01*
X178493120Y-73681320D01*
X178560774Y-73903503D01*
X178561178Y-73904858D01*
X178806154Y-74743591D01*
X178806537Y-74744932D01*
X179044842Y-75596310D01*
X179045206Y-75597638D01*
X179277564Y-76464753D01*
X179277909Y-76466068D01*
X179503502Y-77346411D01*
X179503828Y-77347712D01*
X179723164Y-78243828D01*
X179723471Y-78245114D01*
X179935859Y-79154757D01*
X179936149Y-79156030D01*
X180142050Y-80081800D01*
X180142323Y-80083058D01*
X180341105Y-81022756D01*
X180341362Y-81024001D01*
X180533370Y-81979949D01*
X180533610Y-81981178D01*
X180718328Y-82951507D01*
X180718554Y-82952723D01*
X180896246Y-83939604D01*
X180896456Y-83940805D01*
X181066645Y-84942386D01*
X181066840Y-84943572D01*
X181229692Y-85961645D01*
X181229874Y-85962817D01*
X181385084Y-86996408D01*
X181385252Y-86997565D01*
X181532842Y-88047778D01*
X181532998Y-88048922D01*
X181672719Y-89115025D01*
X181672861Y-89116153D01*
X181804680Y-90198968D01*
X181804811Y-90200082D01*
X181928540Y-91299247D01*
X181928659Y-91300348D01*
X182044262Y-92416881D01*
X182044369Y-92417966D01*
X182151587Y-93550724D01*
X182151684Y-93551796D01*
X182250517Y-94702277D01*
X182250603Y-94703334D01*
X182340813Y-95870479D01*
X182340889Y-95871523D01*
X182422427Y-97056498D01*
X182422494Y-97057527D01*
X182481183Y-98028330D01*
X182465580Y-98096435D01*
X182415633Y-98145293D01*
X182347201Y-98159392D01*
X182282009Y-98134255D01*
X182258143Y-98110124D01*
X182174547Y-97998455D01*
X182174544Y-97998452D01*
X182059335Y-97912206D01*
X182059328Y-97912202D01*
X181924482Y-97861908D01*
X181924483Y-97861908D01*
X181864883Y-97855501D01*
X181864881Y-97855500D01*
X181864873Y-97855500D01*
X181864865Y-97855500D01*
X181377899Y-97855500D01*
X181310860Y-97835815D01*
X181290218Y-97819181D01*
X180325563Y-96854526D01*
X180325562Y-96854525D01*
X180239938Y-96805090D01*
X180192186Y-96792295D01*
X180192184Y-96792294D01*
X180192182Y-96792293D01*
X180144436Y-96779500D01*
X180144435Y-96779500D01*
X153474436Y-96779500D01*
X153375564Y-96779500D01*
X153327812Y-96792295D01*
X153327811Y-96792294D01*
X153280063Y-96805089D01*
X153280062Y-96805089D01*
X153194435Y-96854527D01*
X152287975Y-97760986D01*
X152226652Y-97794471D01*
X152182651Y-97796043D01*
X152158008Y-97792500D01*
X152158000Y-97792500D01*
X144786000Y-97792500D01*
X144785991Y-97792500D01*
X144785990Y-97792501D01*
X144678549Y-97804052D01*
X144678537Y-97804054D01*
X144627027Y-97815260D01*
X144524502Y-97849383D01*
X144524496Y-97849386D01*
X144403462Y-97927171D01*
X144403451Y-97927179D01*
X144350659Y-97972923D01*
X144256433Y-98081664D01*
X144256430Y-98081668D01*
X144196664Y-98212534D01*
X144176976Y-98279582D01*
X144156500Y-98422001D01*
X144156500Y-98814500D01*
X144136815Y-98881539D01*
X144084011Y-98927294D01*
X144032500Y-98938500D01*
X138391899Y-98938500D01*
X138324860Y-98918815D01*
X138304218Y-98902181D01*
X126362319Y-86960282D01*
X126328834Y-86898959D01*
X126326000Y-86872601D01*
X126326000Y-86740428D01*
X126301002Y-86614761D01*
X126301001Y-86614760D01*
X126301001Y-86614756D01*
X126251965Y-86496373D01*
X126251964Y-86496372D01*
X126251961Y-86496366D01*
X126180776Y-86389831D01*
X126180773Y-86389827D01*
X126090172Y-86299226D01*
X126090168Y-86299223D01*
X125983633Y-86228038D01*
X125983624Y-86228033D01*
X125865244Y-86178999D01*
X125865238Y-86178997D01*
X125739571Y-86154000D01*
X125739569Y-86154000D01*
X125611431Y-86154000D01*
X125607399Y-86154000D01*
X125540360Y-86134315D01*
X125519718Y-86117681D01*
X119304109Y-79902072D01*
X119270624Y-79840749D01*
X119275608Y-79771057D01*
X119317480Y-79715124D01*
X119382944Y-79690707D01*
X119393806Y-79690612D01*
X119393806Y-79690500D01*
X119397126Y-79690499D01*
X119397127Y-79690500D01*
X120142872Y-79690499D01*
X120202483Y-79684091D01*
X120337331Y-79633796D01*
X120452546Y-79547546D01*
X120538796Y-79432331D01*
X120589091Y-79297483D01*
X120595500Y-79237873D01*
X120595500Y-79191500D01*
X120598050Y-79182814D01*
X120596762Y-79173853D01*
X120607740Y-79149812D01*
X120615185Y-79124461D01*
X120622025Y-79118533D01*
X120625787Y-79110297D01*
X120648021Y-79096007D01*
X120667989Y-79078706D01*
X120678503Y-79076418D01*
X120684565Y-79072523D01*
X120719500Y-79067500D01*
X120848236Y-79067500D01*
X120915275Y-79087185D01*
X120961030Y-79139989D01*
X120964418Y-79148167D01*
X121015202Y-79284328D01*
X121015206Y-79284335D01*
X121101452Y-79399544D01*
X121101455Y-79399547D01*
X121216664Y-79485793D01*
X121216671Y-79485797D01*
X121351517Y-79536091D01*
X121351516Y-79536091D01*
X121358444Y-79536835D01*
X121411127Y-79542500D01*
X122206872Y-79542499D01*
X122266483Y-79536091D01*
X122401331Y-79485796D01*
X122516546Y-79399546D01*
X122562502Y-79338156D01*
X122618434Y-79296287D01*
X122688125Y-79291303D01*
X122749448Y-79324788D01*
X122770665Y-79355089D01*
X122770851Y-79354975D01*
X122772819Y-79358166D01*
X122774151Y-79360068D01*
X122774642Y-79361121D01*
X122866684Y-79510345D01*
X122990654Y-79634315D01*
X123139875Y-79726356D01*
X123139880Y-79726358D01*
X123306302Y-79781505D01*
X123306309Y-79781506D01*
X123409019Y-79791999D01*
X123558999Y-79791999D01*
X124059000Y-79791999D01*
X124208972Y-79791999D01*
X124208986Y-79791998D01*
X124311697Y-79781505D01*
X124478119Y-79726358D01*
X124478124Y-79726356D01*
X124627345Y-79634315D01*
X124751315Y-79510345D01*
X124843356Y-79361124D01*
X124843358Y-79361119D01*
X124898505Y-79194697D01*
X124898506Y-79194690D01*
X124908999Y-79091986D01*
X124909000Y-79091973D01*
X124909000Y-78842000D01*
X124059000Y-78842000D01*
X124059000Y-79791999D01*
X123558999Y-79791999D01*
X123559000Y-79791998D01*
X123559000Y-78342000D01*
X124059000Y-78342000D01*
X124908999Y-78342000D01*
X124908999Y-78092028D01*
X124908998Y-78092013D01*
X124898505Y-77989302D01*
X124843358Y-77822880D01*
X124843356Y-77822875D01*
X124751315Y-77673654D01*
X124627345Y-77549684D01*
X124478124Y-77457643D01*
X124478119Y-77457641D01*
X124311697Y-77402494D01*
X124311690Y-77402493D01*
X124208986Y-77392000D01*
X124059000Y-77392000D01*
X124059000Y-78342000D01*
X123559000Y-78342000D01*
X123559000Y-77392000D01*
X123409027Y-77392000D01*
X123409012Y-77392001D01*
X123306302Y-77402494D01*
X123139880Y-77457641D01*
X123139875Y-77457643D01*
X122990654Y-77549684D01*
X122866684Y-77673654D01*
X122774637Y-77822885D01*
X122774148Y-77823936D01*
X122773620Y-77824535D01*
X122770851Y-77829025D01*
X122770083Y-77828551D01*
X122727975Y-77876375D01*
X122660782Y-77895526D01*
X122593901Y-77875309D01*
X122562501Y-77845841D01*
X122516547Y-77784455D01*
X122516544Y-77784452D01*
X122401335Y-77698206D01*
X122401328Y-77698202D01*
X122266482Y-77647908D01*
X122266483Y-77647908D01*
X122206883Y-77641501D01*
X122206881Y-77641500D01*
X122206873Y-77641500D01*
X122206864Y-77641500D01*
X121411129Y-77641500D01*
X121411123Y-77641501D01*
X121351516Y-77647908D01*
X121216671Y-77698202D01*
X121216664Y-77698206D01*
X121101455Y-77784452D01*
X121101452Y-77784455D01*
X121015206Y-77899664D01*
X121015202Y-77899671D01*
X120964418Y-78035833D01*
X120951148Y-78053559D01*
X120941949Y-78073703D01*
X120930618Y-78080984D01*
X120922547Y-78091767D01*
X120901798Y-78099505D01*
X120883171Y-78111477D01*
X120861254Y-78114628D01*
X120857083Y-78116184D01*
X120848236Y-78116500D01*
X120649954Y-78116500D01*
X120582915Y-78096815D01*
X120541124Y-78051931D01*
X120538795Y-78047667D01*
X120452547Y-77932455D01*
X120452544Y-77932452D01*
X120337335Y-77846206D01*
X120337328Y-77846202D01*
X120202486Y-77795910D01*
X120202485Y-77795909D01*
X120202483Y-77795909D01*
X120142873Y-77789500D01*
X120142863Y-77789500D01*
X119397129Y-77789500D01*
X119397123Y-77789501D01*
X119337516Y-77795908D01*
X119202671Y-77846202D01*
X119202664Y-77846206D01*
X119087455Y-77932452D01*
X119087452Y-77932455D01*
X119001206Y-78047664D01*
X119001202Y-78047671D01*
X118950908Y-78182517D01*
X118944501Y-78242116D01*
X118944501Y-78242123D01*
X118944500Y-78242135D01*
X118944501Y-79241193D01*
X118943355Y-79241193D01*
X118938596Y-79261281D01*
X118936790Y-79286543D01*
X118930679Y-79294705D01*
X118928330Y-79304625D01*
X118910095Y-79322201D01*
X118894918Y-79342476D01*
X118885366Y-79346038D01*
X118878025Y-79353115D01*
X118853180Y-79358043D01*
X118829454Y-79366893D01*
X118819492Y-79364726D01*
X118809491Y-79366710D01*
X118785926Y-79357424D01*
X118761181Y-79352041D01*
X118748860Y-79342817D01*
X118744486Y-79341094D01*
X118732927Y-79330890D01*
X118581818Y-79179781D01*
X118548333Y-79118458D01*
X118545499Y-79092100D01*
X118545499Y-78242129D01*
X118545498Y-78242123D01*
X118545497Y-78242116D01*
X118539091Y-78182517D01*
X118514468Y-78116500D01*
X118488797Y-78047671D01*
X118488793Y-78047664D01*
X118402547Y-77932455D01*
X118402544Y-77932452D01*
X118287335Y-77846206D01*
X118287328Y-77846202D01*
X118152486Y-77795910D01*
X118152485Y-77795909D01*
X118152483Y-77795909D01*
X118092873Y-77789500D01*
X118092863Y-77789500D01*
X117347129Y-77789500D01*
X117347123Y-77789501D01*
X117287516Y-77795908D01*
X117152671Y-77846202D01*
X117152668Y-77846204D01*
X117078912Y-77901418D01*
X117013447Y-77925835D01*
X116945174Y-77910983D01*
X116895769Y-77861578D01*
X116880917Y-77793305D01*
X116884155Y-77772676D01*
X116988207Y-77347563D01*
X116988457Y-77346564D01*
X117214118Y-76465955D01*
X117214389Y-76464921D01*
X117446831Y-75597490D01*
X117447113Y-75596462D01*
X117685496Y-74744807D01*
X117685812Y-74743701D01*
X117930870Y-73904687D01*
X117931161Y-73903712D01*
X118181917Y-73080190D01*
X118182258Y-73079094D01*
X118439502Y-72268013D01*
X118439849Y-72266940D01*
X118702525Y-71471167D01*
X118702981Y-71469814D01*
X118702989Y-71469791D01*
X118971966Y-70686245D01*
X118972405Y-70684991D01*
X119246621Y-69916360D01*
X119247121Y-69914985D01*
X119350625Y-69635640D01*
X119527548Y-69158145D01*
X119528007Y-69156929D01*
X119813434Y-68414765D01*
X119813929Y-68413504D01*
X120105515Y-67682653D01*
X120106000Y-67681459D01*
X120402249Y-66965306D01*
X120402742Y-66964137D01*
X120705055Y-66258959D01*
X120705686Y-66257515D01*
X120856288Y-65918396D01*
X121012356Y-65566969D01*
X121013003Y-65565538D01*
X121174550Y-65214235D01*
X121325654Y-64885639D01*
X121326255Y-64884353D01*
X121643142Y-64218604D01*
X121643764Y-64217320D01*
X121966632Y-63561775D01*
X121967252Y-63560536D01*
X122293969Y-62919240D01*
X122294633Y-62917958D01*
X122627268Y-62286579D01*
X122627964Y-62285281D01*
X122963072Y-61670027D01*
X122964340Y-61667757D01*
X123652836Y-60464632D01*
X123654579Y-60461684D01*
X123975719Y-59935986D01*
X163406001Y-59935986D01*
X163416494Y-60038697D01*
X163471641Y-60205119D01*
X163471643Y-60205124D01*
X163563684Y-60354345D01*
X163687654Y-60478315D01*
X163836875Y-60570356D01*
X163836880Y-60570358D01*
X164003302Y-60625505D01*
X164003309Y-60625506D01*
X164106019Y-60635999D01*
X164255999Y-60635999D01*
X164756000Y-60635999D01*
X164905972Y-60635999D01*
X164905986Y-60635998D01*
X165008697Y-60625505D01*
X165175119Y-60570358D01*
X165175124Y-60570356D01*
X165324345Y-60478315D01*
X165448315Y-60354345D01*
X165540354Y-60205126D01*
X165540842Y-60204081D01*
X165541368Y-60203482D01*
X165544149Y-60198975D01*
X165544918Y-60199449D01*
X165587007Y-60151635D01*
X165654198Y-60132473D01*
X165721082Y-60152679D01*
X165752498Y-60182157D01*
X165786476Y-60227546D01*
X165798455Y-60243547D01*
X165913664Y-60329793D01*
X165913671Y-60329797D01*
X166048517Y-60380091D01*
X166048516Y-60380091D01*
X166055444Y-60380835D01*
X166108127Y-60386500D01*
X166903872Y-60386499D01*
X166963483Y-60380091D01*
X167098331Y-60329796D01*
X167213546Y-60243546D01*
X167299796Y-60128331D01*
X167350091Y-59993483D01*
X167350090Y-59993483D01*
X167350582Y-59992167D01*
X167363851Y-59974440D01*
X167373051Y-59954297D01*
X167384381Y-59947015D01*
X167392453Y-59936233D01*
X167413201Y-59928494D01*
X167431829Y-59916523D01*
X167453745Y-59913371D01*
X167457917Y-59911816D01*
X167466764Y-59911500D01*
X167615204Y-59911500D01*
X167682243Y-59931185D01*
X167727998Y-59983989D01*
X167731386Y-59992167D01*
X167776202Y-60112328D01*
X167776206Y-60112335D01*
X167862452Y-60227544D01*
X167862455Y-60227547D01*
X167977664Y-60313793D01*
X167977671Y-60313797D01*
X167977674Y-60313798D01*
X168112517Y-60364091D01*
X168172127Y-60370500D01*
X168917872Y-60370499D01*
X168977483Y-60364091D01*
X169112331Y-60313796D01*
X169227546Y-60227546D01*
X169313796Y-60112331D01*
X169364091Y-59977483D01*
X169370500Y-59917873D01*
X169370499Y-58922135D01*
X169769500Y-58922135D01*
X169769500Y-59917870D01*
X169769501Y-59917876D01*
X169775908Y-59977483D01*
X169826202Y-60112328D01*
X169826206Y-60112335D01*
X169912452Y-60227544D01*
X169912455Y-60227547D01*
X170027664Y-60313793D01*
X170027673Y-60313798D01*
X170138832Y-60355257D01*
X170194766Y-60397127D01*
X170219184Y-60462592D01*
X170219500Y-60471439D01*
X170219500Y-68908435D01*
X170245090Y-69003938D01*
X170245091Y-69003939D01*
X170245091Y-69003940D01*
X170294526Y-69089563D01*
X176487181Y-75282218D01*
X176520666Y-75343541D01*
X176523500Y-75369899D01*
X176523500Y-75373931D01*
X176523500Y-75502069D01*
X176523500Y-75502071D01*
X176523499Y-75502071D01*
X176548497Y-75627738D01*
X176548499Y-75627744D01*
X176597533Y-75746124D01*
X176597538Y-75746133D01*
X176668723Y-75852668D01*
X176668726Y-75852672D01*
X176759327Y-75943273D01*
X176759331Y-75943276D01*
X176865866Y-76014461D01*
X176865872Y-76014464D01*
X176865873Y-76014465D01*
X176984256Y-76063501D01*
X176984260Y-76063501D01*
X176984261Y-76063502D01*
X177109928Y-76088500D01*
X177109931Y-76088500D01*
X177238071Y-76088500D01*
X177322615Y-76071682D01*
X177363744Y-76063501D01*
X177482127Y-76014465D01*
X177588669Y-75943276D01*
X177679276Y-75852669D01*
X177750465Y-75746127D01*
X177799501Y-75627744D01*
X177824500Y-75502069D01*
X177824500Y-75373931D01*
X177824500Y-75373928D01*
X177799502Y-75248261D01*
X177799501Y-75248260D01*
X177799501Y-75248256D01*
X177750465Y-75129873D01*
X177750464Y-75129872D01*
X177750461Y-75129866D01*
X177679276Y-75023331D01*
X177679273Y-75023327D01*
X177588672Y-74932726D01*
X177588668Y-74932723D01*
X177482133Y-74861538D01*
X177482124Y-74861533D01*
X177363744Y-74812499D01*
X177363738Y-74812497D01*
X177238071Y-74787500D01*
X177238069Y-74787500D01*
X177109931Y-74787500D01*
X177105899Y-74787500D01*
X177038860Y-74767815D01*
X177018218Y-74751181D01*
X171006819Y-68739782D01*
X170973334Y-68678459D01*
X170970500Y-68652101D01*
X170970500Y-60471439D01*
X170990185Y-60404400D01*
X171042989Y-60358645D01*
X171051168Y-60355257D01*
X171162326Y-60313798D01*
X171162326Y-60313797D01*
X171162331Y-60313796D01*
X171277546Y-60227546D01*
X171363796Y-60112331D01*
X171414091Y-59977483D01*
X171420500Y-59917873D01*
X171420499Y-58922128D01*
X171414091Y-58862517D01*
X171379885Y-58770807D01*
X171363797Y-58727671D01*
X171363793Y-58727664D01*
X171277547Y-58612455D01*
X171277544Y-58612452D01*
X171162335Y-58526206D01*
X171162328Y-58526202D01*
X171027486Y-58475910D01*
X171027485Y-58475909D01*
X171027483Y-58475909D01*
X170967873Y-58469500D01*
X170967863Y-58469500D01*
X170222129Y-58469500D01*
X170222123Y-58469501D01*
X170162516Y-58475908D01*
X170027671Y-58526202D01*
X170027664Y-58526206D01*
X169912455Y-58612452D01*
X169912452Y-58612455D01*
X169826206Y-58727664D01*
X169826202Y-58727671D01*
X169775908Y-58862517D01*
X169769645Y-58920781D01*
X169769501Y-58922123D01*
X169769500Y-58922135D01*
X169370499Y-58922135D01*
X169370499Y-58922128D01*
X169364091Y-58862517D01*
X169329885Y-58770807D01*
X169313797Y-58727671D01*
X169313793Y-58727664D01*
X169227547Y-58612455D01*
X169227544Y-58612452D01*
X169112335Y-58526206D01*
X169112328Y-58526202D01*
X168977486Y-58475910D01*
X168977485Y-58475909D01*
X168977483Y-58475909D01*
X168917873Y-58469500D01*
X168917863Y-58469500D01*
X168172129Y-58469500D01*
X168172123Y-58469501D01*
X168112516Y-58475908D01*
X167977671Y-58526202D01*
X167977664Y-58526206D01*
X167862455Y-58612452D01*
X167862452Y-58612455D01*
X167776206Y-58727664D01*
X167776202Y-58727671D01*
X167725910Y-58862511D01*
X167725320Y-58865012D01*
X167724329Y-58866752D01*
X167723198Y-58869785D01*
X167722706Y-58869601D01*
X167710660Y-58890757D01*
X167698355Y-58917703D01*
X167693565Y-58920781D01*
X167690748Y-58925729D01*
X167664499Y-58939460D01*
X167639577Y-58955477D01*
X167631724Y-58956606D01*
X167628838Y-58958116D01*
X167604642Y-58960500D01*
X167466764Y-58960500D01*
X167399725Y-58940815D01*
X167353970Y-58888011D01*
X167350582Y-58879833D01*
X167299797Y-58743671D01*
X167299793Y-58743664D01*
X167213547Y-58628455D01*
X167213544Y-58628452D01*
X167098335Y-58542206D01*
X167098328Y-58542202D01*
X166963482Y-58491908D01*
X166963483Y-58491908D01*
X166903883Y-58485501D01*
X166903881Y-58485500D01*
X166903873Y-58485500D01*
X166903864Y-58485500D01*
X166108129Y-58485500D01*
X166108123Y-58485501D01*
X166048516Y-58491908D01*
X165913671Y-58542202D01*
X165913664Y-58542206D01*
X165798455Y-58628452D01*
X165752498Y-58689842D01*
X165696563Y-58731713D01*
X165626872Y-58736696D01*
X165565549Y-58703210D01*
X165544335Y-58672909D01*
X165544149Y-58673025D01*
X165542170Y-58669816D01*
X165540845Y-58667924D01*
X165540356Y-58666877D01*
X165448315Y-58517654D01*
X165324345Y-58393684D01*
X165175124Y-58301643D01*
X165175119Y-58301641D01*
X165008697Y-58246494D01*
X165008690Y-58246493D01*
X164905986Y-58236000D01*
X164756000Y-58236000D01*
X164756000Y-60635999D01*
X164255999Y-60635999D01*
X164256000Y-60635998D01*
X164256000Y-59686000D01*
X163406001Y-59686000D01*
X163406001Y-59935986D01*
X123975719Y-59935986D01*
X124360191Y-59306614D01*
X124362113Y-59303569D01*
X124438737Y-59186000D01*
X124601662Y-58936013D01*
X163406000Y-58936013D01*
X163406000Y-59186000D01*
X164256000Y-59186000D01*
X164256000Y-58236000D01*
X164106027Y-58236000D01*
X164106012Y-58236001D01*
X164003302Y-58246494D01*
X163836880Y-58301641D01*
X163836875Y-58301643D01*
X163687654Y-58393684D01*
X163563684Y-58517654D01*
X163471643Y-58666875D01*
X163471641Y-58666880D01*
X163416494Y-58833302D01*
X163416493Y-58833309D01*
X163406000Y-58936013D01*
X124601662Y-58936013D01*
X125085356Y-58193846D01*
X125087382Y-58190837D01*
X125827777Y-57125578D01*
X125829927Y-57122582D01*
X126587029Y-56100932D01*
X126589276Y-56097996D01*
X127362608Y-55119222D01*
X127365029Y-55116256D01*
X128154017Y-54179799D01*
X128156561Y-54176875D01*
X128960926Y-53281889D01*
X128963627Y-53278981D01*
X129782777Y-52425025D01*
X129785640Y-52422139D01*
X130619180Y-51608619D01*
X130622106Y-51605857D01*
X131469579Y-50832285D01*
X131472691Y-50829539D01*
X132333542Y-50095558D01*
X132336733Y-50092930D01*
X133210420Y-49398202D01*
X133213775Y-49395627D01*
X134099668Y-48739904D01*
X134103084Y-48737467D01*
X135000405Y-48120620D01*
X135003971Y-48118260D01*
X135911850Y-47540217D01*
X135915497Y-47537985D01*
X136832837Y-46998794D01*
X136836668Y-46996635D01*
X137762119Y-46496446D01*
X137766071Y-46494402D01*
X138568524Y-46097485D01*
X138637341Y-46085407D01*
X138701765Y-46112452D01*
X138741339Y-46170033D01*
X138747500Y-46208632D01*
X138747500Y-47105870D01*
X138747501Y-47105876D01*
X138753908Y-47165483D01*
X138804202Y-47300328D01*
X138804206Y-47300335D01*
X138890452Y-47415544D01*
X138890455Y-47415547D01*
X139005664Y-47501793D01*
X139005671Y-47501797D01*
X139050618Y-47518561D01*
X139140517Y-47552091D01*
X139200127Y-47558500D01*
X139695100Y-47558499D01*
X139762139Y-47578183D01*
X139782781Y-47594818D01*
X142583525Y-50395562D01*
X142653438Y-50465475D01*
X142739062Y-50514910D01*
X142778541Y-50525489D01*
X142778542Y-50525489D01*
X142790380Y-50528661D01*
X142834564Y-50540500D01*
X142834565Y-50540500D01*
X153337192Y-50540500D01*
X153404231Y-50560185D01*
X153424873Y-50576819D01*
X153518327Y-50670273D01*
X153518331Y-50670276D01*
X153624866Y-50741461D01*
X153624872Y-50741464D01*
X153624873Y-50741465D01*
X153743256Y-50790501D01*
X153743260Y-50790501D01*
X153743261Y-50790502D01*
X153868928Y-50815500D01*
X153868931Y-50815500D01*
X153997071Y-50815500D01*
X154081615Y-50798682D01*
X154122744Y-50790501D01*
X154241127Y-50741465D01*
X154347669Y-50670276D01*
X154438276Y-50579669D01*
X154509465Y-50473127D01*
X154558501Y-50354744D01*
X154583500Y-50229069D01*
X154583500Y-50100931D01*
X154583500Y-50100928D01*
X154558502Y-49975261D01*
X154558501Y-49975260D01*
X154558501Y-49975256D01*
X154509465Y-49856873D01*
X154509464Y-49856872D01*
X154509461Y-49856866D01*
X154438276Y-49750331D01*
X154438273Y-49750327D01*
X154347672Y-49659726D01*
X154347668Y-49659723D01*
X154241133Y-49588538D01*
X154241124Y-49588533D01*
X154122744Y-49539499D01*
X154122738Y-49539497D01*
X153997071Y-49514500D01*
X153997069Y-49514500D01*
X153868931Y-49514500D01*
X153868929Y-49514500D01*
X153743261Y-49539497D01*
X153743255Y-49539499D01*
X153624875Y-49588533D01*
X153624866Y-49588538D01*
X153518331Y-49659723D01*
X153518327Y-49659726D01*
X153424873Y-49753181D01*
X153363550Y-49786666D01*
X153337192Y-49789500D01*
X143090899Y-49789500D01*
X143023860Y-49769815D01*
X143003218Y-49753181D01*
X142933335Y-49683298D01*
X142899850Y-49621975D01*
X142904834Y-49552283D01*
X142946706Y-49496350D01*
X143012170Y-49471933D01*
X143046981Y-49474366D01*
X143052305Y-49475506D01*
X143155019Y-49485999D01*
X143404999Y-49485999D01*
X143905000Y-49485999D01*
X144154972Y-49485999D01*
X144154986Y-49485998D01*
X144257697Y-49475505D01*
X144424119Y-49420358D01*
X144424124Y-49420356D01*
X144573345Y-49328315D01*
X144697315Y-49204345D01*
X144789356Y-49055124D01*
X144789358Y-49055119D01*
X144844505Y-48888697D01*
X144844506Y-48888690D01*
X144854999Y-48785986D01*
X144855000Y-48785973D01*
X144855000Y-48636000D01*
X143905000Y-48636000D01*
X143905000Y-49485999D01*
X143404999Y-49485999D01*
X143405000Y-49485998D01*
X143405000Y-48636000D01*
X142455001Y-48636000D01*
X142455001Y-48785986D01*
X142465494Y-48888698D01*
X142466636Y-48894034D01*
X142461415Y-48963709D01*
X142419355Y-49019500D01*
X142353808Y-49043695D01*
X142285586Y-49028612D01*
X142257700Y-49007663D01*
X140974160Y-47724123D01*
X140940675Y-47662800D01*
X140945659Y-47593108D01*
X140987531Y-47537175D01*
X141052995Y-47512758D01*
X141105173Y-47520259D01*
X141190517Y-47552091D01*
X141250127Y-47558500D01*
X141995872Y-47558499D01*
X142055483Y-47552091D01*
X142190331Y-47501796D01*
X142305546Y-47415546D01*
X142391796Y-47300331D01*
X142442091Y-47165483D01*
X142448500Y-47105873D01*
X142448500Y-46985500D01*
X142451050Y-46976814D01*
X142449762Y-46967853D01*
X142460740Y-46943812D01*
X142468185Y-46918461D01*
X142475025Y-46912533D01*
X142478787Y-46904297D01*
X142501021Y-46890007D01*
X142520989Y-46872706D01*
X142531503Y-46870418D01*
X142537565Y-46866523D01*
X142572500Y-46861500D01*
X142631533Y-46861500D01*
X142698572Y-46881185D01*
X142744327Y-46933989D01*
X142747715Y-46942166D01*
X142761203Y-46978330D01*
X142761206Y-46978335D01*
X142847452Y-47093544D01*
X142847455Y-47093547D01*
X142908841Y-47139501D01*
X142950712Y-47195435D01*
X142955696Y-47265126D01*
X142922210Y-47326449D01*
X142891910Y-47347664D01*
X142892025Y-47347851D01*
X142888831Y-47349820D01*
X142886936Y-47351148D01*
X142885885Y-47351637D01*
X142736654Y-47443684D01*
X142612684Y-47567654D01*
X142520643Y-47716875D01*
X142520641Y-47716880D01*
X142465494Y-47883302D01*
X142465493Y-47883309D01*
X142455000Y-47986013D01*
X142455000Y-48136000D01*
X144854999Y-48136000D01*
X144854999Y-47986028D01*
X144854998Y-47986013D01*
X144844505Y-47883302D01*
X144789358Y-47716880D01*
X144789356Y-47716875D01*
X144697315Y-47567654D01*
X144573345Y-47443684D01*
X144424121Y-47351642D01*
X144423068Y-47351151D01*
X144422466Y-47350621D01*
X144417975Y-47347851D01*
X144418448Y-47347083D01*
X144370627Y-47304981D01*
X144351473Y-47237788D01*
X144371686Y-47170906D01*
X144401154Y-47139503D01*
X144462546Y-47093546D01*
X144548796Y-46978331D01*
X144599091Y-46843483D01*
X144605500Y-46783873D01*
X144605499Y-45988128D01*
X144599091Y-45928517D01*
X144594297Y-45915664D01*
X144548797Y-45793671D01*
X144548793Y-45793664D01*
X144462547Y-45678455D01*
X144462544Y-45678452D01*
X144347335Y-45592206D01*
X144347328Y-45592202D01*
X144212482Y-45541908D01*
X144212483Y-45541908D01*
X144152883Y-45535501D01*
X144152881Y-45535500D01*
X144152873Y-45535500D01*
X144152864Y-45535500D01*
X143157129Y-45535500D01*
X143157123Y-45535501D01*
X143097516Y-45541908D01*
X142962671Y-45592202D01*
X142962664Y-45592206D01*
X142847455Y-45678452D01*
X142847452Y-45678455D01*
X142761206Y-45793664D01*
X142761203Y-45793669D01*
X142747715Y-45829834D01*
X142734444Y-45847560D01*
X142725246Y-45867703D01*
X142713914Y-45874985D01*
X142705843Y-45885767D01*
X142685097Y-45893504D01*
X142666468Y-45905477D01*
X142644549Y-45908628D01*
X142640379Y-45910184D01*
X142631533Y-45910500D01*
X142449996Y-45910500D01*
X142382957Y-45890815D01*
X142350730Y-45860811D01*
X142305548Y-45800457D01*
X142305546Y-45800454D01*
X142190331Y-45714204D01*
X142190329Y-45714203D01*
X142190328Y-45714202D01*
X142055486Y-45663910D01*
X142055485Y-45663909D01*
X142055483Y-45663909D01*
X141995873Y-45657500D01*
X141995863Y-45657500D01*
X141250129Y-45657500D01*
X141250123Y-45657501D01*
X141190516Y-45663908D01*
X141055671Y-45714202D01*
X141055664Y-45714206D01*
X140940455Y-45800452D01*
X140940452Y-45800455D01*
X140854206Y-45915664D01*
X140854202Y-45915671D01*
X140803908Y-46050517D01*
X140799196Y-46094352D01*
X140797501Y-46110123D01*
X140797500Y-46110135D01*
X140797500Y-47105870D01*
X140797501Y-47105876D01*
X140803908Y-47165483D01*
X140835739Y-47250825D01*
X140840723Y-47320517D01*
X140807238Y-47381840D01*
X140745914Y-47415324D01*
X140676223Y-47410339D01*
X140631876Y-47381839D01*
X140434818Y-47184781D01*
X140401333Y-47123458D01*
X140398499Y-47097109D01*
X140398499Y-46110128D01*
X140392091Y-46050517D01*
X140385340Y-46032417D01*
X140341797Y-45915671D01*
X140341793Y-45915664D01*
X140255547Y-45800455D01*
X140255544Y-45800452D01*
X140140335Y-45714206D01*
X140140330Y-45714203D01*
X140043077Y-45677930D01*
X139987144Y-45636058D01*
X139962727Y-45570594D01*
X139977579Y-45502321D01*
X140026984Y-45452916D01*
X140039695Y-45446885D01*
X140581055Y-45226799D01*
X140585219Y-45225195D01*
X141521917Y-44884289D01*
X141526270Y-44882797D01*
X142456597Y-44583190D01*
X142461035Y-44581853D01*
X143378719Y-44324337D01*
X143383323Y-44323139D01*
X144279442Y-44108622D01*
X144284182Y-44107586D01*
X145145364Y-43937087D01*
X145150327Y-43936209D01*
X145800398Y-43834859D01*
X145869670Y-43843982D01*
X145923013Y-43889107D01*
X145943491Y-43955908D01*
X145943500Y-43957379D01*
X145943500Y-45501870D01*
X145943501Y-45501876D01*
X145949908Y-45561483D01*
X146000202Y-45696328D01*
X146000206Y-45696335D01*
X146086452Y-45811544D01*
X146086455Y-45811547D01*
X146201664Y-45897793D01*
X146201671Y-45897797D01*
X146230711Y-45908628D01*
X146336517Y-45948091D01*
X146396127Y-45954500D01*
X146991872Y-45954499D01*
X147051483Y-45948091D01*
X147186331Y-45897796D01*
X147301546Y-45811546D01*
X147387796Y-45696331D01*
X147438091Y-45561483D01*
X147444500Y-45501873D01*
X147444499Y-43906128D01*
X147438091Y-43846517D01*
X147438090Y-43846516D01*
X147438090Y-43846509D01*
X147437264Y-43843012D01*
X147437413Y-43840217D01*
X147437262Y-43838804D01*
X147437491Y-43838779D01*
X147441006Y-43773243D01*
X147481874Y-43716572D01*
X147546893Y-43690993D01*
X147557941Y-43690500D01*
X148878060Y-43690500D01*
X148945099Y-43710185D01*
G37*
G04 #@! TD.AperFunction*
G04 #@! TD*
G04 #@! TA.AperFunction,Conductor*
G04 #@! TO.N,/LED_Power_1*
G36*
X152225039Y-98317685D02*
G01*
X152270794Y-98370489D01*
X152282000Y-98422000D01*
X152282000Y-100206000D01*
X152262315Y-100273039D01*
X152209511Y-100318794D01*
X152158000Y-100330000D01*
X144786000Y-100330000D01*
X144718961Y-100310315D01*
X144673206Y-100257511D01*
X144662000Y-100206000D01*
X144662000Y-98422000D01*
X144681685Y-98354961D01*
X144734489Y-98309206D01*
X144786000Y-98298000D01*
X152158000Y-98298000D01*
X152225039Y-98317685D01*
G37*
G04 #@! TD.AperFunction*
G04 #@! TD*
G04 #@! TA.AperFunction,Conductor*
G04 #@! TO.N,/LED_Power_3*
G36*
X152225039Y-104921685D02*
G01*
X152270794Y-104974489D01*
X152282000Y-105026000D01*
X152282000Y-106810000D01*
X152262315Y-106877039D01*
X152209511Y-106922794D01*
X152158000Y-106934000D01*
X144786000Y-106934000D01*
X144718961Y-106914315D01*
X144673206Y-106861511D01*
X144662000Y-106810000D01*
X144662000Y-105026000D01*
X144681685Y-104958961D01*
X144734489Y-104913206D01*
X144786000Y-104902000D01*
X152158000Y-104902000D01*
X152225039Y-104921685D01*
G37*
G04 #@! TD.AperFunction*
G04 #@! TD*
G04 #@! TA.AperFunction,Conductor*
G04 #@! TO.N,/LED_Power_2*
G36*
X152225039Y-101619685D02*
G01*
X152270794Y-101672489D01*
X152282000Y-101724000D01*
X152282000Y-103508000D01*
X152262315Y-103575039D01*
X152209511Y-103620794D01*
X152158000Y-103632000D01*
X144786000Y-103632000D01*
X144718961Y-103612315D01*
X144673206Y-103559511D01*
X144662000Y-103508000D01*
X144662000Y-101724000D01*
X144681685Y-101656961D01*
X144734489Y-101611206D01*
X144786000Y-101600000D01*
X152158000Y-101600000D01*
X152225039Y-101619685D01*
G37*
G04 #@! TD.AperFunction*
G04 #@! TD*
M02*
