M48
; DRILL file {KiCad 9.0.0} date 2026-03-16T00:04:51+0100
; FORMAT={-:-/ absolute / metric / decimal}
; #@! TF.CreationDate,2026-03-16T00:04:51+01:00
; #@! TF.GenerationSoftware,Kicad,Pcbnew,9.0.0
; #@! TF.FileFunction,Plated,1,2,PTH
FMAT,2
METRIC
; #@! TA.AperFunction,Plated,PTH,ViaDrill
T1C0.400
%
G90
G05
T1
X123.326Y-99.06
X123.961Y-118.364
X125.675Y-86.804
X127.009Y-78.613
X129.676Y-104.648
X131.835Y-61.087
X136.407Y-137.668
X141.995Y-106.553
X142.249Y-102.235
X145.424Y-48.387
X145.424Y-98.806
X145.424Y-99.822
X145.424Y-102.108
X145.424Y-103.124
X145.424Y-105.41
X145.424Y-106.426
X145.424Y-108.458
X145.424Y-109.474
X145.805Y-96.139
X146.694Y-44.704
X146.948Y-98.806
X146.948Y-99.822
X146.948Y-102.108
X146.948Y-103.124
X146.948Y-105.41
X146.948Y-106.426
X146.948Y-108.458
X146.948Y-109.474
X149.742Y-44.704
X149.996Y-98.806
X149.996Y-99.822
X149.996Y-102.108
X149.996Y-103.124
X149.996Y-105.41
X149.996Y-106.426
X149.996Y-108.458
X149.996Y-109.474
X150.504Y-96.139
X150.631Y-48.387
X151.52Y-98.806
X151.52Y-99.822
X151.52Y-102.108
X151.52Y-103.124
X151.52Y-105.41
X151.52Y-106.426
X151.52Y-108.458
X151.52Y-109.474
X153.933Y-50.165
X153.933Y-99.187
X155.838Y-98.806
X155.838Y-104.775
X156.028Y-108.013
X159.394Y-138.43
X162.95Y-58.674
X170.443Y-78.867
X172.729Y-118.999
X173.618Y-98.806
X177.174Y-75.438
M30
