G04 #@! TF.GenerationSoftware,KiCad,Pcbnew,9.0.0*
G04 #@! TF.CreationDate,2026-03-16T00:04:51+01:00*
G04 #@! TF.ProjectId,manufacturing_slave,6d616e75-6661-4637-9475-72696e675f73,rev?*
G04 #@! TF.SameCoordinates,Original*
G04 #@! TF.FileFunction,Legend,Top*
G04 #@! TF.FilePolarity,Positive*
%FSLAX46Y46*%
G04 Gerber Fmt 4.6, Leading zero omitted, Abs format (unit mm)*
G04 Created by KiCad (PCBNEW 9.0.0) date 2026-03-16 00:04:51*
%MOMM*%
%LPD*%
G01*
G04 APERTURE LIST*
G04 Aperture macros list*
%AMRoundRect*
0 Rectangle with rounded corners*
0 $1 Rounding radius*
0 $2 $3 $4 $5 $6 $7 $8 $9 X,Y pos of 4 corners*
0 Add a 4 corners polygon primitive as box body*
4,1,4,$2,$3,$4,$5,$6,$7,$8,$9,$2,$3,0*
0 Add four circle primitives for the rounded corners*
1,1,$1+$1,$2,$3*
1,1,$1+$1,$4,$5*
1,1,$1+$1,$6,$7*
1,1,$1+$1,$8,$9*
0 Add four rect primitives between the rounded corners*
20,1,$1+$1,$2,$3,$4,$5,0*
20,1,$1+$1,$4,$5,$6,$7,0*
20,1,$1+$1,$6,$7,$8,$9,0*
20,1,$1+$1,$8,$9,$2,$3,0*%
G04 Aperture macros list end*
%ADD10C,1.000000*%
%ADD11C,0.500000*%
%ADD12C,0.150000*%
%ADD13C,0.120000*%
%ADD14RoundRect,0.250000X0.325000X0.450000X-0.325000X0.450000X-0.325000X-0.450000X0.325000X-0.450000X0*%
%ADD15RoundRect,0.250000X-0.250000X-0.750000X0.250000X-0.750000X0.250000X0.750000X-0.250000X0.750000X0*%
%ADD16RoundRect,0.250000X-0.350000X-0.450000X0.350000X-0.450000X0.350000X0.450000X-0.350000X0.450000X0*%
%ADD17RoundRect,0.250000X-0.450000X0.350000X-0.450000X-0.350000X0.450000X-0.350000X0.450000X0.350000X0*%
%ADD18R,3.000000X2.000000*%
%ADD19RoundRect,0.250000X0.350000X0.450000X-0.350000X0.450000X-0.350000X-0.450000X0.350000X-0.450000X0*%
%ADD20RoundRect,0.250000X-0.325000X-0.450000X0.325000X-0.450000X0.325000X0.450000X-0.325000X0.450000X0*%
G04 APERTURE END LIST*
D10*
X142446000Y-82190000D02*
X146446000Y-86190000D01*
X113246000Y-107190000D02*
X113244810Y-107229707D01*
X113243640Y-107269384D01*
X113242491Y-107309030D01*
X113241364Y-107348646D01*
X113240257Y-107388231D01*
X113239171Y-107427787D01*
X113238105Y-107467310D01*
X113237061Y-107506805D01*
X113236038Y-107546268D01*
X113235035Y-107585702D01*
X113234053Y-107625104D01*
X113233091Y-107664477D01*
X113232151Y-107703818D01*
X113231231Y-107743130D01*
X113230332Y-107782411D01*
X113229454Y-107821663D01*
X113228596Y-107860883D01*
X113227759Y-107900074D01*
X113226943Y-107939233D01*
X113226147Y-107978364D01*
X113225372Y-108017463D01*
X113224617Y-108056534D01*
X113223883Y-108095572D01*
X113223170Y-108134582D01*
X113222477Y-108173561D01*
X113221804Y-108212511D01*
X113221153Y-108251429D01*
X113220521Y-108290318D01*
X113219910Y-108329176D01*
X113219320Y-108368006D01*
X113218750Y-108406804D01*
X113218201Y-108445573D01*
X113217672Y-108484311D01*
X113217163Y-108523021D01*
X113216675Y-108561699D01*
X113216207Y-108600348D01*
X113215759Y-108638966D01*
X113215332Y-108677556D01*
X113214925Y-108716114D01*
X113214539Y-108754644D01*
X113214172Y-108793143D01*
X113213826Y-108831613D01*
X113213501Y-108870052D01*
X113213195Y-108908463D01*
X113212910Y-108946842D01*
X113212645Y-108985193D01*
X113212400Y-109023513D01*
X113212175Y-109061805D01*
X113211971Y-109100065D01*
X113211787Y-109138297D01*
X113211622Y-109176498D01*
X113211478Y-109214671D01*
X113211354Y-109252813D01*
X113211250Y-109290927D01*
X113211167Y-109329009D01*
X113211103Y-109367064D01*
X113211059Y-109405087D01*
X113211036Y-109443082D01*
X113211032Y-109481047D01*
X113211048Y-109518983D01*
X113211085Y-109556888D01*
X113211141Y-109594765D01*
X113211217Y-109632612D01*
X113211313Y-109670430D01*
X113211429Y-109708217D01*
X113211565Y-109745977D01*
X113211721Y-109783705D01*
X113211897Y-109821406D01*
X113212093Y-109859076D01*
X113212308Y-109896718D01*
X113212543Y-109934329D01*
X113212798Y-109971912D01*
X113213073Y-110009465D01*
X113213368Y-110046990D01*
X113213682Y-110084484D01*
X113214016Y-110121950D01*
X113214370Y-110159386D01*
X113214744Y-110196794D01*
X113215137Y-110234171D01*
X113215550Y-110271521D01*
X113215983Y-110308840D01*
X113216435Y-110346131D01*
X113216907Y-110383392D01*
X113217399Y-110420625D01*
X113217910Y-110457827D01*
X113218441Y-110495002D01*
X113218991Y-110532147D01*
X113219561Y-110569263D01*
X113220151Y-110606350D01*
X113220760Y-110643409D01*
X113221389Y-110680437D01*
X113222037Y-110717438D01*
X113222704Y-110754409D01*
X113223391Y-110791352D01*
X113224098Y-110828264D01*
X113224824Y-110865150D01*
X113225569Y-110902005D01*
X113226334Y-110938832D01*
X113227118Y-110975630D01*
X113227922Y-111012399D01*
X113228745Y-111049139D01*
X113229587Y-111085851D01*
X113230448Y-111122534D01*
X113231329Y-111159188D01*
X113232230Y-111195813D01*
X113233149Y-111232410D01*
X113234088Y-111268978D01*
X113235046Y-111305517D01*
X113236023Y-111342028D01*
X113237020Y-111378510D01*
X113238036Y-111414963D01*
X113239071Y-111451388D01*
X113240125Y-111487784D01*
X113241198Y-111524152D01*
X113242291Y-111560491D01*
X113243403Y-111596801D01*
X113244533Y-111633083D01*
X113245683Y-111669337D01*
X113246852Y-111705561D01*
X113248040Y-111741758D01*
X113249248Y-111777926D01*
X113250474Y-111814066D01*
X113251719Y-111850177D01*
X113252983Y-111886260D01*
X113254267Y-111922314D01*
X113255569Y-111958341D01*
X113256890Y-111994338D01*
X113258231Y-112030308D01*
X113259590Y-112066249D01*
X113260968Y-112102162D01*
X113262365Y-112138046D01*
X113263781Y-112173903D01*
X113265216Y-112209730D01*
X113266670Y-112245531D01*
X113268142Y-112281302D01*
X113269634Y-112317046D01*
X113271144Y-112352760D01*
X113272673Y-112388448D01*
X113274221Y-112424107D01*
X113275788Y-112459738D01*
X113277373Y-112495340D01*
X113278977Y-112530915D01*
X113280600Y-112566461D01*
X113282242Y-112601980D01*
X113283903Y-112637470D01*
X113285582Y-112672933D01*
X113287280Y-112708367D01*
X113288996Y-112743774D01*
X113290731Y-112779152D01*
X113292485Y-112814503D01*
X113294258Y-112849825D01*
X113296049Y-112885121D01*
X113297858Y-112920387D01*
X113299687Y-112955626D01*
X113301533Y-112990837D01*
X113303399Y-113026021D01*
X113305283Y-113061176D01*
X113307185Y-113096304D01*
X113309106Y-113131403D01*
X113311046Y-113166475D01*
X113313004Y-113201519D01*
X113314980Y-113236536D01*
X113316975Y-113271525D01*
X113318989Y-113306486D01*
X113321020Y-113341419D01*
X113323071Y-113376325D01*
X113325139Y-113411203D01*
X113327226Y-113446054D01*
X113329332Y-113480876D01*
X113331455Y-113515672D01*
X113333597Y-113550439D01*
X113335758Y-113585180D01*
X113337937Y-113619892D01*
X113340134Y-113654577D01*
X113342349Y-113689234D01*
X113344583Y-113723864D01*
X113346834Y-113758467D01*
X113349105Y-113793042D01*
X113351393Y-113827589D01*
X113353699Y-113862109D01*
X113356024Y-113896602D01*
X113358367Y-113931067D01*
X113360728Y-113965505D01*
X113363108Y-113999916D01*
X113365505Y-114034299D01*
X113367921Y-114068655D01*
X113370354Y-114102983D01*
X113372806Y-114137285D01*
X113375276Y-114171558D01*
X113377764Y-114205805D01*
X113380270Y-114240025D01*
X113382794Y-114274217D01*
X113385337Y-114308382D01*
X113387897Y-114342520D01*
X113390475Y-114376630D01*
X113393071Y-114410714D01*
X113395685Y-114444770D01*
X113398318Y-114478799D01*
X113400968Y-114512801D01*
X113403636Y-114546777D01*
X113406322Y-114580724D01*
X113409026Y-114614645D01*
X113411747Y-114648539D01*
X113414487Y-114682406D01*
X113417245Y-114716245D01*
X113420020Y-114750058D01*
X113422813Y-114783844D01*
X113425624Y-114817603D01*
X113428453Y-114851335D01*
X113431300Y-114885040D01*
X113434164Y-114918718D01*
X113437047Y-114952369D01*
X113439947Y-114985993D01*
X113442865Y-115019591D01*
X113445800Y-115053161D01*
X113448753Y-115086705D01*
X113451724Y-115120222D01*
X113454713Y-115153712D01*
X113457719Y-115187176D01*
X113460743Y-115220613D01*
X113463785Y-115254022D01*
X113466844Y-115287406D01*
X113469921Y-115320762D01*
X113473016Y-115354092D01*
X113476128Y-115387395D01*
X113479258Y-115420672D01*
X113482405Y-115453921D01*
X113485570Y-115487145D01*
X113488752Y-115520341D01*
X113491952Y-115553511D01*
X113495170Y-115586655D01*
X113498405Y-115619772D01*
X113501657Y-115652862D01*
X113504927Y-115685926D01*
X113508215Y-115718963D01*
X113511520Y-115751974D01*
X113514842Y-115784958D01*
X113518182Y-115817916D01*
X113521539Y-115850848D01*
X113524914Y-115883753D01*
X113528306Y-115916631D01*
X113531715Y-115949484D01*
X113535142Y-115982309D01*
X113538586Y-116015109D01*
X113542047Y-116047882D01*
X113545526Y-116080629D01*
X113549022Y-116113350D01*
X113552535Y-116146044D01*
X113556066Y-116178712D01*
X113559614Y-116211354D01*
X113563179Y-116243969D01*
X113566761Y-116276559D01*
X113570361Y-116309122D01*
X113573978Y-116341659D01*
X113577612Y-116374169D01*
X113581263Y-116406654D01*
X113584932Y-116439112D01*
X113588617Y-116471545D01*
X113592320Y-116503951D01*
X113596040Y-116536331D01*
X113599777Y-116568685D01*
X113603531Y-116601013D01*
X113607302Y-116633315D01*
X113611091Y-116665591D01*
X113614896Y-116697841D01*
X113618719Y-116730065D01*
X113622558Y-116762263D01*
X113626415Y-116794435D01*
X113630288Y-116826581D01*
X113634179Y-116858701D01*
X113638087Y-116890796D01*
X113642011Y-116922864D01*
X113645953Y-116954907D01*
X113649911Y-116986923D01*
X113653887Y-117018914D01*
X113657879Y-117050879D01*
X113661889Y-117082818D01*
X113665915Y-117114732D01*
X113669958Y-117146619D01*
X113674018Y-117178481D01*
X113678095Y-117210317D01*
X113682189Y-117242127D01*
X113686300Y-117273912D01*
X113690427Y-117305671D01*
X113694571Y-117337405D01*
X113698733Y-117369112D01*
X113702911Y-117400794D01*
X113707105Y-117432451D01*
X113711317Y-117464081D01*
X113715545Y-117495687D01*
X113719790Y-117527266D01*
X113724052Y-117558820D01*
X113728330Y-117590349D01*
X113732625Y-117621852D01*
X113736937Y-117653329D01*
X113741266Y-117684781D01*
X113745611Y-117716208D01*
X113749973Y-117747609D01*
X113754351Y-117778984D01*
X113758746Y-117810334D01*
X113763158Y-117841659D01*
X113767587Y-117872958D01*
X113772032Y-117904233D01*
X113776493Y-117935481D01*
X113780971Y-117966704D01*
X113785466Y-117997902D01*
X113789978Y-118029075D01*
X113794505Y-118060222D01*
X113799050Y-118091344D01*
X113803611Y-118122441D01*
X113808188Y-118153513D01*
X113812782Y-118184559D01*
X113817392Y-118215580D01*
X113822019Y-118246576D01*
X113826662Y-118277546D01*
X113831322Y-118308492D01*
X113835998Y-118339412D01*
X113840691Y-118370307D01*
X113845400Y-118401178D01*
X113850125Y-118432023D01*
X113854867Y-118462843D01*
X113859625Y-118493637D01*
X113864399Y-118524407D01*
X113869190Y-118555152D01*
X113873997Y-118585872D01*
X113878821Y-118616566D01*
X113883661Y-118647236D01*
X113888517Y-118677881D01*
X113893389Y-118708501D01*
X113898278Y-118739095D01*
X113903183Y-118769665D01*
X113908104Y-118800210D01*
X113913041Y-118830731D01*
X113917995Y-118861226D01*
X113922965Y-118891696D01*
X113927951Y-118922142D01*
X113932953Y-118952562D01*
X113937971Y-118982958D01*
X113943006Y-119013329D01*
X113948057Y-119043675D01*
X113953124Y-119073997D01*
X113958207Y-119104294D01*
X113963306Y-119134566D01*
X113968421Y-119164813D01*
X113973552Y-119195036D01*
X113978700Y-119225234D01*
X113983863Y-119255407D01*
X113989043Y-119285556D01*
X113994238Y-119315680D01*
X113999450Y-119345779D01*
X114004678Y-119375854D01*
X114009922Y-119405904D01*
X114015181Y-119435930D01*
X114020457Y-119465931D01*
X114025749Y-119495907D01*
X114031056Y-119525859D01*
X114036380Y-119555787D01*
X114041720Y-119585690D01*
X114047075Y-119615568D01*
X114052447Y-119645422D01*
X114057834Y-119675252D01*
X114063237Y-119705057D01*
X114068656Y-119734838D01*
X114074091Y-119764594D01*
X114079542Y-119794326D01*
X114085009Y-119824034D01*
X114090492Y-119853717D01*
X114095990Y-119883376D01*
X114101505Y-119913011D01*
X114107035Y-119942621D01*
X114112581Y-119972207D01*
X114118142Y-120001768D01*
X114123720Y-120031306D01*
X114129313Y-120060819D01*
X114134922Y-120090309D01*
X114140547Y-120119773D01*
X114146187Y-120149214D01*
X114151843Y-120178630D01*
X114157515Y-120208023D01*
X114163203Y-120237390D01*
X114168906Y-120266735D01*
X114174625Y-120296054D01*
X114180360Y-120325351D01*
X114186110Y-120354622D01*
X114191876Y-120383870D01*
X114197658Y-120413093D01*
X114203455Y-120442293D01*
X114209268Y-120471468D01*
X114215096Y-120500620D01*
X114220940Y-120529747D01*
X114226800Y-120558851D01*
X114232675Y-120587931D01*
X114238566Y-120616987D01*
X114244472Y-120646018D01*
X114250394Y-120675026D01*
X114256331Y-120704010D01*
X114262284Y-120732970D01*
X114268252Y-120761906D01*
X114274236Y-120790819D01*
X114280236Y-120819707D01*
X114286250Y-120848572D01*
X114292281Y-120877413D01*
X114298326Y-120906230D01*
X114304388Y-120935023D01*
X114310464Y-120963793D01*
X114316556Y-120992539D01*
X114322664Y-121021261D01*
X114328786Y-121049959D01*
X114334925Y-121078634D01*
X114341078Y-121107285D01*
X114347247Y-121135913D01*
X114353431Y-121164516D01*
X114359631Y-121193097D01*
X114365846Y-121221653D01*
X114372077Y-121250186D01*
X114378322Y-121278695D01*
X114384583Y-121307181D01*
X114390859Y-121335643D01*
X114397151Y-121364082D01*
X114403458Y-121392497D01*
X114409780Y-121420889D01*
X114416117Y-121449257D01*
X114422470Y-121477602D01*
X114428837Y-121505923D01*
X114435220Y-121534221D01*
X114441618Y-121562495D01*
X114448032Y-121590747D01*
X114454460Y-121618974D01*
X114460904Y-121647178D01*
X114467363Y-121675359D01*
X114473837Y-121703517D01*
X114480326Y-121731650D01*
X114486831Y-121759761D01*
X114493350Y-121787848D01*
X114499885Y-121815913D01*
X114506435Y-121843954D01*
X114512999Y-121871972D01*
X114519579Y-121899966D01*
X114526174Y-121927937D01*
X114532784Y-121955885D01*
X114539410Y-121983810D01*
X114546050Y-122011711D01*
X114552705Y-122039590D01*
X114559375Y-122067445D01*
X114566060Y-122095278D01*
X114572760Y-122123086D01*
X114579476Y-122150873D01*
X114586206Y-122178635D01*
X114592951Y-122206375D01*
X114599711Y-122234091D01*
X114606487Y-122261786D01*
X114613276Y-122289456D01*
X114620082Y-122317104D01*
X114626901Y-122344728D01*
X114633736Y-122372330D01*
X114640586Y-122399908D01*
X114647451Y-122427464D01*
X114654330Y-122454997D01*
X114661225Y-122482507D01*
X114668134Y-122509993D01*
X114675058Y-122537458D01*
X114681997Y-122564898D01*
X114688951Y-122592317D01*
X114695920Y-122619712D01*
X114702903Y-122647085D01*
X114709901Y-122674434D01*
X114716915Y-122701762D01*
X114723942Y-122729066D01*
X114730985Y-122756348D01*
X114738043Y-122783606D01*
X114745115Y-122810842D01*
X114752202Y-122838055D01*
X114759304Y-122865246D01*
X114766420Y-122892413D01*
X114773551Y-122919559D01*
X114780697Y-122946680D01*
X114787858Y-122973781D01*
X114795033Y-123000857D01*
X114802223Y-123027912D01*
X114809427Y-123054944D01*
X114816647Y-123081954D01*
X114823881Y-123108940D01*
X114831129Y-123135904D01*
X114838392Y-123162845D01*
X114845670Y-123189765D01*
X114852963Y-123216661D01*
X114860270Y-123243536D01*
X114867592Y-123270386D01*
X114874928Y-123297216D01*
X114882279Y-123324022D01*
X114889644Y-123350807D01*
X114897024Y-123377568D01*
X114904419Y-123404308D01*
X114911828Y-123431024D01*
X114919252Y-123457719D01*
X114926690Y-123484391D01*
X114934143Y-123511041D01*
X114941610Y-123537668D01*
X114949092Y-123564274D01*
X114956588Y-123590856D01*
X114964099Y-123617417D01*
X114971624Y-123643955D01*
X114979164Y-123670471D01*
X114986717Y-123696964D01*
X114994286Y-123723436D01*
X115001869Y-123749885D01*
X115009467Y-123776313D01*
X115017078Y-123802717D01*
X115024705Y-123829100D01*
X115032345Y-123855460D01*
X115040000Y-123881799D01*
X115047670Y-123908114D01*
X115055354Y-123934409D01*
X115063052Y-123960680D01*
X115070764Y-123986931D01*
X115078491Y-124013158D01*
X115086232Y-124039365D01*
X115093988Y-124065547D01*
X115101758Y-124091710D01*
X115109542Y-124117849D01*
X115117341Y-124143967D01*
X115125153Y-124170062D01*
X115132980Y-124196136D01*
X115140821Y-124222187D01*
X115148677Y-124248218D01*
X115156547Y-124274225D01*
X115164431Y-124300211D01*
X115172330Y-124326175D01*
X115180242Y-124352117D01*
X115188169Y-124378037D01*
X115196110Y-124403936D01*
X115204065Y-124429812D01*
X115212035Y-124455667D01*
X115220019Y-124481499D01*
X115228017Y-124507311D01*
X115236028Y-124533099D01*
X115244055Y-124558868D01*
X115252095Y-124584613D01*
X115260150Y-124610337D01*
X115268218Y-124636039D01*
X115276301Y-124661720D01*
X115284398Y-124687378D01*
X115292509Y-124713016D01*
X115300634Y-124738631D01*
X115308774Y-124764225D01*
X115316927Y-124789797D01*
X115325095Y-124815348D01*
X115333276Y-124840876D01*
X115341472Y-124866384D01*
X115349681Y-124891869D01*
X115357905Y-124917334D01*
X115366142Y-124942776D01*
X115374395Y-124968198D01*
X115382660Y-124993596D01*
X115390940Y-125018975D01*
X115399234Y-125044331D01*
X115407542Y-125069667D01*
X115415863Y-125094979D01*
X115424200Y-125120272D01*
X115432549Y-125145542D01*
X115440913Y-125170792D01*
X115449291Y-125196019D01*
X115457683Y-125221226D01*
X115466088Y-125246410D01*
X115474508Y-125271575D01*
X115482941Y-125296716D01*
X115491389Y-125321838D01*
X115499850Y-125346936D01*
X115508326Y-125372015D01*
X115516814Y-125397071D01*
X115525318Y-125422108D01*
X115533834Y-125447121D01*
X115542366Y-125472115D01*
X115550910Y-125497086D01*
X115559469Y-125522038D01*
X115568041Y-125546966D01*
X115576628Y-125571875D01*
X115585227Y-125596761D01*
X115593842Y-125621628D01*
X115602469Y-125646472D01*
X115611111Y-125671296D01*
X115619766Y-125696097D01*
X115628436Y-125720880D01*
X115637118Y-125745639D01*
X115645815Y-125770379D01*
X115654525Y-125795095D01*
X115663250Y-125819793D01*
X115671988Y-125844468D01*
X115680740Y-125869124D01*
X115689505Y-125893756D01*
X115698285Y-125918370D01*
X115707078Y-125942961D01*
X115715885Y-125967533D01*
X115724705Y-125992081D01*
X115733540Y-126016611D01*
X115742387Y-126041118D01*
X115751249Y-126065606D01*
X115760124Y-126090071D01*
X115769013Y-126114517D01*
X115777916Y-126138940D01*
X115786832Y-126163344D01*
X115795762Y-126187726D01*
X115804706Y-126212088D01*
X115813663Y-126236428D01*
X115822634Y-126260749D01*
X115831618Y-126285047D01*
X115840617Y-126309326D01*
X115849628Y-126333583D01*
X115858654Y-126357821D01*
X115867693Y-126382036D01*
X115876746Y-126406232D01*
X115885812Y-126430405D01*
X115894892Y-126454560D01*
X115903985Y-126478692D01*
X115913092Y-126502806D01*
X115922212Y-126526896D01*
X115931347Y-126550969D01*
X115940494Y-126575018D01*
X115949655Y-126599049D01*
X115958830Y-126623057D01*
X115968018Y-126647047D01*
X115977219Y-126671014D01*
X115986435Y-126694962D01*
X115995663Y-126718888D01*
X116004906Y-126742795D01*
X116014161Y-126766680D01*
X116023431Y-126790546D01*
X116032713Y-126814390D01*
X116042010Y-126838215D01*
X116051319Y-126862018D01*
X116060642Y-126885802D01*
X116069978Y-126909564D01*
X116079329Y-126933308D01*
X116088692Y-126957028D01*
X116098069Y-126980731D01*
X116107459Y-127004411D01*
X116116863Y-127028073D01*
X116126280Y-127051712D01*
X116135711Y-127075333D01*
X116145154Y-127098932D01*
X116154612Y-127122512D01*
X116164082Y-127146070D01*
X116173567Y-127169610D01*
X116183064Y-127193127D01*
X116192575Y-127216626D01*
X116202098Y-127240103D01*
X116211636Y-127263561D01*
X116221187Y-127286997D01*
X116230752Y-127310416D01*
X116240329Y-127333811D01*
X116249920Y-127357189D01*
X116259524Y-127380544D01*
X116269142Y-127403882D01*
X116278772Y-127427197D01*
X116288416Y-127450494D01*
X116298073Y-127473768D01*
X116307745Y-127497025D01*
X116317428Y-127520259D01*
X116327126Y-127543476D01*
X116336836Y-127566670D01*
X116346560Y-127589847D01*
X116356297Y-127613000D01*
X116366047Y-127636137D01*
X116375810Y-127659251D01*
X116385588Y-127682347D01*
X116395377Y-127705421D01*
X116405181Y-127728477D01*
X116414997Y-127751511D01*
X116424827Y-127774527D01*
X116434670Y-127797521D01*
X116444526Y-127820497D01*
X116454395Y-127843451D01*
X116464278Y-127866388D01*
X116474173Y-127889302D01*
X116484083Y-127912199D01*
X116494004Y-127935073D01*
X116503940Y-127957930D01*
X116513888Y-127980765D01*
X116523850Y-128003582D01*
X116533824Y-128026377D01*
X116543812Y-128049155D01*
X116553813Y-128071910D01*
X116563827Y-128094648D01*
X116573854Y-128117363D01*
X116583895Y-128140062D01*
X116593948Y-128162738D01*
X116604015Y-128185397D01*
X116614094Y-128208034D01*
X116624188Y-128230653D01*
X116634293Y-128253250D01*
X116644412Y-128275831D01*
X116654544Y-128298388D01*
X116664690Y-128320929D01*
X116674847Y-128343448D01*
X116685019Y-128365949D01*
X116695203Y-128388428D01*
X116705401Y-128410891D01*
X116715611Y-128433331D01*
X116725835Y-128455754D01*
X116736071Y-128478154D01*
X116746321Y-128500538D01*
X116756583Y-128522900D01*
X116766859Y-128545245D01*
X116777147Y-128567567D01*
X116787450Y-128589873D01*
X116797764Y-128612157D01*
X116808092Y-128634423D01*
X116818432Y-128656668D01*
X116828786Y-128678896D01*
X116839152Y-128701101D01*
X116849533Y-128723290D01*
X116859925Y-128745457D01*
X116870331Y-128767607D01*
X116880749Y-128789735D01*
X116891181Y-128811846D01*
X116901625Y-128833935D01*
X116912083Y-128856008D01*
X116922552Y-128878058D01*
X116933036Y-128900092D01*
X116943532Y-128922103D01*
X116954042Y-128944099D01*
X116964563Y-128966071D01*
X116975099Y-128988028D01*
X116985646Y-129009962D01*
X116996208Y-129031880D01*
X117006781Y-129053776D01*
X117017368Y-129075656D01*
X117027967Y-129097513D01*
X117038580Y-129119354D01*
X117049205Y-129141173D01*
X117059844Y-129162975D01*
X117070494Y-129184756D01*
X117081159Y-129206520D01*
X117091835Y-129228262D01*
X117102525Y-129249988D01*
X117113227Y-129271692D01*
X117123943Y-129293379D01*
X117134671Y-129315045D01*
X117145412Y-129336694D01*
X117156166Y-129358322D01*
X117166933Y-129379933D01*
X117177712Y-129401522D01*
X117188505Y-129423095D01*
X117199310Y-129444646D01*
X117210128Y-129466181D01*
X117220959Y-129487694D01*
X117231803Y-129509191D01*
X117242659Y-129530666D01*
X117253529Y-129552125D01*
X117264410Y-129573562D01*
X117275306Y-129594983D01*
X117286212Y-129616382D01*
X117297134Y-129637765D01*
X117308066Y-129659126D01*
X117319013Y-129680472D01*
X117329971Y-129701795D01*
X117351926Y-129744388D01*
X117373933Y-129786905D01*
X117395991Y-129829347D01*
X117418100Y-129871714D01*
X117440259Y-129914006D01*
X117462470Y-129956222D01*
X117484731Y-129998363D01*
X117507043Y-130040430D01*
X117529406Y-130082421D01*
X117551820Y-130124338D01*
X117574284Y-130166180D01*
X117596799Y-130207948D01*
X117619365Y-130249641D01*
X117641981Y-130291259D01*
X117664648Y-130332804D01*
X117687366Y-130374274D01*
X117710134Y-130415670D01*
X117732952Y-130456991D01*
X117755821Y-130498239D01*
X117778741Y-130539413D01*
X117801711Y-130580514D01*
X117824731Y-130621540D01*
X117847801Y-130662493D01*
X117870922Y-130703372D01*
X117894094Y-130744178D01*
X117917315Y-130784911D01*
X117940587Y-130825570D01*
X117963909Y-130866156D01*
X117987281Y-130906670D01*
X118010703Y-130947110D01*
X118034176Y-130987477D01*
X118057698Y-131027771D01*
X118081271Y-131067993D01*
X118104894Y-131108141D01*
X118128567Y-131148218D01*
X118152290Y-131188222D01*
X118176062Y-131228153D01*
X118199885Y-131268012D01*
X118223758Y-131307799D01*
X118247681Y-131347513D01*
X118271653Y-131387156D01*
X118295676Y-131426727D01*
X118319748Y-131466225D01*
X118343870Y-131505652D01*
X118368042Y-131545007D01*
X118392264Y-131584290D01*
X118416535Y-131623502D01*
X118440856Y-131662642D01*
X118465227Y-131701711D01*
X118489648Y-131740709D01*
X118514118Y-131779635D01*
X118538639Y-131818490D01*
X118563208Y-131857274D01*
X118587828Y-131895987D01*
X118612496Y-131934629D01*
X118637215Y-131973200D01*
X118661983Y-132011700D01*
X118686801Y-132050129D01*
X118711668Y-132088488D01*
X118736585Y-132126777D01*
X118761551Y-132164994D01*
X118786566Y-132203142D01*
X118811632Y-132241219D01*
X118836746Y-132279226D01*
X118861910Y-132317162D01*
X118887124Y-132355029D01*
X118912387Y-132392825D01*
X118937699Y-132430552D01*
X118963060Y-132468208D01*
X118988471Y-132505795D01*
X119013932Y-132543312D01*
X119039441Y-132580760D01*
X119065000Y-132618138D01*
X119090609Y-132655446D01*
X119116266Y-132692685D01*
X119141973Y-132729854D01*
X119167729Y-132766955D01*
X119193535Y-132803986D01*
X119219389Y-132840947D01*
X119245293Y-132877840D01*
X119271246Y-132914664D01*
X119297248Y-132951419D01*
X119323300Y-132988105D01*
X119349401Y-133024722D01*
X119375550Y-133061270D01*
X119401749Y-133097750D01*
X119427998Y-133134161D01*
X119454295Y-133170504D01*
X119480641Y-133206778D01*
X119507037Y-133242984D01*
X119533482Y-133279121D01*
X119559975Y-133315190D01*
X119586518Y-133351191D01*
X119613110Y-133387124D01*
X119639751Y-133422989D01*
X119666441Y-133458786D01*
X119693181Y-133494515D01*
X119719969Y-133530176D01*
X119746806Y-133565769D01*
X119773693Y-133601295D01*
X119800628Y-133636753D01*
X119827612Y-133672143D01*
X119854646Y-133707466D01*
X119881728Y-133742722D01*
X119908860Y-133777909D01*
X119936041Y-133813030D01*
X119963270Y-133848083D01*
X119990549Y-133883070D01*
X120017876Y-133917989D01*
X120045253Y-133952840D01*
X120072679Y-133987625D01*
X120100153Y-134022343D01*
X120127677Y-134056994D01*
X120155249Y-134091578D01*
X120182871Y-134126096D01*
X120210541Y-134160546D01*
X120238261Y-134194930D01*
X120266029Y-134229247D01*
X120293847Y-134263498D01*
X120321713Y-134297683D01*
X120349629Y-134331800D01*
X120377593Y-134365852D01*
X120405606Y-134399837D01*
X120433669Y-134433756D01*
X120461780Y-134467609D01*
X120489940Y-134501395D01*
X120518150Y-134535116D01*
X120546408Y-134568770D01*
X120574715Y-134602359D01*
X120603071Y-134635881D01*
X120631476Y-134669338D01*
X120659930Y-134702729D01*
X120688434Y-134736054D01*
X120716986Y-134769313D01*
X120745587Y-134802507D01*
X120774237Y-134835635D01*
X120802936Y-134868697D01*
X120831684Y-134901694D01*
X120860481Y-134934626D01*
X120889327Y-134967492D01*
X120918222Y-135000293D01*
X120947166Y-135033028D01*
X120976159Y-135065699D01*
X121005201Y-135098304D01*
X121034292Y-135130844D01*
X121063432Y-135163318D01*
X121092621Y-135195728D01*
X121121860Y-135228073D01*
X121151147Y-135260353D01*
X121180483Y-135292568D01*
X121209868Y-135324718D01*
X121239303Y-135356803D01*
X121268786Y-135388824D01*
X121298319Y-135420779D01*
X121327900Y-135452671D01*
X121357531Y-135484497D01*
X121387211Y-135516259D01*
X121416939Y-135547956D01*
X121446717Y-135579589D01*
X121476544Y-135611158D01*
X121506420Y-135642662D01*
X121536346Y-135674101D01*
X121566320Y-135705477D01*
X121596344Y-135736788D01*
X121626416Y-135768034D01*
X121656538Y-135799217D01*
X121686709Y-135830336D01*
X121716929Y-135861390D01*
X121747199Y-135892380D01*
X121777517Y-135923307D01*
X121807885Y-135954169D01*
X121838302Y-135984967D01*
X121868768Y-136015702D01*
X121899284Y-136046372D01*
X121929849Y-136076979D01*
X121960463Y-136107522D01*
X121991126Y-136138001D01*
X122021838Y-136168416D01*
X122052600Y-136198768D01*
X122083411Y-136229056D01*
X122114272Y-136259281D01*
X122145181Y-136289442D01*
X122176140Y-136319539D01*
X122207149Y-136349573D01*
X122238207Y-136379543D01*
X122269314Y-136409450D01*
X122300470Y-136439294D01*
X122331676Y-136469074D01*
X122362932Y-136498791D01*
X122394236Y-136528444D01*
X122425590Y-136558035D01*
X122456994Y-136587562D01*
X122488447Y-136617025D01*
X122519950Y-136646426D01*
X122551502Y-136675763D01*
X122583103Y-136705038D01*
X122614754Y-136734249D01*
X122646455Y-136763397D01*
X122678205Y-136792482D01*
X122710005Y-136821505D01*
X122741854Y-136850464D01*
X122773753Y-136879360D01*
X122805701Y-136908193D01*
X122837699Y-136936964D01*
X122869747Y-136965671D01*
X122901844Y-136994316D01*
X122933991Y-137022898D01*
X122966188Y-137051417D01*
X122998434Y-137079873D01*
X123030730Y-137108267D01*
X123063076Y-137136598D01*
X123095471Y-137164866D01*
X123127916Y-137193071D01*
X123160411Y-137221214D01*
X123192956Y-137249295D01*
X123225551Y-137277312D01*
X123258195Y-137305267D01*
X123290889Y-137333160D01*
X123323633Y-137360990D01*
X123356427Y-137388757D01*
X123389271Y-137416462D01*
X123422164Y-137444104D01*
X123455108Y-137471684D01*
X123488101Y-137499202D01*
X123521145Y-137526657D01*
X123554238Y-137554050D01*
X123587382Y-137581380D01*
X123620575Y-137608648D01*
X123653818Y-137635853D01*
X123687112Y-137662996D01*
X123720455Y-137690077D01*
X123753848Y-137717096D01*
X123787292Y-137744052D01*
X123820786Y-137770946D01*
X123854329Y-137797778D01*
X123887923Y-137824547D01*
X123921567Y-137851254D01*
X123955261Y-137877899D01*
X123989006Y-137904482D01*
X124022800Y-137931003D01*
X124056645Y-137957461D01*
X124090540Y-137983857D01*
X124124485Y-138010191D01*
X124158481Y-138036463D01*
X124192526Y-138062673D01*
X124226622Y-138088820D01*
X124260769Y-138114905D01*
X124294965Y-138140929D01*
X124329212Y-138166890D01*
X124363510Y-138192789D01*
X124397858Y-138218626D01*
X124432256Y-138244401D01*
X124466705Y-138270113D01*
X124501204Y-138295764D01*
X124535753Y-138321352D01*
X124570353Y-138346879D01*
X124605003Y-138372343D01*
X124639704Y-138397745D01*
X124674456Y-138423086D01*
X124709258Y-138448364D01*
X124744110Y-138473580D01*
X124779014Y-138498734D01*
X124813967Y-138523826D01*
X124848972Y-138548856D01*
X124884027Y-138573824D01*
X124919132Y-138598730D01*
X124954288Y-138623573D01*
X124989495Y-138648355D01*
X125024753Y-138673075D01*
X125060061Y-138697732D01*
X125095420Y-138722328D01*
X125130830Y-138746861D01*
X125166291Y-138771333D01*
X125201802Y-138795742D01*
X125237364Y-138820089D01*
X125272977Y-138844374D01*
X125308641Y-138868598D01*
X125344355Y-138892759D01*
X125380121Y-138916857D01*
X125415937Y-138940894D01*
X125451804Y-138964869D01*
X125487722Y-138988782D01*
X125523691Y-139012632D01*
X125559711Y-139036420D01*
X125595782Y-139060147D01*
X125631903Y-139083811D01*
X125668076Y-139107413D01*
X125704300Y-139130952D01*
X125740575Y-139154430D01*
X125776900Y-139177845D01*
X125813277Y-139201199D01*
X125849705Y-139224490D01*
X125886184Y-139247718D01*
X125922714Y-139270885D01*
X125959295Y-139293989D01*
X125995927Y-139317031D01*
X126032610Y-139340011D01*
X126069344Y-139362929D01*
X126106130Y-139385784D01*
X126142966Y-139408577D01*
X126179854Y-139431307D01*
X126216793Y-139453975D01*
X126253783Y-139476581D01*
X126290824Y-139499125D01*
X126327917Y-139521606D01*
X126365060Y-139544025D01*
X126402255Y-139566381D01*
X126439501Y-139588675D01*
X126476799Y-139610906D01*
X126514147Y-139633075D01*
X126551547Y-139655181D01*
X126588998Y-139677225D01*
X126626501Y-139699206D01*
X126664054Y-139721125D01*
X126701659Y-139742981D01*
X126739316Y-139764775D01*
X126777023Y-139786505D01*
X126814782Y-139808174D01*
X126852592Y-139829779D01*
X126890454Y-139851322D01*
X126928367Y-139872802D01*
X126966331Y-139894219D01*
X127004347Y-139915574D01*
X127042414Y-139936866D01*
X127080532Y-139958094D01*
X127118702Y-139979261D01*
X127156923Y-140000364D01*
X127195196Y-140021404D01*
X127233519Y-140042381D01*
X127271895Y-140063295D01*
X127310321Y-140084147D01*
X127348799Y-140104935D01*
X127387329Y-140125660D01*
X127425910Y-140146322D01*
X127464542Y-140166921D01*
X127503225Y-140187457D01*
X127541960Y-140207930D01*
X127580747Y-140228339D01*
X127619584Y-140248685D01*
X127658473Y-140268968D01*
X127697414Y-140289188D01*
X127736406Y-140309344D01*
X127775449Y-140329437D01*
X127814544Y-140349466D01*
X127853690Y-140369432D01*
X127892887Y-140389334D01*
X127932136Y-140409173D01*
X127971436Y-140428948D01*
X128010788Y-140448660D01*
X128050191Y-140468308D01*
X128089645Y-140487893D01*
X128129150Y-140507413D01*
X128168707Y-140526870D01*
X128208315Y-140546263D01*
X128247975Y-140565592D01*
X128287686Y-140584858D01*
X128327448Y-140604059D01*
X128367261Y-140623196D01*
X128407126Y-140642270D01*
X128447042Y-140661279D01*
X128487009Y-140680224D01*
X128527027Y-140699106D01*
X128567097Y-140717923D01*
X128607218Y-140736675D01*
X128647390Y-140755364D01*
X128687613Y-140773988D01*
X128727887Y-140792548D01*
X128768213Y-140811043D01*
X128808589Y-140829474D01*
X128849017Y-140847840D01*
X128889496Y-140866142D01*
X128930025Y-140884379D01*
X128970606Y-140902552D01*
X129011238Y-140920660D01*
X129051921Y-140938703D01*
X129092655Y-140956681D01*
X129133440Y-140974594D01*
X129174275Y-140992443D01*
X129215162Y-141010227D01*
X129256099Y-141027945D01*
X129297087Y-141045599D01*
X129338126Y-141063187D01*
X129379216Y-141080710D01*
X129420357Y-141098169D01*
X129461548Y-141115561D01*
X129502790Y-141132889D01*
X129544083Y-141150151D01*
X129585426Y-141167348D01*
X129626820Y-141184479D01*
X129668264Y-141201544D01*
X129709759Y-141218544D01*
X129751304Y-141235479D01*
X129792900Y-141252347D01*
X129834546Y-141269150D01*
X129876242Y-141285887D01*
X129917989Y-141302558D01*
X129959786Y-141319163D01*
X130001633Y-141335702D01*
X130043531Y-141352175D01*
X130085478Y-141368582D01*
X130127476Y-141384923D01*
X130169523Y-141401198D01*
X130211621Y-141417406D01*
X130253768Y-141433547D01*
X130295966Y-141449623D01*
X130338213Y-141465631D01*
X130380509Y-141481574D01*
X130422856Y-141497449D01*
X130465252Y-141513258D01*
X130507698Y-141529000D01*
X130550193Y-141544675D01*
X130592738Y-141560284D01*
X130635332Y-141575825D01*
X130677975Y-141591299D01*
X130720668Y-141606707D01*
X130763410Y-141622047D01*
X130806201Y-141637320D01*
X130849041Y-141652525D01*
X130891930Y-141667663D01*
X130934868Y-141682734D01*
X130977855Y-141697737D01*
X131020890Y-141712673D01*
X131063974Y-141727540D01*
X131107107Y-141742341D01*
X131150288Y-141757073D01*
X131193518Y-141771737D01*
X131236796Y-141786334D01*
X131280122Y-141800862D01*
X131323496Y-141815323D01*
X131366919Y-141829715D01*
X131410389Y-141844039D01*
X131453908Y-141858295D01*
X131497474Y-141872482D01*
X131541088Y-141886601D01*
X131584749Y-141900651D01*
X131628458Y-141914633D01*
X131672214Y-141928546D01*
X131716018Y-141942390D01*
X131759868Y-141956165D01*
X131803766Y-141969872D01*
X131847711Y-141983509D01*
X131891702Y-141997077D01*
X131935741Y-142010577D01*
X131979826Y-142024006D01*
X132023957Y-142037367D01*
X132068135Y-142050658D01*
X132112359Y-142063880D01*
X132156629Y-142077032D01*
X132200945Y-142090114D01*
X132245307Y-142103127D01*
X132289714Y-142116070D01*
X132334167Y-142128943D01*
X132378666Y-142141746D01*
X132423210Y-142154479D01*
X132467799Y-142167142D01*
X132512433Y-142179734D01*
X132557112Y-142192256D01*
X132601836Y-142204708D01*
X132646604Y-142217090D01*
X132691417Y-142229400D01*
X132736274Y-142241640D01*
X132781175Y-142253810D01*
X132826119Y-142265908D01*
X132871108Y-142277936D01*
X132916140Y-142289893D01*
X132961216Y-142301778D01*
X133006334Y-142313592D01*
X133051496Y-142325336D01*
X133096701Y-142337007D01*
X133141948Y-142348608D01*
X133187238Y-142360136D01*
X133232570Y-142371593D01*
X133277944Y-142382979D01*
X133323360Y-142394292D01*
X133368818Y-142405534D01*
X133414318Y-142416704D01*
X133459858Y-142427801D01*
X133505440Y-142438827D01*
X133551062Y-142449780D01*
X133596725Y-142460661D01*
X133642429Y-142471469D01*
X133688172Y-142482205D01*
X133733956Y-142492868D01*
X133779779Y-142503459D01*
X133825642Y-142513977D01*
X133871544Y-142524421D01*
X133917485Y-142534793D01*
X133963464Y-142545092D01*
X134009482Y-142555317D01*
X134055538Y-142565470D01*
X134101633Y-142575548D01*
X134147764Y-142585554D01*
X134193934Y-142595485D01*
X134240140Y-142605344D01*
X134286383Y-142615128D01*
X134332663Y-142624838D01*
X134378979Y-142634475D01*
X134425331Y-142644037D01*
X134471718Y-142653526D01*
X134518141Y-142662940D01*
X134564599Y-142672280D01*
X134611091Y-142681545D01*
X134657618Y-142690736D01*
X134704179Y-142699852D01*
X134750774Y-142708893D01*
X134797402Y-142717860D01*
X134844063Y-142726752D01*
X134890756Y-142735568D01*
X134937482Y-142744310D01*
X134984240Y-142752976D01*
X135031029Y-142761567D01*
X135077850Y-142770083D01*
X135124701Y-142778523D01*
X135171583Y-142786888D01*
X135218495Y-142795177D01*
X135265436Y-142803390D01*
X135312407Y-142811527D01*
X135359406Y-142819588D01*
X135406434Y-142827573D01*
X135453490Y-142835482D01*
X135500573Y-142843314D01*
X135547683Y-142851070D01*
X135594820Y-142858750D01*
X135641982Y-142866353D01*
X135689171Y-142873880D01*
X135736384Y-142881329D01*
X135783622Y-142888702D01*
X135830885Y-142895998D01*
X135878171Y-142903217D01*
X135925480Y-142910358D01*
X135972812Y-142917423D01*
X136020165Y-142924410D01*
X136067541Y-142931319D01*
X136114937Y-142938151D01*
X136162354Y-142944906D01*
X136209790Y-142951582D01*
X136257246Y-142958181D01*
X136304721Y-142964702D01*
X136352213Y-142971145D01*
X136399723Y-142977509D01*
X136447250Y-142983796D01*
X136494793Y-142990004D01*
X136542352Y-142996134D01*
X136589925Y-143002185D01*
X136637512Y-143008158D01*
X136685114Y-143014052D01*
X136732727Y-143019867D01*
X136780353Y-143025604D01*
X136827991Y-143031261D01*
X136875639Y-143036840D01*
X136923296Y-143042339D01*
X136970963Y-143047760D01*
X137018638Y-143053100D01*
X137066321Y-143058362D01*
X137114011Y-143063544D01*
X137161706Y-143068647D01*
X137209406Y-143073670D01*
X137257111Y-143078613D01*
X137304818Y-143083476D01*
X137352528Y-143088260D01*
X137400240Y-143092963D01*
X137447952Y-143097587D01*
X137495664Y-143102130D01*
X137543374Y-143106594D01*
X137591082Y-143110977D01*
X137638787Y-143115279D01*
X137686487Y-143119502D01*
X137734182Y-143123644D01*
X137781870Y-143127705D01*
X137829551Y-143131686D01*
X137877222Y-143135586D01*
X137924884Y-143139405D01*
X137972535Y-143143144D01*
X138020174Y-143146801D01*
X138067799Y-143150378D01*
X138115410Y-143153874D01*
X138163004Y-143157288D01*
X138210581Y-143160622D01*
X138258140Y-143163875D01*
X138305678Y-143167046D01*
X138353196Y-143170136D01*
X138400690Y-143173145D01*
X138448160Y-143176073D01*
X138495605Y-143178919D01*
X138543022Y-143181684D01*
X138590411Y-143184367D01*
X138637769Y-143186969D01*
X138685095Y-143189490D01*
X138732388Y-143191929D01*
X138779645Y-143194286D01*
X138826865Y-143196562D01*
X138874046Y-143198757D01*
X138921186Y-143200870D01*
X138968284Y-143202901D01*
X139015337Y-143204851D01*
X139062344Y-143206719D01*
X139109302Y-143208506D01*
X139156210Y-143210212D01*
X139203064Y-143211835D01*
X139249864Y-143213378D01*
X139296607Y-143214839D01*
X139343290Y-143216218D01*
X139389911Y-143217516D01*
X139436467Y-143218733D01*
X139482957Y-143219869D01*
X139529378Y-143220923D01*
X139575726Y-143221897D01*
X139622000Y-143222789D01*
X139668196Y-143223601D01*
X139714311Y-143224331D01*
X139760343Y-143224981D01*
X139806288Y-143225550D01*
X139852144Y-143226039D01*
X139897906Y-143226447D01*
X139943572Y-143226775D01*
X139989139Y-143227023D01*
X140034602Y-143227191D01*
X140079957Y-143227280D01*
X140125202Y-143227289D01*
X140170332Y-143227218D01*
X140215343Y-143227068D01*
X140260230Y-143226840D01*
X140304990Y-143226533D01*
X140349617Y-143226148D01*
X140394108Y-143225684D01*
X140438457Y-143225143D01*
X140482658Y-143224525D01*
X140526708Y-143223829D01*
X140570599Y-143223057D01*
X140614327Y-143222208D01*
X140657886Y-143221284D01*
X140701269Y-143220285D01*
X140744469Y-143219210D01*
X140787481Y-143218061D01*
X140830297Y-143216839D01*
X140872909Y-143215543D01*
X140915310Y-143214175D01*
X140957492Y-143212735D01*
X140999447Y-143211223D01*
X141041164Y-143209642D01*
X141082635Y-143207991D01*
X141123850Y-143206271D01*
X141164799Y-143204484D01*
X141205470Y-143202630D01*
X141245852Y-143200711D01*
X141285932Y-143198727D01*
X141325697Y-143196681D01*
X141365134Y-143194572D01*
X141404228Y-143192404D01*
X141442962Y-143190178D01*
X141446000Y-143190000D01*
D11*
X162860214Y-68190000D02*
G75*
G02*
X160031786Y-68190000I-1414214J0D01*
G01*
X160031786Y-68190000D02*
G75*
G02*
X162860214Y-68190000I1414214J0D01*
G01*
D10*
X169446000Y-97190000D02*
X183446000Y-84190000D01*
X160446000Y-88190000D02*
X169446000Y-97190000D01*
D11*
X161860214Y-102190000D02*
G75*
G02*
X159031786Y-102190000I-1414214J0D01*
G01*
X159031786Y-102190000D02*
G75*
G02*
X161860214Y-102190000I1414214J0D01*
G01*
X140860214Y-101190000D02*
G75*
G02*
X138031786Y-101190000I-1414214J0D01*
G01*
X138031786Y-101190000D02*
G75*
G02*
X140860214Y-101190000I1414214J0D01*
G01*
X160860214Y-114190000D02*
G75*
G02*
X158031786Y-114190000I-1414214J0D01*
G01*
X158031786Y-114190000D02*
G75*
G02*
X160860214Y-114190000I1414214J0D01*
G01*
D10*
X151446000Y-97190000D02*
X160446000Y-88190000D01*
X183246000Y-107190000D02*
X183245896Y-107129901D01*
X183245772Y-107069840D01*
X183245629Y-107009817D01*
X183245465Y-106949831D01*
X183245281Y-106889882D01*
X183245078Y-106829972D01*
X183244855Y-106770098D01*
X183244611Y-106710263D01*
X183244348Y-106650464D01*
X183244066Y-106590704D01*
X183243763Y-106530980D01*
X183243441Y-106471295D01*
X183243098Y-106411646D01*
X183242736Y-106352036D01*
X183242355Y-106292462D01*
X183241953Y-106232926D01*
X183241532Y-106173427D01*
X183241091Y-106113966D01*
X183240630Y-106054542D01*
X183240150Y-105995156D01*
X183239650Y-105935807D01*
X183239130Y-105876495D01*
X183238590Y-105817220D01*
X183238031Y-105757983D01*
X183237452Y-105698783D01*
X183236854Y-105639620D01*
X183236236Y-105580494D01*
X183235598Y-105521406D01*
X183234941Y-105462355D01*
X183234264Y-105403341D01*
X183233568Y-105344364D01*
X183232852Y-105285425D01*
X183232117Y-105226522D01*
X183231362Y-105167657D01*
X183230587Y-105108829D01*
X183229793Y-105050038D01*
X183228980Y-104991284D01*
X183228147Y-104932567D01*
X183227294Y-104873888D01*
X183226422Y-104815245D01*
X183225531Y-104756639D01*
X183224620Y-104698070D01*
X183223690Y-104639539D01*
X183222740Y-104581044D01*
X183221771Y-104522586D01*
X183220783Y-104464166D01*
X183219775Y-104405782D01*
X183218748Y-104347435D01*
X183217702Y-104289125D01*
X183216636Y-104230852D01*
X183215551Y-104172616D01*
X183214446Y-104114416D01*
X183213322Y-104056254D01*
X183212179Y-103998128D01*
X183211017Y-103940039D01*
X183209836Y-103881987D01*
X183208635Y-103823972D01*
X183207415Y-103765994D01*
X183206175Y-103708052D01*
X183204917Y-103650147D01*
X183203639Y-103592279D01*
X183202342Y-103534447D01*
X183201026Y-103476653D01*
X183199691Y-103418895D01*
X183198337Y-103361173D01*
X183196963Y-103303488D01*
X183195571Y-103245840D01*
X183194159Y-103188229D01*
X183192728Y-103130654D01*
X183191278Y-103073116D01*
X183189809Y-103015614D01*
X183188321Y-102958149D01*
X183186814Y-102900720D01*
X183185288Y-102843328D01*
X183183743Y-102785973D01*
X183182178Y-102728654D01*
X183180595Y-102671371D01*
X183178993Y-102614125D01*
X183177372Y-102556916D01*
X183175732Y-102499743D01*
X183174072Y-102442606D01*
X183172394Y-102385506D01*
X183170697Y-102328442D01*
X183168981Y-102271414D01*
X183167247Y-102214423D01*
X183165493Y-102157468D01*
X183163720Y-102100550D01*
X183161929Y-102043668D01*
X183160118Y-101986822D01*
X183158289Y-101930013D01*
X183156441Y-101873240D01*
X183154574Y-101816503D01*
X183152689Y-101759802D01*
X183150784Y-101703138D01*
X183148861Y-101646509D01*
X183146919Y-101589918D01*
X183144958Y-101533362D01*
X183142979Y-101476842D01*
X183140980Y-101420359D01*
X183138963Y-101363912D01*
X183136928Y-101307500D01*
X183134873Y-101251125D01*
X183132800Y-101194786D01*
X183130708Y-101138484D01*
X183128598Y-101082217D01*
X183126469Y-101025986D01*
X183124321Y-100969792D01*
X183122155Y-100913633D01*
X183119970Y-100857510D01*
X183117766Y-100801424D01*
X183115544Y-100745373D01*
X183113303Y-100689359D01*
X183111044Y-100633380D01*
X183108766Y-100577437D01*
X183106469Y-100521530D01*
X183104154Y-100465660D01*
X183101821Y-100409825D01*
X183099469Y-100354026D01*
X183097098Y-100298262D01*
X183094709Y-100242535D01*
X183092302Y-100186843D01*
X183089876Y-100131188D01*
X183087431Y-100075568D01*
X183084968Y-100019984D01*
X183082487Y-99964435D01*
X183079987Y-99908923D01*
X183077469Y-99853446D01*
X183074933Y-99798005D01*
X183072378Y-99742600D01*
X183069805Y-99687230D01*
X183067213Y-99631896D01*
X183064603Y-99576598D01*
X183061975Y-99521335D01*
X183059328Y-99466108D01*
X183056663Y-99410917D01*
X183053980Y-99355761D01*
X183051279Y-99300641D01*
X183048559Y-99245557D01*
X183045821Y-99190508D01*
X183043065Y-99135494D01*
X183040290Y-99080516D01*
X183037497Y-99025574D01*
X183034686Y-98970667D01*
X183031857Y-98915796D01*
X183029010Y-98860960D01*
X183026145Y-98806160D01*
X183023261Y-98751395D01*
X183020359Y-98696666D01*
X183017439Y-98641971D01*
X183014501Y-98587313D01*
X183011545Y-98532689D01*
X183008570Y-98478102D01*
X183005578Y-98423549D01*
X183002567Y-98369032D01*
X182999539Y-98314550D01*
X182996492Y-98260104D01*
X182993427Y-98205692D01*
X182990345Y-98151317D01*
X182987244Y-98096976D01*
X182984125Y-98042671D01*
X182980988Y-97988400D01*
X182977834Y-97934166D01*
X182974661Y-97879966D01*
X182971470Y-97825802D01*
X182968261Y-97771672D01*
X182965035Y-97717578D01*
X182961790Y-97663519D01*
X182958528Y-97609496D01*
X182955247Y-97555507D01*
X182951949Y-97501554D01*
X182948633Y-97447635D01*
X182945299Y-97393752D01*
X182941947Y-97339903D01*
X182938577Y-97286090D01*
X182935190Y-97232312D01*
X182931784Y-97178569D01*
X182928361Y-97124861D01*
X182924920Y-97071188D01*
X182921461Y-97017549D01*
X182917985Y-96963946D01*
X182914490Y-96910378D01*
X182910978Y-96856845D01*
X182907448Y-96803346D01*
X182903901Y-96749883D01*
X182900335Y-96696454D01*
X182896752Y-96643061D01*
X182893152Y-96589702D01*
X182889533Y-96536378D01*
X182885897Y-96483089D01*
X182882243Y-96429835D01*
X182878572Y-96376615D01*
X182874883Y-96323431D01*
X182871176Y-96270280D01*
X182867452Y-96217165D01*
X182863710Y-96164085D01*
X182859951Y-96111039D01*
X182856174Y-96058028D01*
X182852379Y-96005052D01*
X182848567Y-95952110D01*
X182844737Y-95899204D01*
X182840890Y-95846331D01*
X182837025Y-95793494D01*
X182833142Y-95740691D01*
X182829243Y-95687923D01*
X182825325Y-95635188D01*
X182821391Y-95582490D01*
X182817438Y-95529825D01*
X182813469Y-95477195D01*
X182809481Y-95424599D01*
X182805477Y-95372039D01*
X182801455Y-95319512D01*
X182797415Y-95267020D01*
X182793358Y-95214563D01*
X182789284Y-95162140D01*
X182785193Y-95109751D01*
X182781084Y-95057397D01*
X182776957Y-95005077D01*
X182772814Y-94952793D01*
X182768653Y-94900541D01*
X182764475Y-94848325D01*
X182760279Y-94796143D01*
X182756066Y-94743995D01*
X182751836Y-94691882D01*
X182747588Y-94639803D01*
X182743324Y-94587758D01*
X182739042Y-94535748D01*
X182734742Y-94483771D01*
X182730426Y-94431830D01*
X182726092Y-94379922D01*
X182721742Y-94328049D01*
X182717373Y-94276209D01*
X182712988Y-94224404D01*
X182708586Y-94172633D01*
X182704166Y-94120897D01*
X182699730Y-94069194D01*
X182695276Y-94017526D01*
X182690805Y-93965892D01*
X182686317Y-93914292D01*
X182681812Y-93862726D01*
X182677289Y-93811194D01*
X182672750Y-93759696D01*
X182668194Y-93708233D01*
X182663620Y-93656803D01*
X182659030Y-93605408D01*
X182654422Y-93554046D01*
X182649797Y-93502718D01*
X182645156Y-93451424D01*
X182640497Y-93400165D01*
X182635822Y-93348939D01*
X182631129Y-93297748D01*
X182626420Y-93246590D01*
X182621693Y-93195466D01*
X182616950Y-93144376D01*
X182612189Y-93093320D01*
X182607412Y-93042297D01*
X182602618Y-92991310D01*
X182597807Y-92940355D01*
X182592979Y-92889434D01*
X182588134Y-92838547D01*
X182583272Y-92787695D01*
X182578394Y-92736875D01*
X182573498Y-92686090D01*
X182568586Y-92635338D01*
X182563657Y-92584620D01*
X182558711Y-92533935D01*
X182553748Y-92483285D01*
X182548769Y-92432668D01*
X182543773Y-92382085D01*
X182538760Y-92331535D01*
X182533730Y-92281020D01*
X182528683Y-92230537D01*
X182523620Y-92180089D01*
X182518540Y-92129674D01*
X182513444Y-92079293D01*
X182508330Y-92028945D01*
X182503200Y-91978631D01*
X182498054Y-91928350D01*
X182492890Y-91878104D01*
X182487710Y-91827889D01*
X182482514Y-91777710D01*
X182477300Y-91727563D01*
X182472070Y-91677450D01*
X182466824Y-91627370D01*
X182461561Y-91577325D01*
X182456281Y-91527311D01*
X182450985Y-91477333D01*
X182445672Y-91427386D01*
X182440342Y-91377474D01*
X182434996Y-91327595D01*
X182429634Y-91277750D01*
X182424255Y-91227937D01*
X182418860Y-91178158D01*
X182413447Y-91128412D01*
X182408019Y-91078700D01*
X182402574Y-91029021D01*
X182397113Y-90979376D01*
X182391635Y-90929763D01*
X182386140Y-90880184D01*
X182380630Y-90830637D01*
X182375103Y-90781125D01*
X182369559Y-90731645D01*
X182363999Y-90682199D01*
X182358423Y-90632785D01*
X182352830Y-90583406D01*
X182347221Y-90534059D01*
X182341595Y-90484745D01*
X182335953Y-90435464D01*
X182330295Y-90386217D01*
X182324621Y-90337002D01*
X182318930Y-90287822D01*
X182313223Y-90238673D01*
X182307500Y-90189558D01*
X182301760Y-90140475D01*
X182296004Y-90091427D01*
X182290232Y-90042410D01*
X182284443Y-89993428D01*
X182278639Y-89944477D01*
X182272818Y-89895560D01*
X182266981Y-89846676D01*
X182261128Y-89797825D01*
X182255258Y-89749006D01*
X182249372Y-89700221D01*
X182243471Y-89651468D01*
X182237553Y-89602749D01*
X182231618Y-89554062D01*
X182225668Y-89505408D01*
X182219702Y-89456787D01*
X182213719Y-89408199D01*
X182207721Y-89359643D01*
X182201706Y-89311121D01*
X182195675Y-89262630D01*
X182189628Y-89214174D01*
X182183565Y-89165749D01*
X182177487Y-89117358D01*
X182171391Y-89068998D01*
X182165281Y-89020673D01*
X182159153Y-88972379D01*
X182153010Y-88924119D01*
X182146851Y-88875890D01*
X182140676Y-88827695D01*
X182134485Y-88779532D01*
X182128278Y-88731402D01*
X182122055Y-88683304D01*
X182115817Y-88635239D01*
X182109562Y-88587206D01*
X182103291Y-88539207D01*
X182097004Y-88491239D01*
X182090702Y-88443305D01*
X182084383Y-88395402D01*
X182078049Y-88347533D01*
X182071699Y-88299695D01*
X182065333Y-88251891D01*
X182058951Y-88204118D01*
X182052553Y-88156379D01*
X182046140Y-88108671D01*
X182039711Y-88060997D01*
X182033265Y-88013354D01*
X182026805Y-87965744D01*
X182020328Y-87918166D01*
X182013835Y-87870621D01*
X182007327Y-87823107D01*
X182000803Y-87775627D01*
X181994263Y-87728178D01*
X181987708Y-87680763D01*
X181981137Y-87633379D01*
X181974550Y-87586028D01*
X181967947Y-87538708D01*
X181961329Y-87491422D01*
X181954695Y-87444167D01*
X181948046Y-87396945D01*
X181941380Y-87349754D01*
X181934699Y-87302597D01*
X181928003Y-87255470D01*
X181921291Y-87208377D01*
X181914563Y-87161315D01*
X181907820Y-87114286D01*
X181901061Y-87067288D01*
X181894286Y-87020324D01*
X181887496Y-86973390D01*
X181880690Y-86926490D01*
X181873869Y-86879620D01*
X181867032Y-86832784D01*
X181860180Y-86785979D01*
X181853312Y-86739207D01*
X181846429Y-86692465D01*
X181839530Y-86645757D01*
X181832616Y-86599080D01*
X181825686Y-86552436D01*
X181818741Y-86505822D01*
X181811780Y-86459242D01*
X181804804Y-86412693D01*
X181797813Y-86366177D01*
X181790806Y-86319691D01*
X181783783Y-86273238D01*
X181776746Y-86226816D01*
X181769692Y-86180428D01*
X181762624Y-86134069D01*
X181755540Y-86087744D01*
X181748441Y-86041450D01*
X181741326Y-85995188D01*
X181734196Y-85948957D01*
X181727051Y-85902759D01*
X181719890Y-85856592D01*
X181712714Y-85810457D01*
X181705523Y-85764353D01*
X181698317Y-85718283D01*
X181691095Y-85672242D01*
X181683858Y-85626235D01*
X181676605Y-85580257D01*
X181669338Y-85534313D01*
X181662055Y-85488399D01*
X181654757Y-85442518D01*
X181647444Y-85396668D01*
X181640116Y-85350850D01*
X181632772Y-85305063D01*
X181625413Y-85259308D01*
X181618039Y-85213584D01*
X181610650Y-85167893D01*
X181603246Y-85122232D01*
X181595827Y-85076603D01*
X181588392Y-85031005D01*
X181580942Y-84985440D01*
X181573478Y-84939905D01*
X181565998Y-84894403D01*
X181558503Y-84848930D01*
X181550993Y-84803491D01*
X181543468Y-84758082D01*
X181535927Y-84712705D01*
X181528372Y-84667359D01*
X181520802Y-84622045D01*
X181513217Y-84576761D01*
X181505616Y-84531510D01*
X181498001Y-84486289D01*
X181490371Y-84441101D01*
X181482725Y-84395942D01*
X181475065Y-84350817D01*
X181467390Y-84305721D01*
X181459700Y-84260658D01*
X181451995Y-84215624D01*
X181444275Y-84170624D01*
X181436539Y-84125653D01*
X181428790Y-84080715D01*
X181421025Y-84035806D01*
X181413245Y-83990931D01*
X181405450Y-83946085D01*
X181397641Y-83901271D01*
X181389817Y-83856487D01*
X181381978Y-83811736D01*
X181374123Y-83767015D01*
X181366255Y-83722326D01*
X181358371Y-83677667D01*
X181350472Y-83633040D01*
X181342559Y-83588443D01*
X181334631Y-83543879D01*
X181326688Y-83499343D01*
X181318730Y-83454841D01*
X181310758Y-83410368D01*
X181302771Y-83365927D01*
X181294769Y-83321516D01*
X181286752Y-83277138D01*
X181278721Y-83232789D01*
X181270675Y-83188472D01*
X181262614Y-83144185D01*
X181254538Y-83099930D01*
X181246448Y-83055705D01*
X181238343Y-83011512D01*
X181230224Y-82967348D01*
X181222090Y-82923217D01*
X181213941Y-82879115D01*
X181205777Y-82835045D01*
X181197599Y-82791005D01*
X181189406Y-82746997D01*
X181181199Y-82703018D01*
X181172977Y-82659072D01*
X181164741Y-82615155D01*
X181156490Y-82571270D01*
X181148224Y-82527414D01*
X181139944Y-82483591D01*
X181131649Y-82439797D01*
X181123340Y-82396035D01*
X181115016Y-82352302D01*
X181106678Y-82308601D01*
X181098325Y-82264930D01*
X181089958Y-82221291D01*
X181081576Y-82177680D01*
X181073180Y-82134102D01*
X181064769Y-82090553D01*
X181056344Y-82047036D01*
X181047904Y-82003548D01*
X181039450Y-81960093D01*
X181030982Y-81916666D01*
X181022499Y-81873271D01*
X181014002Y-81829905D01*
X181005490Y-81786572D01*
X180996964Y-81743267D01*
X180988424Y-81699994D01*
X180979869Y-81656750D01*
X180971300Y-81613538D01*
X180962716Y-81570355D01*
X180954118Y-81527205D01*
X180945506Y-81484082D01*
X180936880Y-81440992D01*
X180928239Y-81397931D01*
X180919584Y-81354902D01*
X180910914Y-81311901D01*
X180902231Y-81268932D01*
X180893533Y-81225992D01*
X180884821Y-81183084D01*
X180876094Y-81140205D01*
X180867354Y-81097357D01*
X180858599Y-81054538D01*
X180849830Y-81011752D01*
X180841046Y-80968993D01*
X180832249Y-80926267D01*
X180823437Y-80883569D01*
X180814611Y-80840903D01*
X180805771Y-80798265D01*
X180796917Y-80755660D01*
X180788048Y-80713082D01*
X180779166Y-80670537D01*
X180770269Y-80628020D01*
X180761359Y-80585535D01*
X180752434Y-80543078D01*
X180743495Y-80500654D01*
X180734542Y-80458257D01*
X180725575Y-80415893D01*
X180716593Y-80373556D01*
X180707598Y-80331252D01*
X180698588Y-80288975D01*
X180689565Y-80246731D01*
X180680528Y-80204514D01*
X180671476Y-80162330D01*
X180662411Y-80120173D01*
X180653331Y-80078049D01*
X180644238Y-80035952D01*
X180635131Y-79993888D01*
X180626009Y-79951851D01*
X180616874Y-79909846D01*
X180607724Y-79867869D01*
X180598561Y-79825924D01*
X180589384Y-79784007D01*
X180580193Y-79742122D01*
X180570987Y-79700264D01*
X180561768Y-79658438D01*
X180552535Y-79616640D01*
X180543289Y-79574874D01*
X180534028Y-79533136D01*
X180524753Y-79491430D01*
X180515465Y-79449751D01*
X180506163Y-79408104D01*
X180496846Y-79366484D01*
X180487517Y-79324897D01*
X180478173Y-79283337D01*
X180468815Y-79241809D01*
X180459444Y-79200308D01*
X180450059Y-79158840D01*
X180440659Y-79117398D01*
X180431247Y-79075989D01*
X180421820Y-79034607D01*
X180412380Y-78993257D01*
X180402926Y-78951934D01*
X180393458Y-78910643D01*
X180383977Y-78869379D01*
X180374482Y-78828147D01*
X180364972Y-78786942D01*
X180355450Y-78745770D01*
X180345913Y-78704624D01*
X180336364Y-78663510D01*
X180326800Y-78622424D01*
X180317223Y-78581369D01*
X180307631Y-78540341D01*
X180298027Y-78499345D01*
X180288408Y-78458376D01*
X180278777Y-78417439D01*
X180269131Y-78376529D01*
X180259472Y-78335651D01*
X180249799Y-78294800D01*
X180240113Y-78253980D01*
X180230413Y-78213188D01*
X180220699Y-78172427D01*
X180210972Y-78131693D01*
X180201232Y-78090991D01*
X180191477Y-78050316D01*
X180181710Y-78009672D01*
X180171928Y-77969056D01*
X180162134Y-77928471D01*
X180152325Y-77887913D01*
X180142504Y-77847386D01*
X180132668Y-77806886D01*
X180122820Y-77766418D01*
X180112957Y-77725977D01*
X180103082Y-77685567D01*
X180093193Y-77645184D01*
X180083290Y-77604833D01*
X180073374Y-77564508D01*
X180063445Y-77524215D01*
X180053502Y-77483949D01*
X180043546Y-77443714D01*
X180033576Y-77403506D01*
X180023593Y-77363329D01*
X180013597Y-77323179D01*
X180003587Y-77283060D01*
X179993564Y-77242968D01*
X179983528Y-77202908D01*
X179973477Y-77162874D01*
X179963415Y-77122871D01*
X179953338Y-77082895D01*
X179943248Y-77042950D01*
X179933145Y-77003032D01*
X179923029Y-76963146D01*
X179912899Y-76923285D01*
X179902756Y-76883457D01*
X179892600Y-76843654D01*
X179882431Y-76803883D01*
X179872248Y-76764139D01*
X179862052Y-76724425D01*
X179851842Y-76684738D01*
X179841620Y-76645083D01*
X179831384Y-76605453D01*
X179821136Y-76565855D01*
X179810873Y-76526284D01*
X179800598Y-76486743D01*
X179790310Y-76447229D01*
X179780009Y-76407746D01*
X179769693Y-76368290D01*
X179759366Y-76328864D01*
X179749025Y-76289465D01*
X179738671Y-76250097D01*
X179728303Y-76210756D01*
X179717923Y-76171445D01*
X179707529Y-76132161D01*
X179697123Y-76092907D01*
X179686703Y-76053680D01*
X179676270Y-76014484D01*
X179665824Y-75975314D01*
X179655366Y-75936176D01*
X179644893Y-75897063D01*
X179634409Y-75857981D01*
X179623910Y-75818926D01*
X179613399Y-75779901D01*
X179602875Y-75740903D01*
X179592338Y-75701935D01*
X179581788Y-75662994D01*
X179571225Y-75624084D01*
X179560649Y-75585199D01*
X179550060Y-75546346D01*
X179539458Y-75507518D01*
X179528843Y-75468722D01*
X179518215Y-75429951D01*
X179507574Y-75391211D01*
X179496920Y-75352497D01*
X179486254Y-75313815D01*
X179475574Y-75275157D01*
X179464882Y-75236531D01*
X179454176Y-75197931D01*
X179443458Y-75159362D01*
X179432726Y-75120818D01*
X179421983Y-75082305D01*
X179411225Y-75043818D01*
X179400456Y-75005362D01*
X179389673Y-74966931D01*
X179378878Y-74928532D01*
X179368069Y-74890158D01*
X179357249Y-74851814D01*
X179346414Y-74813497D01*
X179335568Y-74775210D01*
X179324708Y-74736949D01*
X179313836Y-74698719D01*
X179302951Y-74660514D01*
X179292053Y-74622340D01*
X179281143Y-74584191D01*
X179270220Y-74546074D01*
X179259283Y-74507981D01*
X179248335Y-74469920D01*
X179237373Y-74431884D01*
X179226399Y-74393879D01*
X179215412Y-74355899D01*
X179204413Y-74317950D01*
X179193400Y-74280026D01*
X179182376Y-74242133D01*
X179171338Y-74204265D01*
X179160288Y-74166428D01*
X179149224Y-74128616D01*
X179138149Y-74090835D01*
X179127061Y-74053079D01*
X179115960Y-74015354D01*
X179104846Y-73977654D01*
X179093721Y-73939985D01*
X179082582Y-73902341D01*
X179071431Y-73864727D01*
X179060267Y-73827139D01*
X179049091Y-73789581D01*
X179037901Y-73752049D01*
X179026700Y-73714547D01*
X179015486Y-73677070D01*
X179004259Y-73639624D01*
X178993020Y-73602202D01*
X178981769Y-73564812D01*
X178970504Y-73527446D01*
X178959228Y-73490111D01*
X178947938Y-73452801D01*
X178936637Y-73415521D01*
X178925322Y-73378267D01*
X178913996Y-73341043D01*
X178902657Y-73303843D01*
X178891305Y-73266675D01*
X178879941Y-73229531D01*
X178868565Y-73192417D01*
X178857176Y-73155329D01*
X178845775Y-73118271D01*
X178834361Y-73081238D01*
X178822935Y-73044235D01*
X178811496Y-73007257D01*
X178800046Y-72970309D01*
X178788582Y-72933386D01*
X178777107Y-72896494D01*
X178765618Y-72859626D01*
X178754118Y-72822789D01*
X178742605Y-72785976D01*
X178731081Y-72749194D01*
X178719543Y-72712437D01*
X178707993Y-72675709D01*
X178696431Y-72639007D01*
X178684857Y-72602335D01*
X178673270Y-72565687D01*
X178661672Y-72529069D01*
X178650060Y-72492477D01*
X178638437Y-72455914D01*
X178626801Y-72419376D01*
X178615153Y-72382868D01*
X178603493Y-72346385D01*
X178591821Y-72309932D01*
X178580135Y-72273504D01*
X178568439Y-72237106D01*
X178556729Y-72200732D01*
X178545009Y-72164388D01*
X178533274Y-72128069D01*
X178521529Y-72091780D01*
X178509771Y-72055515D01*
X178498001Y-72019281D01*
X178486219Y-71983071D01*
X178474425Y-71946891D01*
X178462618Y-71910735D01*
X178450799Y-71874610D01*
X178438968Y-71838509D01*
X178427126Y-71802438D01*
X178415270Y-71766391D01*
X178403403Y-71730374D01*
X178391524Y-71694381D01*
X178379633Y-71658419D01*
X178367729Y-71622481D01*
X178355814Y-71586573D01*
X178343886Y-71550689D01*
X178331946Y-71514835D01*
X178319994Y-71479005D01*
X178308031Y-71443205D01*
X178296055Y-71407429D01*
X178284067Y-71371684D01*
X178272067Y-71335962D01*
X178260056Y-71300270D01*
X178248031Y-71264603D01*
X178235996Y-71228965D01*
X178223948Y-71193351D01*
X178211888Y-71157768D01*
X178199816Y-71122208D01*
X178187733Y-71086678D01*
X178175637Y-71051172D01*
X178163529Y-71015697D01*
X178151409Y-70980244D01*
X178139278Y-70944822D01*
X178127134Y-70909424D01*
X178114980Y-70874056D01*
X178102812Y-70838711D01*
X178090633Y-70803397D01*
X178078441Y-70768106D01*
X178066239Y-70732845D01*
X178054024Y-70697608D01*
X178041798Y-70662400D01*
X178029558Y-70627217D01*
X178017309Y-70592063D01*
X178005046Y-70556933D01*
X177992772Y-70521833D01*
X177980486Y-70486756D01*
X177968189Y-70451709D01*
X177955879Y-70416686D01*
X177943558Y-70381692D01*
X177931224Y-70346723D01*
X177918880Y-70311783D01*
X177906522Y-70276866D01*
X177894154Y-70241979D01*
X177881774Y-70207116D01*
X177869382Y-70172283D01*
X177856978Y-70137473D01*
X177844563Y-70102693D01*
X177832135Y-70067936D01*
X177819697Y-70033209D01*
X177807245Y-69998505D01*
X177794784Y-69963831D01*
X177782309Y-69929180D01*
X177769824Y-69894560D01*
X177757326Y-69859962D01*
X177744817Y-69825394D01*
X177732296Y-69790850D01*
X177719764Y-69756335D01*
X177707219Y-69721843D01*
X177694664Y-69687381D01*
X177682096Y-69652943D01*
X177669517Y-69618534D01*
X177656926Y-69584148D01*
X177644324Y-69549792D01*
X177631710Y-69515458D01*
X177619085Y-69481155D01*
X177606447Y-69446875D01*
X177593799Y-69412624D01*
X177581138Y-69378396D01*
X177568467Y-69344198D01*
X177555782Y-69310023D01*
X177543088Y-69275878D01*
X177530381Y-69241756D01*
X177517663Y-69207663D01*
X177504933Y-69173593D01*
X177492193Y-69139553D01*
X177479439Y-69105535D01*
X177466676Y-69071548D01*
X177453899Y-69037583D01*
X177441113Y-69003648D01*
X177428313Y-68969735D01*
X177415504Y-68935852D01*
X177402682Y-68901992D01*
X177389849Y-68868162D01*
X177377004Y-68834354D01*
X177364149Y-68800575D01*
X177351280Y-68766820D01*
X177338402Y-68733094D01*
X177325511Y-68699391D01*
X177312610Y-68665717D01*
X177299696Y-68632066D01*
X177286772Y-68598444D01*
X177273836Y-68564845D01*
X177260889Y-68531276D01*
X177247930Y-68497729D01*
X177234960Y-68464211D01*
X177221978Y-68430716D01*
X177208986Y-68397251D01*
X177195981Y-68363808D01*
X177182966Y-68330394D01*
X177169938Y-68297003D01*
X177156901Y-68263642D01*
X177143851Y-68230303D01*
X177130790Y-68196993D01*
X177117717Y-68163706D01*
X177104635Y-68130448D01*
X177091539Y-68097212D01*
X177078434Y-68064006D01*
X177065316Y-68030823D01*
X177052188Y-67997668D01*
X177039047Y-67964536D01*
X177025897Y-67931434D01*
X177012734Y-67898353D01*
X176999561Y-67865302D01*
X176986375Y-67832273D01*
X176973180Y-67799274D01*
X176959972Y-67766296D01*
X176946754Y-67733349D01*
X176933523Y-67700423D01*
X176920283Y-67667527D01*
X176907030Y-67634652D01*
X176893767Y-67601807D01*
X176880492Y-67568984D01*
X176867207Y-67536191D01*
X176853910Y-67503419D01*
X176840602Y-67470677D01*
X176827282Y-67437957D01*
X176813953Y-67405266D01*
X176800611Y-67372597D01*
X176787259Y-67339957D01*
X176773894Y-67307340D01*
X176760520Y-67274751D01*
X176747134Y-67242185D01*
X176733737Y-67209648D01*
X176720328Y-67177132D01*
X176706910Y-67144646D01*
X176693479Y-67112182D01*
X176680038Y-67079747D01*
X176666585Y-67047333D01*
X176653122Y-67014949D01*
X176639647Y-66982587D01*
X176626162Y-66950254D01*
X176612665Y-66917943D01*
X176599158Y-66885661D01*
X176585639Y-66853400D01*
X176572110Y-66821169D01*
X176558568Y-66788959D01*
X176545017Y-66756779D01*
X176531454Y-66724620D01*
X176517881Y-66692491D01*
X176504296Y-66660383D01*
X176490701Y-66628304D01*
X176477093Y-66596246D01*
X176463477Y-66564218D01*
X176449847Y-66532212D01*
X176436209Y-66500234D01*
X176422557Y-66468278D01*
X176408897Y-66436351D01*
X176395224Y-66404446D01*
X176381542Y-66372570D01*
X176367847Y-66340715D01*
X176354143Y-66308889D01*
X176340426Y-66277085D01*
X176326700Y-66245309D01*
X176312962Y-66213555D01*
X176299214Y-66181831D01*
X176285454Y-66150127D01*
X176271684Y-66118452D01*
X176257902Y-66086799D01*
X176244111Y-66055175D01*
X176230308Y-66023572D01*
X176216495Y-65991998D01*
X176202670Y-65960446D01*
X176188835Y-65928922D01*
X176174988Y-65897420D01*
X176161132Y-65865946D01*
X176147264Y-65834494D01*
X176133386Y-65803071D01*
X176119496Y-65771668D01*
X176105597Y-65740295D01*
X176091685Y-65708943D01*
X176077765Y-65677620D01*
X176063831Y-65646318D01*
X176049889Y-65615045D01*
X176035934Y-65583793D01*
X176021971Y-65552570D01*
X176007995Y-65521368D01*
X175994010Y-65490195D01*
X175980012Y-65459042D01*
X175966005Y-65427919D01*
X175951986Y-65396817D01*
X175937958Y-65365743D01*
X175923918Y-65334691D01*
X175909869Y-65303667D01*
X175895807Y-65272664D01*
X175881736Y-65241690D01*
X175867653Y-65210737D01*
X175853561Y-65179813D01*
X175839457Y-65148910D01*
X175825343Y-65118035D01*
X175811218Y-65087181D01*
X175797083Y-65056357D01*
X175782936Y-65025552D01*
X175768780Y-64994777D01*
X175754612Y-64964022D01*
X175740435Y-64933297D01*
X175726246Y-64902591D01*
X175712048Y-64871915D01*
X175697837Y-64841259D01*
X175683618Y-64810632D01*
X175669386Y-64780026D01*
X175655146Y-64749449D01*
X175640893Y-64718892D01*
X175626631Y-64688364D01*
X175612357Y-64657856D01*
X175598074Y-64627377D01*
X175583779Y-64596919D01*
X175569476Y-64566489D01*
X175555160Y-64536080D01*
X175540835Y-64505700D01*
X175526498Y-64475340D01*
X175512152Y-64445009D01*
X175497794Y-64414698D01*
X175483427Y-64384416D01*
X175469048Y-64354154D01*
X175454661Y-64323921D01*
X175440260Y-64293708D01*
X175425852Y-64263524D01*
X175411431Y-64233361D01*
X175397002Y-64203226D01*
X175382560Y-64173111D01*
X175368109Y-64143025D01*
X175353647Y-64112959D01*
X175339176Y-64082922D01*
X175324692Y-64052905D01*
X175310200Y-64022917D01*
X175295696Y-63992949D01*
X175281183Y-63963010D01*
X175266658Y-63933091D01*
X175252124Y-63903200D01*
X175237578Y-63873330D01*
X175223024Y-63843488D01*
X175208457Y-63813666D01*
X175193882Y-63783873D01*
X175179295Y-63754100D01*
X175164699Y-63724355D01*
X175150091Y-63694631D01*
X175135475Y-63664935D01*
X175120846Y-63635259D01*
X175106209Y-63605611D01*
X175091560Y-63575984D01*
X175076902Y-63546385D01*
X175062232Y-63516806D01*
X175047554Y-63487256D01*
X175032863Y-63457726D01*
X175018165Y-63428224D01*
X175003453Y-63398742D01*
X174988734Y-63369288D01*
X174974002Y-63339854D01*
X174959263Y-63310449D01*
X174944510Y-63281064D01*
X174929750Y-63251707D01*
X174914977Y-63222370D01*
X174900197Y-63193061D01*
X174885404Y-63163772D01*
X174870602Y-63134512D01*
X174855789Y-63105271D01*
X174840967Y-63076059D01*
X174826133Y-63046867D01*
X174811291Y-63017703D01*
X174796437Y-62988558D01*
X174781575Y-62959442D01*
X174766700Y-62930346D01*
X174751817Y-62901278D01*
X174736922Y-62872230D01*
X174722019Y-62843210D01*
X174707104Y-62814210D01*
X174692180Y-62785238D01*
X174677245Y-62756285D01*
X174662301Y-62727361D01*
X174647345Y-62698457D01*
X174632381Y-62669581D01*
X174617405Y-62640724D01*
X174602421Y-62611896D01*
X174587424Y-62583087D01*
X174572420Y-62554306D01*
X174557404Y-62525545D01*
X174542379Y-62496813D01*
X174527342Y-62468099D01*
X174512298Y-62439414D01*
X174497241Y-62410749D01*
X174482176Y-62382111D01*
X174467099Y-62353493D01*
X174452015Y-62324904D01*
X174436917Y-62296333D01*
X174421813Y-62267791D01*
X174406695Y-62239268D01*
X174391570Y-62210774D01*
X174376433Y-62182299D01*
X174361288Y-62153852D01*
X174346131Y-62125424D01*
X174330966Y-62097024D01*
X174315789Y-62068644D01*
X174300604Y-62040292D01*
X174285407Y-62011959D01*
X174270202Y-61983654D01*
X174239760Y-61927111D01*
X174209278Y-61870663D01*
X174178756Y-61814309D01*
X174148195Y-61758049D01*
X174117594Y-61701884D01*
X174086953Y-61645814D01*
X174056273Y-61589837D01*
X174025553Y-61533955D01*
X173994794Y-61478167D01*
X173963995Y-61422472D01*
X173933156Y-61366872D01*
X173902279Y-61311365D01*
X173871362Y-61255952D01*
X173840406Y-61200633D01*
X173809410Y-61145407D01*
X173778375Y-61090275D01*
X173747302Y-61035237D01*
X173716189Y-60980291D01*
X173685037Y-60925439D01*
X173653846Y-60870680D01*
X173622616Y-60816014D01*
X173591347Y-60761441D01*
X173560039Y-60706961D01*
X173528693Y-60652574D01*
X173497307Y-60598280D01*
X173465883Y-60544078D01*
X173434421Y-60489969D01*
X173402919Y-60435953D01*
X173371379Y-60382029D01*
X173339801Y-60328198D01*
X173308183Y-60274458D01*
X173276528Y-60220811D01*
X173244834Y-60167257D01*
X173213102Y-60113794D01*
X173181331Y-60060423D01*
X173149522Y-60007144D01*
X173117675Y-59953957D01*
X173085789Y-59900862D01*
X173053866Y-59847859D01*
X173021904Y-59794947D01*
X172989904Y-59742127D01*
X172957866Y-59689398D01*
X172925790Y-59636760D01*
X172893677Y-59584214D01*
X172861525Y-59531760D01*
X172829335Y-59479396D01*
X172797108Y-59427123D01*
X172764843Y-59374942D01*
X172732540Y-59322851D01*
X172700199Y-59270852D01*
X172667821Y-59218943D01*
X172635405Y-59167125D01*
X172602952Y-59115397D01*
X172570461Y-59063760D01*
X172537932Y-59012214D01*
X172505366Y-58960758D01*
X172472763Y-58909392D01*
X172440122Y-58858117D01*
X172407444Y-58806932D01*
X172374729Y-58755837D01*
X172341977Y-58704832D01*
X172309187Y-58653917D01*
X172276360Y-58603092D01*
X172243496Y-58552357D01*
X172210595Y-58501712D01*
X172177657Y-58451156D01*
X172144682Y-58400691D01*
X172111670Y-58350314D01*
X172078621Y-58300027D01*
X172045535Y-58249830D01*
X172012413Y-58199722D01*
X171979253Y-58149703D01*
X171946057Y-58099774D01*
X171912824Y-58049933D01*
X171879555Y-58000182D01*
X171846249Y-57950520D01*
X171812906Y-57900946D01*
X171779527Y-57851462D01*
X171746111Y-57802066D01*
X171712659Y-57752759D01*
X171679170Y-57703541D01*
X171645645Y-57654412D01*
X171612083Y-57605370D01*
X171578486Y-57556418D01*
X171544852Y-57507554D01*
X171511182Y-57458778D01*
X171477475Y-57410090D01*
X171443732Y-57361491D01*
X171409954Y-57312979D01*
X171376139Y-57264556D01*
X171342288Y-57216221D01*
X171308401Y-57167973D01*
X171274479Y-57119814D01*
X171240520Y-57071742D01*
X171206525Y-57023758D01*
X171172495Y-56975862D01*
X171138429Y-56928053D01*
X171104327Y-56880332D01*
X171070189Y-56832698D01*
X171036015Y-56785152D01*
X171001806Y-56737693D01*
X170967562Y-56690321D01*
X170933281Y-56643037D01*
X170898965Y-56595840D01*
X170864614Y-56548729D01*
X170830227Y-56501706D01*
X170795805Y-56454770D01*
X170761348Y-56407921D01*
X170726855Y-56361158D01*
X170692326Y-56314482D01*
X170657763Y-56267893D01*
X170623164Y-56221391D01*
X170588530Y-56174975D01*
X170553861Y-56128646D01*
X170519156Y-56082403D01*
X170484417Y-56036246D01*
X170449643Y-55990176D01*
X170414833Y-55944193D01*
X170379989Y-55898295D01*
X170345109Y-55852483D01*
X170310195Y-55806758D01*
X170275246Y-55761119D01*
X170240262Y-55715565D01*
X170205243Y-55670098D01*
X170170190Y-55624716D01*
X170135101Y-55579420D01*
X170099978Y-55534210D01*
X170064821Y-55489086D01*
X170029628Y-55444047D01*
X169994402Y-55399094D01*
X169959140Y-55354226D01*
X169923844Y-55309444D01*
X169888514Y-55264747D01*
X169853149Y-55220135D01*
X169817750Y-55175609D01*
X169782317Y-55131168D01*
X169746849Y-55086812D01*
X169711347Y-55042541D01*
X169675810Y-54998355D01*
X169640240Y-54954254D01*
X169604635Y-54910238D01*
X169568996Y-54866307D01*
X169533323Y-54822461D01*
X169497616Y-54778699D01*
X169461875Y-54735022D01*
X169426100Y-54691430D01*
X169390291Y-54647923D01*
X169354448Y-54604500D01*
X169318571Y-54561161D01*
X169282660Y-54517907D01*
X169246715Y-54474738D01*
X169210737Y-54431652D01*
X169174725Y-54388651D01*
X169138679Y-54345734D01*
X169102600Y-54302902D01*
X169066487Y-54260153D01*
X169030340Y-54217489D01*
X168994159Y-54174908D01*
X168957946Y-54132411D01*
X168921698Y-54089999D01*
X168885417Y-54047670D01*
X168849103Y-54005425D01*
X168812755Y-53963264D01*
X168776374Y-53921186D01*
X168739960Y-53879193D01*
X168703512Y-53837282D01*
X168667032Y-53795456D01*
X168630517Y-53753712D01*
X168593970Y-53712053D01*
X168557390Y-53670476D01*
X168520776Y-53628983D01*
X168484130Y-53587574D01*
X168447450Y-53546247D01*
X168410737Y-53505004D01*
X168373992Y-53463844D01*
X168337213Y-53422767D01*
X168300402Y-53381773D01*
X168263558Y-53340862D01*
X168226680Y-53300035D01*
X168189770Y-53259290D01*
X168152828Y-53218628D01*
X168115852Y-53178048D01*
X168078844Y-53137552D01*
X168041804Y-53097138D01*
X168004730Y-53056807D01*
X167967624Y-53016559D01*
X167930486Y-52976393D01*
X167893315Y-52936310D01*
X167856112Y-52896310D01*
X167818876Y-52856391D01*
X167781608Y-52816556D01*
X167744307Y-52776802D01*
X167706974Y-52737131D01*
X167669609Y-52697543D01*
X167632211Y-52658036D01*
X167594782Y-52618612D01*
X167557320Y-52579270D01*
X167519826Y-52540010D01*
X167482300Y-52500832D01*
X167444742Y-52461737D01*
X167407151Y-52422723D01*
X167369529Y-52383791D01*
X167331875Y-52344941D01*
X167294189Y-52306173D01*
X167256471Y-52267487D01*
X167218721Y-52228883D01*
X167180939Y-52190360D01*
X167143126Y-52151920D01*
X167105281Y-52113560D01*
X167067404Y-52075283D01*
X167029495Y-52037087D01*
X166991555Y-51998973D01*
X166953584Y-51960940D01*
X166915580Y-51922989D01*
X166877545Y-51885119D01*
X166839479Y-51847331D01*
X166801381Y-51809624D01*
X166763252Y-51771998D01*
X166725092Y-51734454D01*
X166686900Y-51696991D01*
X166648677Y-51659609D01*
X166610422Y-51622309D01*
X166572137Y-51585089D01*
X166533820Y-51547951D01*
X166495472Y-51510894D01*
X166457093Y-51473918D01*
X166418683Y-51437023D01*
X166380241Y-51400209D01*
X166341769Y-51363476D01*
X166303266Y-51326823D01*
X166264732Y-51290252D01*
X166226167Y-51253762D01*
X166187572Y-51217352D01*
X166148945Y-51181024D01*
X166110288Y-51144776D01*
X166071600Y-51108609D01*
X166032881Y-51072522D01*
X165994132Y-51036516D01*
X165955352Y-51000591D01*
X165916542Y-50964747D01*
X165877701Y-50928983D01*
X165838829Y-50893300D01*
X165799928Y-50857697D01*
X165760995Y-50822175D01*
X165722033Y-50786733D01*
X165683040Y-50751372D01*
X165644017Y-50716091D01*
X165604963Y-50680890D01*
X165565880Y-50645770D01*
X165526766Y-50610730D01*
X165487622Y-50575771D01*
X165448448Y-50540891D01*
X165409245Y-50506093D01*
X165370011Y-50471374D01*
X165330747Y-50436735D01*
X165291453Y-50402177D01*
X165252130Y-50367699D01*
X165212776Y-50333301D01*
X165173393Y-50298983D01*
X165133980Y-50264745D01*
X165094538Y-50230588D01*
X165055066Y-50196510D01*
X165015564Y-50162512D01*
X164976033Y-50128595D01*
X164936472Y-50094757D01*
X164896882Y-50060999D01*
X164857262Y-50027321D01*
X164817613Y-49993723D01*
X164777935Y-49960206D01*
X164738227Y-49926767D01*
X164698490Y-49893409D01*
X164658724Y-49860131D01*
X164618929Y-49826932D01*
X164579105Y-49793813D01*
X164539252Y-49760774D01*
X164499370Y-49727815D01*
X164459458Y-49694935D01*
X164419518Y-49662136D01*
X164379549Y-49629415D01*
X164339552Y-49596775D01*
X164299525Y-49564214D01*
X164259470Y-49531733D01*
X164219386Y-49499332D01*
X164179274Y-49467010D01*
X164139133Y-49434767D01*
X164098963Y-49402605D01*
X164058765Y-49370522D01*
X164018539Y-49338518D01*
X163978284Y-49306594D01*
X163938001Y-49274750D01*
X163897690Y-49242985D01*
X163857351Y-49211299D01*
X163816983Y-49179693D01*
X163776587Y-49148167D01*
X163736163Y-49116720D01*
X163695712Y-49085352D01*
X163655232Y-49054064D01*
X163614725Y-49022855D01*
X163574189Y-48991726D01*
X163533626Y-48960676D01*
X163493035Y-48929706D01*
X163452417Y-48898815D01*
X163411771Y-48868003D01*
X163371097Y-48837271D01*
X163330396Y-48806618D01*
X163289667Y-48776044D01*
X163248911Y-48745550D01*
X163208128Y-48715135D01*
X163167318Y-48684800D01*
X163126480Y-48654544D01*
X163085615Y-48624367D01*
X163044723Y-48594269D01*
X163003804Y-48564251D01*
X162962858Y-48534312D01*
X162921885Y-48504453D01*
X162880886Y-48474672D01*
X162839859Y-48444971D01*
X162798806Y-48415350D01*
X162757726Y-48385807D01*
X162716620Y-48356344D01*
X162675487Y-48326960D01*
X162634328Y-48297656D01*
X162593142Y-48268430D01*
X162551930Y-48239284D01*
X162510691Y-48210218D01*
X162469427Y-48181230D01*
X162428136Y-48152322D01*
X162386819Y-48123493D01*
X162345477Y-48094743D01*
X162304108Y-48066073D01*
X162262713Y-48037482D01*
X162221293Y-48008970D01*
X162179847Y-47980538D01*
X162138375Y-47952184D01*
X162096878Y-47923911D01*
X162055355Y-47895716D01*
X162013807Y-47867601D01*
X161972234Y-47839565D01*
X161930635Y-47811608D01*
X161889011Y-47783730D01*
X161847362Y-47755932D01*
X161805687Y-47728214D01*
X161763988Y-47700574D01*
X161722264Y-47673014D01*
X161680515Y-47645533D01*
X161638741Y-47618132D01*
X161596943Y-47590810D01*
X161555120Y-47563567D01*
X161513273Y-47536404D01*
X161471401Y-47509320D01*
X161429505Y-47482315D01*
X161387584Y-47455390D01*
X161345640Y-47428544D01*
X161303671Y-47401778D01*
X161261678Y-47375091D01*
X161219662Y-47348484D01*
X161177621Y-47321956D01*
X161135557Y-47295507D01*
X161093469Y-47269138D01*
X161051357Y-47242848D01*
X161009223Y-47216638D01*
X160967064Y-47190508D01*
X160924883Y-47164457D01*
X160882678Y-47138485D01*
X160840450Y-47112594D01*
X160798199Y-47086781D01*
X160755925Y-47061049D01*
X160713628Y-47035396D01*
X160671309Y-47009822D01*
X160628967Y-46984328D01*
X160586602Y-46958914D01*
X160544215Y-46933580D01*
X160501806Y-46908325D01*
X160459374Y-46883150D01*
X160416920Y-46858055D01*
X160374445Y-46833039D01*
X160331947Y-46808104D01*
X160289427Y-46783248D01*
X160246886Y-46758472D01*
X160204323Y-46733776D01*
X160161739Y-46709159D01*
X160119133Y-46684623D01*
X160076507Y-46660166D01*
X160033858Y-46635790D01*
X159991189Y-46611493D01*
X159948499Y-46587276D01*
X159905788Y-46563140D01*
X159863057Y-46539083D01*
X159820305Y-46515107D01*
X159777532Y-46491210D01*
X159734739Y-46467394D01*
X159691926Y-46443658D01*
X159649093Y-46420002D01*
X159606239Y-46396426D01*
X159563366Y-46372931D01*
X159520474Y-46349515D01*
X159477561Y-46326181D01*
X159434629Y-46302926D01*
X159391678Y-46279752D01*
X159348708Y-46256658D01*
X159305719Y-46233644D01*
X159262710Y-46210711D01*
X159219683Y-46187859D01*
X159176637Y-46165087D01*
X159133573Y-46142395D01*
X159090490Y-46119784D01*
X159047389Y-46097254D01*
X159004270Y-46074805D01*
X158961133Y-46052436D01*
X158917979Y-46030147D01*
X158874806Y-46007940D01*
X158831617Y-45985813D01*
X158788409Y-45963768D01*
X158745185Y-45941803D01*
X158701944Y-45919919D01*
X158658685Y-45898116D01*
X158615410Y-45876394D01*
X158572119Y-45854753D01*
X158528811Y-45833193D01*
X158485487Y-45811714D01*
X158442146Y-45790316D01*
X158398790Y-45769000D01*
X158355418Y-45747765D01*
X158312031Y-45726611D01*
X158268628Y-45705538D01*
X158225210Y-45684547D01*
X158181777Y-45663637D01*
X158138329Y-45642809D01*
X158094867Y-45622062D01*
X158051390Y-45601397D01*
X158007898Y-45580813D01*
X157964393Y-45560311D01*
X157920873Y-45539891D01*
X157877340Y-45519552D01*
X157833794Y-45499296D01*
X157790234Y-45479121D01*
X157746661Y-45459028D01*
X157703075Y-45439017D01*
X157659476Y-45419088D01*
X157615865Y-45399241D01*
X157572241Y-45379476D01*
X157528605Y-45359793D01*
X157484958Y-45340193D01*
X157441299Y-45320675D01*
X157397628Y-45301239D01*
X157353946Y-45281885D01*
X157310253Y-45262614D01*
X157266549Y-45243426D01*
X157222835Y-45224320D01*
X157179110Y-45205296D01*
X157135376Y-45186355D01*
X157091631Y-45167497D01*
X157047877Y-45148722D01*
X157004113Y-45130030D01*
X156960341Y-45111420D01*
X156916559Y-45092894D01*
X156872769Y-45074450D01*
X156828971Y-45056090D01*
X156785164Y-45037813D01*
X156741350Y-45019619D01*
X156697528Y-45001508D01*
X156653699Y-44983480D01*
X156609862Y-44965536D01*
X156566019Y-44947676D01*
X156522170Y-44929899D01*
X156478314Y-44912206D01*
X156434453Y-44894596D01*
X156390586Y-44877070D01*
X156346713Y-44859628D01*
X156302836Y-44842270D01*
X156258953Y-44824996D01*
X156215067Y-44807805D01*
X156171176Y-44790699D01*
X156127282Y-44773677D01*
X156083384Y-44756740D01*
X156039482Y-44739886D01*
X155995579Y-44723117D01*
X155951672Y-44706433D01*
X155907764Y-44689833D01*
X155863853Y-44673317D01*
X155819941Y-44656887D01*
X155776028Y-44640541D01*
X155732115Y-44624280D01*
X155688201Y-44608104D01*
X155644287Y-44592013D01*
X155600373Y-44576007D01*
X155556460Y-44560086D01*
X155512548Y-44544251D01*
X155468637Y-44528501D01*
X155424728Y-44512836D01*
X155380822Y-44497257D01*
X155336918Y-44481763D01*
X155293017Y-44466355D01*
X155249120Y-44451033D01*
X155205227Y-44435797D01*
X155161338Y-44420646D01*
X155117453Y-44405582D01*
X155073574Y-44390604D01*
X155029701Y-44375712D01*
X154985833Y-44360906D01*
X154941972Y-44346187D01*
X154898119Y-44331554D01*
X154854272Y-44317007D01*
X154810434Y-44302548D01*
X154766603Y-44288175D01*
X154722782Y-44273889D01*
X154678970Y-44259690D01*
X154635169Y-44245578D01*
X154591377Y-44231553D01*
X154547597Y-44217616D01*
X154503827Y-44203765D01*
X154460070Y-44190002D01*
X154416326Y-44176327D01*
X154372594Y-44162740D01*
X154328877Y-44149240D01*
X154285173Y-44135828D01*
X154241485Y-44122504D01*
X154197811Y-44109268D01*
X154154154Y-44096120D01*
X154110513Y-44083060D01*
X154066890Y-44070089D01*
X154023284Y-44057206D01*
X153979697Y-44044412D01*
X153936129Y-44031707D01*
X153892581Y-44019090D01*
X153849053Y-44006562D01*
X153805547Y-43994124D01*
X153762062Y-43981774D01*
X153718600Y-43969514D01*
X153675161Y-43957343D01*
X153631746Y-43945262D01*
X153588356Y-43933270D01*
X153544991Y-43921368D01*
X153501653Y-43909556D01*
X153458341Y-43897834D01*
X153415058Y-43886202D01*
X153371803Y-43874660D01*
X153328577Y-43863208D01*
X153285382Y-43851847D01*
X153242218Y-43840577D01*
X153199086Y-43829397D01*
X153155987Y-43818308D01*
X153112921Y-43807310D01*
X153069891Y-43796403D01*
X153026896Y-43785587D01*
X152983937Y-43774863D01*
X152941016Y-43764230D01*
X152898134Y-43753689D01*
X152855291Y-43743239D01*
X152812489Y-43732882D01*
X152769728Y-43722616D01*
X152727010Y-43712443D01*
X152684336Y-43702361D01*
X152641707Y-43692373D01*
X152599124Y-43682476D01*
X152556588Y-43672673D01*
X152514100Y-43662962D01*
X152471662Y-43653345D01*
X152429274Y-43643820D01*
X152386939Y-43634389D01*
X152344657Y-43625051D01*
X152302430Y-43615807D01*
X152260258Y-43606656D01*
X152218144Y-43597600D01*
X152176089Y-43588637D01*
X152134093Y-43579769D01*
X152092160Y-43570995D01*
X152050289Y-43562315D01*
X152008483Y-43553730D01*
X151966743Y-43545240D01*
X151925071Y-43536845D01*
X151883469Y-43528545D01*
X151841937Y-43520340D01*
X151800478Y-43512231D01*
X151759094Y-43504218D01*
X151717787Y-43496300D01*
X151676557Y-43488478D01*
X151635407Y-43480752D01*
X151594340Y-43473122D01*
X151553356Y-43465589D01*
X151512459Y-43458153D01*
X151471650Y-43450813D01*
X151430931Y-43443571D01*
X151390304Y-43436425D01*
X151349772Y-43429377D01*
X151309338Y-43422427D01*
X151269003Y-43415574D01*
X151228770Y-43408819D01*
X151188641Y-43402162D01*
X151148620Y-43395603D01*
X151108708Y-43389143D01*
X151068909Y-43382781D01*
X151029225Y-43376519D01*
X150989660Y-43370355D01*
X150950216Y-43364290D01*
X150910897Y-43358325D01*
X150871705Y-43352460D01*
X150832645Y-43346694D01*
X150793719Y-43341029D01*
X150754931Y-43335463D01*
X150716285Y-43329999D01*
X150677785Y-43324634D01*
X150639435Y-43319371D01*
X150601238Y-43314209D01*
X150563200Y-43309148D01*
X150525324Y-43304188D01*
X150487615Y-43299330D01*
X150450078Y-43294574D01*
X150412718Y-43289921D01*
X150375539Y-43285370D01*
X150338549Y-43280921D01*
X150301751Y-43276575D01*
X150265153Y-43272333D01*
X150228760Y-43268193D01*
X150192578Y-43264158D01*
X150156615Y-43260226D01*
X150120877Y-43256398D01*
X150085373Y-43252674D01*
X150050109Y-43249055D01*
X150015095Y-43245541D01*
X149980338Y-43242132D01*
X149945848Y-43238828D01*
X149911635Y-43235630D01*
X149877709Y-43232538D01*
X149844082Y-43229552D01*
X149810764Y-43226672D01*
X149777769Y-43223899D01*
X149745109Y-43221233D01*
X149712799Y-43218674D01*
X149680855Y-43216222D01*
X149649293Y-43213878D01*
X149618131Y-43211643D01*
X149587389Y-43209515D01*
X149557088Y-43207497D01*
X149527252Y-43205587D01*
X149497906Y-43203786D01*
X149469079Y-43202095D01*
X149440803Y-43200514D01*
X149413113Y-43199043D01*
X149386051Y-43197682D01*
X149359664Y-43196432D01*
X149334003Y-43195293D01*
X149309134Y-43194265D01*
X149285131Y-43193348D01*
X149262085Y-43192543D01*
X149240110Y-43191850D01*
X149219352Y-43191268D01*
X149200009Y-43190798D01*
X149182358Y-43190439D01*
X149166838Y-43190190D01*
X149154238Y-43190047D01*
X149146000Y-43190000D01*
D11*
X127860214Y-130190000D02*
G75*
G02*
X125031786Y-130190000I-1414214J0D01*
G01*
X125031786Y-130190000D02*
G75*
G02*
X127860214Y-130190000I1414214J0D01*
G01*
D10*
X146446000Y-86190000D02*
X151446000Y-91190000D01*
X167772300Y-49913666D02*
G75*
G02*
X129444292Y-48843288I-18530170J23231456D01*
G01*
X160446000Y-82190000D02*
X169446000Y-91190000D01*
D11*
X126860214Y-97190000D02*
G75*
G02*
X124031786Y-97190000I-1414214J0D01*
G01*
X124031786Y-97190000D02*
G75*
G02*
X126860214Y-97190000I1414214J0D01*
G01*
D10*
X154346000Y-143190000D02*
X156446000Y-143190000D01*
X172284381Y-54991438D02*
G75*
G02*
X126446000Y-55190000I-23042495J28365679D01*
G01*
D11*
X173860214Y-129190000D02*
G75*
G02*
X171031786Y-129190000I-1414214J0D01*
G01*
X171031786Y-129190000D02*
G75*
G02*
X173860214Y-129190000I1414214J0D01*
G01*
X134860214Y-110190000D02*
G75*
G02*
X132031786Y-110190000I-1414214J0D01*
G01*
X132031786Y-110190000D02*
G75*
G02*
X134860214Y-110190000I1414214J0D01*
G01*
D10*
X186349305Y-101749443D02*
G75*
G02*
X111176885Y-101749443I-37586210J23278169D01*
G01*
X113246000Y-107190000D02*
X113246104Y-107129901D01*
X113246228Y-107069840D01*
X113246371Y-107009817D01*
X113246535Y-106949831D01*
X113246719Y-106889882D01*
X113246922Y-106829972D01*
X113247145Y-106770098D01*
X113247389Y-106710263D01*
X113247652Y-106650464D01*
X113247934Y-106590704D01*
X113248237Y-106530980D01*
X113248559Y-106471295D01*
X113248902Y-106411646D01*
X113249264Y-106352036D01*
X113249645Y-106292462D01*
X113250047Y-106232926D01*
X113250468Y-106173427D01*
X113250909Y-106113966D01*
X113251370Y-106054542D01*
X113251850Y-105995156D01*
X113252350Y-105935807D01*
X113252870Y-105876495D01*
X113253410Y-105817220D01*
X113253969Y-105757983D01*
X113254548Y-105698783D01*
X113255146Y-105639620D01*
X113255764Y-105580494D01*
X113256402Y-105521406D01*
X113257059Y-105462355D01*
X113257736Y-105403341D01*
X113258432Y-105344364D01*
X113259148Y-105285425D01*
X113259883Y-105226522D01*
X113260638Y-105167657D01*
X113261413Y-105108829D01*
X113262207Y-105050038D01*
X113263020Y-104991284D01*
X113263853Y-104932567D01*
X113264706Y-104873888D01*
X113265578Y-104815245D01*
X113266469Y-104756639D01*
X113267380Y-104698070D01*
X113268310Y-104639539D01*
X113269260Y-104581044D01*
X113270229Y-104522586D01*
X113271217Y-104464166D01*
X113272225Y-104405782D01*
X113273252Y-104347435D01*
X113274298Y-104289125D01*
X113275364Y-104230852D01*
X113276449Y-104172616D01*
X113277554Y-104114416D01*
X113278678Y-104056254D01*
X113279821Y-103998128D01*
X113280983Y-103940039D01*
X113282164Y-103881987D01*
X113283365Y-103823972D01*
X113284585Y-103765994D01*
X113285825Y-103708052D01*
X113287083Y-103650147D01*
X113288361Y-103592279D01*
X113289658Y-103534447D01*
X113290974Y-103476653D01*
X113292309Y-103418895D01*
X113293663Y-103361173D01*
X113295037Y-103303488D01*
X113296429Y-103245840D01*
X113297841Y-103188229D01*
X113299272Y-103130654D01*
X113300722Y-103073116D01*
X113302191Y-103015614D01*
X113303679Y-102958149D01*
X113305186Y-102900720D01*
X113306712Y-102843328D01*
X113308257Y-102785973D01*
X113309822Y-102728654D01*
X113311405Y-102671371D01*
X113313007Y-102614125D01*
X113314628Y-102556916D01*
X113316268Y-102499743D01*
X113317928Y-102442606D01*
X113319606Y-102385506D01*
X113321303Y-102328442D01*
X113323019Y-102271414D01*
X113324753Y-102214423D01*
X113326507Y-102157468D01*
X113328280Y-102100550D01*
X113330071Y-102043668D01*
X113331882Y-101986822D01*
X113333711Y-101930013D01*
X113335559Y-101873240D01*
X113337426Y-101816503D01*
X113339311Y-101759802D01*
X113341216Y-101703138D01*
X113343139Y-101646509D01*
X113345081Y-101589918D01*
X113347042Y-101533362D01*
X113349021Y-101476842D01*
X113351020Y-101420359D01*
X113353037Y-101363912D01*
X113355072Y-101307500D01*
X113357127Y-101251125D01*
X113359200Y-101194786D01*
X113361292Y-101138484D01*
X113363402Y-101082217D01*
X113365531Y-101025986D01*
X113367679Y-100969792D01*
X113369845Y-100913633D01*
X113372030Y-100857510D01*
X113374234Y-100801424D01*
X113376456Y-100745373D01*
X113378697Y-100689359D01*
X113380956Y-100633380D01*
X113383234Y-100577437D01*
X113385531Y-100521530D01*
X113387846Y-100465660D01*
X113390179Y-100409825D01*
X113392531Y-100354026D01*
X113394902Y-100298262D01*
X113397291Y-100242535D01*
X113399698Y-100186843D01*
X113402124Y-100131188D01*
X113404569Y-100075568D01*
X113407032Y-100019984D01*
X113409513Y-99964435D01*
X113412013Y-99908923D01*
X113414531Y-99853446D01*
X113417067Y-99798005D01*
X113419622Y-99742600D01*
X113422195Y-99687230D01*
X113424787Y-99631896D01*
X113427397Y-99576598D01*
X113430025Y-99521335D01*
X113432672Y-99466108D01*
X113435337Y-99410917D01*
X113438020Y-99355761D01*
X113440721Y-99300641D01*
X113443441Y-99245557D01*
X113446179Y-99190508D01*
X113448935Y-99135494D01*
X113451710Y-99080516D01*
X113454503Y-99025574D01*
X113457314Y-98970667D01*
X113460143Y-98915796D01*
X113462990Y-98860960D01*
X113465855Y-98806160D01*
X113468739Y-98751395D01*
X113471641Y-98696666D01*
X113474561Y-98641971D01*
X113477499Y-98587313D01*
X113480455Y-98532689D01*
X113483430Y-98478102D01*
X113486422Y-98423549D01*
X113489433Y-98369032D01*
X113492461Y-98314550D01*
X113495508Y-98260104D01*
X113498573Y-98205692D01*
X113501655Y-98151317D01*
X113504756Y-98096976D01*
X113507875Y-98042671D01*
X113511012Y-97988400D01*
X113514166Y-97934166D01*
X113517339Y-97879966D01*
X113520530Y-97825802D01*
X113523739Y-97771672D01*
X113526965Y-97717578D01*
X113530210Y-97663519D01*
X113533472Y-97609496D01*
X113536753Y-97555507D01*
X113540051Y-97501554D01*
X113543367Y-97447635D01*
X113546701Y-97393752D01*
X113550053Y-97339903D01*
X113553423Y-97286090D01*
X113556810Y-97232312D01*
X113560216Y-97178569D01*
X113563639Y-97124861D01*
X113567080Y-97071188D01*
X113570539Y-97017549D01*
X113574015Y-96963946D01*
X113577510Y-96910378D01*
X113581022Y-96856845D01*
X113584552Y-96803346D01*
X113588099Y-96749883D01*
X113591665Y-96696454D01*
X113595248Y-96643061D01*
X113598848Y-96589702D01*
X113602467Y-96536378D01*
X113606103Y-96483089D01*
X113609757Y-96429835D01*
X113613428Y-96376615D01*
X113617117Y-96323431D01*
X113620824Y-96270280D01*
X113624548Y-96217165D01*
X113628290Y-96164085D01*
X113632049Y-96111039D01*
X113635826Y-96058028D01*
X113639621Y-96005052D01*
X113643433Y-95952110D01*
X113647263Y-95899204D01*
X113651110Y-95846331D01*
X113654975Y-95793494D01*
X113658858Y-95740691D01*
X113662757Y-95687923D01*
X113666675Y-95635188D01*
X113670609Y-95582490D01*
X113674562Y-95529825D01*
X113678531Y-95477195D01*
X113682519Y-95424599D01*
X113686523Y-95372039D01*
X113690545Y-95319512D01*
X113694585Y-95267020D01*
X113698642Y-95214563D01*
X113702716Y-95162140D01*
X113706807Y-95109751D01*
X113710916Y-95057397D01*
X113715043Y-95005077D01*
X113719186Y-94952793D01*
X113723347Y-94900541D01*
X113727525Y-94848325D01*
X113731721Y-94796143D01*
X113735934Y-94743995D01*
X113740164Y-94691882D01*
X113744412Y-94639803D01*
X113748676Y-94587758D01*
X113752958Y-94535748D01*
X113757258Y-94483771D01*
X113761574Y-94431830D01*
X113765908Y-94379922D01*
X113770258Y-94328049D01*
X113774627Y-94276209D01*
X113779012Y-94224404D01*
X113783414Y-94172633D01*
X113787834Y-94120897D01*
X113792270Y-94069194D01*
X113796724Y-94017526D01*
X113801195Y-93965892D01*
X113805683Y-93914292D01*
X113810188Y-93862726D01*
X113814711Y-93811194D01*
X113819250Y-93759696D01*
X113823806Y-93708233D01*
X113828380Y-93656803D01*
X113832970Y-93605408D01*
X113837578Y-93554046D01*
X113842203Y-93502718D01*
X113846844Y-93451424D01*
X113851503Y-93400165D01*
X113856178Y-93348939D01*
X113860871Y-93297748D01*
X113865580Y-93246590D01*
X113870307Y-93195466D01*
X113875050Y-93144376D01*
X113879811Y-93093320D01*
X113884588Y-93042297D01*
X113889382Y-92991310D01*
X113894193Y-92940355D01*
X113899021Y-92889434D01*
X113903866Y-92838547D01*
X113908728Y-92787695D01*
X113913606Y-92736875D01*
X113918502Y-92686090D01*
X113923414Y-92635338D01*
X113928343Y-92584620D01*
X113933289Y-92533935D01*
X113938252Y-92483285D01*
X113943231Y-92432668D01*
X113948227Y-92382085D01*
X113953240Y-92331535D01*
X113958270Y-92281020D01*
X113963317Y-92230537D01*
X113968380Y-92180089D01*
X113973460Y-92129674D01*
X113978556Y-92079293D01*
X113983670Y-92028945D01*
X113988800Y-91978631D01*
X113993946Y-91928350D01*
X113999110Y-91878104D01*
X114004290Y-91827889D01*
X114009486Y-91777710D01*
X114014700Y-91727563D01*
X114019930Y-91677450D01*
X114025176Y-91627370D01*
X114030439Y-91577325D01*
X114035719Y-91527311D01*
X114041015Y-91477333D01*
X114046328Y-91427386D01*
X114051658Y-91377474D01*
X114057004Y-91327595D01*
X114062366Y-91277750D01*
X114067745Y-91227937D01*
X114073140Y-91178158D01*
X114078553Y-91128412D01*
X114083981Y-91078700D01*
X114089426Y-91029021D01*
X114094887Y-90979376D01*
X114100365Y-90929763D01*
X114105860Y-90880184D01*
X114111370Y-90830637D01*
X114116897Y-90781125D01*
X114122441Y-90731645D01*
X114128001Y-90682199D01*
X114133577Y-90632785D01*
X114139170Y-90583406D01*
X114144779Y-90534059D01*
X114150405Y-90484745D01*
X114156047Y-90435464D01*
X114161705Y-90386217D01*
X114167379Y-90337002D01*
X114173070Y-90287822D01*
X114178777Y-90238673D01*
X114184500Y-90189558D01*
X114190240Y-90140475D01*
X114195996Y-90091427D01*
X114201768Y-90042410D01*
X114207557Y-89993428D01*
X114213361Y-89944477D01*
X114219182Y-89895560D01*
X114225019Y-89846676D01*
X114230872Y-89797825D01*
X114236742Y-89749006D01*
X114242628Y-89700221D01*
X114248529Y-89651468D01*
X114254447Y-89602749D01*
X114260382Y-89554062D01*
X114266332Y-89505408D01*
X114272298Y-89456787D01*
X114278281Y-89408199D01*
X114284279Y-89359643D01*
X114290294Y-89311121D01*
X114296325Y-89262630D01*
X114302372Y-89214174D01*
X114308435Y-89165749D01*
X114314513Y-89117358D01*
X114320609Y-89068998D01*
X114326719Y-89020673D01*
X114332847Y-88972379D01*
X114338990Y-88924119D01*
X114345149Y-88875890D01*
X114351324Y-88827695D01*
X114357515Y-88779532D01*
X114363722Y-88731402D01*
X114369945Y-88683304D01*
X114376183Y-88635239D01*
X114382438Y-88587206D01*
X114388709Y-88539207D01*
X114394996Y-88491239D01*
X114401298Y-88443305D01*
X114407617Y-88395402D01*
X114413951Y-88347533D01*
X114420301Y-88299695D01*
X114426667Y-88251891D01*
X114433049Y-88204118D01*
X114439447Y-88156379D01*
X114445860Y-88108671D01*
X114452289Y-88060997D01*
X114458735Y-88013354D01*
X114465195Y-87965744D01*
X114471672Y-87918166D01*
X114478165Y-87870621D01*
X114484673Y-87823107D01*
X114491197Y-87775627D01*
X114497737Y-87728178D01*
X114504292Y-87680763D01*
X114510863Y-87633379D01*
X114517450Y-87586028D01*
X114524053Y-87538708D01*
X114530671Y-87491422D01*
X114537305Y-87444167D01*
X114543954Y-87396945D01*
X114550620Y-87349754D01*
X114557301Y-87302597D01*
X114563997Y-87255470D01*
X114570709Y-87208377D01*
X114577437Y-87161315D01*
X114584180Y-87114286D01*
X114590939Y-87067288D01*
X114597714Y-87020324D01*
X114604504Y-86973390D01*
X114611310Y-86926490D01*
X114618131Y-86879620D01*
X114624968Y-86832784D01*
X114631820Y-86785979D01*
X114638688Y-86739207D01*
X114645571Y-86692465D01*
X114652470Y-86645757D01*
X114659384Y-86599080D01*
X114666314Y-86552436D01*
X114673259Y-86505822D01*
X114680220Y-86459242D01*
X114687196Y-86412693D01*
X114694187Y-86366177D01*
X114701194Y-86319691D01*
X114708217Y-86273238D01*
X114715254Y-86226816D01*
X114722308Y-86180428D01*
X114729376Y-86134069D01*
X114736460Y-86087744D01*
X114743559Y-86041450D01*
X114750674Y-85995188D01*
X114757804Y-85948957D01*
X114764949Y-85902759D01*
X114772110Y-85856592D01*
X114779286Y-85810457D01*
X114786477Y-85764353D01*
X114793683Y-85718283D01*
X114800905Y-85672242D01*
X114808142Y-85626235D01*
X114815395Y-85580257D01*
X114822662Y-85534313D01*
X114829945Y-85488399D01*
X114837243Y-85442518D01*
X114844556Y-85396668D01*
X114851884Y-85350850D01*
X114859228Y-85305063D01*
X114866587Y-85259308D01*
X114873961Y-85213584D01*
X114881350Y-85167893D01*
X114888754Y-85122232D01*
X114896173Y-85076603D01*
X114903608Y-85031005D01*
X114911058Y-84985440D01*
X114918522Y-84939905D01*
X114926002Y-84894403D01*
X114933497Y-84848930D01*
X114941007Y-84803491D01*
X114948532Y-84758082D01*
X114956073Y-84712705D01*
X114963628Y-84667359D01*
X114971198Y-84622045D01*
X114978783Y-84576761D01*
X114986384Y-84531510D01*
X114993999Y-84486289D01*
X115001629Y-84441101D01*
X115009275Y-84395942D01*
X115016935Y-84350817D01*
X115024610Y-84305721D01*
X115032300Y-84260658D01*
X115040005Y-84215624D01*
X115047725Y-84170624D01*
X115055461Y-84125653D01*
X115063210Y-84080715D01*
X115070975Y-84035806D01*
X115078755Y-83990931D01*
X115086550Y-83946085D01*
X115094359Y-83901271D01*
X115102183Y-83856487D01*
X115110022Y-83811736D01*
X115117877Y-83767015D01*
X115125745Y-83722326D01*
X115133629Y-83677667D01*
X115141528Y-83633040D01*
X115149441Y-83588443D01*
X115157369Y-83543879D01*
X115165312Y-83499343D01*
X115173270Y-83454841D01*
X115181242Y-83410368D01*
X115189229Y-83365927D01*
X115197231Y-83321516D01*
X115205248Y-83277138D01*
X115213279Y-83232789D01*
X115221325Y-83188472D01*
X115229386Y-83144185D01*
X115237462Y-83099930D01*
X115245552Y-83055705D01*
X115253657Y-83011512D01*
X115261776Y-82967348D01*
X115269910Y-82923217D01*
X115278059Y-82879115D01*
X115286223Y-82835045D01*
X115294401Y-82791005D01*
X115302594Y-82746997D01*
X115310801Y-82703018D01*
X115319023Y-82659072D01*
X115327259Y-82615155D01*
X115335510Y-82571270D01*
X115343776Y-82527414D01*
X115352056Y-82483591D01*
X115360351Y-82439797D01*
X115368660Y-82396035D01*
X115376984Y-82352302D01*
X115385322Y-82308601D01*
X115393675Y-82264930D01*
X115402042Y-82221291D01*
X115410424Y-82177680D01*
X115418820Y-82134102D01*
X115427231Y-82090553D01*
X115435656Y-82047036D01*
X115444096Y-82003548D01*
X115452550Y-81960093D01*
X115461018Y-81916666D01*
X115469501Y-81873271D01*
X115477998Y-81829905D01*
X115486510Y-81786572D01*
X115495036Y-81743267D01*
X115503576Y-81699994D01*
X115512131Y-81656750D01*
X115520700Y-81613538D01*
X115529284Y-81570355D01*
X115537882Y-81527205D01*
X115546494Y-81484082D01*
X115555120Y-81440992D01*
X115563761Y-81397931D01*
X115572416Y-81354902D01*
X115581086Y-81311901D01*
X115589769Y-81268932D01*
X115598467Y-81225992D01*
X115607179Y-81183084D01*
X115615906Y-81140205D01*
X115624646Y-81097357D01*
X115633401Y-81054538D01*
X115642170Y-81011752D01*
X115650954Y-80968993D01*
X115659751Y-80926267D01*
X115668563Y-80883569D01*
X115677389Y-80840903D01*
X115686229Y-80798265D01*
X115695083Y-80755660D01*
X115703952Y-80713082D01*
X115712834Y-80670537D01*
X115721731Y-80628020D01*
X115730641Y-80585535D01*
X115739566Y-80543078D01*
X115748505Y-80500654D01*
X115757458Y-80458257D01*
X115766425Y-80415893D01*
X115775407Y-80373556D01*
X115784402Y-80331252D01*
X115793412Y-80288975D01*
X115802435Y-80246731D01*
X115811472Y-80204514D01*
X115820524Y-80162330D01*
X115829589Y-80120173D01*
X115838669Y-80078049D01*
X115847762Y-80035952D01*
X115856869Y-79993888D01*
X115865991Y-79951851D01*
X115875126Y-79909846D01*
X115884276Y-79867869D01*
X115893439Y-79825924D01*
X115902616Y-79784007D01*
X115911807Y-79742122D01*
X115921013Y-79700264D01*
X115930232Y-79658438D01*
X115939465Y-79616640D01*
X115948711Y-79574874D01*
X115957972Y-79533136D01*
X115967247Y-79491430D01*
X115976535Y-79449751D01*
X115985837Y-79408104D01*
X115995154Y-79366484D01*
X116004483Y-79324897D01*
X116013827Y-79283337D01*
X116023185Y-79241809D01*
X116032556Y-79200308D01*
X116041941Y-79158840D01*
X116051341Y-79117398D01*
X116060753Y-79075989D01*
X116070180Y-79034607D01*
X116079620Y-78993257D01*
X116089074Y-78951934D01*
X116098542Y-78910643D01*
X116108023Y-78869379D01*
X116117518Y-78828147D01*
X116127028Y-78786942D01*
X116136550Y-78745770D01*
X116146087Y-78704624D01*
X116155636Y-78663510D01*
X116165200Y-78622424D01*
X116174777Y-78581369D01*
X116184369Y-78540341D01*
X116193973Y-78499345D01*
X116203592Y-78458376D01*
X116213223Y-78417439D01*
X116222869Y-78376529D01*
X116232528Y-78335651D01*
X116242201Y-78294800D01*
X116251887Y-78253980D01*
X116261587Y-78213188D01*
X116271301Y-78172427D01*
X116281028Y-78131693D01*
X116290768Y-78090991D01*
X116300523Y-78050316D01*
X116310290Y-78009672D01*
X116320072Y-77969056D01*
X116329866Y-77928471D01*
X116339675Y-77887913D01*
X116349496Y-77847386D01*
X116359332Y-77806886D01*
X116369180Y-77766418D01*
X116379043Y-77725977D01*
X116388918Y-77685567D01*
X116398807Y-77645184D01*
X116408710Y-77604833D01*
X116418626Y-77564508D01*
X116428555Y-77524215D01*
X116438498Y-77483949D01*
X116448454Y-77443714D01*
X116458424Y-77403506D01*
X116468407Y-77363329D01*
X116478403Y-77323179D01*
X116488413Y-77283060D01*
X116498436Y-77242968D01*
X116508472Y-77202908D01*
X116518523Y-77162874D01*
X116528585Y-77122871D01*
X116538662Y-77082895D01*
X116548752Y-77042950D01*
X116558855Y-77003032D01*
X116568971Y-76963146D01*
X116579101Y-76923285D01*
X116589244Y-76883457D01*
X116599400Y-76843654D01*
X116609569Y-76803883D01*
X116619752Y-76764139D01*
X116629948Y-76724425D01*
X116640158Y-76684738D01*
X116650380Y-76645083D01*
X116660616Y-76605453D01*
X116670864Y-76565855D01*
X116681127Y-76526284D01*
X116691402Y-76486743D01*
X116701690Y-76447229D01*
X116711991Y-76407746D01*
X116722307Y-76368290D01*
X116732634Y-76328864D01*
X116742975Y-76289465D01*
X116753329Y-76250097D01*
X116763697Y-76210756D01*
X116774077Y-76171445D01*
X116784471Y-76132161D01*
X116794877Y-76092907D01*
X116805297Y-76053680D01*
X116815730Y-76014484D01*
X116826176Y-75975314D01*
X116836634Y-75936176D01*
X116847107Y-75897063D01*
X116857591Y-75857981D01*
X116868090Y-75818926D01*
X116878601Y-75779901D01*
X116889125Y-75740903D01*
X116899662Y-75701935D01*
X116910212Y-75662994D01*
X116920775Y-75624084D01*
X116931351Y-75585199D01*
X116941940Y-75546346D01*
X116952542Y-75507518D01*
X116963157Y-75468722D01*
X116973785Y-75429951D01*
X116984426Y-75391211D01*
X116995080Y-75352497D01*
X117005746Y-75313815D01*
X117016426Y-75275157D01*
X117027118Y-75236531D01*
X117037824Y-75197931D01*
X117048542Y-75159362D01*
X117059274Y-75120818D01*
X117070017Y-75082305D01*
X117080775Y-75043818D01*
X117091544Y-75005362D01*
X117102327Y-74966931D01*
X117113122Y-74928532D01*
X117123931Y-74890158D01*
X117134751Y-74851814D01*
X117145586Y-74813497D01*
X117156432Y-74775210D01*
X117167292Y-74736949D01*
X117178164Y-74698719D01*
X117189049Y-74660514D01*
X117199947Y-74622340D01*
X117210857Y-74584191D01*
X117221780Y-74546074D01*
X117232717Y-74507981D01*
X117243665Y-74469920D01*
X117254627Y-74431884D01*
X117265601Y-74393879D01*
X117276588Y-74355899D01*
X117287587Y-74317950D01*
X117298600Y-74280026D01*
X117309624Y-74242133D01*
X117320662Y-74204265D01*
X117331712Y-74166428D01*
X117342776Y-74128616D01*
X117353851Y-74090835D01*
X117364939Y-74053079D01*
X117376040Y-74015354D01*
X117387154Y-73977654D01*
X117398279Y-73939985D01*
X117409418Y-73902341D01*
X117420569Y-73864727D01*
X117431733Y-73827139D01*
X117442909Y-73789581D01*
X117454099Y-73752049D01*
X117465300Y-73714547D01*
X117476514Y-73677070D01*
X117487741Y-73639624D01*
X117498980Y-73602202D01*
X117510231Y-73564812D01*
X117521496Y-73527446D01*
X117532772Y-73490111D01*
X117544062Y-73452801D01*
X117555363Y-73415521D01*
X117566678Y-73378267D01*
X117578004Y-73341043D01*
X117589343Y-73303843D01*
X117600695Y-73266675D01*
X117612059Y-73229531D01*
X117623435Y-73192417D01*
X117634824Y-73155329D01*
X117646225Y-73118271D01*
X117657639Y-73081238D01*
X117669065Y-73044235D01*
X117680504Y-73007257D01*
X117691954Y-72970309D01*
X117703418Y-72933386D01*
X117714893Y-72896494D01*
X117726382Y-72859626D01*
X117737882Y-72822789D01*
X117749395Y-72785976D01*
X117760919Y-72749194D01*
X117772457Y-72712437D01*
X117784007Y-72675709D01*
X117795569Y-72639007D01*
X117807143Y-72602335D01*
X117818730Y-72565687D01*
X117830328Y-72529069D01*
X117841940Y-72492477D01*
X117853563Y-72455914D01*
X117865199Y-72419376D01*
X117876847Y-72382868D01*
X117888507Y-72346385D01*
X117900179Y-72309932D01*
X117911865Y-72273504D01*
X117923561Y-72237106D01*
X117935271Y-72200732D01*
X117946991Y-72164388D01*
X117958726Y-72128069D01*
X117970471Y-72091780D01*
X117982229Y-72055515D01*
X117993999Y-72019281D01*
X118005781Y-71983071D01*
X118017575Y-71946891D01*
X118029382Y-71910735D01*
X118041201Y-71874610D01*
X118053032Y-71838509D01*
X118064874Y-71802438D01*
X118076730Y-71766391D01*
X118088597Y-71730374D01*
X118100476Y-71694381D01*
X118112367Y-71658419D01*
X118124271Y-71622481D01*
X118136186Y-71586573D01*
X118148114Y-71550689D01*
X118160054Y-71514835D01*
X118172006Y-71479005D01*
X118183969Y-71443205D01*
X118195945Y-71407429D01*
X118207933Y-71371684D01*
X118219933Y-71335962D01*
X118231944Y-71300270D01*
X118243969Y-71264603D01*
X118256004Y-71228965D01*
X118268052Y-71193351D01*
X118280112Y-71157768D01*
X118292184Y-71122208D01*
X118304267Y-71086678D01*
X118316363Y-71051172D01*
X118328471Y-71015697D01*
X118340591Y-70980244D01*
X118352722Y-70944822D01*
X118364866Y-70909424D01*
X118377020Y-70874056D01*
X118389188Y-70838711D01*
X118401367Y-70803397D01*
X118413559Y-70768106D01*
X118425761Y-70732845D01*
X118437976Y-70697608D01*
X118450202Y-70662400D01*
X118462442Y-70627217D01*
X118474691Y-70592063D01*
X118486954Y-70556933D01*
X118499228Y-70521833D01*
X118511514Y-70486756D01*
X118523811Y-70451709D01*
X118536121Y-70416686D01*
X118548442Y-70381692D01*
X118560776Y-70346723D01*
X118573120Y-70311783D01*
X118585478Y-70276866D01*
X118597846Y-70241979D01*
X118610226Y-70207116D01*
X118622618Y-70172283D01*
X118635022Y-70137473D01*
X118647437Y-70102693D01*
X118659865Y-70067936D01*
X118672303Y-70033209D01*
X118684755Y-69998505D01*
X118697216Y-69963831D01*
X118709691Y-69929180D01*
X118722176Y-69894560D01*
X118734674Y-69859962D01*
X118747183Y-69825394D01*
X118759704Y-69790850D01*
X118772236Y-69756335D01*
X118784781Y-69721843D01*
X118797336Y-69687381D01*
X118809904Y-69652943D01*
X118822483Y-69618534D01*
X118835074Y-69584148D01*
X118847676Y-69549792D01*
X118860290Y-69515458D01*
X118872915Y-69481155D01*
X118885553Y-69446875D01*
X118898201Y-69412624D01*
X118910862Y-69378396D01*
X118923533Y-69344198D01*
X118936218Y-69310023D01*
X118948912Y-69275878D01*
X118961619Y-69241756D01*
X118974337Y-69207663D01*
X118987067Y-69173593D01*
X118999807Y-69139553D01*
X119012561Y-69105535D01*
X119025324Y-69071548D01*
X119038101Y-69037583D01*
X119050887Y-69003648D01*
X119063687Y-68969735D01*
X119076496Y-68935852D01*
X119089318Y-68901992D01*
X119102151Y-68868162D01*
X119114996Y-68834354D01*
X119127851Y-68800575D01*
X119140720Y-68766820D01*
X119153598Y-68733094D01*
X119166489Y-68699391D01*
X119179390Y-68665717D01*
X119192304Y-68632066D01*
X119205228Y-68598444D01*
X119218164Y-68564845D01*
X119231111Y-68531276D01*
X119244070Y-68497729D01*
X119257040Y-68464211D01*
X119270022Y-68430716D01*
X119283014Y-68397251D01*
X119296019Y-68363808D01*
X119309034Y-68330394D01*
X119322062Y-68297003D01*
X119335099Y-68263642D01*
X119348149Y-68230303D01*
X119361210Y-68196993D01*
X119374283Y-68163706D01*
X119387365Y-68130448D01*
X119400461Y-68097212D01*
X119413566Y-68064006D01*
X119426684Y-68030823D01*
X119439812Y-67997668D01*
X119452953Y-67964536D01*
X119466103Y-67931434D01*
X119479266Y-67898353D01*
X119492439Y-67865302D01*
X119505625Y-67832273D01*
X119518820Y-67799274D01*
X119532028Y-67766296D01*
X119545246Y-67733349D01*
X119558477Y-67700423D01*
X119571717Y-67667527D01*
X119584970Y-67634652D01*
X119598233Y-67601807D01*
X119611508Y-67568984D01*
X119624793Y-67536191D01*
X119638090Y-67503419D01*
X119651398Y-67470677D01*
X119664718Y-67437957D01*
X119678047Y-67405266D01*
X119691389Y-67372597D01*
X119704741Y-67339957D01*
X119718106Y-67307340D01*
X119731480Y-67274751D01*
X119744866Y-67242185D01*
X119758263Y-67209648D01*
X119771672Y-67177132D01*
X119785090Y-67144646D01*
X119798521Y-67112182D01*
X119811962Y-67079747D01*
X119825415Y-67047333D01*
X119838878Y-67014949D01*
X119852353Y-66982587D01*
X119865838Y-66950254D01*
X119879335Y-66917943D01*
X119892842Y-66885661D01*
X119906361Y-66853400D01*
X119919890Y-66821169D01*
X119933432Y-66788959D01*
X119946983Y-66756779D01*
X119960546Y-66724620D01*
X119974119Y-66692491D01*
X119987704Y-66660383D01*
X120001299Y-66628304D01*
X120014907Y-66596246D01*
X120028523Y-66564218D01*
X120042153Y-66532212D01*
X120055791Y-66500234D01*
X120069443Y-66468278D01*
X120083103Y-66436351D01*
X120096776Y-66404446D01*
X120110458Y-66372570D01*
X120124153Y-66340715D01*
X120137857Y-66308889D01*
X120151574Y-66277085D01*
X120165300Y-66245309D01*
X120179038Y-66213555D01*
X120192786Y-66181831D01*
X120206546Y-66150127D01*
X120220316Y-66118452D01*
X120234098Y-66086799D01*
X120247889Y-66055175D01*
X120261692Y-66023572D01*
X120275505Y-65991998D01*
X120289330Y-65960446D01*
X120303165Y-65928922D01*
X120317012Y-65897420D01*
X120330868Y-65865946D01*
X120344736Y-65834494D01*
X120358614Y-65803071D01*
X120372504Y-65771668D01*
X120386403Y-65740295D01*
X120400315Y-65708943D01*
X120414235Y-65677620D01*
X120428169Y-65646318D01*
X120442111Y-65615045D01*
X120456066Y-65583793D01*
X120470029Y-65552570D01*
X120484005Y-65521368D01*
X120497990Y-65490195D01*
X120511988Y-65459042D01*
X120525995Y-65427919D01*
X120540014Y-65396817D01*
X120554042Y-65365743D01*
X120568082Y-65334691D01*
X120582131Y-65303667D01*
X120596193Y-65272664D01*
X120610264Y-65241690D01*
X120624347Y-65210737D01*
X120638439Y-65179813D01*
X120652543Y-65148910D01*
X120666657Y-65118035D01*
X120680782Y-65087181D01*
X120694917Y-65056357D01*
X120709064Y-65025552D01*
X120723220Y-64994777D01*
X120737388Y-64964022D01*
X120751565Y-64933297D01*
X120765754Y-64902591D01*
X120779952Y-64871915D01*
X120794163Y-64841259D01*
X120808382Y-64810632D01*
X120822614Y-64780026D01*
X120836854Y-64749449D01*
X120851107Y-64718892D01*
X120865369Y-64688364D01*
X120879643Y-64657856D01*
X120893926Y-64627377D01*
X120908221Y-64596919D01*
X120922524Y-64566489D01*
X120936840Y-64536080D01*
X120951165Y-64505700D01*
X120965502Y-64475340D01*
X120979848Y-64445009D01*
X120994206Y-64414698D01*
X121008573Y-64384416D01*
X121022952Y-64354154D01*
X121037339Y-64323921D01*
X121051740Y-64293708D01*
X121066148Y-64263524D01*
X121080569Y-64233361D01*
X121094998Y-64203226D01*
X121109440Y-64173111D01*
X121123891Y-64143025D01*
X121138353Y-64112959D01*
X121152824Y-64082922D01*
X121167308Y-64052905D01*
X121181800Y-64022917D01*
X121196304Y-63992949D01*
X121210817Y-63963010D01*
X121225342Y-63933091D01*
X121239876Y-63903200D01*
X121254422Y-63873330D01*
X121268976Y-63843488D01*
X121283543Y-63813666D01*
X121298118Y-63783873D01*
X121312705Y-63754100D01*
X121327301Y-63724355D01*
X121341909Y-63694631D01*
X121356525Y-63664935D01*
X121371154Y-63635259D01*
X121385791Y-63605611D01*
X121400440Y-63575984D01*
X121415098Y-63546385D01*
X121429768Y-63516806D01*
X121444446Y-63487256D01*
X121459137Y-63457726D01*
X121473835Y-63428224D01*
X121488547Y-63398742D01*
X121503266Y-63369288D01*
X121517998Y-63339854D01*
X121532737Y-63310449D01*
X121547490Y-63281064D01*
X121562250Y-63251707D01*
X121577023Y-63222370D01*
X121591803Y-63193061D01*
X121606596Y-63163772D01*
X121621398Y-63134512D01*
X121636211Y-63105271D01*
X121651033Y-63076059D01*
X121665867Y-63046867D01*
X121680709Y-63017703D01*
X121695563Y-62988558D01*
X121710425Y-62959442D01*
X121725300Y-62930346D01*
X121740183Y-62901278D01*
X121755078Y-62872230D01*
X121769981Y-62843210D01*
X121784896Y-62814210D01*
X121799820Y-62785238D01*
X121814755Y-62756285D01*
X121829699Y-62727361D01*
X121844655Y-62698457D01*
X121859619Y-62669581D01*
X121874595Y-62640724D01*
X121889579Y-62611896D01*
X121904576Y-62583087D01*
X121919580Y-62554306D01*
X121934596Y-62525545D01*
X121949621Y-62496813D01*
X121964658Y-62468099D01*
X121979702Y-62439414D01*
X121994759Y-62410749D01*
X122009824Y-62382111D01*
X122024901Y-62353493D01*
X122039985Y-62324904D01*
X122055083Y-62296333D01*
X122070187Y-62267791D01*
X122085305Y-62239268D01*
X122100430Y-62210774D01*
X122115567Y-62182299D01*
X122130712Y-62153852D01*
X122145869Y-62125424D01*
X122161034Y-62097024D01*
X122176211Y-62068644D01*
X122191396Y-62040292D01*
X122206593Y-62011959D01*
X122221798Y-61983654D01*
X122252240Y-61927111D01*
X122282722Y-61870663D01*
X122313244Y-61814309D01*
X122343805Y-61758049D01*
X122374406Y-61701884D01*
X122405047Y-61645814D01*
X122435727Y-61589837D01*
X122466447Y-61533955D01*
X122497206Y-61478167D01*
X122528005Y-61422472D01*
X122558844Y-61366872D01*
X122589721Y-61311365D01*
X122620638Y-61255952D01*
X122651594Y-61200633D01*
X122682590Y-61145407D01*
X122713625Y-61090275D01*
X122744698Y-61035237D01*
X122775811Y-60980291D01*
X122806963Y-60925439D01*
X122838154Y-60870680D01*
X122869384Y-60816014D01*
X122900653Y-60761441D01*
X122931961Y-60706961D01*
X122963307Y-60652574D01*
X122994693Y-60598280D01*
X123026117Y-60544078D01*
X123057579Y-60489969D01*
X123089081Y-60435953D01*
X123120621Y-60382029D01*
X123152199Y-60328198D01*
X123183817Y-60274458D01*
X123215472Y-60220811D01*
X123247166Y-60167257D01*
X123278898Y-60113794D01*
X123310669Y-60060423D01*
X123342478Y-60007144D01*
X123374325Y-59953957D01*
X123406211Y-59900862D01*
X123438134Y-59847859D01*
X123470096Y-59794947D01*
X123502096Y-59742127D01*
X123534134Y-59689398D01*
X123566210Y-59636760D01*
X123598323Y-59584214D01*
X123630475Y-59531760D01*
X123662665Y-59479396D01*
X123694892Y-59427123D01*
X123727157Y-59374942D01*
X123759460Y-59322851D01*
X123791801Y-59270852D01*
X123824179Y-59218943D01*
X123856595Y-59167125D01*
X123889048Y-59115397D01*
X123921539Y-59063760D01*
X123954068Y-59012214D01*
X123986634Y-58960758D01*
X124019237Y-58909392D01*
X124051878Y-58858117D01*
X124084556Y-58806932D01*
X124117271Y-58755837D01*
X124150023Y-58704832D01*
X124182813Y-58653917D01*
X124215640Y-58603092D01*
X124248504Y-58552357D01*
X124281405Y-58501712D01*
X124314343Y-58451156D01*
X124347318Y-58400691D01*
X124380330Y-58350314D01*
X124413379Y-58300027D01*
X124446465Y-58249830D01*
X124479587Y-58199722D01*
X124512747Y-58149703D01*
X124545943Y-58099774D01*
X124579176Y-58049933D01*
X124612445Y-58000182D01*
X124645751Y-57950520D01*
X124679094Y-57900946D01*
X124712473Y-57851462D01*
X124745889Y-57802066D01*
X124779341Y-57752759D01*
X124812830Y-57703541D01*
X124846355Y-57654412D01*
X124879917Y-57605370D01*
X124913514Y-57556418D01*
X124947148Y-57507554D01*
X124980818Y-57458778D01*
X125014525Y-57410090D01*
X125048268Y-57361491D01*
X125082046Y-57312979D01*
X125115861Y-57264556D01*
X125149712Y-57216221D01*
X125183599Y-57167973D01*
X125217521Y-57119814D01*
X125251480Y-57071742D01*
X125285475Y-57023758D01*
X125319505Y-56975862D01*
X125353571Y-56928053D01*
X125387673Y-56880332D01*
X125421811Y-56832698D01*
X125455985Y-56785152D01*
X125490194Y-56737693D01*
X125524438Y-56690321D01*
X125558719Y-56643037D01*
X125593035Y-56595840D01*
X125627386Y-56548729D01*
X125661773Y-56501706D01*
X125696195Y-56454770D01*
X125730652Y-56407921D01*
X125765145Y-56361158D01*
X125799674Y-56314482D01*
X125834237Y-56267893D01*
X125868836Y-56221391D01*
X125903470Y-56174975D01*
X125938139Y-56128646D01*
X125972844Y-56082403D01*
X126007583Y-56036246D01*
X126042357Y-55990176D01*
X126077167Y-55944193D01*
X126112011Y-55898295D01*
X126146891Y-55852483D01*
X126181805Y-55806758D01*
X126216754Y-55761119D01*
X126251738Y-55715565D01*
X126286757Y-55670098D01*
X126321810Y-55624716D01*
X126356899Y-55579420D01*
X126392022Y-55534210D01*
X126427179Y-55489086D01*
X126462372Y-55444047D01*
X126497598Y-55399094D01*
X126532860Y-55354226D01*
X126568156Y-55309444D01*
X126603486Y-55264747D01*
X126638851Y-55220135D01*
X126674250Y-55175609D01*
X126709683Y-55131168D01*
X126745151Y-55086812D01*
X126780653Y-55042541D01*
X126816190Y-54998355D01*
X126851760Y-54954254D01*
X126887365Y-54910238D01*
X126923004Y-54866307D01*
X126958677Y-54822461D01*
X126994384Y-54778699D01*
X127030125Y-54735022D01*
X127065900Y-54691430D01*
X127101709Y-54647923D01*
X127137552Y-54604500D01*
X127173429Y-54561161D01*
X127209340Y-54517907D01*
X127245285Y-54474738D01*
X127281263Y-54431652D01*
X127317275Y-54388651D01*
X127353321Y-54345734D01*
X127389400Y-54302902D01*
X127425513Y-54260153D01*
X127461660Y-54217489D01*
X127497841Y-54174908D01*
X127534054Y-54132411D01*
X127570302Y-54089999D01*
X127606583Y-54047670D01*
X127642897Y-54005425D01*
X127679245Y-53963264D01*
X127715626Y-53921186D01*
X127752040Y-53879193D01*
X127788488Y-53837282D01*
X127824968Y-53795456D01*
X127861483Y-53753712D01*
X127898030Y-53712053D01*
X127934610Y-53670476D01*
X127971224Y-53628983D01*
X128007870Y-53587574D01*
X128044550Y-53546247D01*
X128081263Y-53505004D01*
X128118008Y-53463844D01*
X128154787Y-53422767D01*
X128191598Y-53381773D01*
X128228442Y-53340862D01*
X128265320Y-53300035D01*
X128302230Y-53259290D01*
X128339172Y-53218628D01*
X128376148Y-53178048D01*
X128413156Y-53137552D01*
X128450196Y-53097138D01*
X128487270Y-53056807D01*
X128524376Y-53016559D01*
X128561514Y-52976393D01*
X128598685Y-52936310D01*
X128635888Y-52896310D01*
X128673124Y-52856391D01*
X128710392Y-52816556D01*
X128747693Y-52776802D01*
X128785026Y-52737131D01*
X128822391Y-52697543D01*
X128859789Y-52658036D01*
X128897218Y-52618612D01*
X128934680Y-52579270D01*
X128972174Y-52540010D01*
X129009700Y-52500832D01*
X129047258Y-52461737D01*
X129084849Y-52422723D01*
X129122471Y-52383791D01*
X129160125Y-52344941D01*
X129197811Y-52306173D01*
X129235529Y-52267487D01*
X129273279Y-52228883D01*
X129311061Y-52190360D01*
X129348874Y-52151920D01*
X129386719Y-52113560D01*
X129424596Y-52075283D01*
X129462505Y-52037087D01*
X129500445Y-51998973D01*
X129538416Y-51960940D01*
X129576420Y-51922989D01*
X129614455Y-51885119D01*
X129652521Y-51847331D01*
X129690619Y-51809624D01*
X129728748Y-51771998D01*
X129766908Y-51734454D01*
X129805100Y-51696991D01*
X129843323Y-51659609D01*
X129881578Y-51622309D01*
X129919863Y-51585089D01*
X129958180Y-51547951D01*
X129996528Y-51510894D01*
X130034907Y-51473918D01*
X130073317Y-51437023D01*
X130111759Y-51400209D01*
X130150231Y-51363476D01*
X130188734Y-51326823D01*
X130227268Y-51290252D01*
X130265833Y-51253762D01*
X130304428Y-51217352D01*
X130343055Y-51181024D01*
X130381712Y-51144776D01*
X130420400Y-51108609D01*
X130459119Y-51072522D01*
X130497868Y-51036516D01*
X130536648Y-51000591D01*
X130575458Y-50964747D01*
X130614299Y-50928983D01*
X130653171Y-50893300D01*
X130692072Y-50857697D01*
X130731005Y-50822175D01*
X130769967Y-50786733D01*
X130808960Y-50751372D01*
X130847983Y-50716091D01*
X130887037Y-50680890D01*
X130926120Y-50645770D01*
X130965234Y-50610730D01*
X131004378Y-50575771D01*
X131043552Y-50540891D01*
X131082755Y-50506093D01*
X131121989Y-50471374D01*
X131161253Y-50436735D01*
X131200547Y-50402177D01*
X131239870Y-50367699D01*
X131279224Y-50333301D01*
X131318607Y-50298983D01*
X131358020Y-50264745D01*
X131397462Y-50230588D01*
X131436934Y-50196510D01*
X131476436Y-50162512D01*
X131515967Y-50128595D01*
X131555528Y-50094757D01*
X131595118Y-50060999D01*
X131634738Y-50027321D01*
X131674387Y-49993723D01*
X131714065Y-49960206D01*
X131753773Y-49926767D01*
X131793510Y-49893409D01*
X131833276Y-49860131D01*
X131873071Y-49826932D01*
X131912895Y-49793813D01*
X131952748Y-49760774D01*
X131992630Y-49727815D01*
X132032542Y-49694935D01*
X132072482Y-49662136D01*
X132112451Y-49629415D01*
X132152448Y-49596775D01*
X132192475Y-49564214D01*
X132232530Y-49531733D01*
X132272614Y-49499332D01*
X132312726Y-49467010D01*
X132352867Y-49434767D01*
X132393037Y-49402605D01*
X132433235Y-49370522D01*
X132473461Y-49338518D01*
X132513716Y-49306594D01*
X132553999Y-49274750D01*
X132594310Y-49242985D01*
X132634649Y-49211299D01*
X132675017Y-49179693D01*
X132715413Y-49148167D01*
X132755837Y-49116720D01*
X132796288Y-49085352D01*
X132836768Y-49054064D01*
X132877275Y-49022855D01*
X132917811Y-48991726D01*
X132958374Y-48960676D01*
X132998965Y-48929706D01*
X133039583Y-48898815D01*
X133080229Y-48868003D01*
X133120903Y-48837271D01*
X133161604Y-48806618D01*
X133202333Y-48776044D01*
X133243089Y-48745550D01*
X133283872Y-48715135D01*
X133324682Y-48684800D01*
X133365520Y-48654544D01*
X133406385Y-48624367D01*
X133447277Y-48594269D01*
X133488196Y-48564251D01*
X133529142Y-48534312D01*
X133570115Y-48504453D01*
X133611114Y-48474672D01*
X133652141Y-48444971D01*
X133693194Y-48415350D01*
X133734274Y-48385807D01*
X133775380Y-48356344D01*
X133816513Y-48326960D01*
X133857672Y-48297656D01*
X133898858Y-48268430D01*
X133940070Y-48239284D01*
X133981309Y-48210218D01*
X134022573Y-48181230D01*
X134063864Y-48152322D01*
X134105181Y-48123493D01*
X134146523Y-48094743D01*
X134187892Y-48066073D01*
X134229287Y-48037482D01*
X134270707Y-48008970D01*
X134312153Y-47980538D01*
X134353625Y-47952184D01*
X134395122Y-47923911D01*
X134436645Y-47895716D01*
X134478193Y-47867601D01*
X134519766Y-47839565D01*
X134561365Y-47811608D01*
X134602989Y-47783730D01*
X134644638Y-47755932D01*
X134686313Y-47728214D01*
X134728012Y-47700574D01*
X134769736Y-47673014D01*
X134811485Y-47645533D01*
X134853259Y-47618132D01*
X134895057Y-47590810D01*
X134936880Y-47563567D01*
X134978727Y-47536404D01*
X135020599Y-47509320D01*
X135062495Y-47482315D01*
X135104416Y-47455390D01*
X135146360Y-47428544D01*
X135188329Y-47401778D01*
X135230322Y-47375091D01*
X135272338Y-47348484D01*
X135314379Y-47321956D01*
X135356443Y-47295507D01*
X135398531Y-47269138D01*
X135440643Y-47242848D01*
X135482777Y-47216638D01*
X135524936Y-47190508D01*
X135567117Y-47164457D01*
X135609322Y-47138485D01*
X135651550Y-47112594D01*
X135693801Y-47086781D01*
X135736075Y-47061049D01*
X135778372Y-47035396D01*
X135820691Y-47009822D01*
X135863033Y-46984328D01*
X135905398Y-46958914D01*
X135947785Y-46933580D01*
X135990194Y-46908325D01*
X136032626Y-46883150D01*
X136075080Y-46858055D01*
X136117555Y-46833039D01*
X136160053Y-46808104D01*
X136202573Y-46783248D01*
X136245114Y-46758472D01*
X136287677Y-46733776D01*
X136330261Y-46709159D01*
X136372867Y-46684623D01*
X136415493Y-46660166D01*
X136458142Y-46635790D01*
X136500811Y-46611493D01*
X136543501Y-46587276D01*
X136586212Y-46563140D01*
X136628943Y-46539083D01*
X136671695Y-46515107D01*
X136714468Y-46491210D01*
X136757261Y-46467394D01*
X136800074Y-46443658D01*
X136842907Y-46420002D01*
X136885761Y-46396426D01*
X136928634Y-46372931D01*
X136971526Y-46349515D01*
X137014439Y-46326181D01*
X137057371Y-46302926D01*
X137100322Y-46279752D01*
X137143292Y-46256658D01*
X137186281Y-46233644D01*
X137229290Y-46210711D01*
X137272317Y-46187859D01*
X137315363Y-46165087D01*
X137358427Y-46142395D01*
X137401510Y-46119784D01*
X137444611Y-46097254D01*
X137487730Y-46074805D01*
X137530867Y-46052436D01*
X137574021Y-46030147D01*
X137617194Y-46007940D01*
X137660383Y-45985813D01*
X137703591Y-45963768D01*
X137746815Y-45941803D01*
X137790056Y-45919919D01*
X137833315Y-45898116D01*
X137876590Y-45876394D01*
X137919881Y-45854753D01*
X137963189Y-45833193D01*
X138006513Y-45811714D01*
X138049854Y-45790316D01*
X138093210Y-45769000D01*
X138136582Y-45747765D01*
X138179969Y-45726611D01*
X138223372Y-45705538D01*
X138266790Y-45684547D01*
X138310223Y-45663637D01*
X138353671Y-45642809D01*
X138397133Y-45622062D01*
X138440610Y-45601397D01*
X138484102Y-45580813D01*
X138527607Y-45560311D01*
X138571127Y-45539891D01*
X138614660Y-45519552D01*
X138658206Y-45499296D01*
X138701766Y-45479121D01*
X138745339Y-45459028D01*
X138788925Y-45439017D01*
X138832524Y-45419088D01*
X138876135Y-45399241D01*
X138919759Y-45379476D01*
X138963395Y-45359793D01*
X139007042Y-45340193D01*
X139050701Y-45320675D01*
X139094372Y-45301239D01*
X139138054Y-45281885D01*
X139181747Y-45262614D01*
X139225451Y-45243426D01*
X139269165Y-45224320D01*
X139312890Y-45205296D01*
X139356624Y-45186355D01*
X139400369Y-45167497D01*
X139444123Y-45148722D01*
X139487887Y-45130030D01*
X139531659Y-45111420D01*
X139575441Y-45092894D01*
X139619231Y-45074450D01*
X139663029Y-45056090D01*
X139706836Y-45037813D01*
X139750650Y-45019619D01*
X139794472Y-45001508D01*
X139838301Y-44983480D01*
X139882138Y-44965536D01*
X139925981Y-44947676D01*
X139969830Y-44929899D01*
X140013686Y-44912206D01*
X140057547Y-44894596D01*
X140101414Y-44877070D01*
X140145287Y-44859628D01*
X140189164Y-44842270D01*
X140233047Y-44824996D01*
X140276933Y-44807805D01*
X140320824Y-44790699D01*
X140364718Y-44773677D01*
X140408616Y-44756740D01*
X140452518Y-44739886D01*
X140496421Y-44723117D01*
X140540328Y-44706433D01*
X140584236Y-44689833D01*
X140628147Y-44673317D01*
X140672059Y-44656887D01*
X140715972Y-44640541D01*
X140759885Y-44624280D01*
X140803799Y-44608104D01*
X140847713Y-44592013D01*
X140891627Y-44576007D01*
X140935540Y-44560086D01*
X140979452Y-44544251D01*
X141023363Y-44528501D01*
X141067272Y-44512836D01*
X141111178Y-44497257D01*
X141155082Y-44481763D01*
X141198983Y-44466355D01*
X141242880Y-44451033D01*
X141286773Y-44435797D01*
X141330662Y-44420646D01*
X141374547Y-44405582D01*
X141418426Y-44390604D01*
X141462299Y-44375712D01*
X141506167Y-44360906D01*
X141550028Y-44346187D01*
X141593881Y-44331554D01*
X141637728Y-44317007D01*
X141681566Y-44302548D01*
X141725397Y-44288175D01*
X141769218Y-44273889D01*
X141813030Y-44259690D01*
X141856831Y-44245578D01*
X141900623Y-44231553D01*
X141944403Y-44217616D01*
X141988173Y-44203765D01*
X142031930Y-44190002D01*
X142075674Y-44176327D01*
X142119406Y-44162740D01*
X142163123Y-44149240D01*
X142206827Y-44135828D01*
X142250515Y-44122504D01*
X142294189Y-44109268D01*
X142337846Y-44096120D01*
X142381487Y-44083060D01*
X142425110Y-44070089D01*
X142468716Y-44057206D01*
X142512303Y-44044412D01*
X142555871Y-44031707D01*
X142599419Y-44019090D01*
X142642947Y-44006562D01*
X142686453Y-43994124D01*
X142729938Y-43981774D01*
X142773400Y-43969514D01*
X142816839Y-43957343D01*
X142860254Y-43945262D01*
X142903644Y-43933270D01*
X142947009Y-43921368D01*
X142990347Y-43909556D01*
X143033659Y-43897834D01*
X143076942Y-43886202D01*
X143120197Y-43874660D01*
X143163423Y-43863208D01*
X143206618Y-43851847D01*
X143249782Y-43840577D01*
X143292914Y-43829397D01*
X143336013Y-43818308D01*
X143379079Y-43807310D01*
X143422109Y-43796403D01*
X143465104Y-43785587D01*
X143508063Y-43774863D01*
X143550984Y-43764230D01*
X143593866Y-43753689D01*
X143636709Y-43743239D01*
X143679511Y-43732882D01*
X143722272Y-43722616D01*
X143764990Y-43712443D01*
X143807664Y-43702361D01*
X143850293Y-43692373D01*
X143892876Y-43682476D01*
X143935412Y-43672673D01*
X143977900Y-43662962D01*
X144020338Y-43653345D01*
X144062726Y-43643820D01*
X144105061Y-43634389D01*
X144147343Y-43625051D01*
X144189570Y-43615807D01*
X144231742Y-43606656D01*
X144273856Y-43597600D01*
X144315911Y-43588637D01*
X144357907Y-43579769D01*
X144399840Y-43570995D01*
X144441711Y-43562315D01*
X144483517Y-43553730D01*
X144525257Y-43545240D01*
X144566929Y-43536845D01*
X144608531Y-43528545D01*
X144650063Y-43520340D01*
X144691522Y-43512231D01*
X144732906Y-43504218D01*
X144774213Y-43496300D01*
X144815443Y-43488478D01*
X144856593Y-43480752D01*
X144897660Y-43473122D01*
X144938644Y-43465589D01*
X144979541Y-43458153D01*
X145020350Y-43450813D01*
X145061069Y-43443571D01*
X145101696Y-43436425D01*
X145142228Y-43429377D01*
X145182662Y-43422427D01*
X145222997Y-43415574D01*
X145263230Y-43408819D01*
X145303359Y-43402162D01*
X145343380Y-43395603D01*
X145383292Y-43389143D01*
X145423091Y-43382781D01*
X145462775Y-43376519D01*
X145502340Y-43370355D01*
X145541784Y-43364290D01*
X145581103Y-43358325D01*
X145620295Y-43352460D01*
X145659355Y-43346694D01*
X145698281Y-43341029D01*
X145737069Y-43335463D01*
X145775715Y-43329999D01*
X145814215Y-43324634D01*
X145852565Y-43319371D01*
X145890762Y-43314209D01*
X145928800Y-43309148D01*
X145966676Y-43304188D01*
X146004385Y-43299330D01*
X146041922Y-43294574D01*
X146079282Y-43289921D01*
X146116461Y-43285370D01*
X146153451Y-43280921D01*
X146190249Y-43276575D01*
X146226847Y-43272333D01*
X146263240Y-43268193D01*
X146299422Y-43264158D01*
X146335385Y-43260226D01*
X146371123Y-43256398D01*
X146406627Y-43252674D01*
X146441891Y-43249055D01*
X146476905Y-43245541D01*
X146511662Y-43242132D01*
X146546152Y-43238828D01*
X146580365Y-43235630D01*
X146614291Y-43232538D01*
X146647918Y-43229552D01*
X146681236Y-43226672D01*
X146714231Y-43223899D01*
X146746891Y-43221233D01*
X146779201Y-43218674D01*
X146811145Y-43216222D01*
X146842707Y-43213878D01*
X146873869Y-43211643D01*
X146904611Y-43209515D01*
X146934912Y-43207497D01*
X146964748Y-43205587D01*
X146994094Y-43203786D01*
X147022921Y-43202095D01*
X147051197Y-43200514D01*
X147078887Y-43199043D01*
X147105949Y-43197682D01*
X147132336Y-43196432D01*
X147157997Y-43195293D01*
X147182866Y-43194265D01*
X147206869Y-43193348D01*
X147229915Y-43192543D01*
X147251890Y-43191850D01*
X147272648Y-43191268D01*
X147291991Y-43190798D01*
X147309642Y-43190439D01*
X147325162Y-43190190D01*
X147337762Y-43190047D01*
X147346000Y-43190000D01*
D11*
X172860214Y-72190000D02*
G75*
G02*
X170031786Y-72190000I-1414214J0D01*
G01*
X170031786Y-72190000D02*
G75*
G02*
X172860214Y-72190000I1414214J0D01*
G01*
X156860214Y-76190000D02*
G75*
G02*
X154031786Y-76190000I-1414214J0D01*
G01*
X154031786Y-76190000D02*
G75*
G02*
X156860214Y-76190000I1414214J0D01*
G01*
D10*
X113446000Y-90190000D02*
X125446000Y-81494000D01*
D11*
X134860214Y-75190000D02*
G75*
G02*
X132031786Y-75190000I-1414214J0D01*
G01*
X132031786Y-75190000D02*
G75*
G02*
X134860214Y-75190000I1414214J0D01*
G01*
D10*
X113446000Y-96190000D02*
X125446000Y-87494000D01*
D11*
X172860214Y-105190000D02*
G75*
G02*
X170031786Y-105190000I-1414214J0D01*
G01*
X170031786Y-105190000D02*
G75*
G02*
X172860214Y-105190000I1414214J0D01*
G01*
D10*
X188424344Y-110365132D02*
G75*
G02*
X108242075Y-109365132I-39696156J32170288D01*
G01*
X151446000Y-91190000D02*
X160446000Y-82190000D01*
X125446000Y-81494000D02*
X133446000Y-90190000D01*
X169446000Y-91190000D02*
X181446000Y-79190000D01*
X125446000Y-87494000D02*
X133446000Y-96190000D01*
X133446000Y-90190000D02*
X142446000Y-82190000D01*
D11*
X126860214Y-68190000D02*
G75*
G02*
X124031786Y-68190000I-1414214J0D01*
G01*
X124031786Y-68190000D02*
G75*
G02*
X126860214Y-68190000I1414214J0D01*
G01*
D10*
X133446000Y-96190000D02*
X142446000Y-88190000D01*
X144646000Y-143190000D02*
X141446000Y-143190000D01*
X142446000Y-88190000D02*
X146446000Y-92190000D01*
X183246000Y-107190000D02*
X183245990Y-107229422D01*
X183245960Y-107268814D01*
X183245910Y-107308177D01*
X183245840Y-107347512D01*
X183245750Y-107386816D01*
X183245641Y-107426092D01*
X183245511Y-107465338D01*
X183245361Y-107504555D01*
X183245192Y-107543743D01*
X183245002Y-107582902D01*
X183244793Y-107622031D01*
X183244564Y-107661132D01*
X183244315Y-107700203D01*
X183244047Y-107739245D01*
X183243758Y-107778258D01*
X183243450Y-107817242D01*
X183243122Y-107856197D01*
X183242774Y-107895123D01*
X183242407Y-107934020D01*
X183242020Y-107972888D01*
X183241613Y-108011727D01*
X183241186Y-108050537D01*
X183240740Y-108089317D01*
X183240274Y-108128069D01*
X183239788Y-108166792D01*
X183239283Y-108205487D01*
X183238758Y-108244152D01*
X183238214Y-108282788D01*
X183237650Y-108321395D01*
X183237066Y-108359974D01*
X183236463Y-108398524D01*
X183235841Y-108437045D01*
X183235198Y-108475537D01*
X183234537Y-108514000D01*
X183233855Y-108552435D01*
X183233155Y-108590841D01*
X183232434Y-108629218D01*
X183231695Y-108667566D01*
X183230936Y-108705886D01*
X183230157Y-108744177D01*
X183229359Y-108782439D01*
X183228542Y-108820673D01*
X183227705Y-108858878D01*
X183226849Y-108897054D01*
X183225974Y-108935202D01*
X183225079Y-108973321D01*
X183224165Y-109011412D01*
X183223231Y-109049474D01*
X183222278Y-109087507D01*
X183221306Y-109125512D01*
X183220315Y-109163489D01*
X183219305Y-109201437D01*
X183218275Y-109239356D01*
X183217226Y-109277247D01*
X183216158Y-109315110D01*
X183215070Y-109352944D01*
X183213964Y-109390750D01*
X183212838Y-109428527D01*
X183211693Y-109466276D01*
X183210529Y-109503997D01*
X183209346Y-109541689D01*
X183208143Y-109579353D01*
X183206922Y-109616989D01*
X183205681Y-109654596D01*
X183204422Y-109692175D01*
X183203143Y-109729726D01*
X183201845Y-109767248D01*
X183200529Y-109804743D01*
X183199193Y-109842209D01*
X183197838Y-109879647D01*
X183196465Y-109917056D01*
X183195072Y-109954438D01*
X183193660Y-109991791D01*
X183192230Y-110029116D01*
X183190780Y-110066413D01*
X183189312Y-110103682D01*
X183187825Y-110140923D01*
X183186318Y-110178136D01*
X183184793Y-110215321D01*
X183183249Y-110252477D01*
X183181686Y-110289606D01*
X183180105Y-110326707D01*
X183178504Y-110363779D01*
X183176885Y-110400824D01*
X183175247Y-110437841D01*
X183173590Y-110474829D01*
X183171915Y-110511790D01*
X183170220Y-110548723D01*
X183168507Y-110585628D01*
X183166776Y-110622505D01*
X183165025Y-110659355D01*
X183163256Y-110696176D01*
X183161468Y-110732970D01*
X183159662Y-110769735D01*
X183157837Y-110806473D01*
X183155993Y-110843184D01*
X183154130Y-110879866D01*
X183152249Y-110916521D01*
X183150350Y-110953148D01*
X183148431Y-110989747D01*
X183146495Y-111026318D01*
X183144539Y-111062862D01*
X183142565Y-111099378D01*
X183140573Y-111135867D01*
X183138562Y-111172328D01*
X183136533Y-111208761D01*
X183134485Y-111245166D01*
X183132418Y-111281544D01*
X183130334Y-111317895D01*
X183128230Y-111354217D01*
X183126109Y-111390513D01*
X183123969Y-111426781D01*
X183121810Y-111463021D01*
X183119633Y-111499233D01*
X183117438Y-111535419D01*
X183115224Y-111571577D01*
X183112992Y-111607707D01*
X183110742Y-111643810D01*
X183108473Y-111679885D01*
X183106186Y-111715933D01*
X183103881Y-111751954D01*
X183101557Y-111787947D01*
X183099216Y-111823913D01*
X183096856Y-111859852D01*
X183094477Y-111895763D01*
X183092081Y-111931647D01*
X183089666Y-111967504D01*
X183087233Y-112003333D01*
X183084782Y-112039135D01*
X183082313Y-112074910D01*
X183079825Y-112110658D01*
X183077320Y-112146378D01*
X183074796Y-112182072D01*
X183072254Y-112217738D01*
X183069694Y-112253377D01*
X183067116Y-112288988D01*
X183064520Y-112324573D01*
X183061905Y-112360130D01*
X183059273Y-112395661D01*
X183056623Y-112431164D01*
X183053955Y-112466640D01*
X183051268Y-112502089D01*
X183048564Y-112537512D01*
X183045841Y-112572907D01*
X183043101Y-112608275D01*
X183040343Y-112643616D01*
X183037567Y-112678930D01*
X183034772Y-112714217D01*
X183031960Y-112749477D01*
X183029130Y-112784710D01*
X183026282Y-112819917D01*
X183023417Y-112855096D01*
X183020533Y-112890249D01*
X183017632Y-112925374D01*
X183014712Y-112960473D01*
X183011775Y-112995545D01*
X183008820Y-113030591D01*
X183005847Y-113065609D01*
X183002857Y-113100601D01*
X182999848Y-113135565D01*
X182996822Y-113170503D01*
X182993778Y-113205415D01*
X182990717Y-113240299D01*
X182987638Y-113275157D01*
X182984540Y-113309988D01*
X182981426Y-113344793D01*
X182978293Y-113379571D01*
X182975143Y-113414322D01*
X182971975Y-113449046D01*
X182968790Y-113483744D01*
X182965587Y-113518416D01*
X182962366Y-113553060D01*
X182959128Y-113587679D01*
X182955872Y-113622270D01*
X182952599Y-113656835D01*
X182949308Y-113691374D01*
X182945999Y-113725886D01*
X182942673Y-113760371D01*
X182939329Y-113794830D01*
X182935968Y-113829263D01*
X182932590Y-113863669D01*
X182929193Y-113898049D01*
X182925780Y-113932402D01*
X182922349Y-113966729D01*
X182918900Y-114001030D01*
X182915434Y-114035304D01*
X182911951Y-114069552D01*
X182908450Y-114103773D01*
X182904931Y-114137968D01*
X182901396Y-114172137D01*
X182897843Y-114206280D01*
X182894272Y-114240396D01*
X182890685Y-114274486D01*
X182887080Y-114308549D01*
X182883457Y-114342587D01*
X182879817Y-114376598D01*
X182876160Y-114410583D01*
X182872486Y-114444542D01*
X182868794Y-114478475D01*
X182865086Y-114512381D01*
X182861359Y-114546262D01*
X182857616Y-114580116D01*
X182853856Y-114613945D01*
X182850078Y-114647747D01*
X182846283Y-114681523D01*
X182842471Y-114715273D01*
X182838641Y-114748997D01*
X182834795Y-114782695D01*
X182830931Y-114816367D01*
X182827050Y-114850013D01*
X182823152Y-114883633D01*
X182819237Y-114917226D01*
X182815305Y-114950795D01*
X182811356Y-114984337D01*
X182807389Y-115017853D01*
X182803406Y-115051343D01*
X182799405Y-115084808D01*
X182795388Y-115118246D01*
X182791353Y-115151659D01*
X182787302Y-115185045D01*
X182783233Y-115218407D01*
X182779148Y-115251741D01*
X182775045Y-115285051D01*
X182770926Y-115318334D01*
X182766789Y-115351592D01*
X182762636Y-115384824D01*
X182758465Y-115418031D01*
X182754278Y-115451211D01*
X182750074Y-115484366D01*
X182745853Y-115517495D01*
X182741615Y-115550599D01*
X182737360Y-115583676D01*
X182733089Y-115616729D01*
X182728800Y-115649755D01*
X182724495Y-115682757D01*
X182720173Y-115715732D01*
X182715834Y-115748682D01*
X182711478Y-115781605D01*
X182707105Y-115814505D01*
X182702716Y-115847377D01*
X182698310Y-115880225D01*
X182693887Y-115913047D01*
X182689448Y-115945844D01*
X182684991Y-115978615D01*
X182680518Y-116011361D01*
X182676029Y-116044080D01*
X182671522Y-116076776D01*
X182666999Y-116109445D01*
X182662459Y-116142089D01*
X182657903Y-116174707D01*
X182653330Y-116207301D01*
X182648740Y-116239868D01*
X182644134Y-116272411D01*
X182639511Y-116304928D01*
X182634871Y-116337420D01*
X182630215Y-116369886D01*
X182625543Y-116402328D01*
X182620854Y-116434743D01*
X182616148Y-116467135D01*
X182611426Y-116499500D01*
X182606687Y-116531840D01*
X182601931Y-116564155D01*
X182597160Y-116596445D01*
X182592371Y-116628710D01*
X182587566Y-116660950D01*
X182582745Y-116693164D01*
X182577907Y-116725353D01*
X182573053Y-116757517D01*
X182568183Y-116789657D01*
X182563296Y-116821770D01*
X182558392Y-116853860D01*
X182553473Y-116885923D01*
X182548536Y-116917962D01*
X182543584Y-116949976D01*
X182538615Y-116981965D01*
X182533630Y-117013928D01*
X182528628Y-117045868D01*
X182523610Y-117077781D01*
X182518576Y-117109670D01*
X182513525Y-117141534D01*
X182508458Y-117173373D01*
X182503375Y-117205187D01*
X182498276Y-117236977D01*
X182493160Y-117268741D01*
X182488028Y-117300481D01*
X182482880Y-117332195D01*
X182477716Y-117363885D01*
X182472535Y-117395550D01*
X182467339Y-117427191D01*
X182462126Y-117458805D01*
X182456896Y-117490397D01*
X182451651Y-117521962D01*
X182446390Y-117553504D01*
X182441112Y-117585020D01*
X182435818Y-117616512D01*
X182430509Y-117647978D01*
X182425183Y-117679421D01*
X182419841Y-117710839D01*
X182414482Y-117742232D01*
X182409108Y-117773600D01*
X182403718Y-117804944D01*
X182398312Y-117836263D01*
X182392889Y-117867558D01*
X182387451Y-117898828D01*
X182381996Y-117930074D01*
X182376526Y-117961294D01*
X182371040Y-117992491D01*
X182365537Y-118023662D01*
X182360019Y-118054810D01*
X182354484Y-118085932D01*
X182348934Y-118117031D01*
X182343368Y-118148105D01*
X182337786Y-118179155D01*
X182332188Y-118210179D01*
X182326573Y-118241181D01*
X182320944Y-118272156D01*
X182315298Y-118303109D01*
X182309636Y-118334036D01*
X182303959Y-118364939D01*
X182298265Y-118395817D01*
X182292556Y-118426673D01*
X182286831Y-118457502D01*
X182281090Y-118488309D01*
X182275333Y-118519090D01*
X182269561Y-118549848D01*
X182263773Y-118580580D01*
X182257968Y-118611289D01*
X182252149Y-118641973D01*
X182246313Y-118672634D01*
X182240462Y-118703270D01*
X182234594Y-118733883D01*
X182228712Y-118764470D01*
X182222813Y-118795034D01*
X182216899Y-118825573D01*
X182210969Y-118856089D01*
X182205024Y-118886580D01*
X182199062Y-118917048D01*
X182193085Y-118947490D01*
X182187093Y-118977910D01*
X182181085Y-119008305D01*
X182175061Y-119038676D01*
X182169021Y-119069023D01*
X182162966Y-119099346D01*
X182156896Y-119129645D01*
X182150809Y-119159920D01*
X182144708Y-119190171D01*
X182138590Y-119220399D01*
X182132457Y-119250601D01*
X182126309Y-119280781D01*
X182120145Y-119310936D01*
X182113965Y-119341068D01*
X182107770Y-119371175D01*
X182101559Y-119401259D01*
X182095334Y-119431319D01*
X182089092Y-119461356D01*
X182082835Y-119491367D01*
X182076562Y-119521356D01*
X182070275Y-119551320D01*
X182063971Y-119581262D01*
X182057653Y-119611178D01*
X182051318Y-119641073D01*
X182044969Y-119670941D01*
X182038604Y-119700788D01*
X182032224Y-119730610D01*
X182025828Y-119760409D01*
X182019417Y-119790183D01*
X182012990Y-119819935D01*
X182006548Y-119849662D01*
X182000091Y-119879367D01*
X181993619Y-119909047D01*
X181987131Y-119938704D01*
X181980628Y-119968337D01*
X181974109Y-119997947D01*
X181967576Y-120027532D01*
X181961027Y-120057096D01*
X181954463Y-120086634D01*
X181947883Y-120116150D01*
X181941289Y-120145641D01*
X181934678Y-120175111D01*
X181928053Y-120204555D01*
X181921413Y-120233977D01*
X181914757Y-120263375D01*
X181908087Y-120292750D01*
X181901401Y-120322101D01*
X181894699Y-120351430D01*
X181887983Y-120380733D01*
X181881252Y-120410015D01*
X181874505Y-120439272D01*
X181867743Y-120468508D01*
X181860967Y-120497718D01*
X181854175Y-120526907D01*
X181847368Y-120556070D01*
X181840545Y-120585212D01*
X181833708Y-120614329D01*
X181826856Y-120643425D01*
X181819989Y-120672496D01*
X181813106Y-120701545D01*
X181806209Y-120730569D01*
X181799296Y-120759572D01*
X181792369Y-120788549D01*
X181785426Y-120817506D01*
X181778468Y-120846437D01*
X181771496Y-120875347D01*
X181764508Y-120904232D01*
X181757506Y-120933096D01*
X181750488Y-120961935D01*
X181743456Y-120990753D01*
X181736409Y-121019546D01*
X181729346Y-121048317D01*
X181722269Y-121077064D01*
X181715177Y-121105789D01*
X181708070Y-121134490D01*
X181700948Y-121163169D01*
X181693811Y-121191824D01*
X181686659Y-121220457D01*
X181679493Y-121249066D01*
X181672311Y-121277654D01*
X181665115Y-121306216D01*
X181657903Y-121334758D01*
X181650678Y-121363275D01*
X181643436Y-121391771D01*
X181636181Y-121420242D01*
X181628910Y-121448692D01*
X181621625Y-121477118D01*
X181614325Y-121505522D01*
X181607011Y-121533902D01*
X181599681Y-121562261D01*
X181592337Y-121590595D01*
X181584977Y-121618909D01*
X181577604Y-121647197D01*
X181570215Y-121675465D01*
X181562812Y-121703708D01*
X181555394Y-121731931D01*
X181547961Y-121760129D01*
X181540514Y-121788306D01*
X181533052Y-121816458D01*
X181525575Y-121844590D01*
X181518084Y-121872697D01*
X181510578Y-121900783D01*
X181503057Y-121928845D01*
X181495522Y-121956886D01*
X181487972Y-121984902D01*
X181480407Y-122012898D01*
X181472828Y-122040870D01*
X181465234Y-122068820D01*
X181457626Y-122096747D01*
X181450003Y-122124652D01*
X181442366Y-122152534D01*
X181434713Y-122180394D01*
X181427047Y-122208231D01*
X181419365Y-122236046D01*
X181411670Y-122263838D01*
X181403959Y-122291609D01*
X181396235Y-122319355D01*
X181388495Y-122347081D01*
X181380742Y-122374783D01*
X181372973Y-122402464D01*
X181365191Y-122430121D01*
X181357393Y-122457757D01*
X181349582Y-122485369D01*
X181341756Y-122512961D01*
X181333915Y-122540528D01*
X181326060Y-122568076D01*
X181318191Y-122595598D01*
X181310307Y-122623101D01*
X181302409Y-122650579D01*
X181294496Y-122678037D01*
X181286569Y-122705471D01*
X181278627Y-122732885D01*
X181270672Y-122760274D01*
X181262701Y-122787643D01*
X181254717Y-122814988D01*
X181246718Y-122842313D01*
X181238705Y-122869613D01*
X181230677Y-122896894D01*
X181222635Y-122924150D01*
X181214579Y-122951386D01*
X181206508Y-122978598D01*
X181198423Y-123005790D01*
X181190324Y-123032958D01*
X181182211Y-123060106D01*
X181174083Y-123087230D01*
X181165941Y-123114334D01*
X181157785Y-123141413D01*
X181149614Y-123168473D01*
X181141430Y-123195509D01*
X181133231Y-123222525D01*
X181125018Y-123249516D01*
X181116790Y-123276488D01*
X181108549Y-123303436D01*
X181100293Y-123330364D01*
X181092023Y-123357268D01*
X181083739Y-123384152D01*
X181075441Y-123411012D01*
X181067128Y-123437853D01*
X181058802Y-123464669D01*
X181050461Y-123491466D01*
X181042106Y-123518238D01*
X181033737Y-123544992D01*
X181025354Y-123571720D01*
X181016956Y-123598430D01*
X181008545Y-123625115D01*
X181000119Y-123651781D01*
X180991680Y-123678423D01*
X180983226Y-123705046D01*
X180974759Y-123731644D01*
X180966277Y-123758223D01*
X180957781Y-123784778D01*
X180949271Y-123811313D01*
X180940747Y-123837825D01*
X180932209Y-123864317D01*
X180923658Y-123890785D01*
X180915091Y-123917234D01*
X180906512Y-123943659D01*
X180897917Y-123970065D01*
X180889310Y-123996447D01*
X180880687Y-124022809D01*
X180872052Y-124049148D01*
X180863401Y-124075467D01*
X180854738Y-124101763D01*
X180846060Y-124128039D01*
X180837368Y-124154291D01*
X180828662Y-124180525D01*
X180819943Y-124206734D01*
X180811209Y-124232924D01*
X180802462Y-124259091D01*
X180793700Y-124285238D01*
X180784925Y-124311362D01*
X180776136Y-124337466D01*
X180767333Y-124363547D01*
X180758516Y-124389608D01*
X180749685Y-124415646D01*
X180740840Y-124441665D01*
X180731982Y-124467660D01*
X180723109Y-124493637D01*
X180714224Y-124519589D01*
X180705323Y-124545522D01*
X180696410Y-124571432D01*
X180687482Y-124597323D01*
X180678541Y-124623190D01*
X180669585Y-124649039D01*
X180660617Y-124674863D01*
X180651633Y-124700669D01*
X180642637Y-124726451D01*
X180633626Y-124752215D01*
X180624603Y-124777954D01*
X180615564Y-124803675D01*
X180606513Y-124829372D01*
X180597448Y-124855051D01*
X180588369Y-124880706D01*
X180579276Y-124906342D01*
X180570170Y-124931955D01*
X180561049Y-124957549D01*
X180551916Y-124983119D01*
X180542768Y-125008671D01*
X180533607Y-125034199D01*
X180524431Y-125059709D01*
X180515243Y-125085195D01*
X180506040Y-125110663D01*
X180496825Y-125136107D01*
X180487595Y-125161533D01*
X180478352Y-125186934D01*
X180469095Y-125212318D01*
X180459825Y-125237678D01*
X180450540Y-125263020D01*
X180441243Y-125288338D01*
X180431931Y-125313637D01*
X180422607Y-125338913D01*
X180413268Y-125364171D01*
X180403916Y-125389406D01*
X180394550Y-125414622D01*
X180385172Y-125439814D01*
X180375778Y-125464989D01*
X180366372Y-125490139D01*
X180356952Y-125515272D01*
X180347519Y-125540381D01*
X180338072Y-125565472D01*
X180328612Y-125590540D01*
X180319137Y-125615589D01*
X180309650Y-125640615D01*
X180300149Y-125665623D01*
X180290635Y-125690607D01*
X180281106Y-125715574D01*
X180271565Y-125740516D01*
X180262010Y-125765441D01*
X180252442Y-125790343D01*
X180242859Y-125815226D01*
X180233265Y-125840086D01*
X180223655Y-125864929D01*
X180214034Y-125889747D01*
X180204397Y-125914548D01*
X180194749Y-125939326D01*
X180185086Y-125964085D01*
X180175411Y-125988821D01*
X180165721Y-126013540D01*
X180156018Y-126038235D01*
X180146302Y-126062912D01*
X180136573Y-126087566D01*
X180126829Y-126112202D01*
X180117074Y-126136815D01*
X180107303Y-126161410D01*
X180097521Y-126185982D01*
X180087724Y-126210536D01*
X180077915Y-126235067D01*
X180068091Y-126259580D01*
X180058255Y-126284070D01*
X180048405Y-126308542D01*
X180038543Y-126332991D01*
X180028666Y-126357422D01*
X180018777Y-126381830D01*
X180008873Y-126406221D01*
X179998958Y-126430588D01*
X179989027Y-126454938D01*
X179979085Y-126479264D01*
X179969128Y-126503574D01*
X179959160Y-126527859D01*
X179949176Y-126552128D01*
X179939181Y-126576373D01*
X179929171Y-126600601D01*
X179919150Y-126624805D01*
X179909113Y-126648993D01*
X179899065Y-126673157D01*
X179889002Y-126697304D01*
X179878928Y-126721427D01*
X179868839Y-126745533D01*
X179858737Y-126769616D01*
X179848622Y-126793682D01*
X179838494Y-126817725D01*
X179828352Y-126841750D01*
X179818199Y-126865753D01*
X179808030Y-126889738D01*
X179797850Y-126913700D01*
X179787655Y-126937645D01*
X179777449Y-126961566D01*
X179767228Y-126985471D01*
X179756995Y-127009352D01*
X179746748Y-127033217D01*
X179736489Y-127057058D01*
X179726215Y-127080883D01*
X179715930Y-127104684D01*
X179705630Y-127128468D01*
X179695319Y-127152229D01*
X179684993Y-127175973D01*
X179674655Y-127199694D01*
X179664303Y-127223398D01*
X179653939Y-127247079D01*
X179643561Y-127270744D01*
X179633171Y-127294385D01*
X179622766Y-127318009D01*
X179612350Y-127341610D01*
X179601920Y-127365195D01*
X179591477Y-127388756D01*
X179581021Y-127412301D01*
X179570552Y-127435822D01*
X179560070Y-127459327D01*
X179549575Y-127482809D01*
X179539066Y-127506274D01*
X179528546Y-127529716D01*
X179518011Y-127553142D01*
X179507465Y-127576544D01*
X179496904Y-127599930D01*
X179486332Y-127623293D01*
X179475745Y-127646639D01*
X179465146Y-127669963D01*
X179454534Y-127693269D01*
X179443909Y-127716553D01*
X179433271Y-127739820D01*
X179422620Y-127763065D01*
X179411956Y-127786293D01*
X179401280Y-127809497D01*
X179390589Y-127832686D01*
X179379887Y-127855851D01*
X179369171Y-127879000D01*
X179358443Y-127902126D01*
X179347701Y-127925236D01*
X179336947Y-127948323D01*
X179326179Y-127971394D01*
X179315399Y-127994441D01*
X179304605Y-128017472D01*
X179293800Y-128040481D01*
X179272150Y-128086442D01*
X179250447Y-128132325D01*
X179228694Y-128178130D01*
X179206889Y-128223857D01*
X179185032Y-128269506D01*
X179163125Y-128315077D01*
X179141165Y-128360570D01*
X179119155Y-128405986D01*
X179097094Y-128451323D01*
X179074981Y-128496584D01*
X179052817Y-128541767D01*
X179030602Y-128586872D01*
X179008336Y-128631901D01*
X178986019Y-128676852D01*
X178963651Y-128721726D01*
X178941232Y-128766523D01*
X178918762Y-128811243D01*
X178896242Y-128855886D01*
X178873670Y-128900453D01*
X178851048Y-128944943D01*
X178828375Y-128989356D01*
X178805652Y-129033693D01*
X178782877Y-129077953D01*
X178760052Y-129122137D01*
X178737177Y-129166245D01*
X178714251Y-129210277D01*
X178691274Y-129254233D01*
X178668247Y-129298112D01*
X178645169Y-129341916D01*
X178622041Y-129385644D01*
X178598863Y-129429296D01*
X178575634Y-129472873D01*
X178552355Y-129516374D01*
X178529026Y-129559799D01*
X178505647Y-129603150D01*
X178482217Y-129646425D01*
X178458737Y-129689624D01*
X178435207Y-129732749D01*
X178411627Y-129775798D01*
X178387997Y-129818772D01*
X178364317Y-129861672D01*
X178340586Y-129904497D01*
X178316806Y-129947247D01*
X178292976Y-129989922D01*
X178269096Y-130032523D01*
X178245166Y-130075049D01*
X178221187Y-130117501D01*
X178197157Y-130159878D01*
X178173078Y-130202181D01*
X178148949Y-130244410D01*
X178124770Y-130286565D01*
X178100542Y-130328646D01*
X178076263Y-130370653D01*
X178051936Y-130412586D01*
X178027558Y-130454445D01*
X178003131Y-130496231D01*
X177978655Y-130537942D01*
X177954129Y-130579581D01*
X177929553Y-130621146D01*
X177904929Y-130662637D01*
X177880254Y-130704055D01*
X177855530Y-130745400D01*
X177830757Y-130786672D01*
X177805935Y-130827870D01*
X177781063Y-130868996D01*
X177756142Y-130910048D01*
X177731172Y-130951028D01*
X177706152Y-130991935D01*
X177681083Y-131032769D01*
X177655965Y-131073530D01*
X177630798Y-131114219D01*
X177605582Y-131154836D01*
X177580317Y-131195379D01*
X177555002Y-131235851D01*
X177529639Y-131276250D01*
X177504226Y-131316577D01*
X177478764Y-131356832D01*
X177453254Y-131397015D01*
X177427694Y-131437126D01*
X177402086Y-131477165D01*
X177376428Y-131517132D01*
X177350722Y-131557027D01*
X177324967Y-131596851D01*
X177299163Y-131636602D01*
X177273310Y-131676283D01*
X177247408Y-131715891D01*
X177221458Y-131755429D01*
X177195459Y-131794895D01*
X177169411Y-131834289D01*
X177143314Y-131873613D01*
X177117168Y-131912865D01*
X177090974Y-131952046D01*
X177064732Y-131991156D01*
X177038440Y-132030195D01*
X177012100Y-132069163D01*
X176985712Y-132108061D01*
X176959274Y-132146887D01*
X176932789Y-132185643D01*
X176906254Y-132224329D01*
X176879672Y-132262943D01*
X176853040Y-132301488D01*
X176826361Y-132339961D01*
X176799632Y-132378365D01*
X176772856Y-132416698D01*
X176746030Y-132454961D01*
X176719157Y-132493153D01*
X176692235Y-132531276D01*
X176665265Y-132569328D01*
X176638246Y-132607311D01*
X176611179Y-132645223D01*
X176584063Y-132683066D01*
X176556900Y-132720839D01*
X176529688Y-132758542D01*
X176502427Y-132796175D01*
X176475119Y-132833739D01*
X176447762Y-132871234D01*
X176420357Y-132908658D01*
X176392904Y-132946014D01*
X176365402Y-132983300D01*
X176337853Y-133020516D01*
X176310255Y-133057664D01*
X176282609Y-133094742D01*
X176254915Y-133131751D01*
X176227172Y-133168691D01*
X176199382Y-133205562D01*
X176171543Y-133242364D01*
X176143657Y-133279097D01*
X176115722Y-133315761D01*
X176087739Y-133352356D01*
X176059708Y-133388883D01*
X176031630Y-133425341D01*
X176003503Y-133461730D01*
X175975328Y-133498051D01*
X175947105Y-133534303D01*
X175918834Y-133570487D01*
X175890515Y-133606603D01*
X175862148Y-133642650D01*
X175833733Y-133678628D01*
X175805270Y-133714539D01*
X175776760Y-133750381D01*
X175748201Y-133786155D01*
X175719594Y-133821861D01*
X175690940Y-133857500D01*
X175662237Y-133893070D01*
X175633487Y-133928572D01*
X175604689Y-133964006D01*
X175575843Y-133999372D01*
X175546949Y-134034671D01*
X175518007Y-134069902D01*
X175489018Y-134105065D01*
X175459980Y-134140161D01*
X175430895Y-134175189D01*
X175401762Y-134210149D01*
X175372581Y-134245042D01*
X175343352Y-134279868D01*
X175314075Y-134314626D01*
X175284751Y-134349317D01*
X175255379Y-134383941D01*
X175225959Y-134418497D01*
X175196492Y-134452986D01*
X175166976Y-134487408D01*
X175137413Y-134521763D01*
X175107802Y-134556051D01*
X175078144Y-134590272D01*
X175048437Y-134624426D01*
X175018683Y-134658513D01*
X174988881Y-134692533D01*
X174959032Y-134726486D01*
X174929135Y-134760373D01*
X174899190Y-134794192D01*
X174869197Y-134827945D01*
X174839157Y-134861632D01*
X174809069Y-134895251D01*
X174778933Y-134928805D01*
X174748750Y-134962291D01*
X174718519Y-134995711D01*
X174688240Y-135029065D01*
X174657914Y-135062352D01*
X174627540Y-135095573D01*
X174597118Y-135128728D01*
X174566649Y-135161816D01*
X174536132Y-135194838D01*
X174505568Y-135227794D01*
X174474955Y-135260683D01*
X174444296Y-135293507D01*
X174413588Y-135326264D01*
X174382833Y-135358956D01*
X174352030Y-135391581D01*
X174321180Y-135424140D01*
X174290282Y-135456634D01*
X174259337Y-135489061D01*
X174228344Y-135521423D01*
X174197303Y-135553718D01*
X174166215Y-135585948D01*
X174135079Y-135618112D01*
X174103895Y-135650211D01*
X174072664Y-135682243D01*
X174041385Y-135714210D01*
X174010059Y-135746112D01*
X173978685Y-135777947D01*
X173947264Y-135809717D01*
X173915795Y-135841422D01*
X173884278Y-135873061D01*
X173852714Y-135904635D01*
X173821102Y-135936143D01*
X173789443Y-135967585D01*
X173757736Y-135998963D01*
X173725981Y-136030275D01*
X173694179Y-136061521D01*
X173662330Y-136092702D01*
X173630433Y-136123818D01*
X173598488Y-136154869D01*
X173566496Y-136185855D01*
X173534456Y-136216775D01*
X173502368Y-136247630D01*
X173470233Y-136278420D01*
X173438051Y-136309145D01*
X173405821Y-136339805D01*
X173373543Y-136370399D01*
X173341218Y-136400929D01*
X173308845Y-136431393D01*
X173276425Y-136461793D01*
X173243957Y-136492128D01*
X173211442Y-136522397D01*
X173178879Y-136552602D01*
X173146268Y-136582742D01*
X173113610Y-136612817D01*
X173080905Y-136642827D01*
X173048152Y-136672772D01*
X173015351Y-136702653D01*
X172982503Y-136732468D01*
X172949607Y-136762219D01*
X172916664Y-136791905D01*
X172883673Y-136821527D01*
X172850635Y-136851083D01*
X172817549Y-136880575D01*
X172784415Y-136910003D01*
X172751234Y-136939365D01*
X172718006Y-136968663D01*
X172684730Y-136997896D01*
X172651406Y-137027065D01*
X172618035Y-137056169D01*
X172584617Y-137085209D01*
X172551150Y-137114183D01*
X172517637Y-137143094D01*
X172484075Y-137171940D01*
X172450467Y-137200721D01*
X172416810Y-137229438D01*
X172383107Y-137258090D01*
X172349355Y-137286678D01*
X172315556Y-137315201D01*
X172281710Y-137343660D01*
X172247816Y-137372054D01*
X172213875Y-137400384D01*
X172179886Y-137428649D01*
X172145849Y-137456850D01*
X172111765Y-137484987D01*
X172077634Y-137513059D01*
X172043455Y-137541067D01*
X172009228Y-137569010D01*
X171974954Y-137596890D01*
X171940633Y-137624704D01*
X171906264Y-137652455D01*
X171871847Y-137680140D01*
X171837383Y-137707762D01*
X171802872Y-137735319D01*
X171768313Y-137762812D01*
X171733706Y-137790241D01*
X171699052Y-137817605D01*
X171664351Y-137844905D01*
X171629602Y-137872141D01*
X171594805Y-137899312D01*
X171559961Y-137926419D01*
X171525070Y-137953461D01*
X171490131Y-137980440D01*
X171455145Y-138007354D01*
X171420111Y-138034203D01*
X171385030Y-138060989D01*
X171349901Y-138087710D01*
X171314725Y-138114366D01*
X171279501Y-138140959D01*
X171244230Y-138167487D01*
X171208912Y-138193951D01*
X171173546Y-138220350D01*
X171138132Y-138246685D01*
X171102672Y-138272956D01*
X171067164Y-138299163D01*
X171031608Y-138325305D01*
X170996005Y-138351383D01*
X170960355Y-138377396D01*
X170924657Y-138403346D01*
X170888912Y-138429230D01*
X170853119Y-138455051D01*
X170817280Y-138480807D01*
X170781392Y-138506499D01*
X170745458Y-138532126D01*
X170709476Y-138557689D01*
X170673447Y-138583187D01*
X170637370Y-138608622D01*
X170601246Y-138633991D01*
X170565075Y-138659297D01*
X170528857Y-138684537D01*
X170492591Y-138709714D01*
X170456278Y-138734826D01*
X170419918Y-138759873D01*
X170383510Y-138784856D01*
X170347055Y-138809775D01*
X170310553Y-138834629D01*
X170274004Y-138859419D01*
X170237407Y-138884144D01*
X170200764Y-138908804D01*
X170164073Y-138933400D01*
X170127335Y-138957931D01*
X170090550Y-138982398D01*
X170053717Y-139006800D01*
X170016838Y-139031138D01*
X169979911Y-139055410D01*
X169942938Y-139079619D01*
X169905917Y-139103762D01*
X169868849Y-139127841D01*
X169831734Y-139151855D01*
X169794572Y-139175804D01*
X169757363Y-139199689D01*
X169720107Y-139223509D01*
X169682804Y-139247264D01*
X169645454Y-139270954D01*
X169608057Y-139294580D01*
X169570614Y-139318140D01*
X169533123Y-139341636D01*
X169495585Y-139365067D01*
X169458001Y-139388432D01*
X169420369Y-139411733D01*
X169382691Y-139434969D01*
X169344966Y-139458140D01*
X169307194Y-139481246D01*
X169269376Y-139504287D01*
X169231511Y-139527262D01*
X169193599Y-139550173D01*
X169155640Y-139573018D01*
X169117635Y-139595799D01*
X169079583Y-139618514D01*
X169041484Y-139641164D01*
X169003339Y-139663748D01*
X168965147Y-139686267D01*
X168926909Y-139708721D01*
X168888624Y-139731110D01*
X168850293Y-139753433D01*
X168811915Y-139775691D01*
X168773491Y-139797884D01*
X168735021Y-139820011D01*
X168696504Y-139842072D01*
X168657941Y-139864068D01*
X168619331Y-139885998D01*
X168580676Y-139907863D01*
X168541974Y-139929662D01*
X168503226Y-139951396D01*
X168464431Y-139973063D01*
X168425591Y-139994665D01*
X168386705Y-140016201D01*
X168347772Y-140037671D01*
X168308794Y-140059076D01*
X168269770Y-140080414D01*
X168230699Y-140101687D01*
X168191583Y-140122893D01*
X168152421Y-140144034D01*
X168113214Y-140165108D01*
X168073960Y-140186117D01*
X168034661Y-140207059D01*
X167995316Y-140227935D01*
X167955926Y-140248745D01*
X167916490Y-140269488D01*
X167877008Y-140290165D01*
X167837481Y-140310776D01*
X167797909Y-140331320D01*
X167758291Y-140351798D01*
X167718628Y-140372210D01*
X167678920Y-140392555D01*
X167639167Y-140412833D01*
X167599368Y-140433044D01*
X167559524Y-140453189D01*
X167519636Y-140473267D01*
X167479702Y-140493279D01*
X167439723Y-140513223D01*
X167399700Y-140533101D01*
X167359632Y-140552911D01*
X167319519Y-140572655D01*
X167279361Y-140592332D01*
X167239159Y-140611941D01*
X167198912Y-140631483D01*
X167158621Y-140650959D01*
X167118285Y-140670366D01*
X167077906Y-140689707D01*
X167037481Y-140708980D01*
X166997013Y-140728186D01*
X166956501Y-140747324D01*
X166915944Y-140766395D01*
X166875344Y-140785398D01*
X166834699Y-140804334D01*
X166794011Y-140823202D01*
X166753279Y-140842002D01*
X166712504Y-140860734D01*
X166671685Y-140879398D01*
X166630822Y-140897994D01*
X166589916Y-140916523D01*
X166548967Y-140934983D01*
X166507974Y-140953375D01*
X166466939Y-140971699D01*
X166425860Y-140989955D01*
X166384739Y-141008142D01*
X166343574Y-141026261D01*
X166302367Y-141044312D01*
X166261117Y-141062294D01*
X166219825Y-141080208D01*
X166178490Y-141098052D01*
X166137113Y-141115829D01*
X166095694Y-141133536D01*
X166054232Y-141151174D01*
X166012729Y-141168744D01*
X165971183Y-141186245D01*
X165929596Y-141203676D01*
X165887967Y-141221039D01*
X165846296Y-141238332D01*
X165804584Y-141255556D01*
X165762831Y-141272711D01*
X165721036Y-141289796D01*
X165679200Y-141306812D01*
X165637324Y-141323758D01*
X165595406Y-141340635D01*
X165553448Y-141357442D01*
X165511449Y-141374179D01*
X165469410Y-141390847D01*
X165427330Y-141407444D01*
X165385210Y-141423972D01*
X165343051Y-141440429D01*
X165300851Y-141456816D01*
X165258611Y-141473133D01*
X165216332Y-141489380D01*
X165174014Y-141505556D01*
X165131656Y-141521662D01*
X165089259Y-141537698D01*
X165046823Y-141553662D01*
X165004348Y-141569556D01*
X164961834Y-141585380D01*
X164919282Y-141601132D01*
X164876692Y-141616814D01*
X164834063Y-141632424D01*
X164791397Y-141647963D01*
X164748692Y-141663432D01*
X164705950Y-141678828D01*
X164663171Y-141694154D01*
X164620354Y-141709408D01*
X164577500Y-141724591D01*
X164534609Y-141739701D01*
X164491682Y-141754741D01*
X164448718Y-141769708D01*
X164405717Y-141784604D01*
X164362681Y-141799427D01*
X164319608Y-141814179D01*
X164276500Y-141828858D01*
X164233357Y-141843465D01*
X164190178Y-141858000D01*
X164146964Y-141872462D01*
X164103715Y-141886852D01*
X164060431Y-141901169D01*
X164017113Y-141915414D01*
X163973761Y-141929585D01*
X163930375Y-141943684D01*
X163886956Y-141957710D01*
X163843503Y-141971663D01*
X163800017Y-141985542D01*
X163756497Y-141999348D01*
X163712945Y-142013081D01*
X163669361Y-142026741D01*
X163625745Y-142040327D01*
X163582096Y-142053839D01*
X163538416Y-142067277D01*
X163494705Y-142080642D01*
X163450963Y-142093933D01*
X163407190Y-142107149D01*
X163363386Y-142120292D01*
X163319552Y-142133360D01*
X163275688Y-142146354D01*
X163231795Y-142159273D01*
X163187872Y-142172118D01*
X163143921Y-142184888D01*
X163099941Y-142197583D01*
X163055932Y-142210204D01*
X163011896Y-142222749D01*
X162967832Y-142235219D01*
X162923740Y-142247615D01*
X162879622Y-142259934D01*
X162835477Y-142272179D01*
X162791306Y-142284348D01*
X162747108Y-142296441D01*
X162702886Y-142308459D01*
X162658638Y-142320400D01*
X162614365Y-142332266D01*
X162570068Y-142344056D01*
X162525748Y-142355769D01*
X162481403Y-142367406D01*
X162437035Y-142378967D01*
X162392645Y-142390451D01*
X162348232Y-142401859D01*
X162303798Y-142413190D01*
X162259342Y-142424444D01*
X162214865Y-142435621D01*
X162170367Y-142446721D01*
X162125849Y-142457744D01*
X162081312Y-142468690D01*
X162036756Y-142479558D01*
X161992180Y-142490348D01*
X161947587Y-142501061D01*
X161902976Y-142511696D01*
X161858348Y-142522253D01*
X161813703Y-142532733D01*
X161769042Y-142543134D01*
X161724365Y-142553457D01*
X161679674Y-142563701D01*
X161634968Y-142573867D01*
X161590248Y-142583954D01*
X161545514Y-142593963D01*
X161500768Y-142603893D01*
X161456010Y-142613744D01*
X161411240Y-142623515D01*
X161366459Y-142633208D01*
X161321668Y-142642821D01*
X161276867Y-142652355D01*
X161232057Y-142661809D01*
X161187238Y-142671183D01*
X161142412Y-142680478D01*
X161097579Y-142689692D01*
X161052740Y-142698827D01*
X161007895Y-142707881D01*
X160963045Y-142716855D01*
X160918192Y-142725749D01*
X160873334Y-142734562D01*
X160828474Y-142743294D01*
X160783613Y-142751945D01*
X160738750Y-142760516D01*
X160693887Y-142769005D01*
X160649024Y-142777413D01*
X160604164Y-142785740D01*
X160559305Y-142793986D01*
X160514450Y-142802149D01*
X160469598Y-142810231D01*
X160424752Y-142818232D01*
X160379911Y-142826150D01*
X160335078Y-142833986D01*
X160290252Y-142841740D01*
X160245435Y-142849411D01*
X160200628Y-142857000D01*
X160155832Y-142864507D01*
X160111048Y-142871930D01*
X160066276Y-142879271D01*
X160021519Y-142886529D01*
X159976777Y-142893704D01*
X159932051Y-142900795D01*
X159887343Y-142907803D01*
X159842654Y-142914727D01*
X159797984Y-142921568D01*
X159753336Y-142928325D01*
X159708709Y-142934998D01*
X159664107Y-142941588D01*
X159619530Y-142948093D01*
X159574979Y-142954513D01*
X159530455Y-142960850D01*
X159485961Y-142967102D01*
X159441498Y-142973269D01*
X159397066Y-142979351D01*
X159352669Y-142985349D01*
X159308306Y-142991261D01*
X159263980Y-142997088D01*
X159219693Y-143002830D01*
X159175445Y-143008487D01*
X159131239Y-143014058D01*
X159087077Y-143019544D01*
X159042960Y-143024944D01*
X158998890Y-143030258D01*
X158954869Y-143035486D01*
X158910899Y-143040628D01*
X158866981Y-143045683D01*
X158823119Y-143050653D01*
X158779313Y-143055536D01*
X158735567Y-143060332D01*
X158691882Y-143065042D01*
X158648260Y-143069665D01*
X158604704Y-143074201D01*
X158561216Y-143078651D01*
X158517799Y-143083013D01*
X158474455Y-143087288D01*
X158431186Y-143091476D01*
X158387996Y-143095577D01*
X158344887Y-143099590D01*
X158301861Y-143103516D01*
X158258923Y-143107354D01*
X158216073Y-143111105D01*
X158173317Y-143114768D01*
X158130656Y-143118343D01*
X158088094Y-143121830D01*
X158045634Y-143125230D01*
X158003280Y-143128541D01*
X157961035Y-143131765D01*
X157918903Y-143134900D01*
X157876887Y-143137947D01*
X157834992Y-143140907D01*
X157793222Y-143143778D01*
X157751580Y-143146561D01*
X157710071Y-143149256D01*
X157668698Y-143151863D01*
X157627468Y-143154382D01*
X157586384Y-143156812D01*
X157545450Y-143159155D01*
X157504673Y-143161410D01*
X157464057Y-143163576D01*
X157423607Y-143165655D01*
X157383329Y-143167646D01*
X157343228Y-143169550D01*
X157303310Y-143171366D01*
X157263581Y-143173095D01*
X157224045Y-143174736D01*
X157184710Y-143176291D01*
X157145582Y-143177759D01*
X157106665Y-143179141D01*
X157067967Y-143180436D01*
X157029491Y-143181646D01*
X156991245Y-143182770D01*
X156953231Y-143183809D01*
X156915454Y-143184764D01*
X156877916Y-143185635D01*
X156840617Y-143186423D01*
X156803552Y-143187129D01*
X156766715Y-143187753D01*
X156730089Y-143188297D01*
X156693647Y-143188761D01*
X156657340Y-143189147D01*
X156621088Y-143189458D01*
X156584744Y-143189694D01*
X156548032Y-143189860D01*
X156510355Y-143189958D01*
X156470090Y-143189997D01*
X156446000Y-143190000D01*
X146446000Y-92190000D02*
X151446000Y-97190000D01*
D11*
X146860214Y-71190000D02*
G75*
G02*
X144031786Y-71190000I-1414214J0D01*
G01*
X144031786Y-71190000D02*
G75*
G02*
X146860214Y-71190000I1414214J0D01*
G01*
D12*
X116319285Y-120481164D02*
X116319285Y-119731164D01*
X116319285Y-119731164D02*
X116497856Y-119731164D01*
X116497856Y-119731164D02*
X116604999Y-119766878D01*
X116604999Y-119766878D02*
X116676428Y-119838307D01*
X116676428Y-119838307D02*
X116712142Y-119909735D01*
X116712142Y-119909735D02*
X116747856Y-120052592D01*
X116747856Y-120052592D02*
X116747856Y-120159735D01*
X116747856Y-120159735D02*
X116712142Y-120302592D01*
X116712142Y-120302592D02*
X116676428Y-120374021D01*
X116676428Y-120374021D02*
X116604999Y-120445450D01*
X116604999Y-120445450D02*
X116497856Y-120481164D01*
X116497856Y-120481164D02*
X116319285Y-120481164D01*
X117033571Y-119802592D02*
X117069285Y-119766878D01*
X117069285Y-119766878D02*
X117140714Y-119731164D01*
X117140714Y-119731164D02*
X117319285Y-119731164D01*
X117319285Y-119731164D02*
X117390714Y-119766878D01*
X117390714Y-119766878D02*
X117426428Y-119802592D01*
X117426428Y-119802592D02*
X117462142Y-119874021D01*
X117462142Y-119874021D02*
X117462142Y-119945450D01*
X117462142Y-119945450D02*
X117426428Y-120052592D01*
X117426428Y-120052592D02*
X116997856Y-120481164D01*
X116997856Y-120481164D02*
X117462142Y-120481164D01*
X117926428Y-119731164D02*
X117997857Y-119731164D01*
X117997857Y-119731164D02*
X118069285Y-119766878D01*
X118069285Y-119766878D02*
X118105000Y-119802592D01*
X118105000Y-119802592D02*
X118140714Y-119874021D01*
X118140714Y-119874021D02*
X118176428Y-120016878D01*
X118176428Y-120016878D02*
X118176428Y-120195450D01*
X118176428Y-120195450D02*
X118140714Y-120338307D01*
X118140714Y-120338307D02*
X118105000Y-120409735D01*
X118105000Y-120409735D02*
X118069285Y-120445450D01*
X118069285Y-120445450D02*
X117997857Y-120481164D01*
X117997857Y-120481164D02*
X117926428Y-120481164D01*
X117926428Y-120481164D02*
X117855000Y-120445450D01*
X117855000Y-120445450D02*
X117819285Y-120409735D01*
X117819285Y-120409735D02*
X117783571Y-120338307D01*
X117783571Y-120338307D02*
X117747857Y-120195450D01*
X117747857Y-120195450D02*
X117747857Y-120016878D01*
X117747857Y-120016878D02*
X117783571Y-119874021D01*
X117783571Y-119874021D02*
X117819285Y-119802592D01*
X117819285Y-119802592D02*
X117855000Y-119766878D01*
X117855000Y-119766878D02*
X117926428Y-119731164D01*
X118191428Y-77301164D02*
X118191428Y-76551164D01*
X118191428Y-76551164D02*
X118369999Y-76551164D01*
X118369999Y-76551164D02*
X118477142Y-76586878D01*
X118477142Y-76586878D02*
X118548571Y-76658307D01*
X118548571Y-76658307D02*
X118584285Y-76729735D01*
X118584285Y-76729735D02*
X118619999Y-76872592D01*
X118619999Y-76872592D02*
X118619999Y-76979735D01*
X118619999Y-76979735D02*
X118584285Y-77122592D01*
X118584285Y-77122592D02*
X118548571Y-77194021D01*
X118548571Y-77194021D02*
X118477142Y-77265450D01*
X118477142Y-77265450D02*
X118369999Y-77301164D01*
X118369999Y-77301164D02*
X118191428Y-77301164D01*
X119298571Y-76551164D02*
X118941428Y-76551164D01*
X118941428Y-76551164D02*
X118905714Y-76908307D01*
X118905714Y-76908307D02*
X118941428Y-76872592D01*
X118941428Y-76872592D02*
X119012857Y-76836878D01*
X119012857Y-76836878D02*
X119191428Y-76836878D01*
X119191428Y-76836878D02*
X119262857Y-76872592D01*
X119262857Y-76872592D02*
X119298571Y-76908307D01*
X119298571Y-76908307D02*
X119334285Y-76979735D01*
X119334285Y-76979735D02*
X119334285Y-77158307D01*
X119334285Y-77158307D02*
X119298571Y-77229735D01*
X119298571Y-77229735D02*
X119262857Y-77265450D01*
X119262857Y-77265450D02*
X119191428Y-77301164D01*
X119191428Y-77301164D02*
X119012857Y-77301164D01*
X119012857Y-77301164D02*
X118941428Y-77265450D01*
X118941428Y-77265450D02*
X118905714Y-77229735D01*
X140044428Y-48853164D02*
X140044428Y-48103164D01*
X140044428Y-48103164D02*
X140222999Y-48103164D01*
X140222999Y-48103164D02*
X140330142Y-48138878D01*
X140330142Y-48138878D02*
X140401571Y-48210307D01*
X140401571Y-48210307D02*
X140437285Y-48281735D01*
X140437285Y-48281735D02*
X140472999Y-48424592D01*
X140472999Y-48424592D02*
X140472999Y-48531735D01*
X140472999Y-48531735D02*
X140437285Y-48674592D01*
X140437285Y-48674592D02*
X140401571Y-48746021D01*
X140401571Y-48746021D02*
X140330142Y-48817450D01*
X140330142Y-48817450D02*
X140222999Y-48853164D01*
X140222999Y-48853164D02*
X140044428Y-48853164D01*
X141115857Y-48353164D02*
X141115857Y-48853164D01*
X140937285Y-48067450D02*
X140758714Y-48603164D01*
X140758714Y-48603164D02*
X141222999Y-48603164D01*
X122683999Y-77281164D02*
X122433999Y-76924021D01*
X122255428Y-77281164D02*
X122255428Y-76531164D01*
X122255428Y-76531164D02*
X122541142Y-76531164D01*
X122541142Y-76531164D02*
X122612571Y-76566878D01*
X122612571Y-76566878D02*
X122648285Y-76602592D01*
X122648285Y-76602592D02*
X122683999Y-76674021D01*
X122683999Y-76674021D02*
X122683999Y-76781164D01*
X122683999Y-76781164D02*
X122648285Y-76852592D01*
X122648285Y-76852592D02*
X122612571Y-76888307D01*
X122612571Y-76888307D02*
X122541142Y-76924021D01*
X122541142Y-76924021D02*
X122255428Y-76924021D01*
X123041142Y-77281164D02*
X123183999Y-77281164D01*
X123183999Y-77281164D02*
X123255428Y-77245450D01*
X123255428Y-77245450D02*
X123291142Y-77209735D01*
X123291142Y-77209735D02*
X123362571Y-77102592D01*
X123362571Y-77102592D02*
X123398285Y-76959735D01*
X123398285Y-76959735D02*
X123398285Y-76674021D01*
X123398285Y-76674021D02*
X123362571Y-76602592D01*
X123362571Y-76602592D02*
X123326857Y-76566878D01*
X123326857Y-76566878D02*
X123255428Y-76531164D01*
X123255428Y-76531164D02*
X123112571Y-76531164D01*
X123112571Y-76531164D02*
X123041142Y-76566878D01*
X123041142Y-76566878D02*
X123005428Y-76602592D01*
X123005428Y-76602592D02*
X122969714Y-76674021D01*
X122969714Y-76674021D02*
X122969714Y-76852592D01*
X122969714Y-76852592D02*
X123005428Y-76924021D01*
X123005428Y-76924021D02*
X123041142Y-76959735D01*
X123041142Y-76959735D02*
X123112571Y-76995450D01*
X123112571Y-76995450D02*
X123255428Y-76995450D01*
X123255428Y-76995450D02*
X123326857Y-76959735D01*
X123326857Y-76959735D02*
X123362571Y-76924021D01*
X123362571Y-76924021D02*
X123398285Y-76852592D01*
X145644164Y-47511000D02*
X145287021Y-47761000D01*
X145644164Y-47939571D02*
X144894164Y-47939571D01*
X144894164Y-47939571D02*
X144894164Y-47653857D01*
X144894164Y-47653857D02*
X144929878Y-47582428D01*
X144929878Y-47582428D02*
X144965592Y-47546714D01*
X144965592Y-47546714D02*
X145037021Y-47511000D01*
X145037021Y-47511000D02*
X145144164Y-47511000D01*
X145144164Y-47511000D02*
X145215592Y-47546714D01*
X145215592Y-47546714D02*
X145251307Y-47582428D01*
X145251307Y-47582428D02*
X145287021Y-47653857D01*
X145287021Y-47653857D02*
X145287021Y-47939571D01*
X145215592Y-47082428D02*
X145179878Y-47153857D01*
X145179878Y-47153857D02*
X145144164Y-47189571D01*
X145144164Y-47189571D02*
X145072735Y-47225285D01*
X145072735Y-47225285D02*
X145037021Y-47225285D01*
X145037021Y-47225285D02*
X144965592Y-47189571D01*
X144965592Y-47189571D02*
X144929878Y-47153857D01*
X144929878Y-47153857D02*
X144894164Y-47082428D01*
X144894164Y-47082428D02*
X144894164Y-46939571D01*
X144894164Y-46939571D02*
X144929878Y-46868143D01*
X144929878Y-46868143D02*
X144965592Y-46832428D01*
X144965592Y-46832428D02*
X145037021Y-46796714D01*
X145037021Y-46796714D02*
X145072735Y-46796714D01*
X145072735Y-46796714D02*
X145144164Y-46832428D01*
X145144164Y-46832428D02*
X145179878Y-46868143D01*
X145179878Y-46868143D02*
X145215592Y-46939571D01*
X145215592Y-46939571D02*
X145215592Y-47082428D01*
X145215592Y-47082428D02*
X145251307Y-47153857D01*
X145251307Y-47153857D02*
X145287021Y-47189571D01*
X145287021Y-47189571D02*
X145358450Y-47225285D01*
X145358450Y-47225285D02*
X145501307Y-47225285D01*
X145501307Y-47225285D02*
X145572735Y-47189571D01*
X145572735Y-47189571D02*
X145608450Y-47153857D01*
X145608450Y-47153857D02*
X145644164Y-47082428D01*
X145644164Y-47082428D02*
X145644164Y-46939571D01*
X145644164Y-46939571D02*
X145608450Y-46868143D01*
X145608450Y-46868143D02*
X145572735Y-46832428D01*
X145572735Y-46832428D02*
X145501307Y-46796714D01*
X145501307Y-46796714D02*
X145358450Y-46796714D01*
X145358450Y-46796714D02*
X145287021Y-46832428D01*
X145287021Y-46832428D02*
X145251307Y-46868143D01*
X145251307Y-46868143D02*
X145215592Y-46939571D01*
X165023856Y-61425164D02*
X164773856Y-61068021D01*
X164595285Y-61425164D02*
X164595285Y-60675164D01*
X164595285Y-60675164D02*
X164880999Y-60675164D01*
X164880999Y-60675164D02*
X164952428Y-60710878D01*
X164952428Y-60710878D02*
X164988142Y-60746592D01*
X164988142Y-60746592D02*
X165023856Y-60818021D01*
X165023856Y-60818021D02*
X165023856Y-60925164D01*
X165023856Y-60925164D02*
X164988142Y-60996592D01*
X164988142Y-60996592D02*
X164952428Y-61032307D01*
X164952428Y-61032307D02*
X164880999Y-61068021D01*
X164880999Y-61068021D02*
X164595285Y-61068021D01*
X165309571Y-60746592D02*
X165345285Y-60710878D01*
X165345285Y-60710878D02*
X165416714Y-60675164D01*
X165416714Y-60675164D02*
X165595285Y-60675164D01*
X165595285Y-60675164D02*
X165666714Y-60710878D01*
X165666714Y-60710878D02*
X165702428Y-60746592D01*
X165702428Y-60746592D02*
X165738142Y-60818021D01*
X165738142Y-60818021D02*
X165738142Y-60889450D01*
X165738142Y-60889450D02*
X165702428Y-60996592D01*
X165702428Y-60996592D02*
X165273856Y-61425164D01*
X165273856Y-61425164D02*
X165738142Y-61425164D01*
X166416714Y-60675164D02*
X166059571Y-60675164D01*
X166059571Y-60675164D02*
X166023857Y-61032307D01*
X166023857Y-61032307D02*
X166059571Y-60996592D01*
X166059571Y-60996592D02*
X166131000Y-60960878D01*
X166131000Y-60960878D02*
X166309571Y-60960878D01*
X166309571Y-60960878D02*
X166381000Y-60996592D01*
X166381000Y-60996592D02*
X166416714Y-61032307D01*
X166416714Y-61032307D02*
X166452428Y-61103735D01*
X166452428Y-61103735D02*
X166452428Y-61282307D01*
X166452428Y-61282307D02*
X166416714Y-61353735D01*
X166416714Y-61353735D02*
X166381000Y-61389450D01*
X166381000Y-61389450D02*
X166309571Y-61425164D01*
X166309571Y-61425164D02*
X166131000Y-61425164D01*
X166131000Y-61425164D02*
X166059571Y-61389450D01*
X166059571Y-61389450D02*
X166023857Y-61353735D01*
X168643285Y-61553164D02*
X168643285Y-60803164D01*
X168643285Y-60803164D02*
X168821856Y-60803164D01*
X168821856Y-60803164D02*
X168928999Y-60838878D01*
X168928999Y-60838878D02*
X169000428Y-60910307D01*
X169000428Y-60910307D02*
X169036142Y-60981735D01*
X169036142Y-60981735D02*
X169071856Y-61124592D01*
X169071856Y-61124592D02*
X169071856Y-61231735D01*
X169071856Y-61231735D02*
X169036142Y-61374592D01*
X169036142Y-61374592D02*
X169000428Y-61446021D01*
X169000428Y-61446021D02*
X168928999Y-61517450D01*
X168928999Y-61517450D02*
X168821856Y-61553164D01*
X168821856Y-61553164D02*
X168643285Y-61553164D01*
X169357571Y-60874592D02*
X169393285Y-60838878D01*
X169393285Y-60838878D02*
X169464714Y-60803164D01*
X169464714Y-60803164D02*
X169643285Y-60803164D01*
X169643285Y-60803164D02*
X169714714Y-60838878D01*
X169714714Y-60838878D02*
X169750428Y-60874592D01*
X169750428Y-60874592D02*
X169786142Y-60946021D01*
X169786142Y-60946021D02*
X169786142Y-61017450D01*
X169786142Y-61017450D02*
X169750428Y-61124592D01*
X169750428Y-61124592D02*
X169321856Y-61553164D01*
X169321856Y-61553164D02*
X169786142Y-61553164D01*
X170500428Y-61553164D02*
X170071857Y-61553164D01*
X170286142Y-61553164D02*
X170286142Y-60803164D01*
X170286142Y-60803164D02*
X170214714Y-60910307D01*
X170214714Y-60910307D02*
X170143285Y-60981735D01*
X170143285Y-60981735D02*
X170071857Y-61017450D01*
X165943428Y-137373164D02*
X165943428Y-136623164D01*
X165943428Y-136623164D02*
X166121999Y-136623164D01*
X166121999Y-136623164D02*
X166229142Y-136658878D01*
X166229142Y-136658878D02*
X166300571Y-136730307D01*
X166300571Y-136730307D02*
X166336285Y-136801735D01*
X166336285Y-136801735D02*
X166371999Y-136944592D01*
X166371999Y-136944592D02*
X166371999Y-137051735D01*
X166371999Y-137051735D02*
X166336285Y-137194592D01*
X166336285Y-137194592D02*
X166300571Y-137266021D01*
X166300571Y-137266021D02*
X166229142Y-137337450D01*
X166229142Y-137337450D02*
X166121999Y-137373164D01*
X166121999Y-137373164D02*
X165943428Y-137373164D01*
X166657714Y-136694592D02*
X166693428Y-136658878D01*
X166693428Y-136658878D02*
X166764857Y-136623164D01*
X166764857Y-136623164D02*
X166943428Y-136623164D01*
X166943428Y-136623164D02*
X167014857Y-136658878D01*
X167014857Y-136658878D02*
X167050571Y-136694592D01*
X167050571Y-136694592D02*
X167086285Y-136766021D01*
X167086285Y-136766021D02*
X167086285Y-136837450D01*
X167086285Y-136837450D02*
X167050571Y-136944592D01*
X167050571Y-136944592D02*
X166621999Y-137373164D01*
X166621999Y-137373164D02*
X167086285Y-137373164D01*
X179913428Y-97495164D02*
X179913428Y-96745164D01*
X179913428Y-96745164D02*
X180091999Y-96745164D01*
X180091999Y-96745164D02*
X180199142Y-96780878D01*
X180199142Y-96780878D02*
X180270571Y-96852307D01*
X180270571Y-96852307D02*
X180306285Y-96923735D01*
X180306285Y-96923735D02*
X180341999Y-97066592D01*
X180341999Y-97066592D02*
X180341999Y-97173735D01*
X180341999Y-97173735D02*
X180306285Y-97316592D01*
X180306285Y-97316592D02*
X180270571Y-97388021D01*
X180270571Y-97388021D02*
X180199142Y-97459450D01*
X180199142Y-97459450D02*
X180091999Y-97495164D01*
X180091999Y-97495164D02*
X179913428Y-97495164D01*
X180591999Y-96745164D02*
X181056285Y-96745164D01*
X181056285Y-96745164D02*
X180806285Y-97030878D01*
X180806285Y-97030878D02*
X180913428Y-97030878D01*
X180913428Y-97030878D02*
X180984857Y-97066592D01*
X180984857Y-97066592D02*
X181020571Y-97102307D01*
X181020571Y-97102307D02*
X181056285Y-97173735D01*
X181056285Y-97173735D02*
X181056285Y-97352307D01*
X181056285Y-97352307D02*
X181020571Y-97423735D01*
X181020571Y-97423735D02*
X180984857Y-97459450D01*
X180984857Y-97459450D02*
X180913428Y-97495164D01*
X180913428Y-97495164D02*
X180699142Y-97495164D01*
X180699142Y-97495164D02*
X180627714Y-97459450D01*
X180627714Y-97459450D02*
X180591999Y-97423735D01*
X120795856Y-117053164D02*
X120545856Y-116696021D01*
X120367285Y-117053164D02*
X120367285Y-116303164D01*
X120367285Y-116303164D02*
X120652999Y-116303164D01*
X120652999Y-116303164D02*
X120724428Y-116338878D01*
X120724428Y-116338878D02*
X120760142Y-116374592D01*
X120760142Y-116374592D02*
X120795856Y-116446021D01*
X120795856Y-116446021D02*
X120795856Y-116553164D01*
X120795856Y-116553164D02*
X120760142Y-116624592D01*
X120760142Y-116624592D02*
X120724428Y-116660307D01*
X120724428Y-116660307D02*
X120652999Y-116696021D01*
X120652999Y-116696021D02*
X120367285Y-116696021D01*
X121081571Y-116374592D02*
X121117285Y-116338878D01*
X121117285Y-116338878D02*
X121188714Y-116303164D01*
X121188714Y-116303164D02*
X121367285Y-116303164D01*
X121367285Y-116303164D02*
X121438714Y-116338878D01*
X121438714Y-116338878D02*
X121474428Y-116374592D01*
X121474428Y-116374592D02*
X121510142Y-116446021D01*
X121510142Y-116446021D02*
X121510142Y-116517450D01*
X121510142Y-116517450D02*
X121474428Y-116624592D01*
X121474428Y-116624592D02*
X121045856Y-117053164D01*
X121045856Y-117053164D02*
X121510142Y-117053164D01*
X122153000Y-116553164D02*
X122153000Y-117053164D01*
X121974428Y-116267450D02*
X121795857Y-116803164D01*
X121795857Y-116803164D02*
X122260142Y-116803164D01*
X176286999Y-97367164D02*
X176036999Y-97010021D01*
X175858428Y-97367164D02*
X175858428Y-96617164D01*
X175858428Y-96617164D02*
X176144142Y-96617164D01*
X176144142Y-96617164D02*
X176215571Y-96652878D01*
X176215571Y-96652878D02*
X176251285Y-96688592D01*
X176251285Y-96688592D02*
X176286999Y-96760021D01*
X176286999Y-96760021D02*
X176286999Y-96867164D01*
X176286999Y-96867164D02*
X176251285Y-96938592D01*
X176251285Y-96938592D02*
X176215571Y-96974307D01*
X176215571Y-96974307D02*
X176144142Y-97010021D01*
X176144142Y-97010021D02*
X175858428Y-97010021D01*
X176536999Y-96617164D02*
X177036999Y-96617164D01*
X177036999Y-96617164D02*
X176715571Y-97367164D01*
X162316999Y-137245164D02*
X162066999Y-136888021D01*
X161888428Y-137245164D02*
X161888428Y-136495164D01*
X161888428Y-136495164D02*
X162174142Y-136495164D01*
X162174142Y-136495164D02*
X162245571Y-136530878D01*
X162245571Y-136530878D02*
X162281285Y-136566592D01*
X162281285Y-136566592D02*
X162316999Y-136638021D01*
X162316999Y-136638021D02*
X162316999Y-136745164D01*
X162316999Y-136745164D02*
X162281285Y-136816592D01*
X162281285Y-136816592D02*
X162245571Y-136852307D01*
X162245571Y-136852307D02*
X162174142Y-136888021D01*
X162174142Y-136888021D02*
X161888428Y-136888021D01*
X162959857Y-136495164D02*
X162816999Y-136495164D01*
X162816999Y-136495164D02*
X162745571Y-136530878D01*
X162745571Y-136530878D02*
X162709857Y-136566592D01*
X162709857Y-136566592D02*
X162638428Y-136673735D01*
X162638428Y-136673735D02*
X162602714Y-136816592D01*
X162602714Y-136816592D02*
X162602714Y-137102307D01*
X162602714Y-137102307D02*
X162638428Y-137173735D01*
X162638428Y-137173735D02*
X162674142Y-137209450D01*
X162674142Y-137209450D02*
X162745571Y-137245164D01*
X162745571Y-137245164D02*
X162888428Y-137245164D01*
X162888428Y-137245164D02*
X162959857Y-137209450D01*
X162959857Y-137209450D02*
X162995571Y-137173735D01*
X162995571Y-137173735D02*
X163031285Y-137102307D01*
X163031285Y-137102307D02*
X163031285Y-136923735D01*
X163031285Y-136923735D02*
X162995571Y-136852307D01*
X162995571Y-136852307D02*
X162959857Y-136816592D01*
X162959857Y-136816592D02*
X162888428Y-136780878D01*
X162888428Y-136780878D02*
X162745571Y-136780878D01*
X162745571Y-136780878D02*
X162674142Y-136816592D01*
X162674142Y-136816592D02*
X162638428Y-136852307D01*
X162638428Y-136852307D02*
X162602714Y-136923735D01*
D13*
G04 #@! TO.C,D20*
X116008000Y-119413250D02*
X118868000Y-119413250D01*
X118868000Y-117493250D02*
X116008000Y-117493250D01*
X118868000Y-119413250D02*
X118868000Y-117493250D01*
G04 #@! TO.C,D5*
X117745000Y-79700000D02*
X120605000Y-79700000D01*
X120605000Y-77780000D02*
X117745000Y-77780000D01*
X120605000Y-79700000D02*
X120605000Y-77780000D01*
G04 #@! TO.C,D4*
X139598000Y-47568000D02*
X142458000Y-47568000D01*
X142458000Y-45648000D02*
X139598000Y-45648000D01*
X142458000Y-47568000D02*
X142458000Y-45648000D01*
G04 #@! TO.C,R9*
X122581936Y-77857000D02*
X123036064Y-77857000D01*
X122581936Y-79327000D02*
X123036064Y-79327000D01*
G04 #@! TO.C,R8*
X142920000Y-47158936D02*
X142920000Y-47613064D01*
X144390000Y-47158936D02*
X144390000Y-47613064D01*
G04 #@! TO.C,R25*
X165733064Y-58701000D02*
X165278936Y-58701000D01*
X165733064Y-60171000D02*
X165278936Y-60171000D01*
G04 #@! TO.C,D21*
X167710000Y-58460000D02*
X167710000Y-60380000D01*
X167710000Y-60380000D02*
X170570000Y-60380000D01*
X170570000Y-58460000D02*
X167710000Y-58460000D01*
G04 #@! TO.C,D2*
X164637000Y-137724000D02*
X164637000Y-139644000D01*
X164637000Y-139644000D02*
X167497000Y-139644000D01*
X167497000Y-137724000D02*
X164637000Y-137724000D01*
G04 #@! TO.C,D3*
X178607000Y-97846000D02*
X178607000Y-99766000D01*
X178607000Y-99766000D02*
X181467000Y-99766000D01*
X181467000Y-97846000D02*
X178607000Y-97846000D01*
G04 #@! TO.C,R24*
X121050936Y-117629000D02*
X121505064Y-117629000D01*
X121050936Y-119099000D02*
X121505064Y-119099000D01*
G04 #@! TO.C,R7*
X176614064Y-98063000D02*
X176159936Y-98063000D01*
X176614064Y-99533000D02*
X176159936Y-99533000D01*
G04 #@! TO.C,R6*
X162660064Y-137941000D02*
X162205936Y-137941000D01*
X162660064Y-139411000D02*
X162205936Y-139411000D01*
G04 #@! TD*
%LPC*%
D14*
G04 #@! TO.C,D20*
X118033000Y-118453250D03*
X115983000Y-118453250D03*
G04 #@! TD*
G04 #@! TO.C,D5*
X119770000Y-78740000D03*
X117720000Y-78740000D03*
G04 #@! TD*
G04 #@! TO.C,D4*
X141623000Y-46608000D03*
X139573000Y-46608000D03*
G04 #@! TD*
D15*
G04 #@! TO.C,*
X149742000Y-44704000D03*
G04 #@! TD*
D16*
G04 #@! TO.C,R9*
X121809000Y-78592000D03*
X123809000Y-78592000D03*
G04 #@! TD*
D17*
G04 #@! TO.C,R8*
X143655000Y-46386000D03*
X143655000Y-48386000D03*
G04 #@! TD*
D18*
G04 #@! TO.C,J5*
X150758000Y-99314000D03*
X150758000Y-102616000D03*
X150758000Y-105918000D03*
X150758000Y-108966000D03*
G04 #@! TD*
D15*
G04 #@! TO.C,*
X146694000Y-44704000D03*
G04 #@! TD*
D19*
G04 #@! TO.C,R25*
X166506000Y-59436000D03*
X164506000Y-59436000D03*
G04 #@! TD*
D20*
G04 #@! TO.C,D21*
X168545000Y-59420000D03*
X170595000Y-59420000D03*
G04 #@! TD*
G04 #@! TO.C,D2*
X165472000Y-138684000D03*
X167522000Y-138684000D03*
G04 #@! TD*
G04 #@! TO.C,D3*
X179442000Y-98806000D03*
X181492000Y-98806000D03*
G04 #@! TD*
D16*
G04 #@! TO.C,R24*
X120278000Y-118364000D03*
X122278000Y-118364000D03*
G04 #@! TD*
D19*
G04 #@! TO.C,R7*
X177387000Y-98798000D03*
X175387000Y-98798000D03*
G04 #@! TD*
G04 #@! TO.C,R6*
X163433000Y-138676000D03*
X161433000Y-138676000D03*
G04 #@! TD*
%LPD*%
M02*
