%TF.GenerationSoftware,KiCad,Pcbnew,9.0.0*%
%TF.CreationDate,2026-03-16T00:04:51+01:00*%
%TF.ProjectId,manufacturing_slave,6d616e75-6661-4637-9475-72696e675f73,rev?*%
%TF.SameCoordinates,Original*%
%TF.FileFunction,Drillmap*%
%TF.FilePolarity,Positive*%
%FSLAX45Y45*%
G04 Gerber Fmt 4.5, Leading zero omitted, Abs format (unit mm)*
G04 Created by KiCad (PCBNEW 9.0.0) date 2026-03-16 00:04:51*
%MOMM*%
%LPD*%
G01*
G04 APERTURE LIST*
%ADD10C,0.100000*%
%ADD11C,0.200000*%
G04 APERTURE END LIST*
D10*
X15334600Y-11019000D02*
G75*
G02*
X15434600Y-11119000I0J-100000D01*
G01*
X14464600Y-11109000D02*
G75*
G02*
X14554600Y-11019000I90000J0D01*
G01*
X14554600Y-11019000D02*
X15334600Y-11019000D01*
X14734600Y-4319000D02*
X14914600Y-4319000D01*
X18324600Y-10719000D02*
X18324590Y-10712990D01*
X18324577Y-10706984D01*
X18324563Y-10700982D01*
X18324547Y-10694983D01*
X18324528Y-10688988D01*
X18324508Y-10682997D01*
X18324486Y-10677010D01*
X18324461Y-10671026D01*
X18324435Y-10665046D01*
X18324407Y-10659070D01*
X18324376Y-10653098D01*
X18324344Y-10647130D01*
X18324310Y-10641165D01*
X18324274Y-10635204D01*
X18324236Y-10629246D01*
X18324195Y-10623293D01*
X18324153Y-10617343D01*
X18324109Y-10611397D01*
X18324063Y-10605454D01*
X18324015Y-10599516D01*
X18323965Y-10593581D01*
X18323913Y-10587650D01*
X18323859Y-10581722D01*
X18323803Y-10575798D01*
X18323745Y-10569878D01*
X18323685Y-10563962D01*
X18323624Y-10558049D01*
X18323560Y-10552141D01*
X18323494Y-10546236D01*
X18323426Y-10540334D01*
X18323357Y-10534436D01*
X18323285Y-10528543D01*
X18323212Y-10522652D01*
X18323136Y-10516766D01*
X18323059Y-10510883D01*
X18322979Y-10505004D01*
X18322898Y-10499128D01*
X18322815Y-10493257D01*
X18322729Y-10487389D01*
X18322642Y-10481525D01*
X18322553Y-10475664D01*
X18322462Y-10469807D01*
X18322369Y-10463954D01*
X18322274Y-10458104D01*
X18322177Y-10452259D01*
X18322078Y-10446417D01*
X18321978Y-10440578D01*
X18321875Y-10434744D01*
X18321770Y-10428913D01*
X18321664Y-10423085D01*
X18321555Y-10417262D01*
X18321445Y-10411442D01*
X18321332Y-10405625D01*
X18321218Y-10399813D01*
X18321102Y-10394004D01*
X18320984Y-10388199D01*
X18320864Y-10382397D01*
X18320742Y-10376599D01*
X18320618Y-10370805D01*
X18320492Y-10365015D01*
X18320364Y-10359228D01*
X18320234Y-10353445D01*
X18320103Y-10347665D01*
X18319969Y-10341890D01*
X18319834Y-10336117D01*
X18319696Y-10330349D01*
X18319557Y-10324584D01*
X18319416Y-10318823D01*
X18319273Y-10313065D01*
X18319128Y-10307312D01*
X18318981Y-10301561D01*
X18318832Y-10295815D01*
X18318681Y-10290072D01*
X18318529Y-10284333D01*
X18318374Y-10278597D01*
X18318218Y-10272865D01*
X18318060Y-10267137D01*
X18317899Y-10261413D01*
X18317737Y-10255692D01*
X18317573Y-10249974D01*
X18317407Y-10244261D01*
X18317239Y-10238551D01*
X18317070Y-10232844D01*
X18316898Y-10227141D01*
X18316725Y-10221442D01*
X18316549Y-10215747D01*
X18316372Y-10210055D01*
X18316193Y-10204367D01*
X18316012Y-10198682D01*
X18315829Y-10193001D01*
X18315644Y-10187324D01*
X18315457Y-10181650D01*
X18315269Y-10175980D01*
X18315078Y-10170314D01*
X18314886Y-10164651D01*
X18314692Y-10158992D01*
X18314496Y-10153336D01*
X18314298Y-10147684D01*
X18314098Y-10142036D01*
X18313896Y-10136391D01*
X18313693Y-10130750D01*
X18313487Y-10125113D01*
X18313280Y-10119479D01*
X18313071Y-10113848D01*
X18312860Y-10108222D01*
X18312647Y-10102599D01*
X18312432Y-10096979D01*
X18312216Y-10091363D01*
X18311997Y-10085751D01*
X18311777Y-10080142D01*
X18311554Y-10074537D01*
X18311330Y-10068936D01*
X18311104Y-10063338D01*
X18310877Y-10057744D01*
X18310647Y-10052153D01*
X18310415Y-10046566D01*
X18310182Y-10040983D01*
X18309947Y-10035403D01*
X18309710Y-10029826D01*
X18309471Y-10024254D01*
X18309230Y-10018684D01*
X18308988Y-10013119D01*
X18308743Y-10007557D01*
X18308497Y-10001998D01*
X18308249Y-9996444D01*
X18307999Y-9990892D01*
X18307747Y-9985345D01*
X18307493Y-9979801D01*
X18307238Y-9974260D01*
X18306981Y-9968723D01*
X18306721Y-9963190D01*
X18306460Y-9957660D01*
X18306198Y-9952134D01*
X18305933Y-9946611D01*
X18305666Y-9941092D01*
X18305398Y-9935576D01*
X18305128Y-9930064D01*
X18304856Y-9924556D01*
X18304582Y-9919051D01*
X18304307Y-9913549D01*
X18304029Y-9908052D01*
X18303750Y-9902557D01*
X18303469Y-9897067D01*
X18303186Y-9891580D01*
X18302901Y-9886096D01*
X18302615Y-9880616D01*
X18302326Y-9875140D01*
X18302036Y-9869667D01*
X18301744Y-9864197D01*
X18301450Y-9858731D01*
X18301155Y-9853269D01*
X18300857Y-9847810D01*
X18300558Y-9842355D01*
X18300257Y-9836903D01*
X18299954Y-9831455D01*
X18299649Y-9826010D01*
X18299343Y-9820569D01*
X18299035Y-9815132D01*
X18298724Y-9809698D01*
X18298413Y-9804267D01*
X18298099Y-9798840D01*
X18297783Y-9793417D01*
X18297466Y-9787997D01*
X18297147Y-9782580D01*
X18296826Y-9777167D01*
X18296504Y-9771758D01*
X18296179Y-9766352D01*
X18295853Y-9760950D01*
X18295525Y-9755551D01*
X18295195Y-9750155D01*
X18294863Y-9744764D01*
X18294530Y-9739375D01*
X18294195Y-9733990D01*
X18293858Y-9728609D01*
X18293519Y-9723231D01*
X18293178Y-9717857D01*
X18292836Y-9712486D01*
X18292492Y-9707119D01*
X18292146Y-9701755D01*
X18291799Y-9696395D01*
X18291449Y-9691038D01*
X18291098Y-9685685D01*
X18290745Y-9680335D01*
X18290390Y-9674988D01*
X18290034Y-9669645D01*
X18289675Y-9664306D01*
X18289315Y-9658970D01*
X18288953Y-9653638D01*
X18288590Y-9648309D01*
X18288224Y-9642984D01*
X18287857Y-9637662D01*
X18287488Y-9632343D01*
X18287118Y-9627028D01*
X18286745Y-9621717D01*
X18286371Y-9616409D01*
X18285995Y-9611104D01*
X18285617Y-9605803D01*
X18285238Y-9600505D01*
X18284857Y-9595211D01*
X18284474Y-9589920D01*
X18284089Y-9584633D01*
X18283703Y-9579349D01*
X18283314Y-9574069D01*
X18282924Y-9568792D01*
X18282533Y-9563519D01*
X18282139Y-9558249D01*
X18281744Y-9552983D01*
X18281347Y-9547720D01*
X18280948Y-9542460D01*
X18280548Y-9537204D01*
X18280146Y-9531951D01*
X18279742Y-9526702D01*
X18279336Y-9521456D01*
X18278928Y-9516214D01*
X18278519Y-9510975D01*
X18278108Y-9505740D01*
X18277696Y-9500508D01*
X18277281Y-9495279D01*
X18276865Y-9490054D01*
X18276448Y-9484833D01*
X18276028Y-9479614D01*
X18275607Y-9474400D01*
X18275184Y-9469188D01*
X18274759Y-9463980D01*
X18274332Y-9458776D01*
X18273904Y-9453575D01*
X18273474Y-9448377D01*
X18273043Y-9443183D01*
X18272609Y-9437992D01*
X18272174Y-9432805D01*
X18271737Y-9427621D01*
X18271299Y-9422440D01*
X18270859Y-9417263D01*
X18270417Y-9412090D01*
X18269973Y-9406919D01*
X18269528Y-9401753D01*
X18269081Y-9396589D01*
X18268632Y-9391429D01*
X18268181Y-9386273D01*
X18267729Y-9381119D01*
X18267275Y-9375970D01*
X18266819Y-9370823D01*
X18266362Y-9365680D01*
X18265903Y-9360541D01*
X18265442Y-9355405D01*
X18264980Y-9350272D01*
X18264516Y-9345142D01*
X18264050Y-9340017D01*
X18263582Y-9334894D01*
X18263113Y-9329775D01*
X18262642Y-9324659D01*
X18262169Y-9319547D01*
X18261695Y-9314438D01*
X18261219Y-9309332D01*
X18260741Y-9304230D01*
X18260262Y-9299131D01*
X18259781Y-9294036D01*
X18259298Y-9288943D01*
X18258813Y-9283855D01*
X18258327Y-9278770D01*
X18257839Y-9273688D01*
X18257350Y-9268609D01*
X18256859Y-9263534D01*
X18256366Y-9258462D01*
X18255871Y-9253394D01*
X18255375Y-9248329D01*
X18254877Y-9243267D01*
X18254377Y-9238209D01*
X18253876Y-9233154D01*
X18253373Y-9228102D01*
X18252868Y-9223054D01*
X18252362Y-9218009D01*
X18251854Y-9212967D01*
X18251344Y-9207929D01*
X18250833Y-9202895D01*
X18250320Y-9197863D01*
X18249805Y-9192835D01*
X18249289Y-9187810D01*
X18248771Y-9182789D01*
X18248251Y-9177771D01*
X18247730Y-9172756D01*
X18247207Y-9167745D01*
X18246682Y-9162737D01*
X18246156Y-9157733D01*
X18245628Y-9152731D01*
X18245099Y-9147733D01*
X18244567Y-9142739D01*
X18244034Y-9137747D01*
X18243500Y-9132760D01*
X18242963Y-9127775D01*
X18242426Y-9122794D01*
X18241886Y-9117816D01*
X18241345Y-9112841D01*
X18240802Y-9107870D01*
X18240257Y-9102902D01*
X18239711Y-9097938D01*
X18239164Y-9092976D01*
X18238614Y-9088018D01*
X18238063Y-9083064D01*
X18237510Y-9078113D01*
X18236956Y-9073165D01*
X18236400Y-9068220D01*
X18235842Y-9063279D01*
X18235283Y-9058341D01*
X18234722Y-9053406D01*
X18234160Y-9048475D01*
X18233595Y-9043546D01*
X18233030Y-9038622D01*
X18232462Y-9033700D01*
X18231893Y-9028782D01*
X18231322Y-9023867D01*
X18230750Y-9018956D01*
X18230176Y-9014048D01*
X18229600Y-9009143D01*
X18229023Y-9004241D01*
X18228444Y-8999343D01*
X18227864Y-8994448D01*
X18227282Y-8989556D01*
X18226698Y-8984668D01*
X18226113Y-8979783D01*
X18225526Y-8974901D01*
X18224937Y-8970022D01*
X18224347Y-8965147D01*
X18223755Y-8960275D01*
X18223162Y-8955406D01*
X18222567Y-8950541D01*
X18221970Y-8945679D01*
X18221372Y-8940820D01*
X18220772Y-8935964D01*
X18220171Y-8931112D01*
X18219568Y-8926263D01*
X18218963Y-8921417D01*
X18218357Y-8916575D01*
X18217749Y-8911736D01*
X18217139Y-8906900D01*
X18216528Y-8902067D01*
X18215915Y-8897238D01*
X18215301Y-8892412D01*
X18214685Y-8887589D01*
X18214068Y-8882770D01*
X18213449Y-8877953D01*
X18212828Y-8873140D01*
X18212206Y-8868330D01*
X18211582Y-8863524D01*
X18210956Y-8858721D01*
X18210329Y-8853921D01*
X18209700Y-8849124D01*
X18209070Y-8844331D01*
X18208438Y-8839540D01*
X18207805Y-8834753D01*
X18207170Y-8829970D01*
X18206533Y-8825189D01*
X18205895Y-8820412D01*
X18205255Y-8815638D01*
X18204614Y-8810867D01*
X18203971Y-8806100D01*
X18203327Y-8801335D01*
X18202681Y-8796574D01*
X18202033Y-8791817D01*
X18201384Y-8787062D01*
X18200733Y-8782311D01*
X18200080Y-8777563D01*
X18199426Y-8772818D01*
X18198771Y-8768076D01*
X18198114Y-8763338D01*
X18197455Y-8758603D01*
X18196795Y-8753871D01*
X18196133Y-8749142D01*
X18195470Y-8744417D01*
X18194805Y-8739695D01*
X18194138Y-8734975D01*
X18193470Y-8730260D01*
X18192800Y-8725547D01*
X18192129Y-8720838D01*
X18191456Y-8716132D01*
X18190782Y-8711429D01*
X18190106Y-8706729D01*
X18189429Y-8702032D01*
X18188750Y-8697339D01*
X18188069Y-8692649D01*
X18187387Y-8687962D01*
X18186703Y-8683278D01*
X18186018Y-8678598D01*
X18185331Y-8673921D01*
X18184643Y-8669247D01*
X18183953Y-8664576D01*
X18183262Y-8659908D01*
X18182569Y-8655244D01*
X18181874Y-8650582D01*
X18181178Y-8645924D01*
X18180480Y-8641269D01*
X18179781Y-8636618D01*
X18179081Y-8631969D01*
X18178378Y-8627324D01*
X18177675Y-8622682D01*
X18176969Y-8618043D01*
X18176262Y-8613407D01*
X18175554Y-8608774D01*
X18174844Y-8604145D01*
X18174133Y-8599519D01*
X18173420Y-8594896D01*
X18172705Y-8590276D01*
X18171989Y-8585659D01*
X18171271Y-8581046D01*
X18170552Y-8576435D01*
X18169832Y-8571828D01*
X18169110Y-8567224D01*
X18168386Y-8562624D01*
X18167661Y-8558026D01*
X18166934Y-8553431D01*
X18166206Y-8548840D01*
X18165476Y-8544252D01*
X18164744Y-8539667D01*
X18164012Y-8535085D01*
X18163277Y-8530506D01*
X18162541Y-8525931D01*
X18161804Y-8521358D01*
X18161065Y-8516789D01*
X18160325Y-8512223D01*
X18159583Y-8507660D01*
X18158839Y-8503101D01*
X18158094Y-8498544D01*
X18157348Y-8493991D01*
X18156600Y-8489440D01*
X18155850Y-8484893D01*
X18155099Y-8480349D01*
X18154347Y-8475808D01*
X18153593Y-8471271D01*
X18152837Y-8466736D01*
X18152080Y-8462205D01*
X18151322Y-8457676D01*
X18150562Y-8453151D01*
X18149800Y-8448629D01*
X18149037Y-8444110D01*
X18148273Y-8439594D01*
X18147507Y-8435082D01*
X18146739Y-8430572D01*
X18145970Y-8426066D01*
X18145200Y-8421562D01*
X18144428Y-8417062D01*
X18143654Y-8412565D01*
X18142879Y-8408072D01*
X18142103Y-8403581D01*
X18141325Y-8399093D01*
X18140545Y-8394609D01*
X18139764Y-8390127D01*
X18138982Y-8385649D01*
X18138198Y-8381174D01*
X18137412Y-8376701D01*
X18136626Y-8372233D01*
X18135837Y-8367767D01*
X18135047Y-8363304D01*
X18134256Y-8358844D01*
X18133463Y-8354388D01*
X18132669Y-8349934D01*
X18131873Y-8345484D01*
X18131076Y-8341037D01*
X18130277Y-8336593D01*
X18129477Y-8332152D01*
X18128675Y-8327714D01*
X18127872Y-8323279D01*
X18127068Y-8318847D01*
X18126261Y-8314418D01*
X18125454Y-8309993D01*
X18124645Y-8305570D01*
X18123834Y-8301151D01*
X18123022Y-8296735D01*
X18122209Y-8292322D01*
X18121394Y-8287911D01*
X18120578Y-8283504D01*
X18119760Y-8279100D01*
X18118941Y-8274700D01*
X18118120Y-8270302D01*
X18117298Y-8265907D01*
X18116474Y-8261515D01*
X18115649Y-8257127D01*
X18114822Y-8252741D01*
X18113994Y-8248359D01*
X18113165Y-8243980D01*
X18112334Y-8239603D01*
X18111502Y-8235230D01*
X18110668Y-8230860D01*
X18109833Y-8226493D01*
X18108996Y-8222129D01*
X18108158Y-8217768D01*
X18107318Y-8213410D01*
X18106477Y-8209055D01*
X18105634Y-8204704D01*
X18104790Y-8200355D01*
X18103945Y-8196009D01*
X18103098Y-8191667D01*
X18102250Y-8187327D01*
X18101400Y-8182990D01*
X18100549Y-8178657D01*
X18099696Y-8174327D01*
X18098842Y-8169999D01*
X18097987Y-8165675D01*
X18097130Y-8161354D01*
X18096272Y-8157035D01*
X18095412Y-8152720D01*
X18094551Y-8148408D01*
X18093688Y-8144099D01*
X18092824Y-8139793D01*
X18091958Y-8135490D01*
X18091091Y-8131190D01*
X18090223Y-8126893D01*
X18089353Y-8122599D01*
X18088482Y-8118308D01*
X18087609Y-8114020D01*
X18086735Y-8109736D01*
X18085860Y-8105454D01*
X18084983Y-8101175D01*
X18084105Y-8096899D01*
X18083225Y-8092627D01*
X18082344Y-8088357D01*
X18081461Y-8084090D01*
X18080577Y-8079826D01*
X18079692Y-8075566D01*
X18078805Y-8071308D01*
X18077917Y-8067054D01*
X18077027Y-8062802D01*
X18076136Y-8058553D01*
X18075243Y-8054308D01*
X18074350Y-8050065D01*
X18073454Y-8045826D01*
X18072558Y-8041589D01*
X18071659Y-8037356D01*
X18070760Y-8033125D01*
X18069859Y-8028897D01*
X18068957Y-8024673D01*
X18068053Y-8020451D01*
X18067148Y-8016233D01*
X18066241Y-8012017D01*
X18065333Y-8007805D01*
X18064424Y-8003595D01*
X18063513Y-7999389D01*
X18062601Y-7995185D01*
X18061687Y-7990985D01*
X18060772Y-7986787D01*
X18059856Y-7982592D01*
X18058938Y-7978401D01*
X18058019Y-7974212D01*
X18057099Y-7970026D01*
X18056177Y-7965844D01*
X18055254Y-7961664D01*
X18054329Y-7957487D01*
X18053403Y-7953314D01*
X18052475Y-7949143D01*
X18051547Y-7944975D01*
X18050616Y-7940810D01*
X18049685Y-7936648D01*
X18048752Y-7932490D01*
X18047817Y-7928334D01*
X18046882Y-7924181D01*
X18045944Y-7920031D01*
X18045006Y-7915884D01*
X18044066Y-7911740D01*
X18043125Y-7907599D01*
X18042182Y-7903461D01*
X18041238Y-7899326D01*
X18040293Y-7895193D01*
X18039346Y-7891064D01*
X18038398Y-7886938D01*
X18037448Y-7882815D01*
X18036497Y-7878694D01*
X18035545Y-7874577D01*
X18034591Y-7870462D01*
X18033636Y-7866351D01*
X18032680Y-7862242D01*
X18031722Y-7858137D01*
X18030763Y-7854034D01*
X18029803Y-7849934D01*
X18028841Y-7845838D01*
X18027878Y-7841744D01*
X18026913Y-7837653D01*
X18025947Y-7833565D01*
X18024980Y-7829480D01*
X18024011Y-7825398D01*
X18023041Y-7821319D01*
X18022070Y-7817243D01*
X18021097Y-7813169D01*
X18020123Y-7809099D01*
X18019148Y-7805032D01*
X18018171Y-7800967D01*
X18017193Y-7796906D01*
X18016213Y-7792847D01*
X18015233Y-7788791D01*
X18014250Y-7784739D01*
X18013267Y-7780689D01*
X18012282Y-7776642D01*
X18011296Y-7772598D01*
X18010308Y-7768557D01*
X18009319Y-7764518D01*
X18008329Y-7760483D01*
X18007337Y-7756451D01*
X18006345Y-7752421D01*
X18005350Y-7748395D01*
X18004355Y-7744371D01*
X18003358Y-7740351D01*
X18002359Y-7736333D01*
X18001360Y-7732318D01*
X18000359Y-7728306D01*
X17999356Y-7724297D01*
X17998353Y-7720291D01*
X17997348Y-7716287D01*
X17996342Y-7712287D01*
X17995334Y-7708289D01*
X17994325Y-7704295D01*
X17993315Y-7700303D01*
X17992303Y-7696315D01*
X17991290Y-7692328D01*
X17990276Y-7688346D01*
X17989260Y-7684365D01*
X17988243Y-7680388D01*
X17987225Y-7676414D01*
X17986205Y-7672442D01*
X17985184Y-7668474D01*
X17984162Y-7664508D01*
X17983138Y-7660545D01*
X17982114Y-7656585D01*
X17981087Y-7652628D01*
X17980060Y-7648674D01*
X17979031Y-7644723D01*
X17978001Y-7640775D01*
X17976969Y-7636829D01*
X17975937Y-7632886D01*
X17974903Y-7628946D01*
X17973867Y-7625010D01*
X17972830Y-7621076D01*
X17971792Y-7617144D01*
X17970753Y-7613216D01*
X17969712Y-7609291D01*
X17968670Y-7605368D01*
X17967627Y-7601448D01*
X17966582Y-7597531D01*
X17965537Y-7593618D01*
X17964489Y-7589706D01*
X17963441Y-7585798D01*
X17962391Y-7581893D01*
X17961340Y-7577990D01*
X17960288Y-7574090D01*
X17959234Y-7570193D01*
X17958179Y-7566299D01*
X17957123Y-7562408D01*
X17956065Y-7558520D01*
X17955006Y-7554635D01*
X17953946Y-7550752D01*
X17952884Y-7546872D01*
X17951822Y-7542995D01*
X17950757Y-7539121D01*
X17949692Y-7535250D01*
X17948625Y-7531381D01*
X17947557Y-7527516D01*
X17946488Y-7523653D01*
X17945418Y-7519793D01*
X17944346Y-7515936D01*
X17943273Y-7512082D01*
X17942198Y-7508230D01*
X17941123Y-7504382D01*
X17940046Y-7500536D01*
X17938967Y-7496693D01*
X17937888Y-7492853D01*
X17936807Y-7489016D01*
X17935725Y-7485181D01*
X17934641Y-7481350D01*
X17933557Y-7477521D01*
X17932471Y-7473695D01*
X17931384Y-7469872D01*
X17930295Y-7466051D01*
X17929205Y-7462234D01*
X17928114Y-7458419D01*
X17927022Y-7454607D01*
X17925928Y-7450798D01*
X17924834Y-7446992D01*
X17923737Y-7443188D01*
X17922640Y-7439388D01*
X17921541Y-7435590D01*
X17920441Y-7431795D01*
X17919340Y-7428003D01*
X17918238Y-7424213D01*
X17917134Y-7420426D01*
X17916029Y-7416643D01*
X17914922Y-7412862D01*
X17913815Y-7409083D01*
X17912706Y-7405308D01*
X17911596Y-7401535D01*
X17910485Y-7397765D01*
X17909372Y-7393998D01*
X17908258Y-7390234D01*
X17907143Y-7386473D01*
X17906027Y-7382714D01*
X17904909Y-7378958D01*
X17903790Y-7375205D01*
X17902670Y-7371455D01*
X17901549Y-7367707D01*
X17900426Y-7363962D01*
X17899302Y-7360220D01*
X17898177Y-7356481D01*
X17897050Y-7352745D01*
X17895923Y-7349011D01*
X17894794Y-7345280D01*
X17893664Y-7341552D01*
X17892532Y-7337827D01*
X17891400Y-7334104D01*
X17890266Y-7330384D01*
X17889131Y-7326667D01*
X17887994Y-7322953D01*
X17886857Y-7319242D01*
X17885718Y-7315533D01*
X17884578Y-7311827D01*
X17883436Y-7308124D01*
X17882294Y-7304423D01*
X17881150Y-7300726D01*
X17880005Y-7297031D01*
X17878858Y-7293339D01*
X17877711Y-7289649D01*
X17876562Y-7285963D01*
X17875412Y-7282279D01*
X17874261Y-7278598D01*
X17873108Y-7274919D01*
X17871954Y-7271244D01*
X17870799Y-7267571D01*
X17869643Y-7263901D01*
X17868486Y-7260233D01*
X17867327Y-7256569D01*
X17866167Y-7252907D01*
X17865006Y-7249248D01*
X17863844Y-7245591D01*
X17862680Y-7241938D01*
X17861515Y-7238287D01*
X17860349Y-7234638D01*
X17859182Y-7230993D01*
X17858014Y-7227350D01*
X17856844Y-7223711D01*
X17855673Y-7220073D01*
X17854501Y-7216439D01*
X17853327Y-7212807D01*
X17852153Y-7209178D01*
X17850977Y-7205551D01*
X17849800Y-7201928D01*
X17848622Y-7198307D01*
X17847443Y-7194689D01*
X17846262Y-7191073D01*
X17845080Y-7187461D01*
X17843897Y-7183851D01*
X17842713Y-7180244D01*
X17841527Y-7176639D01*
X17840340Y-7173037D01*
X17839152Y-7169438D01*
X17837963Y-7165842D01*
X17836773Y-7162248D01*
X17835581Y-7158657D01*
X17834389Y-7155069D01*
X17833195Y-7151483D01*
X17831999Y-7147900D01*
X17830803Y-7144320D01*
X17829606Y-7140743D01*
X17828407Y-7137168D01*
X17827207Y-7133596D01*
X17826006Y-7130027D01*
X17824803Y-7126460D01*
X17823600Y-7122896D01*
X17822395Y-7119335D01*
X17821189Y-7115777D01*
X17819982Y-7112221D01*
X17818773Y-7108668D01*
X17817564Y-7105117D01*
X17816353Y-7101570D01*
X17815141Y-7098024D01*
X17813928Y-7094482D01*
X17812713Y-7090942D01*
X17811498Y-7087406D01*
X17810281Y-7083871D01*
X17809063Y-7080340D01*
X17807844Y-7076811D01*
X17806624Y-7073284D01*
X17805402Y-7069761D01*
X17804180Y-7066240D01*
X17802956Y-7062722D01*
X17801731Y-7059206D01*
X17800505Y-7055693D01*
X17799277Y-7052183D01*
X17798049Y-7048676D01*
X17796819Y-7045171D01*
X17795588Y-7041669D01*
X17794356Y-7038169D01*
X17793122Y-7034672D01*
X17791888Y-7031178D01*
X17790652Y-7027687D01*
X17789415Y-7024198D01*
X17788177Y-7020712D01*
X17786938Y-7017228D01*
X17785698Y-7013747D01*
X17784456Y-7010269D01*
X17783214Y-7006794D01*
X17781970Y-7003321D01*
X17780725Y-6999850D01*
X17779478Y-6996383D01*
X17778231Y-6992918D01*
X17776982Y-6989456D01*
X17775733Y-6985996D01*
X17774482Y-6982539D01*
X17773230Y-6979085D01*
X17771976Y-6975633D01*
X17770722Y-6972184D01*
X17769466Y-6968738D01*
X17768210Y-6965294D01*
X17766952Y-6961853D01*
X17765693Y-6958415D01*
X17764432Y-6954979D01*
X17763171Y-6951546D01*
X17761909Y-6948115D01*
X17760645Y-6944687D01*
X17759380Y-6941262D01*
X17758114Y-6937840D01*
X17756847Y-6934420D01*
X17755578Y-6931002D01*
X17754309Y-6927588D01*
X17753038Y-6924176D01*
X17751766Y-6920766D01*
X17750493Y-6917359D01*
X17749219Y-6913955D01*
X17747944Y-6910553D01*
X17746668Y-6907155D01*
X17745390Y-6903758D01*
X17744111Y-6900365D01*
X17742831Y-6896973D01*
X17741550Y-6893585D01*
X17740268Y-6890199D01*
X17738985Y-6886816D01*
X17737700Y-6883435D01*
X17736415Y-6880057D01*
X17735128Y-6876682D01*
X17733840Y-6873309D01*
X17732551Y-6869939D01*
X17731261Y-6866572D01*
X17729970Y-6863207D01*
X17728677Y-6859844D01*
X17727384Y-6856484D01*
X17726089Y-6853128D01*
X17724793Y-6849773D01*
X17723496Y-6846421D01*
X17722198Y-6843072D01*
X17720899Y-6839725D01*
X17719598Y-6836381D01*
X17718297Y-6833039D01*
X17716994Y-6829700D01*
X17715690Y-6826364D01*
X17714385Y-6823030D01*
X17713079Y-6819699D01*
X17711772Y-6816371D01*
X17710464Y-6813045D01*
X17709154Y-6809721D01*
X17707843Y-6806401D01*
X17706532Y-6803082D01*
X17705219Y-6799767D01*
X17703905Y-6796454D01*
X17702590Y-6793143D01*
X17701273Y-6789835D01*
X17699956Y-6786530D01*
X17698638Y-6783227D01*
X17697318Y-6779927D01*
X17695997Y-6776630D01*
X17694675Y-6773335D01*
X17693352Y-6770042D01*
X17692028Y-6766753D01*
X17690703Y-6763465D01*
X17689377Y-6760181D01*
X17688049Y-6756898D01*
X17686721Y-6753619D01*
X17685391Y-6750342D01*
X17684060Y-6747068D01*
X17682728Y-6743796D01*
X17681395Y-6740527D01*
X17680061Y-6737260D01*
X17678726Y-6733996D01*
X17677389Y-6730734D01*
X17676052Y-6727475D01*
X17674713Y-6724218D01*
X17673374Y-6720965D01*
X17672033Y-6717713D01*
X17670691Y-6714465D01*
X17669348Y-6711218D01*
X17668004Y-6707975D01*
X17666659Y-6704733D01*
X17665312Y-6701495D01*
X17663965Y-6698259D01*
X17662616Y-6695025D01*
X17661267Y-6691794D01*
X17659916Y-6688566D01*
X17658564Y-6685340D01*
X17657211Y-6682117D01*
X17655857Y-6678896D01*
X17654502Y-6675678D01*
X17653145Y-6672462D01*
X17651788Y-6669249D01*
X17650430Y-6666038D01*
X17649070Y-6662830D01*
X17647709Y-6659625D01*
X17646348Y-6656422D01*
X17644985Y-6653221D01*
X17643621Y-6650023D01*
X17642256Y-6646828D01*
X17640890Y-6643635D01*
X17639522Y-6640445D01*
X17638154Y-6637257D01*
X17636785Y-6634071D01*
X17635414Y-6630889D01*
X17634043Y-6627708D01*
X17632670Y-6624531D01*
X17631296Y-6621355D01*
X17629921Y-6618183D01*
X17628545Y-6615013D01*
X17627168Y-6611845D01*
X17625790Y-6608680D01*
X17624411Y-6605517D01*
X17623031Y-6602357D01*
X17621650Y-6599200D01*
X17620267Y-6596045D01*
X17618884Y-6592892D01*
X17617499Y-6589742D01*
X17616113Y-6586595D01*
X17614726Y-6583449D01*
X17613339Y-6580307D01*
X17611950Y-6577167D01*
X17610560Y-6574029D01*
X17609169Y-6570894D01*
X17607777Y-6567762D01*
X17606383Y-6564632D01*
X17604989Y-6561504D01*
X17603593Y-6558379D01*
X17602197Y-6555257D01*
X17600800Y-6552137D01*
X17599401Y-6549019D01*
X17598001Y-6545904D01*
X17596601Y-6542792D01*
X17595199Y-6539682D01*
X17593796Y-6536574D01*
X17592392Y-6533469D01*
X17590987Y-6530367D01*
X17589581Y-6527266D01*
X17588174Y-6524169D01*
X17586765Y-6521074D01*
X17585356Y-6517981D01*
X17583946Y-6514891D01*
X17582534Y-6511803D01*
X17581122Y-6508718D01*
X17579708Y-6505636D01*
X17578294Y-6502555D01*
X17576878Y-6499478D01*
X17575461Y-6496402D01*
X17574044Y-6493330D01*
X17572625Y-6490259D01*
X17571205Y-6487191D01*
X17569784Y-6484126D01*
X17568362Y-6481063D01*
X17566939Y-6478003D01*
X17565515Y-6474945D01*
X17564089Y-6471889D01*
X17562663Y-6468836D01*
X17561236Y-6465786D01*
X17559807Y-6462738D01*
X17558378Y-6459692D01*
X17556948Y-6456649D01*
X17555516Y-6453608D01*
X17554084Y-6450570D01*
X17552650Y-6447534D01*
X17551215Y-6444501D01*
X17549779Y-6441470D01*
X17548343Y-6438442D01*
X17546905Y-6435415D01*
X17545466Y-6432392D01*
X17544026Y-6429371D01*
X17542585Y-6426352D01*
X17541143Y-6423336D01*
X17539700Y-6420323D01*
X17538256Y-6417311D01*
X17536811Y-6414302D01*
X17535365Y-6411296D01*
X17533918Y-6408292D01*
X17532469Y-6405290D01*
X17531020Y-6402292D01*
X17529570Y-6399295D01*
X17528118Y-6396301D01*
X17526666Y-6393309D01*
X17525212Y-6390320D01*
X17523758Y-6387333D01*
X17522302Y-6384349D01*
X17520846Y-6381367D01*
X17519388Y-6378387D01*
X17517930Y-6375410D01*
X17516470Y-6372435D01*
X17515009Y-6369463D01*
X17513548Y-6366493D01*
X17512085Y-6363526D01*
X17510621Y-6360561D01*
X17509156Y-6357598D01*
X17507690Y-6354638D01*
X17506223Y-6351681D01*
X17504755Y-6348726D01*
X17503286Y-6345773D01*
X17501817Y-6342822D01*
X17500345Y-6339874D01*
X17498873Y-6336929D01*
X17497400Y-6333985D01*
X17495926Y-6331045D01*
X17494451Y-6328106D01*
X17492975Y-6325171D01*
X17491498Y-6322237D01*
X17490020Y-6319306D01*
X17488540Y-6316377D01*
X17487060Y-6313451D01*
X17485579Y-6310527D01*
X17484097Y-6307606D01*
X17482613Y-6304687D01*
X17481129Y-6301770D01*
X17479644Y-6298856D01*
X17478158Y-6295944D01*
X17476670Y-6293035D01*
X17475182Y-6290128D01*
X17473692Y-6287223D01*
X17472202Y-6284321D01*
X17470710Y-6281421D01*
X17469218Y-6278524D01*
X17467725Y-6275628D01*
X17466230Y-6272736D01*
X17464735Y-6269846D01*
X17463238Y-6266958D01*
X17461741Y-6264072D01*
X17460242Y-6261190D01*
X17458742Y-6258309D01*
X17457242Y-6255431D01*
X17455740Y-6252554D01*
X17454238Y-6249681D01*
X17452734Y-6246810D01*
X17451230Y-6243941D01*
X17449724Y-6241075D01*
X17448218Y-6238211D01*
X17446710Y-6235349D01*
X17445202Y-6232490D01*
X17443692Y-6229633D01*
X17442181Y-6226779D01*
X17440670Y-6223927D01*
X17439157Y-6221077D01*
X17437643Y-6218230D01*
X17436129Y-6215385D01*
X17434613Y-6212542D01*
X17433097Y-6209702D01*
X17431579Y-6206864D01*
X17430060Y-6204029D01*
X17428541Y-6201196D01*
X17427020Y-6198365D01*
X17423976Y-6192711D01*
X17420928Y-6187066D01*
X17417876Y-6181431D01*
X17414820Y-6175805D01*
X17411759Y-6170188D01*
X17408695Y-6164581D01*
X17405627Y-6158984D01*
X17402555Y-6153395D01*
X17399479Y-6147817D01*
X17396400Y-6142247D01*
X17393316Y-6136687D01*
X17390228Y-6131136D01*
X17387136Y-6125595D01*
X17384041Y-6120063D01*
X17380941Y-6114541D01*
X17377838Y-6109027D01*
X17374730Y-6103524D01*
X17371619Y-6098029D01*
X17368504Y-6092544D01*
X17365385Y-6087068D01*
X17362262Y-6081601D01*
X17359135Y-6076144D01*
X17356004Y-6070696D01*
X17352869Y-6065257D01*
X17349731Y-6059828D01*
X17346588Y-6054408D01*
X17343442Y-6048997D01*
X17340292Y-6043595D01*
X17337138Y-6038203D01*
X17333980Y-6032820D01*
X17330818Y-6027446D01*
X17327653Y-6022081D01*
X17324483Y-6016726D01*
X17321310Y-6011379D01*
X17318133Y-6006042D01*
X17314952Y-6000714D01*
X17311768Y-5995396D01*
X17308579Y-5990086D01*
X17305387Y-5984786D01*
X17302190Y-5979495D01*
X17298990Y-5974213D01*
X17295787Y-5968940D01*
X17292579Y-5963676D01*
X17289368Y-5958421D01*
X17286153Y-5953176D01*
X17282934Y-5947940D01*
X17279711Y-5942712D01*
X17276484Y-5937494D01*
X17273254Y-5932285D01*
X17270020Y-5927085D01*
X17266782Y-5921894D01*
X17263541Y-5916712D01*
X17260295Y-5911540D01*
X17257046Y-5906376D01*
X17253793Y-5901221D01*
X17250537Y-5896076D01*
X17247276Y-5890939D01*
X17244012Y-5885812D01*
X17240744Y-5880693D01*
X17237473Y-5875584D01*
X17234198Y-5870483D01*
X17230919Y-5865392D01*
X17227636Y-5860309D01*
X17224350Y-5855236D01*
X17221060Y-5850171D01*
X17217766Y-5845116D01*
X17214468Y-5840069D01*
X17211167Y-5835031D01*
X17207862Y-5830003D01*
X17204554Y-5824983D01*
X17201241Y-5819972D01*
X17197925Y-5814970D01*
X17194606Y-5809977D01*
X17191282Y-5804993D01*
X17187956Y-5800018D01*
X17184625Y-5795052D01*
X17181291Y-5790095D01*
X17177953Y-5785146D01*
X17174611Y-5780207D01*
X17171266Y-5775276D01*
X17167917Y-5770354D01*
X17164565Y-5765441D01*
X17161208Y-5760537D01*
X17157849Y-5755642D01*
X17154485Y-5750755D01*
X17151118Y-5745878D01*
X17147748Y-5741009D01*
X17144373Y-5736149D01*
X17140995Y-5731298D01*
X17137614Y-5726456D01*
X17134229Y-5721622D01*
X17130840Y-5716797D01*
X17127448Y-5711981D01*
X17124052Y-5707174D01*
X17120653Y-5702376D01*
X17117250Y-5697586D01*
X17113843Y-5692805D01*
X17110433Y-5688033D01*
X17107019Y-5683270D01*
X17103602Y-5678515D01*
X17100181Y-5673769D01*
X17096756Y-5669032D01*
X17093328Y-5664304D01*
X17089897Y-5659584D01*
X17086461Y-5654873D01*
X17083023Y-5650171D01*
X17079581Y-5645477D01*
X17076135Y-5640792D01*
X17072686Y-5636116D01*
X17069233Y-5631448D01*
X17065776Y-5626789D01*
X17062316Y-5622139D01*
X17058853Y-5617497D01*
X17055386Y-5612865D01*
X17051916Y-5608240D01*
X17048442Y-5603625D01*
X17044964Y-5599018D01*
X17041483Y-5594419D01*
X17037999Y-5589830D01*
X17034511Y-5585248D01*
X17031020Y-5580676D01*
X17027525Y-5576112D01*
X17024026Y-5571557D01*
X17020524Y-5567010D01*
X17017019Y-5562472D01*
X17013510Y-5557942D01*
X17009998Y-5553421D01*
X17006482Y-5548909D01*
X17002963Y-5544405D01*
X16999440Y-5539909D01*
X16995914Y-5535423D01*
X16992384Y-5530944D01*
X16988851Y-5526475D01*
X16985315Y-5522014D01*
X16981775Y-5517561D01*
X16978232Y-5513117D01*
X16974685Y-5508681D01*
X16971135Y-5504254D01*
X16967581Y-5499836D01*
X16964024Y-5495425D01*
X16960464Y-5491024D01*
X16956900Y-5486631D01*
X16953332Y-5482246D01*
X16949762Y-5477870D01*
X16946188Y-5473502D01*
X16942610Y-5469143D01*
X16939029Y-5464792D01*
X16935445Y-5460450D01*
X16931857Y-5456116D01*
X16928266Y-5451791D01*
X16924672Y-5447474D01*
X16921074Y-5443165D01*
X16917473Y-5438865D01*
X16913868Y-5434573D01*
X16910260Y-5430290D01*
X16906649Y-5426015D01*
X16903034Y-5421749D01*
X16899416Y-5417491D01*
X16895795Y-5413241D01*
X16892170Y-5409000D01*
X16888542Y-5404767D01*
X16884910Y-5400543D01*
X16881276Y-5396326D01*
X16877637Y-5392119D01*
X16873996Y-5387919D01*
X16870351Y-5383728D01*
X16866703Y-5379546D01*
X16863052Y-5375371D01*
X16859397Y-5371205D01*
X16855739Y-5367048D01*
X16852078Y-5362898D01*
X16848413Y-5358757D01*
X16844745Y-5354625D01*
X16841074Y-5350500D01*
X16837399Y-5346384D01*
X16833721Y-5342277D01*
X16830040Y-5338177D01*
X16826356Y-5334086D01*
X16822668Y-5330004D01*
X16818977Y-5325929D01*
X16815283Y-5321863D01*
X16811585Y-5317805D01*
X16807884Y-5313755D01*
X16804180Y-5309714D01*
X16800473Y-5305681D01*
X16796762Y-5301656D01*
X16793049Y-5297639D01*
X16789332Y-5293631D01*
X16785611Y-5289631D01*
X16781888Y-5285639D01*
X16778161Y-5281656D01*
X16774431Y-5277680D01*
X16770697Y-5273713D01*
X16766961Y-5269754D01*
X16763221Y-5265804D01*
X16759478Y-5261861D01*
X16755732Y-5257927D01*
X16751983Y-5254001D01*
X16748230Y-5250083D01*
X16744474Y-5246174D01*
X16740715Y-5242272D01*
X16736953Y-5238379D01*
X16733187Y-5234494D01*
X16729419Y-5230617D01*
X16725647Y-5226749D01*
X16721872Y-5222888D01*
X16718094Y-5219036D01*
X16714313Y-5215192D01*
X16710528Y-5211356D01*
X16706740Y-5207528D01*
X16702949Y-5203709D01*
X16699155Y-5199897D01*
X16695358Y-5196094D01*
X16691558Y-5192299D01*
X16687754Y-5188512D01*
X16683948Y-5184733D01*
X16680138Y-5180962D01*
X16676325Y-5177200D01*
X16672509Y-5173445D01*
X16668690Y-5169699D01*
X16664868Y-5165961D01*
X16661042Y-5162231D01*
X16657214Y-5158509D01*
X16653382Y-5154795D01*
X16649547Y-5151089D01*
X16645709Y-5147392D01*
X16641868Y-5143702D01*
X16638024Y-5140021D01*
X16634177Y-5136348D01*
X16630327Y-5132682D01*
X16626473Y-5129025D01*
X16622617Y-5125376D01*
X16618757Y-5121735D01*
X16614894Y-5118102D01*
X16611029Y-5114478D01*
X16607160Y-5110861D01*
X16603288Y-5107252D01*
X16599413Y-5103652D01*
X16595535Y-5100059D01*
X16591654Y-5096475D01*
X16587770Y-5092898D01*
X16583883Y-5089330D01*
X16579993Y-5085770D01*
X16576099Y-5082218D01*
X16572203Y-5078673D01*
X16568304Y-5075137D01*
X16564402Y-5071609D01*
X16560496Y-5068089D01*
X16556588Y-5064577D01*
X16552677Y-5061073D01*
X16548762Y-5057577D01*
X16544845Y-5054089D01*
X16540924Y-5050609D01*
X16537001Y-5047137D01*
X16533075Y-5043674D01*
X16529145Y-5040218D01*
X16525213Y-5036770D01*
X16521278Y-5033330D01*
X16517339Y-5029898D01*
X16513398Y-5026475D01*
X16509454Y-5023059D01*
X16505507Y-5019651D01*
X16501556Y-5016251D01*
X16497603Y-5012860D01*
X16493647Y-5009476D01*
X16489688Y-5006100D01*
X16485726Y-5002732D01*
X16481761Y-4999372D01*
X16477793Y-4996021D01*
X16473823Y-4992677D01*
X16469849Y-4989341D01*
X16465872Y-4986013D01*
X16461893Y-4982693D01*
X16457910Y-4979381D01*
X16453925Y-4976077D01*
X16449937Y-4972782D01*
X16445946Y-4969494D01*
X16441952Y-4966214D01*
X16437955Y-4962942D01*
X16433955Y-4959678D01*
X16429952Y-4956421D01*
X16425947Y-4953173D01*
X16421939Y-4949933D01*
X16417927Y-4946701D01*
X16413913Y-4943477D01*
X16409896Y-4940261D01*
X16405876Y-4937052D01*
X16401854Y-4933852D01*
X16397828Y-4930659D01*
X16393800Y-4927475D01*
X16389769Y-4924299D01*
X16385735Y-4921130D01*
X16381698Y-4917969D01*
X16377659Y-4914817D01*
X16373616Y-4911672D01*
X16369571Y-4908535D01*
X16365523Y-4905406D01*
X16361472Y-4902286D01*
X16357419Y-4899173D01*
X16353363Y-4896068D01*
X16349303Y-4892971D01*
X16345242Y-4889882D01*
X16341177Y-4886800D01*
X16337110Y-4883727D01*
X16333040Y-4880662D01*
X16328967Y-4877604D01*
X16324891Y-4874555D01*
X16320813Y-4871514D01*
X16316732Y-4868480D01*
X16312648Y-4865454D01*
X16308561Y-4862437D01*
X16304472Y-4859427D01*
X16300380Y-4856425D01*
X16296286Y-4853431D01*
X16292188Y-4850445D01*
X16288089Y-4847467D01*
X16283986Y-4844497D01*
X16279881Y-4841535D01*
X16275773Y-4838581D01*
X16271662Y-4835634D01*
X16267549Y-4832696D01*
X16263433Y-4829766D01*
X16259314Y-4826843D01*
X16255193Y-4823928D01*
X16251069Y-4821022D01*
X16246943Y-4818123D01*
X16242814Y-4815232D01*
X16238682Y-4812349D01*
X16234548Y-4809474D01*
X16230411Y-4806607D01*
X16226271Y-4803748D01*
X16222129Y-4800897D01*
X16217985Y-4798054D01*
X16213837Y-4795218D01*
X16209688Y-4792391D01*
X16205535Y-4789572D01*
X16201381Y-4786760D01*
X16197223Y-4783957D01*
X16193063Y-4781161D01*
X16188901Y-4778373D01*
X16184736Y-4775593D01*
X16180569Y-4772821D01*
X16176399Y-4770057D01*
X16172226Y-4767301D01*
X16168051Y-4764553D01*
X16163874Y-4761813D01*
X16159694Y-4759081D01*
X16155512Y-4756357D01*
X16151327Y-4753640D01*
X16147140Y-4750932D01*
X16142950Y-4748232D01*
X16138758Y-4745539D01*
X16134564Y-4742854D01*
X16130367Y-4740178D01*
X16126168Y-4737509D01*
X16121966Y-4734848D01*
X16117762Y-4732196D01*
X16113556Y-4729551D01*
X16109347Y-4726914D01*
X16105136Y-4724285D01*
X16100922Y-4721664D01*
X16096706Y-4719051D01*
X16092488Y-4716446D01*
X16088268Y-4713849D01*
X16084045Y-4711259D01*
X16079820Y-4708678D01*
X16075592Y-4706105D01*
X16071363Y-4703540D01*
X16067131Y-4700982D01*
X16062897Y-4698433D01*
X16058660Y-4695891D01*
X16054421Y-4693358D01*
X16050181Y-4690833D01*
X16045937Y-4688315D01*
X16041692Y-4685806D01*
X16037444Y-4683304D01*
X16033195Y-4680810D01*
X16028943Y-4678325D01*
X16024689Y-4675847D01*
X16020432Y-4673378D01*
X16016174Y-4670916D01*
X16011913Y-4668462D01*
X16007651Y-4666017D01*
X16003386Y-4663579D01*
X15999119Y-4661149D01*
X15994850Y-4658728D01*
X15990579Y-4656314D01*
X15986306Y-4653908D01*
X15982030Y-4651511D01*
X15977753Y-4649121D01*
X15973474Y-4646739D01*
X15969193Y-4644366D01*
X15964909Y-4642000D01*
X15960624Y-4639643D01*
X15956337Y-4637293D01*
X15952047Y-4634952D01*
X15947756Y-4632618D01*
X15943463Y-4630293D01*
X15939168Y-4627975D01*
X15934871Y-4625666D01*
X15930572Y-4623364D01*
X15926271Y-4621071D01*
X15921968Y-4618786D01*
X15917664Y-4616509D01*
X15913357Y-4614240D01*
X15909049Y-4611978D01*
X15904739Y-4609725D01*
X15900427Y-4607481D01*
X15896113Y-4605244D01*
X15891798Y-4603015D01*
X15887481Y-4600794D01*
X15883162Y-4598581D01*
X15878841Y-4596377D01*
X15874518Y-4594180D01*
X15870194Y-4591992D01*
X15865868Y-4589812D01*
X15861541Y-4587639D01*
X15857212Y-4585475D01*
X15852881Y-4583319D01*
X15848549Y-4581171D01*
X15844215Y-4579032D01*
X15839879Y-4576900D01*
X15835542Y-4574777D01*
X15831203Y-4572661D01*
X15826863Y-4570554D01*
X15822521Y-4568455D01*
X15818178Y-4566364D01*
X15813833Y-4564281D01*
X15809487Y-4562206D01*
X15805139Y-4560140D01*
X15800790Y-4558081D01*
X15796439Y-4556031D01*
X15792087Y-4553989D01*
X15787734Y-4551955D01*
X15783379Y-4549930D01*
X15779023Y-4547912D01*
X15774666Y-4545903D01*
X15770307Y-4543902D01*
X15765948Y-4541909D01*
X15761586Y-4539924D01*
X15757224Y-4537948D01*
X15752860Y-4535979D01*
X15748496Y-4534019D01*
X15744130Y-4532068D01*
X15739763Y-4530124D01*
X15735395Y-4528189D01*
X15731025Y-4526261D01*
X15726655Y-4524343D01*
X15722283Y-4522432D01*
X15717911Y-4520530D01*
X15713538Y-4518636D01*
X15709163Y-4516750D01*
X15704788Y-4514872D01*
X15700411Y-4513003D01*
X15696034Y-4511142D01*
X15691656Y-4509289D01*
X15687277Y-4507445D01*
X15682897Y-4505609D01*
X15678516Y-4503781D01*
X15674135Y-4501962D01*
X15669753Y-4500151D01*
X15665370Y-4498348D01*
X15660986Y-4496554D01*
X15656602Y-4494768D01*
X15652217Y-4492990D01*
X15647831Y-4491221D01*
X15643445Y-4489460D01*
X15639059Y-4487707D01*
X15634671Y-4485963D01*
X15630284Y-4484227D01*
X15625895Y-4482500D01*
X15621507Y-4480781D01*
X15617118Y-4479070D01*
X15612728Y-4477368D01*
X15608338Y-4475674D01*
X15603948Y-4473989D01*
X15599558Y-4472312D01*
X15595167Y-4470643D01*
X15590776Y-4468983D01*
X15586385Y-4467332D01*
X15581994Y-4465689D01*
X15577603Y-4464054D01*
X15573211Y-4462428D01*
X15568820Y-4460810D01*
X15564429Y-4459201D01*
X15560037Y-4457601D01*
X15555646Y-4456009D01*
X15551255Y-4454425D01*
X15546864Y-4452850D01*
X15542473Y-4451284D01*
X15538082Y-4449726D01*
X15533692Y-4448176D01*
X15529302Y-4446636D01*
X15524912Y-4445103D01*
X15520523Y-4443580D01*
X15516134Y-4442065D01*
X15511745Y-4440558D01*
X15507357Y-4439060D01*
X15502970Y-4437571D01*
X15498583Y-4436091D01*
X15494197Y-4434619D01*
X15489812Y-4433155D01*
X15485427Y-4431701D01*
X15481043Y-4430255D01*
X15476660Y-4428818D01*
X15472278Y-4427389D01*
X15467897Y-4425969D01*
X15463517Y-4424558D01*
X15459138Y-4423155D01*
X15454760Y-4421762D01*
X15450383Y-4420377D01*
X15446007Y-4419000D01*
X15441633Y-4417633D01*
X15437259Y-4416274D01*
X15432888Y-4414924D01*
X15428517Y-4413583D01*
X15424148Y-4412250D01*
X15419781Y-4410927D01*
X15415415Y-4409612D01*
X15411051Y-4408306D01*
X15406689Y-4407009D01*
X15402328Y-4405721D01*
X15397970Y-4404441D01*
X15393613Y-4403171D01*
X15389258Y-4401909D01*
X15384905Y-4400656D01*
X15380555Y-4399412D01*
X15376206Y-4398177D01*
X15371860Y-4396951D01*
X15367516Y-4395734D01*
X15363175Y-4394526D01*
X15358836Y-4393327D01*
X15354499Y-4392137D01*
X15350165Y-4390956D01*
X15345834Y-4389783D01*
X15341506Y-4388620D01*
X15337180Y-4387466D01*
X15332858Y-4386321D01*
X15328538Y-4385185D01*
X15324222Y-4384058D01*
X15319909Y-4382940D01*
X15315599Y-4381831D01*
X15311292Y-4380731D01*
X15306989Y-4379640D01*
X15302690Y-4378559D01*
X15298394Y-4377486D01*
X15294102Y-4376423D01*
X15289813Y-4375369D01*
X15285529Y-4374324D01*
X15281249Y-4373288D01*
X15276973Y-4372262D01*
X15272701Y-4371244D01*
X15268434Y-4370236D01*
X15264171Y-4369237D01*
X15259912Y-4368248D01*
X15255659Y-4367267D01*
X15251410Y-4366296D01*
X15247166Y-4365335D01*
X15242927Y-4364382D01*
X15238694Y-4363439D01*
X15234466Y-4362505D01*
X15230243Y-4361581D01*
X15226026Y-4360666D01*
X15221814Y-4359760D01*
X15217609Y-4358864D01*
X15213409Y-4357977D01*
X15209216Y-4357100D01*
X15205029Y-4356232D01*
X15200848Y-4355373D01*
X15196674Y-4354524D01*
X15192507Y-4353685D01*
X15188347Y-4352855D01*
X15184194Y-4352034D01*
X15180048Y-4351223D01*
X15175909Y-4350422D01*
X15171779Y-4349630D01*
X15167656Y-4348848D01*
X15163541Y-4348075D01*
X15159434Y-4347312D01*
X15155336Y-4346559D01*
X15151246Y-4345815D01*
X15147165Y-4345081D01*
X15143093Y-4344357D01*
X15139030Y-4343643D01*
X15134977Y-4342938D01*
X15130934Y-4342243D01*
X15126900Y-4341557D01*
X15122877Y-4340882D01*
X15118864Y-4340216D01*
X15114862Y-4339560D01*
X15110871Y-4338914D01*
X15106891Y-4338278D01*
X15102922Y-4337652D01*
X15098966Y-4337036D01*
X15095022Y-4336429D01*
X15091090Y-4335833D01*
X15087170Y-4335246D01*
X15083264Y-4334669D01*
X15079372Y-4334103D01*
X15075493Y-4333546D01*
X15071628Y-4333000D01*
X15067778Y-4332463D01*
X15063943Y-4331937D01*
X15060124Y-4331421D01*
X15056320Y-4330915D01*
X15052532Y-4330419D01*
X15048761Y-4329933D01*
X15045008Y-4329457D01*
X15041272Y-4328992D01*
X15037554Y-4328537D01*
X15033855Y-4328092D01*
X15030175Y-4327658D01*
X15026515Y-4327233D01*
X15022876Y-4326819D01*
X15019258Y-4326416D01*
X15015661Y-4326023D01*
X15012088Y-4325640D01*
X15008537Y-4325267D01*
X15005011Y-4324906D01*
X15001509Y-4324554D01*
X14998034Y-4324213D01*
X14994585Y-4323883D01*
X14991163Y-4323563D01*
X14987771Y-4323254D01*
X14984408Y-4322955D01*
X14981076Y-4322667D01*
X14977777Y-4322390D01*
X14974511Y-4322123D01*
X14971280Y-4321867D01*
X14968085Y-4321622D01*
X14964929Y-4321388D01*
X14961813Y-4321164D01*
X14958739Y-4320952D01*
X14955709Y-4320750D01*
X14952725Y-4320559D01*
X14949791Y-4320379D01*
X14946908Y-4320210D01*
X14944080Y-4320051D01*
X14941311Y-4319904D01*
X14938605Y-4319768D01*
X14935966Y-4319643D01*
X14933400Y-4319529D01*
X14930913Y-4319427D01*
X14928513Y-4319335D01*
X14926208Y-4319254D01*
X14924011Y-4319185D01*
X14921935Y-4319127D01*
X14920001Y-4319080D01*
X14918236Y-4319044D01*
X14916684Y-4319019D01*
X14915424Y-4319005D01*
X14914600Y-4319000D01*
X15434600Y-14319000D02*
X15434600Y-11119000D01*
X18324600Y-10719000D02*
X18324599Y-10722942D01*
X18324596Y-10726881D01*
X18324591Y-10730818D01*
X18324584Y-10734751D01*
X18324575Y-10738682D01*
X18324564Y-10742609D01*
X18324551Y-10746534D01*
X18324536Y-10750456D01*
X18324519Y-10754374D01*
X18324500Y-10758290D01*
X18324479Y-10762203D01*
X18324456Y-10766113D01*
X18324432Y-10770020D01*
X18324405Y-10773925D01*
X18324376Y-10777826D01*
X18324345Y-10781724D01*
X18324312Y-10785620D01*
X18324277Y-10789512D01*
X18324241Y-10793402D01*
X18324202Y-10797289D01*
X18324161Y-10801173D01*
X18324119Y-10805054D01*
X18324074Y-10808932D01*
X18324027Y-10812807D01*
X18323979Y-10816679D01*
X18323928Y-10820549D01*
X18323876Y-10824415D01*
X18323821Y-10828279D01*
X18323765Y-10832140D01*
X18323707Y-10835997D01*
X18323646Y-10839852D01*
X18323584Y-10843705D01*
X18323520Y-10847554D01*
X18323454Y-10851400D01*
X18323386Y-10855244D01*
X18323316Y-10859084D01*
X18323243Y-10862922D01*
X18323170Y-10866757D01*
X18323094Y-10870589D01*
X18323016Y-10874418D01*
X18322936Y-10878244D01*
X18322854Y-10882067D01*
X18322771Y-10885888D01*
X18322685Y-10889705D01*
X18322597Y-10893520D01*
X18322508Y-10897332D01*
X18322417Y-10901141D01*
X18322323Y-10904947D01*
X18322228Y-10908751D01*
X18322131Y-10912551D01*
X18322032Y-10916349D01*
X18321931Y-10920144D01*
X18321828Y-10923936D01*
X18321723Y-10927725D01*
X18321616Y-10931511D01*
X18321507Y-10935294D01*
X18321396Y-10939075D01*
X18321284Y-10942853D01*
X18321169Y-10946628D01*
X18321053Y-10950400D01*
X18320935Y-10954169D01*
X18320814Y-10957935D01*
X18320692Y-10961699D01*
X18320568Y-10965460D01*
X18320442Y-10969218D01*
X18320314Y-10972973D01*
X18320185Y-10976725D01*
X18320053Y-10980474D01*
X18319919Y-10984221D01*
X18319784Y-10987965D01*
X18319647Y-10991706D01*
X18319507Y-10995444D01*
X18319366Y-10999179D01*
X18319223Y-11002912D01*
X18319078Y-11006641D01*
X18318931Y-11010368D01*
X18318783Y-11014092D01*
X18318632Y-11017814D01*
X18318479Y-11021532D01*
X18318325Y-11025248D01*
X18318169Y-11028961D01*
X18318011Y-11032671D01*
X18317850Y-11036378D01*
X18317689Y-11040082D01*
X18317525Y-11043784D01*
X18317359Y-11047483D01*
X18317192Y-11051179D01*
X18317022Y-11054872D01*
X18316851Y-11058563D01*
X18316678Y-11062251D01*
X18316503Y-11065936D01*
X18316326Y-11069618D01*
X18316147Y-11073297D01*
X18315966Y-11076974D01*
X18315784Y-11080647D01*
X18315599Y-11084318D01*
X18315413Y-11087987D01*
X18315225Y-11091652D01*
X18315035Y-11095315D01*
X18314843Y-11098975D01*
X18314650Y-11102632D01*
X18314454Y-11106286D01*
X18314257Y-11109938D01*
X18314057Y-11113587D01*
X18313856Y-11117233D01*
X18313653Y-11120876D01*
X18313449Y-11124517D01*
X18313242Y-11128154D01*
X18313033Y-11131790D01*
X18312823Y-11135422D01*
X18312611Y-11139051D01*
X18312397Y-11142678D01*
X18312181Y-11146302D01*
X18311963Y-11149923D01*
X18311744Y-11153542D01*
X18311522Y-11157158D01*
X18311299Y-11160771D01*
X18311074Y-11164381D01*
X18310847Y-11167989D01*
X18310619Y-11171593D01*
X18310388Y-11175195D01*
X18310156Y-11178795D01*
X18309922Y-11182391D01*
X18309686Y-11185985D01*
X18309448Y-11189576D01*
X18309208Y-11193165D01*
X18308967Y-11196750D01*
X18308723Y-11200333D01*
X18308478Y-11203913D01*
X18308231Y-11207491D01*
X18307983Y-11211066D01*
X18307732Y-11214638D01*
X18307480Y-11218207D01*
X18307225Y-11221774D01*
X18306969Y-11225338D01*
X18306712Y-11228899D01*
X18306452Y-11232457D01*
X18306191Y-11236013D01*
X18305927Y-11239566D01*
X18305662Y-11243116D01*
X18305396Y-11246664D01*
X18305127Y-11250209D01*
X18304856Y-11253751D01*
X18304584Y-11257291D01*
X18304310Y-11260827D01*
X18304034Y-11264362D01*
X18303757Y-11267893D01*
X18303477Y-11271422D01*
X18303196Y-11274948D01*
X18302913Y-11278471D01*
X18302628Y-11281992D01*
X18302342Y-11285510D01*
X18302053Y-11289025D01*
X18301763Y-11292537D01*
X18301471Y-11296047D01*
X18301178Y-11299554D01*
X18300882Y-11303059D01*
X18300585Y-11306561D01*
X18300286Y-11310060D01*
X18299985Y-11313556D01*
X18299682Y-11317050D01*
X18299378Y-11320541D01*
X18299072Y-11324030D01*
X18298764Y-11327516D01*
X18298454Y-11330999D01*
X18298143Y-11334479D01*
X18297829Y-11337957D01*
X18297514Y-11341432D01*
X18297198Y-11344905D01*
X18296879Y-11348374D01*
X18296559Y-11351842D01*
X18296237Y-11355306D01*
X18295913Y-11358768D01*
X18295587Y-11362227D01*
X18295260Y-11365683D01*
X18294931Y-11369137D01*
X18294600Y-11372589D01*
X18294267Y-11376037D01*
X18293933Y-11379483D01*
X18293597Y-11382926D01*
X18293259Y-11386367D01*
X18292919Y-11389805D01*
X18292578Y-11393240D01*
X18292235Y-11396673D01*
X18291890Y-11400103D01*
X18291543Y-11403530D01*
X18291195Y-11406955D01*
X18290845Y-11410377D01*
X18290493Y-11413797D01*
X18290140Y-11417214D01*
X18289784Y-11420628D01*
X18289427Y-11424040D01*
X18289069Y-11427449D01*
X18288708Y-11430855D01*
X18288346Y-11434259D01*
X18287982Y-11437660D01*
X18287616Y-11441058D01*
X18287249Y-11444454D01*
X18286879Y-11447847D01*
X18286509Y-11451238D01*
X18286136Y-11454626D01*
X18285762Y-11458012D01*
X18285386Y-11461394D01*
X18285008Y-11464775D01*
X18284628Y-11468152D01*
X18284247Y-11471527D01*
X18283864Y-11474900D01*
X18283480Y-11478269D01*
X18283093Y-11481637D01*
X18282705Y-11485001D01*
X18282315Y-11488363D01*
X18281924Y-11491723D01*
X18281531Y-11495079D01*
X18281136Y-11498434D01*
X18280739Y-11501785D01*
X18280341Y-11505134D01*
X18279941Y-11508481D01*
X18279539Y-11511825D01*
X18279135Y-11515166D01*
X18278730Y-11518504D01*
X18278323Y-11521841D01*
X18277915Y-11525174D01*
X18277505Y-11528505D01*
X18277093Y-11531833D01*
X18276679Y-11535159D01*
X18276264Y-11538482D01*
X18275847Y-11541803D01*
X18275428Y-11545121D01*
X18275007Y-11548437D01*
X18274585Y-11551749D01*
X18274162Y-11555060D01*
X18273736Y-11558368D01*
X18273309Y-11561673D01*
X18272880Y-11564975D01*
X18272450Y-11568276D01*
X18272017Y-11571573D01*
X18271583Y-11574868D01*
X18271148Y-11578160D01*
X18270711Y-11581450D01*
X18270272Y-11584738D01*
X18269831Y-11588022D01*
X18269389Y-11591305D01*
X18268945Y-11594584D01*
X18268499Y-11597861D01*
X18268052Y-11601136D01*
X18267603Y-11604408D01*
X18267152Y-11607678D01*
X18266700Y-11610944D01*
X18266246Y-11614209D01*
X18265790Y-11617471D01*
X18265333Y-11620730D01*
X18264874Y-11623987D01*
X18264413Y-11627241D01*
X18263951Y-11630493D01*
X18263487Y-11633742D01*
X18263022Y-11636989D01*
X18262554Y-11640233D01*
X18262085Y-11643474D01*
X18261615Y-11646713D01*
X18261143Y-11649950D01*
X18260669Y-11653184D01*
X18260193Y-11656415D01*
X18259716Y-11659644D01*
X18259237Y-11662871D01*
X18258757Y-11666095D01*
X18258275Y-11669316D01*
X18257791Y-11672535D01*
X18257305Y-11675752D01*
X18256818Y-11678966D01*
X18256330Y-11682177D01*
X18255839Y-11685386D01*
X18255347Y-11688592D01*
X18254854Y-11691796D01*
X18254358Y-11694998D01*
X18253862Y-11698196D01*
X18253363Y-11701393D01*
X18252863Y-11704587D01*
X18252361Y-11707778D01*
X18251858Y-11710967D01*
X18251353Y-11714153D01*
X18250846Y-11717337D01*
X18250338Y-11720519D01*
X18249828Y-11723698D01*
X18249316Y-11726874D01*
X18248803Y-11730048D01*
X18248288Y-11733219D01*
X18247772Y-11736388D01*
X18247254Y-11739555D01*
X18246734Y-11742719D01*
X18246213Y-11745880D01*
X18245690Y-11749040D01*
X18245165Y-11752196D01*
X18244639Y-11755350D01*
X18244111Y-11758502D01*
X18243582Y-11761651D01*
X18243051Y-11764798D01*
X18242518Y-11767942D01*
X18241984Y-11771084D01*
X18241448Y-11774223D01*
X18240911Y-11777360D01*
X18240372Y-11780494D01*
X18239831Y-11783626D01*
X18239289Y-11786756D01*
X18238745Y-11789883D01*
X18238200Y-11793007D01*
X18237653Y-11796129D01*
X18237104Y-11799249D01*
X18236554Y-11802366D01*
X18236002Y-11805481D01*
X18235448Y-11808593D01*
X18234893Y-11811703D01*
X18234337Y-11814810D01*
X18233779Y-11817915D01*
X18233219Y-11821018D01*
X18232657Y-11824118D01*
X18232094Y-11827216D01*
X18231530Y-11830311D01*
X18230964Y-11833404D01*
X18230396Y-11836494D01*
X18229827Y-11839582D01*
X18229256Y-11842667D01*
X18228683Y-11845750D01*
X18228109Y-11848831D01*
X18227533Y-11851909D01*
X18226956Y-11854985D01*
X18226377Y-11858058D01*
X18225797Y-11861129D01*
X18225215Y-11864197D01*
X18224631Y-11867263D01*
X18224046Y-11870327D01*
X18223459Y-11873388D01*
X18222871Y-11876447D01*
X18222281Y-11879503D01*
X18221690Y-11882557D01*
X18221097Y-11885609D01*
X18220502Y-11888658D01*
X18219906Y-11891705D01*
X18219309Y-11894749D01*
X18218709Y-11897791D01*
X18218109Y-11900830D01*
X18217506Y-11903868D01*
X18216902Y-11906902D01*
X18216297Y-11909935D01*
X18215690Y-11912964D01*
X18215081Y-11915992D01*
X18214471Y-11919017D01*
X18213859Y-11922040D01*
X18213246Y-11925060D01*
X18212631Y-11928078D01*
X18212015Y-11931094D01*
X18211397Y-11934107D01*
X18210777Y-11937117D01*
X18210156Y-11940126D01*
X18209533Y-11943132D01*
X18208909Y-11946136D01*
X18208284Y-11949137D01*
X18207656Y-11952136D01*
X18207028Y-11955132D01*
X18206397Y-11958126D01*
X18205765Y-11961118D01*
X18205132Y-11964107D01*
X18204497Y-11967094D01*
X18203860Y-11970079D01*
X18203222Y-11973061D01*
X18202583Y-11976041D01*
X18201942Y-11979018D01*
X18201299Y-11981993D01*
X18200655Y-11984966D01*
X18200009Y-11987937D01*
X18199362Y-11990905D01*
X18198713Y-11993870D01*
X18198063Y-11996834D01*
X18197411Y-11999795D01*
X18196758Y-12002753D01*
X18196103Y-12005710D01*
X18195446Y-12008663D01*
X18194788Y-12011615D01*
X18194129Y-12014564D01*
X18193468Y-12017511D01*
X18192805Y-12020455D01*
X18192141Y-12023398D01*
X18191476Y-12026337D01*
X18190809Y-12029275D01*
X18190140Y-12032210D01*
X18189470Y-12035143D01*
X18188798Y-12038073D01*
X18188125Y-12041001D01*
X18187451Y-12043927D01*
X18186774Y-12046851D01*
X18186097Y-12049772D01*
X18185418Y-12052691D01*
X18184737Y-12055607D01*
X18184055Y-12058521D01*
X18183371Y-12061433D01*
X18182686Y-12064342D01*
X18181999Y-12067250D01*
X18181311Y-12070154D01*
X18180621Y-12073057D01*
X18179930Y-12075957D01*
X18179237Y-12078855D01*
X18178543Y-12081751D01*
X18177847Y-12084644D01*
X18177150Y-12087535D01*
X18176451Y-12090423D01*
X18175751Y-12093310D01*
X18175049Y-12096193D01*
X18174346Y-12099075D01*
X18173641Y-12101955D01*
X18172935Y-12104832D01*
X18172227Y-12107706D01*
X18171518Y-12110579D01*
X18170807Y-12113449D01*
X18170095Y-12116317D01*
X18169381Y-12119182D01*
X18168666Y-12122046D01*
X18167949Y-12124907D01*
X18167231Y-12127765D01*
X18166512Y-12130622D01*
X18165790Y-12133476D01*
X18165068Y-12136327D01*
X18164344Y-12139177D01*
X18163618Y-12142024D01*
X18162891Y-12144869D01*
X18162163Y-12147712D01*
X18161433Y-12150552D01*
X18160701Y-12153390D01*
X18159968Y-12156226D01*
X18159234Y-12159059D01*
X18158498Y-12161891D01*
X18157760Y-12164720D01*
X18157022Y-12167546D01*
X18156281Y-12170371D01*
X18155539Y-12173193D01*
X18154796Y-12176013D01*
X18154051Y-12178831D01*
X18153305Y-12181646D01*
X18152558Y-12184459D01*
X18151808Y-12187270D01*
X18151058Y-12190078D01*
X18150306Y-12192884D01*
X18149552Y-12195689D01*
X18148797Y-12198490D01*
X18148041Y-12201290D01*
X18147283Y-12204087D01*
X18146523Y-12206882D01*
X18145763Y-12209675D01*
X18145000Y-12212465D01*
X18144237Y-12215253D01*
X18143471Y-12218039D01*
X18142705Y-12220823D01*
X18141937Y-12223605D01*
X18141167Y-12226384D01*
X18140396Y-12229161D01*
X18139624Y-12231935D01*
X18138850Y-12234708D01*
X18138074Y-12237478D01*
X18137297Y-12240246D01*
X18136519Y-12243012D01*
X18135739Y-12245776D01*
X18134958Y-12248537D01*
X18134176Y-12251296D01*
X18133392Y-12254053D01*
X18132606Y-12256808D01*
X18131819Y-12259560D01*
X18131031Y-12262310D01*
X18130241Y-12265058D01*
X18129450Y-12267804D01*
X18128657Y-12270547D01*
X18127863Y-12273288D01*
X18127067Y-12276027D01*
X18126270Y-12278764D01*
X18125472Y-12281499D01*
X18124672Y-12284231D01*
X18123871Y-12286961D01*
X18123068Y-12289689D01*
X18122264Y-12292415D01*
X18121458Y-12295139D01*
X18120651Y-12297860D01*
X18119842Y-12300579D01*
X18119032Y-12303296D01*
X18118221Y-12306011D01*
X18117408Y-12308723D01*
X18116594Y-12311433D01*
X18115779Y-12314141D01*
X18114961Y-12316847D01*
X18114143Y-12319551D01*
X18113323Y-12322252D01*
X18112502Y-12324952D01*
X18111679Y-12327649D01*
X18110855Y-12330344D01*
X18110029Y-12333036D01*
X18109202Y-12335727D01*
X18108374Y-12338415D01*
X18107544Y-12341101D01*
X18106713Y-12343785D01*
X18105880Y-12346467D01*
X18105046Y-12349147D01*
X18104211Y-12351824D01*
X18103374Y-12354499D01*
X18102535Y-12357172D01*
X18101696Y-12359843D01*
X18100855Y-12362511D01*
X18100012Y-12365178D01*
X18099168Y-12367842D01*
X18098323Y-12370505D01*
X18097476Y-12373164D01*
X18096628Y-12375822D01*
X18095778Y-12378478D01*
X18094927Y-12381131D01*
X18094075Y-12383782D01*
X18093221Y-12386432D01*
X18092366Y-12389078D01*
X18091509Y-12391723D01*
X18090651Y-12394366D01*
X18089792Y-12397006D01*
X18088931Y-12399645D01*
X18088069Y-12402281D01*
X18087205Y-12404915D01*
X18086340Y-12407547D01*
X18085474Y-12410176D01*
X18084606Y-12412804D01*
X18083737Y-12415429D01*
X18082866Y-12418052D01*
X18081994Y-12420673D01*
X18081121Y-12423292D01*
X18080246Y-12425909D01*
X18079370Y-12428524D01*
X18078493Y-12431136D01*
X18077614Y-12433747D01*
X18076733Y-12436355D01*
X18075852Y-12438961D01*
X18074969Y-12441565D01*
X18074084Y-12444166D01*
X18073198Y-12446766D01*
X18072311Y-12449364D01*
X18071422Y-12451959D01*
X18070532Y-12454552D01*
X18069641Y-12457143D01*
X18068748Y-12459732D01*
X18067854Y-12462319D01*
X18066959Y-12464904D01*
X18066062Y-12467486D01*
X18065163Y-12470067D01*
X18064264Y-12472645D01*
X18063363Y-12475221D01*
X18062460Y-12477795D01*
X18061556Y-12480367D01*
X18060651Y-12482937D01*
X18059745Y-12485505D01*
X18058837Y-12488071D01*
X18057928Y-12490634D01*
X18057017Y-12493195D01*
X18056105Y-12495755D01*
X18055192Y-12498312D01*
X18054277Y-12500867D01*
X18053361Y-12503420D01*
X18052443Y-12505971D01*
X18051524Y-12508519D01*
X18050604Y-12511066D01*
X18049683Y-12513611D01*
X18048760Y-12516153D01*
X18047835Y-12518693D01*
X18046910Y-12521232D01*
X18045983Y-12523768D01*
X18045054Y-12526302D01*
X18044124Y-12528834D01*
X18043193Y-12531364D01*
X18042261Y-12533891D01*
X18041327Y-12536417D01*
X18040392Y-12538941D01*
X18039455Y-12541462D01*
X18038517Y-12543981D01*
X18037578Y-12546499D01*
X18036637Y-12549014D01*
X18035695Y-12551527D01*
X18034752Y-12554038D01*
X18033807Y-12556547D01*
X18032861Y-12559054D01*
X18031914Y-12561559D01*
X18030965Y-12564061D01*
X18030015Y-12566562D01*
X18029064Y-12569061D01*
X18028111Y-12571557D01*
X18027157Y-12574052D01*
X18026201Y-12576544D01*
X18025244Y-12579034D01*
X18024286Y-12581523D01*
X18023327Y-12584009D01*
X18022366Y-12586493D01*
X18021403Y-12588975D01*
X18020440Y-12591455D01*
X18019475Y-12593933D01*
X18018509Y-12596408D01*
X18017541Y-12598882D01*
X18016572Y-12601354D01*
X18015602Y-12603823D01*
X18014630Y-12606291D01*
X18013657Y-12608757D01*
X18012683Y-12611220D01*
X18011707Y-12613681D01*
X18010730Y-12616141D01*
X18009752Y-12618598D01*
X18008772Y-12621054D01*
X18007792Y-12623507D01*
X18006809Y-12625958D01*
X18005826Y-12628407D01*
X18004841Y-12630854D01*
X18003854Y-12633299D01*
X18002867Y-12635742D01*
X18001878Y-12638183D01*
X18000887Y-12640622D01*
X17999896Y-12643059D01*
X17998903Y-12645494D01*
X17997909Y-12647926D01*
X17996913Y-12650357D01*
X17995916Y-12652786D01*
X17994918Y-12655213D01*
X17993918Y-12657637D01*
X17992917Y-12660060D01*
X17991915Y-12662480D01*
X17990911Y-12664899D01*
X17989907Y-12667316D01*
X17988900Y-12669730D01*
X17987893Y-12672143D01*
X17986884Y-12674553D01*
X17985874Y-12676962D01*
X17984862Y-12679368D01*
X17983849Y-12681772D01*
X17982835Y-12684175D01*
X17981820Y-12686575D01*
X17980803Y-12688974D01*
X17979785Y-12691370D01*
X17978766Y-12693764D01*
X17977745Y-12696157D01*
X17976723Y-12698547D01*
X17975700Y-12700935D01*
X17974675Y-12703322D01*
X17973649Y-12705706D01*
X17972622Y-12708088D01*
X17971593Y-12710468D01*
X17970563Y-12712847D01*
X17969532Y-12715223D01*
X17968499Y-12717597D01*
X17967466Y-12719969D01*
X17966430Y-12722340D01*
X17965394Y-12724708D01*
X17964356Y-12727074D01*
X17963317Y-12729438D01*
X17962277Y-12731801D01*
X17961235Y-12734161D01*
X17960192Y-12736519D01*
X17959148Y-12738876D01*
X17958102Y-12741230D01*
X17957055Y-12743582D01*
X17956007Y-12745933D01*
X17954958Y-12748281D01*
X17953907Y-12750627D01*
X17952855Y-12752972D01*
X17951801Y-12755314D01*
X17950747Y-12757654D01*
X17949690Y-12759993D01*
X17948633Y-12762329D01*
X17947575Y-12764664D01*
X17946515Y-12766996D01*
X17945453Y-12769327D01*
X17944391Y-12771655D01*
X17943327Y-12773982D01*
X17942262Y-12776306D01*
X17941196Y-12778629D01*
X17940128Y-12780950D01*
X17939059Y-12783269D01*
X17937989Y-12785585D01*
X17936917Y-12787900D01*
X17935844Y-12790213D01*
X17934770Y-12792524D01*
X17933695Y-12794832D01*
X17932618Y-12797139D01*
X17931540Y-12799444D01*
X17930461Y-12801747D01*
X17929380Y-12804048D01*
X17927215Y-12808644D01*
X17925045Y-12813232D01*
X17922869Y-12817813D01*
X17920689Y-12822386D01*
X17918503Y-12826951D01*
X17916313Y-12831508D01*
X17914117Y-12836057D01*
X17911916Y-12840599D01*
X17909709Y-12845132D01*
X17907498Y-12849658D01*
X17905282Y-12854177D01*
X17903060Y-12858687D01*
X17900834Y-12863190D01*
X17898602Y-12867685D01*
X17896365Y-12872173D01*
X17894123Y-12876652D01*
X17891876Y-12881124D01*
X17889624Y-12885589D01*
X17887367Y-12890045D01*
X17885105Y-12894494D01*
X17882838Y-12898936D01*
X17880565Y-12903369D01*
X17878288Y-12907795D01*
X17876005Y-12912214D01*
X17873718Y-12916624D01*
X17871425Y-12921028D01*
X17869127Y-12925423D01*
X17866825Y-12929811D01*
X17864517Y-12934192D01*
X17862204Y-12938564D01*
X17859886Y-12942930D01*
X17857563Y-12947287D01*
X17855236Y-12951637D01*
X17852903Y-12955980D01*
X17850565Y-12960315D01*
X17848222Y-12964642D01*
X17845874Y-12968962D01*
X17843521Y-12973275D01*
X17841163Y-12977580D01*
X17838800Y-12981877D01*
X17836432Y-12986167D01*
X17834059Y-12990450D01*
X17831681Y-12994725D01*
X17829298Y-12998992D01*
X17826910Y-13003252D01*
X17824517Y-13007505D01*
X17822119Y-13011750D01*
X17819716Y-13015988D01*
X17817308Y-13020218D01*
X17814895Y-13024441D01*
X17812477Y-13028656D01*
X17810054Y-13032865D01*
X17807626Y-13037065D01*
X17805194Y-13041259D01*
X17802756Y-13045444D01*
X17800313Y-13049623D01*
X17797866Y-13053794D01*
X17795413Y-13057958D01*
X17792955Y-13062115D01*
X17790493Y-13066264D01*
X17788025Y-13070405D01*
X17785553Y-13074540D01*
X17783076Y-13078667D01*
X17780594Y-13082787D01*
X17778106Y-13086900D01*
X17775614Y-13091005D01*
X17773117Y-13095103D01*
X17770615Y-13099193D01*
X17768108Y-13103277D01*
X17765597Y-13107353D01*
X17763080Y-13111422D01*
X17760558Y-13115484D01*
X17758032Y-13119538D01*
X17755500Y-13123585D01*
X17752964Y-13127625D01*
X17750423Y-13131658D01*
X17747876Y-13135683D01*
X17745325Y-13139701D01*
X17742769Y-13143713D01*
X17740209Y-13147716D01*
X17737643Y-13151713D01*
X17735072Y-13155703D01*
X17732497Y-13159685D01*
X17729916Y-13163660D01*
X17727331Y-13167628D01*
X17724741Y-13171589D01*
X17722146Y-13175543D01*
X17719546Y-13179489D01*
X17716941Y-13183429D01*
X17714331Y-13187361D01*
X17711717Y-13191286D01*
X17709097Y-13195205D01*
X17706473Y-13199116D01*
X17703844Y-13203019D01*
X17701210Y-13206916D01*
X17698571Y-13210806D01*
X17695927Y-13214689D01*
X17693279Y-13218564D01*
X17690625Y-13222433D01*
X17687967Y-13226294D01*
X17685304Y-13230149D01*
X17682636Y-13233996D01*
X17679963Y-13237836D01*
X17677286Y-13241670D01*
X17674603Y-13245496D01*
X17671916Y-13249315D01*
X17669224Y-13253128D01*
X17666527Y-13256933D01*
X17663825Y-13260731D01*
X17661118Y-13264522D01*
X17658406Y-13268307D01*
X17655690Y-13272084D01*
X17652969Y-13275854D01*
X17650243Y-13279617D01*
X17647512Y-13283374D01*
X17644776Y-13287123D01*
X17642036Y-13290866D01*
X17639290Y-13294601D01*
X17636540Y-13298330D01*
X17633785Y-13302052D01*
X17631026Y-13305766D01*
X17628261Y-13309474D01*
X17625492Y-13313175D01*
X17622717Y-13316869D01*
X17619938Y-13320556D01*
X17617154Y-13324236D01*
X17614366Y-13327910D01*
X17611572Y-13331576D01*
X17608774Y-13335236D01*
X17605971Y-13338888D01*
X17603163Y-13342534D01*
X17600350Y-13346173D01*
X17597533Y-13349805D01*
X17594711Y-13353430D01*
X17591883Y-13357049D01*
X17589052Y-13360660D01*
X17586215Y-13364265D01*
X17583373Y-13367863D01*
X17580527Y-13371454D01*
X17577676Y-13375038D01*
X17574820Y-13378615D01*
X17571959Y-13382186D01*
X17569094Y-13385750D01*
X17566224Y-13389307D01*
X17563349Y-13392857D01*
X17560469Y-13396401D01*
X17557584Y-13399937D01*
X17554695Y-13403467D01*
X17551801Y-13406990D01*
X17548902Y-13410506D01*
X17545998Y-13414016D01*
X17543090Y-13417519D01*
X17540176Y-13421015D01*
X17537258Y-13424504D01*
X17534335Y-13427987D01*
X17531408Y-13431463D01*
X17528475Y-13434932D01*
X17525538Y-13438394D01*
X17522596Y-13441850D01*
X17519649Y-13445299D01*
X17516698Y-13448741D01*
X17513741Y-13452176D01*
X17510780Y-13455605D01*
X17507814Y-13459027D01*
X17504844Y-13462443D01*
X17501868Y-13465851D01*
X17498888Y-13469253D01*
X17495903Y-13472649D01*
X17492914Y-13476037D01*
X17489919Y-13479419D01*
X17486920Y-13482794D01*
X17483916Y-13486163D01*
X17480907Y-13489525D01*
X17477893Y-13492880D01*
X17474875Y-13496229D01*
X17471852Y-13499571D01*
X17468824Y-13502906D01*
X17465791Y-13506235D01*
X17462754Y-13509557D01*
X17459712Y-13512873D01*
X17456665Y-13516182D01*
X17453613Y-13519484D01*
X17450557Y-13522779D01*
X17447496Y-13526068D01*
X17444430Y-13529351D01*
X17441359Y-13532626D01*
X17438283Y-13535896D01*
X17435203Y-13539158D01*
X17432118Y-13542414D01*
X17429028Y-13545663D01*
X17425934Y-13548906D01*
X17422834Y-13552142D01*
X17419730Y-13555372D01*
X17416622Y-13558595D01*
X17413508Y-13561811D01*
X17410390Y-13565021D01*
X17407266Y-13568224D01*
X17404139Y-13571421D01*
X17401006Y-13574611D01*
X17397869Y-13577795D01*
X17394726Y-13580972D01*
X17391580Y-13584142D01*
X17388428Y-13587306D01*
X17385271Y-13590463D01*
X17382110Y-13593614D01*
X17378944Y-13596758D01*
X17375774Y-13599896D01*
X17372598Y-13603027D01*
X17369418Y-13606152D01*
X17366233Y-13609270D01*
X17363043Y-13612382D01*
X17359849Y-13615487D01*
X17356650Y-13618585D01*
X17353446Y-13621677D01*
X17350237Y-13624763D01*
X17347023Y-13627842D01*
X17343805Y-13630914D01*
X17340582Y-13633980D01*
X17337354Y-13637040D01*
X17334122Y-13640093D01*
X17330885Y-13643139D01*
X17327643Y-13646179D01*
X17324396Y-13649213D01*
X17321144Y-13652240D01*
X17317888Y-13655260D01*
X17314627Y-13658274D01*
X17311361Y-13661282D01*
X17308091Y-13664283D01*
X17304815Y-13667277D01*
X17301535Y-13670265D01*
X17298250Y-13673247D01*
X17294961Y-13676222D01*
X17291666Y-13679190D01*
X17288367Y-13682153D01*
X17285064Y-13685108D01*
X17281755Y-13688057D01*
X17278442Y-13691000D01*
X17275123Y-13693936D01*
X17271801Y-13696866D01*
X17268473Y-13699790D01*
X17265141Y-13702706D01*
X17261804Y-13705617D01*
X17258462Y-13708521D01*
X17255115Y-13711418D01*
X17251764Y-13714309D01*
X17248408Y-13717194D01*
X17245047Y-13720072D01*
X17241681Y-13722944D01*
X17238311Y-13725809D01*
X17234936Y-13728668D01*
X17231556Y-13731520D01*
X17228171Y-13734366D01*
X17224782Y-13737205D01*
X17221388Y-13740038D01*
X17217989Y-13742865D01*
X17214585Y-13745685D01*
X17211177Y-13748499D01*
X17207763Y-13751306D01*
X17204346Y-13754107D01*
X17200923Y-13756901D01*
X17197495Y-13759689D01*
X17194063Y-13762470D01*
X17190626Y-13765245D01*
X17187185Y-13768014D01*
X17183738Y-13770776D01*
X17180287Y-13773532D01*
X17176831Y-13776281D01*
X17173371Y-13779024D01*
X17169905Y-13781760D01*
X17166435Y-13784490D01*
X17162960Y-13787214D01*
X17159481Y-13789931D01*
X17155996Y-13792642D01*
X17152507Y-13795346D01*
X17149013Y-13798044D01*
X17145515Y-13800735D01*
X17142011Y-13803420D01*
X17138503Y-13806099D01*
X17134990Y-13808771D01*
X17131473Y-13811437D01*
X17127950Y-13814096D01*
X17124423Y-13816749D01*
X17120891Y-13819395D01*
X17117355Y-13822035D01*
X17113813Y-13824668D01*
X17110267Y-13827296D01*
X17106716Y-13829916D01*
X17103161Y-13832530D01*
X17099601Y-13835138D01*
X17096036Y-13837740D01*
X17092466Y-13840335D01*
X17088891Y-13842923D01*
X17085312Y-13845505D01*
X17081728Y-13848081D01*
X17078139Y-13850650D01*
X17074546Y-13853213D01*
X17070948Y-13855769D01*
X17067345Y-13858319D01*
X17063737Y-13860862D01*
X17060125Y-13863399D01*
X17056508Y-13865930D01*
X17052886Y-13868454D01*
X17049259Y-13870971D01*
X17045628Y-13873483D01*
X17041992Y-13875987D01*
X17038351Y-13878486D01*
X17034706Y-13880977D01*
X17031055Y-13883463D01*
X17027400Y-13885942D01*
X17023741Y-13888414D01*
X17020076Y-13890880D01*
X17016407Y-13893340D01*
X17012734Y-13895793D01*
X17009055Y-13898240D01*
X17005372Y-13900680D01*
X17001684Y-13903114D01*
X16997991Y-13905541D01*
X16994294Y-13907962D01*
X16990592Y-13910376D01*
X16986885Y-13912784D01*
X16983173Y-13915185D01*
X16979457Y-13917580D01*
X16975736Y-13919969D01*
X16972011Y-13922351D01*
X16968280Y-13924726D01*
X16964545Y-13927095D01*
X16960806Y-13929458D01*
X16957061Y-13931814D01*
X16953312Y-13934164D01*
X16949559Y-13936507D01*
X16945800Y-13938843D01*
X16942037Y-13941173D01*
X16938269Y-13943497D01*
X16934497Y-13945814D01*
X16930719Y-13948125D01*
X16926938Y-13950429D01*
X16923151Y-13952726D01*
X16919360Y-13955017D01*
X16915564Y-13957302D01*
X16911764Y-13959580D01*
X16907958Y-13961851D01*
X16904148Y-13964116D01*
X16900334Y-13966375D01*
X16896515Y-13968627D01*
X16892691Y-13970872D01*
X16888862Y-13973111D01*
X16885029Y-13975343D01*
X16881192Y-13977569D01*
X16877349Y-13979788D01*
X16873502Y-13982001D01*
X16869650Y-13984207D01*
X16865794Y-13986407D01*
X16861933Y-13988600D01*
X16858068Y-13990786D01*
X16854197Y-13992966D01*
X16850323Y-13995140D01*
X16846443Y-13997306D01*
X16842559Y-13999466D01*
X16838671Y-14001620D01*
X16834777Y-14003767D01*
X16830879Y-14005908D01*
X16826977Y-14008041D01*
X16823070Y-14010169D01*
X16819158Y-14012289D01*
X16815242Y-14014403D01*
X16811321Y-14016511D01*
X16807396Y-14018612D01*
X16803466Y-14020706D01*
X16799532Y-14022793D01*
X16795593Y-14024874D01*
X16791649Y-14026949D01*
X16787701Y-14029016D01*
X16783748Y-14031078D01*
X16779791Y-14033132D01*
X16775829Y-14035180D01*
X16771863Y-14037221D01*
X16767892Y-14039255D01*
X16763917Y-14041283D01*
X16759937Y-14043304D01*
X16755952Y-14045319D01*
X16751964Y-14047327D01*
X16747970Y-14049328D01*
X16743972Y-14051322D01*
X16739970Y-14053310D01*
X16735963Y-14055291D01*
X16731952Y-14057265D01*
X16727936Y-14059233D01*
X16723916Y-14061194D01*
X16719891Y-14063148D01*
X16715862Y-14065096D01*
X16711828Y-14067037D01*
X16707791Y-14068971D01*
X16703748Y-14070898D01*
X16699701Y-14072819D01*
X16695650Y-14074732D01*
X16691594Y-14076639D01*
X16687534Y-14078540D01*
X16683470Y-14080433D01*
X16679401Y-14082320D01*
X16675328Y-14084200D01*
X16671250Y-14086073D01*
X16667168Y-14087940D01*
X16663082Y-14089799D01*
X16658992Y-14091652D01*
X16654897Y-14093498D01*
X16650797Y-14095337D01*
X16646694Y-14097170D01*
X16642586Y-14098995D01*
X16638474Y-14100814D01*
X16634357Y-14102626D01*
X16630237Y-14104431D01*
X16626112Y-14106229D01*
X16621982Y-14108021D01*
X16617849Y-14109805D01*
X16613711Y-14111583D01*
X16609569Y-14113354D01*
X16605423Y-14115117D01*
X16601273Y-14116874D01*
X16597118Y-14118624D01*
X16592960Y-14120368D01*
X16588797Y-14122104D01*
X16584630Y-14123833D01*
X16580458Y-14125556D01*
X16576283Y-14127271D01*
X16572104Y-14128980D01*
X16567920Y-14130681D01*
X16563732Y-14132376D01*
X16559541Y-14134063D01*
X16555345Y-14135744D01*
X16551145Y-14137418D01*
X16546941Y-14139085D01*
X16542733Y-14140744D01*
X16538521Y-14142397D01*
X16534305Y-14144043D01*
X16530085Y-14145682D01*
X16525861Y-14147313D01*
X16521633Y-14148938D01*
X16517401Y-14150556D01*
X16513166Y-14152166D01*
X16508926Y-14153770D01*
X16504682Y-14155366D01*
X16500435Y-14156956D01*
X16496183Y-14158538D01*
X16491928Y-14160113D01*
X16487669Y-14161681D01*
X16483406Y-14163242D01*
X16479140Y-14164796D01*
X16474869Y-14166343D01*
X16470595Y-14167883D01*
X16466317Y-14169415D01*
X16462035Y-14170941D01*
X16457750Y-14172459D01*
X16453461Y-14173970D01*
X16449168Y-14175474D01*
X16444872Y-14176971D01*
X16440572Y-14178460D01*
X16436268Y-14179943D01*
X16431961Y-14181418D01*
X16427650Y-14182886D01*
X16423336Y-14184346D01*
X16419018Y-14185800D01*
X16414696Y-14187246D01*
X16410371Y-14188685D01*
X16406043Y-14190117D01*
X16401711Y-14191541D01*
X16397376Y-14192958D01*
X16393037Y-14194368D01*
X16388696Y-14195771D01*
X16384350Y-14197166D01*
X16380002Y-14198554D01*
X16375650Y-14199935D01*
X16371294Y-14201308D01*
X16366936Y-14202674D01*
X16362574Y-14204033D01*
X16358210Y-14205384D01*
X16353842Y-14206728D01*
X16349470Y-14208064D01*
X16345096Y-14209393D01*
X16340719Y-14210715D01*
X16336339Y-14212029D01*
X16331955Y-14213336D01*
X16327569Y-14214635D01*
X16323179Y-14215927D01*
X16318787Y-14217212D01*
X16314392Y-14218489D01*
X16309994Y-14219758D01*
X16305593Y-14221020D01*
X16301190Y-14222275D01*
X16296783Y-14223522D01*
X16292374Y-14224761D01*
X16287962Y-14225993D01*
X16283548Y-14227218D01*
X16279131Y-14228435D01*
X16274711Y-14229644D01*
X16270289Y-14230846D01*
X16265864Y-14232040D01*
X16261436Y-14233227D01*
X16257007Y-14234406D01*
X16252575Y-14235577D01*
X16248140Y-14236741D01*
X16243703Y-14237897D01*
X16239264Y-14239045D01*
X16234823Y-14240186D01*
X16230380Y-14241319D01*
X16225934Y-14242444D01*
X16221486Y-14243562D01*
X16217037Y-14244672D01*
X16212585Y-14245774D01*
X16208131Y-14246869D01*
X16203676Y-14247956D01*
X16199218Y-14249035D01*
X16194759Y-14250106D01*
X16190298Y-14251170D01*
X16185835Y-14252225D01*
X16181370Y-14253273D01*
X16176904Y-14254313D01*
X16172436Y-14255346D01*
X16167967Y-14256370D01*
X16163497Y-14257387D01*
X16159025Y-14258395D01*
X16154551Y-14259396D01*
X16150077Y-14260389D01*
X16145601Y-14261374D01*
X16141124Y-14262351D01*
X16136646Y-14263321D01*
X16132167Y-14264282D01*
X16127687Y-14265235D01*
X16123206Y-14266181D01*
X16118724Y-14267118D01*
X16114241Y-14268048D01*
X16109758Y-14268969D01*
X16105274Y-14269883D01*
X16100789Y-14270788D01*
X16096304Y-14271685D01*
X16091819Y-14272575D01*
X16087333Y-14273456D01*
X16082847Y-14274329D01*
X16078361Y-14275194D01*
X16073875Y-14276052D01*
X16069389Y-14276900D01*
X16064902Y-14277741D01*
X16060416Y-14278574D01*
X16055930Y-14279399D01*
X16051445Y-14280215D01*
X16046960Y-14281023D01*
X16042475Y-14281823D01*
X16037991Y-14282615D01*
X16033508Y-14283399D01*
X16029025Y-14284174D01*
X16024543Y-14284941D01*
X16020063Y-14285700D01*
X16015583Y-14286451D01*
X16011105Y-14287193D01*
X16006628Y-14287927D01*
X16002152Y-14288653D01*
X15997678Y-14289370D01*
X15993205Y-14290079D01*
X15988734Y-14290780D01*
X15984265Y-14291473D01*
X15979798Y-14292157D01*
X15975334Y-14292832D01*
X15970871Y-14293500D01*
X15966411Y-14294159D01*
X15961953Y-14294809D01*
X15957498Y-14295451D01*
X15953045Y-14296085D01*
X15948596Y-14296710D01*
X15944150Y-14297327D01*
X15939707Y-14297935D01*
X15935267Y-14298535D01*
X15930831Y-14299126D01*
X15926398Y-14299709D01*
X15921969Y-14300283D01*
X15917544Y-14300849D01*
X15913124Y-14301406D01*
X15908708Y-14301954D01*
X15904296Y-14302494D01*
X15899889Y-14303026D01*
X15895487Y-14303549D01*
X15891090Y-14304063D01*
X15886698Y-14304568D01*
X15882312Y-14305065D01*
X15877931Y-14305554D01*
X15873557Y-14306033D01*
X15869188Y-14306504D01*
X15864826Y-14306966D01*
X15860470Y-14307420D01*
X15856122Y-14307865D01*
X15851780Y-14308301D01*
X15847445Y-14308729D01*
X15843119Y-14309148D01*
X15838800Y-14309558D01*
X15834489Y-14309959D01*
X15830186Y-14310352D01*
X15825892Y-14310735D01*
X15821607Y-14311110D01*
X15817332Y-14311477D01*
X15813066Y-14311834D01*
X15808809Y-14312183D01*
X15804563Y-14312523D01*
X15800328Y-14312854D01*
X15796103Y-14313176D01*
X15791890Y-14313490D01*
X15787689Y-14313795D01*
X15783499Y-14314091D01*
X15779322Y-14314378D01*
X15775158Y-14314656D01*
X15771007Y-14314926D01*
X15766870Y-14315186D01*
X15762747Y-14315438D01*
X15758638Y-14315681D01*
X15754545Y-14315915D01*
X15750467Y-14316141D01*
X15746406Y-14316358D01*
X15742361Y-14316565D01*
X15738333Y-14316765D01*
X15734323Y-14316955D01*
X15730331Y-14317137D01*
X15726358Y-14317309D01*
X15722404Y-14317474D01*
X15718471Y-14317629D01*
X15714558Y-14317776D01*
X15710666Y-14317914D01*
X15706797Y-14318044D01*
X15702949Y-14318165D01*
X15699124Y-14318277D01*
X15695323Y-14318381D01*
X15691545Y-14318476D01*
X15687792Y-14318563D01*
X15684062Y-14318642D01*
X15680355Y-14318713D01*
X15676671Y-14318775D01*
X15673009Y-14318830D01*
X15669365Y-14318876D01*
X15665734Y-14318915D01*
X15662109Y-14318946D01*
X15658474Y-14318969D01*
X15654803Y-14318986D01*
X15651035Y-14318996D01*
X15647009Y-14319000D01*
X15644600Y-14319000D01*
X15434600Y-14319000D02*
X15644600Y-14319000D01*
X11324600Y-10719000D02*
X11324481Y-10722971D01*
X11324364Y-10726938D01*
X11324249Y-10730903D01*
X11324136Y-10734865D01*
X11324026Y-10738823D01*
X11323917Y-10742779D01*
X11323810Y-10746731D01*
X11323706Y-10750681D01*
X11323604Y-10754627D01*
X11323503Y-10758570D01*
X11323405Y-10762510D01*
X11323309Y-10766448D01*
X11323215Y-10770382D01*
X11323123Y-10774313D01*
X11323033Y-10778241D01*
X11322945Y-10782166D01*
X11322860Y-10786088D01*
X11322776Y-10790007D01*
X11322694Y-10793923D01*
X11322615Y-10797836D01*
X11322537Y-10801746D01*
X11322462Y-10805653D01*
X11322388Y-10809557D01*
X11322317Y-10813458D01*
X11322248Y-10817356D01*
X11322180Y-10821251D01*
X11322115Y-10825143D01*
X11322052Y-10829032D01*
X11321991Y-10832918D01*
X11321932Y-10836801D01*
X11321875Y-10840680D01*
X11321820Y-10844557D01*
X11321767Y-10848431D01*
X11321716Y-10852302D01*
X11321667Y-10856170D01*
X11321621Y-10860035D01*
X11321576Y-10863897D01*
X11321533Y-10867756D01*
X11321492Y-10871611D01*
X11321454Y-10875464D01*
X11321417Y-10879314D01*
X11321383Y-10883161D01*
X11321350Y-10887005D01*
X11321319Y-10890846D01*
X11321291Y-10894684D01*
X11321264Y-10898519D01*
X11321240Y-10902351D01*
X11321217Y-10906181D01*
X11321197Y-10910007D01*
X11321179Y-10913830D01*
X11321162Y-10917650D01*
X11321148Y-10921467D01*
X11321135Y-10925281D01*
X11321125Y-10929093D01*
X11321117Y-10932901D01*
X11321110Y-10936706D01*
X11321106Y-10940509D01*
X11321104Y-10944308D01*
X11321103Y-10948105D01*
X11321105Y-10951898D01*
X11321108Y-10955689D01*
X11321114Y-10959477D01*
X11321122Y-10963261D01*
X11321131Y-10967043D01*
X11321143Y-10970822D01*
X11321156Y-10974598D01*
X11321172Y-10978371D01*
X11321190Y-10982141D01*
X11321209Y-10985908D01*
X11321231Y-10989672D01*
X11321254Y-10993433D01*
X11321280Y-10997191D01*
X11321307Y-11000947D01*
X11321337Y-11004699D01*
X11321368Y-11008448D01*
X11321402Y-11012195D01*
X11321437Y-11015939D01*
X11321474Y-11019679D01*
X11321514Y-11023417D01*
X11321555Y-11027152D01*
X11321598Y-11030884D01*
X11321643Y-11034613D01*
X11321691Y-11038339D01*
X11321740Y-11042063D01*
X11321791Y-11045783D01*
X11321844Y-11049500D01*
X11321899Y-11053215D01*
X11321956Y-11056926D01*
X11322015Y-11060635D01*
X11322076Y-11064341D01*
X11322139Y-11068044D01*
X11322204Y-11071744D01*
X11322270Y-11075441D01*
X11322339Y-11079135D01*
X11322410Y-11082826D01*
X11322482Y-11086515D01*
X11322557Y-11090201D01*
X11322633Y-11093883D01*
X11322712Y-11097563D01*
X11322792Y-11101240D01*
X11322874Y-11104914D01*
X11322959Y-11108585D01*
X11323045Y-11112253D01*
X11323133Y-11115919D01*
X11323223Y-11119581D01*
X11323315Y-11123241D01*
X11323409Y-11126898D01*
X11323505Y-11130552D01*
X11323602Y-11134203D01*
X11323702Y-11137851D01*
X11323804Y-11141496D01*
X11323907Y-11145139D01*
X11324012Y-11148778D01*
X11324120Y-11152415D01*
X11324229Y-11156049D01*
X11324340Y-11159680D01*
X11324453Y-11163308D01*
X11324568Y-11166934D01*
X11324685Y-11170556D01*
X11324804Y-11174176D01*
X11324925Y-11177793D01*
X11325047Y-11181407D01*
X11325172Y-11185018D01*
X11325298Y-11188626D01*
X11325427Y-11192231D01*
X11325557Y-11195834D01*
X11325689Y-11199434D01*
X11325823Y-11203031D01*
X11325959Y-11206625D01*
X11326097Y-11210216D01*
X11326236Y-11213805D01*
X11326378Y-11217390D01*
X11326522Y-11220973D01*
X11326667Y-11224553D01*
X11326814Y-11228130D01*
X11326963Y-11231705D01*
X11327114Y-11235276D01*
X11327267Y-11238845D01*
X11327422Y-11242411D01*
X11327579Y-11245974D01*
X11327737Y-11249534D01*
X11327898Y-11253091D01*
X11328060Y-11256646D01*
X11328224Y-11260198D01*
X11328390Y-11263747D01*
X11328558Y-11267293D01*
X11328728Y-11270837D01*
X11328900Y-11274377D01*
X11329073Y-11277915D01*
X11329248Y-11281450D01*
X11329426Y-11284982D01*
X11329605Y-11288512D01*
X11329786Y-11292039D01*
X11329969Y-11295563D01*
X11330153Y-11299084D01*
X11330340Y-11302602D01*
X11330528Y-11306118D01*
X11330718Y-11309630D01*
X11330911Y-11313140D01*
X11331105Y-11316647D01*
X11331300Y-11320152D01*
X11331498Y-11323654D01*
X11331697Y-11327152D01*
X11331899Y-11330649D01*
X11332102Y-11334142D01*
X11332307Y-11337632D01*
X11332514Y-11341120D01*
X11332723Y-11344605D01*
X11332933Y-11348088D01*
X11333145Y-11351567D01*
X11333360Y-11355044D01*
X11333576Y-11358518D01*
X11333794Y-11361989D01*
X11334013Y-11365458D01*
X11334235Y-11368923D01*
X11334458Y-11372386D01*
X11334683Y-11375847D01*
X11334910Y-11379304D01*
X11335139Y-11382759D01*
X11335370Y-11386211D01*
X11335602Y-11389660D01*
X11335837Y-11393107D01*
X11336073Y-11396550D01*
X11336311Y-11399992D01*
X11336550Y-11403430D01*
X11336792Y-11406865D01*
X11337035Y-11410298D01*
X11337281Y-11413728D01*
X11337528Y-11417156D01*
X11337776Y-11420580D01*
X11338027Y-11424002D01*
X11338279Y-11427422D01*
X11338534Y-11430838D01*
X11338790Y-11434252D01*
X11339047Y-11437663D01*
X11339307Y-11441071D01*
X11339568Y-11444477D01*
X11339832Y-11447880D01*
X11340097Y-11451280D01*
X11340364Y-11454678D01*
X11340632Y-11458072D01*
X11340903Y-11461464D01*
X11341175Y-11464854D01*
X11341449Y-11468241D01*
X11341724Y-11471624D01*
X11342002Y-11475006D01*
X11342281Y-11478384D01*
X11342562Y-11481760D01*
X11342845Y-11485133D01*
X11343130Y-11488504D01*
X11343416Y-11491872D01*
X11343705Y-11495237D01*
X11343995Y-11498599D01*
X11344286Y-11501959D01*
X11344580Y-11505316D01*
X11344875Y-11508670D01*
X11345172Y-11512022D01*
X11345471Y-11515371D01*
X11345772Y-11518718D01*
X11346074Y-11522061D01*
X11346378Y-11525402D01*
X11346684Y-11528741D01*
X11346992Y-11532076D01*
X11347302Y-11535409D01*
X11347613Y-11538739D01*
X11347926Y-11542067D01*
X11348240Y-11545392D01*
X11348557Y-11548714D01*
X11348875Y-11552034D01*
X11349195Y-11555351D01*
X11349517Y-11558665D01*
X11349840Y-11561977D01*
X11350166Y-11565286D01*
X11350493Y-11568593D01*
X11350821Y-11571896D01*
X11351152Y-11575197D01*
X11351484Y-11578496D01*
X11351818Y-11581792D01*
X11352154Y-11585085D01*
X11352491Y-11588375D01*
X11352831Y-11591663D01*
X11353171Y-11594948D01*
X11353514Y-11598231D01*
X11353859Y-11601511D01*
X11354205Y-11604788D01*
X11354553Y-11608063D01*
X11354902Y-11611335D01*
X11355253Y-11614604D01*
X11355607Y-11617871D01*
X11355961Y-11621135D01*
X11356318Y-11624397D01*
X11356676Y-11627656D01*
X11357036Y-11630912D01*
X11357398Y-11634166D01*
X11357761Y-11637417D01*
X11358126Y-11640665D01*
X11358493Y-11643911D01*
X11358862Y-11647154D01*
X11359232Y-11650395D01*
X11359604Y-11653633D01*
X11359978Y-11656868D01*
X11360353Y-11660101D01*
X11360730Y-11663331D01*
X11361109Y-11666559D01*
X11361490Y-11669784D01*
X11361872Y-11673006D01*
X11362256Y-11676226D01*
X11362641Y-11679443D01*
X11363029Y-11682658D01*
X11363418Y-11685870D01*
X11363809Y-11689080D01*
X11364201Y-11692286D01*
X11364595Y-11695491D01*
X11364991Y-11698692D01*
X11365389Y-11701891D01*
X11365788Y-11705088D01*
X11366189Y-11708282D01*
X11366591Y-11711473D01*
X11366996Y-11714662D01*
X11367402Y-11717848D01*
X11367809Y-11721032D01*
X11368219Y-11724213D01*
X11368630Y-11727391D01*
X11369043Y-11730567D01*
X11369457Y-11733740D01*
X11369873Y-11736911D01*
X11370291Y-11740079D01*
X11370710Y-11743245D01*
X11371132Y-11746408D01*
X11371554Y-11749569D01*
X11371979Y-11752727D01*
X11372405Y-11755882D01*
X11372833Y-11759035D01*
X11373262Y-11762185D01*
X11373694Y-11765333D01*
X11374127Y-11768478D01*
X11374561Y-11771621D01*
X11374997Y-11774761D01*
X11375435Y-11777898D01*
X11375875Y-11781033D01*
X11376316Y-11784166D01*
X11376759Y-11787296D01*
X11377203Y-11790423D01*
X11377649Y-11793548D01*
X11378097Y-11796670D01*
X11378547Y-11799790D01*
X11378998Y-11802907D01*
X11379450Y-11806022D01*
X11379905Y-11809134D01*
X11380361Y-11812244D01*
X11380819Y-11815351D01*
X11381278Y-11818456D01*
X11381739Y-11821558D01*
X11382202Y-11824658D01*
X11382666Y-11827755D01*
X11383132Y-11830849D01*
X11383600Y-11833941D01*
X11384069Y-11837031D01*
X11384540Y-11840118D01*
X11385012Y-11843202D01*
X11385487Y-11846284D01*
X11385962Y-11849364D01*
X11386440Y-11852441D01*
X11386919Y-11855515D01*
X11387400Y-11858587D01*
X11387882Y-11861657D01*
X11388366Y-11864724D01*
X11388852Y-11867788D01*
X11389339Y-11870850D01*
X11389828Y-11873909D01*
X11390318Y-11876966D01*
X11390810Y-11880021D01*
X11391304Y-11883073D01*
X11391799Y-11886123D01*
X11392296Y-11889170D01*
X11392795Y-11892214D01*
X11393295Y-11895256D01*
X11393797Y-11898296D01*
X11394301Y-11901333D01*
X11394806Y-11904367D01*
X11395312Y-11907400D01*
X11395821Y-11910429D01*
X11396331Y-11913457D01*
X11396842Y-11916481D01*
X11397355Y-11919504D01*
X11397870Y-11922523D01*
X11398386Y-11925541D01*
X11398904Y-11928556D01*
X11399424Y-11931568D01*
X11399945Y-11934578D01*
X11400468Y-11937585D01*
X11400992Y-11940590D01*
X11401518Y-11943593D01*
X11402046Y-11946593D01*
X11402575Y-11949591D01*
X11403106Y-11952586D01*
X11403638Y-11955579D01*
X11404172Y-11958569D01*
X11404707Y-11961557D01*
X11405245Y-11964542D01*
X11405783Y-11967525D01*
X11406324Y-11970506D01*
X11406866Y-11973484D01*
X11407409Y-11976459D01*
X11407954Y-11979433D01*
X11408501Y-11982403D01*
X11409049Y-11985372D01*
X11409599Y-11988338D01*
X11410150Y-11991301D01*
X11410703Y-11994262D01*
X11411258Y-11997221D01*
X11411814Y-12000177D01*
X11412372Y-12003131D01*
X11412931Y-12006082D01*
X11413492Y-12009031D01*
X11414055Y-12011977D01*
X11414619Y-12014921D01*
X11415184Y-12017863D01*
X11415751Y-12020802D01*
X11416320Y-12023739D01*
X11416891Y-12026673D01*
X11417462Y-12029605D01*
X11418036Y-12032535D01*
X11418611Y-12035462D01*
X11419188Y-12038387D01*
X11419766Y-12041309D01*
X11420345Y-12044229D01*
X11420927Y-12047147D01*
X11421510Y-12050062D01*
X11422094Y-12052975D01*
X11422680Y-12055885D01*
X11423267Y-12058793D01*
X11423857Y-12061699D01*
X11424447Y-12064602D01*
X11425039Y-12067503D01*
X11425633Y-12070401D01*
X11426228Y-12073297D01*
X11426825Y-12076191D01*
X11427424Y-12079082D01*
X11428024Y-12081971D01*
X11428625Y-12084857D01*
X11429228Y-12087741D01*
X11429833Y-12090623D01*
X11430439Y-12093502D01*
X11431046Y-12096379D01*
X11431656Y-12099254D01*
X11432266Y-12102126D01*
X11432879Y-12104996D01*
X11433492Y-12107863D01*
X11434108Y-12110728D01*
X11434725Y-12113591D01*
X11435343Y-12116452D01*
X11435963Y-12119310D01*
X11436585Y-12122165D01*
X11437208Y-12125019D01*
X11437832Y-12127869D01*
X11438458Y-12130718D01*
X11439086Y-12133564D01*
X11439715Y-12136408D01*
X11440346Y-12139250D01*
X11440978Y-12142089D01*
X11441612Y-12144926D01*
X11442247Y-12147760D01*
X11442884Y-12150592D01*
X11443522Y-12153422D01*
X11444162Y-12156249D01*
X11444803Y-12159075D01*
X11445446Y-12161897D01*
X11446090Y-12164718D01*
X11446736Y-12167536D01*
X11447384Y-12170352D01*
X11448033Y-12173165D01*
X11448683Y-12175976D01*
X11449335Y-12178785D01*
X11449988Y-12181591D01*
X11450643Y-12184395D01*
X11451300Y-12187197D01*
X11451958Y-12189997D01*
X11452617Y-12192794D01*
X11453278Y-12195588D01*
X11453941Y-12198381D01*
X11454605Y-12201171D01*
X11455270Y-12203959D01*
X11455937Y-12206744D01*
X11456606Y-12209528D01*
X11457276Y-12212309D01*
X11457948Y-12215087D01*
X11458621Y-12217863D01*
X11459295Y-12220637D01*
X11459971Y-12223409D01*
X11460649Y-12226179D01*
X11461328Y-12228946D01*
X11462008Y-12231710D01*
X11462690Y-12234473D01*
X11463374Y-12237233D01*
X11464059Y-12239991D01*
X11464745Y-12242746D01*
X11465433Y-12245500D01*
X11466122Y-12248251D01*
X11466813Y-12250999D01*
X11467506Y-12253746D01*
X11468200Y-12256490D01*
X11468895Y-12259232D01*
X11469592Y-12261971D01*
X11470290Y-12264708D01*
X11470990Y-12267443D01*
X11471691Y-12270176D01*
X11472394Y-12272907D01*
X11473098Y-12275635D01*
X11473804Y-12278361D01*
X11474511Y-12281084D01*
X11475220Y-12283805D01*
X11475930Y-12286525D01*
X11476642Y-12289241D01*
X11477355Y-12291956D01*
X11478070Y-12294668D01*
X11478786Y-12297378D01*
X11479503Y-12300086D01*
X11480222Y-12302791D01*
X11480943Y-12305494D01*
X11481665Y-12308195D01*
X11482388Y-12310894D01*
X11483113Y-12313590D01*
X11483839Y-12316284D01*
X11484567Y-12318976D01*
X11485296Y-12321666D01*
X11486027Y-12324354D01*
X11486759Y-12327039D01*
X11487493Y-12329722D01*
X11488228Y-12332402D01*
X11488964Y-12335081D01*
X11489702Y-12337757D01*
X11490442Y-12340431D01*
X11491183Y-12343102D01*
X11491925Y-12345772D01*
X11492669Y-12348439D01*
X11493414Y-12351104D01*
X11494161Y-12353767D01*
X11494909Y-12356427D01*
X11495659Y-12359086D01*
X11496410Y-12361742D01*
X11497162Y-12364395D01*
X11497916Y-12367047D01*
X11498672Y-12369696D01*
X11499429Y-12372344D01*
X11500187Y-12374988D01*
X11500947Y-12377631D01*
X11501708Y-12380272D01*
X11502470Y-12382910D01*
X11503234Y-12385546D01*
X11504000Y-12388180D01*
X11504767Y-12390811D01*
X11505535Y-12393441D01*
X11506305Y-12396068D01*
X11507076Y-12398693D01*
X11507849Y-12401316D01*
X11508623Y-12403936D01*
X11509399Y-12406555D01*
X11510176Y-12409171D01*
X11510954Y-12411785D01*
X11511734Y-12414397D01*
X11512515Y-12417006D01*
X11513298Y-12419614D01*
X11514082Y-12422219D01*
X11514868Y-12424822D01*
X11515655Y-12427422D01*
X11516443Y-12430021D01*
X11517233Y-12432617D01*
X11518024Y-12435212D01*
X11518817Y-12437804D01*
X11519611Y-12440394D01*
X11520406Y-12442981D01*
X11521203Y-12445567D01*
X11522002Y-12448150D01*
X11522802Y-12450731D01*
X11523603Y-12453310D01*
X11524405Y-12455887D01*
X11525209Y-12458461D01*
X11526015Y-12461034D01*
X11526822Y-12463604D01*
X11527630Y-12466172D01*
X11528440Y-12468738D01*
X11529251Y-12471302D01*
X11530063Y-12473863D01*
X11530877Y-12476422D01*
X11531693Y-12478980D01*
X11532509Y-12481535D01*
X11533328Y-12484088D01*
X11534147Y-12486638D01*
X11534968Y-12489187D01*
X11535790Y-12491733D01*
X11536614Y-12494278D01*
X11537439Y-12496820D01*
X11538266Y-12499360D01*
X11539094Y-12501897D01*
X11539923Y-12504433D01*
X11540754Y-12506967D01*
X11541586Y-12509498D01*
X11542420Y-12512027D01*
X11543255Y-12514554D01*
X11544091Y-12517079D01*
X11544929Y-12519602D01*
X11545768Y-12522123D01*
X11546609Y-12524641D01*
X11547451Y-12527157D01*
X11548294Y-12529672D01*
X11549139Y-12532184D01*
X11549985Y-12534694D01*
X11550833Y-12537201D01*
X11551681Y-12539707D01*
X11552532Y-12542211D01*
X11553383Y-12544712D01*
X11554237Y-12547211D01*
X11555091Y-12549709D01*
X11555947Y-12552204D01*
X11556804Y-12554697D01*
X11557663Y-12557187D01*
X11558523Y-12559676D01*
X11559384Y-12562163D01*
X11560247Y-12564647D01*
X11561111Y-12567130D01*
X11561977Y-12569610D01*
X11562844Y-12572088D01*
X11563712Y-12574564D01*
X11564581Y-12577038D01*
X11565452Y-12579509D01*
X11566325Y-12581979D01*
X11567199Y-12584447D01*
X11568074Y-12586912D01*
X11568950Y-12589376D01*
X11569828Y-12591837D01*
X11570708Y-12594296D01*
X11571588Y-12596753D01*
X11572470Y-12599208D01*
X11573354Y-12601661D01*
X11574239Y-12604112D01*
X11575125Y-12606561D01*
X11576012Y-12609007D01*
X11576901Y-12611452D01*
X11577792Y-12613894D01*
X11578683Y-12616334D01*
X11579576Y-12618773D01*
X11580471Y-12621209D01*
X11581366Y-12623643D01*
X11582263Y-12626075D01*
X11583162Y-12628505D01*
X11584062Y-12630933D01*
X11584963Y-12633358D01*
X11585865Y-12635782D01*
X11586769Y-12638204D01*
X11587675Y-12640623D01*
X11588581Y-12643040D01*
X11589489Y-12645456D01*
X11590398Y-12647869D01*
X11591309Y-12650281D01*
X11592221Y-12652690D01*
X11593135Y-12655097D01*
X11594049Y-12657502D01*
X11594965Y-12659905D01*
X11595883Y-12662306D01*
X11596802Y-12664705D01*
X11597722Y-12667101D01*
X11598643Y-12669496D01*
X11599566Y-12671889D01*
X11600491Y-12674279D01*
X11601416Y-12676668D01*
X11602343Y-12679055D01*
X11603271Y-12681439D01*
X11604201Y-12683821D01*
X11605132Y-12686202D01*
X11606064Y-12688580D01*
X11606998Y-12690956D01*
X11607933Y-12693331D01*
X11608869Y-12695703D01*
X11609807Y-12698073D01*
X11610746Y-12700441D01*
X11611686Y-12702807D01*
X11612628Y-12705171D01*
X11613571Y-12707533D01*
X11614515Y-12709893D01*
X11615461Y-12712251D01*
X11616408Y-12714607D01*
X11617357Y-12716961D01*
X11618306Y-12719313D01*
X11619257Y-12721663D01*
X11620210Y-12724010D01*
X11621164Y-12726356D01*
X11622119Y-12728700D01*
X11623075Y-12731042D01*
X11624033Y-12733381D01*
X11624992Y-12735719D01*
X11625952Y-12738054D01*
X11626914Y-12740388D01*
X11627877Y-12742720D01*
X11628842Y-12745049D01*
X11629807Y-12747377D01*
X11630774Y-12749702D01*
X11631743Y-12752026D01*
X11632713Y-12754348D01*
X11633684Y-12756667D01*
X11634656Y-12758985D01*
X11635630Y-12761300D01*
X11636605Y-12763614D01*
X11637581Y-12765925D01*
X11638559Y-12768235D01*
X11639538Y-12770542D01*
X11640518Y-12772848D01*
X11641500Y-12775151D01*
X11642483Y-12777453D01*
X11643467Y-12779752D01*
X11644453Y-12782050D01*
X11645439Y-12784345D01*
X11646428Y-12786639D01*
X11647417Y-12788930D01*
X11648408Y-12791220D01*
X11649400Y-12793507D01*
X11650394Y-12795793D01*
X11651389Y-12798076D01*
X11652385Y-12800358D01*
X11653382Y-12802638D01*
X11654381Y-12804915D01*
X11655381Y-12807191D01*
X11656383Y-12809465D01*
X11657385Y-12811736D01*
X11658389Y-12814006D01*
X11659395Y-12816274D01*
X11660401Y-12818540D01*
X11661409Y-12820803D01*
X11662419Y-12823065D01*
X11663429Y-12825325D01*
X11664441Y-12827583D01*
X11665454Y-12829839D01*
X11666469Y-12832093D01*
X11667485Y-12834345D01*
X11668502Y-12836595D01*
X11669520Y-12838843D01*
X11670540Y-12841089D01*
X11671561Y-12843333D01*
X11672583Y-12845575D01*
X11673607Y-12847815D01*
X11674632Y-12850054D01*
X11675658Y-12852290D01*
X11676686Y-12854524D01*
X11677715Y-12856757D01*
X11678745Y-12858987D01*
X11679776Y-12861216D01*
X11680809Y-12863442D01*
X11681843Y-12865667D01*
X11682879Y-12867890D01*
X11683915Y-12870110D01*
X11684953Y-12872329D01*
X11685992Y-12874546D01*
X11687033Y-12876761D01*
X11688075Y-12878973D01*
X11689118Y-12881185D01*
X11690162Y-12883393D01*
X11691208Y-12885601D01*
X11692255Y-12887806D01*
X11693304Y-12890009D01*
X11694353Y-12892210D01*
X11695404Y-12894410D01*
X11696456Y-12896607D01*
X11697510Y-12898803D01*
X11698565Y-12900996D01*
X11699621Y-12903188D01*
X11700678Y-12905378D01*
X11701737Y-12907566D01*
X11702797Y-12909751D01*
X11703858Y-12911935D01*
X11704920Y-12914117D01*
X11705984Y-12916297D01*
X11707049Y-12918476D01*
X11708116Y-12920652D01*
X11709183Y-12922826D01*
X11710252Y-12924999D01*
X11711323Y-12927169D01*
X11712394Y-12929338D01*
X11713467Y-12931504D01*
X11714541Y-12933669D01*
X11715617Y-12935832D01*
X11716693Y-12937993D01*
X11717771Y-12940152D01*
X11718850Y-12942309D01*
X11719931Y-12944465D01*
X11721013Y-12946618D01*
X11722096Y-12948769D01*
X11723180Y-12950919D01*
X11724266Y-12953067D01*
X11725353Y-12955212D01*
X11726441Y-12957356D01*
X11727531Y-12959498D01*
X11728621Y-12961638D01*
X11729713Y-12963776D01*
X11730807Y-12965913D01*
X11731901Y-12968047D01*
X11732997Y-12970179D01*
X11735193Y-12974439D01*
X11737393Y-12978690D01*
X11739599Y-12982935D01*
X11741810Y-12987171D01*
X11744026Y-12991401D01*
X11746247Y-12995622D01*
X11748473Y-12999836D01*
X11750704Y-13004043D01*
X11752941Y-13008242D01*
X11755182Y-13012434D01*
X11757428Y-13016618D01*
X11759680Y-13020795D01*
X11761936Y-13024964D01*
X11764198Y-13029126D01*
X11766465Y-13033280D01*
X11768737Y-13037427D01*
X11771013Y-13041567D01*
X11773295Y-13045699D01*
X11775582Y-13049824D01*
X11777874Y-13053941D01*
X11780171Y-13058051D01*
X11782473Y-13062154D01*
X11784780Y-13066249D01*
X11787092Y-13070337D01*
X11789409Y-13074418D01*
X11791731Y-13078491D01*
X11794059Y-13082557D01*
X11796391Y-13086616D01*
X11798728Y-13090667D01*
X11801070Y-13094711D01*
X11803418Y-13098748D01*
X11805770Y-13102777D01*
X11808127Y-13106799D01*
X11810489Y-13110814D01*
X11812857Y-13114822D01*
X11815229Y-13118822D01*
X11817606Y-13122815D01*
X11819988Y-13126801D01*
X11822376Y-13130780D01*
X11824768Y-13134751D01*
X11827165Y-13138716D01*
X11829568Y-13142673D01*
X11831975Y-13146622D01*
X11834387Y-13150565D01*
X11836804Y-13154501D01*
X11839226Y-13158429D01*
X11841653Y-13162350D01*
X11844086Y-13166264D01*
X11846523Y-13170171D01*
X11848965Y-13174071D01*
X11851412Y-13177963D01*
X11853864Y-13181849D01*
X11856321Y-13185727D01*
X11858783Y-13189599D01*
X11861250Y-13193463D01*
X11863721Y-13197320D01*
X11866198Y-13201170D01*
X11868680Y-13205013D01*
X11871167Y-13208849D01*
X11873658Y-13212678D01*
X11876155Y-13216499D01*
X11878657Y-13220314D01*
X11881163Y-13224122D01*
X11883675Y-13227923D01*
X11886191Y-13231716D01*
X11888712Y-13235503D01*
X11891239Y-13239282D01*
X11893770Y-13243055D01*
X11896306Y-13246821D01*
X11898847Y-13250579D01*
X11901393Y-13254331D01*
X11903944Y-13258076D01*
X11906500Y-13261814D01*
X11909061Y-13265545D01*
X11911627Y-13269268D01*
X11914197Y-13272985D01*
X11916773Y-13276695D01*
X11919353Y-13280399D01*
X11921939Y-13284095D01*
X11924529Y-13287784D01*
X11927125Y-13291466D01*
X11929725Y-13295142D01*
X11932330Y-13298810D01*
X11934940Y-13302472D01*
X11937555Y-13306127D01*
X11940175Y-13309775D01*
X11942800Y-13313416D01*
X11945429Y-13317050D01*
X11948064Y-13320678D01*
X11950704Y-13324298D01*
X11953348Y-13327912D01*
X11955997Y-13331519D01*
X11958652Y-13335119D01*
X11961311Y-13338712D01*
X11963975Y-13342299D01*
X11966644Y-13345879D01*
X11969318Y-13349451D01*
X11971997Y-13353018D01*
X11974681Y-13356577D01*
X11977369Y-13360129D01*
X11980063Y-13363675D01*
X11982761Y-13367214D01*
X11985465Y-13370747D01*
X11988173Y-13374272D01*
X11990886Y-13377791D01*
X11993604Y-13381303D01*
X11996327Y-13384808D01*
X11999055Y-13388307D01*
X12001788Y-13391799D01*
X12004525Y-13395284D01*
X12007268Y-13398762D01*
X12010015Y-13402234D01*
X12012768Y-13405699D01*
X12015525Y-13409158D01*
X12018287Y-13412610D01*
X12021054Y-13416055D01*
X12023826Y-13419493D01*
X12026603Y-13422925D01*
X12029385Y-13426350D01*
X12032171Y-13429768D01*
X12034963Y-13433180D01*
X12037759Y-13436585D01*
X12040561Y-13439984D01*
X12043367Y-13443376D01*
X12046178Y-13446761D01*
X12048994Y-13450139D01*
X12051815Y-13453512D01*
X12054641Y-13456877D01*
X12057471Y-13460236D01*
X12060307Y-13463588D01*
X12063148Y-13466934D01*
X12065993Y-13470273D01*
X12068843Y-13473605D01*
X12071699Y-13476931D01*
X12074559Y-13480251D01*
X12077424Y-13483563D01*
X12080294Y-13486870D01*
X12083168Y-13490169D01*
X12086048Y-13493463D01*
X12088933Y-13496749D01*
X12091822Y-13500029D01*
X12094717Y-13503303D01*
X12097616Y-13506570D01*
X12100520Y-13509830D01*
X12103429Y-13513084D01*
X12106343Y-13516332D01*
X12109262Y-13519573D01*
X12112186Y-13522807D01*
X12115115Y-13526035D01*
X12118048Y-13529257D01*
X12120987Y-13532472D01*
X12123930Y-13535680D01*
X12126879Y-13538882D01*
X12129832Y-13542078D01*
X12132790Y-13545267D01*
X12135753Y-13548450D01*
X12138721Y-13551626D01*
X12141694Y-13554796D01*
X12144672Y-13557959D01*
X12147654Y-13561116D01*
X12150642Y-13564266D01*
X12153635Y-13567410D01*
X12156632Y-13570548D01*
X12159634Y-13573679D01*
X12162642Y-13576803D01*
X12165654Y-13579922D01*
X12168671Y-13583034D01*
X12171693Y-13586139D01*
X12174720Y-13589238D01*
X12177752Y-13592331D01*
X12180788Y-13595417D01*
X12183830Y-13598497D01*
X12186877Y-13601570D01*
X12189928Y-13604637D01*
X12192985Y-13607698D01*
X12196046Y-13610752D01*
X12199113Y-13613800D01*
X12202184Y-13616842D01*
X12205260Y-13619877D01*
X12208341Y-13622906D01*
X12211427Y-13625928D01*
X12214518Y-13628944D01*
X12217614Y-13631954D01*
X12220715Y-13634957D01*
X12223821Y-13637954D01*
X12226931Y-13640945D01*
X12230047Y-13643929D01*
X12233168Y-13646907D01*
X12236293Y-13649879D01*
X12239424Y-13652844D01*
X12242559Y-13655803D01*
X12245699Y-13658756D01*
X12248845Y-13661702D01*
X12251995Y-13664643D01*
X12255150Y-13667576D01*
X12258310Y-13670504D01*
X12261475Y-13673425D01*
X12264645Y-13676340D01*
X12267820Y-13679248D01*
X12271000Y-13682150D01*
X12274185Y-13685046D01*
X12277375Y-13687936D01*
X12280570Y-13690819D01*
X12283770Y-13693696D01*
X12286975Y-13696567D01*
X12290184Y-13699432D01*
X12293399Y-13702290D01*
X12296619Y-13705142D01*
X12299843Y-13707987D01*
X12303073Y-13710827D01*
X12306308Y-13713660D01*
X12309547Y-13716487D01*
X12312792Y-13719307D01*
X12316041Y-13722121D01*
X12319296Y-13724929D01*
X12322555Y-13727731D01*
X12325819Y-13730527D01*
X12329089Y-13733316D01*
X12332363Y-13736099D01*
X12335643Y-13738876D01*
X12338927Y-13741646D01*
X12342216Y-13744410D01*
X12345511Y-13747168D01*
X12348810Y-13749920D01*
X12352114Y-13752666D01*
X12355424Y-13755405D01*
X12358738Y-13758138D01*
X12362057Y-13760865D01*
X12365382Y-13763585D01*
X12368711Y-13766300D01*
X12372045Y-13769008D01*
X12375385Y-13771710D01*
X12378729Y-13774405D01*
X12382079Y-13777095D01*
X12385433Y-13779778D01*
X12388792Y-13782455D01*
X12392157Y-13785125D01*
X12395526Y-13787790D01*
X12398901Y-13790448D01*
X12402280Y-13793100D01*
X12405664Y-13795746D01*
X12409054Y-13798386D01*
X12412448Y-13801019D01*
X12415848Y-13803646D01*
X12419253Y-13806267D01*
X12422662Y-13808882D01*
X12426077Y-13811490D01*
X12429496Y-13814093D01*
X12432921Y-13816689D01*
X12436351Y-13819279D01*
X12439786Y-13821863D01*
X12443226Y-13824440D01*
X12446670Y-13827011D01*
X12450120Y-13829576D01*
X12453575Y-13832135D01*
X12457035Y-13834688D01*
X12460500Y-13837234D01*
X12463970Y-13839774D01*
X12467446Y-13842309D01*
X12470926Y-13844836D01*
X12474411Y-13847358D01*
X12477901Y-13849873D01*
X12481397Y-13852383D01*
X12484897Y-13854886D01*
X12488403Y-13857382D01*
X12491913Y-13859873D01*
X12495429Y-13862357D01*
X12498949Y-13864835D01*
X12502475Y-13867307D01*
X12506006Y-13869773D01*
X12509542Y-13872233D01*
X12513083Y-13874686D01*
X12516629Y-13877133D01*
X12520180Y-13879574D01*
X12523736Y-13882009D01*
X12527298Y-13884437D01*
X12530864Y-13886860D01*
X12534435Y-13889276D01*
X12538012Y-13891686D01*
X12541594Y-13894089D01*
X12545180Y-13896487D01*
X12548772Y-13898878D01*
X12552369Y-13901263D01*
X12555971Y-13903642D01*
X12559578Y-13906015D01*
X12563190Y-13908381D01*
X12566808Y-13910741D01*
X12570430Y-13913095D01*
X12574057Y-13915443D01*
X12577690Y-13917784D01*
X12581328Y-13920120D01*
X12584970Y-13922449D01*
X12588618Y-13924772D01*
X12592271Y-13927088D01*
X12595929Y-13929399D01*
X12599593Y-13931703D01*
X12603261Y-13934001D01*
X12606934Y-13936293D01*
X12610613Y-13938578D01*
X12614297Y-13940858D01*
X12617985Y-13943131D01*
X12621679Y-13945397D01*
X12625378Y-13947658D01*
X12629082Y-13949912D01*
X12632792Y-13952161D01*
X12636506Y-13954402D01*
X12640225Y-13956638D01*
X12643950Y-13958867D01*
X12647680Y-13961091D01*
X12651415Y-13963307D01*
X12655155Y-13965518D01*
X12658900Y-13967722D01*
X12662650Y-13969921D01*
X12666405Y-13972112D01*
X12670166Y-13974298D01*
X12673932Y-13976477D01*
X12677702Y-13978650D01*
X12681478Y-13980817D01*
X12685259Y-13982978D01*
X12689045Y-13985132D01*
X12692837Y-13987280D01*
X12696633Y-13989422D01*
X12700435Y-13991557D01*
X12704241Y-13993687D01*
X12708053Y-13995809D01*
X12711870Y-13997926D01*
X12715692Y-14000036D01*
X12719520Y-14002140D01*
X12723352Y-14004238D01*
X12727189Y-14006329D01*
X12731032Y-14008415D01*
X12734880Y-14010493D01*
X12738733Y-14012566D01*
X12742591Y-14014632D01*
X12746454Y-14016692D01*
X12750322Y-14018746D01*
X12754196Y-14020793D01*
X12758075Y-14022834D01*
X12761958Y-14024868D01*
X12765847Y-14026897D01*
X12769741Y-14028919D01*
X12773641Y-14030934D01*
X12777545Y-14032944D01*
X12781454Y-14034947D01*
X12785369Y-14036943D01*
X12789289Y-14038933D01*
X12793214Y-14040917D01*
X12797144Y-14042895D01*
X12801079Y-14044866D01*
X12805019Y-14046831D01*
X12808964Y-14048789D01*
X12812915Y-14050741D01*
X12816871Y-14052687D01*
X12820831Y-14054626D01*
X12824797Y-14056559D01*
X12828769Y-14058486D01*
X12832745Y-14060406D01*
X12836726Y-14062320D01*
X12840713Y-14064227D01*
X12844704Y-14066128D01*
X12848701Y-14068022D01*
X12852703Y-14069911D01*
X12856710Y-14071792D01*
X12860722Y-14073667D01*
X12864739Y-14075536D01*
X12868761Y-14077399D01*
X12872789Y-14079255D01*
X12876821Y-14081104D01*
X12880859Y-14082947D01*
X12884902Y-14084784D01*
X12888950Y-14086614D01*
X12893002Y-14088438D01*
X12897061Y-14090255D01*
X12901124Y-14092066D01*
X12905192Y-14093870D01*
X12909265Y-14095668D01*
X12913344Y-14097459D01*
X12917427Y-14099244D01*
X12921516Y-14101023D01*
X12925610Y-14102794D01*
X12929709Y-14104560D01*
X12933813Y-14106319D01*
X12937922Y-14108071D01*
X12942036Y-14109817D01*
X12946155Y-14111556D01*
X12950279Y-14113289D01*
X12954408Y-14115015D01*
X12958543Y-14116735D01*
X12962682Y-14118448D01*
X12966826Y-14120154D01*
X12970976Y-14121854D01*
X12975130Y-14123548D01*
X12979290Y-14125235D01*
X12983455Y-14126915D01*
X12987624Y-14128589D01*
X12991799Y-14130256D01*
X12995979Y-14131916D01*
X13000163Y-14133570D01*
X13004353Y-14135217D01*
X13008548Y-14136858D01*
X13012748Y-14138492D01*
X13016952Y-14140120D01*
X13021162Y-14141741D01*
X13025377Y-14143355D01*
X13029597Y-14144962D01*
X13033821Y-14146563D01*
X13038051Y-14148157D01*
X13042286Y-14149745D01*
X13046525Y-14151326D01*
X13050770Y-14152900D01*
X13055019Y-14154467D01*
X13059274Y-14156028D01*
X13063533Y-14157582D01*
X13067797Y-14159130D01*
X13072067Y-14160671D01*
X13076341Y-14162205D01*
X13080620Y-14163732D01*
X13084904Y-14165252D01*
X13089193Y-14166766D01*
X13093487Y-14168273D01*
X13097785Y-14169774D01*
X13102089Y-14171267D01*
X13106397Y-14172754D01*
X13110711Y-14174234D01*
X13115029Y-14175707D01*
X13119352Y-14177174D01*
X13123680Y-14178633D01*
X13128012Y-14180086D01*
X13132350Y-14181532D01*
X13136692Y-14182971D01*
X13141039Y-14184404D01*
X13145391Y-14185829D01*
X13149747Y-14187248D01*
X13154109Y-14188660D01*
X13158475Y-14190065D01*
X13162846Y-14191463D01*
X13167221Y-14192855D01*
X13171602Y-14194239D01*
X13175987Y-14195616D01*
X13180377Y-14196987D01*
X13184771Y-14198351D01*
X13189170Y-14199708D01*
X13193574Y-14201058D01*
X13197983Y-14202401D01*
X13202396Y-14203737D01*
X13206813Y-14205066D01*
X13211236Y-14206388D01*
X13215663Y-14207703D01*
X13220094Y-14209011D01*
X13224531Y-14210313D01*
X13228971Y-14211607D01*
X13233417Y-14212894D01*
X13237867Y-14214175D01*
X13242321Y-14215448D01*
X13246780Y-14216714D01*
X13251243Y-14217973D01*
X13255711Y-14219226D01*
X13260184Y-14220471D01*
X13264660Y-14221709D01*
X13269142Y-14222940D01*
X13273627Y-14224164D01*
X13278117Y-14225381D01*
X13282612Y-14226591D01*
X13287111Y-14227794D01*
X13291614Y-14228989D01*
X13296122Y-14230178D01*
X13300633Y-14231359D01*
X13305150Y-14232534D01*
X13309670Y-14233701D01*
X13314195Y-14234861D01*
X13318724Y-14236014D01*
X13323257Y-14237159D01*
X13327794Y-14238298D01*
X13332336Y-14239429D01*
X13336882Y-14240553D01*
X13341432Y-14241670D01*
X13345986Y-14242780D01*
X13350544Y-14243883D01*
X13355106Y-14244978D01*
X13359672Y-14246066D01*
X13364243Y-14247147D01*
X13368817Y-14248220D01*
X13373396Y-14249287D01*
X13377978Y-14250346D01*
X13382564Y-14251398D01*
X13387154Y-14252442D01*
X13391748Y-14253479D01*
X13396346Y-14254509D01*
X13400948Y-14255532D01*
X13405554Y-14256547D01*
X13410163Y-14257555D01*
X13414776Y-14258555D01*
X13419393Y-14259548D01*
X13424014Y-14260534D01*
X13428638Y-14261513D01*
X13433266Y-14262484D01*
X13437898Y-14263447D01*
X13442533Y-14264404D01*
X13447172Y-14265353D01*
X13451814Y-14266294D01*
X13456460Y-14267228D01*
X13461109Y-14268154D01*
X13465762Y-14269074D01*
X13470418Y-14269985D01*
X13475077Y-14270889D01*
X13479740Y-14271786D01*
X13484406Y-14272675D01*
X13489076Y-14273557D01*
X13493748Y-14274431D01*
X13498424Y-14275298D01*
X13503103Y-14276157D01*
X13507785Y-14277008D01*
X13512470Y-14277852D01*
X13517158Y-14278689D01*
X13521849Y-14279518D01*
X13526544Y-14280339D01*
X13531241Y-14281153D01*
X13535941Y-14281959D01*
X13540643Y-14282757D01*
X13545349Y-14283548D01*
X13550057Y-14284331D01*
X13554768Y-14285107D01*
X13559482Y-14285875D01*
X13564198Y-14286635D01*
X13568917Y-14287388D01*
X13573638Y-14288133D01*
X13578362Y-14288870D01*
X13583088Y-14289600D01*
X13587817Y-14290322D01*
X13592548Y-14291036D01*
X13597281Y-14291742D01*
X13602016Y-14292441D01*
X13606754Y-14293132D01*
X13611494Y-14293815D01*
X13616235Y-14294491D01*
X13620979Y-14295158D01*
X13625725Y-14295818D01*
X13630472Y-14296470D01*
X13635221Y-14297114D01*
X13639972Y-14297751D01*
X13644725Y-14298380D01*
X13649479Y-14299000D01*
X13654235Y-14299613D01*
X13658992Y-14300218D01*
X13663751Y-14300816D01*
X13668511Y-14301405D01*
X13673273Y-14301987D01*
X13678035Y-14302560D01*
X13682799Y-14303126D01*
X13687564Y-14303684D01*
X13692330Y-14304234D01*
X13697096Y-14304776D01*
X13701864Y-14305310D01*
X13706632Y-14305836D01*
X13711401Y-14306354D01*
X13716171Y-14306865D01*
X13720941Y-14307367D01*
X13725711Y-14307861D01*
X13730482Y-14308348D01*
X13735253Y-14308826D01*
X13740024Y-14309296D01*
X13744795Y-14309759D01*
X13749566Y-14310213D01*
X13754337Y-14310659D01*
X13759108Y-14311098D01*
X13763879Y-14311528D01*
X13768649Y-14311950D01*
X13773418Y-14312364D01*
X13778187Y-14312770D01*
X13782955Y-14313169D01*
X13787722Y-14313559D01*
X13792488Y-14313940D01*
X13797253Y-14314314D01*
X13802017Y-14314680D01*
X13806780Y-14315038D01*
X13811541Y-14315387D01*
X13816300Y-14315729D01*
X13821058Y-14316062D01*
X13825814Y-14316387D01*
X13830568Y-14316705D01*
X13835320Y-14317014D01*
X13840069Y-14317314D01*
X13844816Y-14317607D01*
X13849560Y-14317892D01*
X13854302Y-14318168D01*
X13859041Y-14318437D01*
X13863777Y-14318697D01*
X13868509Y-14318949D01*
X13873239Y-14319193D01*
X13877964Y-14319429D01*
X13882686Y-14319656D01*
X13887405Y-14319876D01*
X13892119Y-14320087D01*
X13896828Y-14320290D01*
X13901534Y-14320485D01*
X13906234Y-14320672D01*
X13910930Y-14320851D01*
X13915621Y-14321021D01*
X13920306Y-14321183D01*
X13924986Y-14321338D01*
X13929661Y-14321484D01*
X13934329Y-14321622D01*
X13938991Y-14321752D01*
X13943647Y-14321873D01*
X13948296Y-14321987D01*
X13952938Y-14322092D01*
X13957573Y-14322190D01*
X13962200Y-14322279D01*
X13966820Y-14322360D01*
X13971431Y-14322433D01*
X13976034Y-14322498D01*
X13980629Y-14322555D01*
X13985214Y-14322604D01*
X13989791Y-14322645D01*
X13994357Y-14322677D01*
X13998914Y-14322702D01*
X14003460Y-14322719D01*
X14007996Y-14322728D01*
X14012520Y-14322729D01*
X14017033Y-14322722D01*
X14021534Y-14322707D01*
X14026023Y-14322684D01*
X14030499Y-14322653D01*
X14034962Y-14322615D01*
X14039411Y-14322568D01*
X14043846Y-14322514D01*
X14048266Y-14322452D01*
X14052671Y-14322383D01*
X14057060Y-14322306D01*
X14061433Y-14322221D01*
X14065789Y-14322128D01*
X14070127Y-14322028D01*
X14074447Y-14321921D01*
X14078748Y-14321806D01*
X14083030Y-14321684D01*
X14087291Y-14321554D01*
X14091531Y-14321417D01*
X14095749Y-14321273D01*
X14099945Y-14321122D01*
X14104116Y-14320964D01*
X14108263Y-14320799D01*
X14112385Y-14320627D01*
X14116480Y-14320448D01*
X14120547Y-14320263D01*
X14124585Y-14320071D01*
X14128593Y-14319873D01*
X14132570Y-14319668D01*
X14136513Y-14319457D01*
X14140423Y-14319240D01*
X14144296Y-14319018D01*
X14144600Y-14319000D01*
X11324600Y-10719000D02*
X11324610Y-10712990D01*
X11324623Y-10706984D01*
X11324637Y-10700982D01*
X11324653Y-10694983D01*
X11324672Y-10688988D01*
X11324692Y-10682997D01*
X11324714Y-10677010D01*
X11324739Y-10671026D01*
X11324765Y-10665046D01*
X11324793Y-10659070D01*
X11324824Y-10653098D01*
X11324856Y-10647130D01*
X11324890Y-10641165D01*
X11324926Y-10635204D01*
X11324964Y-10629246D01*
X11325005Y-10623293D01*
X11325047Y-10617343D01*
X11325091Y-10611397D01*
X11325137Y-10605454D01*
X11325185Y-10599516D01*
X11325235Y-10593581D01*
X11325287Y-10587650D01*
X11325341Y-10581722D01*
X11325397Y-10575798D01*
X11325455Y-10569878D01*
X11325515Y-10563962D01*
X11325576Y-10558049D01*
X11325640Y-10552141D01*
X11325706Y-10546236D01*
X11325774Y-10540334D01*
X11325843Y-10534436D01*
X11325915Y-10528543D01*
X11325988Y-10522652D01*
X11326064Y-10516766D01*
X11326141Y-10510883D01*
X11326221Y-10505004D01*
X11326302Y-10499128D01*
X11326385Y-10493257D01*
X11326471Y-10487389D01*
X11326558Y-10481525D01*
X11326647Y-10475664D01*
X11326738Y-10469807D01*
X11326831Y-10463954D01*
X11326926Y-10458104D01*
X11327023Y-10452259D01*
X11327122Y-10446417D01*
X11327222Y-10440578D01*
X11327325Y-10434744D01*
X11327430Y-10428913D01*
X11327536Y-10423085D01*
X11327645Y-10417262D01*
X11327755Y-10411442D01*
X11327868Y-10405625D01*
X11327982Y-10399813D01*
X11328098Y-10394004D01*
X11328216Y-10388199D01*
X11328336Y-10382397D01*
X11328458Y-10376599D01*
X11328582Y-10370805D01*
X11328708Y-10365015D01*
X11328836Y-10359228D01*
X11328966Y-10353445D01*
X11329097Y-10347665D01*
X11329231Y-10341890D01*
X11329366Y-10336117D01*
X11329504Y-10330349D01*
X11329643Y-10324584D01*
X11329784Y-10318823D01*
X11329927Y-10313065D01*
X11330072Y-10307312D01*
X11330219Y-10301561D01*
X11330368Y-10295815D01*
X11330519Y-10290072D01*
X11330671Y-10284333D01*
X11330826Y-10278597D01*
X11330982Y-10272865D01*
X11331140Y-10267137D01*
X11331301Y-10261413D01*
X11331463Y-10255692D01*
X11331627Y-10249974D01*
X11331793Y-10244261D01*
X11331961Y-10238551D01*
X11332130Y-10232844D01*
X11332302Y-10227141D01*
X11332475Y-10221442D01*
X11332651Y-10215747D01*
X11332828Y-10210055D01*
X11333007Y-10204367D01*
X11333188Y-10198682D01*
X11333371Y-10193001D01*
X11333556Y-10187324D01*
X11333743Y-10181650D01*
X11333931Y-10175980D01*
X11334122Y-10170314D01*
X11334314Y-10164651D01*
X11334508Y-10158992D01*
X11334704Y-10153336D01*
X11334902Y-10147684D01*
X11335102Y-10142036D01*
X11335304Y-10136391D01*
X11335507Y-10130750D01*
X11335713Y-10125113D01*
X11335920Y-10119479D01*
X11336129Y-10113848D01*
X11336340Y-10108222D01*
X11336553Y-10102599D01*
X11336768Y-10096979D01*
X11336984Y-10091363D01*
X11337203Y-10085751D01*
X11337423Y-10080142D01*
X11337646Y-10074537D01*
X11337870Y-10068936D01*
X11338096Y-10063338D01*
X11338323Y-10057744D01*
X11338553Y-10052153D01*
X11338785Y-10046566D01*
X11339018Y-10040983D01*
X11339253Y-10035403D01*
X11339490Y-10029826D01*
X11339729Y-10024254D01*
X11339970Y-10018684D01*
X11340212Y-10013119D01*
X11340457Y-10007557D01*
X11340703Y-10001998D01*
X11340951Y-9996444D01*
X11341201Y-9990892D01*
X11341453Y-9985345D01*
X11341707Y-9979801D01*
X11341962Y-9974260D01*
X11342219Y-9968723D01*
X11342479Y-9963190D01*
X11342740Y-9957660D01*
X11343002Y-9952134D01*
X11343267Y-9946611D01*
X11343534Y-9941092D01*
X11343802Y-9935576D01*
X11344072Y-9930064D01*
X11344344Y-9924556D01*
X11344618Y-9919051D01*
X11344893Y-9913549D01*
X11345171Y-9908052D01*
X11345450Y-9902557D01*
X11345731Y-9897067D01*
X11346014Y-9891580D01*
X11346299Y-9886096D01*
X11346585Y-9880616D01*
X11346874Y-9875140D01*
X11347164Y-9869667D01*
X11347456Y-9864197D01*
X11347750Y-9858731D01*
X11348045Y-9853269D01*
X11348343Y-9847810D01*
X11348642Y-9842355D01*
X11348943Y-9836903D01*
X11349246Y-9831455D01*
X11349551Y-9826010D01*
X11349857Y-9820569D01*
X11350165Y-9815132D01*
X11350476Y-9809698D01*
X11350787Y-9804267D01*
X11351101Y-9798840D01*
X11351417Y-9793417D01*
X11351734Y-9787997D01*
X11352053Y-9782580D01*
X11352374Y-9777167D01*
X11352696Y-9771758D01*
X11353021Y-9766352D01*
X11353347Y-9760950D01*
X11353675Y-9755551D01*
X11354005Y-9750155D01*
X11354337Y-9744764D01*
X11354670Y-9739375D01*
X11355005Y-9733990D01*
X11355342Y-9728609D01*
X11355681Y-9723231D01*
X11356022Y-9717857D01*
X11356364Y-9712486D01*
X11356708Y-9707119D01*
X11357054Y-9701755D01*
X11357401Y-9696395D01*
X11357751Y-9691038D01*
X11358102Y-9685685D01*
X11358455Y-9680335D01*
X11358810Y-9674988D01*
X11359166Y-9669645D01*
X11359525Y-9664306D01*
X11359885Y-9658970D01*
X11360247Y-9653638D01*
X11360610Y-9648309D01*
X11360976Y-9642984D01*
X11361343Y-9637662D01*
X11361712Y-9632343D01*
X11362082Y-9627028D01*
X11362455Y-9621717D01*
X11362829Y-9616409D01*
X11363205Y-9611104D01*
X11363583Y-9605803D01*
X11363962Y-9600505D01*
X11364343Y-9595211D01*
X11364726Y-9589920D01*
X11365111Y-9584633D01*
X11365497Y-9579349D01*
X11365886Y-9574069D01*
X11366276Y-9568792D01*
X11366667Y-9563519D01*
X11367061Y-9558249D01*
X11367456Y-9552983D01*
X11367853Y-9547720D01*
X11368252Y-9542460D01*
X11368652Y-9537204D01*
X11369054Y-9531951D01*
X11369458Y-9526702D01*
X11369864Y-9521456D01*
X11370272Y-9516214D01*
X11370681Y-9510975D01*
X11371092Y-9505740D01*
X11371504Y-9500508D01*
X11371919Y-9495279D01*
X11372335Y-9490054D01*
X11372752Y-9484833D01*
X11373172Y-9479614D01*
X11373593Y-9474400D01*
X11374016Y-9469188D01*
X11374441Y-9463980D01*
X11374868Y-9458776D01*
X11375296Y-9453575D01*
X11375726Y-9448377D01*
X11376157Y-9443183D01*
X11376591Y-9437992D01*
X11377026Y-9432805D01*
X11377463Y-9427621D01*
X11377901Y-9422440D01*
X11378341Y-9417263D01*
X11378783Y-9412090D01*
X11379227Y-9406919D01*
X11379672Y-9401753D01*
X11380119Y-9396589D01*
X11380568Y-9391429D01*
X11381019Y-9386273D01*
X11381471Y-9381119D01*
X11381925Y-9375970D01*
X11382381Y-9370823D01*
X11382838Y-9365680D01*
X11383297Y-9360541D01*
X11383758Y-9355405D01*
X11384220Y-9350272D01*
X11384684Y-9345142D01*
X11385150Y-9340017D01*
X11385618Y-9334894D01*
X11386087Y-9329775D01*
X11386558Y-9324659D01*
X11387031Y-9319547D01*
X11387505Y-9314438D01*
X11387981Y-9309332D01*
X11388459Y-9304230D01*
X11388938Y-9299131D01*
X11389419Y-9294036D01*
X11389902Y-9288943D01*
X11390387Y-9283855D01*
X11390873Y-9278770D01*
X11391361Y-9273688D01*
X11391850Y-9268609D01*
X11392341Y-9263534D01*
X11392834Y-9258462D01*
X11393329Y-9253394D01*
X11393825Y-9248329D01*
X11394323Y-9243267D01*
X11394823Y-9238209D01*
X11395324Y-9233154D01*
X11395827Y-9228102D01*
X11396332Y-9223054D01*
X11396838Y-9218009D01*
X11397346Y-9212967D01*
X11397856Y-9207929D01*
X11398367Y-9202895D01*
X11398880Y-9197863D01*
X11399395Y-9192835D01*
X11399911Y-9187810D01*
X11400429Y-9182789D01*
X11400949Y-9177771D01*
X11401470Y-9172756D01*
X11401993Y-9167745D01*
X11402518Y-9162737D01*
X11403044Y-9157733D01*
X11403572Y-9152731D01*
X11404101Y-9147733D01*
X11404633Y-9142739D01*
X11405166Y-9137747D01*
X11405700Y-9132760D01*
X11406237Y-9127775D01*
X11406774Y-9122794D01*
X11407314Y-9117816D01*
X11407855Y-9112841D01*
X11408398Y-9107870D01*
X11408943Y-9102902D01*
X11409489Y-9097938D01*
X11410036Y-9092976D01*
X11410586Y-9088018D01*
X11411137Y-9083064D01*
X11411690Y-9078113D01*
X11412244Y-9073165D01*
X11412800Y-9068220D01*
X11413358Y-9063279D01*
X11413917Y-9058341D01*
X11414478Y-9053406D01*
X11415040Y-9048475D01*
X11415605Y-9043546D01*
X11416170Y-9038622D01*
X11416738Y-9033700D01*
X11417307Y-9028782D01*
X11417878Y-9023867D01*
X11418450Y-9018956D01*
X11419024Y-9014048D01*
X11419600Y-9009143D01*
X11420177Y-9004241D01*
X11420756Y-8999343D01*
X11421336Y-8994448D01*
X11421918Y-8989556D01*
X11422502Y-8984668D01*
X11423087Y-8979783D01*
X11423674Y-8974901D01*
X11424263Y-8970022D01*
X11424853Y-8965147D01*
X11425445Y-8960275D01*
X11426038Y-8955406D01*
X11426633Y-8950541D01*
X11427230Y-8945679D01*
X11427828Y-8940820D01*
X11428428Y-8935964D01*
X11429029Y-8931112D01*
X11429632Y-8926263D01*
X11430237Y-8921417D01*
X11430843Y-8916575D01*
X11431451Y-8911736D01*
X11432061Y-8906900D01*
X11432672Y-8902067D01*
X11433285Y-8897238D01*
X11433899Y-8892412D01*
X11434515Y-8887589D01*
X11435132Y-8882770D01*
X11435751Y-8877953D01*
X11436372Y-8873140D01*
X11436994Y-8868330D01*
X11437618Y-8863524D01*
X11438244Y-8858721D01*
X11438871Y-8853921D01*
X11439500Y-8849124D01*
X11440130Y-8844331D01*
X11440762Y-8839540D01*
X11441395Y-8834753D01*
X11442030Y-8829970D01*
X11442667Y-8825189D01*
X11443305Y-8820412D01*
X11443945Y-8815638D01*
X11444586Y-8810867D01*
X11445229Y-8806100D01*
X11445873Y-8801335D01*
X11446519Y-8796574D01*
X11447167Y-8791817D01*
X11447816Y-8787062D01*
X11448467Y-8782311D01*
X11449120Y-8777563D01*
X11449774Y-8772818D01*
X11450429Y-8768076D01*
X11451086Y-8763338D01*
X11451745Y-8758603D01*
X11452405Y-8753871D01*
X11453067Y-8749142D01*
X11453730Y-8744417D01*
X11454395Y-8739695D01*
X11455062Y-8734975D01*
X11455730Y-8730260D01*
X11456400Y-8725547D01*
X11457071Y-8720838D01*
X11457744Y-8716132D01*
X11458418Y-8711429D01*
X11459094Y-8706729D01*
X11459771Y-8702032D01*
X11460450Y-8697339D01*
X11461131Y-8692649D01*
X11461813Y-8687962D01*
X11462497Y-8683278D01*
X11463182Y-8678598D01*
X11463869Y-8673921D01*
X11464557Y-8669247D01*
X11465247Y-8664576D01*
X11465938Y-8659908D01*
X11466631Y-8655244D01*
X11467326Y-8650582D01*
X11468022Y-8645924D01*
X11468720Y-8641269D01*
X11469419Y-8636618D01*
X11470119Y-8631969D01*
X11470822Y-8627324D01*
X11471525Y-8622682D01*
X11472231Y-8618043D01*
X11472938Y-8613407D01*
X11473646Y-8608774D01*
X11474356Y-8604145D01*
X11475067Y-8599519D01*
X11475780Y-8594896D01*
X11476495Y-8590276D01*
X11477211Y-8585659D01*
X11477929Y-8581046D01*
X11478648Y-8576435D01*
X11479368Y-8571828D01*
X11480090Y-8567224D01*
X11480814Y-8562624D01*
X11481539Y-8558026D01*
X11482266Y-8553431D01*
X11482994Y-8548840D01*
X11483724Y-8544252D01*
X11484456Y-8539667D01*
X11485188Y-8535085D01*
X11485923Y-8530506D01*
X11486659Y-8525931D01*
X11487396Y-8521358D01*
X11488135Y-8516789D01*
X11488875Y-8512223D01*
X11489617Y-8507660D01*
X11490361Y-8503101D01*
X11491106Y-8498544D01*
X11491852Y-8493991D01*
X11492600Y-8489440D01*
X11493350Y-8484893D01*
X11494101Y-8480349D01*
X11494853Y-8475808D01*
X11495607Y-8471271D01*
X11496363Y-8466736D01*
X11497120Y-8462205D01*
X11497878Y-8457676D01*
X11498638Y-8453151D01*
X11499400Y-8448629D01*
X11500163Y-8444110D01*
X11500927Y-8439594D01*
X11501693Y-8435082D01*
X11502461Y-8430572D01*
X11503230Y-8426066D01*
X11504000Y-8421562D01*
X11504772Y-8417062D01*
X11505546Y-8412565D01*
X11506321Y-8408072D01*
X11507097Y-8403581D01*
X11507875Y-8399093D01*
X11508655Y-8394609D01*
X11509436Y-8390127D01*
X11510218Y-8385649D01*
X11511002Y-8381174D01*
X11511788Y-8376701D01*
X11512574Y-8372233D01*
X11513363Y-8367767D01*
X11514153Y-8363304D01*
X11514944Y-8358844D01*
X11515737Y-8354388D01*
X11516531Y-8349934D01*
X11517327Y-8345484D01*
X11518124Y-8341037D01*
X11518923Y-8336593D01*
X11519723Y-8332152D01*
X11520525Y-8327714D01*
X11521328Y-8323279D01*
X11522132Y-8318847D01*
X11522939Y-8314418D01*
X11523746Y-8309993D01*
X11524555Y-8305570D01*
X11525366Y-8301151D01*
X11526178Y-8296735D01*
X11526991Y-8292322D01*
X11527806Y-8287911D01*
X11528622Y-8283504D01*
X11529440Y-8279100D01*
X11530259Y-8274700D01*
X11531080Y-8270302D01*
X11531902Y-8265907D01*
X11532726Y-8261515D01*
X11533551Y-8257127D01*
X11534378Y-8252741D01*
X11535206Y-8248359D01*
X11536035Y-8243980D01*
X11536866Y-8239603D01*
X11537698Y-8235230D01*
X11538532Y-8230860D01*
X11539367Y-8226493D01*
X11540204Y-8222129D01*
X11541042Y-8217768D01*
X11541882Y-8213410D01*
X11542723Y-8209055D01*
X11543566Y-8204704D01*
X11544410Y-8200355D01*
X11545255Y-8196009D01*
X11546102Y-8191667D01*
X11546950Y-8187327D01*
X11547800Y-8182990D01*
X11548651Y-8178657D01*
X11549504Y-8174327D01*
X11550358Y-8169999D01*
X11551213Y-8165675D01*
X11552070Y-8161354D01*
X11552928Y-8157035D01*
X11553788Y-8152720D01*
X11554649Y-8148408D01*
X11555512Y-8144099D01*
X11556376Y-8139793D01*
X11557242Y-8135490D01*
X11558109Y-8131190D01*
X11558977Y-8126893D01*
X11559847Y-8122599D01*
X11560718Y-8118308D01*
X11561591Y-8114020D01*
X11562465Y-8109736D01*
X11563340Y-8105454D01*
X11564217Y-8101175D01*
X11565095Y-8096899D01*
X11565975Y-8092627D01*
X11566856Y-8088357D01*
X11567739Y-8084090D01*
X11568623Y-8079826D01*
X11569508Y-8075566D01*
X11570395Y-8071308D01*
X11571283Y-8067054D01*
X11572173Y-8062802D01*
X11573064Y-8058553D01*
X11573957Y-8054308D01*
X11574850Y-8050065D01*
X11575746Y-8045826D01*
X11576642Y-8041589D01*
X11577541Y-8037356D01*
X11578440Y-8033125D01*
X11579341Y-8028897D01*
X11580243Y-8024673D01*
X11581147Y-8020451D01*
X11582052Y-8016233D01*
X11582959Y-8012017D01*
X11583867Y-8007805D01*
X11584776Y-8003595D01*
X11585687Y-7999389D01*
X11586599Y-7995185D01*
X11587513Y-7990985D01*
X11588428Y-7986787D01*
X11589344Y-7982592D01*
X11590262Y-7978401D01*
X11591181Y-7974212D01*
X11592101Y-7970026D01*
X11593023Y-7965844D01*
X11593946Y-7961664D01*
X11594871Y-7957487D01*
X11595797Y-7953314D01*
X11596725Y-7949143D01*
X11597653Y-7944975D01*
X11598584Y-7940810D01*
X11599515Y-7936648D01*
X11600448Y-7932490D01*
X11601383Y-7928334D01*
X11602318Y-7924181D01*
X11603256Y-7920031D01*
X11604194Y-7915884D01*
X11605134Y-7911740D01*
X11606075Y-7907599D01*
X11607018Y-7903461D01*
X11607962Y-7899326D01*
X11608907Y-7895193D01*
X11609854Y-7891064D01*
X11610802Y-7886938D01*
X11611752Y-7882815D01*
X11612703Y-7878694D01*
X11613655Y-7874577D01*
X11614609Y-7870462D01*
X11615564Y-7866351D01*
X11616520Y-7862242D01*
X11617478Y-7858137D01*
X11618437Y-7854034D01*
X11619397Y-7849934D01*
X11620359Y-7845838D01*
X11621322Y-7841744D01*
X11622287Y-7837653D01*
X11623253Y-7833565D01*
X11624220Y-7829480D01*
X11625189Y-7825398D01*
X11626159Y-7821319D01*
X11627130Y-7817243D01*
X11628103Y-7813169D01*
X11629077Y-7809099D01*
X11630052Y-7805032D01*
X11631029Y-7800967D01*
X11632007Y-7796906D01*
X11632987Y-7792847D01*
X11633967Y-7788791D01*
X11634950Y-7784739D01*
X11635933Y-7780689D01*
X11636918Y-7776642D01*
X11637904Y-7772598D01*
X11638892Y-7768557D01*
X11639881Y-7764518D01*
X11640871Y-7760483D01*
X11641863Y-7756451D01*
X11642855Y-7752421D01*
X11643850Y-7748395D01*
X11644845Y-7744371D01*
X11645842Y-7740351D01*
X11646841Y-7736333D01*
X11647840Y-7732318D01*
X11648841Y-7728306D01*
X11649844Y-7724297D01*
X11650847Y-7720291D01*
X11651852Y-7716287D01*
X11652858Y-7712287D01*
X11653866Y-7708289D01*
X11654875Y-7704295D01*
X11655885Y-7700303D01*
X11656897Y-7696315D01*
X11657910Y-7692328D01*
X11658924Y-7688346D01*
X11659940Y-7684365D01*
X11660957Y-7680388D01*
X11661975Y-7676414D01*
X11662995Y-7672442D01*
X11664016Y-7668474D01*
X11665038Y-7664508D01*
X11666062Y-7660545D01*
X11667086Y-7656585D01*
X11668113Y-7652628D01*
X11669140Y-7648674D01*
X11670169Y-7644723D01*
X11671199Y-7640775D01*
X11672231Y-7636829D01*
X11673263Y-7632886D01*
X11674297Y-7628946D01*
X11675333Y-7625010D01*
X11676370Y-7621076D01*
X11677408Y-7617144D01*
X11678447Y-7613216D01*
X11679488Y-7609291D01*
X11680530Y-7605368D01*
X11681573Y-7601448D01*
X11682618Y-7597531D01*
X11683663Y-7593618D01*
X11684711Y-7589706D01*
X11685759Y-7585798D01*
X11686809Y-7581893D01*
X11687860Y-7577990D01*
X11688912Y-7574090D01*
X11689966Y-7570193D01*
X11691021Y-7566299D01*
X11692077Y-7562408D01*
X11693135Y-7558520D01*
X11694194Y-7554635D01*
X11695254Y-7550752D01*
X11696316Y-7546872D01*
X11697378Y-7542995D01*
X11698443Y-7539121D01*
X11699508Y-7535250D01*
X11700575Y-7531381D01*
X11701643Y-7527516D01*
X11702712Y-7523653D01*
X11703782Y-7519793D01*
X11704854Y-7515936D01*
X11705927Y-7512082D01*
X11707002Y-7508230D01*
X11708077Y-7504382D01*
X11709154Y-7500536D01*
X11710233Y-7496693D01*
X11711312Y-7492853D01*
X11712393Y-7489016D01*
X11713475Y-7485181D01*
X11714559Y-7481350D01*
X11715643Y-7477521D01*
X11716729Y-7473695D01*
X11717816Y-7469872D01*
X11718905Y-7466051D01*
X11719995Y-7462234D01*
X11721086Y-7458419D01*
X11722178Y-7454607D01*
X11723272Y-7450798D01*
X11724366Y-7446992D01*
X11725463Y-7443188D01*
X11726560Y-7439388D01*
X11727659Y-7435590D01*
X11728759Y-7431795D01*
X11729860Y-7428003D01*
X11730962Y-7424213D01*
X11732066Y-7420426D01*
X11733171Y-7416643D01*
X11734278Y-7412862D01*
X11735385Y-7409083D01*
X11736494Y-7405308D01*
X11737604Y-7401535D01*
X11738715Y-7397765D01*
X11739828Y-7393998D01*
X11740942Y-7390234D01*
X11742057Y-7386473D01*
X11743173Y-7382714D01*
X11744291Y-7378958D01*
X11745410Y-7375205D01*
X11746530Y-7371455D01*
X11747651Y-7367707D01*
X11748774Y-7363962D01*
X11749898Y-7360220D01*
X11751023Y-7356481D01*
X11752150Y-7352745D01*
X11753277Y-7349011D01*
X11754406Y-7345280D01*
X11755536Y-7341552D01*
X11756668Y-7337827D01*
X11757800Y-7334104D01*
X11758934Y-7330384D01*
X11760069Y-7326667D01*
X11761206Y-7322953D01*
X11762343Y-7319242D01*
X11763482Y-7315533D01*
X11764622Y-7311827D01*
X11765764Y-7308124D01*
X11766906Y-7304423D01*
X11768050Y-7300726D01*
X11769195Y-7297031D01*
X11770342Y-7293339D01*
X11771489Y-7289649D01*
X11772638Y-7285963D01*
X11773788Y-7282279D01*
X11774939Y-7278598D01*
X11776092Y-7274919D01*
X11777246Y-7271244D01*
X11778401Y-7267571D01*
X11779557Y-7263901D01*
X11780714Y-7260233D01*
X11781873Y-7256569D01*
X11783033Y-7252907D01*
X11784194Y-7249248D01*
X11785356Y-7245591D01*
X11786520Y-7241938D01*
X11787685Y-7238287D01*
X11788851Y-7234638D01*
X11790018Y-7230993D01*
X11791186Y-7227350D01*
X11792356Y-7223711D01*
X11793527Y-7220073D01*
X11794699Y-7216439D01*
X11795873Y-7212807D01*
X11797047Y-7209178D01*
X11798223Y-7205551D01*
X11799400Y-7201928D01*
X11800578Y-7198307D01*
X11801757Y-7194689D01*
X11802938Y-7191073D01*
X11804120Y-7187461D01*
X11805303Y-7183851D01*
X11806487Y-7180244D01*
X11807673Y-7176639D01*
X11808860Y-7173037D01*
X11810048Y-7169438D01*
X11811237Y-7165842D01*
X11812427Y-7162248D01*
X11813619Y-7158657D01*
X11814811Y-7155069D01*
X11816005Y-7151483D01*
X11817201Y-7147900D01*
X11818397Y-7144320D01*
X11819594Y-7140743D01*
X11820793Y-7137168D01*
X11821993Y-7133596D01*
X11823194Y-7130027D01*
X11824397Y-7126460D01*
X11825600Y-7122896D01*
X11826805Y-7119335D01*
X11828011Y-7115777D01*
X11829218Y-7112221D01*
X11830427Y-7108668D01*
X11831636Y-7105117D01*
X11832847Y-7101570D01*
X11834059Y-7098024D01*
X11835272Y-7094482D01*
X11836487Y-7090942D01*
X11837702Y-7087406D01*
X11838919Y-7083871D01*
X11840137Y-7080340D01*
X11841356Y-7076811D01*
X11842576Y-7073284D01*
X11843798Y-7069761D01*
X11845020Y-7066240D01*
X11846244Y-7062722D01*
X11847469Y-7059206D01*
X11848695Y-7055693D01*
X11849923Y-7052183D01*
X11851151Y-7048676D01*
X11852381Y-7045171D01*
X11853612Y-7041669D01*
X11854844Y-7038169D01*
X11856078Y-7034672D01*
X11857312Y-7031178D01*
X11858548Y-7027687D01*
X11859785Y-7024198D01*
X11861023Y-7020712D01*
X11862262Y-7017228D01*
X11863502Y-7013747D01*
X11864744Y-7010269D01*
X11865986Y-7006794D01*
X11867230Y-7003321D01*
X11868475Y-6999850D01*
X11869722Y-6996383D01*
X11870969Y-6992918D01*
X11872218Y-6989456D01*
X11873467Y-6985996D01*
X11874718Y-6982539D01*
X11875970Y-6979085D01*
X11877224Y-6975633D01*
X11878478Y-6972184D01*
X11879734Y-6968738D01*
X11880990Y-6965294D01*
X11882248Y-6961853D01*
X11883507Y-6958415D01*
X11884768Y-6954979D01*
X11886029Y-6951546D01*
X11887291Y-6948115D01*
X11888555Y-6944687D01*
X11889820Y-6941262D01*
X11891086Y-6937840D01*
X11892353Y-6934420D01*
X11893622Y-6931002D01*
X11894891Y-6927588D01*
X11896162Y-6924176D01*
X11897434Y-6920766D01*
X11898707Y-6917359D01*
X11899981Y-6913955D01*
X11901256Y-6910553D01*
X11902532Y-6907155D01*
X11903810Y-6903758D01*
X11905089Y-6900365D01*
X11906369Y-6896973D01*
X11907650Y-6893585D01*
X11908932Y-6890199D01*
X11910215Y-6886816D01*
X11911500Y-6883435D01*
X11912785Y-6880057D01*
X11914072Y-6876682D01*
X11915360Y-6873309D01*
X11916649Y-6869939D01*
X11917939Y-6866572D01*
X11919230Y-6863207D01*
X11920523Y-6859844D01*
X11921816Y-6856484D01*
X11923111Y-6853128D01*
X11924407Y-6849773D01*
X11925704Y-6846421D01*
X11927002Y-6843072D01*
X11928301Y-6839725D01*
X11929602Y-6836381D01*
X11930903Y-6833039D01*
X11932206Y-6829700D01*
X11933510Y-6826364D01*
X11934815Y-6823030D01*
X11936121Y-6819699D01*
X11937428Y-6816371D01*
X11938736Y-6813045D01*
X11940046Y-6809721D01*
X11941357Y-6806401D01*
X11942668Y-6803082D01*
X11943981Y-6799767D01*
X11945295Y-6796454D01*
X11946610Y-6793143D01*
X11947927Y-6789835D01*
X11949244Y-6786530D01*
X11950562Y-6783227D01*
X11951882Y-6779927D01*
X11953203Y-6776630D01*
X11954525Y-6773335D01*
X11955848Y-6770042D01*
X11957172Y-6766753D01*
X11958497Y-6763465D01*
X11959823Y-6760181D01*
X11961151Y-6756898D01*
X11962479Y-6753619D01*
X11963809Y-6750342D01*
X11965140Y-6747068D01*
X11966472Y-6743796D01*
X11967805Y-6740527D01*
X11969139Y-6737260D01*
X11970474Y-6733996D01*
X11971811Y-6730734D01*
X11973148Y-6727475D01*
X11974487Y-6724218D01*
X11975826Y-6720965D01*
X11977167Y-6717713D01*
X11978509Y-6714465D01*
X11979852Y-6711218D01*
X11981196Y-6707975D01*
X11982541Y-6704733D01*
X11983888Y-6701495D01*
X11985235Y-6698259D01*
X11986584Y-6695025D01*
X11987933Y-6691794D01*
X11989284Y-6688566D01*
X11990636Y-6685340D01*
X11991989Y-6682117D01*
X11993343Y-6678896D01*
X11994698Y-6675678D01*
X11996055Y-6672462D01*
X11997412Y-6669249D01*
X11998770Y-6666038D01*
X12000130Y-6662830D01*
X12001491Y-6659625D01*
X12002852Y-6656422D01*
X12004215Y-6653221D01*
X12005579Y-6650023D01*
X12006944Y-6646828D01*
X12008310Y-6643635D01*
X12009678Y-6640445D01*
X12011046Y-6637257D01*
X12012415Y-6634071D01*
X12013786Y-6630889D01*
X12015157Y-6627708D01*
X12016530Y-6624531D01*
X12017904Y-6621355D01*
X12019279Y-6618183D01*
X12020655Y-6615013D01*
X12022032Y-6611845D01*
X12023410Y-6608680D01*
X12024789Y-6605517D01*
X12026169Y-6602357D01*
X12027550Y-6599200D01*
X12028933Y-6596045D01*
X12030316Y-6592892D01*
X12031701Y-6589742D01*
X12033087Y-6586595D01*
X12034474Y-6583449D01*
X12035861Y-6580307D01*
X12037250Y-6577167D01*
X12038640Y-6574029D01*
X12040031Y-6570894D01*
X12041423Y-6567762D01*
X12042817Y-6564632D01*
X12044211Y-6561504D01*
X12045607Y-6558379D01*
X12047003Y-6555257D01*
X12048400Y-6552137D01*
X12049799Y-6549019D01*
X12051199Y-6545904D01*
X12052599Y-6542792D01*
X12054001Y-6539682D01*
X12055404Y-6536574D01*
X12056808Y-6533469D01*
X12058213Y-6530367D01*
X12059619Y-6527266D01*
X12061026Y-6524169D01*
X12062435Y-6521074D01*
X12063844Y-6517981D01*
X12065254Y-6514891D01*
X12066666Y-6511803D01*
X12068078Y-6508718D01*
X12069492Y-6505636D01*
X12070906Y-6502555D01*
X12072322Y-6499478D01*
X12073739Y-6496402D01*
X12075156Y-6493330D01*
X12076575Y-6490259D01*
X12077995Y-6487191D01*
X12079416Y-6484126D01*
X12080838Y-6481063D01*
X12082261Y-6478003D01*
X12083685Y-6474945D01*
X12085111Y-6471889D01*
X12086537Y-6468836D01*
X12087964Y-6465786D01*
X12089393Y-6462738D01*
X12090822Y-6459692D01*
X12092252Y-6456649D01*
X12093684Y-6453608D01*
X12095116Y-6450570D01*
X12096550Y-6447534D01*
X12097985Y-6444501D01*
X12099421Y-6441470D01*
X12100857Y-6438442D01*
X12102295Y-6435415D01*
X12103734Y-6432392D01*
X12105174Y-6429371D01*
X12106615Y-6426352D01*
X12108057Y-6423336D01*
X12109500Y-6420323D01*
X12110944Y-6417311D01*
X12112389Y-6414302D01*
X12113835Y-6411296D01*
X12115282Y-6408292D01*
X12116731Y-6405290D01*
X12118180Y-6402292D01*
X12119630Y-6399295D01*
X12121082Y-6396301D01*
X12122534Y-6393309D01*
X12123988Y-6390320D01*
X12125442Y-6387333D01*
X12126898Y-6384349D01*
X12128354Y-6381367D01*
X12129812Y-6378387D01*
X12131270Y-6375410D01*
X12132730Y-6372435D01*
X12134191Y-6369463D01*
X12135652Y-6366493D01*
X12137115Y-6363526D01*
X12138579Y-6360561D01*
X12140044Y-6357598D01*
X12141510Y-6354638D01*
X12142977Y-6351681D01*
X12144445Y-6348726D01*
X12145914Y-6345773D01*
X12147383Y-6342822D01*
X12148855Y-6339874D01*
X12150327Y-6336929D01*
X12151800Y-6333985D01*
X12153274Y-6331045D01*
X12154749Y-6328106D01*
X12156225Y-6325171D01*
X12157702Y-6322237D01*
X12159180Y-6319306D01*
X12160660Y-6316377D01*
X12162140Y-6313451D01*
X12163621Y-6310527D01*
X12165103Y-6307606D01*
X12166587Y-6304687D01*
X12168071Y-6301770D01*
X12169556Y-6298856D01*
X12171042Y-6295944D01*
X12172530Y-6293035D01*
X12174018Y-6290128D01*
X12175508Y-6287223D01*
X12176998Y-6284321D01*
X12178490Y-6281421D01*
X12179982Y-6278524D01*
X12181475Y-6275628D01*
X12182970Y-6272736D01*
X12184465Y-6269846D01*
X12185962Y-6266958D01*
X12187459Y-6264072D01*
X12188958Y-6261190D01*
X12190458Y-6258309D01*
X12191958Y-6255431D01*
X12193460Y-6252554D01*
X12194962Y-6249681D01*
X12196466Y-6246810D01*
X12197970Y-6243941D01*
X12199476Y-6241075D01*
X12200982Y-6238211D01*
X12202490Y-6235349D01*
X12203998Y-6232490D01*
X12205508Y-6229633D01*
X12207019Y-6226779D01*
X12208530Y-6223927D01*
X12210043Y-6221077D01*
X12211557Y-6218230D01*
X12213071Y-6215385D01*
X12214587Y-6212542D01*
X12216103Y-6209702D01*
X12217621Y-6206864D01*
X12219140Y-6204029D01*
X12220659Y-6201196D01*
X12222180Y-6198365D01*
X12225224Y-6192711D01*
X12228272Y-6187066D01*
X12231324Y-6181431D01*
X12234380Y-6175805D01*
X12237441Y-6170188D01*
X12240505Y-6164581D01*
X12243573Y-6158984D01*
X12246645Y-6153395D01*
X12249721Y-6147817D01*
X12252800Y-6142247D01*
X12255884Y-6136687D01*
X12258972Y-6131136D01*
X12262064Y-6125595D01*
X12265159Y-6120063D01*
X12268259Y-6114541D01*
X12271362Y-6109027D01*
X12274470Y-6103524D01*
X12277581Y-6098029D01*
X12280696Y-6092544D01*
X12283815Y-6087068D01*
X12286938Y-6081601D01*
X12290065Y-6076144D01*
X12293196Y-6070696D01*
X12296331Y-6065257D01*
X12299469Y-6059828D01*
X12302612Y-6054408D01*
X12305758Y-6048997D01*
X12308908Y-6043595D01*
X12312062Y-6038203D01*
X12315220Y-6032820D01*
X12318382Y-6027446D01*
X12321547Y-6022081D01*
X12324717Y-6016726D01*
X12327890Y-6011379D01*
X12331067Y-6006042D01*
X12334248Y-6000714D01*
X12337432Y-5995396D01*
X12340621Y-5990086D01*
X12343813Y-5984786D01*
X12347010Y-5979495D01*
X12350210Y-5974213D01*
X12353413Y-5968940D01*
X12356621Y-5963676D01*
X12359832Y-5958421D01*
X12363047Y-5953176D01*
X12366266Y-5947940D01*
X12369489Y-5942712D01*
X12372716Y-5937494D01*
X12375946Y-5932285D01*
X12379180Y-5927085D01*
X12382418Y-5921894D01*
X12385659Y-5916712D01*
X12388905Y-5911540D01*
X12392154Y-5906376D01*
X12395407Y-5901221D01*
X12398663Y-5896076D01*
X12401924Y-5890939D01*
X12405188Y-5885812D01*
X12408456Y-5880693D01*
X12411727Y-5875584D01*
X12415002Y-5870483D01*
X12418281Y-5865392D01*
X12421564Y-5860309D01*
X12424850Y-5855236D01*
X12428140Y-5850171D01*
X12431434Y-5845116D01*
X12434732Y-5840069D01*
X12438033Y-5835031D01*
X12441338Y-5830003D01*
X12444646Y-5824983D01*
X12447959Y-5819972D01*
X12451275Y-5814970D01*
X12454594Y-5809977D01*
X12457918Y-5804993D01*
X12461244Y-5800018D01*
X12464575Y-5795052D01*
X12467909Y-5790095D01*
X12471247Y-5785146D01*
X12474589Y-5780207D01*
X12477934Y-5775276D01*
X12481283Y-5770354D01*
X12484635Y-5765441D01*
X12487992Y-5760537D01*
X12491351Y-5755642D01*
X12494715Y-5750755D01*
X12498082Y-5745878D01*
X12501452Y-5741009D01*
X12504827Y-5736149D01*
X12508205Y-5731298D01*
X12511586Y-5726456D01*
X12514971Y-5721622D01*
X12518360Y-5716797D01*
X12521752Y-5711981D01*
X12525148Y-5707174D01*
X12528547Y-5702376D01*
X12531950Y-5697586D01*
X12535357Y-5692805D01*
X12538767Y-5688033D01*
X12542181Y-5683270D01*
X12545598Y-5678515D01*
X12549019Y-5673769D01*
X12552444Y-5669032D01*
X12555872Y-5664304D01*
X12559303Y-5659584D01*
X12562739Y-5654873D01*
X12566177Y-5650171D01*
X12569619Y-5645477D01*
X12573065Y-5640792D01*
X12576514Y-5636116D01*
X12579967Y-5631448D01*
X12583424Y-5626789D01*
X12586884Y-5622139D01*
X12590347Y-5617497D01*
X12593814Y-5612865D01*
X12597284Y-5608240D01*
X12600758Y-5603625D01*
X12604236Y-5599018D01*
X12607717Y-5594419D01*
X12611201Y-5589830D01*
X12614689Y-5585248D01*
X12618180Y-5580676D01*
X12621675Y-5576112D01*
X12625174Y-5571557D01*
X12628676Y-5567010D01*
X12632181Y-5562472D01*
X12635690Y-5557942D01*
X12639202Y-5553421D01*
X12642718Y-5548909D01*
X12646237Y-5544405D01*
X12649760Y-5539909D01*
X12653286Y-5535423D01*
X12656816Y-5530944D01*
X12660349Y-5526475D01*
X12663885Y-5522014D01*
X12667425Y-5517561D01*
X12670968Y-5513117D01*
X12674515Y-5508681D01*
X12678065Y-5504254D01*
X12681619Y-5499836D01*
X12685176Y-5495425D01*
X12688736Y-5491024D01*
X12692300Y-5486631D01*
X12695868Y-5482246D01*
X12699438Y-5477870D01*
X12703012Y-5473502D01*
X12706590Y-5469143D01*
X12710171Y-5464792D01*
X12713755Y-5460450D01*
X12717343Y-5456116D01*
X12720934Y-5451791D01*
X12724528Y-5447474D01*
X12728126Y-5443165D01*
X12731727Y-5438865D01*
X12735332Y-5434573D01*
X12738940Y-5430290D01*
X12742551Y-5426015D01*
X12746166Y-5421749D01*
X12749784Y-5417491D01*
X12753405Y-5413241D01*
X12757030Y-5409000D01*
X12760658Y-5404767D01*
X12764290Y-5400543D01*
X12767924Y-5396326D01*
X12771563Y-5392119D01*
X12775204Y-5387919D01*
X12778849Y-5383728D01*
X12782497Y-5379546D01*
X12786148Y-5375371D01*
X12789803Y-5371205D01*
X12793461Y-5367048D01*
X12797122Y-5362898D01*
X12800787Y-5358757D01*
X12804455Y-5354625D01*
X12808126Y-5350500D01*
X12811801Y-5346384D01*
X12815479Y-5342277D01*
X12819160Y-5338177D01*
X12822844Y-5334086D01*
X12826532Y-5330004D01*
X12830223Y-5325929D01*
X12833917Y-5321863D01*
X12837615Y-5317805D01*
X12841316Y-5313755D01*
X12845020Y-5309714D01*
X12848727Y-5305681D01*
X12852438Y-5301656D01*
X12856151Y-5297639D01*
X12859868Y-5293631D01*
X12863589Y-5289631D01*
X12867312Y-5285639D01*
X12871039Y-5281656D01*
X12874769Y-5277680D01*
X12878503Y-5273713D01*
X12882239Y-5269754D01*
X12885979Y-5265804D01*
X12889722Y-5261861D01*
X12893468Y-5257927D01*
X12897217Y-5254001D01*
X12900970Y-5250083D01*
X12904726Y-5246174D01*
X12908485Y-5242272D01*
X12912247Y-5238379D01*
X12916012Y-5234494D01*
X12919781Y-5230617D01*
X12923553Y-5226749D01*
X12927328Y-5222888D01*
X12931106Y-5219036D01*
X12934887Y-5215192D01*
X12938672Y-5211356D01*
X12942460Y-5207528D01*
X12946250Y-5203709D01*
X12950044Y-5199897D01*
X12953842Y-5196094D01*
X12957642Y-5192299D01*
X12961445Y-5188512D01*
X12965252Y-5184733D01*
X12969062Y-5180962D01*
X12972875Y-5177200D01*
X12976691Y-5173445D01*
X12980510Y-5169699D01*
X12984332Y-5165961D01*
X12988158Y-5162231D01*
X12991986Y-5158509D01*
X12995818Y-5154795D01*
X12999653Y-5151089D01*
X13003491Y-5147392D01*
X13007332Y-5143702D01*
X13011176Y-5140021D01*
X13015023Y-5136348D01*
X13018873Y-5132682D01*
X13022727Y-5129025D01*
X13026583Y-5125376D01*
X13030443Y-5121735D01*
X13034305Y-5118102D01*
X13038171Y-5114478D01*
X13042040Y-5110861D01*
X13045912Y-5107252D01*
X13049787Y-5103652D01*
X13053665Y-5100059D01*
X13057546Y-5096475D01*
X13061430Y-5092898D01*
X13065317Y-5089330D01*
X13069207Y-5085770D01*
X13073100Y-5082218D01*
X13076997Y-5078673D01*
X13080896Y-5075137D01*
X13084798Y-5071609D01*
X13088704Y-5068089D01*
X13092612Y-5064577D01*
X13096523Y-5061073D01*
X13100438Y-5057577D01*
X13104355Y-5054089D01*
X13108275Y-5050609D01*
X13112199Y-5047137D01*
X13116125Y-5043674D01*
X13120055Y-5040218D01*
X13123987Y-5036770D01*
X13127922Y-5033330D01*
X13131861Y-5029898D01*
X13135802Y-5026475D01*
X13139746Y-5023059D01*
X13143693Y-5019651D01*
X13147644Y-5016251D01*
X13151597Y-5012860D01*
X13155553Y-5009476D01*
X13159512Y-5006100D01*
X13163474Y-5002732D01*
X13167439Y-4999372D01*
X13171406Y-4996021D01*
X13175377Y-4992677D01*
X13179351Y-4989341D01*
X13183328Y-4986013D01*
X13187307Y-4982693D01*
X13191289Y-4979381D01*
X13195275Y-4976077D01*
X13199263Y-4972782D01*
X13203254Y-4969494D01*
X13207248Y-4966214D01*
X13211245Y-4962942D01*
X13215245Y-4959678D01*
X13219247Y-4956421D01*
X13223253Y-4953173D01*
X13227261Y-4949933D01*
X13231273Y-4946701D01*
X13235287Y-4943477D01*
X13239304Y-4940261D01*
X13243323Y-4937052D01*
X13247346Y-4933852D01*
X13251372Y-4930659D01*
X13255400Y-4927475D01*
X13259431Y-4924299D01*
X13263465Y-4921130D01*
X13267502Y-4917969D01*
X13271541Y-4914817D01*
X13275584Y-4911672D01*
X13279629Y-4908535D01*
X13283677Y-4905406D01*
X13287727Y-4902286D01*
X13291781Y-4899173D01*
X13295837Y-4896068D01*
X13299896Y-4892971D01*
X13303958Y-4889882D01*
X13308023Y-4886800D01*
X13312090Y-4883727D01*
X13316160Y-4880662D01*
X13320233Y-4877604D01*
X13324309Y-4874555D01*
X13328387Y-4871514D01*
X13332468Y-4868480D01*
X13336552Y-4865454D01*
X13340638Y-4862437D01*
X13344728Y-4859427D01*
X13348820Y-4856425D01*
X13352914Y-4853431D01*
X13357011Y-4850445D01*
X13361111Y-4847467D01*
X13365214Y-4844497D01*
X13369319Y-4841535D01*
X13373427Y-4838581D01*
X13377538Y-4835634D01*
X13381651Y-4832696D01*
X13385767Y-4829766D01*
X13389886Y-4826843D01*
X13394007Y-4823928D01*
X13398131Y-4821022D01*
X13402257Y-4818123D01*
X13406386Y-4815232D01*
X13410518Y-4812349D01*
X13414652Y-4809474D01*
X13418789Y-4806607D01*
X13422929Y-4803748D01*
X13427071Y-4800897D01*
X13431215Y-4798054D01*
X13435362Y-4795218D01*
X13439512Y-4792391D01*
X13443664Y-4789572D01*
X13447819Y-4786760D01*
X13451977Y-4783957D01*
X13456136Y-4781161D01*
X13460299Y-4778373D01*
X13464464Y-4775593D01*
X13468631Y-4772821D01*
X13472801Y-4770057D01*
X13476974Y-4767301D01*
X13481148Y-4764553D01*
X13485326Y-4761813D01*
X13489506Y-4759081D01*
X13493688Y-4756357D01*
X13497873Y-4753640D01*
X13502060Y-4750932D01*
X13506249Y-4748232D01*
X13510442Y-4745539D01*
X13514636Y-4742854D01*
X13518833Y-4740178D01*
X13523032Y-4737509D01*
X13527234Y-4734848D01*
X13531438Y-4732196D01*
X13535644Y-4729551D01*
X13539853Y-4726914D01*
X13544064Y-4724285D01*
X13548278Y-4721664D01*
X13552494Y-4719051D01*
X13556712Y-4716446D01*
X13560932Y-4713849D01*
X13565155Y-4711259D01*
X13569380Y-4708678D01*
X13573607Y-4706105D01*
X13577837Y-4703540D01*
X13582069Y-4700982D01*
X13586303Y-4698433D01*
X13590540Y-4695891D01*
X13594778Y-4693358D01*
X13599019Y-4690833D01*
X13603263Y-4688315D01*
X13607508Y-4685806D01*
X13611755Y-4683304D01*
X13616005Y-4680810D01*
X13620257Y-4678325D01*
X13624511Y-4675847D01*
X13628768Y-4673378D01*
X13633026Y-4670916D01*
X13637287Y-4668462D01*
X13641549Y-4666017D01*
X13645814Y-4663579D01*
X13650081Y-4661149D01*
X13654350Y-4658728D01*
X13658621Y-4656314D01*
X13662894Y-4653908D01*
X13667169Y-4651511D01*
X13671447Y-4649121D01*
X13675726Y-4646739D01*
X13680007Y-4644366D01*
X13684291Y-4642000D01*
X13688576Y-4639643D01*
X13692863Y-4637293D01*
X13697153Y-4634952D01*
X13701444Y-4632618D01*
X13705737Y-4630293D01*
X13710032Y-4627975D01*
X13714329Y-4625666D01*
X13718628Y-4623364D01*
X13722929Y-4621071D01*
X13727232Y-4618786D01*
X13731536Y-4616509D01*
X13735843Y-4614240D01*
X13740151Y-4611978D01*
X13744461Y-4609725D01*
X13748773Y-4607481D01*
X13753087Y-4605244D01*
X13757402Y-4603015D01*
X13761719Y-4600794D01*
X13766038Y-4598581D01*
X13770359Y-4596377D01*
X13774681Y-4594180D01*
X13779006Y-4591992D01*
X13783331Y-4589812D01*
X13787659Y-4587639D01*
X13791988Y-4585475D01*
X13796319Y-4583319D01*
X13800651Y-4581171D01*
X13804985Y-4579032D01*
X13809321Y-4576900D01*
X13813658Y-4574777D01*
X13817997Y-4572661D01*
X13822337Y-4570554D01*
X13826679Y-4568455D01*
X13831022Y-4566364D01*
X13835367Y-4564281D01*
X13839713Y-4562206D01*
X13844061Y-4560140D01*
X13848410Y-4558081D01*
X13852761Y-4556031D01*
X13857113Y-4553989D01*
X13861466Y-4551955D01*
X13865821Y-4549930D01*
X13870177Y-4547912D01*
X13874534Y-4545903D01*
X13878892Y-4543902D01*
X13883252Y-4541909D01*
X13887613Y-4539924D01*
X13891976Y-4537948D01*
X13896339Y-4535979D01*
X13900704Y-4534019D01*
X13905070Y-4532068D01*
X13909437Y-4530124D01*
X13913805Y-4528189D01*
X13918175Y-4526261D01*
X13922545Y-4524343D01*
X13926916Y-4522432D01*
X13931289Y-4520530D01*
X13935662Y-4518636D01*
X13940037Y-4516750D01*
X13944412Y-4514872D01*
X13948789Y-4513003D01*
X13953166Y-4511142D01*
X13957544Y-4509289D01*
X13961923Y-4507445D01*
X13966303Y-4505609D01*
X13970684Y-4503781D01*
X13975065Y-4501962D01*
X13979447Y-4500151D01*
X13983830Y-4498348D01*
X13988214Y-4496554D01*
X13992598Y-4494768D01*
X13996983Y-4492990D01*
X14001369Y-4491221D01*
X14005755Y-4489460D01*
X14010141Y-4487707D01*
X14014529Y-4485963D01*
X14018916Y-4484227D01*
X14023305Y-4482500D01*
X14027693Y-4480781D01*
X14032082Y-4479070D01*
X14036472Y-4477368D01*
X14040862Y-4475674D01*
X14045252Y-4473989D01*
X14049642Y-4472312D01*
X14054033Y-4470643D01*
X14058424Y-4468983D01*
X14062815Y-4467332D01*
X14067206Y-4465689D01*
X14071597Y-4464054D01*
X14075988Y-4462428D01*
X14080380Y-4460810D01*
X14084771Y-4459201D01*
X14089163Y-4457601D01*
X14093554Y-4456009D01*
X14097945Y-4454425D01*
X14102336Y-4452850D01*
X14106727Y-4451284D01*
X14111118Y-4449726D01*
X14115508Y-4448176D01*
X14119898Y-4446636D01*
X14124288Y-4445103D01*
X14128677Y-4443580D01*
X14133066Y-4442065D01*
X14137455Y-4440558D01*
X14141843Y-4439060D01*
X14146230Y-4437571D01*
X14150617Y-4436091D01*
X14155003Y-4434619D01*
X14159388Y-4433155D01*
X14163773Y-4431701D01*
X14168157Y-4430255D01*
X14172540Y-4428818D01*
X14176922Y-4427389D01*
X14181303Y-4425969D01*
X14185683Y-4424558D01*
X14190062Y-4423155D01*
X14194440Y-4421762D01*
X14198817Y-4420377D01*
X14203193Y-4419000D01*
X14207567Y-4417633D01*
X14211941Y-4416274D01*
X14216312Y-4414924D01*
X14220683Y-4413583D01*
X14225051Y-4412250D01*
X14229419Y-4410927D01*
X14233785Y-4409612D01*
X14238149Y-4408306D01*
X14242511Y-4407009D01*
X14246872Y-4405721D01*
X14251230Y-4404441D01*
X14255587Y-4403171D01*
X14259942Y-4401909D01*
X14264295Y-4400656D01*
X14268645Y-4399412D01*
X14272994Y-4398177D01*
X14277340Y-4396951D01*
X14281684Y-4395734D01*
X14286025Y-4394526D01*
X14290364Y-4393327D01*
X14294701Y-4392137D01*
X14299035Y-4390956D01*
X14303366Y-4389783D01*
X14307694Y-4388620D01*
X14312020Y-4387466D01*
X14316342Y-4386321D01*
X14320662Y-4385185D01*
X14324978Y-4384058D01*
X14329291Y-4382940D01*
X14333601Y-4381831D01*
X14337908Y-4380731D01*
X14342211Y-4379640D01*
X14346510Y-4378559D01*
X14350806Y-4377486D01*
X14355098Y-4376423D01*
X14359387Y-4375369D01*
X14363671Y-4374324D01*
X14367951Y-4373288D01*
X14372227Y-4372262D01*
X14376499Y-4371244D01*
X14380766Y-4370236D01*
X14385029Y-4369237D01*
X14389288Y-4368248D01*
X14393541Y-4367267D01*
X14397790Y-4366296D01*
X14402034Y-4365335D01*
X14406273Y-4364382D01*
X14410506Y-4363439D01*
X14414734Y-4362505D01*
X14418957Y-4361581D01*
X14423174Y-4360666D01*
X14427386Y-4359760D01*
X14431591Y-4358864D01*
X14435791Y-4357977D01*
X14439984Y-4357100D01*
X14444171Y-4356232D01*
X14448352Y-4355373D01*
X14452526Y-4354524D01*
X14456693Y-4353685D01*
X14460853Y-4352855D01*
X14465006Y-4352034D01*
X14469152Y-4351223D01*
X14473291Y-4350422D01*
X14477421Y-4349630D01*
X14481544Y-4348848D01*
X14485659Y-4348075D01*
X14489766Y-4347312D01*
X14493864Y-4346559D01*
X14497954Y-4345815D01*
X14502035Y-4345081D01*
X14506107Y-4344357D01*
X14510170Y-4343643D01*
X14514223Y-4342938D01*
X14518266Y-4342243D01*
X14522300Y-4341557D01*
X14526323Y-4340882D01*
X14530336Y-4340216D01*
X14534338Y-4339560D01*
X14538329Y-4338914D01*
X14542309Y-4338278D01*
X14546277Y-4337652D01*
X14550234Y-4337036D01*
X14554178Y-4336429D01*
X14558110Y-4335833D01*
X14562029Y-4335246D01*
X14565935Y-4334669D01*
X14569828Y-4334103D01*
X14573707Y-4333546D01*
X14577571Y-4333000D01*
X14581421Y-4332463D01*
X14585256Y-4331937D01*
X14589076Y-4331421D01*
X14592880Y-4330915D01*
X14596668Y-4330419D01*
X14600438Y-4329933D01*
X14604192Y-4329457D01*
X14607928Y-4328992D01*
X14611646Y-4328537D01*
X14615345Y-4328092D01*
X14619025Y-4327658D01*
X14622685Y-4327233D01*
X14626324Y-4326819D01*
X14629942Y-4326416D01*
X14633538Y-4326023D01*
X14637112Y-4325640D01*
X14640663Y-4325267D01*
X14644189Y-4324906D01*
X14647690Y-4324554D01*
X14651166Y-4324213D01*
X14654615Y-4323883D01*
X14658036Y-4323563D01*
X14661429Y-4323254D01*
X14664792Y-4322955D01*
X14668124Y-4322667D01*
X14671423Y-4322390D01*
X14674689Y-4322123D01*
X14677920Y-4321867D01*
X14681114Y-4321622D01*
X14684271Y-4321388D01*
X14687387Y-4321164D01*
X14690461Y-4320952D01*
X14693491Y-4320750D01*
X14696475Y-4320559D01*
X14699409Y-4320379D01*
X14702292Y-4320210D01*
X14705120Y-4320051D01*
X14707889Y-4319904D01*
X14710595Y-4319768D01*
X14713234Y-4319643D01*
X14715800Y-4319529D01*
X14718287Y-4319427D01*
X14720687Y-4319335D01*
X14722991Y-4319254D01*
X14725189Y-4319185D01*
X14727265Y-4319127D01*
X14729199Y-4319080D01*
X14730964Y-4319044D01*
X14732516Y-4319019D01*
X14733776Y-4319005D01*
X14734600Y-4319000D01*
X14464600Y-14319000D02*
X14464600Y-11109000D01*
X14464600Y-14319000D02*
X14144600Y-14319000D01*
D11*
X11576951Y-14639208D02*
X11576951Y-14439208D01*
X11576951Y-14439208D02*
X11624570Y-14439208D01*
X11624570Y-14439208D02*
X11653141Y-14448732D01*
X11653141Y-14448732D02*
X11672189Y-14467779D01*
X11672189Y-14467779D02*
X11681713Y-14486827D01*
X11681713Y-14486827D02*
X11691237Y-14524922D01*
X11691237Y-14524922D02*
X11691237Y-14553493D01*
X11691237Y-14553493D02*
X11681713Y-14591589D01*
X11681713Y-14591589D02*
X11672189Y-14610636D01*
X11672189Y-14610636D02*
X11653141Y-14629684D01*
X11653141Y-14629684D02*
X11624570Y-14639208D01*
X11624570Y-14639208D02*
X11576951Y-14639208D01*
X11776951Y-14639208D02*
X11776951Y-14505874D01*
X11776951Y-14543970D02*
X11786475Y-14524922D01*
X11786475Y-14524922D02*
X11795999Y-14515398D01*
X11795999Y-14515398D02*
X11815046Y-14505874D01*
X11815046Y-14505874D02*
X11834094Y-14505874D01*
X11900760Y-14639208D02*
X11900760Y-14505874D01*
X11900760Y-14439208D02*
X11891237Y-14448732D01*
X11891237Y-14448732D02*
X11900760Y-14458255D01*
X11900760Y-14458255D02*
X11910284Y-14448732D01*
X11910284Y-14448732D02*
X11900760Y-14439208D01*
X11900760Y-14439208D02*
X11900760Y-14458255D01*
X12024570Y-14639208D02*
X12005522Y-14629684D01*
X12005522Y-14629684D02*
X11995999Y-14610636D01*
X11995999Y-14610636D02*
X11995999Y-14439208D01*
X12129332Y-14639208D02*
X12110284Y-14629684D01*
X12110284Y-14629684D02*
X12100760Y-14610636D01*
X12100760Y-14610636D02*
X12100760Y-14439208D01*
X12357903Y-14639208D02*
X12357903Y-14439208D01*
X12357903Y-14439208D02*
X12424570Y-14582065D01*
X12424570Y-14582065D02*
X12491237Y-14439208D01*
X12491237Y-14439208D02*
X12491237Y-14639208D01*
X12672189Y-14639208D02*
X12672189Y-14534446D01*
X12672189Y-14534446D02*
X12662665Y-14515398D01*
X12662665Y-14515398D02*
X12643618Y-14505874D01*
X12643618Y-14505874D02*
X12605522Y-14505874D01*
X12605522Y-14505874D02*
X12586475Y-14515398D01*
X12672189Y-14629684D02*
X12653141Y-14639208D01*
X12653141Y-14639208D02*
X12605522Y-14639208D01*
X12605522Y-14639208D02*
X12586475Y-14629684D01*
X12586475Y-14629684D02*
X12576951Y-14610636D01*
X12576951Y-14610636D02*
X12576951Y-14591589D01*
X12576951Y-14591589D02*
X12586475Y-14572541D01*
X12586475Y-14572541D02*
X12605522Y-14563017D01*
X12605522Y-14563017D02*
X12653141Y-14563017D01*
X12653141Y-14563017D02*
X12672189Y-14553493D01*
X12767427Y-14505874D02*
X12767427Y-14705874D01*
X12767427Y-14515398D02*
X12786475Y-14505874D01*
X12786475Y-14505874D02*
X12824570Y-14505874D01*
X12824570Y-14505874D02*
X12843618Y-14515398D01*
X12843618Y-14515398D02*
X12853141Y-14524922D01*
X12853141Y-14524922D02*
X12862665Y-14543970D01*
X12862665Y-14543970D02*
X12862665Y-14601112D01*
X12862665Y-14601112D02*
X12853141Y-14620160D01*
X12853141Y-14620160D02*
X12843618Y-14629684D01*
X12843618Y-14629684D02*
X12824570Y-14639208D01*
X12824570Y-14639208D02*
X12786475Y-14639208D01*
X12786475Y-14639208D02*
X12767427Y-14629684D01*
X12948380Y-14620160D02*
X12957903Y-14629684D01*
X12957903Y-14629684D02*
X12948380Y-14639208D01*
X12948380Y-14639208D02*
X12938856Y-14629684D01*
X12938856Y-14629684D02*
X12948380Y-14620160D01*
X12948380Y-14620160D02*
X12948380Y-14639208D01*
X12948380Y-14515398D02*
X12957903Y-14524922D01*
X12957903Y-14524922D02*
X12948380Y-14534446D01*
X12948380Y-14534446D02*
X12938856Y-14524922D01*
X12938856Y-14524922D02*
X12948380Y-14515398D01*
X12948380Y-14515398D02*
X12948380Y-14534446D01*
M02*
